M48
; DRILL file {KiCad (5.1.4)-1} date 23/03/2020 00:06:28
; FORMAT={-:-/ absolute / metric / decimal}
; #@! TF.CreationDate,2020-03-23T00:06:28+01:00
; #@! TF.GenerationSoftware,Kicad,Pcbnew,(5.1.4)-1
; #@! TF.FileFunction,Plated,1,2,PTH
FMAT,2
METRIC
T1C0.200
T2C0.300
T3C0.400
T4C0.800
T5C0.850
T6C0.920
T7C1.000
T8C1.200
T9C1.400
T10C2.300
T11C3.200
%
G90
G05
T1
X88.521Y-81.585
X89.511Y-80.595
X89.511Y-82.575
X90.501Y-79.605
X90.501Y-81.585
X90.501Y-83.565
X91.491Y-78.615
X91.491Y-80.595
X91.491Y-82.575
X91.491Y-84.555
X92.481Y-79.605
X92.481Y-81.585
X92.481Y-83.565
X93.471Y-80.595
X93.471Y-82.575
X94.461Y-81.585
T2
X101.295Y-96.063
X101.295Y-97.841
X101.295Y-99.619
X101.295Y-101.397
X101.295Y-103.175
X103.581Y-96.063
X103.581Y-97.841
X103.581Y-99.619
X103.581Y-101.397
X103.581Y-103.175
X105.867Y-96.063
X105.867Y-97.841
X105.867Y-99.619
X105.867Y-101.397
X105.867Y-103.175
X107.899Y-96.063
X107.899Y-97.841
X107.899Y-99.619
X107.899Y-101.397
X107.899Y-103.175
X109.931Y-96.063
X109.931Y-97.841
X109.931Y-99.619
X109.931Y-101.397
X109.931Y-103.175
T3
X62.056Y-88.436
X62.056Y-92.436
X62.856Y-95.636
X63.656Y-71.636
X64.456Y-86.837
X64.456Y-90.837
X65.256Y-94.036
X66.056Y-73.236
X66.856Y-89.236
X67.656Y-92.436
X68.456Y-95.636
X70.056Y-71.636
X70.056Y-76.436
X70.056Y-80.436
X70.856Y-93.236
X71.656Y-82.837
X72.456Y-73.236
X72.456Y-95.636
X73.256Y-85.236
X74.056Y-80.436
X74.856Y-74.837
X75.656Y-82.837
X75.656Y-86.837
X76.456Y-101.236
X77.256Y-68.436
X78.056Y-110.837
X78.856Y-102.837
X78.856Y-114.036
X79.959Y-81.432
X81.256Y-100.436
X82.056Y-73.236
X82.056Y-82.837
X82.056Y-106.837
X82.056Y-114.837
X82.856Y-91.636
X83.656Y-98.837
X83.656Y-102.837
X84.277Y-85.801
X84.43Y-77.978
X86.004Y-73.063
X86.056Y-69.236
X86.056Y-100.436
X86.056Y-104.436
X86.056Y-110.837
X86.856Y-117.236
X87.579Y-74.422
X87.656Y-106.837
X88.456Y-70.837
X89.256Y-101.236
X89.256Y-109.236
X89.256Y-115.636
X90.856Y-111.636
X92.05Y-72.593
X92.456Y-100.436
X94.056Y-64.436
X94.056Y-110.837
X94.856Y-67.636
X95.656Y-92.436
X95.656Y-101.236
X95.714Y-80.993
X96.114Y-81.737
X96.279Y-72.136
X96.456Y-115.636
X96.785Y-75.703
X96.901Y-89.878
X97.256Y-111.636
X98.123Y-81.743
X98.577Y-81.084
X98.856Y-117.236
X99.314Y-61.316
X99.656Y-64.436
X99.656Y-68.436
X99.656Y-76.436
X99.883Y-87.099
X99.974Y-84.328
X100.625Y-80.459
X101.524Y-88.671
X101.663Y-85.776
X102.056Y-115.636
X102.856Y-93.236
X104.456Y-68.436
X104.456Y-72.436
X105.256Y-75.636
X105.256Y-80.436
X106.056Y-92.436
X106.056Y-112.436
X106.856Y-70.037
X107.656Y-73.236
X107.656Y-78.036
X108.456Y-86.837
X108.456Y-94.036
X109.256Y-68.436
X110.056Y-89.236
X110.617Y-118.554
X110.856Y-84.436
X110.856Y-92.436
X110.856Y-106.036
X113.256Y-73.236
X116.456Y-70.037
T4
X81.305Y-87.755
T5
X126.746Y-115.824
X129.286Y-115.824
X58.801Y-115.824
X61.341Y-115.824
T6
X60.755Y-63.509
X60.755Y-66.129
X63.255Y-63.509
X63.255Y-66.129
X65.254Y-63.509
X65.254Y-66.129
X67.754Y-63.509
X67.754Y-66.129
X78.344Y-63.483
X78.344Y-66.103
X80.844Y-63.483
X80.844Y-66.103
X82.844Y-63.483
X82.844Y-66.103
X85.344Y-63.483
X85.344Y-66.103
X63.5Y-74.676
X63.5Y-77.176
X63.5Y-79.176
X63.5Y-81.676
X109.332Y-63.483
X109.332Y-66.103
X111.832Y-63.483
X111.832Y-66.103
X113.832Y-63.483
X113.832Y-66.103
X116.332Y-63.483
X116.332Y-66.103
T7
X98.603Y-108.56
X104.038Y-112.319
T8
X79.4Y-95.148
X58.527Y-100.667
X58.527Y-104.167
X58.527Y-91.067
X58.527Y-94.567
T9
X115.697Y-109.474
X120.777Y-109.474
X127.463Y-102.32
X127.463Y-107.4
X127.463Y-75.92
X127.463Y-81.0
X67.31Y-109.474
X72.39Y-109.474
X127.463Y-62.72
X127.463Y-67.8
X115.697Y-102.616
X120.777Y-102.616
X67.31Y-102.616
X72.39Y-102.616
X127.463Y-89.12
X127.463Y-94.2
T10
X57.684Y-60.799
X57.684Y-66.479
X70.825Y-60.799
X70.825Y-66.479
X75.274Y-60.773
X75.274Y-66.453
X88.414Y-60.773
X88.414Y-66.453
X60.79Y-71.606
X60.79Y-84.746
X106.262Y-60.773
X106.262Y-66.453
X119.402Y-60.773
X119.402Y-66.453
T11
X53.5Y-116.5
X134.5Y-53.5
X53.5Y-53.5
X134.5Y-116.5
T0
M30
