M48
; DRILL file {KiCad (5.1.4)-1} date 15/01/2020 02:18:33
; FORMAT={-:-/ absolute / metric / decimal}
; #@! TF.CreationDate,2020-01-15T02:18:33+01:00
; #@! TF.GenerationSoftware,Kicad,Pcbnew,(5.1.4)-1
; #@! TF.FileFunction,Plated,1,2,PTH
FMAT,2
METRIC
T1C0.200
T2C0.300
T3C0.400
T4C0.850
T5C0.920
T6C1.000
T7C1.200
T8C1.400
T9C2.300
T10C3.200
%
G90
G05
T1
X79.561Y-80.323
X79.561Y-81.723
X79.561Y-83.123
X79.561Y-84.523
X80.961Y-80.323
X80.961Y-81.723
X80.961Y-83.123
X80.961Y-84.523
X82.361Y-80.323
X82.361Y-81.723
X82.361Y-83.123
X82.361Y-84.523
X83.761Y-80.323
X83.761Y-81.723
X83.761Y-83.123
X83.761Y-84.523
T2
X78.486Y-83.558
X78.486Y-84.288
X101.295Y-96.063
X101.295Y-97.841
X101.295Y-99.619
X101.295Y-101.397
X101.295Y-103.175
X103.581Y-96.063
X103.581Y-97.841
X103.581Y-99.619
X103.581Y-101.397
X103.581Y-103.175
X105.867Y-96.063
X105.867Y-97.841
X105.867Y-99.619
X105.867Y-101.397
X105.867Y-103.175
X107.899Y-96.063
X107.899Y-97.841
X107.899Y-99.619
X107.899Y-101.397
X107.899Y-103.175
X109.931Y-96.063
X109.931Y-97.841
X109.931Y-99.619
X109.931Y-101.397
X109.931Y-103.175
T3
X58.856Y-83.636
X59.656Y-68.436
X60.456Y-86.036
X60.456Y-111.636
X60.782Y-75.362
X61.256Y-79.636
X61.256Y-104.436
X62.056Y-70.037
X62.056Y-82.837
X62.056Y-88.436
X62.056Y-114.036
X62.856Y-102.036
X62.856Y-109.236
X62.856Y-118.036
X63.148Y-75.756
X63.656Y-85.236
X63.656Y-98.837
X63.664Y-76.272
X64.456Y-81.236
X64.456Y-90.036
X64.456Y-111.636
X64.456Y-115.636
X66.056Y-70.037
X66.056Y-83.636
X66.056Y-87.636
X66.856Y-91.636
X66.856Y-113.236
X66.856Y-117.236
X68.456Y-94.036
X69.256Y-114.837
X70.056Y-74.037
X70.056Y-118.036
X70.856Y-77.236
X70.856Y-95.636
X71.656Y-86.837
X71.656Y-113.236
X72.456Y-116.436
X73.256Y-106.036
X73.508Y-83.414
X73.628Y-79.166
X74.056Y-88.436
X74.856Y-70.037
X74.856Y-111.636
X74.856Y-118.036
X75.656Y-108.436
X75.656Y-114.837
X76.048Y-76.962
X76.456Y-101.236
X76.937Y-71.847
X76.937Y-72.577
X77.038Y-87.046
X77.064Y-76.606
X78.056Y-110.837
X78.232Y-88.519
X78.856Y-102.837
X78.856Y-114.036
X79.4Y-79.273
X81.812Y-74.802
X82.042Y-72.847
X82.056Y-106.837
X82.056Y-114.837
X82.093Y-91.237
X83.206Y-74.164
X83.656Y-101.236
X83.656Y-118.036
X83.722Y-74.68
X84.456Y-104.436
X84.582Y-89.408
X85.115Y-79.4
X86.056Y-98.837
X86.056Y-110.837
X86.856Y-102.036
X86.856Y-117.236
X86.893Y-77.064
X87.173Y-83.668
X87.656Y-106.837
X89.256Y-100.436
X89.256Y-109.236
X89.256Y-115.636
X89.484Y-85.115
X89.586Y-81.255
X89.637Y-79.07
X90.856Y-111.636
X90.856Y-118.036
X92.456Y-72.436
X92.456Y-101.236
X93.447Y-83.236
X93.447Y-79.832
X94.056Y-110.837
X94.234Y-69.485
X94.234Y-70.215
X94.856Y-74.037
X95.656Y-89.236
X96.456Y-76.436
X96.456Y-115.636
X97.256Y-72.436
X97.256Y-111.636
X98.056Y-80.436
X98.056Y-84.436
X98.856Y-74.837
X98.856Y-117.236
X99.656Y-68.436
X100.456Y-82.036
X102.056Y-115.636
X104.456Y-73.236
X104.456Y-77.236
X104.456Y-94.036
X105.256Y-118.036
X105.918Y-70.653
X105.918Y-71.383
X106.056Y-83.636
X106.056Y-87.636
X106.056Y-91.636
X106.056Y-112.436
X106.856Y-74.837
X107.656Y-68.436
X108.456Y-72.436
X108.456Y-81.236
X108.456Y-85.236
X108.456Y-89.236
X108.456Y-93.236
X108.456Y-114.036
X109.256Y-65.236
X110.856Y-67.636
X110.856Y-78.837
X110.856Y-82.837
X110.856Y-86.837
X110.856Y-90.837
X110.856Y-106.036
X110.856Y-110.036
X110.856Y-115.636
X111.656Y-71.636
X111.656Y-94.036
X112.456Y-97.236
X112.456Y-101.236
X112.456Y-112.436
X113.256Y-76.436
X113.256Y-80.436
X113.256Y-84.436
X113.256Y-88.436
X113.256Y-117.236
X114.056Y-69.236
X114.056Y-91.636
X114.856Y-94.837
X114.856Y-98.837
X114.856Y-114.036
X115.656Y-74.037
X115.656Y-78.036
X115.656Y-82.036
X115.656Y-86.036
X116.456Y-116.436
X117.256Y-66.037
X118.056Y-113.236
X119.656Y-115.636
X120.456Y-76.436
X122.056Y-114.036
X122.856Y-74.037
X122.856Y-83.636
X122.856Y-87.636
X122.856Y-117.236
X123.656Y-104.436
X123.656Y-110.036
X125.256Y-71.636
X125.256Y-85.236
X125.256Y-112.436
X126.056Y-97.236
T4
X126.746Y-115.824
X129.286Y-115.824
X58.801Y-115.824
X61.341Y-115.824
T5
X112.828Y-63.487
X115.328Y-63.487
X117.328Y-63.487
X119.828Y-63.487
X78.09Y-63.483
X78.09Y-66.103
X80.59Y-63.483
X80.59Y-66.103
X82.59Y-63.483
X82.59Y-66.103
X85.09Y-63.483
X85.09Y-66.103
X95.454Y-63.483
X95.454Y-66.103
X97.954Y-63.483
X97.954Y-66.103
X99.954Y-63.483
X99.954Y-66.103
X102.454Y-63.483
X102.454Y-66.103
X60.755Y-63.509
X60.755Y-66.129
X63.255Y-63.509
X63.255Y-66.129
X65.254Y-63.509
X65.254Y-66.129
X67.754Y-63.509
X67.754Y-66.129
T6
X67.818Y-74.676
X67.818Y-80.747
X81.229Y-99.771
X87.427Y-72.441
X98.603Y-108.56
X104.038Y-112.319
T7
X58.527Y-89.035
X58.527Y-92.535
X58.527Y-98.635
X58.527Y-102.135
T8
X115.697Y-102.616
X120.777Y-102.616
X115.697Y-109.474
X120.777Y-109.474
X67.31Y-102.616
X72.39Y-102.616
X127.463Y-102.32
X127.463Y-107.4
X127.463Y-89.12
X127.463Y-94.2
X127.463Y-75.92
X127.463Y-81.0
X67.31Y-109.474
X72.39Y-109.474
X127.463Y-62.72
X127.463Y-67.8
T9
X75.02Y-60.773
X75.02Y-66.453
X88.16Y-60.773
X88.16Y-66.453
X92.385Y-60.773
X92.385Y-66.453
X105.524Y-60.773
X105.524Y-66.453
X57.684Y-60.799
X57.684Y-66.479
X70.825Y-60.799
X70.825Y-66.479
X109.758Y-60.777
X122.898Y-60.777
T10
X134.5Y-53.5
X53.5Y-116.5
X134.5Y-116.5
X53.5Y-53.5
T0
M30
