G04 #@! TF.GenerationSoftware,KiCad,Pcbnew,(5.1.4)-1*
G04 #@! TF.CreationDate,2020-01-12T03:23:05+01:00*
G04 #@! TF.ProjectId,hub_usb_dispatch,6875625f-7573-4625-9f64-697370617463,rev?*
G04 #@! TF.SameCoordinates,Original*
G04 #@! TF.FileFunction,Legend,Top*
G04 #@! TF.FilePolarity,Positive*
%FSLAX46Y46*%
G04 Gerber Fmt 4.6, Leading zero omitted, Abs format (unit mm)*
G04 Created by KiCad (PCBNEW (5.1.4)-1) date 2020-01-12 03:23:05*
%MOMM*%
%LPD*%
G04 APERTURE LIST*
%ADD10C,0.125000*%
%ADD11C,0.300000*%
%ADD12C,0.250000*%
%ADD13C,0.120000*%
%ADD14C,0.200000*%
%ADD15C,0.150000*%
G04 APERTURE END LIST*
D10*
X58610523Y-118806114D02*
X58991476Y-118806114D01*
X58801000Y-118996590D02*
X58801000Y-118615638D01*
X61150523Y-118806114D02*
X61531476Y-118806114D01*
X129095523Y-118806114D02*
X129476476Y-118806114D01*
X126555523Y-118806114D02*
X126936476Y-118806114D01*
X126746000Y-118996590D02*
X126746000Y-118615638D01*
D11*
X123652742Y-68354628D02*
X123652742Y-67211771D01*
X123652742Y-63766628D02*
X123652742Y-62623771D01*
X124224171Y-63195200D02*
X123081314Y-63195200D01*
X123652742Y-81554628D02*
X123652742Y-80411771D01*
X123652742Y-76474628D02*
X123652742Y-75331771D01*
X124224171Y-75903200D02*
X123081314Y-75903200D01*
X123652742Y-94754628D02*
X123652742Y-93611771D01*
X123652742Y-89674628D02*
X123652742Y-88531771D01*
X124224171Y-89103200D02*
X123081314Y-89103200D01*
X61614857Y-88431371D02*
X61614857Y-89574228D01*
X61614857Y-91936571D02*
X61614857Y-93079428D01*
X61043428Y-92508000D02*
X62186285Y-92508000D01*
X61614857Y-98031371D02*
X61614857Y-99174228D01*
X61614857Y-101536571D02*
X61614857Y-102679428D01*
X61043428Y-102108000D02*
X62186285Y-102108000D01*
X110504171Y-119025222D02*
X111647028Y-119025222D01*
X124829771Y-119025222D02*
X125972628Y-119025222D01*
X125401200Y-119596651D02*
X125401200Y-118453794D01*
X76441371Y-119029942D02*
X77584228Y-119029942D01*
X77012800Y-119601371D02*
X77012800Y-118458514D01*
X62115771Y-119029942D02*
X63258628Y-119029942D01*
D12*
X100527228Y-117884657D02*
X100927228Y-119084657D01*
X101327228Y-117884657D01*
X102127228Y-118456085D02*
X102298657Y-118513228D01*
X102355800Y-118570371D01*
X102412942Y-118684657D01*
X102412942Y-118856085D01*
X102355800Y-118970371D01*
X102298657Y-119027514D01*
X102184371Y-119084657D01*
X101727228Y-119084657D01*
X101727228Y-117884657D01*
X102127228Y-117884657D01*
X102241514Y-117941800D01*
X102298657Y-117998942D01*
X102355800Y-118113228D01*
X102355800Y-118227514D01*
X102298657Y-118341800D01*
X102241514Y-118398942D01*
X102127228Y-118456085D01*
X101727228Y-118456085D01*
X102870085Y-118741800D02*
X103441514Y-118741800D01*
X102755800Y-119084657D02*
X103155800Y-117884657D01*
X103555800Y-119084657D01*
X103784371Y-117884657D02*
X104470085Y-117884657D01*
X104127228Y-119084657D02*
X104127228Y-117884657D01*
X104584371Y-119198942D02*
X105498657Y-119198942D01*
X105784371Y-119084657D02*
X105784371Y-117884657D01*
X106241514Y-117884657D01*
X106355800Y-117941800D01*
X106412942Y-117998942D01*
X106470085Y-118113228D01*
X106470085Y-118284657D01*
X106412942Y-118398942D01*
X106355800Y-118456085D01*
X106241514Y-118513228D01*
X105784371Y-118513228D01*
X95993142Y-118678314D02*
X96907428Y-118678314D01*
X96450285Y-119135457D02*
X96450285Y-118221171D01*
X98050285Y-117935457D02*
X97478857Y-117935457D01*
X97421714Y-118506885D01*
X97478857Y-118449742D01*
X97593142Y-118392600D01*
X97878857Y-118392600D01*
X97993142Y-118449742D01*
X98050285Y-118506885D01*
X98107428Y-118621171D01*
X98107428Y-118906885D01*
X98050285Y-119021171D01*
X97993142Y-119078314D01*
X97878857Y-119135457D01*
X97593142Y-119135457D01*
X97478857Y-119078314D01*
X97421714Y-119021171D01*
X98450285Y-117935457D02*
X98850285Y-119135457D01*
X99250285Y-117935457D01*
X81515314Y-117935457D02*
X81915314Y-119135457D01*
X82315314Y-117935457D01*
X83115314Y-118506885D02*
X83286742Y-118564028D01*
X83343885Y-118621171D01*
X83401028Y-118735457D01*
X83401028Y-118906885D01*
X83343885Y-119021171D01*
X83286742Y-119078314D01*
X83172457Y-119135457D01*
X82715314Y-119135457D01*
X82715314Y-117935457D01*
X83115314Y-117935457D01*
X83229600Y-117992600D01*
X83286742Y-118049742D01*
X83343885Y-118164028D01*
X83343885Y-118278314D01*
X83286742Y-118392600D01*
X83229600Y-118449742D01*
X83115314Y-118506885D01*
X82715314Y-118506885D01*
X83858171Y-118792600D02*
X84429600Y-118792600D01*
X83743885Y-119135457D02*
X84143885Y-117935457D01*
X84543885Y-119135457D01*
X84772457Y-117935457D02*
X85458171Y-117935457D01*
X85115314Y-119135457D02*
X85115314Y-117935457D01*
X85572457Y-119249742D02*
X86486742Y-119249742D01*
X87343885Y-119135457D02*
X86772457Y-119135457D01*
X86772457Y-117935457D01*
D13*
X120328100Y-64747300D02*
X119328100Y-64747300D01*
X123578100Y-50997300D02*
X123578100Y-50497300D01*
X122578100Y-50997300D02*
X123578100Y-50997300D01*
X122578100Y-58997300D02*
X122578100Y-50997300D01*
X122578100Y-64497300D02*
X122578100Y-62497300D01*
X110078100Y-64497300D02*
X122578100Y-64497300D01*
X110078100Y-62497300D02*
X110078100Y-64497300D01*
X110078100Y-50997300D02*
X110078100Y-58997300D01*
X109078100Y-50997300D02*
X110078100Y-50997300D01*
X109078100Y-50497300D02*
X109078100Y-50997300D01*
X123578100Y-50497300D02*
X109078100Y-50497300D01*
X84239200Y-95482400D02*
X83239200Y-95482400D01*
X83739200Y-94982400D02*
X83739200Y-95982400D01*
X78033637Y-96222400D02*
X76969200Y-97286837D01*
X84424763Y-96222400D02*
X85489200Y-97286837D01*
X84424763Y-96222400D02*
X82739200Y-96222400D01*
X78033637Y-96222400D02*
X79719200Y-96222400D01*
X76969200Y-97286837D02*
X76969200Y-104742400D01*
X85489200Y-97286837D02*
X85489200Y-104742400D01*
X85489200Y-104742400D02*
X82739200Y-104742400D01*
X76969200Y-104742400D02*
X79719200Y-104742400D01*
X82537200Y-115947200D02*
X83537200Y-115947200D01*
X83037200Y-116447200D02*
X83037200Y-115447200D01*
X88742763Y-115207200D02*
X89807200Y-114142763D01*
X82351637Y-115207200D02*
X81287200Y-114142763D01*
X82351637Y-115207200D02*
X84037200Y-115207200D01*
X88742763Y-115207200D02*
X87057200Y-115207200D01*
X89807200Y-114142763D02*
X89807200Y-106687200D01*
X81287200Y-114142763D02*
X81287200Y-106687200D01*
X81287200Y-106687200D02*
X84037200Y-106687200D01*
X89807200Y-106687200D02*
X87057200Y-106687200D01*
X77551000Y-77813000D02*
X77051000Y-77813000D01*
X86271000Y-87033000D02*
X86271000Y-86533000D01*
X85771000Y-87033000D02*
X86271000Y-87033000D01*
X77051000Y-87033000D02*
X77051000Y-86533000D01*
X77551000Y-87033000D02*
X77051000Y-87033000D01*
X86271000Y-77813000D02*
X86271000Y-78313000D01*
X85771000Y-77813000D02*
X86271000Y-77813000D01*
X93741422Y-117423000D02*
X94258578Y-117423000D01*
X93741422Y-116003000D02*
X94258578Y-116003000D01*
X79346422Y-117423000D02*
X79863578Y-117423000D01*
X79346422Y-116003000D02*
X79863578Y-116003000D01*
X108227122Y-117423000D02*
X108744278Y-117423000D01*
X108227122Y-116003000D02*
X108744278Y-116003000D01*
X92315000Y-119603400D02*
X95000000Y-119603400D01*
X92315000Y-117683400D02*
X92315000Y-119603400D01*
X95000000Y-117683400D02*
X92315000Y-117683400D01*
X77920000Y-119603400D02*
X80605000Y-119603400D01*
X77920000Y-117683400D02*
X77920000Y-119603400D01*
X80605000Y-117683400D02*
X77920000Y-117683400D01*
X106798400Y-119603400D02*
X109483400Y-119603400D01*
X106798400Y-117683400D02*
X106798400Y-119603400D01*
X109483400Y-117683400D02*
X106798400Y-117683400D01*
X87631200Y-78329022D02*
X87631200Y-78846178D01*
X89051200Y-78329022D02*
X89051200Y-78846178D01*
X63549600Y-95610178D02*
X63549600Y-95093022D01*
X62129600Y-95610178D02*
X62129600Y-95093022D01*
X63549600Y-91850978D02*
X63549600Y-91333822D01*
X62129600Y-91850978D02*
X62129600Y-91333822D01*
X120493022Y-67308800D02*
X121010178Y-67308800D01*
X120493022Y-65888800D02*
X121010178Y-65888800D01*
X103119422Y-70534600D02*
X103636578Y-70534600D01*
X103119422Y-69114600D02*
X103636578Y-69114600D01*
X85796622Y-70534600D02*
X86313778Y-70534600D01*
X85796622Y-69114600D02*
X86313778Y-69114600D01*
X68473822Y-70534600D02*
X68990978Y-70534600D01*
X68473822Y-69114600D02*
X68990978Y-69114600D01*
X97653000Y-75608700D02*
X97653000Y-88208700D01*
X102753000Y-75608700D02*
X97653000Y-75608700D01*
X102753000Y-88208700D02*
X102753000Y-75608700D01*
D14*
X61341000Y-113284000D02*
X57531000Y-113284000D01*
X57531000Y-113284000D02*
X57531000Y-118364000D01*
X57531000Y-118364000D02*
X62611000Y-118364000D01*
X62611000Y-118364000D02*
X62611000Y-115824000D01*
X129286000Y-113284000D02*
X125476000Y-113284000D01*
X125476000Y-113284000D02*
X125476000Y-118364000D01*
X125476000Y-118364000D02*
X130556000Y-118364000D01*
X130556000Y-118364000D02*
X130556000Y-115824000D01*
D13*
X67010000Y-96906000D02*
X67610000Y-96906000D01*
X67310000Y-97506000D02*
X67010000Y-96906000D01*
X67610000Y-96906000D02*
X67310000Y-97506000D01*
X75130000Y-104816000D02*
X74390000Y-104816000D01*
X75130000Y-99516000D02*
X75130000Y-104816000D01*
X64570000Y-99516000D02*
X75130000Y-99516000D01*
X64570000Y-104816000D02*
X64570000Y-99516000D01*
X65310000Y-104816000D02*
X64570000Y-104816000D01*
X69310000Y-104816000D02*
X70390000Y-104816000D01*
X73390000Y-99516000D02*
X71390000Y-99516000D01*
X73390000Y-97706000D02*
X73390000Y-99516000D01*
X71390000Y-97706000D02*
X73390000Y-97706000D01*
X71390000Y-99516000D02*
X71390000Y-97706000D01*
X68310000Y-99516000D02*
X66310000Y-99516000D01*
X68310000Y-97706000D02*
X68310000Y-99516000D01*
X66310000Y-97706000D02*
X68310000Y-97706000D01*
X66310000Y-99516000D02*
X66310000Y-97706000D01*
X68310000Y-98516000D02*
X71390000Y-98516000D01*
X76040000Y-98516000D02*
X73500000Y-98516000D01*
X63660000Y-98516000D02*
X66200000Y-98516000D01*
X76040000Y-97706000D02*
X63660000Y-97706000D01*
X76040000Y-106526000D02*
X76040000Y-97706000D01*
X63660000Y-106526000D02*
X76040000Y-106526000D01*
X63660000Y-97706000D02*
X63660000Y-106526000D01*
X74376841Y-104831821D02*
G75*
G02X70390000Y-104816000I-1986841J1665821D01*
G01*
X69296841Y-104831821D02*
G75*
G02X65310000Y-104816000I-1986841J1665821D01*
G01*
X115397000Y-96906000D02*
X115997000Y-96906000D01*
X115697000Y-97506000D02*
X115397000Y-96906000D01*
X115997000Y-96906000D02*
X115697000Y-97506000D01*
X123517000Y-104816000D02*
X122777000Y-104816000D01*
X123517000Y-99516000D02*
X123517000Y-104816000D01*
X112957000Y-99516000D02*
X123517000Y-99516000D01*
X112957000Y-104816000D02*
X112957000Y-99516000D01*
X113697000Y-104816000D02*
X112957000Y-104816000D01*
X117697000Y-104816000D02*
X118777000Y-104816000D01*
X121777000Y-99516000D02*
X119777000Y-99516000D01*
X121777000Y-97706000D02*
X121777000Y-99516000D01*
X119777000Y-97706000D02*
X121777000Y-97706000D01*
X119777000Y-99516000D02*
X119777000Y-97706000D01*
X116697000Y-99516000D02*
X114697000Y-99516000D01*
X116697000Y-97706000D02*
X116697000Y-99516000D01*
X114697000Y-97706000D02*
X116697000Y-97706000D01*
X114697000Y-99516000D02*
X114697000Y-97706000D01*
X116697000Y-98516000D02*
X119777000Y-98516000D01*
X124427000Y-98516000D02*
X121887000Y-98516000D01*
X112047000Y-98516000D02*
X114587000Y-98516000D01*
X124427000Y-97706000D02*
X112047000Y-97706000D01*
X124427000Y-106526000D02*
X124427000Y-97706000D01*
X112047000Y-106526000D02*
X124427000Y-106526000D01*
X112047000Y-97706000D02*
X112047000Y-106526000D01*
X122763841Y-104831821D02*
G75*
G02X118777000Y-104816000I-1986841J1665821D01*
G01*
X117683841Y-104831821D02*
G75*
G02X113697000Y-104816000I-1986841J1665821D01*
G01*
X124553500Y-107700000D02*
X124553500Y-107100000D01*
X125153500Y-107400000D02*
X124553500Y-107700000D01*
X124553500Y-107100000D02*
X125153500Y-107400000D01*
X136073500Y-103070000D02*
X137573500Y-103320000D01*
X136073500Y-101570000D02*
X136073500Y-103070000D01*
X137573500Y-101320000D02*
X136073500Y-101570000D01*
X137573500Y-103320000D02*
X137573500Y-101320000D01*
X136073500Y-108150000D02*
X137573500Y-108400000D01*
X136073500Y-106650000D02*
X136073500Y-108150000D01*
X137573500Y-106400000D02*
X136073500Y-106650000D01*
X137573500Y-108400000D02*
X137573500Y-106400000D01*
X136073500Y-98670000D02*
X136073500Y-111050000D01*
X134273500Y-98670000D02*
X136073500Y-98670000D01*
X134273500Y-111050000D02*
X134273500Y-98670000D01*
X136073500Y-111050000D02*
X134273500Y-111050000D01*
X125353500Y-98670000D02*
X125353500Y-111050000D01*
X137573500Y-98670000D02*
X125353500Y-98670000D01*
X137573500Y-111050000D02*
X137573500Y-98670000D01*
X125353500Y-111050000D02*
X137573500Y-111050000D01*
X67010000Y-106564000D02*
X67610000Y-106564000D01*
X67310000Y-107164000D02*
X67010000Y-106564000D01*
X67610000Y-106564000D02*
X67310000Y-107164000D01*
X71640000Y-118084000D02*
X71390000Y-119584000D01*
X73140000Y-118084000D02*
X71640000Y-118084000D01*
X73390000Y-119584000D02*
X73140000Y-118084000D01*
X71390000Y-119584000D02*
X73390000Y-119584000D01*
X66560000Y-118084000D02*
X66310000Y-119584000D01*
X68060000Y-118084000D02*
X66560000Y-118084000D01*
X68310000Y-119584000D02*
X68060000Y-118084000D01*
X66310000Y-119584000D02*
X68310000Y-119584000D01*
X76040000Y-118084000D02*
X63660000Y-118084000D01*
X76040000Y-116284000D02*
X76040000Y-118084000D01*
X63660000Y-116284000D02*
X76040000Y-116284000D01*
X63660000Y-118084000D02*
X63660000Y-116284000D01*
X76040000Y-107364000D02*
X63660000Y-107364000D01*
X76040000Y-119584000D02*
X76040000Y-107364000D01*
X63660000Y-119584000D02*
X76040000Y-119584000D01*
X63660000Y-107364000D02*
X63660000Y-119584000D01*
X115397000Y-106564000D02*
X115997000Y-106564000D01*
X115697000Y-107164000D02*
X115397000Y-106564000D01*
X115997000Y-106564000D02*
X115697000Y-107164000D01*
X120027000Y-118084000D02*
X119777000Y-119584000D01*
X121527000Y-118084000D02*
X120027000Y-118084000D01*
X121777000Y-119584000D02*
X121527000Y-118084000D01*
X119777000Y-119584000D02*
X121777000Y-119584000D01*
X114947000Y-118084000D02*
X114697000Y-119584000D01*
X116447000Y-118084000D02*
X114947000Y-118084000D01*
X116697000Y-119584000D02*
X116447000Y-118084000D01*
X114697000Y-119584000D02*
X116697000Y-119584000D01*
X124427000Y-118084000D02*
X112047000Y-118084000D01*
X124427000Y-116284000D02*
X124427000Y-118084000D01*
X112047000Y-116284000D02*
X124427000Y-116284000D01*
X112047000Y-118084000D02*
X112047000Y-116284000D01*
X124427000Y-107364000D02*
X112047000Y-107364000D01*
X124427000Y-119584000D02*
X124427000Y-107364000D01*
X112047000Y-119584000D02*
X124427000Y-119584000D01*
X112047000Y-107364000D02*
X112047000Y-119584000D01*
X97583200Y-110158800D02*
X92183200Y-110158800D01*
X97583200Y-106858800D02*
X92183200Y-106858800D01*
X97583200Y-110158800D02*
X97583200Y-106858800D01*
X78471600Y-90592000D02*
X76021600Y-90592000D01*
X76671600Y-93812000D02*
X78471600Y-93812000D01*
X91130622Y-78967400D02*
X91647778Y-78967400D01*
X91130622Y-77547400D02*
X91647778Y-77547400D01*
X91647778Y-79452400D02*
X91130622Y-79452400D01*
X91647778Y-80872400D02*
X91130622Y-80872400D01*
X95352800Y-82037422D02*
X95352800Y-82554578D01*
X96772800Y-82037422D02*
X96772800Y-82554578D01*
X77245978Y-73051600D02*
X76728822Y-73051600D01*
X77245978Y-74471600D02*
X76728822Y-74471600D01*
X91130622Y-84682400D02*
X91647778Y-84682400D01*
X91130622Y-83262400D02*
X91647778Y-83262400D01*
X91130622Y-77062400D02*
X91647778Y-77062400D01*
X91130622Y-75642400D02*
X91647778Y-75642400D01*
X98628800Y-106148000D02*
X98628800Y-104648000D01*
X98628800Y-95528000D02*
X98628800Y-97028000D01*
X98628800Y-106148000D02*
X97128800Y-106148000D01*
X98628800Y-95528000D02*
X97128800Y-95528000D01*
X87908800Y-95528000D02*
X89408800Y-95528000D01*
X87908800Y-95528000D02*
X87908800Y-97028000D01*
X87908800Y-106148000D02*
X87908800Y-104648000D01*
X87908800Y-106148000D02*
X89408800Y-106148000D01*
X61127000Y-98335000D02*
X61127000Y-98935000D01*
X60527000Y-98635000D02*
X61127000Y-98335000D01*
X61127000Y-98935000D02*
X60527000Y-98635000D01*
X53727000Y-96075000D02*
X53727000Y-104695000D01*
X59837000Y-99685000D02*
X59837000Y-101085000D01*
X59837000Y-104695000D02*
X59837000Y-103185000D01*
X59837000Y-96075000D02*
X59837000Y-97585000D01*
X50417000Y-104695000D02*
X59837000Y-104695000D01*
X50417000Y-96075000D02*
X50417000Y-104695000D01*
X59837000Y-96075000D02*
X50417000Y-96075000D01*
X61127000Y-88735000D02*
X61127000Y-89335000D01*
X60527000Y-89035000D02*
X61127000Y-88735000D01*
X61127000Y-89335000D02*
X60527000Y-89035000D01*
X53727000Y-86475000D02*
X53727000Y-95095000D01*
X59837000Y-90085000D02*
X59837000Y-91485000D01*
X59837000Y-95095000D02*
X59837000Y-93585000D01*
X59837000Y-86475000D02*
X59837000Y-87985000D01*
X50417000Y-95095000D02*
X59837000Y-95095000D01*
X50417000Y-86475000D02*
X50417000Y-95095000D01*
X59837000Y-86475000D02*
X50417000Y-86475000D01*
X124553500Y-94500000D02*
X124553500Y-93900000D01*
X125153500Y-94200000D02*
X124553500Y-94500000D01*
X124553500Y-93900000D02*
X125153500Y-94200000D01*
X136073500Y-89870000D02*
X137573500Y-90120000D01*
X136073500Y-88370000D02*
X136073500Y-89870000D01*
X137573500Y-88120000D02*
X136073500Y-88370000D01*
X137573500Y-90120000D02*
X137573500Y-88120000D01*
X136073500Y-94950000D02*
X137573500Y-95200000D01*
X136073500Y-93450000D02*
X136073500Y-94950000D01*
X137573500Y-93200000D02*
X136073500Y-93450000D01*
X137573500Y-95200000D02*
X137573500Y-93200000D01*
X136073500Y-85470000D02*
X136073500Y-97850000D01*
X134273500Y-85470000D02*
X136073500Y-85470000D01*
X134273500Y-97850000D02*
X134273500Y-85470000D01*
X136073500Y-97850000D02*
X134273500Y-97850000D01*
X125353500Y-85470000D02*
X125353500Y-97850000D01*
X137573500Y-85470000D02*
X125353500Y-85470000D01*
X137573500Y-97850000D02*
X137573500Y-85470000D01*
X125353500Y-97850000D02*
X137573500Y-97850000D01*
X124553500Y-68100000D02*
X124553500Y-67500000D01*
X125153500Y-67800000D02*
X124553500Y-68100000D01*
X124553500Y-67500000D02*
X125153500Y-67800000D01*
X136073500Y-63470000D02*
X137573500Y-63720000D01*
X136073500Y-61970000D02*
X136073500Y-63470000D01*
X137573500Y-61720000D02*
X136073500Y-61970000D01*
X137573500Y-63720000D02*
X137573500Y-61720000D01*
X136073500Y-68550000D02*
X137573500Y-68800000D01*
X136073500Y-67050000D02*
X136073500Y-68550000D01*
X137573500Y-66800000D02*
X136073500Y-67050000D01*
X137573500Y-68800000D02*
X137573500Y-66800000D01*
X136073500Y-59070000D02*
X136073500Y-71450000D01*
X134273500Y-59070000D02*
X136073500Y-59070000D01*
X134273500Y-71450000D02*
X134273500Y-59070000D01*
X136073500Y-71450000D02*
X134273500Y-71450000D01*
X125353500Y-59070000D02*
X125353500Y-71450000D01*
X137573500Y-59070000D02*
X125353500Y-59070000D01*
X137573500Y-71450000D02*
X137573500Y-59070000D01*
X125353500Y-71450000D02*
X137573500Y-71450000D01*
X124553500Y-81300000D02*
X124553500Y-80700000D01*
X125153500Y-81000000D02*
X124553500Y-81300000D01*
X124553500Y-80700000D02*
X125153500Y-81000000D01*
X136073500Y-76670000D02*
X137573500Y-76920000D01*
X136073500Y-75170000D02*
X136073500Y-76670000D01*
X137573500Y-74920000D02*
X136073500Y-75170000D01*
X137573500Y-76920000D02*
X137573500Y-74920000D01*
X136073500Y-81750000D02*
X137573500Y-82000000D01*
X136073500Y-80250000D02*
X136073500Y-81750000D01*
X137573500Y-80000000D02*
X136073500Y-80250000D01*
X137573500Y-82000000D02*
X137573500Y-80000000D01*
X136073500Y-72270000D02*
X136073500Y-84650000D01*
X134273500Y-72270000D02*
X136073500Y-72270000D01*
X134273500Y-84650000D02*
X134273500Y-72270000D01*
X136073500Y-84650000D02*
X134273500Y-84650000D01*
X125353500Y-72270000D02*
X125353500Y-84650000D01*
X137573500Y-72270000D02*
X125353500Y-72270000D01*
X137573500Y-84650000D02*
X137573500Y-72270000D01*
X125353500Y-84650000D02*
X137573500Y-84650000D01*
X102054500Y-67703500D02*
X102854500Y-67703500D01*
X104144500Y-67553500D02*
X93764500Y-67553500D01*
X105264500Y-51053500D02*
X105264500Y-59023500D01*
X106264500Y-51053500D02*
X105264500Y-51053500D01*
X106264500Y-50433500D02*
X106264500Y-51053500D01*
X91644500Y-50433500D02*
X106264500Y-50433500D01*
X91644500Y-51053500D02*
X91644500Y-50433500D01*
X92644500Y-51053500D02*
X91644500Y-51053500D01*
X92644500Y-59023500D02*
X92644500Y-51053500D01*
X105264500Y-62523500D02*
X105264500Y-64703500D01*
X92644500Y-62523500D02*
X92644500Y-64703500D01*
X67354500Y-67728900D02*
X68154500Y-67728900D01*
X69444500Y-67578900D02*
X59064500Y-67578900D01*
X70564500Y-51078900D02*
X70564500Y-59048900D01*
X71564500Y-51078900D02*
X70564500Y-51078900D01*
X71564500Y-50458900D02*
X71564500Y-51078900D01*
X56944500Y-50458900D02*
X71564500Y-50458900D01*
X56944500Y-51078900D02*
X56944500Y-50458900D01*
X57944500Y-51078900D02*
X56944500Y-51078900D01*
X57944500Y-59048900D02*
X57944500Y-51078900D01*
X70564500Y-62548900D02*
X70564500Y-64728900D01*
X57944500Y-62548900D02*
X57944500Y-64728900D01*
X84690000Y-67703500D02*
X85490000Y-67703500D01*
X86780000Y-67553500D02*
X76400000Y-67553500D01*
X87900000Y-51053500D02*
X87900000Y-59023500D01*
X88900000Y-51053500D02*
X87900000Y-51053500D01*
X88900000Y-50433500D02*
X88900000Y-51053500D01*
X74280000Y-50433500D02*
X88900000Y-50433500D01*
X74280000Y-51053500D02*
X74280000Y-50433500D01*
X75280000Y-51053500D02*
X74280000Y-51053500D01*
X75280000Y-59023500D02*
X75280000Y-51053500D01*
X87900000Y-62523500D02*
X87900000Y-64703500D01*
X75280000Y-62523500D02*
X75280000Y-64703500D01*
X50478000Y-73052000D02*
X52428000Y-73052000D01*
X54648000Y-73052000D02*
X57878000Y-73052000D01*
X59798000Y-73772000D02*
X59798000Y-74852000D01*
X59798000Y-79072000D02*
X59798000Y-80152000D01*
X54648000Y-80872000D02*
X57878000Y-80872000D01*
X50478000Y-80872000D02*
X52428000Y-80872000D01*
X59798000Y-74852000D02*
X60228000Y-74852000D01*
X50478000Y-80872000D02*
X50478000Y-73052000D01*
X109926700Y-106124800D02*
X109926700Y-107224800D01*
X110876700Y-106124800D02*
X109926700Y-106124800D01*
X110876700Y-104624800D02*
X110876700Y-106124800D01*
X101426700Y-106124800D02*
X101426700Y-111249800D01*
X100476700Y-106124800D02*
X101426700Y-106124800D01*
X100476700Y-104624800D02*
X100476700Y-106124800D01*
X87476400Y-96524578D02*
X87476400Y-96007422D01*
X86056400Y-96524578D02*
X86056400Y-96007422D01*
X99569200Y-114498622D02*
X99569200Y-115015778D01*
X100989200Y-114498622D02*
X100989200Y-115015778D01*
X82088222Y-89838600D02*
X82605378Y-89838600D01*
X82088222Y-88418600D02*
X82605378Y-88418600D01*
X87631200Y-81834222D02*
X87631200Y-82351378D01*
X89051200Y-81834222D02*
X89051200Y-82351378D01*
X77245978Y-75007400D02*
X76728822Y-75007400D01*
X77245978Y-76427400D02*
X76728822Y-76427400D01*
X80189000Y-75188578D02*
X80189000Y-74671422D01*
X81609000Y-75188578D02*
X81609000Y-74671422D01*
X86431622Y-76630600D02*
X86948778Y-76630600D01*
X86431622Y-75210600D02*
X86948778Y-75210600D01*
X74270800Y-84221822D02*
X74270800Y-84738978D01*
X75690800Y-84221822D02*
X75690800Y-84738978D01*
X73766178Y-79401600D02*
X73249022Y-79401600D01*
X73766178Y-80821600D02*
X73249022Y-80821600D01*
X91130622Y-82777400D02*
X91647778Y-82777400D01*
X91130622Y-81357400D02*
X91647778Y-81357400D01*
X95352800Y-85415622D02*
X95352800Y-85932778D01*
X96772800Y-85415622D02*
X96772800Y-85932778D01*
X96772800Y-79176378D02*
X96772800Y-78659222D01*
X95352800Y-79176378D02*
X95352800Y-78659222D01*
X76661778Y-88418600D02*
X76144622Y-88418600D01*
X76661778Y-89838600D02*
X76144622Y-89838600D01*
X81431200Y-92435178D02*
X81431200Y-91918022D01*
X80011200Y-92435178D02*
X80011200Y-91918022D01*
D15*
X115994766Y-65199680D02*
X115994766Y-65913966D01*
X115947147Y-66056823D01*
X115851909Y-66152061D01*
X115709052Y-66199680D01*
X115613814Y-66199680D01*
X116947147Y-65199680D02*
X116470957Y-65199680D01*
X116423338Y-65675871D01*
X116470957Y-65628252D01*
X116566195Y-65580633D01*
X116804290Y-65580633D01*
X116899528Y-65628252D01*
X116947147Y-65675871D01*
X116994766Y-65771109D01*
X116994766Y-66009204D01*
X116947147Y-66104442D01*
X116899528Y-66152061D01*
X116804290Y-66199680D01*
X116566195Y-66199680D01*
X116470957Y-66152061D01*
X116423338Y-66104442D01*
X86786342Y-101125257D02*
X86833961Y-101172876D01*
X86881580Y-101315733D01*
X86881580Y-101410971D01*
X86833961Y-101553828D01*
X86738723Y-101649066D01*
X86643485Y-101696685D01*
X86453009Y-101744304D01*
X86310152Y-101744304D01*
X86119676Y-101696685D01*
X86024438Y-101649066D01*
X85929200Y-101553828D01*
X85881580Y-101410971D01*
X85881580Y-101315733D01*
X85929200Y-101172876D01*
X85976819Y-101125257D01*
X85976819Y-100744304D02*
X85929200Y-100696685D01*
X85881580Y-100601447D01*
X85881580Y-100363352D01*
X85929200Y-100268114D01*
X85976819Y-100220495D01*
X86072057Y-100172876D01*
X86167295Y-100172876D01*
X86310152Y-100220495D01*
X86881580Y-100791923D01*
X86881580Y-100172876D01*
X85976819Y-99791923D02*
X85929200Y-99744304D01*
X85881580Y-99649066D01*
X85881580Y-99410971D01*
X85929200Y-99315733D01*
X85976819Y-99268114D01*
X86072057Y-99220495D01*
X86167295Y-99220495D01*
X86310152Y-99268114D01*
X86881580Y-99839542D01*
X86881580Y-99220495D01*
X80704342Y-111590057D02*
X80751961Y-111637676D01*
X80799580Y-111780533D01*
X80799580Y-111875771D01*
X80751961Y-112018628D01*
X80656723Y-112113866D01*
X80561485Y-112161485D01*
X80371009Y-112209104D01*
X80228152Y-112209104D01*
X80037676Y-112161485D01*
X79942438Y-112113866D01*
X79847200Y-112018628D01*
X79799580Y-111875771D01*
X79799580Y-111780533D01*
X79847200Y-111637676D01*
X79894819Y-111590057D01*
X79894819Y-111209104D02*
X79847200Y-111161485D01*
X79799580Y-111066247D01*
X79799580Y-110828152D01*
X79847200Y-110732914D01*
X79894819Y-110685295D01*
X79990057Y-110637676D01*
X80085295Y-110637676D01*
X80228152Y-110685295D01*
X80799580Y-111256723D01*
X80799580Y-110637676D01*
X79799580Y-110018628D02*
X79799580Y-109923390D01*
X79847200Y-109828152D01*
X79894819Y-109780533D01*
X79990057Y-109732914D01*
X80180533Y-109685295D01*
X80418628Y-109685295D01*
X80609104Y-109732914D01*
X80704342Y-109780533D01*
X80751961Y-109828152D01*
X80799580Y-109923390D01*
X80799580Y-110018628D01*
X80751961Y-110113866D01*
X80704342Y-110161485D01*
X80609104Y-110209104D01*
X80418628Y-110256723D01*
X80180533Y-110256723D01*
X79990057Y-110209104D01*
X79894819Y-110161485D01*
X79847200Y-110113866D01*
X79799580Y-110018628D01*
X82905695Y-76084180D02*
X82905695Y-76893704D01*
X82953314Y-76988942D01*
X83000933Y-77036561D01*
X83096171Y-77084180D01*
X83286647Y-77084180D01*
X83381885Y-77036561D01*
X83429504Y-76988942D01*
X83477123Y-76893704D01*
X83477123Y-76084180D01*
X83905695Y-76179419D02*
X83953314Y-76131800D01*
X84048552Y-76084180D01*
X84286647Y-76084180D01*
X84381885Y-76131800D01*
X84429504Y-76179419D01*
X84477123Y-76274657D01*
X84477123Y-76369895D01*
X84429504Y-76512752D01*
X83858076Y-77084180D01*
X84477123Y-77084180D01*
X93102133Y-115565180D02*
X92768800Y-115088990D01*
X92530704Y-115565180D02*
X92530704Y-114565180D01*
X92911657Y-114565180D01*
X93006895Y-114612800D01*
X93054514Y-114660419D01*
X93102133Y-114755657D01*
X93102133Y-114898514D01*
X93054514Y-114993752D01*
X93006895Y-115041371D01*
X92911657Y-115088990D01*
X92530704Y-115088990D01*
X93578323Y-115565180D02*
X93768800Y-115565180D01*
X93864038Y-115517561D01*
X93911657Y-115469942D01*
X94006895Y-115327085D01*
X94054514Y-115136609D01*
X94054514Y-114755657D01*
X94006895Y-114660419D01*
X93959276Y-114612800D01*
X93864038Y-114565180D01*
X93673561Y-114565180D01*
X93578323Y-114612800D01*
X93530704Y-114660419D01*
X93483085Y-114755657D01*
X93483085Y-114993752D01*
X93530704Y-115088990D01*
X93578323Y-115136609D01*
X93673561Y-115184228D01*
X93864038Y-115184228D01*
X93959276Y-115136609D01*
X94006895Y-115088990D01*
X94054514Y-114993752D01*
X78751133Y-115565180D02*
X78417800Y-115088990D01*
X78179704Y-115565180D02*
X78179704Y-114565180D01*
X78560657Y-114565180D01*
X78655895Y-114612800D01*
X78703514Y-114660419D01*
X78751133Y-114755657D01*
X78751133Y-114898514D01*
X78703514Y-114993752D01*
X78655895Y-115041371D01*
X78560657Y-115088990D01*
X78179704Y-115088990D01*
X79322561Y-114993752D02*
X79227323Y-114946133D01*
X79179704Y-114898514D01*
X79132085Y-114803276D01*
X79132085Y-114755657D01*
X79179704Y-114660419D01*
X79227323Y-114612800D01*
X79322561Y-114565180D01*
X79513038Y-114565180D01*
X79608276Y-114612800D01*
X79655895Y-114660419D01*
X79703514Y-114755657D01*
X79703514Y-114803276D01*
X79655895Y-114898514D01*
X79608276Y-114946133D01*
X79513038Y-114993752D01*
X79322561Y-114993752D01*
X79227323Y-115041371D01*
X79179704Y-115088990D01*
X79132085Y-115184228D01*
X79132085Y-115374704D01*
X79179704Y-115469942D01*
X79227323Y-115517561D01*
X79322561Y-115565180D01*
X79513038Y-115565180D01*
X79608276Y-115517561D01*
X79655895Y-115469942D01*
X79703514Y-115374704D01*
X79703514Y-115184228D01*
X79655895Y-115088990D01*
X79608276Y-115041371D01*
X79513038Y-114993752D01*
X108319033Y-115515380D02*
X107985700Y-115039190D01*
X107747604Y-115515380D02*
X107747604Y-114515380D01*
X108128557Y-114515380D01*
X108223795Y-114563000D01*
X108271414Y-114610619D01*
X108319033Y-114705857D01*
X108319033Y-114848714D01*
X108271414Y-114943952D01*
X108223795Y-114991571D01*
X108128557Y-115039190D01*
X107747604Y-115039190D01*
X108652366Y-114515380D02*
X109319033Y-114515380D01*
X108890461Y-115515380D01*
X91943180Y-119730685D02*
X90943180Y-119730685D01*
X90943180Y-119492590D01*
X90990800Y-119349733D01*
X91086038Y-119254495D01*
X91181276Y-119206876D01*
X91371752Y-119159257D01*
X91514609Y-119159257D01*
X91705085Y-119206876D01*
X91800323Y-119254495D01*
X91895561Y-119349733D01*
X91943180Y-119492590D01*
X91943180Y-119730685D01*
X91038419Y-118778304D02*
X90990800Y-118730685D01*
X90943180Y-118635447D01*
X90943180Y-118397352D01*
X90990800Y-118302114D01*
X91038419Y-118254495D01*
X91133657Y-118206876D01*
X91228895Y-118206876D01*
X91371752Y-118254495D01*
X91943180Y-118825923D01*
X91943180Y-118206876D01*
X90943180Y-117587828D02*
X90943180Y-117492590D01*
X90990800Y-117397352D01*
X91038419Y-117349733D01*
X91133657Y-117302114D01*
X91324133Y-117254495D01*
X91562228Y-117254495D01*
X91752704Y-117302114D01*
X91847942Y-117349733D01*
X91895561Y-117397352D01*
X91943180Y-117492590D01*
X91943180Y-117587828D01*
X91895561Y-117683066D01*
X91847942Y-117730685D01*
X91752704Y-117778304D01*
X91562228Y-117825923D01*
X91324133Y-117825923D01*
X91133657Y-117778304D01*
X91038419Y-117730685D01*
X90990800Y-117683066D01*
X90943180Y-117587828D01*
X77617580Y-118054285D02*
X76617580Y-118054285D01*
X76617580Y-117816190D01*
X76665200Y-117673333D01*
X76760438Y-117578095D01*
X76855676Y-117530476D01*
X77046152Y-117482857D01*
X77189009Y-117482857D01*
X77379485Y-117530476D01*
X77474723Y-117578095D01*
X77569961Y-117673333D01*
X77617580Y-117816190D01*
X77617580Y-118054285D01*
X77617580Y-116530476D02*
X77617580Y-117101904D01*
X77617580Y-116816190D02*
X76617580Y-116816190D01*
X76760438Y-116911428D01*
X76855676Y-117006666D01*
X76903295Y-117101904D01*
X77617580Y-116054285D02*
X77617580Y-115863809D01*
X77569961Y-115768571D01*
X77522342Y-115720952D01*
X77379485Y-115625714D01*
X77189009Y-115578095D01*
X76808057Y-115578095D01*
X76712819Y-115625714D01*
X76665200Y-115673333D01*
X76617580Y-115768571D01*
X76617580Y-115959047D01*
X76665200Y-116054285D01*
X76712819Y-116101904D01*
X76808057Y-116149523D01*
X77046152Y-116149523D01*
X77141390Y-116101904D01*
X77189009Y-116054285D01*
X77236628Y-115959047D01*
X77236628Y-115768571D01*
X77189009Y-115673333D01*
X77141390Y-115625714D01*
X77046152Y-115578095D01*
X111297980Y-118206685D02*
X110297980Y-118206685D01*
X110297980Y-117968590D01*
X110345600Y-117825733D01*
X110440838Y-117730495D01*
X110536076Y-117682876D01*
X110726552Y-117635257D01*
X110869409Y-117635257D01*
X111059885Y-117682876D01*
X111155123Y-117730495D01*
X111250361Y-117825733D01*
X111297980Y-117968590D01*
X111297980Y-118206685D01*
X111297980Y-116682876D02*
X111297980Y-117254304D01*
X111297980Y-116968590D02*
X110297980Y-116968590D01*
X110440838Y-117063828D01*
X110536076Y-117159066D01*
X110583695Y-117254304D01*
X110726552Y-116111447D02*
X110678933Y-116206685D01*
X110631314Y-116254304D01*
X110536076Y-116301923D01*
X110488457Y-116301923D01*
X110393219Y-116254304D01*
X110345600Y-116206685D01*
X110297980Y-116111447D01*
X110297980Y-115920971D01*
X110345600Y-115825733D01*
X110393219Y-115778114D01*
X110488457Y-115730495D01*
X110536076Y-115730495D01*
X110631314Y-115778114D01*
X110678933Y-115825733D01*
X110726552Y-115920971D01*
X110726552Y-116111447D01*
X110774171Y-116206685D01*
X110821790Y-116254304D01*
X110917028Y-116301923D01*
X111107504Y-116301923D01*
X111202742Y-116254304D01*
X111250361Y-116206685D01*
X111297980Y-116111447D01*
X111297980Y-115920971D01*
X111250361Y-115825733D01*
X111202742Y-115778114D01*
X111107504Y-115730495D01*
X110917028Y-115730495D01*
X110821790Y-115778114D01*
X110774171Y-115825733D01*
X110726552Y-115920971D01*
X89460342Y-76157057D02*
X89507961Y-76204676D01*
X89555580Y-76347533D01*
X89555580Y-76442771D01*
X89507961Y-76585628D01*
X89412723Y-76680866D01*
X89317485Y-76728485D01*
X89127009Y-76776104D01*
X88984152Y-76776104D01*
X88793676Y-76728485D01*
X88698438Y-76680866D01*
X88603200Y-76585628D01*
X88555580Y-76442771D01*
X88555580Y-76347533D01*
X88603200Y-76204676D01*
X88650819Y-76157057D01*
X89555580Y-75204676D02*
X89555580Y-75776104D01*
X89555580Y-75490390D02*
X88555580Y-75490390D01*
X88698438Y-75585628D01*
X88793676Y-75680866D01*
X88841295Y-75776104D01*
X89555580Y-74728485D02*
X89555580Y-74538009D01*
X89507961Y-74442771D01*
X89460342Y-74395152D01*
X89317485Y-74299914D01*
X89127009Y-74252295D01*
X88746057Y-74252295D01*
X88650819Y-74299914D01*
X88603200Y-74347533D01*
X88555580Y-74442771D01*
X88555580Y-74633247D01*
X88603200Y-74728485D01*
X88650819Y-74776104D01*
X88746057Y-74823723D01*
X88984152Y-74823723D01*
X89079390Y-74776104D01*
X89127009Y-74728485D01*
X89174628Y-74633247D01*
X89174628Y-74442771D01*
X89127009Y-74347533D01*
X89079390Y-74299914D01*
X88984152Y-74252295D01*
X65050942Y-95994457D02*
X65098561Y-96042076D01*
X65146180Y-96184933D01*
X65146180Y-96280171D01*
X65098561Y-96423028D01*
X65003323Y-96518266D01*
X64908085Y-96565885D01*
X64717609Y-96613504D01*
X64574752Y-96613504D01*
X64384276Y-96565885D01*
X64289038Y-96518266D01*
X64193800Y-96423028D01*
X64146180Y-96280171D01*
X64146180Y-96184933D01*
X64193800Y-96042076D01*
X64241419Y-95994457D01*
X65146180Y-95042076D02*
X65146180Y-95613504D01*
X65146180Y-95327790D02*
X64146180Y-95327790D01*
X64289038Y-95423028D01*
X64384276Y-95518266D01*
X64431895Y-95613504D01*
X64574752Y-94470647D02*
X64527133Y-94565885D01*
X64479514Y-94613504D01*
X64384276Y-94661123D01*
X64336657Y-94661123D01*
X64241419Y-94613504D01*
X64193800Y-94565885D01*
X64146180Y-94470647D01*
X64146180Y-94280171D01*
X64193800Y-94184933D01*
X64241419Y-94137314D01*
X64336657Y-94089695D01*
X64384276Y-94089695D01*
X64479514Y-94137314D01*
X64527133Y-94184933D01*
X64574752Y-94280171D01*
X64574752Y-94470647D01*
X64622371Y-94565885D01*
X64669990Y-94613504D01*
X64765228Y-94661123D01*
X64955704Y-94661123D01*
X65050942Y-94613504D01*
X65098561Y-94565885D01*
X65146180Y-94470647D01*
X65146180Y-94280171D01*
X65098561Y-94184933D01*
X65050942Y-94137314D01*
X64955704Y-94089695D01*
X64765228Y-94089695D01*
X64669990Y-94137314D01*
X64622371Y-94184933D01*
X64574752Y-94280171D01*
X65050942Y-92260657D02*
X65098561Y-92308276D01*
X65146180Y-92451133D01*
X65146180Y-92546371D01*
X65098561Y-92689228D01*
X65003323Y-92784466D01*
X64908085Y-92832085D01*
X64717609Y-92879704D01*
X64574752Y-92879704D01*
X64384276Y-92832085D01*
X64289038Y-92784466D01*
X64193800Y-92689228D01*
X64146180Y-92546371D01*
X64146180Y-92451133D01*
X64193800Y-92308276D01*
X64241419Y-92260657D01*
X65146180Y-91308276D02*
X65146180Y-91879704D01*
X65146180Y-91593990D02*
X64146180Y-91593990D01*
X64289038Y-91689228D01*
X64384276Y-91784466D01*
X64431895Y-91879704D01*
X64146180Y-90974942D02*
X64146180Y-90308276D01*
X65146180Y-90736847D01*
X120108742Y-68860942D02*
X120061123Y-68908561D01*
X119918266Y-68956180D01*
X119823028Y-68956180D01*
X119680171Y-68908561D01*
X119584933Y-68813323D01*
X119537314Y-68718085D01*
X119489695Y-68527609D01*
X119489695Y-68384752D01*
X119537314Y-68194276D01*
X119584933Y-68099038D01*
X119680171Y-68003800D01*
X119823028Y-67956180D01*
X119918266Y-67956180D01*
X120061123Y-68003800D01*
X120108742Y-68051419D01*
X121061123Y-68956180D02*
X120489695Y-68956180D01*
X120775409Y-68956180D02*
X120775409Y-67956180D01*
X120680171Y-68099038D01*
X120584933Y-68194276D01*
X120489695Y-68241895D01*
X121918266Y-67956180D02*
X121727790Y-67956180D01*
X121632552Y-68003800D01*
X121584933Y-68051419D01*
X121489695Y-68194276D01*
X121442076Y-68384752D01*
X121442076Y-68765704D01*
X121489695Y-68860942D01*
X121537314Y-68908561D01*
X121632552Y-68956180D01*
X121823028Y-68956180D01*
X121918266Y-68908561D01*
X121965885Y-68860942D01*
X122013504Y-68765704D01*
X122013504Y-68527609D01*
X121965885Y-68432371D01*
X121918266Y-68384752D01*
X121823028Y-68337133D01*
X121632552Y-68337133D01*
X121537314Y-68384752D01*
X121489695Y-68432371D01*
X121442076Y-68527609D01*
X102760542Y-71985142D02*
X102712923Y-72032761D01*
X102570066Y-72080380D01*
X102474828Y-72080380D01*
X102331971Y-72032761D01*
X102236733Y-71937523D01*
X102189114Y-71842285D01*
X102141495Y-71651809D01*
X102141495Y-71508952D01*
X102189114Y-71318476D01*
X102236733Y-71223238D01*
X102331971Y-71128000D01*
X102474828Y-71080380D01*
X102570066Y-71080380D01*
X102712923Y-71128000D01*
X102760542Y-71175619D01*
X103712923Y-72080380D02*
X103141495Y-72080380D01*
X103427209Y-72080380D02*
X103427209Y-71080380D01*
X103331971Y-71223238D01*
X103236733Y-71318476D01*
X103141495Y-71366095D01*
X104570066Y-71413714D02*
X104570066Y-72080380D01*
X104331971Y-71032761D02*
X104093876Y-71747047D01*
X104712923Y-71747047D01*
X85412342Y-71883542D02*
X85364723Y-71931161D01*
X85221866Y-71978780D01*
X85126628Y-71978780D01*
X84983771Y-71931161D01*
X84888533Y-71835923D01*
X84840914Y-71740685D01*
X84793295Y-71550209D01*
X84793295Y-71407352D01*
X84840914Y-71216876D01*
X84888533Y-71121638D01*
X84983771Y-71026400D01*
X85126628Y-70978780D01*
X85221866Y-70978780D01*
X85364723Y-71026400D01*
X85412342Y-71074019D01*
X86364723Y-71978780D02*
X85793295Y-71978780D01*
X86079009Y-71978780D02*
X86079009Y-70978780D01*
X85983771Y-71121638D01*
X85888533Y-71216876D01*
X85793295Y-71264495D01*
X86745676Y-71074019D02*
X86793295Y-71026400D01*
X86888533Y-70978780D01*
X87126628Y-70978780D01*
X87221866Y-71026400D01*
X87269485Y-71074019D01*
X87317104Y-71169257D01*
X87317104Y-71264495D01*
X87269485Y-71407352D01*
X86698057Y-71978780D01*
X87317104Y-71978780D01*
X68089542Y-71985142D02*
X68041923Y-72032761D01*
X67899066Y-72080380D01*
X67803828Y-72080380D01*
X67660971Y-72032761D01*
X67565733Y-71937523D01*
X67518114Y-71842285D01*
X67470495Y-71651809D01*
X67470495Y-71508952D01*
X67518114Y-71318476D01*
X67565733Y-71223238D01*
X67660971Y-71128000D01*
X67803828Y-71080380D01*
X67899066Y-71080380D01*
X68041923Y-71128000D01*
X68089542Y-71175619D01*
X69041923Y-72080380D02*
X68470495Y-72080380D01*
X68756209Y-72080380D02*
X68756209Y-71080380D01*
X68660971Y-71223238D01*
X68565733Y-71318476D01*
X68470495Y-71366095D01*
X69660971Y-71080380D02*
X69756209Y-71080380D01*
X69851447Y-71128000D01*
X69899066Y-71175619D01*
X69946685Y-71270857D01*
X69994304Y-71461333D01*
X69994304Y-71699428D01*
X69946685Y-71889904D01*
X69899066Y-71985142D01*
X69851447Y-72032761D01*
X69756209Y-72080380D01*
X69660971Y-72080380D01*
X69565733Y-72032761D01*
X69518114Y-71985142D01*
X69470495Y-71889904D01*
X69422876Y-71699428D01*
X69422876Y-71461333D01*
X69470495Y-71270857D01*
X69518114Y-71175619D01*
X69565733Y-71128000D01*
X69660971Y-71080380D01*
X103729190Y-82784890D02*
X104205380Y-82784890D01*
X103205380Y-83118223D02*
X103729190Y-82784890D01*
X103205380Y-82451557D01*
X104205380Y-81594414D02*
X104205380Y-82165842D01*
X104205380Y-81880128D02*
X103205380Y-81880128D01*
X103348238Y-81975366D01*
X103443476Y-82070604D01*
X103491095Y-82165842D01*
X59236076Y-111821980D02*
X59236076Y-112536266D01*
X59188457Y-112679123D01*
X59093219Y-112774361D01*
X58950361Y-112821980D01*
X58855123Y-112821980D01*
X60236076Y-112821980D02*
X59664647Y-112821980D01*
X59950361Y-112821980D02*
X59950361Y-111821980D01*
X59855123Y-111964838D01*
X59759885Y-112060076D01*
X59664647Y-112107695D01*
X61093219Y-112155314D02*
X61093219Y-112821980D01*
X60855123Y-111774361D02*
X60617028Y-112488647D01*
X61236076Y-112488647D01*
X127257276Y-111821980D02*
X127257276Y-112536266D01*
X127209657Y-112679123D01*
X127114419Y-112774361D01*
X126971561Y-112821980D01*
X126876323Y-112821980D01*
X128257276Y-112821980D02*
X127685847Y-112821980D01*
X127971561Y-112821980D02*
X127971561Y-111821980D01*
X127876323Y-111964838D01*
X127781085Y-112060076D01*
X127685847Y-112107695D01*
X128590609Y-111821980D02*
X129209657Y-111821980D01*
X128876323Y-112202933D01*
X129019180Y-112202933D01*
X129114419Y-112250552D01*
X129162038Y-112298171D01*
X129209657Y-112393409D01*
X129209657Y-112631504D01*
X129162038Y-112726742D01*
X129114419Y-112774361D01*
X129019180Y-112821980D01*
X128733466Y-112821980D01*
X128638228Y-112774361D01*
X128590609Y-112726742D01*
X69040476Y-96068380D02*
X69040476Y-96782666D01*
X68992857Y-96925523D01*
X68897619Y-97020761D01*
X68754761Y-97068380D01*
X68659523Y-97068380D01*
X70040476Y-97068380D02*
X69469047Y-97068380D01*
X69754761Y-97068380D02*
X69754761Y-96068380D01*
X69659523Y-96211238D01*
X69564285Y-96306476D01*
X69469047Y-96354095D01*
X70421428Y-96163619D02*
X70469047Y-96116000D01*
X70564285Y-96068380D01*
X70802380Y-96068380D01*
X70897619Y-96116000D01*
X70945238Y-96163619D01*
X70992857Y-96258857D01*
X70992857Y-96354095D01*
X70945238Y-96496952D01*
X70373809Y-97068380D01*
X70992857Y-97068380D01*
X117427476Y-96068380D02*
X117427476Y-96782666D01*
X117379857Y-96925523D01*
X117284619Y-97020761D01*
X117141761Y-97068380D01*
X117046523Y-97068380D01*
X118427476Y-97068380D02*
X117856047Y-97068380D01*
X118141761Y-97068380D02*
X118141761Y-96068380D01*
X118046523Y-96211238D01*
X117951285Y-96306476D01*
X117856047Y-96354095D01*
X119379857Y-97068380D02*
X118808428Y-97068380D01*
X119094142Y-97068380D02*
X119094142Y-96068380D01*
X118998904Y-96211238D01*
X118903666Y-96306476D01*
X118808428Y-96354095D01*
X133708876Y-111567980D02*
X133708876Y-112282266D01*
X133661257Y-112425123D01*
X133566019Y-112520361D01*
X133423161Y-112567980D01*
X133327923Y-112567980D01*
X134708876Y-112567980D02*
X134137447Y-112567980D01*
X134423161Y-112567980D02*
X134423161Y-111567980D01*
X134327923Y-111710838D01*
X134232685Y-111806076D01*
X134137447Y-111853695D01*
X135042209Y-111567980D02*
X135708876Y-111567980D01*
X135280304Y-112567980D01*
X77009666Y-108291380D02*
X77009666Y-109005666D01*
X76962047Y-109148523D01*
X76866809Y-109243761D01*
X76723952Y-109291380D01*
X76628714Y-109291380D01*
X77914428Y-108624714D02*
X77914428Y-109291380D01*
X77676333Y-108243761D02*
X77438238Y-108958047D01*
X78057285Y-108958047D01*
X110410666Y-108291380D02*
X110410666Y-109005666D01*
X110363047Y-109148523D01*
X110267809Y-109243761D01*
X110124952Y-109291380D01*
X110029714Y-109291380D01*
X110791619Y-108291380D02*
X111410666Y-108291380D01*
X111077333Y-108672333D01*
X111220190Y-108672333D01*
X111315428Y-108719952D01*
X111363047Y-108767571D01*
X111410666Y-108862809D01*
X111410666Y-109100904D01*
X111363047Y-109196142D01*
X111315428Y-109243761D01*
X111220190Y-109291380D01*
X110934476Y-109291380D01*
X110839238Y-109243761D01*
X110791619Y-109196142D01*
X92968914Y-111461180D02*
X92968914Y-110461180D01*
X93207009Y-110461180D01*
X93349866Y-110508800D01*
X93445104Y-110604038D01*
X93492723Y-110699276D01*
X93540342Y-110889752D01*
X93540342Y-111032609D01*
X93492723Y-111223085D01*
X93445104Y-111318323D01*
X93349866Y-111413561D01*
X93207009Y-111461180D01*
X92968914Y-111461180D01*
X94492723Y-111461180D02*
X93921295Y-111461180D01*
X94207009Y-111461180D02*
X94207009Y-110461180D01*
X94111771Y-110604038D01*
X94016533Y-110699276D01*
X93921295Y-110746895D01*
X94826057Y-110461180D02*
X95492723Y-110461180D01*
X95064152Y-111461180D01*
X73914095Y-91400380D02*
X73914095Y-92209904D01*
X73961714Y-92305142D01*
X74009333Y-92352761D01*
X74104571Y-92400380D01*
X74295047Y-92400380D01*
X74390285Y-92352761D01*
X74437904Y-92305142D01*
X74485523Y-92209904D01*
X74485523Y-91400380D01*
X75485523Y-92400380D02*
X74914095Y-92400380D01*
X75199809Y-92400380D02*
X75199809Y-91400380D01*
X75104571Y-91543238D01*
X75009333Y-91638476D01*
X74914095Y-91686095D01*
X93762533Y-78709780D02*
X93429200Y-78233590D01*
X93191104Y-78709780D02*
X93191104Y-77709780D01*
X93572057Y-77709780D01*
X93667295Y-77757400D01*
X93714914Y-77805019D01*
X93762533Y-77900257D01*
X93762533Y-78043114D01*
X93714914Y-78138352D01*
X93667295Y-78185971D01*
X93572057Y-78233590D01*
X93191104Y-78233590D01*
X94619676Y-77709780D02*
X94429200Y-77709780D01*
X94333961Y-77757400D01*
X94286342Y-77805019D01*
X94191104Y-77947876D01*
X94143485Y-78138352D01*
X94143485Y-78519304D01*
X94191104Y-78614542D01*
X94238723Y-78662161D01*
X94333961Y-78709780D01*
X94524438Y-78709780D01*
X94619676Y-78662161D01*
X94667295Y-78614542D01*
X94714914Y-78519304D01*
X94714914Y-78281209D01*
X94667295Y-78185971D01*
X94619676Y-78138352D01*
X94524438Y-78090733D01*
X94333961Y-78090733D01*
X94238723Y-78138352D01*
X94191104Y-78185971D01*
X94143485Y-78281209D01*
X93737133Y-80640180D02*
X93403800Y-80163990D01*
X93165704Y-80640180D02*
X93165704Y-79640180D01*
X93546657Y-79640180D01*
X93641895Y-79687800D01*
X93689514Y-79735419D01*
X93737133Y-79830657D01*
X93737133Y-79973514D01*
X93689514Y-80068752D01*
X93641895Y-80116371D01*
X93546657Y-80163990D01*
X93165704Y-80163990D01*
X94641895Y-79640180D02*
X94165704Y-79640180D01*
X94118085Y-80116371D01*
X94165704Y-80068752D01*
X94260942Y-80021133D01*
X94499038Y-80021133D01*
X94594276Y-80068752D01*
X94641895Y-80116371D01*
X94689514Y-80211609D01*
X94689514Y-80449704D01*
X94641895Y-80544942D01*
X94594276Y-80592561D01*
X94499038Y-80640180D01*
X94260942Y-80640180D01*
X94165704Y-80592561D01*
X94118085Y-80544942D01*
X94991180Y-83427866D02*
X94514990Y-83761200D01*
X94991180Y-83999295D02*
X93991180Y-83999295D01*
X93991180Y-83618342D01*
X94038800Y-83523104D01*
X94086419Y-83475485D01*
X94181657Y-83427866D01*
X94324514Y-83427866D01*
X94419752Y-83475485D01*
X94467371Y-83523104D01*
X94514990Y-83618342D01*
X94514990Y-83999295D01*
X94324514Y-82570723D02*
X94991180Y-82570723D01*
X93943561Y-82808819D02*
X94657847Y-83046914D01*
X94657847Y-82427866D01*
X74077533Y-74239380D02*
X73744200Y-73763190D01*
X73506104Y-74239380D02*
X73506104Y-73239380D01*
X73887057Y-73239380D01*
X73982295Y-73287000D01*
X74029914Y-73334619D01*
X74077533Y-73429857D01*
X74077533Y-73572714D01*
X74029914Y-73667952D01*
X73982295Y-73715571D01*
X73887057Y-73763190D01*
X73506104Y-73763190D01*
X74410866Y-73239380D02*
X75029914Y-73239380D01*
X74696580Y-73620333D01*
X74839438Y-73620333D01*
X74934676Y-73667952D01*
X74982295Y-73715571D01*
X75029914Y-73810809D01*
X75029914Y-74048904D01*
X74982295Y-74144142D01*
X74934676Y-74191761D01*
X74839438Y-74239380D01*
X74553723Y-74239380D01*
X74458485Y-74191761D01*
X74410866Y-74144142D01*
X91324133Y-86126580D02*
X90990800Y-85650390D01*
X90752704Y-86126580D02*
X90752704Y-85126580D01*
X91133657Y-85126580D01*
X91228895Y-85174200D01*
X91276514Y-85221819D01*
X91324133Y-85317057D01*
X91324133Y-85459914D01*
X91276514Y-85555152D01*
X91228895Y-85602771D01*
X91133657Y-85650390D01*
X90752704Y-85650390D01*
X91705085Y-85221819D02*
X91752704Y-85174200D01*
X91847942Y-85126580D01*
X92086038Y-85126580D01*
X92181276Y-85174200D01*
X92228895Y-85221819D01*
X92276514Y-85317057D01*
X92276514Y-85412295D01*
X92228895Y-85555152D01*
X91657466Y-86126580D01*
X92276514Y-86126580D01*
X93813333Y-76779380D02*
X93480000Y-76303190D01*
X93241904Y-76779380D02*
X93241904Y-75779380D01*
X93622857Y-75779380D01*
X93718095Y-75827000D01*
X93765714Y-75874619D01*
X93813333Y-75969857D01*
X93813333Y-76112714D01*
X93765714Y-76207952D01*
X93718095Y-76255571D01*
X93622857Y-76303190D01*
X93241904Y-76303190D01*
X94765714Y-76779380D02*
X94194285Y-76779380D01*
X94480000Y-76779380D02*
X94480000Y-75779380D01*
X94384761Y-75922238D01*
X94289523Y-76017476D01*
X94194285Y-76065095D01*
X87675980Y-103341466D02*
X87675980Y-103817657D01*
X86675980Y-103817657D01*
X87675980Y-102484323D02*
X87675980Y-103055752D01*
X87675980Y-102770038D02*
X86675980Y-102770038D01*
X86818838Y-102865276D01*
X86914076Y-102960514D01*
X86961695Y-103055752D01*
X60209180Y-97024723D02*
X60923466Y-97024723D01*
X61066323Y-97072342D01*
X61161561Y-97167580D01*
X61209180Y-97310438D01*
X61209180Y-97405676D01*
X61209180Y-96024723D02*
X61209180Y-96596152D01*
X61209180Y-96310438D02*
X60209180Y-96310438D01*
X60352038Y-96405676D01*
X60447276Y-96500914D01*
X60494895Y-96596152D01*
X60209180Y-95167580D02*
X60209180Y-95358057D01*
X60256800Y-95453295D01*
X60304419Y-95500914D01*
X60447276Y-95596152D01*
X60637752Y-95643771D01*
X61018704Y-95643771D01*
X61113942Y-95596152D01*
X61161561Y-95548533D01*
X61209180Y-95453295D01*
X61209180Y-95262819D01*
X61161561Y-95167580D01*
X61113942Y-95119961D01*
X61018704Y-95072342D01*
X60780609Y-95072342D01*
X60685371Y-95119961D01*
X60637752Y-95167580D01*
X60590133Y-95262819D01*
X60590133Y-95453295D01*
X60637752Y-95548533D01*
X60685371Y-95596152D01*
X60780609Y-95643771D01*
X60412380Y-87474323D02*
X61126666Y-87474323D01*
X61269523Y-87521942D01*
X61364761Y-87617180D01*
X61412380Y-87760038D01*
X61412380Y-87855276D01*
X61412380Y-86474323D02*
X61412380Y-87045752D01*
X61412380Y-86760038D02*
X60412380Y-86760038D01*
X60555238Y-86855276D01*
X60650476Y-86950514D01*
X60698095Y-87045752D01*
X60412380Y-85569561D02*
X60412380Y-86045752D01*
X60888571Y-86093371D01*
X60840952Y-86045752D01*
X60793333Y-85950514D01*
X60793333Y-85712419D01*
X60840952Y-85617180D01*
X60888571Y-85569561D01*
X60983809Y-85521942D01*
X61221904Y-85521942D01*
X61317142Y-85569561D01*
X61364761Y-85617180D01*
X61412380Y-85712419D01*
X61412380Y-85950514D01*
X61364761Y-86045752D01*
X61317142Y-86093371D01*
X123715880Y-92469523D02*
X124430166Y-92469523D01*
X124573023Y-92517142D01*
X124668261Y-92612380D01*
X124715880Y-92755238D01*
X124715880Y-92850476D01*
X124715880Y-91469523D02*
X124715880Y-92040952D01*
X124715880Y-91755238D02*
X123715880Y-91755238D01*
X123858738Y-91850476D01*
X123953976Y-91945714D01*
X124001595Y-92040952D01*
X123715880Y-90850476D02*
X123715880Y-90755238D01*
X123763500Y-90660000D01*
X123811119Y-90612380D01*
X123906357Y-90564761D01*
X124096833Y-90517142D01*
X124334928Y-90517142D01*
X124525404Y-90564761D01*
X124620642Y-90612380D01*
X124668261Y-90660000D01*
X124715880Y-90755238D01*
X124715880Y-90850476D01*
X124668261Y-90945714D01*
X124620642Y-90993333D01*
X124525404Y-91040952D01*
X124334928Y-91088571D01*
X124096833Y-91088571D01*
X123906357Y-91040952D01*
X123811119Y-90993333D01*
X123763500Y-90945714D01*
X123715880Y-90850476D01*
X123715880Y-65593333D02*
X124430166Y-65593333D01*
X124573023Y-65640952D01*
X124668261Y-65736190D01*
X124715880Y-65879047D01*
X124715880Y-65974285D01*
X124715880Y-65069523D02*
X124715880Y-64879047D01*
X124668261Y-64783809D01*
X124620642Y-64736190D01*
X124477785Y-64640952D01*
X124287309Y-64593333D01*
X123906357Y-64593333D01*
X123811119Y-64640952D01*
X123763500Y-64688571D01*
X123715880Y-64783809D01*
X123715880Y-64974285D01*
X123763500Y-65069523D01*
X123811119Y-65117142D01*
X123906357Y-65164761D01*
X124144452Y-65164761D01*
X124239690Y-65117142D01*
X124287309Y-65069523D01*
X124334928Y-64974285D01*
X124334928Y-64783809D01*
X124287309Y-64688571D01*
X124239690Y-64640952D01*
X124144452Y-64593333D01*
X123715880Y-78793333D02*
X124430166Y-78793333D01*
X124573023Y-78840952D01*
X124668261Y-78936190D01*
X124715880Y-79079047D01*
X124715880Y-79174285D01*
X124144452Y-78174285D02*
X124096833Y-78269523D01*
X124049214Y-78317142D01*
X123953976Y-78364761D01*
X123906357Y-78364761D01*
X123811119Y-78317142D01*
X123763500Y-78269523D01*
X123715880Y-78174285D01*
X123715880Y-77983809D01*
X123763500Y-77888571D01*
X123811119Y-77840952D01*
X123906357Y-77793333D01*
X123953976Y-77793333D01*
X124049214Y-77840952D01*
X124096833Y-77888571D01*
X124144452Y-77983809D01*
X124144452Y-78174285D01*
X124192071Y-78269523D01*
X124239690Y-78317142D01*
X124334928Y-78364761D01*
X124525404Y-78364761D01*
X124620642Y-78317142D01*
X124668261Y-78269523D01*
X124715880Y-78174285D01*
X124715880Y-77983809D01*
X124668261Y-77888571D01*
X124620642Y-77840952D01*
X124525404Y-77793333D01*
X124334928Y-77793333D01*
X124239690Y-77840952D01*
X124192071Y-77888571D01*
X124144452Y-77983809D01*
X98621166Y-68555880D02*
X98621166Y-69270166D01*
X98573547Y-69413023D01*
X98478309Y-69508261D01*
X98335452Y-69555880D01*
X98240214Y-69555880D01*
X99002119Y-68555880D02*
X99668785Y-68555880D01*
X99240214Y-69555880D01*
X63921166Y-68581280D02*
X63921166Y-69295566D01*
X63873547Y-69438423D01*
X63778309Y-69533661D01*
X63635452Y-69581280D01*
X63540214Y-69581280D01*
X64825928Y-68581280D02*
X64635452Y-68581280D01*
X64540214Y-68628900D01*
X64492595Y-68676519D01*
X64397357Y-68819376D01*
X64349738Y-69009852D01*
X64349738Y-69390804D01*
X64397357Y-69486042D01*
X64444976Y-69533661D01*
X64540214Y-69581280D01*
X64730690Y-69581280D01*
X64825928Y-69533661D01*
X64873547Y-69486042D01*
X64921166Y-69390804D01*
X64921166Y-69152709D01*
X64873547Y-69057471D01*
X64825928Y-69009852D01*
X64730690Y-68962233D01*
X64540214Y-68962233D01*
X64444976Y-69009852D01*
X64397357Y-69057471D01*
X64349738Y-69152709D01*
X81256666Y-68555880D02*
X81256666Y-69270166D01*
X81209047Y-69413023D01*
X81113809Y-69508261D01*
X80970952Y-69555880D01*
X80875714Y-69555880D01*
X81685238Y-68651119D02*
X81732857Y-68603500D01*
X81828095Y-68555880D01*
X82066190Y-68555880D01*
X82161428Y-68603500D01*
X82209047Y-68651119D01*
X82256666Y-68746357D01*
X82256666Y-68841595D01*
X82209047Y-68984452D01*
X81637619Y-69555880D01*
X82256666Y-69555880D01*
X60840380Y-77295333D02*
X61554666Y-77295333D01*
X61697523Y-77342952D01*
X61792761Y-77438190D01*
X61840380Y-77581047D01*
X61840380Y-77676285D01*
X61840380Y-76295333D02*
X61840380Y-76866761D01*
X61840380Y-76581047D02*
X60840380Y-76581047D01*
X60983238Y-76676285D01*
X61078476Y-76771523D01*
X61126095Y-76866761D01*
X104764009Y-94457780D02*
X104764009Y-93457780D01*
X105811628Y-94362542D02*
X105764009Y-94410161D01*
X105621152Y-94457780D01*
X105525914Y-94457780D01*
X105383057Y-94410161D01*
X105287819Y-94314923D01*
X105240200Y-94219685D01*
X105192580Y-94029209D01*
X105192580Y-93886352D01*
X105240200Y-93695876D01*
X105287819Y-93600638D01*
X105383057Y-93505400D01*
X105525914Y-93457780D01*
X105621152Y-93457780D01*
X105764009Y-93505400D01*
X105811628Y-93553019D01*
X106764009Y-94457780D02*
X106192580Y-94457780D01*
X106478295Y-94457780D02*
X106478295Y-93457780D01*
X106383057Y-93600638D01*
X106287819Y-93695876D01*
X106192580Y-93743495D01*
X85548742Y-95638857D02*
X85596361Y-95686476D01*
X85643980Y-95829333D01*
X85643980Y-95924571D01*
X85596361Y-96067428D01*
X85501123Y-96162666D01*
X85405885Y-96210285D01*
X85215409Y-96257904D01*
X85072552Y-96257904D01*
X84882076Y-96210285D01*
X84786838Y-96162666D01*
X84691600Y-96067428D01*
X84643980Y-95924571D01*
X84643980Y-95829333D01*
X84691600Y-95686476D01*
X84739219Y-95638857D01*
X84739219Y-95257904D02*
X84691600Y-95210285D01*
X84643980Y-95115047D01*
X84643980Y-94876952D01*
X84691600Y-94781714D01*
X84739219Y-94734095D01*
X84834457Y-94686476D01*
X84929695Y-94686476D01*
X85072552Y-94734095D01*
X85643980Y-95305523D01*
X85643980Y-94686476D01*
X84643980Y-94353142D02*
X84643980Y-93734095D01*
X85024933Y-94067428D01*
X85024933Y-93924571D01*
X85072552Y-93829333D01*
X85120171Y-93781714D01*
X85215409Y-93734095D01*
X85453504Y-93734095D01*
X85548742Y-93781714D01*
X85596361Y-93829333D01*
X85643980Y-93924571D01*
X85643980Y-94210285D01*
X85596361Y-94305523D01*
X85548742Y-94353142D01*
X102286342Y-115400057D02*
X102333961Y-115447676D01*
X102381580Y-115590533D01*
X102381580Y-115685771D01*
X102333961Y-115828628D01*
X102238723Y-115923866D01*
X102143485Y-115971485D01*
X101953009Y-116019104D01*
X101810152Y-116019104D01*
X101619676Y-115971485D01*
X101524438Y-115923866D01*
X101429200Y-115828628D01*
X101381580Y-115685771D01*
X101381580Y-115590533D01*
X101429200Y-115447676D01*
X101476819Y-115400057D01*
X101476819Y-115019104D02*
X101429200Y-114971485D01*
X101381580Y-114876247D01*
X101381580Y-114638152D01*
X101429200Y-114542914D01*
X101476819Y-114495295D01*
X101572057Y-114447676D01*
X101667295Y-114447676D01*
X101810152Y-114495295D01*
X102381580Y-115066723D01*
X102381580Y-114447676D01*
X102381580Y-113495295D02*
X102381580Y-114066723D01*
X102381580Y-113781009D02*
X101381580Y-113781009D01*
X101524438Y-113876247D01*
X101619676Y-113971485D01*
X101667295Y-114066723D01*
X84929742Y-89485742D02*
X84882123Y-89533361D01*
X84739266Y-89580980D01*
X84644028Y-89580980D01*
X84501171Y-89533361D01*
X84405933Y-89438123D01*
X84358314Y-89342885D01*
X84310695Y-89152409D01*
X84310695Y-89009552D01*
X84358314Y-88819076D01*
X84405933Y-88723838D01*
X84501171Y-88628600D01*
X84644028Y-88580980D01*
X84739266Y-88580980D01*
X84882123Y-88628600D01*
X84929742Y-88676219D01*
X85882123Y-89580980D02*
X85310695Y-89580980D01*
X85596409Y-89580980D02*
X85596409Y-88580980D01*
X85501171Y-88723838D01*
X85405933Y-88819076D01*
X85310695Y-88866695D01*
X86786885Y-88580980D02*
X86310695Y-88580980D01*
X86263076Y-89057171D01*
X86310695Y-89009552D01*
X86405933Y-88961933D01*
X86644028Y-88961933D01*
X86739266Y-89009552D01*
X86786885Y-89057171D01*
X86834504Y-89152409D01*
X86834504Y-89390504D01*
X86786885Y-89485742D01*
X86739266Y-89533361D01*
X86644028Y-89580980D01*
X86405933Y-89580980D01*
X86310695Y-89533361D01*
X86263076Y-89485742D01*
X88698342Y-85885257D02*
X88745961Y-85932876D01*
X88793580Y-86075733D01*
X88793580Y-86170971D01*
X88745961Y-86313828D01*
X88650723Y-86409066D01*
X88555485Y-86456685D01*
X88365009Y-86504304D01*
X88222152Y-86504304D01*
X88031676Y-86456685D01*
X87936438Y-86409066D01*
X87841200Y-86313828D01*
X87793580Y-86170971D01*
X87793580Y-86075733D01*
X87841200Y-85932876D01*
X87888819Y-85885257D01*
X88793580Y-84932876D02*
X88793580Y-85504304D01*
X88793580Y-85218590D02*
X87793580Y-85218590D01*
X87936438Y-85313828D01*
X88031676Y-85409066D01*
X88079295Y-85504304D01*
X87793580Y-84599542D02*
X87793580Y-83980495D01*
X88174533Y-84313828D01*
X88174533Y-84170971D01*
X88222152Y-84075733D01*
X88269771Y-84028114D01*
X88365009Y-83980495D01*
X88603104Y-83980495D01*
X88698342Y-84028114D01*
X88745961Y-84075733D01*
X88793580Y-84170971D01*
X88793580Y-84456685D01*
X88745961Y-84551923D01*
X88698342Y-84599542D01*
X73194942Y-76074542D02*
X73147323Y-76122161D01*
X73004466Y-76169780D01*
X72909228Y-76169780D01*
X72766371Y-76122161D01*
X72671133Y-76026923D01*
X72623514Y-75931685D01*
X72575895Y-75741209D01*
X72575895Y-75598352D01*
X72623514Y-75407876D01*
X72671133Y-75312638D01*
X72766371Y-75217400D01*
X72909228Y-75169780D01*
X73004466Y-75169780D01*
X73147323Y-75217400D01*
X73194942Y-75265019D01*
X74147323Y-76169780D02*
X73575895Y-76169780D01*
X73861609Y-76169780D02*
X73861609Y-75169780D01*
X73766371Y-75312638D01*
X73671133Y-75407876D01*
X73575895Y-75455495D01*
X75099704Y-76169780D02*
X74528276Y-76169780D01*
X74813990Y-76169780D02*
X74813990Y-75169780D01*
X74718752Y-75312638D01*
X74623514Y-75407876D01*
X74528276Y-75455495D01*
X80732333Y-72975742D02*
X80684714Y-73023361D01*
X80541857Y-73070980D01*
X80446619Y-73070980D01*
X80303761Y-73023361D01*
X80208523Y-72928123D01*
X80160904Y-72832885D01*
X80113285Y-72642409D01*
X80113285Y-72499552D01*
X80160904Y-72309076D01*
X80208523Y-72213838D01*
X80303761Y-72118600D01*
X80446619Y-72070980D01*
X80541857Y-72070980D01*
X80684714Y-72118600D01*
X80732333Y-72166219D01*
X81208523Y-73070980D02*
X81399000Y-73070980D01*
X81494238Y-73023361D01*
X81541857Y-72975742D01*
X81637095Y-72832885D01*
X81684714Y-72642409D01*
X81684714Y-72261457D01*
X81637095Y-72166219D01*
X81589476Y-72118600D01*
X81494238Y-72070980D01*
X81303761Y-72070980D01*
X81208523Y-72118600D01*
X81160904Y-72166219D01*
X81113285Y-72261457D01*
X81113285Y-72499552D01*
X81160904Y-72594790D01*
X81208523Y-72642409D01*
X81303761Y-72690028D01*
X81494238Y-72690028D01*
X81589476Y-72642409D01*
X81637095Y-72594790D01*
X81684714Y-72499552D01*
X86523533Y-74627742D02*
X86475914Y-74675361D01*
X86333057Y-74722980D01*
X86237819Y-74722980D01*
X86094961Y-74675361D01*
X85999723Y-74580123D01*
X85952104Y-74484885D01*
X85904485Y-74294409D01*
X85904485Y-74151552D01*
X85952104Y-73961076D01*
X85999723Y-73865838D01*
X86094961Y-73770600D01*
X86237819Y-73722980D01*
X86333057Y-73722980D01*
X86475914Y-73770600D01*
X86523533Y-73818219D01*
X87094961Y-74151552D02*
X86999723Y-74103933D01*
X86952104Y-74056314D01*
X86904485Y-73961076D01*
X86904485Y-73913457D01*
X86952104Y-73818219D01*
X86999723Y-73770600D01*
X87094961Y-73722980D01*
X87285438Y-73722980D01*
X87380676Y-73770600D01*
X87428295Y-73818219D01*
X87475914Y-73913457D01*
X87475914Y-73961076D01*
X87428295Y-74056314D01*
X87380676Y-74103933D01*
X87285438Y-74151552D01*
X87094961Y-74151552D01*
X86999723Y-74199171D01*
X86952104Y-74246790D01*
X86904485Y-74342028D01*
X86904485Y-74532504D01*
X86952104Y-74627742D01*
X86999723Y-74675361D01*
X87094961Y-74722980D01*
X87285438Y-74722980D01*
X87380676Y-74675361D01*
X87428295Y-74627742D01*
X87475914Y-74532504D01*
X87475914Y-74342028D01*
X87428295Y-74246790D01*
X87380676Y-74199171D01*
X87285438Y-74151552D01*
X73610742Y-84647066D02*
X73658361Y-84694685D01*
X73705980Y-84837542D01*
X73705980Y-84932780D01*
X73658361Y-85075638D01*
X73563123Y-85170876D01*
X73467885Y-85218495D01*
X73277409Y-85266114D01*
X73134552Y-85266114D01*
X72944076Y-85218495D01*
X72848838Y-85170876D01*
X72753600Y-85075638D01*
X72705980Y-84932780D01*
X72705980Y-84837542D01*
X72753600Y-84694685D01*
X72801219Y-84647066D01*
X72705980Y-84313733D02*
X72705980Y-83647066D01*
X73705980Y-84075638D01*
X73391733Y-78868542D02*
X73344114Y-78916161D01*
X73201257Y-78963780D01*
X73106019Y-78963780D01*
X72963161Y-78916161D01*
X72867923Y-78820923D01*
X72820304Y-78725685D01*
X72772685Y-78535209D01*
X72772685Y-78392352D01*
X72820304Y-78201876D01*
X72867923Y-78106638D01*
X72963161Y-78011400D01*
X73106019Y-77963780D01*
X73201257Y-77963780D01*
X73344114Y-78011400D01*
X73391733Y-78059019D01*
X74248876Y-77963780D02*
X74058400Y-77963780D01*
X73963161Y-78011400D01*
X73915542Y-78059019D01*
X73820304Y-78201876D01*
X73772685Y-78392352D01*
X73772685Y-78773304D01*
X73820304Y-78868542D01*
X73867923Y-78916161D01*
X73963161Y-78963780D01*
X74153638Y-78963780D01*
X74248876Y-78916161D01*
X74296495Y-78868542D01*
X74344114Y-78773304D01*
X74344114Y-78535209D01*
X74296495Y-78439971D01*
X74248876Y-78392352D01*
X74153638Y-78344733D01*
X73963161Y-78344733D01*
X73867923Y-78392352D01*
X73820304Y-78439971D01*
X73772685Y-78535209D01*
X93737133Y-82145142D02*
X93689514Y-82192761D01*
X93546657Y-82240380D01*
X93451419Y-82240380D01*
X93308561Y-82192761D01*
X93213323Y-82097523D01*
X93165704Y-82002285D01*
X93118085Y-81811809D01*
X93118085Y-81668952D01*
X93165704Y-81478476D01*
X93213323Y-81383238D01*
X93308561Y-81288000D01*
X93451419Y-81240380D01*
X93546657Y-81240380D01*
X93689514Y-81288000D01*
X93737133Y-81335619D01*
X94641895Y-81240380D02*
X94165704Y-81240380D01*
X94118085Y-81716571D01*
X94165704Y-81668952D01*
X94260942Y-81621333D01*
X94499038Y-81621333D01*
X94594276Y-81668952D01*
X94641895Y-81716571D01*
X94689514Y-81811809D01*
X94689514Y-82049904D01*
X94641895Y-82145142D01*
X94594276Y-82192761D01*
X94499038Y-82240380D01*
X94260942Y-82240380D01*
X94165704Y-82192761D01*
X94118085Y-82145142D01*
X95921533Y-88469742D02*
X95873914Y-88517361D01*
X95731057Y-88564980D01*
X95635819Y-88564980D01*
X95492961Y-88517361D01*
X95397723Y-88422123D01*
X95350104Y-88326885D01*
X95302485Y-88136409D01*
X95302485Y-87993552D01*
X95350104Y-87803076D01*
X95397723Y-87707838D01*
X95492961Y-87612600D01*
X95635819Y-87564980D01*
X95731057Y-87564980D01*
X95873914Y-87612600D01*
X95921533Y-87660219D01*
X96778676Y-87898314D02*
X96778676Y-88564980D01*
X96540580Y-87517361D02*
X96302485Y-88231647D01*
X96921533Y-88231647D01*
X96200933Y-76938142D02*
X96153314Y-76985761D01*
X96010457Y-77033380D01*
X95915219Y-77033380D01*
X95772361Y-76985761D01*
X95677123Y-76890523D01*
X95629504Y-76795285D01*
X95581885Y-76604809D01*
X95581885Y-76461952D01*
X95629504Y-76271476D01*
X95677123Y-76176238D01*
X95772361Y-76081000D01*
X95915219Y-76033380D01*
X96010457Y-76033380D01*
X96153314Y-76081000D01*
X96200933Y-76128619D01*
X96534266Y-76033380D02*
X97153314Y-76033380D01*
X96819980Y-76414333D01*
X96962838Y-76414333D01*
X97058076Y-76461952D01*
X97105695Y-76509571D01*
X97153314Y-76604809D01*
X97153314Y-76842904D01*
X97105695Y-76938142D01*
X97058076Y-76985761D01*
X96962838Y-77033380D01*
X96677123Y-77033380D01*
X96581885Y-76985761D01*
X96534266Y-76938142D01*
X73594933Y-89536542D02*
X73547314Y-89584161D01*
X73404457Y-89631780D01*
X73309219Y-89631780D01*
X73166361Y-89584161D01*
X73071123Y-89488923D01*
X73023504Y-89393685D01*
X72975885Y-89203209D01*
X72975885Y-89060352D01*
X73023504Y-88869876D01*
X73071123Y-88774638D01*
X73166361Y-88679400D01*
X73309219Y-88631780D01*
X73404457Y-88631780D01*
X73547314Y-88679400D01*
X73594933Y-88727019D01*
X73975885Y-88727019D02*
X74023504Y-88679400D01*
X74118742Y-88631780D01*
X74356838Y-88631780D01*
X74452076Y-88679400D01*
X74499695Y-88727019D01*
X74547314Y-88822257D01*
X74547314Y-88917495D01*
X74499695Y-89060352D01*
X73928266Y-89631780D01*
X74547314Y-89631780D01*
X82780142Y-92952866D02*
X82827761Y-93000485D01*
X82875380Y-93143342D01*
X82875380Y-93238580D01*
X82827761Y-93381438D01*
X82732523Y-93476676D01*
X82637285Y-93524295D01*
X82446809Y-93571914D01*
X82303952Y-93571914D01*
X82113476Y-93524295D01*
X82018238Y-93476676D01*
X81923000Y-93381438D01*
X81875380Y-93238580D01*
X81875380Y-93143342D01*
X81923000Y-93000485D01*
X81970619Y-92952866D01*
X82875380Y-92000485D02*
X82875380Y-92571914D01*
X82875380Y-92286200D02*
X81875380Y-92286200D01*
X82018238Y-92381438D01*
X82113476Y-92476676D01*
X82161095Y-92571914D01*
M02*
