G04 #@! TF.GenerationSoftware,KiCad,Pcbnew,(5.1.4)-1*
G04 #@! TF.CreationDate,2020-03-23T02:34:48+01:00*
G04 #@! TF.ProjectId,hub_usb_dispatch,6875625f-7573-4625-9f64-697370617463,rev?*
G04 #@! TF.SameCoordinates,Original*
G04 #@! TF.FileFunction,Legend,Bot*
G04 #@! TF.FilePolarity,Positive*
%FSLAX46Y46*%
G04 Gerber Fmt 4.6, Leading zero omitted, Abs format (unit mm)*
G04 Created by KiCad (PCBNEW (5.1.4)-1) date 2020-03-23 02:34:48*
%MOMM*%
%LPD*%
G04 APERTURE LIST*
%ADD10C,0.225000*%
%ADD11C,0.300000*%
%ADD12C,0.010000*%
G04 APERTURE END LIST*
D10*
X121366385Y-117937671D02*
X121366385Y-116437671D01*
X120794957Y-116437671D01*
X120652100Y-116509100D01*
X120580671Y-116580528D01*
X120509242Y-116723385D01*
X120509242Y-116937671D01*
X120580671Y-117080528D01*
X120652100Y-117151957D01*
X120794957Y-117223385D01*
X121366385Y-117223385D01*
X119652100Y-117937671D02*
X119794957Y-117866242D01*
X119866385Y-117794814D01*
X119937814Y-117651957D01*
X119937814Y-117223385D01*
X119866385Y-117080528D01*
X119794957Y-117009100D01*
X119652100Y-116937671D01*
X119437814Y-116937671D01*
X119294957Y-117009100D01*
X119223528Y-117080528D01*
X119152100Y-117223385D01*
X119152100Y-117651957D01*
X119223528Y-117794814D01*
X119294957Y-117866242D01*
X119437814Y-117937671D01*
X119652100Y-117937671D01*
X118652100Y-116937671D02*
X118366385Y-117937671D01*
X118080671Y-117223385D01*
X117794957Y-117937671D01*
X117509242Y-116937671D01*
X116366385Y-117866242D02*
X116509242Y-117937671D01*
X116794957Y-117937671D01*
X116937814Y-117866242D01*
X117009242Y-117723385D01*
X117009242Y-117151957D01*
X116937814Y-117009100D01*
X116794957Y-116937671D01*
X116509242Y-116937671D01*
X116366385Y-117009100D01*
X116294957Y-117151957D01*
X116294957Y-117294814D01*
X117009242Y-117437671D01*
X115652100Y-117937671D02*
X115652100Y-116937671D01*
X115652100Y-117223385D02*
X115580671Y-117080528D01*
X115509242Y-117009100D01*
X115366385Y-116937671D01*
X115223528Y-116937671D01*
X75716685Y-117937671D02*
X76430971Y-117937671D01*
X76430971Y-116437671D01*
X75002400Y-117937671D02*
X75145257Y-117866242D01*
X75216685Y-117794814D01*
X75288114Y-117651957D01*
X75288114Y-117223385D01*
X75216685Y-117080528D01*
X75145257Y-117009100D01*
X75002400Y-116937671D01*
X74788114Y-116937671D01*
X74645257Y-117009100D01*
X74573828Y-117080528D01*
X74502400Y-117223385D01*
X74502400Y-117651957D01*
X74573828Y-117794814D01*
X74645257Y-117866242D01*
X74788114Y-117937671D01*
X75002400Y-117937671D01*
X73216685Y-116937671D02*
X73216685Y-118151957D01*
X73288114Y-118294814D01*
X73359542Y-118366242D01*
X73502400Y-118437671D01*
X73716685Y-118437671D01*
X73859542Y-118366242D01*
X73216685Y-117866242D02*
X73359542Y-117937671D01*
X73645257Y-117937671D01*
X73788114Y-117866242D01*
X73859542Y-117794814D01*
X73930971Y-117651957D01*
X73930971Y-117223385D01*
X73859542Y-117080528D01*
X73788114Y-117009100D01*
X73645257Y-116937671D01*
X73359542Y-116937671D01*
X73216685Y-117009100D01*
X72502400Y-117937671D02*
X72502400Y-116937671D01*
X72502400Y-116437671D02*
X72573828Y-116509100D01*
X72502400Y-116580528D01*
X72430971Y-116509100D01*
X72502400Y-116437671D01*
X72502400Y-116580528D01*
X71145257Y-117866242D02*
X71288114Y-117937671D01*
X71573828Y-117937671D01*
X71716685Y-117866242D01*
X71788114Y-117794814D01*
X71859542Y-117651957D01*
X71859542Y-117223385D01*
X71788114Y-117080528D01*
X71716685Y-117009100D01*
X71573828Y-116937671D01*
X71288114Y-116937671D01*
X71145257Y-117009100D01*
X69359542Y-116937671D02*
X69359542Y-118437671D01*
X69359542Y-117009100D02*
X69216685Y-116937671D01*
X68930971Y-116937671D01*
X68788114Y-117009100D01*
X68716685Y-117080528D01*
X68645257Y-117223385D01*
X68645257Y-117651957D01*
X68716685Y-117794814D01*
X68788114Y-117866242D01*
X68930971Y-117937671D01*
X69216685Y-117937671D01*
X69359542Y-117866242D01*
X67788114Y-117937671D02*
X67930971Y-117866242D01*
X68002400Y-117794814D01*
X68073828Y-117651957D01*
X68073828Y-117223385D01*
X68002400Y-117080528D01*
X67930971Y-117009100D01*
X67788114Y-116937671D01*
X67573828Y-116937671D01*
X67430971Y-117009100D01*
X67359542Y-117080528D01*
X67288114Y-117223385D01*
X67288114Y-117651957D01*
X67359542Y-117794814D01*
X67430971Y-117866242D01*
X67573828Y-117937671D01*
X67788114Y-117937671D01*
X66788114Y-116937671D02*
X66502400Y-117937671D01*
X66216685Y-117223385D01*
X65930971Y-117937671D01*
X65645257Y-116937671D01*
X64502400Y-117866242D02*
X64645257Y-117937671D01*
X64930971Y-117937671D01*
X65073828Y-117866242D01*
X65145257Y-117723385D01*
X65145257Y-117151957D01*
X65073828Y-117009100D01*
X64930971Y-116937671D01*
X64645257Y-116937671D01*
X64502400Y-117009100D01*
X64430971Y-117151957D01*
X64430971Y-117294814D01*
X65145257Y-117437671D01*
X63788114Y-117937671D02*
X63788114Y-116937671D01*
X63788114Y-117223385D02*
X63716685Y-117080528D01*
X63645257Y-117009100D01*
X63502400Y-116937671D01*
X63359542Y-116937671D01*
D11*
X126247385Y-52926371D02*
X126247385Y-51426371D01*
X125890242Y-51426371D01*
X125675957Y-51497800D01*
X125533100Y-51640657D01*
X125461671Y-51783514D01*
X125390242Y-52069228D01*
X125390242Y-52283514D01*
X125461671Y-52569228D01*
X125533100Y-52712085D01*
X125675957Y-52854942D01*
X125890242Y-52926371D01*
X126247385Y-52926371D01*
X124747385Y-52926371D02*
X124747385Y-51926371D01*
X124747385Y-51426371D02*
X124818814Y-51497800D01*
X124747385Y-51569228D01*
X124675957Y-51497800D01*
X124747385Y-51426371D01*
X124747385Y-51569228D01*
X124104528Y-52854942D02*
X123961671Y-52926371D01*
X123675957Y-52926371D01*
X123533100Y-52854942D01*
X123461671Y-52712085D01*
X123461671Y-52640657D01*
X123533100Y-52497800D01*
X123675957Y-52426371D01*
X123890242Y-52426371D01*
X124033100Y-52354942D01*
X124104528Y-52212085D01*
X124104528Y-52140657D01*
X124033100Y-51997800D01*
X123890242Y-51926371D01*
X123675957Y-51926371D01*
X123533100Y-51997800D01*
X122818814Y-51926371D02*
X122818814Y-53426371D01*
X122818814Y-51997800D02*
X122675957Y-51926371D01*
X122390242Y-51926371D01*
X122247385Y-51997800D01*
X122175957Y-52069228D01*
X122104528Y-52212085D01*
X122104528Y-52640657D01*
X122175957Y-52783514D01*
X122247385Y-52854942D01*
X122390242Y-52926371D01*
X122675957Y-52926371D01*
X122818814Y-52854942D01*
X120818814Y-52926371D02*
X120818814Y-52140657D01*
X120890242Y-51997800D01*
X121033100Y-51926371D01*
X121318814Y-51926371D01*
X121461671Y-51997800D01*
X120818814Y-52854942D02*
X120961671Y-52926371D01*
X121318814Y-52926371D01*
X121461671Y-52854942D01*
X121533100Y-52712085D01*
X121533100Y-52569228D01*
X121461671Y-52426371D01*
X121318814Y-52354942D01*
X120961671Y-52354942D01*
X120818814Y-52283514D01*
X120318814Y-51926371D02*
X119747385Y-51926371D01*
X120104528Y-51426371D02*
X120104528Y-52712085D01*
X120033100Y-52854942D01*
X119890242Y-52926371D01*
X119747385Y-52926371D01*
X118604528Y-52854942D02*
X118747385Y-52926371D01*
X119033100Y-52926371D01*
X119175957Y-52854942D01*
X119247385Y-52783514D01*
X119318814Y-52640657D01*
X119318814Y-52212085D01*
X119247385Y-52069228D01*
X119175957Y-51997800D01*
X119033100Y-51926371D01*
X118747385Y-51926371D01*
X118604528Y-51997800D01*
X117961671Y-52926371D02*
X117961671Y-51426371D01*
X117318814Y-52926371D02*
X117318814Y-52140657D01*
X117390242Y-51997800D01*
X117533100Y-51926371D01*
X117747385Y-51926371D01*
X117890242Y-51997800D01*
X117961671Y-52069228D01*
X115675957Y-51426371D02*
X115175957Y-52926371D01*
X114675957Y-51426371D01*
X114247385Y-51569228D02*
X114175957Y-51497800D01*
X114033100Y-51426371D01*
X113675957Y-51426371D01*
X113533100Y-51497800D01*
X113461671Y-51569228D01*
X113390242Y-51712085D01*
X113390242Y-51854942D01*
X113461671Y-52069228D01*
X114318814Y-52926371D01*
X113390242Y-52926371D01*
X112747385Y-52783514D02*
X112675957Y-52854942D01*
X112747385Y-52926371D01*
X112818814Y-52854942D01*
X112747385Y-52783514D01*
X112747385Y-52926371D01*
X111747385Y-51426371D02*
X111604528Y-51426371D01*
X111461671Y-51497800D01*
X111390242Y-51569228D01*
X111318814Y-51712085D01*
X111247385Y-51997800D01*
X111247385Y-52354942D01*
X111318814Y-52640657D01*
X111390242Y-52783514D01*
X111461671Y-52854942D01*
X111604528Y-52926371D01*
X111747385Y-52926371D01*
X111890242Y-52854942D01*
X111961671Y-52783514D01*
X112033100Y-52640657D01*
X112104528Y-52354942D01*
X112104528Y-51997800D01*
X112033100Y-51712085D01*
X111961671Y-51569228D01*
X111890242Y-51497800D01*
X111747385Y-51426371D01*
X71647285Y-52961314D02*
X71718714Y-53032742D01*
X71933000Y-53104171D01*
X72075857Y-53104171D01*
X72290142Y-53032742D01*
X72433000Y-52889885D01*
X72504428Y-52747028D01*
X72575857Y-52461314D01*
X72575857Y-52247028D01*
X72504428Y-51961314D01*
X72433000Y-51818457D01*
X72290142Y-51675600D01*
X72075857Y-51604171D01*
X71933000Y-51604171D01*
X71718714Y-51675600D01*
X71647285Y-51747028D01*
X71004428Y-53104171D02*
X71004428Y-51604171D01*
X70647285Y-51604171D01*
X70433000Y-51675600D01*
X70290142Y-51818457D01*
X70218714Y-51961314D01*
X70147285Y-52247028D01*
X70147285Y-52461314D01*
X70218714Y-52747028D01*
X70290142Y-52889885D01*
X70433000Y-53032742D01*
X70647285Y-53104171D01*
X71004428Y-53104171D01*
X68647285Y-53104171D02*
X69147285Y-52389885D01*
X69504428Y-53104171D02*
X69504428Y-51604171D01*
X68933000Y-51604171D01*
X68790142Y-51675600D01*
X68718714Y-51747028D01*
X68647285Y-51889885D01*
X68647285Y-52104171D01*
X68718714Y-52247028D01*
X68790142Y-52318457D01*
X68933000Y-52389885D01*
X69504428Y-52389885D01*
X66933000Y-51747028D02*
X66861571Y-51675600D01*
X66718714Y-51604171D01*
X66361571Y-51604171D01*
X66218714Y-51675600D01*
X66147285Y-51747028D01*
X66075857Y-51889885D01*
X66075857Y-52032742D01*
X66147285Y-52247028D01*
X67004428Y-53104171D01*
X66075857Y-53104171D01*
X65147285Y-51604171D02*
X65004428Y-51604171D01*
X64861571Y-51675600D01*
X64790142Y-51747028D01*
X64718714Y-51889885D01*
X64647285Y-52175600D01*
X64647285Y-52532742D01*
X64718714Y-52818457D01*
X64790142Y-52961314D01*
X64861571Y-53032742D01*
X65004428Y-53104171D01*
X65147285Y-53104171D01*
X65290142Y-53032742D01*
X65361571Y-52961314D01*
X65433000Y-52818457D01*
X65504428Y-52532742D01*
X65504428Y-52175600D01*
X65433000Y-51889885D01*
X65361571Y-51747028D01*
X65290142Y-51675600D01*
X65147285Y-51604171D01*
X64075857Y-51747028D02*
X64004428Y-51675600D01*
X63861571Y-51604171D01*
X63504428Y-51604171D01*
X63361571Y-51675600D01*
X63290142Y-51747028D01*
X63218714Y-51889885D01*
X63218714Y-52032742D01*
X63290142Y-52247028D01*
X64147285Y-53104171D01*
X63218714Y-53104171D01*
X62290142Y-51604171D02*
X62147285Y-51604171D01*
X62004428Y-51675600D01*
X61933000Y-51747028D01*
X61861571Y-51889885D01*
X61790142Y-52175600D01*
X61790142Y-52532742D01*
X61861571Y-52818457D01*
X61933000Y-52961314D01*
X62004428Y-53032742D01*
X62147285Y-53104171D01*
X62290142Y-53104171D01*
X62433000Y-53032742D01*
X62504428Y-52961314D01*
X62575857Y-52818457D01*
X62647285Y-52532742D01*
X62647285Y-52175600D01*
X62575857Y-51889885D01*
X62504428Y-51747028D01*
X62433000Y-51675600D01*
X62290142Y-51604171D01*
D12*
G36*
X75647221Y-81556302D02*
G01*
X74921242Y-81883848D01*
X74299298Y-82438588D01*
X74295289Y-82443264D01*
X73866972Y-83077112D01*
X73589346Y-83821026D01*
X73449374Y-84719050D01*
X73426000Y-85379616D01*
X73512879Y-86500832D01*
X73773663Y-87437204D01*
X74208574Y-88189228D01*
X74817834Y-88757398D01*
X74989190Y-88865967D01*
X75765693Y-89192380D01*
X76561988Y-89293850D01*
X77332533Y-89174819D01*
X78031788Y-88839730D01*
X78401924Y-88533076D01*
X78887000Y-88048000D01*
X78887000Y-91985000D01*
X80157000Y-91985000D01*
X80157000Y-85389036D01*
X78823155Y-85389036D01*
X78755921Y-86166515D01*
X78559952Y-86880644D01*
X78232799Y-87473611D01*
X78060025Y-87668430D01*
X77490078Y-88070076D01*
X76871639Y-88223543D01*
X76215877Y-88127548D01*
X75775500Y-87931102D01*
X75483944Y-87690189D01*
X75187177Y-87327990D01*
X75077000Y-87152507D01*
X74927177Y-86856373D01*
X74833048Y-86567075D01*
X74782147Y-86212562D01*
X74762007Y-85720780D01*
X74759500Y-85317500D01*
X74765845Y-84714372D01*
X74793809Y-84293003D01*
X74856789Y-83981285D01*
X74968178Y-83707112D01*
X75104419Y-83460775D01*
X75551385Y-82902141D01*
X76100057Y-82576000D01*
X76753171Y-82480924D01*
X76950988Y-82495044D01*
X77387451Y-82591022D01*
X77773511Y-82751003D01*
X77853759Y-82801885D01*
X78276957Y-83254631D01*
X78581223Y-83875280D01*
X78764106Y-84606020D01*
X78823155Y-85389036D01*
X80157000Y-85389036D01*
X80157000Y-81571000D01*
X78887000Y-81571000D01*
X78887000Y-82638548D01*
X78410750Y-82175835D01*
X77937752Y-81782131D01*
X77462179Y-81554663D01*
X76889959Y-81457583D01*
X76497483Y-81446789D01*
X75647221Y-81556302D01*
X75647221Y-81556302D01*
G37*
X75647221Y-81556302D02*
X74921242Y-81883848D01*
X74299298Y-82438588D01*
X74295289Y-82443264D01*
X73866972Y-83077112D01*
X73589346Y-83821026D01*
X73449374Y-84719050D01*
X73426000Y-85379616D01*
X73512879Y-86500832D01*
X73773663Y-87437204D01*
X74208574Y-88189228D01*
X74817834Y-88757398D01*
X74989190Y-88865967D01*
X75765693Y-89192380D01*
X76561988Y-89293850D01*
X77332533Y-89174819D01*
X78031788Y-88839730D01*
X78401924Y-88533076D01*
X78887000Y-88048000D01*
X78887000Y-91985000D01*
X80157000Y-91985000D01*
X80157000Y-85389036D01*
X78823155Y-85389036D01*
X78755921Y-86166515D01*
X78559952Y-86880644D01*
X78232799Y-87473611D01*
X78060025Y-87668430D01*
X77490078Y-88070076D01*
X76871639Y-88223543D01*
X76215877Y-88127548D01*
X75775500Y-87931102D01*
X75483944Y-87690189D01*
X75187177Y-87327990D01*
X75077000Y-87152507D01*
X74927177Y-86856373D01*
X74833048Y-86567075D01*
X74782147Y-86212562D01*
X74762007Y-85720780D01*
X74759500Y-85317500D01*
X74765845Y-84714372D01*
X74793809Y-84293003D01*
X74856789Y-83981285D01*
X74968178Y-83707112D01*
X75104419Y-83460775D01*
X75551385Y-82902141D01*
X76100057Y-82576000D01*
X76753171Y-82480924D01*
X76950988Y-82495044D01*
X77387451Y-82591022D01*
X77773511Y-82751003D01*
X77853759Y-82801885D01*
X78276957Y-83254631D01*
X78581223Y-83875280D01*
X78764106Y-84606020D01*
X78823155Y-85389036D01*
X80157000Y-85389036D01*
X80157000Y-81571000D01*
X78887000Y-81571000D01*
X78887000Y-82638548D01*
X78410750Y-82175835D01*
X77937752Y-81782131D01*
X77462179Y-81554663D01*
X76889959Y-81457583D01*
X76497483Y-81446789D01*
X75647221Y-81556302D01*
G36*
X99485908Y-78166392D02*
G01*
X99304123Y-78276823D01*
X99189468Y-78518704D01*
X99045367Y-78780775D01*
X98787113Y-78956736D01*
X98465824Y-79069924D01*
X98095760Y-79166451D01*
X97869870Y-79171882D01*
X97692567Y-79078968D01*
X97604832Y-79004629D01*
X97418443Y-78859320D01*
X97251466Y-78833783D01*
X97000195Y-78925942D01*
X96864384Y-78989794D01*
X96565040Y-79155235D01*
X96449035Y-79316520D01*
X96461184Y-79556788D01*
X96467265Y-79588071D01*
X96452346Y-79994423D01*
X96330075Y-80195465D01*
X96188530Y-80384390D01*
X96170362Y-80466658D01*
X96287829Y-80559988D01*
X96546175Y-80769386D01*
X96889884Y-81049851D01*
X96895907Y-81054779D01*
X97569313Y-81605798D01*
X98273065Y-81249732D01*
X99103863Y-80955605D01*
X99930198Y-80890938D01*
X100718026Y-81035100D01*
X101433301Y-81367460D01*
X102041981Y-81867390D01*
X102510019Y-82514258D01*
X102803373Y-83287435D01*
X102890000Y-84047499D01*
X102775008Y-84941887D01*
X102439810Y-85720680D01*
X101899078Y-86364981D01*
X101167480Y-86855889D01*
X100513860Y-87108708D01*
X99689270Y-87220432D01*
X98859720Y-87094132D01*
X98079976Y-86738663D01*
X98031595Y-86707357D01*
X97554690Y-86392528D01*
X96730931Y-86945146D01*
X95907172Y-87497763D01*
X96233223Y-87804073D01*
X96464830Y-88097616D01*
X96499916Y-88400607D01*
X96491221Y-88450646D01*
X96482035Y-88692601D01*
X96608302Y-88877002D01*
X96883028Y-89062233D01*
X97179254Y-89226657D01*
X97352475Y-89263526D01*
X97496868Y-89176998D01*
X97583294Y-89093150D01*
X97758517Y-88952932D01*
X97957587Y-88914672D01*
X98274340Y-88968229D01*
X98416117Y-89003164D01*
X98813185Y-89135934D01*
X99043705Y-89317838D01*
X99171631Y-89553292D01*
X99312722Y-89817633D01*
X99509399Y-89930374D01*
X99832516Y-89953000D01*
X100166194Y-89929592D01*
X100344202Y-89816398D01*
X100463606Y-89548960D01*
X100470020Y-89529649D01*
X100585126Y-89268958D01*
X100764541Y-89110881D01*
X101087216Y-88998167D01*
X101261168Y-88955931D01*
X101666140Y-88876781D01*
X101913550Y-88878783D01*
X102088042Y-88966583D01*
X102131568Y-89003728D01*
X102297544Y-89120154D01*
X102477902Y-89120461D01*
X102770986Y-89001277D01*
X102815227Y-88980299D01*
X103110991Y-88816347D01*
X103222613Y-88656070D01*
X103204545Y-88416028D01*
X103199318Y-88391745D01*
X103229930Y-87997979D01*
X103457118Y-87643839D01*
X103824116Y-87387225D01*
X104274158Y-87286040D01*
X104283379Y-87286000D01*
X104633740Y-87240668D01*
X104864160Y-87057121D01*
X104972717Y-86892441D01*
X105118264Y-86618244D01*
X105125105Y-86431986D01*
X104988063Y-86205539D01*
X104942462Y-86143514D01*
X104742524Y-85720129D01*
X104736599Y-85308502D01*
X104911322Y-84973436D01*
X105222052Y-84787946D01*
X105485120Y-84680903D01*
X105609463Y-84500683D01*
X105658263Y-84165065D01*
X105661959Y-83825534D01*
X105566095Y-83630137D01*
X105309732Y-83471961D01*
X105245513Y-83440943D01*
X104910906Y-83220486D01*
X104794139Y-82966877D01*
X104793056Y-82938304D01*
X104742770Y-82625515D01*
X104677536Y-82471079D01*
X104664955Y-82223778D01*
X104828116Y-81934369D01*
X104992132Y-81690167D01*
X105022107Y-81506488D01*
X104922497Y-81263221D01*
X104857532Y-81141192D01*
X104673103Y-80855809D01*
X104481491Y-80750571D01*
X104232646Y-80760666D01*
X103819895Y-80709236D01*
X103449578Y-80480731D01*
X103189287Y-80138980D01*
X103106613Y-79747807D01*
X103111615Y-79702079D01*
X103109059Y-79407982D01*
X102958399Y-79184148D01*
X102778241Y-79041851D01*
X102388678Y-78764458D01*
X102036089Y-79019479D01*
X101778802Y-79174359D01*
X101534855Y-79208850D01*
X101184004Y-79137443D01*
X101145056Y-79126861D01*
X100775345Y-78989909D01*
X100569453Y-78793058D01*
X100468456Y-78560611D01*
X100351211Y-78287904D01*
X100180162Y-78169183D01*
X99859523Y-78142078D01*
X99825545Y-78142000D01*
X99485908Y-78166392D01*
X99485908Y-78166392D01*
G37*
X99485908Y-78166392D02*
X99304123Y-78276823D01*
X99189468Y-78518704D01*
X99045367Y-78780775D01*
X98787113Y-78956736D01*
X98465824Y-79069924D01*
X98095760Y-79166451D01*
X97869870Y-79171882D01*
X97692567Y-79078968D01*
X97604832Y-79004629D01*
X97418443Y-78859320D01*
X97251466Y-78833783D01*
X97000195Y-78925942D01*
X96864384Y-78989794D01*
X96565040Y-79155235D01*
X96449035Y-79316520D01*
X96461184Y-79556788D01*
X96467265Y-79588071D01*
X96452346Y-79994423D01*
X96330075Y-80195465D01*
X96188530Y-80384390D01*
X96170362Y-80466658D01*
X96287829Y-80559988D01*
X96546175Y-80769386D01*
X96889884Y-81049851D01*
X96895907Y-81054779D01*
X97569313Y-81605798D01*
X98273065Y-81249732D01*
X99103863Y-80955605D01*
X99930198Y-80890938D01*
X100718026Y-81035100D01*
X101433301Y-81367460D01*
X102041981Y-81867390D01*
X102510019Y-82514258D01*
X102803373Y-83287435D01*
X102890000Y-84047499D01*
X102775008Y-84941887D01*
X102439810Y-85720680D01*
X101899078Y-86364981D01*
X101167480Y-86855889D01*
X100513860Y-87108708D01*
X99689270Y-87220432D01*
X98859720Y-87094132D01*
X98079976Y-86738663D01*
X98031595Y-86707357D01*
X97554690Y-86392528D01*
X96730931Y-86945146D01*
X95907172Y-87497763D01*
X96233223Y-87804073D01*
X96464830Y-88097616D01*
X96499916Y-88400607D01*
X96491221Y-88450646D01*
X96482035Y-88692601D01*
X96608302Y-88877002D01*
X96883028Y-89062233D01*
X97179254Y-89226657D01*
X97352475Y-89263526D01*
X97496868Y-89176998D01*
X97583294Y-89093150D01*
X97758517Y-88952932D01*
X97957587Y-88914672D01*
X98274340Y-88968229D01*
X98416117Y-89003164D01*
X98813185Y-89135934D01*
X99043705Y-89317838D01*
X99171631Y-89553292D01*
X99312722Y-89817633D01*
X99509399Y-89930374D01*
X99832516Y-89953000D01*
X100166194Y-89929592D01*
X100344202Y-89816398D01*
X100463606Y-89548960D01*
X100470020Y-89529649D01*
X100585126Y-89268958D01*
X100764541Y-89110881D01*
X101087216Y-88998167D01*
X101261168Y-88955931D01*
X101666140Y-88876781D01*
X101913550Y-88878783D01*
X102088042Y-88966583D01*
X102131568Y-89003728D01*
X102297544Y-89120154D01*
X102477902Y-89120461D01*
X102770986Y-89001277D01*
X102815227Y-88980299D01*
X103110991Y-88816347D01*
X103222613Y-88656070D01*
X103204545Y-88416028D01*
X103199318Y-88391745D01*
X103229930Y-87997979D01*
X103457118Y-87643839D01*
X103824116Y-87387225D01*
X104274158Y-87286040D01*
X104283379Y-87286000D01*
X104633740Y-87240668D01*
X104864160Y-87057121D01*
X104972717Y-86892441D01*
X105118264Y-86618244D01*
X105125105Y-86431986D01*
X104988063Y-86205539D01*
X104942462Y-86143514D01*
X104742524Y-85720129D01*
X104736599Y-85308502D01*
X104911322Y-84973436D01*
X105222052Y-84787946D01*
X105485120Y-84680903D01*
X105609463Y-84500683D01*
X105658263Y-84165065D01*
X105661959Y-83825534D01*
X105566095Y-83630137D01*
X105309732Y-83471961D01*
X105245513Y-83440943D01*
X104910906Y-83220486D01*
X104794139Y-82966877D01*
X104793056Y-82938304D01*
X104742770Y-82625515D01*
X104677536Y-82471079D01*
X104664955Y-82223778D01*
X104828116Y-81934369D01*
X104992132Y-81690167D01*
X105022107Y-81506488D01*
X104922497Y-81263221D01*
X104857532Y-81141192D01*
X104673103Y-80855809D01*
X104481491Y-80750571D01*
X104232646Y-80760666D01*
X103819895Y-80709236D01*
X103449578Y-80480731D01*
X103189287Y-80138980D01*
X103106613Y-79747807D01*
X103111615Y-79702079D01*
X103109059Y-79407982D01*
X102958399Y-79184148D01*
X102778241Y-79041851D01*
X102388678Y-78764458D01*
X102036089Y-79019479D01*
X101778802Y-79174359D01*
X101534855Y-79208850D01*
X101184004Y-79137443D01*
X101145056Y-79126861D01*
X100775345Y-78989909D01*
X100569453Y-78793058D01*
X100468456Y-78560611D01*
X100351211Y-78287904D01*
X100180162Y-78169183D01*
X99859523Y-78142078D01*
X99825545Y-78142000D01*
X99485908Y-78166392D01*
G36*
X117623269Y-87949710D02*
G01*
X117524682Y-88175901D01*
X117495211Y-88623256D01*
X117495000Y-88683000D01*
X117480370Y-89125458D01*
X117428508Y-89363012D01*
X117327454Y-89443497D01*
X117304500Y-89445000D01*
X117135493Y-89513576D01*
X117114000Y-89572000D01*
X117228221Y-89644446D01*
X117520264Y-89690429D01*
X117749000Y-89699000D01*
X118111232Y-89676155D01*
X118341148Y-89617747D01*
X118384000Y-89572000D01*
X118277632Y-89468814D01*
X118130000Y-89445000D01*
X117969967Y-89406742D01*
X117895148Y-89248612D01*
X117876025Y-88905577D01*
X117876000Y-88885389D01*
X117889129Y-88541393D01*
X117948473Y-88392739D01*
X118083975Y-88381293D01*
X118130000Y-88392201D01*
X118337026Y-88388474D01*
X118367760Y-88269079D01*
X118220513Y-88102824D01*
X118138350Y-88052468D01*
X117818612Y-87917595D01*
X117623269Y-87949710D01*
X117623269Y-87949710D01*
G37*
X117623269Y-87949710D02*
X117524682Y-88175901D01*
X117495211Y-88623256D01*
X117495000Y-88683000D01*
X117480370Y-89125458D01*
X117428508Y-89363012D01*
X117327454Y-89443497D01*
X117304500Y-89445000D01*
X117135493Y-89513576D01*
X117114000Y-89572000D01*
X117228221Y-89644446D01*
X117520264Y-89690429D01*
X117749000Y-89699000D01*
X118111232Y-89676155D01*
X118341148Y-89617747D01*
X118384000Y-89572000D01*
X118277632Y-89468814D01*
X118130000Y-89445000D01*
X117969967Y-89406742D01*
X117895148Y-89248612D01*
X117876025Y-88905577D01*
X117876000Y-88885389D01*
X117889129Y-88541393D01*
X117948473Y-88392739D01*
X118083975Y-88381293D01*
X118130000Y-88392201D01*
X118337026Y-88388474D01*
X118367760Y-88269079D01*
X118220513Y-88102824D01*
X118138350Y-88052468D01*
X117818612Y-87917595D01*
X117623269Y-87949710D01*
G36*
X108774801Y-81794269D02*
G01*
X108604808Y-82045878D01*
X108431619Y-82338283D01*
X108173891Y-82774421D01*
X108032489Y-83036580D01*
X107993827Y-83169040D01*
X108044320Y-83216087D01*
X108160500Y-83222000D01*
X108219483Y-83250632D01*
X108265152Y-83354957D01*
X108299132Y-83562617D01*
X108323050Y-83901254D01*
X108338531Y-84398509D01*
X108347203Y-85082024D01*
X108350690Y-85979441D01*
X108351000Y-86460500D01*
X108351000Y-89699000D01*
X109494000Y-89699000D01*
X109494000Y-86460500D01*
X109495564Y-85460535D01*
X109501379Y-84686617D01*
X109513137Y-84110808D01*
X109532528Y-83705166D01*
X109561239Y-83441754D01*
X109600963Y-83292629D01*
X109653387Y-83229854D01*
X109689854Y-83222000D01*
X109779302Y-83178059D01*
X109747931Y-83017872D01*
X109585145Y-82698889D01*
X109539592Y-82618750D01*
X109251299Y-82116635D01*
X109055860Y-81818969D01*
X108911089Y-81715073D01*
X108774801Y-81794269D01*
X108774801Y-81794269D01*
G37*
X108774801Y-81794269D02*
X108604808Y-82045878D01*
X108431619Y-82338283D01*
X108173891Y-82774421D01*
X108032489Y-83036580D01*
X107993827Y-83169040D01*
X108044320Y-83216087D01*
X108160500Y-83222000D01*
X108219483Y-83250632D01*
X108265152Y-83354957D01*
X108299132Y-83562617D01*
X108323050Y-83901254D01*
X108338531Y-84398509D01*
X108347203Y-85082024D01*
X108350690Y-85979441D01*
X108351000Y-86460500D01*
X108351000Y-89699000D01*
X109494000Y-89699000D01*
X109494000Y-86460500D01*
X109495564Y-85460535D01*
X109501379Y-84686617D01*
X109513137Y-84110808D01*
X109532528Y-83705166D01*
X109561239Y-83441754D01*
X109600963Y-83292629D01*
X109653387Y-83229854D01*
X109689854Y-83222000D01*
X109779302Y-83178059D01*
X109747931Y-83017872D01*
X109585145Y-82698889D01*
X109539592Y-82618750D01*
X109251299Y-82116635D01*
X109055860Y-81818969D01*
X108911089Y-81715073D01*
X108774801Y-81794269D01*
G36*
X119060110Y-87660730D02*
G01*
X118934692Y-87732455D01*
X118719100Y-87915985D01*
X118655545Y-88141728D01*
X118682622Y-88409737D01*
X118848541Y-88861906D01*
X119085295Y-89159250D01*
X119340787Y-89363876D01*
X119527644Y-89421841D01*
X119764650Y-89357919D01*
X119858667Y-89320546D01*
X120128178Y-89097030D01*
X120167341Y-88863170D01*
X119849062Y-88863170D01*
X119790185Y-89003560D01*
X119608405Y-89064000D01*
X119386163Y-88981625D01*
X119298400Y-88911600D01*
X119157772Y-88709834D01*
X119202967Y-88609043D01*
X119336500Y-88623485D01*
X119636531Y-88717576D01*
X119725550Y-88745603D01*
X119849062Y-88863170D01*
X120167341Y-88863170D01*
X120189593Y-88730301D01*
X120089831Y-88386719D01*
X119748367Y-88386719D01*
X119677363Y-88412908D01*
X119594888Y-88384757D01*
X119307447Y-88311506D01*
X119199113Y-88302000D01*
X119039808Y-88200114D01*
X119019000Y-88111500D01*
X119106417Y-87952965D01*
X119308332Y-87932791D01*
X119534240Y-88039371D01*
X119664307Y-88194257D01*
X119748367Y-88386719D01*
X120089831Y-88386719D01*
X120042431Y-88223476D01*
X120031694Y-88199205D01*
X119758619Y-87771686D01*
X119434136Y-87591930D01*
X119060110Y-87660730D01*
X119060110Y-87660730D01*
G37*
X119060110Y-87660730D02*
X118934692Y-87732455D01*
X118719100Y-87915985D01*
X118655545Y-88141728D01*
X118682622Y-88409737D01*
X118848541Y-88861906D01*
X119085295Y-89159250D01*
X119340787Y-89363876D01*
X119527644Y-89421841D01*
X119764650Y-89357919D01*
X119858667Y-89320546D01*
X120128178Y-89097030D01*
X120167341Y-88863170D01*
X119849062Y-88863170D01*
X119790185Y-89003560D01*
X119608405Y-89064000D01*
X119386163Y-88981625D01*
X119298400Y-88911600D01*
X119157772Y-88709834D01*
X119202967Y-88609043D01*
X119336500Y-88623485D01*
X119636531Y-88717576D01*
X119725550Y-88745603D01*
X119849062Y-88863170D01*
X120167341Y-88863170D01*
X120189593Y-88730301D01*
X120089831Y-88386719D01*
X119748367Y-88386719D01*
X119677363Y-88412908D01*
X119594888Y-88384757D01*
X119307447Y-88311506D01*
X119199113Y-88302000D01*
X119039808Y-88200114D01*
X119019000Y-88111500D01*
X119106417Y-87952965D01*
X119308332Y-87932791D01*
X119534240Y-88039371D01*
X119664307Y-88194257D01*
X119748367Y-88386719D01*
X120089831Y-88386719D01*
X120042431Y-88223476D01*
X120031694Y-88199205D01*
X119758619Y-87771686D01*
X119434136Y-87591930D01*
X119060110Y-87660730D01*
G36*
X116004697Y-87592805D02*
G01*
X115744732Y-87782672D01*
X115510716Y-88125271D01*
X115361116Y-88521421D01*
X115336000Y-88727143D01*
X115446250Y-89081996D01*
X115724372Y-89326227D01*
X116091430Y-89409220D01*
X116322923Y-89359999D01*
X116522366Y-89175317D01*
X116654214Y-88940237D01*
X116155787Y-88940237D01*
X116143270Y-89044219D01*
X115986035Y-89063984D01*
X115974262Y-89064000D01*
X115786325Y-89005532D01*
X115719887Y-88786243D01*
X115717000Y-88683000D01*
X115734483Y-88415268D01*
X115776594Y-88302021D01*
X115777239Y-88302000D01*
X115869811Y-88402416D01*
X116015994Y-88647710D01*
X116034500Y-88683000D01*
X116155787Y-88940237D01*
X116654214Y-88940237D01*
X116709496Y-88841673D01*
X116834908Y-88461382D01*
X116853626Y-88302000D01*
X116479000Y-88302000D01*
X116461518Y-88569731D01*
X116419407Y-88682978D01*
X116418762Y-88683000D01*
X116326190Y-88582583D01*
X116180007Y-88337289D01*
X116161500Y-88302000D01*
X116040214Y-88044762D01*
X116052731Y-87940780D01*
X116209966Y-87921015D01*
X116221739Y-87921000D01*
X116409676Y-87979467D01*
X116476114Y-88198756D01*
X116479000Y-88302000D01*
X116853626Y-88302000D01*
X116860000Y-88247734D01*
X116752280Y-87934438D01*
X116490310Y-87686638D01*
X116165877Y-87574619D01*
X116004697Y-87592805D01*
X116004697Y-87592805D01*
G37*
X116004697Y-87592805D02*
X115744732Y-87782672D01*
X115510716Y-88125271D01*
X115361116Y-88521421D01*
X115336000Y-88727143D01*
X115446250Y-89081996D01*
X115724372Y-89326227D01*
X116091430Y-89409220D01*
X116322923Y-89359999D01*
X116522366Y-89175317D01*
X116654214Y-88940237D01*
X116155787Y-88940237D01*
X116143270Y-89044219D01*
X115986035Y-89063984D01*
X115974262Y-89064000D01*
X115786325Y-89005532D01*
X115719887Y-88786243D01*
X115717000Y-88683000D01*
X115734483Y-88415268D01*
X115776594Y-88302021D01*
X115777239Y-88302000D01*
X115869811Y-88402416D01*
X116015994Y-88647710D01*
X116034500Y-88683000D01*
X116155787Y-88940237D01*
X116654214Y-88940237D01*
X116709496Y-88841673D01*
X116834908Y-88461382D01*
X116853626Y-88302000D01*
X116479000Y-88302000D01*
X116461518Y-88569731D01*
X116419407Y-88682978D01*
X116418762Y-88683000D01*
X116326190Y-88582583D01*
X116180007Y-88337289D01*
X116161500Y-88302000D01*
X116040214Y-88044762D01*
X116052731Y-87940780D01*
X116209966Y-87921015D01*
X116221739Y-87921000D01*
X116409676Y-87979467D01*
X116476114Y-88198756D01*
X116479000Y-88302000D01*
X116853626Y-88302000D01*
X116860000Y-88247734D01*
X116752280Y-87934438D01*
X116490310Y-87686638D01*
X116165877Y-87574619D01*
X116004697Y-87592805D01*
G36*
X91458135Y-81479978D02*
G01*
X90866108Y-81602018D01*
X90370891Y-81840304D01*
X89897457Y-82223070D01*
X89738377Y-82380607D01*
X89328336Y-82848106D01*
X89064046Y-83289270D01*
X88881127Y-83805458D01*
X88697022Y-84810995D01*
X88693977Y-85813716D01*
X88862463Y-86763138D01*
X89192950Y-87608774D01*
X89675907Y-88300139D01*
X89742625Y-88369309D01*
X90425814Y-88879236D01*
X91237266Y-89196280D01*
X92126156Y-89307677D01*
X93041660Y-89200663D01*
X93047500Y-89199246D01*
X93839474Y-88883156D01*
X94502653Y-88368291D01*
X95022021Y-87682970D01*
X95382559Y-86855509D01*
X95569251Y-85914227D01*
X95567759Y-85208614D01*
X94237028Y-85208614D01*
X94188064Y-86029108D01*
X94005215Y-86771435D01*
X93702132Y-87388872D01*
X93292466Y-87834694D01*
X93084756Y-87963079D01*
X92487732Y-88144437D01*
X91850091Y-88154777D01*
X91270208Y-87997717D01*
X91077079Y-87889250D01*
X90629477Y-87476900D01*
X90322950Y-86927454D01*
X90142747Y-86205954D01*
X90081573Y-85529768D01*
X90098424Y-84642690D01*
X90243444Y-83939518D01*
X90530277Y-83377447D01*
X90894029Y-82980182D01*
X91474200Y-82613212D01*
X92079635Y-82476806D01*
X92673350Y-82555274D01*
X93218363Y-82832925D01*
X93677691Y-83294069D01*
X94014351Y-83923016D01*
X94138455Y-84356677D01*
X94237028Y-85208614D01*
X95567759Y-85208614D01*
X95567079Y-84887440D01*
X95522093Y-84532989D01*
X95267276Y-83522658D01*
X94854530Y-82708186D01*
X94287266Y-82092760D01*
X93568891Y-81679569D01*
X92702813Y-81471802D01*
X92222000Y-81445948D01*
X91458135Y-81479978D01*
X91458135Y-81479978D01*
G37*
X91458135Y-81479978D02*
X90866108Y-81602018D01*
X90370891Y-81840304D01*
X89897457Y-82223070D01*
X89738377Y-82380607D01*
X89328336Y-82848106D01*
X89064046Y-83289270D01*
X88881127Y-83805458D01*
X88697022Y-84810995D01*
X88693977Y-85813716D01*
X88862463Y-86763138D01*
X89192950Y-87608774D01*
X89675907Y-88300139D01*
X89742625Y-88369309D01*
X90425814Y-88879236D01*
X91237266Y-89196280D01*
X92126156Y-89307677D01*
X93041660Y-89200663D01*
X93047500Y-89199246D01*
X93839474Y-88883156D01*
X94502653Y-88368291D01*
X95022021Y-87682970D01*
X95382559Y-86855509D01*
X95569251Y-85914227D01*
X95567759Y-85208614D01*
X94237028Y-85208614D01*
X94188064Y-86029108D01*
X94005215Y-86771435D01*
X93702132Y-87388872D01*
X93292466Y-87834694D01*
X93084756Y-87963079D01*
X92487732Y-88144437D01*
X91850091Y-88154777D01*
X91270208Y-87997717D01*
X91077079Y-87889250D01*
X90629477Y-87476900D01*
X90322950Y-86927454D01*
X90142747Y-86205954D01*
X90081573Y-85529768D01*
X90098424Y-84642690D01*
X90243444Y-83939518D01*
X90530277Y-83377447D01*
X90894029Y-82980182D01*
X91474200Y-82613212D01*
X92079635Y-82476806D01*
X92673350Y-82555274D01*
X93218363Y-82832925D01*
X93677691Y-83294069D01*
X94014351Y-83923016D01*
X94138455Y-84356677D01*
X94237028Y-85208614D01*
X95567759Y-85208614D01*
X95567079Y-84887440D01*
X95522093Y-84532989D01*
X95267276Y-83522658D01*
X94854530Y-82708186D01*
X94287266Y-82092760D01*
X93568891Y-81679569D01*
X92702813Y-81471802D01*
X92222000Y-81445948D01*
X91458135Y-81479978D01*
G36*
X86252292Y-84015750D02*
G01*
X86245264Y-84812811D01*
X86226148Y-85553101D01*
X86197196Y-86187151D01*
X86160659Y-86665490D01*
X86119380Y-86936540D01*
X85869297Y-87532472D01*
X85495546Y-87917430D01*
X84971949Y-88114986D01*
X84781402Y-88141265D01*
X84037720Y-88108323D01*
X83411474Y-87851597D01*
X82891895Y-87366577D01*
X82872492Y-87341465D01*
X82506500Y-86861979D01*
X82465555Y-84216489D01*
X82424610Y-81571000D01*
X81173000Y-81571000D01*
X81173000Y-89064000D01*
X82443000Y-89064000D01*
X82443000Y-88087328D01*
X82927959Y-88548658D01*
X83598906Y-89020664D01*
X84360948Y-89267822D01*
X85171927Y-89281525D01*
X85788792Y-89132751D01*
X86426022Y-88794705D01*
X86917825Y-88273226D01*
X87188039Y-87794000D01*
X87276046Y-87583642D01*
X87343601Y-87355101D01*
X87394200Y-87070381D01*
X87431337Y-86691489D01*
X87458507Y-86180428D01*
X87479205Y-85499206D01*
X87496926Y-84609828D01*
X87500534Y-84396750D01*
X87547494Y-81571000D01*
X86253000Y-81571000D01*
X86252292Y-84015750D01*
X86252292Y-84015750D01*
G37*
X86252292Y-84015750D02*
X86245264Y-84812811D01*
X86226148Y-85553101D01*
X86197196Y-86187151D01*
X86160659Y-86665490D01*
X86119380Y-86936540D01*
X85869297Y-87532472D01*
X85495546Y-87917430D01*
X84971949Y-88114986D01*
X84781402Y-88141265D01*
X84037720Y-88108323D01*
X83411474Y-87851597D01*
X82891895Y-87366577D01*
X82872492Y-87341465D01*
X82506500Y-86861979D01*
X82465555Y-84216489D01*
X82424610Y-81571000D01*
X81173000Y-81571000D01*
X81173000Y-89064000D01*
X82443000Y-89064000D01*
X82443000Y-88087328D01*
X82927959Y-88548658D01*
X83598906Y-89020664D01*
X84360948Y-89267822D01*
X85171927Y-89281525D01*
X85788792Y-89132751D01*
X86426022Y-88794705D01*
X86917825Y-88273226D01*
X87188039Y-87794000D01*
X87276046Y-87583642D01*
X87343601Y-87355101D01*
X87394200Y-87070381D01*
X87431337Y-86691489D01*
X87458507Y-86180428D01*
X87479205Y-85499206D01*
X87496926Y-84609828D01*
X87500534Y-84396750D01*
X87547494Y-81571000D01*
X86253000Y-81571000D01*
X86252292Y-84015750D01*
G36*
X68057450Y-81501746D02*
G01*
X67396454Y-81689266D01*
X66831893Y-82031073D01*
X66588622Y-82244186D01*
X66114096Y-82800344D01*
X65803168Y-83428466D01*
X65628296Y-84194236D01*
X65583881Y-84640348D01*
X65515706Y-85635000D01*
X71140000Y-85635000D01*
X71137211Y-85984250D01*
X71058453Y-86413805D01*
X70863687Y-86910302D01*
X70606641Y-87354677D01*
X70423039Y-87566906D01*
X69849404Y-87918192D01*
X69117642Y-88121176D01*
X68278673Y-88171831D01*
X67383418Y-88066129D01*
X66656700Y-87864801D01*
X65792899Y-87559959D01*
X65831200Y-88153229D01*
X65869500Y-88746500D01*
X66564535Y-88976928D01*
X67283124Y-89152768D01*
X68089391Y-89250486D01*
X68892015Y-89266213D01*
X69599679Y-89196080D01*
X69917000Y-89118971D01*
X70832206Y-88707429D01*
X71565196Y-88119561D01*
X72114256Y-87356917D01*
X72296274Y-86968500D01*
X72365423Y-86673013D01*
X72419854Y-86204526D01*
X72451424Y-85643954D01*
X72456013Y-85381000D01*
X72446424Y-84740430D01*
X72435125Y-84619000D01*
X71169625Y-84619000D01*
X68995813Y-84619000D01*
X68206785Y-84618066D01*
X67636317Y-84612252D01*
X67248971Y-84597034D01*
X67009307Y-84567890D01*
X66881886Y-84520298D01*
X66831268Y-84449735D01*
X66822015Y-84351678D01*
X66822000Y-84341596D01*
X66876342Y-84060587D01*
X67013143Y-83679639D01*
X67083634Y-83523730D01*
X67463577Y-83002192D01*
X67981869Y-82654876D01*
X68588024Y-82486128D01*
X69231559Y-82500292D01*
X69861991Y-82701714D01*
X70428834Y-83094738D01*
X70555996Y-83224882D01*
X70813546Y-83537286D01*
X70980086Y-83791704D01*
X71014735Y-83889115D01*
X71047498Y-84133784D01*
X71093047Y-84333250D01*
X71169625Y-84619000D01*
X72435125Y-84619000D01*
X72402680Y-84270351D01*
X72312181Y-83888170D01*
X72175136Y-83539500D01*
X71679168Y-82709368D01*
X71034705Y-82084707D01*
X70247415Y-81669120D01*
X69322966Y-81466211D01*
X68881671Y-81445240D01*
X68057450Y-81501746D01*
X68057450Y-81501746D01*
G37*
X68057450Y-81501746D02*
X67396454Y-81689266D01*
X66831893Y-82031073D01*
X66588622Y-82244186D01*
X66114096Y-82800344D01*
X65803168Y-83428466D01*
X65628296Y-84194236D01*
X65583881Y-84640348D01*
X65515706Y-85635000D01*
X71140000Y-85635000D01*
X71137211Y-85984250D01*
X71058453Y-86413805D01*
X70863687Y-86910302D01*
X70606641Y-87354677D01*
X70423039Y-87566906D01*
X69849404Y-87918192D01*
X69117642Y-88121176D01*
X68278673Y-88171831D01*
X67383418Y-88066129D01*
X66656700Y-87864801D01*
X65792899Y-87559959D01*
X65831200Y-88153229D01*
X65869500Y-88746500D01*
X66564535Y-88976928D01*
X67283124Y-89152768D01*
X68089391Y-89250486D01*
X68892015Y-89266213D01*
X69599679Y-89196080D01*
X69917000Y-89118971D01*
X70832206Y-88707429D01*
X71565196Y-88119561D01*
X72114256Y-87356917D01*
X72296274Y-86968500D01*
X72365423Y-86673013D01*
X72419854Y-86204526D01*
X72451424Y-85643954D01*
X72456013Y-85381000D01*
X72446424Y-84740430D01*
X72435125Y-84619000D01*
X71169625Y-84619000D01*
X68995813Y-84619000D01*
X68206785Y-84618066D01*
X67636317Y-84612252D01*
X67248971Y-84597034D01*
X67009307Y-84567890D01*
X66881886Y-84520298D01*
X66831268Y-84449735D01*
X66822015Y-84351678D01*
X66822000Y-84341596D01*
X66876342Y-84060587D01*
X67013143Y-83679639D01*
X67083634Y-83523730D01*
X67463577Y-83002192D01*
X67981869Y-82654876D01*
X68588024Y-82486128D01*
X69231559Y-82500292D01*
X69861991Y-82701714D01*
X70428834Y-83094738D01*
X70555996Y-83224882D01*
X70813546Y-83537286D01*
X70980086Y-83791704D01*
X71014735Y-83889115D01*
X71047498Y-84133784D01*
X71093047Y-84333250D01*
X71169625Y-84619000D01*
X72435125Y-84619000D01*
X72402680Y-84270351D01*
X72312181Y-83888170D01*
X72175136Y-83539500D01*
X71679168Y-82709368D01*
X71034705Y-82084707D01*
X70247415Y-81669120D01*
X69322966Y-81466211D01*
X68881671Y-81445240D01*
X68057450Y-81501746D01*
G36*
X120379836Y-86597304D02*
G01*
X120138892Y-86764246D01*
X119951789Y-86945372D01*
X119908000Y-87033847D01*
X120008687Y-87157326D01*
X120266847Y-87350125D01*
X120483487Y-87485550D01*
X120831428Y-87715657D01*
X120982864Y-87898045D01*
X120982929Y-88062404D01*
X120962545Y-88270473D01*
X121062682Y-88306957D01*
X121238683Y-88193227D01*
X121445894Y-87950655D01*
X121543741Y-87794000D01*
X121705374Y-87468700D01*
X121721816Y-87312660D01*
X121656027Y-87286000D01*
X121409786Y-87368290D01*
X121361408Y-87407392D01*
X121168524Y-87428091D01*
X120836396Y-87272972D01*
X120808061Y-87255291D01*
X120574019Y-87076989D01*
X120499893Y-86954417D01*
X120523054Y-86932815D01*
X120640328Y-86808398D01*
X120666326Y-86628412D01*
X120585462Y-86525035D01*
X120571259Y-86524000D01*
X120379836Y-86597304D01*
X120379836Y-86597304D01*
G37*
X120379836Y-86597304D02*
X120138892Y-86764246D01*
X119951789Y-86945372D01*
X119908000Y-87033847D01*
X120008687Y-87157326D01*
X120266847Y-87350125D01*
X120483487Y-87485550D01*
X120831428Y-87715657D01*
X120982864Y-87898045D01*
X120982929Y-88062404D01*
X120962545Y-88270473D01*
X121062682Y-88306957D01*
X121238683Y-88193227D01*
X121445894Y-87950655D01*
X121543741Y-87794000D01*
X121705374Y-87468700D01*
X121721816Y-87312660D01*
X121656027Y-87286000D01*
X121409786Y-87368290D01*
X121361408Y-87407392D01*
X121168524Y-87428091D01*
X120836396Y-87272972D01*
X120808061Y-87255291D01*
X120574019Y-87076989D01*
X120499893Y-86954417D01*
X120523054Y-86932815D01*
X120640328Y-86808398D01*
X120666326Y-86628412D01*
X120585462Y-86525035D01*
X120571259Y-86524000D01*
X120379836Y-86597304D01*
G36*
X115374746Y-86764759D02*
G01*
X115090902Y-86894941D01*
X114802929Y-87059494D01*
X114417816Y-87276578D01*
X114187987Y-87349494D01*
X114069680Y-87291862D01*
X114067505Y-87288433D01*
X113906388Y-87189729D01*
X113832579Y-87209781D01*
X113796068Y-87374608D01*
X113940009Y-87703260D01*
X113958164Y-87734458D01*
X114193901Y-88089932D01*
X114367999Y-88264259D01*
X114457275Y-88235345D01*
X114461625Y-88214245D01*
X114465955Y-88004134D01*
X114461243Y-87921000D01*
X114550198Y-87738462D01*
X114790727Y-87513542D01*
X114891118Y-87443582D01*
X115171702Y-87268968D01*
X115299408Y-87229329D01*
X115334433Y-87321383D01*
X115336000Y-87419327D01*
X115384706Y-87595666D01*
X115463000Y-87603500D01*
X115551593Y-87431227D01*
X115588831Y-87139879D01*
X115566909Y-86860620D01*
X115514123Y-86744456D01*
X115374746Y-86764759D01*
X115374746Y-86764759D01*
G37*
X115374746Y-86764759D02*
X115090902Y-86894941D01*
X114802929Y-87059494D01*
X114417816Y-87276578D01*
X114187987Y-87349494D01*
X114069680Y-87291862D01*
X114067505Y-87288433D01*
X113906388Y-87189729D01*
X113832579Y-87209781D01*
X113796068Y-87374608D01*
X113940009Y-87703260D01*
X113958164Y-87734458D01*
X114193901Y-88089932D01*
X114367999Y-88264259D01*
X114457275Y-88235345D01*
X114461625Y-88214245D01*
X114465955Y-88004134D01*
X114461243Y-87921000D01*
X114550198Y-87738462D01*
X114790727Y-87513542D01*
X114891118Y-87443582D01*
X115171702Y-87268968D01*
X115299408Y-87229329D01*
X115334433Y-87321383D01*
X115336000Y-87419327D01*
X115384706Y-87595666D01*
X115463000Y-87603500D01*
X115551593Y-87431227D01*
X115588831Y-87139879D01*
X115566909Y-86860620D01*
X115514123Y-86744456D01*
X115374746Y-86764759D01*
G36*
X120803911Y-85084994D02*
G01*
X120486496Y-85304381D01*
X120321660Y-85604766D01*
X120341806Y-85932756D01*
X120521251Y-86186816D01*
X120835052Y-86339007D01*
X121258219Y-86393790D01*
X121678460Y-86350356D01*
X121983484Y-86207896D01*
X121994429Y-86197428D01*
X122173390Y-85876900D01*
X122162564Y-85762000D01*
X121813000Y-85762000D01*
X121723198Y-85974256D01*
X121559000Y-86016000D01*
X121352477Y-85973367D01*
X121305000Y-85914400D01*
X121396485Y-85731054D01*
X121586533Y-85556789D01*
X121711401Y-85508000D01*
X121794010Y-85614581D01*
X121813000Y-85762000D01*
X122162564Y-85762000D01*
X122141918Y-85542887D01*
X122097641Y-85480407D01*
X121232946Y-85480407D01*
X121088679Y-85688515D01*
X120881044Y-85870985D01*
X120722795Y-85865745D01*
X120681375Y-85692251D01*
X120712651Y-85580036D01*
X120887484Y-85417317D01*
X121052944Y-85381000D01*
X121227616Y-85394740D01*
X121232946Y-85480407D01*
X122097641Y-85480407D01*
X121934302Y-85249922D01*
X121584832Y-85052538D01*
X121241500Y-85000000D01*
X120803911Y-85084994D01*
X120803911Y-85084994D01*
G37*
X120803911Y-85084994D02*
X120486496Y-85304381D01*
X120321660Y-85604766D01*
X120341806Y-85932756D01*
X120521251Y-86186816D01*
X120835052Y-86339007D01*
X121258219Y-86393790D01*
X121678460Y-86350356D01*
X121983484Y-86207896D01*
X121994429Y-86197428D01*
X122173390Y-85876900D01*
X122162564Y-85762000D01*
X121813000Y-85762000D01*
X121723198Y-85974256D01*
X121559000Y-86016000D01*
X121352477Y-85973367D01*
X121305000Y-85914400D01*
X121396485Y-85731054D01*
X121586533Y-85556789D01*
X121711401Y-85508000D01*
X121794010Y-85614581D01*
X121813000Y-85762000D01*
X122162564Y-85762000D01*
X122141918Y-85542887D01*
X122097641Y-85480407D01*
X121232946Y-85480407D01*
X121088679Y-85688515D01*
X120881044Y-85870985D01*
X120722795Y-85865745D01*
X120681375Y-85692251D01*
X120712651Y-85580036D01*
X120887484Y-85417317D01*
X121052944Y-85381000D01*
X121227616Y-85394740D01*
X121232946Y-85480407D01*
X122097641Y-85480407D01*
X121934302Y-85249922D01*
X121584832Y-85052538D01*
X121241500Y-85000000D01*
X120803911Y-85084994D01*
G36*
X113921437Y-85081213D02*
G01*
X113575099Y-85295582D01*
X113394550Y-85599200D01*
X113416450Y-85948162D01*
X113488402Y-86088016D01*
X113681604Y-86295144D01*
X113960033Y-86383773D01*
X114239745Y-86397000D01*
X114734961Y-86329936D01*
X114998817Y-86164749D01*
X115182185Y-85812099D01*
X115170050Y-85677333D01*
X114955000Y-85677333D01*
X114865719Y-85926231D01*
X114586246Y-86015320D01*
X114548365Y-86016000D01*
X114387250Y-85979759D01*
X114414292Y-85826101D01*
X114447000Y-85762000D01*
X114622586Y-85569621D01*
X114817524Y-85512321D01*
X114943521Y-85604814D01*
X114955000Y-85677333D01*
X115170050Y-85677333D01*
X115151397Y-85470181D01*
X114230861Y-85470181D01*
X114125975Y-85685937D01*
X114118536Y-85697409D01*
X113915685Y-85909435D01*
X113753938Y-85915729D01*
X113685091Y-85715432D01*
X113685000Y-85704592D01*
X113794790Y-85520456D01*
X114055327Y-85398576D01*
X114206315Y-85381000D01*
X114230861Y-85470181D01*
X115151397Y-85470181D01*
X115150631Y-85461679D01*
X114936131Y-85175363D01*
X114570659Y-85015026D01*
X114396901Y-85000000D01*
X113921437Y-85081213D01*
X113921437Y-85081213D01*
G37*
X113921437Y-85081213D02*
X113575099Y-85295582D01*
X113394550Y-85599200D01*
X113416450Y-85948162D01*
X113488402Y-86088016D01*
X113681604Y-86295144D01*
X113960033Y-86383773D01*
X114239745Y-86397000D01*
X114734961Y-86329936D01*
X114998817Y-86164749D01*
X115182185Y-85812099D01*
X115170050Y-85677333D01*
X114955000Y-85677333D01*
X114865719Y-85926231D01*
X114586246Y-86015320D01*
X114548365Y-86016000D01*
X114387250Y-85979759D01*
X114414292Y-85826101D01*
X114447000Y-85762000D01*
X114622586Y-85569621D01*
X114817524Y-85512321D01*
X114943521Y-85604814D01*
X114955000Y-85677333D01*
X115170050Y-85677333D01*
X115151397Y-85470181D01*
X114230861Y-85470181D01*
X114125975Y-85685937D01*
X114118536Y-85697409D01*
X113915685Y-85909435D01*
X113753938Y-85915729D01*
X113685091Y-85715432D01*
X113685000Y-85704592D01*
X113794790Y-85520456D01*
X114055327Y-85398576D01*
X114206315Y-85381000D01*
X114230861Y-85470181D01*
X115151397Y-85470181D01*
X115150631Y-85461679D01*
X114936131Y-85175363D01*
X114570659Y-85015026D01*
X114396901Y-85000000D01*
X113921437Y-85081213D01*
G36*
X120566109Y-83707355D02*
G01*
X120401533Y-83949568D01*
X120298413Y-84223355D01*
X120289000Y-84309767D01*
X120404417Y-84338902D01*
X120704401Y-84358916D01*
X121051000Y-84365000D01*
X121493459Y-84379630D01*
X121731013Y-84431492D01*
X121811498Y-84532546D01*
X121813000Y-84555500D01*
X121914660Y-84723872D01*
X122003500Y-84746000D01*
X122129062Y-84671207D01*
X122186255Y-84416895D01*
X122194000Y-84174500D01*
X122169070Y-83797816D01*
X122084299Y-83626237D01*
X122003500Y-83603000D01*
X121835128Y-83704659D01*
X121813000Y-83793500D01*
X121731303Y-83924370D01*
X121458784Y-83979671D01*
X121291413Y-83984000D01*
X120960012Y-83964630D01*
X120832971Y-83893038D01*
X120842927Y-83793500D01*
X120822982Y-83629814D01*
X120726371Y-83603000D01*
X120566109Y-83707355D01*
X120566109Y-83707355D01*
G37*
X120566109Y-83707355D02*
X120401533Y-83949568D01*
X120298413Y-84223355D01*
X120289000Y-84309767D01*
X120404417Y-84338902D01*
X120704401Y-84358916D01*
X121051000Y-84365000D01*
X121493459Y-84379630D01*
X121731013Y-84431492D01*
X121811498Y-84532546D01*
X121813000Y-84555500D01*
X121914660Y-84723872D01*
X122003500Y-84746000D01*
X122129062Y-84671207D01*
X122186255Y-84416895D01*
X122194000Y-84174500D01*
X122169070Y-83797816D01*
X122084299Y-83626237D01*
X122003500Y-83603000D01*
X121835128Y-83704659D01*
X121813000Y-83793500D01*
X121731303Y-83924370D01*
X121458784Y-83979671D01*
X121291413Y-83984000D01*
X120960012Y-83964630D01*
X120832971Y-83893038D01*
X120842927Y-83793500D01*
X120822982Y-83629814D01*
X120726371Y-83603000D01*
X120566109Y-83707355D01*
G36*
X113485554Y-83590220D02*
G01*
X113439571Y-83882263D01*
X113431000Y-84111000D01*
X113453845Y-84473231D01*
X113512253Y-84703147D01*
X113558000Y-84746000D01*
X113661186Y-84639631D01*
X113685000Y-84492000D01*
X113723258Y-84331966D01*
X113881388Y-84257147D01*
X114224423Y-84238024D01*
X114244611Y-84238000D01*
X114588607Y-84251128D01*
X114737261Y-84310472D01*
X114748707Y-84445974D01*
X114737799Y-84492000D01*
X114731805Y-84703506D01*
X114841177Y-84722301D01*
X115015494Y-84548108D01*
X115051451Y-84493723D01*
X115206692Y-84182026D01*
X115183681Y-83988377D01*
X114959166Y-83888282D01*
X114509896Y-83857249D01*
X114447000Y-83857000D01*
X114004542Y-83842369D01*
X113766988Y-83790507D01*
X113686503Y-83689453D01*
X113685000Y-83666500D01*
X113616424Y-83497492D01*
X113558000Y-83476000D01*
X113485554Y-83590220D01*
X113485554Y-83590220D01*
G37*
X113485554Y-83590220D02*
X113439571Y-83882263D01*
X113431000Y-84111000D01*
X113453845Y-84473231D01*
X113512253Y-84703147D01*
X113558000Y-84746000D01*
X113661186Y-84639631D01*
X113685000Y-84492000D01*
X113723258Y-84331966D01*
X113881388Y-84257147D01*
X114224423Y-84238024D01*
X114244611Y-84238000D01*
X114588607Y-84251128D01*
X114737261Y-84310472D01*
X114748707Y-84445974D01*
X114737799Y-84492000D01*
X114731805Y-84703506D01*
X114841177Y-84722301D01*
X115015494Y-84548108D01*
X115051451Y-84493723D01*
X115206692Y-84182026D01*
X115183681Y-83988377D01*
X114959166Y-83888282D01*
X114509896Y-83857249D01*
X114447000Y-83857000D01*
X114004542Y-83842369D01*
X113766988Y-83790507D01*
X113686503Y-83689453D01*
X113685000Y-83666500D01*
X113616424Y-83497492D01*
X113558000Y-83476000D01*
X113485554Y-83590220D01*
G36*
X120759749Y-81948037D02*
G01*
X120475713Y-82153651D01*
X120314680Y-82422573D01*
X120320465Y-82723635D01*
X120521251Y-83011816D01*
X120850479Y-83173732D01*
X121279104Y-83221560D01*
X121696226Y-83156972D01*
X121983817Y-82989749D01*
X122172652Y-82632457D01*
X122163012Y-82547858D01*
X121884180Y-82547858D01*
X121797665Y-82729220D01*
X121597398Y-82836836D01*
X121545413Y-82841000D01*
X121346434Y-82791908D01*
X121305000Y-82729550D01*
X121399465Y-82546197D01*
X121602356Y-82403710D01*
X121792918Y-82384696D01*
X121801891Y-82389633D01*
X121884180Y-82547858D01*
X122163012Y-82547858D01*
X122136506Y-82315256D01*
X121228874Y-82315256D01*
X121098549Y-82530021D01*
X120899255Y-82720206D01*
X120734662Y-82718790D01*
X120677187Y-82549228D01*
X120712651Y-82405036D01*
X120887650Y-82241676D01*
X121049942Y-82206000D01*
X121221414Y-82221919D01*
X121228874Y-82315256D01*
X122136506Y-82315256D01*
X122132328Y-82278601D01*
X121911742Y-82022701D01*
X121521577Y-81851395D01*
X121122975Y-81836896D01*
X120759749Y-81948037D01*
X120759749Y-81948037D01*
G37*
X120759749Y-81948037D02*
X120475713Y-82153651D01*
X120314680Y-82422573D01*
X120320465Y-82723635D01*
X120521251Y-83011816D01*
X120850479Y-83173732D01*
X121279104Y-83221560D01*
X121696226Y-83156972D01*
X121983817Y-82989749D01*
X122172652Y-82632457D01*
X122163012Y-82547858D01*
X121884180Y-82547858D01*
X121797665Y-82729220D01*
X121597398Y-82836836D01*
X121545413Y-82841000D01*
X121346434Y-82791908D01*
X121305000Y-82729550D01*
X121399465Y-82546197D01*
X121602356Y-82403710D01*
X121792918Y-82384696D01*
X121801891Y-82389633D01*
X121884180Y-82547858D01*
X122163012Y-82547858D01*
X122136506Y-82315256D01*
X121228874Y-82315256D01*
X121098549Y-82530021D01*
X120899255Y-82720206D01*
X120734662Y-82718790D01*
X120677187Y-82549228D01*
X120712651Y-82405036D01*
X120887650Y-82241676D01*
X121049942Y-82206000D01*
X121221414Y-82221919D01*
X121228874Y-82315256D01*
X122136506Y-82315256D01*
X122132328Y-82278601D01*
X121911742Y-82022701D01*
X121521577Y-81851395D01*
X121122975Y-81836896D01*
X120759749Y-81948037D01*
G36*
X114023297Y-81851161D02*
G01*
X113658362Y-81995509D01*
X113558000Y-82079000D01*
X113342194Y-82372928D01*
X113344644Y-82658080D01*
X113501702Y-82939741D01*
X113782398Y-83145274D01*
X114186271Y-83232150D01*
X114610127Y-83196922D01*
X114950773Y-83036145D01*
X114998817Y-82989749D01*
X115166010Y-82698716D01*
X115171819Y-82670371D01*
X114911016Y-82670371D01*
X114733592Y-82814136D01*
X114562037Y-82841000D01*
X114390008Y-82806484D01*
X114411371Y-82657233D01*
X114447000Y-82587000D01*
X114635946Y-82363066D01*
X114819278Y-82375428D01*
X114891500Y-82460000D01*
X114911016Y-82670371D01*
X115171819Y-82670371D01*
X115209000Y-82488951D01*
X115146307Y-82315256D01*
X114243874Y-82315256D01*
X114113549Y-82530021D01*
X113914255Y-82720206D01*
X113749662Y-82718790D01*
X113692187Y-82549228D01*
X113727651Y-82405036D01*
X113902650Y-82241676D01*
X114064942Y-82206000D01*
X114236414Y-82221919D01*
X114243874Y-82315256D01*
X115146307Y-82315256D01*
X115098651Y-82183223D01*
X114815927Y-81963016D01*
X114433314Y-81846329D01*
X114023297Y-81851161D01*
X114023297Y-81851161D01*
G37*
X114023297Y-81851161D02*
X113658362Y-81995509D01*
X113558000Y-82079000D01*
X113342194Y-82372928D01*
X113344644Y-82658080D01*
X113501702Y-82939741D01*
X113782398Y-83145274D01*
X114186271Y-83232150D01*
X114610127Y-83196922D01*
X114950773Y-83036145D01*
X114998817Y-82989749D01*
X115166010Y-82698716D01*
X115171819Y-82670371D01*
X114911016Y-82670371D01*
X114733592Y-82814136D01*
X114562037Y-82841000D01*
X114390008Y-82806484D01*
X114411371Y-82657233D01*
X114447000Y-82587000D01*
X114635946Y-82363066D01*
X114819278Y-82375428D01*
X114891500Y-82460000D01*
X114911016Y-82670371D01*
X115171819Y-82670371D01*
X115209000Y-82488951D01*
X115146307Y-82315256D01*
X114243874Y-82315256D01*
X114113549Y-82530021D01*
X113914255Y-82720206D01*
X113749662Y-82718790D01*
X113692187Y-82549228D01*
X113727651Y-82405036D01*
X113902650Y-82241676D01*
X114064942Y-82206000D01*
X114236414Y-82221919D01*
X114243874Y-82315256D01*
X115146307Y-82315256D01*
X115098651Y-82183223D01*
X114815927Y-81963016D01*
X114433314Y-81846329D01*
X114023297Y-81851161D01*
G36*
X120643984Y-80397604D02*
G01*
X120472384Y-80624416D01*
X120359486Y-80904250D01*
X120326430Y-81061630D01*
X120385084Y-81147139D01*
X120587688Y-81182635D01*
X120986481Y-81189973D01*
X121042442Y-81190000D01*
X121487711Y-81204344D01*
X121727981Y-81255253D01*
X121811045Y-81354542D01*
X121813000Y-81380500D01*
X121914660Y-81548872D01*
X122003500Y-81571000D01*
X122129062Y-81496207D01*
X122186255Y-81241895D01*
X122194000Y-80999500D01*
X122169070Y-80622816D01*
X122084299Y-80451237D01*
X122003500Y-80428000D01*
X121835128Y-80529659D01*
X121813000Y-80618500D01*
X121731303Y-80749370D01*
X121458784Y-80804671D01*
X121291413Y-80809000D01*
X120958896Y-80788940D01*
X120832085Y-80716048D01*
X120841366Y-80622567D01*
X120847675Y-80422987D01*
X120805844Y-80369965D01*
X120643984Y-80397604D01*
X120643984Y-80397604D01*
G37*
X120643984Y-80397604D02*
X120472384Y-80624416D01*
X120359486Y-80904250D01*
X120326430Y-81061630D01*
X120385084Y-81147139D01*
X120587688Y-81182635D01*
X120986481Y-81189973D01*
X121042442Y-81190000D01*
X121487711Y-81204344D01*
X121727981Y-81255253D01*
X121811045Y-81354542D01*
X121813000Y-81380500D01*
X121914660Y-81548872D01*
X122003500Y-81571000D01*
X122129062Y-81496207D01*
X122186255Y-81241895D01*
X122194000Y-80999500D01*
X122169070Y-80622816D01*
X122084299Y-80451237D01*
X122003500Y-80428000D01*
X121835128Y-80529659D01*
X121813000Y-80618500D01*
X121731303Y-80749370D01*
X121458784Y-80804671D01*
X121291413Y-80809000D01*
X120958896Y-80788940D01*
X120832085Y-80716048D01*
X120841366Y-80622567D01*
X120847675Y-80422987D01*
X120805844Y-80369965D01*
X120643984Y-80397604D01*
G36*
X113485554Y-80415220D02*
G01*
X113439571Y-80707263D01*
X113431000Y-80936000D01*
X113453845Y-81298231D01*
X113512253Y-81528147D01*
X113558000Y-81571000D01*
X113661186Y-81464631D01*
X113685000Y-81317000D01*
X113723258Y-81156966D01*
X113881388Y-81082147D01*
X114224423Y-81063024D01*
X114244611Y-81063000D01*
X114588607Y-81076128D01*
X114737261Y-81135472D01*
X114748707Y-81270974D01*
X114737799Y-81317000D01*
X114731805Y-81528506D01*
X114841177Y-81547301D01*
X115015494Y-81373108D01*
X115051451Y-81318723D01*
X115206692Y-81007026D01*
X115183681Y-80813377D01*
X114959166Y-80713282D01*
X114509896Y-80682249D01*
X114447000Y-80682000D01*
X114004542Y-80667369D01*
X113766988Y-80615507D01*
X113686503Y-80514453D01*
X113685000Y-80491500D01*
X113616424Y-80322492D01*
X113558000Y-80301000D01*
X113485554Y-80415220D01*
X113485554Y-80415220D01*
G37*
X113485554Y-80415220D02*
X113439571Y-80707263D01*
X113431000Y-80936000D01*
X113453845Y-81298231D01*
X113512253Y-81528147D01*
X113558000Y-81571000D01*
X113661186Y-81464631D01*
X113685000Y-81317000D01*
X113723258Y-81156966D01*
X113881388Y-81082147D01*
X114224423Y-81063024D01*
X114244611Y-81063000D01*
X114588607Y-81076128D01*
X114737261Y-81135472D01*
X114748707Y-81270974D01*
X114737799Y-81317000D01*
X114731805Y-81528506D01*
X114841177Y-81547301D01*
X115015494Y-81373108D01*
X115051451Y-81318723D01*
X115206692Y-81007026D01*
X115183681Y-80813377D01*
X114959166Y-80713282D01*
X114509896Y-80682249D01*
X114447000Y-80682000D01*
X114004542Y-80667369D01*
X113766988Y-80615507D01*
X113686503Y-80514453D01*
X113685000Y-80491500D01*
X113616424Y-80322492D01*
X113558000Y-80301000D01*
X113485554Y-80415220D01*
G36*
X111931569Y-78494714D02*
G01*
X111722998Y-78758080D01*
X111453199Y-79136935D01*
X111341758Y-79302089D01*
X110739249Y-80208178D01*
X110148375Y-79304226D01*
X109869725Y-78893519D01*
X109637490Y-78579797D01*
X109489270Y-78412789D01*
X109463263Y-78398137D01*
X109354856Y-78495787D01*
X109147352Y-78757999D01*
X108878765Y-79135520D01*
X108772495Y-79293098D01*
X108175964Y-80190196D01*
X107614552Y-79293098D01*
X107345715Y-78881922D01*
X107119791Y-78569928D01*
X106974390Y-78407903D01*
X106950230Y-78396000D01*
X106840367Y-78496408D01*
X106636887Y-78764003D01*
X106377138Y-79148338D01*
X106278314Y-79303539D01*
X106000051Y-79740155D01*
X105819602Y-79989471D01*
X105702550Y-80081053D01*
X105614478Y-80044464D01*
X105539105Y-79938539D01*
X105256140Y-79708519D01*
X105018451Y-79666000D01*
X104760516Y-79707648D01*
X104672718Y-79878882D01*
X104668000Y-79983500D01*
X104734241Y-80238857D01*
X104858500Y-80301000D01*
X105027703Y-80355219D01*
X105049000Y-80401047D01*
X105123839Y-80551963D01*
X105311912Y-80812590D01*
X105403902Y-80926209D01*
X105758803Y-81351323D01*
X106307819Y-80508661D01*
X106576865Y-80113433D01*
X106800253Y-79817579D01*
X106938411Y-79672623D01*
X106955022Y-79665999D01*
X107062430Y-79767369D01*
X107256755Y-80035400D01*
X107499324Y-80415975D01*
X107543355Y-80489281D01*
X107789861Y-80884111D01*
X107994015Y-81176213D01*
X108117406Y-81311324D01*
X108127738Y-81314781D01*
X108236302Y-81217201D01*
X108443703Y-80955263D01*
X108711703Y-80578441D01*
X108813121Y-80428000D01*
X109087071Y-80023294D01*
X109304951Y-79715030D01*
X109431614Y-79552412D01*
X109448121Y-79539000D01*
X109533309Y-79637087D01*
X109722376Y-79898547D01*
X109980174Y-80274177D01*
X110083121Y-80428000D01*
X110361139Y-80833194D01*
X110588867Y-81141271D01*
X110729151Y-81302844D01*
X110750883Y-81315642D01*
X110849886Y-81215607D01*
X111046705Y-80950396D01*
X111304712Y-80570330D01*
X111399000Y-80425229D01*
X111970500Y-79536175D01*
X112229271Y-79855087D01*
X112513206Y-80102071D01*
X112784973Y-80178080D01*
X112983751Y-80083008D01*
X113050000Y-79856500D01*
X113017339Y-79617585D01*
X112954750Y-79538772D01*
X112839204Y-79440131D01*
X112644829Y-79187095D01*
X112498589Y-78967272D01*
X112279902Y-78647523D01*
X112106098Y-78440203D01*
X112040972Y-78395999D01*
X111931569Y-78494714D01*
X111931569Y-78494714D01*
G37*
X111931569Y-78494714D02*
X111722998Y-78758080D01*
X111453199Y-79136935D01*
X111341758Y-79302089D01*
X110739249Y-80208178D01*
X110148375Y-79304226D01*
X109869725Y-78893519D01*
X109637490Y-78579797D01*
X109489270Y-78412789D01*
X109463263Y-78398137D01*
X109354856Y-78495787D01*
X109147352Y-78757999D01*
X108878765Y-79135520D01*
X108772495Y-79293098D01*
X108175964Y-80190196D01*
X107614552Y-79293098D01*
X107345715Y-78881922D01*
X107119791Y-78569928D01*
X106974390Y-78407903D01*
X106950230Y-78396000D01*
X106840367Y-78496408D01*
X106636887Y-78764003D01*
X106377138Y-79148338D01*
X106278314Y-79303539D01*
X106000051Y-79740155D01*
X105819602Y-79989471D01*
X105702550Y-80081053D01*
X105614478Y-80044464D01*
X105539105Y-79938539D01*
X105256140Y-79708519D01*
X105018451Y-79666000D01*
X104760516Y-79707648D01*
X104672718Y-79878882D01*
X104668000Y-79983500D01*
X104734241Y-80238857D01*
X104858500Y-80301000D01*
X105027703Y-80355219D01*
X105049000Y-80401047D01*
X105123839Y-80551963D01*
X105311912Y-80812590D01*
X105403902Y-80926209D01*
X105758803Y-81351323D01*
X106307819Y-80508661D01*
X106576865Y-80113433D01*
X106800253Y-79817579D01*
X106938411Y-79672623D01*
X106955022Y-79665999D01*
X107062430Y-79767369D01*
X107256755Y-80035400D01*
X107499324Y-80415975D01*
X107543355Y-80489281D01*
X107789861Y-80884111D01*
X107994015Y-81176213D01*
X108117406Y-81311324D01*
X108127738Y-81314781D01*
X108236302Y-81217201D01*
X108443703Y-80955263D01*
X108711703Y-80578441D01*
X108813121Y-80428000D01*
X109087071Y-80023294D01*
X109304951Y-79715030D01*
X109431614Y-79552412D01*
X109448121Y-79539000D01*
X109533309Y-79637087D01*
X109722376Y-79898547D01*
X109980174Y-80274177D01*
X110083121Y-80428000D01*
X110361139Y-80833194D01*
X110588867Y-81141271D01*
X110729151Y-81302844D01*
X110750883Y-81315642D01*
X110849886Y-81215607D01*
X111046705Y-80950396D01*
X111304712Y-80570330D01*
X111399000Y-80425229D01*
X111970500Y-79536175D01*
X112229271Y-79855087D01*
X112513206Y-80102071D01*
X112784973Y-80178080D01*
X112983751Y-80083008D01*
X113050000Y-79856500D01*
X113017339Y-79617585D01*
X112954750Y-79538772D01*
X112839204Y-79440131D01*
X112644829Y-79187095D01*
X112498589Y-78967272D01*
X112279902Y-78647523D01*
X112106098Y-78440203D01*
X112040972Y-78395999D01*
X111931569Y-78494714D01*
G36*
X120759749Y-78773037D02*
G01*
X120475713Y-78978651D01*
X120314680Y-79247573D01*
X120320465Y-79548635D01*
X120521251Y-79836816D01*
X120850479Y-79998732D01*
X121279104Y-80046560D01*
X121696226Y-79981972D01*
X121983817Y-79814749D01*
X122172652Y-79457457D01*
X122161215Y-79357090D01*
X121881262Y-79357090D01*
X121803617Y-79486806D01*
X121606937Y-79629028D01*
X121406292Y-79660576D01*
X121305623Y-79567330D01*
X121305000Y-79554550D01*
X121401836Y-79367086D01*
X121610397Y-79228267D01*
X121807765Y-79218494D01*
X121813604Y-79221873D01*
X121881262Y-79357090D01*
X122161215Y-79357090D01*
X122136506Y-79140256D01*
X121228874Y-79140256D01*
X121098549Y-79355021D01*
X120899255Y-79545206D01*
X120734662Y-79543790D01*
X120677187Y-79374228D01*
X120712651Y-79230036D01*
X120887650Y-79066676D01*
X121049942Y-79031000D01*
X121221414Y-79046919D01*
X121228874Y-79140256D01*
X122136506Y-79140256D01*
X122132328Y-79103601D01*
X121911742Y-78847701D01*
X121521577Y-78676395D01*
X121122975Y-78661896D01*
X120759749Y-78773037D01*
X120759749Y-78773037D01*
G37*
X120759749Y-78773037D02*
X120475713Y-78978651D01*
X120314680Y-79247573D01*
X120320465Y-79548635D01*
X120521251Y-79836816D01*
X120850479Y-79998732D01*
X121279104Y-80046560D01*
X121696226Y-79981972D01*
X121983817Y-79814749D01*
X122172652Y-79457457D01*
X122161215Y-79357090D01*
X121881262Y-79357090D01*
X121803617Y-79486806D01*
X121606937Y-79629028D01*
X121406292Y-79660576D01*
X121305623Y-79567330D01*
X121305000Y-79554550D01*
X121401836Y-79367086D01*
X121610397Y-79228267D01*
X121807765Y-79218494D01*
X121813604Y-79221873D01*
X121881262Y-79357090D01*
X122161215Y-79357090D01*
X122136506Y-79140256D01*
X121228874Y-79140256D01*
X121098549Y-79355021D01*
X120899255Y-79545206D01*
X120734662Y-79543790D01*
X120677187Y-79374228D01*
X120712651Y-79230036D01*
X120887650Y-79066676D01*
X121049942Y-79031000D01*
X121221414Y-79046919D01*
X121228874Y-79140256D01*
X122136506Y-79140256D01*
X122132328Y-79103601D01*
X121911742Y-78847701D01*
X121521577Y-78676395D01*
X121122975Y-78661896D01*
X120759749Y-78773037D01*
G36*
X114021059Y-78701639D02*
G01*
X113594347Y-78867869D01*
X113371334Y-79146387D01*
X113371299Y-79500793D01*
X113479413Y-79724297D01*
X113673411Y-79939156D01*
X113942528Y-80031814D01*
X114239745Y-80047000D01*
X114718967Y-79985395D01*
X115009022Y-79803473D01*
X115188096Y-79466551D01*
X115172450Y-79327333D01*
X114955000Y-79327333D01*
X114865719Y-79576231D01*
X114586246Y-79665320D01*
X114548365Y-79666000D01*
X114387250Y-79629759D01*
X114414292Y-79476101D01*
X114447000Y-79412000D01*
X114622586Y-79219621D01*
X114817524Y-79162321D01*
X114943521Y-79254814D01*
X114955000Y-79327333D01*
X115172450Y-79327333D01*
X115151921Y-79144668D01*
X115148360Y-79140256D01*
X114243874Y-79140256D01*
X114113549Y-79355021D01*
X113914255Y-79545206D01*
X113749662Y-79543790D01*
X113692187Y-79374228D01*
X113727651Y-79230036D01*
X113902650Y-79066676D01*
X114064942Y-79031000D01*
X114236414Y-79046919D01*
X114243874Y-79140256D01*
X115148360Y-79140256D01*
X114937851Y-78879483D01*
X114583240Y-78712654D01*
X114125440Y-78685840D01*
X114021059Y-78701639D01*
X114021059Y-78701639D01*
G37*
X114021059Y-78701639D02*
X113594347Y-78867869D01*
X113371334Y-79146387D01*
X113371299Y-79500793D01*
X113479413Y-79724297D01*
X113673411Y-79939156D01*
X113942528Y-80031814D01*
X114239745Y-80047000D01*
X114718967Y-79985395D01*
X115009022Y-79803473D01*
X115188096Y-79466551D01*
X115172450Y-79327333D01*
X114955000Y-79327333D01*
X114865719Y-79576231D01*
X114586246Y-79665320D01*
X114548365Y-79666000D01*
X114387250Y-79629759D01*
X114414292Y-79476101D01*
X114447000Y-79412000D01*
X114622586Y-79219621D01*
X114817524Y-79162321D01*
X114943521Y-79254814D01*
X114955000Y-79327333D01*
X115172450Y-79327333D01*
X115151921Y-79144668D01*
X115148360Y-79140256D01*
X114243874Y-79140256D01*
X114113549Y-79355021D01*
X113914255Y-79545206D01*
X113749662Y-79543790D01*
X113692187Y-79374228D01*
X113727651Y-79230036D01*
X113902650Y-79066676D01*
X114064942Y-79031000D01*
X114236414Y-79046919D01*
X114243874Y-79140256D01*
X115148360Y-79140256D01*
X114937851Y-78879483D01*
X114583240Y-78712654D01*
X114125440Y-78685840D01*
X114021059Y-78701639D01*
M02*
