G04 #@! TF.GenerationSoftware,KiCad,Pcbnew,(5.1.4)-1*
G04 #@! TF.CreationDate,2019-11-21T21:18:38+01:00*
G04 #@! TF.ProjectId,asserv_dc,61737365-7276-45f6-9463-2e6b69636164,rev?*
G04 #@! TF.SameCoordinates,Original*
G04 #@! TF.FileFunction,Paste,Top*
G04 #@! TF.FilePolarity,Positive*
%FSLAX46Y46*%
G04 Gerber Fmt 4.6, Leading zero omitted, Abs format (unit mm)*
G04 Created by KiCad (PCBNEW (5.1.4)-1) date 2019-11-21 21:18:38*
%MOMM*%
%LPD*%
G04 APERTURE LIST*
%ADD10R,5.000000X5.550000*%
%ADD11R,2.850000X1.000000*%
%ADD12R,5.250000X6.230000*%
%ADD13R,5.250000X10.300000*%
%ADD14R,1.350000X0.660000*%
%ADD15C,0.100000*%
%ADD16C,0.975000*%
%ADD17C,1.600000*%
%ADD18R,1.100000X0.400000*%
G04 APERTURE END LIST*
D10*
X115075000Y-67825000D03*
D11*
X107875000Y-70105000D03*
X107875000Y-65545000D03*
D10*
X72925000Y-67825000D03*
D11*
X80125000Y-65545000D03*
X80125000Y-70105000D03*
D12*
X61600000Y-90015000D03*
D13*
X67700000Y-85850000D03*
D14*
X55525000Y-92850000D03*
X73775000Y-92850000D03*
X55525000Y-91850000D03*
X73775000Y-91850000D03*
X55525000Y-90850000D03*
X73775000Y-90850000D03*
X55525000Y-89850000D03*
X73775000Y-89850000D03*
X55525000Y-88850000D03*
X73775000Y-88850000D03*
X55525000Y-87850000D03*
X73775000Y-87850000D03*
X55525000Y-86850000D03*
X73775000Y-86850000D03*
X55525000Y-85850000D03*
X73775000Y-85850000D03*
X55525000Y-84850000D03*
X73775000Y-84850000D03*
X55525000Y-83850000D03*
X73775000Y-83850000D03*
X55525000Y-82850000D03*
X73775000Y-82850000D03*
X55525000Y-81850000D03*
X73775000Y-81850000D03*
X55525000Y-80850000D03*
X73775000Y-80850000D03*
X55525000Y-79850000D03*
X73775000Y-79850000D03*
X55525000Y-78850000D03*
X73775000Y-78850000D03*
D12*
X61600000Y-81685000D03*
D15*
G36*
X53230142Y-86326174D02*
G01*
X53253803Y-86329684D01*
X53277007Y-86335496D01*
X53299529Y-86343554D01*
X53321153Y-86353782D01*
X53341670Y-86366079D01*
X53360883Y-86380329D01*
X53378607Y-86396393D01*
X53394671Y-86414117D01*
X53408921Y-86433330D01*
X53421218Y-86453847D01*
X53431446Y-86475471D01*
X53439504Y-86497993D01*
X53445316Y-86521197D01*
X53448826Y-86544858D01*
X53450000Y-86568750D01*
X53450000Y-87056250D01*
X53448826Y-87080142D01*
X53445316Y-87103803D01*
X53439504Y-87127007D01*
X53431446Y-87149529D01*
X53421218Y-87171153D01*
X53408921Y-87191670D01*
X53394671Y-87210883D01*
X53378607Y-87228607D01*
X53360883Y-87244671D01*
X53341670Y-87258921D01*
X53321153Y-87271218D01*
X53299529Y-87281446D01*
X53277007Y-87289504D01*
X53253803Y-87295316D01*
X53230142Y-87298826D01*
X53206250Y-87300000D01*
X52293750Y-87300000D01*
X52269858Y-87298826D01*
X52246197Y-87295316D01*
X52222993Y-87289504D01*
X52200471Y-87281446D01*
X52178847Y-87271218D01*
X52158330Y-87258921D01*
X52139117Y-87244671D01*
X52121393Y-87228607D01*
X52105329Y-87210883D01*
X52091079Y-87191670D01*
X52078782Y-87171153D01*
X52068554Y-87149529D01*
X52060496Y-87127007D01*
X52054684Y-87103803D01*
X52051174Y-87080142D01*
X52050000Y-87056250D01*
X52050000Y-86568750D01*
X52051174Y-86544858D01*
X52054684Y-86521197D01*
X52060496Y-86497993D01*
X52068554Y-86475471D01*
X52078782Y-86453847D01*
X52091079Y-86433330D01*
X52105329Y-86414117D01*
X52121393Y-86396393D01*
X52139117Y-86380329D01*
X52158330Y-86366079D01*
X52178847Y-86353782D01*
X52200471Y-86343554D01*
X52222993Y-86335496D01*
X52246197Y-86329684D01*
X52269858Y-86326174D01*
X52293750Y-86325000D01*
X53206250Y-86325000D01*
X53230142Y-86326174D01*
X53230142Y-86326174D01*
G37*
D16*
X52750000Y-86812500D03*
D15*
G36*
X53230142Y-84451174D02*
G01*
X53253803Y-84454684D01*
X53277007Y-84460496D01*
X53299529Y-84468554D01*
X53321153Y-84478782D01*
X53341670Y-84491079D01*
X53360883Y-84505329D01*
X53378607Y-84521393D01*
X53394671Y-84539117D01*
X53408921Y-84558330D01*
X53421218Y-84578847D01*
X53431446Y-84600471D01*
X53439504Y-84622993D01*
X53445316Y-84646197D01*
X53448826Y-84669858D01*
X53450000Y-84693750D01*
X53450000Y-85181250D01*
X53448826Y-85205142D01*
X53445316Y-85228803D01*
X53439504Y-85252007D01*
X53431446Y-85274529D01*
X53421218Y-85296153D01*
X53408921Y-85316670D01*
X53394671Y-85335883D01*
X53378607Y-85353607D01*
X53360883Y-85369671D01*
X53341670Y-85383921D01*
X53321153Y-85396218D01*
X53299529Y-85406446D01*
X53277007Y-85414504D01*
X53253803Y-85420316D01*
X53230142Y-85423826D01*
X53206250Y-85425000D01*
X52293750Y-85425000D01*
X52269858Y-85423826D01*
X52246197Y-85420316D01*
X52222993Y-85414504D01*
X52200471Y-85406446D01*
X52178847Y-85396218D01*
X52158330Y-85383921D01*
X52139117Y-85369671D01*
X52121393Y-85353607D01*
X52105329Y-85335883D01*
X52091079Y-85316670D01*
X52078782Y-85296153D01*
X52068554Y-85274529D01*
X52060496Y-85252007D01*
X52054684Y-85228803D01*
X52051174Y-85205142D01*
X52050000Y-85181250D01*
X52050000Y-84693750D01*
X52051174Y-84669858D01*
X52054684Y-84646197D01*
X52060496Y-84622993D01*
X52068554Y-84600471D01*
X52078782Y-84578847D01*
X52091079Y-84558330D01*
X52105329Y-84539117D01*
X52121393Y-84521393D01*
X52139117Y-84505329D01*
X52158330Y-84491079D01*
X52178847Y-84478782D01*
X52200471Y-84468554D01*
X52222993Y-84460496D01*
X52246197Y-84454684D01*
X52269858Y-84451174D01*
X52293750Y-84450000D01*
X53206250Y-84450000D01*
X53230142Y-84451174D01*
X53230142Y-84451174D01*
G37*
D16*
X52750000Y-84937500D03*
D15*
G36*
X79605142Y-80676174D02*
G01*
X79628803Y-80679684D01*
X79652007Y-80685496D01*
X79674529Y-80693554D01*
X79696153Y-80703782D01*
X79716670Y-80716079D01*
X79735883Y-80730329D01*
X79753607Y-80746393D01*
X79769671Y-80764117D01*
X79783921Y-80783330D01*
X79796218Y-80803847D01*
X79806446Y-80825471D01*
X79814504Y-80847993D01*
X79820316Y-80871197D01*
X79823826Y-80894858D01*
X79825000Y-80918750D01*
X79825000Y-81831250D01*
X79823826Y-81855142D01*
X79820316Y-81878803D01*
X79814504Y-81902007D01*
X79806446Y-81924529D01*
X79796218Y-81946153D01*
X79783921Y-81966670D01*
X79769671Y-81985883D01*
X79753607Y-82003607D01*
X79735883Y-82019671D01*
X79716670Y-82033921D01*
X79696153Y-82046218D01*
X79674529Y-82056446D01*
X79652007Y-82064504D01*
X79628803Y-82070316D01*
X79605142Y-82073826D01*
X79581250Y-82075000D01*
X79093750Y-82075000D01*
X79069858Y-82073826D01*
X79046197Y-82070316D01*
X79022993Y-82064504D01*
X79000471Y-82056446D01*
X78978847Y-82046218D01*
X78958330Y-82033921D01*
X78939117Y-82019671D01*
X78921393Y-82003607D01*
X78905329Y-81985883D01*
X78891079Y-81966670D01*
X78878782Y-81946153D01*
X78868554Y-81924529D01*
X78860496Y-81902007D01*
X78854684Y-81878803D01*
X78851174Y-81855142D01*
X78850000Y-81831250D01*
X78850000Y-80918750D01*
X78851174Y-80894858D01*
X78854684Y-80871197D01*
X78860496Y-80847993D01*
X78868554Y-80825471D01*
X78878782Y-80803847D01*
X78891079Y-80783330D01*
X78905329Y-80764117D01*
X78921393Y-80746393D01*
X78939117Y-80730329D01*
X78958330Y-80716079D01*
X78978847Y-80703782D01*
X79000471Y-80693554D01*
X79022993Y-80685496D01*
X79046197Y-80679684D01*
X79069858Y-80676174D01*
X79093750Y-80675000D01*
X79581250Y-80675000D01*
X79605142Y-80676174D01*
X79605142Y-80676174D01*
G37*
D16*
X79337500Y-81375000D03*
D15*
G36*
X77730142Y-80676174D02*
G01*
X77753803Y-80679684D01*
X77777007Y-80685496D01*
X77799529Y-80693554D01*
X77821153Y-80703782D01*
X77841670Y-80716079D01*
X77860883Y-80730329D01*
X77878607Y-80746393D01*
X77894671Y-80764117D01*
X77908921Y-80783330D01*
X77921218Y-80803847D01*
X77931446Y-80825471D01*
X77939504Y-80847993D01*
X77945316Y-80871197D01*
X77948826Y-80894858D01*
X77950000Y-80918750D01*
X77950000Y-81831250D01*
X77948826Y-81855142D01*
X77945316Y-81878803D01*
X77939504Y-81902007D01*
X77931446Y-81924529D01*
X77921218Y-81946153D01*
X77908921Y-81966670D01*
X77894671Y-81985883D01*
X77878607Y-82003607D01*
X77860883Y-82019671D01*
X77841670Y-82033921D01*
X77821153Y-82046218D01*
X77799529Y-82056446D01*
X77777007Y-82064504D01*
X77753803Y-82070316D01*
X77730142Y-82073826D01*
X77706250Y-82075000D01*
X77218750Y-82075000D01*
X77194858Y-82073826D01*
X77171197Y-82070316D01*
X77147993Y-82064504D01*
X77125471Y-82056446D01*
X77103847Y-82046218D01*
X77083330Y-82033921D01*
X77064117Y-82019671D01*
X77046393Y-82003607D01*
X77030329Y-81985883D01*
X77016079Y-81966670D01*
X77003782Y-81946153D01*
X76993554Y-81924529D01*
X76985496Y-81902007D01*
X76979684Y-81878803D01*
X76976174Y-81855142D01*
X76975000Y-81831250D01*
X76975000Y-80918750D01*
X76976174Y-80894858D01*
X76979684Y-80871197D01*
X76985496Y-80847993D01*
X76993554Y-80825471D01*
X77003782Y-80803847D01*
X77016079Y-80783330D01*
X77030329Y-80764117D01*
X77046393Y-80746393D01*
X77064117Y-80730329D01*
X77083330Y-80716079D01*
X77103847Y-80703782D01*
X77125471Y-80693554D01*
X77147993Y-80685496D01*
X77171197Y-80679684D01*
X77194858Y-80676174D01*
X77218750Y-80675000D01*
X77706250Y-80675000D01*
X77730142Y-80676174D01*
X77730142Y-80676174D01*
G37*
D16*
X77462500Y-81375000D03*
D15*
G36*
X79605142Y-86376174D02*
G01*
X79628803Y-86379684D01*
X79652007Y-86385496D01*
X79674529Y-86393554D01*
X79696153Y-86403782D01*
X79716670Y-86416079D01*
X79735883Y-86430329D01*
X79753607Y-86446393D01*
X79769671Y-86464117D01*
X79783921Y-86483330D01*
X79796218Y-86503847D01*
X79806446Y-86525471D01*
X79814504Y-86547993D01*
X79820316Y-86571197D01*
X79823826Y-86594858D01*
X79825000Y-86618750D01*
X79825000Y-87531250D01*
X79823826Y-87555142D01*
X79820316Y-87578803D01*
X79814504Y-87602007D01*
X79806446Y-87624529D01*
X79796218Y-87646153D01*
X79783921Y-87666670D01*
X79769671Y-87685883D01*
X79753607Y-87703607D01*
X79735883Y-87719671D01*
X79716670Y-87733921D01*
X79696153Y-87746218D01*
X79674529Y-87756446D01*
X79652007Y-87764504D01*
X79628803Y-87770316D01*
X79605142Y-87773826D01*
X79581250Y-87775000D01*
X79093750Y-87775000D01*
X79069858Y-87773826D01*
X79046197Y-87770316D01*
X79022993Y-87764504D01*
X79000471Y-87756446D01*
X78978847Y-87746218D01*
X78958330Y-87733921D01*
X78939117Y-87719671D01*
X78921393Y-87703607D01*
X78905329Y-87685883D01*
X78891079Y-87666670D01*
X78878782Y-87646153D01*
X78868554Y-87624529D01*
X78860496Y-87602007D01*
X78854684Y-87578803D01*
X78851174Y-87555142D01*
X78850000Y-87531250D01*
X78850000Y-86618750D01*
X78851174Y-86594858D01*
X78854684Y-86571197D01*
X78860496Y-86547993D01*
X78868554Y-86525471D01*
X78878782Y-86503847D01*
X78891079Y-86483330D01*
X78905329Y-86464117D01*
X78921393Y-86446393D01*
X78939117Y-86430329D01*
X78958330Y-86416079D01*
X78978847Y-86403782D01*
X79000471Y-86393554D01*
X79022993Y-86385496D01*
X79046197Y-86379684D01*
X79069858Y-86376174D01*
X79093750Y-86375000D01*
X79581250Y-86375000D01*
X79605142Y-86376174D01*
X79605142Y-86376174D01*
G37*
D16*
X79337500Y-87075000D03*
D15*
G36*
X77730142Y-86376174D02*
G01*
X77753803Y-86379684D01*
X77777007Y-86385496D01*
X77799529Y-86393554D01*
X77821153Y-86403782D01*
X77841670Y-86416079D01*
X77860883Y-86430329D01*
X77878607Y-86446393D01*
X77894671Y-86464117D01*
X77908921Y-86483330D01*
X77921218Y-86503847D01*
X77931446Y-86525471D01*
X77939504Y-86547993D01*
X77945316Y-86571197D01*
X77948826Y-86594858D01*
X77950000Y-86618750D01*
X77950000Y-87531250D01*
X77948826Y-87555142D01*
X77945316Y-87578803D01*
X77939504Y-87602007D01*
X77931446Y-87624529D01*
X77921218Y-87646153D01*
X77908921Y-87666670D01*
X77894671Y-87685883D01*
X77878607Y-87703607D01*
X77860883Y-87719671D01*
X77841670Y-87733921D01*
X77821153Y-87746218D01*
X77799529Y-87756446D01*
X77777007Y-87764504D01*
X77753803Y-87770316D01*
X77730142Y-87773826D01*
X77706250Y-87775000D01*
X77218750Y-87775000D01*
X77194858Y-87773826D01*
X77171197Y-87770316D01*
X77147993Y-87764504D01*
X77125471Y-87756446D01*
X77103847Y-87746218D01*
X77083330Y-87733921D01*
X77064117Y-87719671D01*
X77046393Y-87703607D01*
X77030329Y-87685883D01*
X77016079Y-87666670D01*
X77003782Y-87646153D01*
X76993554Y-87624529D01*
X76985496Y-87602007D01*
X76979684Y-87578803D01*
X76976174Y-87555142D01*
X76975000Y-87531250D01*
X76975000Y-86618750D01*
X76976174Y-86594858D01*
X76979684Y-86571197D01*
X76985496Y-86547993D01*
X76993554Y-86525471D01*
X77003782Y-86503847D01*
X77016079Y-86483330D01*
X77030329Y-86464117D01*
X77046393Y-86446393D01*
X77064117Y-86430329D01*
X77083330Y-86416079D01*
X77103847Y-86403782D01*
X77125471Y-86393554D01*
X77147993Y-86385496D01*
X77171197Y-86379684D01*
X77194858Y-86376174D01*
X77218750Y-86375000D01*
X77706250Y-86375000D01*
X77730142Y-86376174D01*
X77730142Y-86376174D01*
G37*
D16*
X77462500Y-87075000D03*
D15*
G36*
X79605142Y-88276174D02*
G01*
X79628803Y-88279684D01*
X79652007Y-88285496D01*
X79674529Y-88293554D01*
X79696153Y-88303782D01*
X79716670Y-88316079D01*
X79735883Y-88330329D01*
X79753607Y-88346393D01*
X79769671Y-88364117D01*
X79783921Y-88383330D01*
X79796218Y-88403847D01*
X79806446Y-88425471D01*
X79814504Y-88447993D01*
X79820316Y-88471197D01*
X79823826Y-88494858D01*
X79825000Y-88518750D01*
X79825000Y-89431250D01*
X79823826Y-89455142D01*
X79820316Y-89478803D01*
X79814504Y-89502007D01*
X79806446Y-89524529D01*
X79796218Y-89546153D01*
X79783921Y-89566670D01*
X79769671Y-89585883D01*
X79753607Y-89603607D01*
X79735883Y-89619671D01*
X79716670Y-89633921D01*
X79696153Y-89646218D01*
X79674529Y-89656446D01*
X79652007Y-89664504D01*
X79628803Y-89670316D01*
X79605142Y-89673826D01*
X79581250Y-89675000D01*
X79093750Y-89675000D01*
X79069858Y-89673826D01*
X79046197Y-89670316D01*
X79022993Y-89664504D01*
X79000471Y-89656446D01*
X78978847Y-89646218D01*
X78958330Y-89633921D01*
X78939117Y-89619671D01*
X78921393Y-89603607D01*
X78905329Y-89585883D01*
X78891079Y-89566670D01*
X78878782Y-89546153D01*
X78868554Y-89524529D01*
X78860496Y-89502007D01*
X78854684Y-89478803D01*
X78851174Y-89455142D01*
X78850000Y-89431250D01*
X78850000Y-88518750D01*
X78851174Y-88494858D01*
X78854684Y-88471197D01*
X78860496Y-88447993D01*
X78868554Y-88425471D01*
X78878782Y-88403847D01*
X78891079Y-88383330D01*
X78905329Y-88364117D01*
X78921393Y-88346393D01*
X78939117Y-88330329D01*
X78958330Y-88316079D01*
X78978847Y-88303782D01*
X79000471Y-88293554D01*
X79022993Y-88285496D01*
X79046197Y-88279684D01*
X79069858Y-88276174D01*
X79093750Y-88275000D01*
X79581250Y-88275000D01*
X79605142Y-88276174D01*
X79605142Y-88276174D01*
G37*
D16*
X79337500Y-88975000D03*
D15*
G36*
X77730142Y-88276174D02*
G01*
X77753803Y-88279684D01*
X77777007Y-88285496D01*
X77799529Y-88293554D01*
X77821153Y-88303782D01*
X77841670Y-88316079D01*
X77860883Y-88330329D01*
X77878607Y-88346393D01*
X77894671Y-88364117D01*
X77908921Y-88383330D01*
X77921218Y-88403847D01*
X77931446Y-88425471D01*
X77939504Y-88447993D01*
X77945316Y-88471197D01*
X77948826Y-88494858D01*
X77950000Y-88518750D01*
X77950000Y-89431250D01*
X77948826Y-89455142D01*
X77945316Y-89478803D01*
X77939504Y-89502007D01*
X77931446Y-89524529D01*
X77921218Y-89546153D01*
X77908921Y-89566670D01*
X77894671Y-89585883D01*
X77878607Y-89603607D01*
X77860883Y-89619671D01*
X77841670Y-89633921D01*
X77821153Y-89646218D01*
X77799529Y-89656446D01*
X77777007Y-89664504D01*
X77753803Y-89670316D01*
X77730142Y-89673826D01*
X77706250Y-89675000D01*
X77218750Y-89675000D01*
X77194858Y-89673826D01*
X77171197Y-89670316D01*
X77147993Y-89664504D01*
X77125471Y-89656446D01*
X77103847Y-89646218D01*
X77083330Y-89633921D01*
X77064117Y-89619671D01*
X77046393Y-89603607D01*
X77030329Y-89585883D01*
X77016079Y-89566670D01*
X77003782Y-89546153D01*
X76993554Y-89524529D01*
X76985496Y-89502007D01*
X76979684Y-89478803D01*
X76976174Y-89455142D01*
X76975000Y-89431250D01*
X76975000Y-88518750D01*
X76976174Y-88494858D01*
X76979684Y-88471197D01*
X76985496Y-88447993D01*
X76993554Y-88425471D01*
X77003782Y-88403847D01*
X77016079Y-88383330D01*
X77030329Y-88364117D01*
X77046393Y-88346393D01*
X77064117Y-88330329D01*
X77083330Y-88316079D01*
X77103847Y-88303782D01*
X77125471Y-88293554D01*
X77147993Y-88285496D01*
X77171197Y-88279684D01*
X77194858Y-88276174D01*
X77218750Y-88275000D01*
X77706250Y-88275000D01*
X77730142Y-88276174D01*
X77730142Y-88276174D01*
G37*
D16*
X77462500Y-88975000D03*
D15*
G36*
X79605142Y-74976174D02*
G01*
X79628803Y-74979684D01*
X79652007Y-74985496D01*
X79674529Y-74993554D01*
X79696153Y-75003782D01*
X79716670Y-75016079D01*
X79735883Y-75030329D01*
X79753607Y-75046393D01*
X79769671Y-75064117D01*
X79783921Y-75083330D01*
X79796218Y-75103847D01*
X79806446Y-75125471D01*
X79814504Y-75147993D01*
X79820316Y-75171197D01*
X79823826Y-75194858D01*
X79825000Y-75218750D01*
X79825000Y-76131250D01*
X79823826Y-76155142D01*
X79820316Y-76178803D01*
X79814504Y-76202007D01*
X79806446Y-76224529D01*
X79796218Y-76246153D01*
X79783921Y-76266670D01*
X79769671Y-76285883D01*
X79753607Y-76303607D01*
X79735883Y-76319671D01*
X79716670Y-76333921D01*
X79696153Y-76346218D01*
X79674529Y-76356446D01*
X79652007Y-76364504D01*
X79628803Y-76370316D01*
X79605142Y-76373826D01*
X79581250Y-76375000D01*
X79093750Y-76375000D01*
X79069858Y-76373826D01*
X79046197Y-76370316D01*
X79022993Y-76364504D01*
X79000471Y-76356446D01*
X78978847Y-76346218D01*
X78958330Y-76333921D01*
X78939117Y-76319671D01*
X78921393Y-76303607D01*
X78905329Y-76285883D01*
X78891079Y-76266670D01*
X78878782Y-76246153D01*
X78868554Y-76224529D01*
X78860496Y-76202007D01*
X78854684Y-76178803D01*
X78851174Y-76155142D01*
X78850000Y-76131250D01*
X78850000Y-75218750D01*
X78851174Y-75194858D01*
X78854684Y-75171197D01*
X78860496Y-75147993D01*
X78868554Y-75125471D01*
X78878782Y-75103847D01*
X78891079Y-75083330D01*
X78905329Y-75064117D01*
X78921393Y-75046393D01*
X78939117Y-75030329D01*
X78958330Y-75016079D01*
X78978847Y-75003782D01*
X79000471Y-74993554D01*
X79022993Y-74985496D01*
X79046197Y-74979684D01*
X79069858Y-74976174D01*
X79093750Y-74975000D01*
X79581250Y-74975000D01*
X79605142Y-74976174D01*
X79605142Y-74976174D01*
G37*
D16*
X79337500Y-75675000D03*
D15*
G36*
X77730142Y-74976174D02*
G01*
X77753803Y-74979684D01*
X77777007Y-74985496D01*
X77799529Y-74993554D01*
X77821153Y-75003782D01*
X77841670Y-75016079D01*
X77860883Y-75030329D01*
X77878607Y-75046393D01*
X77894671Y-75064117D01*
X77908921Y-75083330D01*
X77921218Y-75103847D01*
X77931446Y-75125471D01*
X77939504Y-75147993D01*
X77945316Y-75171197D01*
X77948826Y-75194858D01*
X77950000Y-75218750D01*
X77950000Y-76131250D01*
X77948826Y-76155142D01*
X77945316Y-76178803D01*
X77939504Y-76202007D01*
X77931446Y-76224529D01*
X77921218Y-76246153D01*
X77908921Y-76266670D01*
X77894671Y-76285883D01*
X77878607Y-76303607D01*
X77860883Y-76319671D01*
X77841670Y-76333921D01*
X77821153Y-76346218D01*
X77799529Y-76356446D01*
X77777007Y-76364504D01*
X77753803Y-76370316D01*
X77730142Y-76373826D01*
X77706250Y-76375000D01*
X77218750Y-76375000D01*
X77194858Y-76373826D01*
X77171197Y-76370316D01*
X77147993Y-76364504D01*
X77125471Y-76356446D01*
X77103847Y-76346218D01*
X77083330Y-76333921D01*
X77064117Y-76319671D01*
X77046393Y-76303607D01*
X77030329Y-76285883D01*
X77016079Y-76266670D01*
X77003782Y-76246153D01*
X76993554Y-76224529D01*
X76985496Y-76202007D01*
X76979684Y-76178803D01*
X76976174Y-76155142D01*
X76975000Y-76131250D01*
X76975000Y-75218750D01*
X76976174Y-75194858D01*
X76979684Y-75171197D01*
X76985496Y-75147993D01*
X76993554Y-75125471D01*
X77003782Y-75103847D01*
X77016079Y-75083330D01*
X77030329Y-75064117D01*
X77046393Y-75046393D01*
X77064117Y-75030329D01*
X77083330Y-75016079D01*
X77103847Y-75003782D01*
X77125471Y-74993554D01*
X77147993Y-74985496D01*
X77171197Y-74979684D01*
X77194858Y-74976174D01*
X77218750Y-74975000D01*
X77706250Y-74975000D01*
X77730142Y-74976174D01*
X77730142Y-74976174D01*
G37*
D16*
X77462500Y-75675000D03*
D15*
G36*
X79605142Y-82576174D02*
G01*
X79628803Y-82579684D01*
X79652007Y-82585496D01*
X79674529Y-82593554D01*
X79696153Y-82603782D01*
X79716670Y-82616079D01*
X79735883Y-82630329D01*
X79753607Y-82646393D01*
X79769671Y-82664117D01*
X79783921Y-82683330D01*
X79796218Y-82703847D01*
X79806446Y-82725471D01*
X79814504Y-82747993D01*
X79820316Y-82771197D01*
X79823826Y-82794858D01*
X79825000Y-82818750D01*
X79825000Y-83731250D01*
X79823826Y-83755142D01*
X79820316Y-83778803D01*
X79814504Y-83802007D01*
X79806446Y-83824529D01*
X79796218Y-83846153D01*
X79783921Y-83866670D01*
X79769671Y-83885883D01*
X79753607Y-83903607D01*
X79735883Y-83919671D01*
X79716670Y-83933921D01*
X79696153Y-83946218D01*
X79674529Y-83956446D01*
X79652007Y-83964504D01*
X79628803Y-83970316D01*
X79605142Y-83973826D01*
X79581250Y-83975000D01*
X79093750Y-83975000D01*
X79069858Y-83973826D01*
X79046197Y-83970316D01*
X79022993Y-83964504D01*
X79000471Y-83956446D01*
X78978847Y-83946218D01*
X78958330Y-83933921D01*
X78939117Y-83919671D01*
X78921393Y-83903607D01*
X78905329Y-83885883D01*
X78891079Y-83866670D01*
X78878782Y-83846153D01*
X78868554Y-83824529D01*
X78860496Y-83802007D01*
X78854684Y-83778803D01*
X78851174Y-83755142D01*
X78850000Y-83731250D01*
X78850000Y-82818750D01*
X78851174Y-82794858D01*
X78854684Y-82771197D01*
X78860496Y-82747993D01*
X78868554Y-82725471D01*
X78878782Y-82703847D01*
X78891079Y-82683330D01*
X78905329Y-82664117D01*
X78921393Y-82646393D01*
X78939117Y-82630329D01*
X78958330Y-82616079D01*
X78978847Y-82603782D01*
X79000471Y-82593554D01*
X79022993Y-82585496D01*
X79046197Y-82579684D01*
X79069858Y-82576174D01*
X79093750Y-82575000D01*
X79581250Y-82575000D01*
X79605142Y-82576174D01*
X79605142Y-82576174D01*
G37*
D16*
X79337500Y-83275000D03*
D15*
G36*
X77730142Y-82576174D02*
G01*
X77753803Y-82579684D01*
X77777007Y-82585496D01*
X77799529Y-82593554D01*
X77821153Y-82603782D01*
X77841670Y-82616079D01*
X77860883Y-82630329D01*
X77878607Y-82646393D01*
X77894671Y-82664117D01*
X77908921Y-82683330D01*
X77921218Y-82703847D01*
X77931446Y-82725471D01*
X77939504Y-82747993D01*
X77945316Y-82771197D01*
X77948826Y-82794858D01*
X77950000Y-82818750D01*
X77950000Y-83731250D01*
X77948826Y-83755142D01*
X77945316Y-83778803D01*
X77939504Y-83802007D01*
X77931446Y-83824529D01*
X77921218Y-83846153D01*
X77908921Y-83866670D01*
X77894671Y-83885883D01*
X77878607Y-83903607D01*
X77860883Y-83919671D01*
X77841670Y-83933921D01*
X77821153Y-83946218D01*
X77799529Y-83956446D01*
X77777007Y-83964504D01*
X77753803Y-83970316D01*
X77730142Y-83973826D01*
X77706250Y-83975000D01*
X77218750Y-83975000D01*
X77194858Y-83973826D01*
X77171197Y-83970316D01*
X77147993Y-83964504D01*
X77125471Y-83956446D01*
X77103847Y-83946218D01*
X77083330Y-83933921D01*
X77064117Y-83919671D01*
X77046393Y-83903607D01*
X77030329Y-83885883D01*
X77016079Y-83866670D01*
X77003782Y-83846153D01*
X76993554Y-83824529D01*
X76985496Y-83802007D01*
X76979684Y-83778803D01*
X76976174Y-83755142D01*
X76975000Y-83731250D01*
X76975000Y-82818750D01*
X76976174Y-82794858D01*
X76979684Y-82771197D01*
X76985496Y-82747993D01*
X76993554Y-82725471D01*
X77003782Y-82703847D01*
X77016079Y-82683330D01*
X77030329Y-82664117D01*
X77046393Y-82646393D01*
X77064117Y-82630329D01*
X77083330Y-82616079D01*
X77103847Y-82603782D01*
X77125471Y-82593554D01*
X77147993Y-82585496D01*
X77171197Y-82579684D01*
X77194858Y-82576174D01*
X77218750Y-82575000D01*
X77706250Y-82575000D01*
X77730142Y-82576174D01*
X77730142Y-82576174D01*
G37*
D16*
X77462500Y-83275000D03*
D15*
G36*
X79605142Y-76876174D02*
G01*
X79628803Y-76879684D01*
X79652007Y-76885496D01*
X79674529Y-76893554D01*
X79696153Y-76903782D01*
X79716670Y-76916079D01*
X79735883Y-76930329D01*
X79753607Y-76946393D01*
X79769671Y-76964117D01*
X79783921Y-76983330D01*
X79796218Y-77003847D01*
X79806446Y-77025471D01*
X79814504Y-77047993D01*
X79820316Y-77071197D01*
X79823826Y-77094858D01*
X79825000Y-77118750D01*
X79825000Y-78031250D01*
X79823826Y-78055142D01*
X79820316Y-78078803D01*
X79814504Y-78102007D01*
X79806446Y-78124529D01*
X79796218Y-78146153D01*
X79783921Y-78166670D01*
X79769671Y-78185883D01*
X79753607Y-78203607D01*
X79735883Y-78219671D01*
X79716670Y-78233921D01*
X79696153Y-78246218D01*
X79674529Y-78256446D01*
X79652007Y-78264504D01*
X79628803Y-78270316D01*
X79605142Y-78273826D01*
X79581250Y-78275000D01*
X79093750Y-78275000D01*
X79069858Y-78273826D01*
X79046197Y-78270316D01*
X79022993Y-78264504D01*
X79000471Y-78256446D01*
X78978847Y-78246218D01*
X78958330Y-78233921D01*
X78939117Y-78219671D01*
X78921393Y-78203607D01*
X78905329Y-78185883D01*
X78891079Y-78166670D01*
X78878782Y-78146153D01*
X78868554Y-78124529D01*
X78860496Y-78102007D01*
X78854684Y-78078803D01*
X78851174Y-78055142D01*
X78850000Y-78031250D01*
X78850000Y-77118750D01*
X78851174Y-77094858D01*
X78854684Y-77071197D01*
X78860496Y-77047993D01*
X78868554Y-77025471D01*
X78878782Y-77003847D01*
X78891079Y-76983330D01*
X78905329Y-76964117D01*
X78921393Y-76946393D01*
X78939117Y-76930329D01*
X78958330Y-76916079D01*
X78978847Y-76903782D01*
X79000471Y-76893554D01*
X79022993Y-76885496D01*
X79046197Y-76879684D01*
X79069858Y-76876174D01*
X79093750Y-76875000D01*
X79581250Y-76875000D01*
X79605142Y-76876174D01*
X79605142Y-76876174D01*
G37*
D16*
X79337500Y-77575000D03*
D15*
G36*
X77730142Y-76876174D02*
G01*
X77753803Y-76879684D01*
X77777007Y-76885496D01*
X77799529Y-76893554D01*
X77821153Y-76903782D01*
X77841670Y-76916079D01*
X77860883Y-76930329D01*
X77878607Y-76946393D01*
X77894671Y-76964117D01*
X77908921Y-76983330D01*
X77921218Y-77003847D01*
X77931446Y-77025471D01*
X77939504Y-77047993D01*
X77945316Y-77071197D01*
X77948826Y-77094858D01*
X77950000Y-77118750D01*
X77950000Y-78031250D01*
X77948826Y-78055142D01*
X77945316Y-78078803D01*
X77939504Y-78102007D01*
X77931446Y-78124529D01*
X77921218Y-78146153D01*
X77908921Y-78166670D01*
X77894671Y-78185883D01*
X77878607Y-78203607D01*
X77860883Y-78219671D01*
X77841670Y-78233921D01*
X77821153Y-78246218D01*
X77799529Y-78256446D01*
X77777007Y-78264504D01*
X77753803Y-78270316D01*
X77730142Y-78273826D01*
X77706250Y-78275000D01*
X77218750Y-78275000D01*
X77194858Y-78273826D01*
X77171197Y-78270316D01*
X77147993Y-78264504D01*
X77125471Y-78256446D01*
X77103847Y-78246218D01*
X77083330Y-78233921D01*
X77064117Y-78219671D01*
X77046393Y-78203607D01*
X77030329Y-78185883D01*
X77016079Y-78166670D01*
X77003782Y-78146153D01*
X76993554Y-78124529D01*
X76985496Y-78102007D01*
X76979684Y-78078803D01*
X76976174Y-78055142D01*
X76975000Y-78031250D01*
X76975000Y-77118750D01*
X76976174Y-77094858D01*
X76979684Y-77071197D01*
X76985496Y-77047993D01*
X76993554Y-77025471D01*
X77003782Y-77003847D01*
X77016079Y-76983330D01*
X77030329Y-76964117D01*
X77046393Y-76946393D01*
X77064117Y-76930329D01*
X77083330Y-76916079D01*
X77103847Y-76903782D01*
X77125471Y-76893554D01*
X77147993Y-76885496D01*
X77171197Y-76879684D01*
X77194858Y-76876174D01*
X77218750Y-76875000D01*
X77706250Y-76875000D01*
X77730142Y-76876174D01*
X77730142Y-76876174D01*
G37*
D16*
X77462500Y-77575000D03*
D15*
G36*
X79605142Y-84476174D02*
G01*
X79628803Y-84479684D01*
X79652007Y-84485496D01*
X79674529Y-84493554D01*
X79696153Y-84503782D01*
X79716670Y-84516079D01*
X79735883Y-84530329D01*
X79753607Y-84546393D01*
X79769671Y-84564117D01*
X79783921Y-84583330D01*
X79796218Y-84603847D01*
X79806446Y-84625471D01*
X79814504Y-84647993D01*
X79820316Y-84671197D01*
X79823826Y-84694858D01*
X79825000Y-84718750D01*
X79825000Y-85631250D01*
X79823826Y-85655142D01*
X79820316Y-85678803D01*
X79814504Y-85702007D01*
X79806446Y-85724529D01*
X79796218Y-85746153D01*
X79783921Y-85766670D01*
X79769671Y-85785883D01*
X79753607Y-85803607D01*
X79735883Y-85819671D01*
X79716670Y-85833921D01*
X79696153Y-85846218D01*
X79674529Y-85856446D01*
X79652007Y-85864504D01*
X79628803Y-85870316D01*
X79605142Y-85873826D01*
X79581250Y-85875000D01*
X79093750Y-85875000D01*
X79069858Y-85873826D01*
X79046197Y-85870316D01*
X79022993Y-85864504D01*
X79000471Y-85856446D01*
X78978847Y-85846218D01*
X78958330Y-85833921D01*
X78939117Y-85819671D01*
X78921393Y-85803607D01*
X78905329Y-85785883D01*
X78891079Y-85766670D01*
X78878782Y-85746153D01*
X78868554Y-85724529D01*
X78860496Y-85702007D01*
X78854684Y-85678803D01*
X78851174Y-85655142D01*
X78850000Y-85631250D01*
X78850000Y-84718750D01*
X78851174Y-84694858D01*
X78854684Y-84671197D01*
X78860496Y-84647993D01*
X78868554Y-84625471D01*
X78878782Y-84603847D01*
X78891079Y-84583330D01*
X78905329Y-84564117D01*
X78921393Y-84546393D01*
X78939117Y-84530329D01*
X78958330Y-84516079D01*
X78978847Y-84503782D01*
X79000471Y-84493554D01*
X79022993Y-84485496D01*
X79046197Y-84479684D01*
X79069858Y-84476174D01*
X79093750Y-84475000D01*
X79581250Y-84475000D01*
X79605142Y-84476174D01*
X79605142Y-84476174D01*
G37*
D16*
X79337500Y-85175000D03*
D15*
G36*
X77730142Y-84476174D02*
G01*
X77753803Y-84479684D01*
X77777007Y-84485496D01*
X77799529Y-84493554D01*
X77821153Y-84503782D01*
X77841670Y-84516079D01*
X77860883Y-84530329D01*
X77878607Y-84546393D01*
X77894671Y-84564117D01*
X77908921Y-84583330D01*
X77921218Y-84603847D01*
X77931446Y-84625471D01*
X77939504Y-84647993D01*
X77945316Y-84671197D01*
X77948826Y-84694858D01*
X77950000Y-84718750D01*
X77950000Y-85631250D01*
X77948826Y-85655142D01*
X77945316Y-85678803D01*
X77939504Y-85702007D01*
X77931446Y-85724529D01*
X77921218Y-85746153D01*
X77908921Y-85766670D01*
X77894671Y-85785883D01*
X77878607Y-85803607D01*
X77860883Y-85819671D01*
X77841670Y-85833921D01*
X77821153Y-85846218D01*
X77799529Y-85856446D01*
X77777007Y-85864504D01*
X77753803Y-85870316D01*
X77730142Y-85873826D01*
X77706250Y-85875000D01*
X77218750Y-85875000D01*
X77194858Y-85873826D01*
X77171197Y-85870316D01*
X77147993Y-85864504D01*
X77125471Y-85856446D01*
X77103847Y-85846218D01*
X77083330Y-85833921D01*
X77064117Y-85819671D01*
X77046393Y-85803607D01*
X77030329Y-85785883D01*
X77016079Y-85766670D01*
X77003782Y-85746153D01*
X76993554Y-85724529D01*
X76985496Y-85702007D01*
X76979684Y-85678803D01*
X76976174Y-85655142D01*
X76975000Y-85631250D01*
X76975000Y-84718750D01*
X76976174Y-84694858D01*
X76979684Y-84671197D01*
X76985496Y-84647993D01*
X76993554Y-84625471D01*
X77003782Y-84603847D01*
X77016079Y-84583330D01*
X77030329Y-84564117D01*
X77046393Y-84546393D01*
X77064117Y-84530329D01*
X77083330Y-84516079D01*
X77103847Y-84503782D01*
X77125471Y-84493554D01*
X77147993Y-84485496D01*
X77171197Y-84479684D01*
X77194858Y-84476174D01*
X77218750Y-84475000D01*
X77706250Y-84475000D01*
X77730142Y-84476174D01*
X77730142Y-84476174D01*
G37*
D16*
X77462500Y-85175000D03*
D15*
G36*
X79605142Y-90176174D02*
G01*
X79628803Y-90179684D01*
X79652007Y-90185496D01*
X79674529Y-90193554D01*
X79696153Y-90203782D01*
X79716670Y-90216079D01*
X79735883Y-90230329D01*
X79753607Y-90246393D01*
X79769671Y-90264117D01*
X79783921Y-90283330D01*
X79796218Y-90303847D01*
X79806446Y-90325471D01*
X79814504Y-90347993D01*
X79820316Y-90371197D01*
X79823826Y-90394858D01*
X79825000Y-90418750D01*
X79825000Y-91331250D01*
X79823826Y-91355142D01*
X79820316Y-91378803D01*
X79814504Y-91402007D01*
X79806446Y-91424529D01*
X79796218Y-91446153D01*
X79783921Y-91466670D01*
X79769671Y-91485883D01*
X79753607Y-91503607D01*
X79735883Y-91519671D01*
X79716670Y-91533921D01*
X79696153Y-91546218D01*
X79674529Y-91556446D01*
X79652007Y-91564504D01*
X79628803Y-91570316D01*
X79605142Y-91573826D01*
X79581250Y-91575000D01*
X79093750Y-91575000D01*
X79069858Y-91573826D01*
X79046197Y-91570316D01*
X79022993Y-91564504D01*
X79000471Y-91556446D01*
X78978847Y-91546218D01*
X78958330Y-91533921D01*
X78939117Y-91519671D01*
X78921393Y-91503607D01*
X78905329Y-91485883D01*
X78891079Y-91466670D01*
X78878782Y-91446153D01*
X78868554Y-91424529D01*
X78860496Y-91402007D01*
X78854684Y-91378803D01*
X78851174Y-91355142D01*
X78850000Y-91331250D01*
X78850000Y-90418750D01*
X78851174Y-90394858D01*
X78854684Y-90371197D01*
X78860496Y-90347993D01*
X78868554Y-90325471D01*
X78878782Y-90303847D01*
X78891079Y-90283330D01*
X78905329Y-90264117D01*
X78921393Y-90246393D01*
X78939117Y-90230329D01*
X78958330Y-90216079D01*
X78978847Y-90203782D01*
X79000471Y-90193554D01*
X79022993Y-90185496D01*
X79046197Y-90179684D01*
X79069858Y-90176174D01*
X79093750Y-90175000D01*
X79581250Y-90175000D01*
X79605142Y-90176174D01*
X79605142Y-90176174D01*
G37*
D16*
X79337500Y-90875000D03*
D15*
G36*
X77730142Y-90176174D02*
G01*
X77753803Y-90179684D01*
X77777007Y-90185496D01*
X77799529Y-90193554D01*
X77821153Y-90203782D01*
X77841670Y-90216079D01*
X77860883Y-90230329D01*
X77878607Y-90246393D01*
X77894671Y-90264117D01*
X77908921Y-90283330D01*
X77921218Y-90303847D01*
X77931446Y-90325471D01*
X77939504Y-90347993D01*
X77945316Y-90371197D01*
X77948826Y-90394858D01*
X77950000Y-90418750D01*
X77950000Y-91331250D01*
X77948826Y-91355142D01*
X77945316Y-91378803D01*
X77939504Y-91402007D01*
X77931446Y-91424529D01*
X77921218Y-91446153D01*
X77908921Y-91466670D01*
X77894671Y-91485883D01*
X77878607Y-91503607D01*
X77860883Y-91519671D01*
X77841670Y-91533921D01*
X77821153Y-91546218D01*
X77799529Y-91556446D01*
X77777007Y-91564504D01*
X77753803Y-91570316D01*
X77730142Y-91573826D01*
X77706250Y-91575000D01*
X77218750Y-91575000D01*
X77194858Y-91573826D01*
X77171197Y-91570316D01*
X77147993Y-91564504D01*
X77125471Y-91556446D01*
X77103847Y-91546218D01*
X77083330Y-91533921D01*
X77064117Y-91519671D01*
X77046393Y-91503607D01*
X77030329Y-91485883D01*
X77016079Y-91466670D01*
X77003782Y-91446153D01*
X76993554Y-91424529D01*
X76985496Y-91402007D01*
X76979684Y-91378803D01*
X76976174Y-91355142D01*
X76975000Y-91331250D01*
X76975000Y-90418750D01*
X76976174Y-90394858D01*
X76979684Y-90371197D01*
X76985496Y-90347993D01*
X76993554Y-90325471D01*
X77003782Y-90303847D01*
X77016079Y-90283330D01*
X77030329Y-90264117D01*
X77046393Y-90246393D01*
X77064117Y-90230329D01*
X77083330Y-90216079D01*
X77103847Y-90203782D01*
X77125471Y-90193554D01*
X77147993Y-90185496D01*
X77171197Y-90179684D01*
X77194858Y-90176174D01*
X77218750Y-90175000D01*
X77706250Y-90175000D01*
X77730142Y-90176174D01*
X77730142Y-90176174D01*
G37*
D16*
X77462500Y-90875000D03*
D15*
G36*
X53230142Y-82951174D02*
G01*
X53253803Y-82954684D01*
X53277007Y-82960496D01*
X53299529Y-82968554D01*
X53321153Y-82978782D01*
X53341670Y-82991079D01*
X53360883Y-83005329D01*
X53378607Y-83021393D01*
X53394671Y-83039117D01*
X53408921Y-83058330D01*
X53421218Y-83078847D01*
X53431446Y-83100471D01*
X53439504Y-83122993D01*
X53445316Y-83146197D01*
X53448826Y-83169858D01*
X53450000Y-83193750D01*
X53450000Y-83681250D01*
X53448826Y-83705142D01*
X53445316Y-83728803D01*
X53439504Y-83752007D01*
X53431446Y-83774529D01*
X53421218Y-83796153D01*
X53408921Y-83816670D01*
X53394671Y-83835883D01*
X53378607Y-83853607D01*
X53360883Y-83869671D01*
X53341670Y-83883921D01*
X53321153Y-83896218D01*
X53299529Y-83906446D01*
X53277007Y-83914504D01*
X53253803Y-83920316D01*
X53230142Y-83923826D01*
X53206250Y-83925000D01*
X52293750Y-83925000D01*
X52269858Y-83923826D01*
X52246197Y-83920316D01*
X52222993Y-83914504D01*
X52200471Y-83906446D01*
X52178847Y-83896218D01*
X52158330Y-83883921D01*
X52139117Y-83869671D01*
X52121393Y-83853607D01*
X52105329Y-83835883D01*
X52091079Y-83816670D01*
X52078782Y-83796153D01*
X52068554Y-83774529D01*
X52060496Y-83752007D01*
X52054684Y-83728803D01*
X52051174Y-83705142D01*
X52050000Y-83681250D01*
X52050000Y-83193750D01*
X52051174Y-83169858D01*
X52054684Y-83146197D01*
X52060496Y-83122993D01*
X52068554Y-83100471D01*
X52078782Y-83078847D01*
X52091079Y-83058330D01*
X52105329Y-83039117D01*
X52121393Y-83021393D01*
X52139117Y-83005329D01*
X52158330Y-82991079D01*
X52178847Y-82978782D01*
X52200471Y-82968554D01*
X52222993Y-82960496D01*
X52246197Y-82954684D01*
X52269858Y-82951174D01*
X52293750Y-82950000D01*
X53206250Y-82950000D01*
X53230142Y-82951174D01*
X53230142Y-82951174D01*
G37*
D16*
X52750000Y-83437500D03*
D15*
G36*
X53230142Y-81076174D02*
G01*
X53253803Y-81079684D01*
X53277007Y-81085496D01*
X53299529Y-81093554D01*
X53321153Y-81103782D01*
X53341670Y-81116079D01*
X53360883Y-81130329D01*
X53378607Y-81146393D01*
X53394671Y-81164117D01*
X53408921Y-81183330D01*
X53421218Y-81203847D01*
X53431446Y-81225471D01*
X53439504Y-81247993D01*
X53445316Y-81271197D01*
X53448826Y-81294858D01*
X53450000Y-81318750D01*
X53450000Y-81806250D01*
X53448826Y-81830142D01*
X53445316Y-81853803D01*
X53439504Y-81877007D01*
X53431446Y-81899529D01*
X53421218Y-81921153D01*
X53408921Y-81941670D01*
X53394671Y-81960883D01*
X53378607Y-81978607D01*
X53360883Y-81994671D01*
X53341670Y-82008921D01*
X53321153Y-82021218D01*
X53299529Y-82031446D01*
X53277007Y-82039504D01*
X53253803Y-82045316D01*
X53230142Y-82048826D01*
X53206250Y-82050000D01*
X52293750Y-82050000D01*
X52269858Y-82048826D01*
X52246197Y-82045316D01*
X52222993Y-82039504D01*
X52200471Y-82031446D01*
X52178847Y-82021218D01*
X52158330Y-82008921D01*
X52139117Y-81994671D01*
X52121393Y-81978607D01*
X52105329Y-81960883D01*
X52091079Y-81941670D01*
X52078782Y-81921153D01*
X52068554Y-81899529D01*
X52060496Y-81877007D01*
X52054684Y-81853803D01*
X52051174Y-81830142D01*
X52050000Y-81806250D01*
X52050000Y-81318750D01*
X52051174Y-81294858D01*
X52054684Y-81271197D01*
X52060496Y-81247993D01*
X52068554Y-81225471D01*
X52078782Y-81203847D01*
X52091079Y-81183330D01*
X52105329Y-81164117D01*
X52121393Y-81146393D01*
X52139117Y-81130329D01*
X52158330Y-81116079D01*
X52178847Y-81103782D01*
X52200471Y-81093554D01*
X52222993Y-81085496D01*
X52246197Y-81079684D01*
X52269858Y-81076174D01*
X52293750Y-81075000D01*
X53206250Y-81075000D01*
X53230142Y-81076174D01*
X53230142Y-81076174D01*
G37*
D16*
X52750000Y-81562500D03*
D15*
G36*
X53230142Y-87826174D02*
G01*
X53253803Y-87829684D01*
X53277007Y-87835496D01*
X53299529Y-87843554D01*
X53321153Y-87853782D01*
X53341670Y-87866079D01*
X53360883Y-87880329D01*
X53378607Y-87896393D01*
X53394671Y-87914117D01*
X53408921Y-87933330D01*
X53421218Y-87953847D01*
X53431446Y-87975471D01*
X53439504Y-87997993D01*
X53445316Y-88021197D01*
X53448826Y-88044858D01*
X53450000Y-88068750D01*
X53450000Y-88556250D01*
X53448826Y-88580142D01*
X53445316Y-88603803D01*
X53439504Y-88627007D01*
X53431446Y-88649529D01*
X53421218Y-88671153D01*
X53408921Y-88691670D01*
X53394671Y-88710883D01*
X53378607Y-88728607D01*
X53360883Y-88744671D01*
X53341670Y-88758921D01*
X53321153Y-88771218D01*
X53299529Y-88781446D01*
X53277007Y-88789504D01*
X53253803Y-88795316D01*
X53230142Y-88798826D01*
X53206250Y-88800000D01*
X52293750Y-88800000D01*
X52269858Y-88798826D01*
X52246197Y-88795316D01*
X52222993Y-88789504D01*
X52200471Y-88781446D01*
X52178847Y-88771218D01*
X52158330Y-88758921D01*
X52139117Y-88744671D01*
X52121393Y-88728607D01*
X52105329Y-88710883D01*
X52091079Y-88691670D01*
X52078782Y-88671153D01*
X52068554Y-88649529D01*
X52060496Y-88627007D01*
X52054684Y-88603803D01*
X52051174Y-88580142D01*
X52050000Y-88556250D01*
X52050000Y-88068750D01*
X52051174Y-88044858D01*
X52054684Y-88021197D01*
X52060496Y-87997993D01*
X52068554Y-87975471D01*
X52078782Y-87953847D01*
X52091079Y-87933330D01*
X52105329Y-87914117D01*
X52121393Y-87896393D01*
X52139117Y-87880329D01*
X52158330Y-87866079D01*
X52178847Y-87853782D01*
X52200471Y-87843554D01*
X52222993Y-87835496D01*
X52246197Y-87829684D01*
X52269858Y-87826174D01*
X52293750Y-87825000D01*
X53206250Y-87825000D01*
X53230142Y-87826174D01*
X53230142Y-87826174D01*
G37*
D16*
X52750000Y-88312500D03*
D15*
G36*
X53230142Y-89701174D02*
G01*
X53253803Y-89704684D01*
X53277007Y-89710496D01*
X53299529Y-89718554D01*
X53321153Y-89728782D01*
X53341670Y-89741079D01*
X53360883Y-89755329D01*
X53378607Y-89771393D01*
X53394671Y-89789117D01*
X53408921Y-89808330D01*
X53421218Y-89828847D01*
X53431446Y-89850471D01*
X53439504Y-89872993D01*
X53445316Y-89896197D01*
X53448826Y-89919858D01*
X53450000Y-89943750D01*
X53450000Y-90431250D01*
X53448826Y-90455142D01*
X53445316Y-90478803D01*
X53439504Y-90502007D01*
X53431446Y-90524529D01*
X53421218Y-90546153D01*
X53408921Y-90566670D01*
X53394671Y-90585883D01*
X53378607Y-90603607D01*
X53360883Y-90619671D01*
X53341670Y-90633921D01*
X53321153Y-90646218D01*
X53299529Y-90656446D01*
X53277007Y-90664504D01*
X53253803Y-90670316D01*
X53230142Y-90673826D01*
X53206250Y-90675000D01*
X52293750Y-90675000D01*
X52269858Y-90673826D01*
X52246197Y-90670316D01*
X52222993Y-90664504D01*
X52200471Y-90656446D01*
X52178847Y-90646218D01*
X52158330Y-90633921D01*
X52139117Y-90619671D01*
X52121393Y-90603607D01*
X52105329Y-90585883D01*
X52091079Y-90566670D01*
X52078782Y-90546153D01*
X52068554Y-90524529D01*
X52060496Y-90502007D01*
X52054684Y-90478803D01*
X52051174Y-90455142D01*
X52050000Y-90431250D01*
X52050000Y-89943750D01*
X52051174Y-89919858D01*
X52054684Y-89896197D01*
X52060496Y-89872993D01*
X52068554Y-89850471D01*
X52078782Y-89828847D01*
X52091079Y-89808330D01*
X52105329Y-89789117D01*
X52121393Y-89771393D01*
X52139117Y-89755329D01*
X52158330Y-89741079D01*
X52178847Y-89728782D01*
X52200471Y-89718554D01*
X52222993Y-89710496D01*
X52246197Y-89704684D01*
X52269858Y-89701174D01*
X52293750Y-89700000D01*
X53206250Y-89700000D01*
X53230142Y-89701174D01*
X53230142Y-89701174D01*
G37*
D16*
X52750000Y-90187500D03*
D15*
G36*
X79605142Y-72876174D02*
G01*
X79628803Y-72879684D01*
X79652007Y-72885496D01*
X79674529Y-72893554D01*
X79696153Y-72903782D01*
X79716670Y-72916079D01*
X79735883Y-72930329D01*
X79753607Y-72946393D01*
X79769671Y-72964117D01*
X79783921Y-72983330D01*
X79796218Y-73003847D01*
X79806446Y-73025471D01*
X79814504Y-73047993D01*
X79820316Y-73071197D01*
X79823826Y-73094858D01*
X79825000Y-73118750D01*
X79825000Y-74031250D01*
X79823826Y-74055142D01*
X79820316Y-74078803D01*
X79814504Y-74102007D01*
X79806446Y-74124529D01*
X79796218Y-74146153D01*
X79783921Y-74166670D01*
X79769671Y-74185883D01*
X79753607Y-74203607D01*
X79735883Y-74219671D01*
X79716670Y-74233921D01*
X79696153Y-74246218D01*
X79674529Y-74256446D01*
X79652007Y-74264504D01*
X79628803Y-74270316D01*
X79605142Y-74273826D01*
X79581250Y-74275000D01*
X79093750Y-74275000D01*
X79069858Y-74273826D01*
X79046197Y-74270316D01*
X79022993Y-74264504D01*
X79000471Y-74256446D01*
X78978847Y-74246218D01*
X78958330Y-74233921D01*
X78939117Y-74219671D01*
X78921393Y-74203607D01*
X78905329Y-74185883D01*
X78891079Y-74166670D01*
X78878782Y-74146153D01*
X78868554Y-74124529D01*
X78860496Y-74102007D01*
X78854684Y-74078803D01*
X78851174Y-74055142D01*
X78850000Y-74031250D01*
X78850000Y-73118750D01*
X78851174Y-73094858D01*
X78854684Y-73071197D01*
X78860496Y-73047993D01*
X78868554Y-73025471D01*
X78878782Y-73003847D01*
X78891079Y-72983330D01*
X78905329Y-72964117D01*
X78921393Y-72946393D01*
X78939117Y-72930329D01*
X78958330Y-72916079D01*
X78978847Y-72903782D01*
X79000471Y-72893554D01*
X79022993Y-72885496D01*
X79046197Y-72879684D01*
X79069858Y-72876174D01*
X79093750Y-72875000D01*
X79581250Y-72875000D01*
X79605142Y-72876174D01*
X79605142Y-72876174D01*
G37*
D16*
X79337500Y-73575000D03*
D15*
G36*
X77730142Y-72876174D02*
G01*
X77753803Y-72879684D01*
X77777007Y-72885496D01*
X77799529Y-72893554D01*
X77821153Y-72903782D01*
X77841670Y-72916079D01*
X77860883Y-72930329D01*
X77878607Y-72946393D01*
X77894671Y-72964117D01*
X77908921Y-72983330D01*
X77921218Y-73003847D01*
X77931446Y-73025471D01*
X77939504Y-73047993D01*
X77945316Y-73071197D01*
X77948826Y-73094858D01*
X77950000Y-73118750D01*
X77950000Y-74031250D01*
X77948826Y-74055142D01*
X77945316Y-74078803D01*
X77939504Y-74102007D01*
X77931446Y-74124529D01*
X77921218Y-74146153D01*
X77908921Y-74166670D01*
X77894671Y-74185883D01*
X77878607Y-74203607D01*
X77860883Y-74219671D01*
X77841670Y-74233921D01*
X77821153Y-74246218D01*
X77799529Y-74256446D01*
X77777007Y-74264504D01*
X77753803Y-74270316D01*
X77730142Y-74273826D01*
X77706250Y-74275000D01*
X77218750Y-74275000D01*
X77194858Y-74273826D01*
X77171197Y-74270316D01*
X77147993Y-74264504D01*
X77125471Y-74256446D01*
X77103847Y-74246218D01*
X77083330Y-74233921D01*
X77064117Y-74219671D01*
X77046393Y-74203607D01*
X77030329Y-74185883D01*
X77016079Y-74166670D01*
X77003782Y-74146153D01*
X76993554Y-74124529D01*
X76985496Y-74102007D01*
X76979684Y-74078803D01*
X76976174Y-74055142D01*
X76975000Y-74031250D01*
X76975000Y-73118750D01*
X76976174Y-73094858D01*
X76979684Y-73071197D01*
X76985496Y-73047993D01*
X76993554Y-73025471D01*
X77003782Y-73003847D01*
X77016079Y-72983330D01*
X77030329Y-72964117D01*
X77046393Y-72946393D01*
X77064117Y-72930329D01*
X77083330Y-72916079D01*
X77103847Y-72903782D01*
X77125471Y-72893554D01*
X77147993Y-72885496D01*
X77171197Y-72879684D01*
X77194858Y-72876174D01*
X77218750Y-72875000D01*
X77706250Y-72875000D01*
X77730142Y-72876174D01*
X77730142Y-72876174D01*
G37*
D16*
X77462500Y-73575000D03*
D15*
G36*
X65024504Y-72001204D02*
G01*
X65048773Y-72004804D01*
X65072571Y-72010765D01*
X65095671Y-72019030D01*
X65117849Y-72029520D01*
X65138893Y-72042133D01*
X65158598Y-72056747D01*
X65176777Y-72073223D01*
X65193253Y-72091402D01*
X65207867Y-72111107D01*
X65220480Y-72132151D01*
X65230970Y-72154329D01*
X65239235Y-72177429D01*
X65245196Y-72201227D01*
X65248796Y-72225496D01*
X65250000Y-72250000D01*
X65250000Y-73350000D01*
X65248796Y-73374504D01*
X65245196Y-73398773D01*
X65239235Y-73422571D01*
X65230970Y-73445671D01*
X65220480Y-73467849D01*
X65207867Y-73488893D01*
X65193253Y-73508598D01*
X65176777Y-73526777D01*
X65158598Y-73543253D01*
X65138893Y-73557867D01*
X65117849Y-73570480D01*
X65095671Y-73580970D01*
X65072571Y-73589235D01*
X65048773Y-73595196D01*
X65024504Y-73598796D01*
X65000000Y-73600000D01*
X62900000Y-73600000D01*
X62875496Y-73598796D01*
X62851227Y-73595196D01*
X62827429Y-73589235D01*
X62804329Y-73580970D01*
X62782151Y-73570480D01*
X62761107Y-73557867D01*
X62741402Y-73543253D01*
X62723223Y-73526777D01*
X62706747Y-73508598D01*
X62692133Y-73488893D01*
X62679520Y-73467849D01*
X62669030Y-73445671D01*
X62660765Y-73422571D01*
X62654804Y-73398773D01*
X62651204Y-73374504D01*
X62650000Y-73350000D01*
X62650000Y-72250000D01*
X62651204Y-72225496D01*
X62654804Y-72201227D01*
X62660765Y-72177429D01*
X62669030Y-72154329D01*
X62679520Y-72132151D01*
X62692133Y-72111107D01*
X62706747Y-72091402D01*
X62723223Y-72073223D01*
X62741402Y-72056747D01*
X62761107Y-72042133D01*
X62782151Y-72029520D01*
X62804329Y-72019030D01*
X62827429Y-72010765D01*
X62851227Y-72004804D01*
X62875496Y-72001204D01*
X62900000Y-72000000D01*
X65000000Y-72000000D01*
X65024504Y-72001204D01*
X65024504Y-72001204D01*
G37*
D17*
X63950000Y-72800000D03*
D15*
G36*
X68624504Y-72001204D02*
G01*
X68648773Y-72004804D01*
X68672571Y-72010765D01*
X68695671Y-72019030D01*
X68717849Y-72029520D01*
X68738893Y-72042133D01*
X68758598Y-72056747D01*
X68776777Y-72073223D01*
X68793253Y-72091402D01*
X68807867Y-72111107D01*
X68820480Y-72132151D01*
X68830970Y-72154329D01*
X68839235Y-72177429D01*
X68845196Y-72201227D01*
X68848796Y-72225496D01*
X68850000Y-72250000D01*
X68850000Y-73350000D01*
X68848796Y-73374504D01*
X68845196Y-73398773D01*
X68839235Y-73422571D01*
X68830970Y-73445671D01*
X68820480Y-73467849D01*
X68807867Y-73488893D01*
X68793253Y-73508598D01*
X68776777Y-73526777D01*
X68758598Y-73543253D01*
X68738893Y-73557867D01*
X68717849Y-73570480D01*
X68695671Y-73580970D01*
X68672571Y-73589235D01*
X68648773Y-73595196D01*
X68624504Y-73598796D01*
X68600000Y-73600000D01*
X66500000Y-73600000D01*
X66475496Y-73598796D01*
X66451227Y-73595196D01*
X66427429Y-73589235D01*
X66404329Y-73580970D01*
X66382151Y-73570480D01*
X66361107Y-73557867D01*
X66341402Y-73543253D01*
X66323223Y-73526777D01*
X66306747Y-73508598D01*
X66292133Y-73488893D01*
X66279520Y-73467849D01*
X66269030Y-73445671D01*
X66260765Y-73422571D01*
X66254804Y-73398773D01*
X66251204Y-73374504D01*
X66250000Y-73350000D01*
X66250000Y-72250000D01*
X66251204Y-72225496D01*
X66254804Y-72201227D01*
X66260765Y-72177429D01*
X66269030Y-72154329D01*
X66279520Y-72132151D01*
X66292133Y-72111107D01*
X66306747Y-72091402D01*
X66323223Y-72073223D01*
X66341402Y-72056747D01*
X66361107Y-72042133D01*
X66382151Y-72029520D01*
X66404329Y-72019030D01*
X66427429Y-72010765D01*
X66451227Y-72004804D01*
X66475496Y-72001204D01*
X66500000Y-72000000D01*
X68600000Y-72000000D01*
X68624504Y-72001204D01*
X68624504Y-72001204D01*
G37*
D17*
X67550000Y-72800000D03*
D15*
G36*
X74630142Y-73076174D02*
G01*
X74653803Y-73079684D01*
X74677007Y-73085496D01*
X74699529Y-73093554D01*
X74721153Y-73103782D01*
X74741670Y-73116079D01*
X74760883Y-73130329D01*
X74778607Y-73146393D01*
X74794671Y-73164117D01*
X74808921Y-73183330D01*
X74821218Y-73203847D01*
X74831446Y-73225471D01*
X74839504Y-73247993D01*
X74845316Y-73271197D01*
X74848826Y-73294858D01*
X74850000Y-73318750D01*
X74850000Y-74231250D01*
X74848826Y-74255142D01*
X74845316Y-74278803D01*
X74839504Y-74302007D01*
X74831446Y-74324529D01*
X74821218Y-74346153D01*
X74808921Y-74366670D01*
X74794671Y-74385883D01*
X74778607Y-74403607D01*
X74760883Y-74419671D01*
X74741670Y-74433921D01*
X74721153Y-74446218D01*
X74699529Y-74456446D01*
X74677007Y-74464504D01*
X74653803Y-74470316D01*
X74630142Y-74473826D01*
X74606250Y-74475000D01*
X74118750Y-74475000D01*
X74094858Y-74473826D01*
X74071197Y-74470316D01*
X74047993Y-74464504D01*
X74025471Y-74456446D01*
X74003847Y-74446218D01*
X73983330Y-74433921D01*
X73964117Y-74419671D01*
X73946393Y-74403607D01*
X73930329Y-74385883D01*
X73916079Y-74366670D01*
X73903782Y-74346153D01*
X73893554Y-74324529D01*
X73885496Y-74302007D01*
X73879684Y-74278803D01*
X73876174Y-74255142D01*
X73875000Y-74231250D01*
X73875000Y-73318750D01*
X73876174Y-73294858D01*
X73879684Y-73271197D01*
X73885496Y-73247993D01*
X73893554Y-73225471D01*
X73903782Y-73203847D01*
X73916079Y-73183330D01*
X73930329Y-73164117D01*
X73946393Y-73146393D01*
X73964117Y-73130329D01*
X73983330Y-73116079D01*
X74003847Y-73103782D01*
X74025471Y-73093554D01*
X74047993Y-73085496D01*
X74071197Y-73079684D01*
X74094858Y-73076174D01*
X74118750Y-73075000D01*
X74606250Y-73075000D01*
X74630142Y-73076174D01*
X74630142Y-73076174D01*
G37*
D16*
X74362500Y-73775000D03*
D15*
G36*
X72755142Y-73076174D02*
G01*
X72778803Y-73079684D01*
X72802007Y-73085496D01*
X72824529Y-73093554D01*
X72846153Y-73103782D01*
X72866670Y-73116079D01*
X72885883Y-73130329D01*
X72903607Y-73146393D01*
X72919671Y-73164117D01*
X72933921Y-73183330D01*
X72946218Y-73203847D01*
X72956446Y-73225471D01*
X72964504Y-73247993D01*
X72970316Y-73271197D01*
X72973826Y-73294858D01*
X72975000Y-73318750D01*
X72975000Y-74231250D01*
X72973826Y-74255142D01*
X72970316Y-74278803D01*
X72964504Y-74302007D01*
X72956446Y-74324529D01*
X72946218Y-74346153D01*
X72933921Y-74366670D01*
X72919671Y-74385883D01*
X72903607Y-74403607D01*
X72885883Y-74419671D01*
X72866670Y-74433921D01*
X72846153Y-74446218D01*
X72824529Y-74456446D01*
X72802007Y-74464504D01*
X72778803Y-74470316D01*
X72755142Y-74473826D01*
X72731250Y-74475000D01*
X72243750Y-74475000D01*
X72219858Y-74473826D01*
X72196197Y-74470316D01*
X72172993Y-74464504D01*
X72150471Y-74456446D01*
X72128847Y-74446218D01*
X72108330Y-74433921D01*
X72089117Y-74419671D01*
X72071393Y-74403607D01*
X72055329Y-74385883D01*
X72041079Y-74366670D01*
X72028782Y-74346153D01*
X72018554Y-74324529D01*
X72010496Y-74302007D01*
X72004684Y-74278803D01*
X72001174Y-74255142D01*
X72000000Y-74231250D01*
X72000000Y-73318750D01*
X72001174Y-73294858D01*
X72004684Y-73271197D01*
X72010496Y-73247993D01*
X72018554Y-73225471D01*
X72028782Y-73203847D01*
X72041079Y-73183330D01*
X72055329Y-73164117D01*
X72071393Y-73146393D01*
X72089117Y-73130329D01*
X72108330Y-73116079D01*
X72128847Y-73103782D01*
X72150471Y-73093554D01*
X72172993Y-73085496D01*
X72196197Y-73079684D01*
X72219858Y-73076174D01*
X72243750Y-73075000D01*
X72731250Y-73075000D01*
X72755142Y-73076174D01*
X72755142Y-73076174D01*
G37*
D16*
X72487500Y-73775000D03*
D15*
G36*
X79605142Y-78776174D02*
G01*
X79628803Y-78779684D01*
X79652007Y-78785496D01*
X79674529Y-78793554D01*
X79696153Y-78803782D01*
X79716670Y-78816079D01*
X79735883Y-78830329D01*
X79753607Y-78846393D01*
X79769671Y-78864117D01*
X79783921Y-78883330D01*
X79796218Y-78903847D01*
X79806446Y-78925471D01*
X79814504Y-78947993D01*
X79820316Y-78971197D01*
X79823826Y-78994858D01*
X79825000Y-79018750D01*
X79825000Y-79931250D01*
X79823826Y-79955142D01*
X79820316Y-79978803D01*
X79814504Y-80002007D01*
X79806446Y-80024529D01*
X79796218Y-80046153D01*
X79783921Y-80066670D01*
X79769671Y-80085883D01*
X79753607Y-80103607D01*
X79735883Y-80119671D01*
X79716670Y-80133921D01*
X79696153Y-80146218D01*
X79674529Y-80156446D01*
X79652007Y-80164504D01*
X79628803Y-80170316D01*
X79605142Y-80173826D01*
X79581250Y-80175000D01*
X79093750Y-80175000D01*
X79069858Y-80173826D01*
X79046197Y-80170316D01*
X79022993Y-80164504D01*
X79000471Y-80156446D01*
X78978847Y-80146218D01*
X78958330Y-80133921D01*
X78939117Y-80119671D01*
X78921393Y-80103607D01*
X78905329Y-80085883D01*
X78891079Y-80066670D01*
X78878782Y-80046153D01*
X78868554Y-80024529D01*
X78860496Y-80002007D01*
X78854684Y-79978803D01*
X78851174Y-79955142D01*
X78850000Y-79931250D01*
X78850000Y-79018750D01*
X78851174Y-78994858D01*
X78854684Y-78971197D01*
X78860496Y-78947993D01*
X78868554Y-78925471D01*
X78878782Y-78903847D01*
X78891079Y-78883330D01*
X78905329Y-78864117D01*
X78921393Y-78846393D01*
X78939117Y-78830329D01*
X78958330Y-78816079D01*
X78978847Y-78803782D01*
X79000471Y-78793554D01*
X79022993Y-78785496D01*
X79046197Y-78779684D01*
X79069858Y-78776174D01*
X79093750Y-78775000D01*
X79581250Y-78775000D01*
X79605142Y-78776174D01*
X79605142Y-78776174D01*
G37*
D16*
X79337500Y-79475000D03*
D15*
G36*
X77730142Y-78776174D02*
G01*
X77753803Y-78779684D01*
X77777007Y-78785496D01*
X77799529Y-78793554D01*
X77821153Y-78803782D01*
X77841670Y-78816079D01*
X77860883Y-78830329D01*
X77878607Y-78846393D01*
X77894671Y-78864117D01*
X77908921Y-78883330D01*
X77921218Y-78903847D01*
X77931446Y-78925471D01*
X77939504Y-78947993D01*
X77945316Y-78971197D01*
X77948826Y-78994858D01*
X77950000Y-79018750D01*
X77950000Y-79931250D01*
X77948826Y-79955142D01*
X77945316Y-79978803D01*
X77939504Y-80002007D01*
X77931446Y-80024529D01*
X77921218Y-80046153D01*
X77908921Y-80066670D01*
X77894671Y-80085883D01*
X77878607Y-80103607D01*
X77860883Y-80119671D01*
X77841670Y-80133921D01*
X77821153Y-80146218D01*
X77799529Y-80156446D01*
X77777007Y-80164504D01*
X77753803Y-80170316D01*
X77730142Y-80173826D01*
X77706250Y-80175000D01*
X77218750Y-80175000D01*
X77194858Y-80173826D01*
X77171197Y-80170316D01*
X77147993Y-80164504D01*
X77125471Y-80156446D01*
X77103847Y-80146218D01*
X77083330Y-80133921D01*
X77064117Y-80119671D01*
X77046393Y-80103607D01*
X77030329Y-80085883D01*
X77016079Y-80066670D01*
X77003782Y-80046153D01*
X76993554Y-80024529D01*
X76985496Y-80002007D01*
X76979684Y-79978803D01*
X76976174Y-79955142D01*
X76975000Y-79931250D01*
X76975000Y-79018750D01*
X76976174Y-78994858D01*
X76979684Y-78971197D01*
X76985496Y-78947993D01*
X76993554Y-78925471D01*
X77003782Y-78903847D01*
X77016079Y-78883330D01*
X77030329Y-78864117D01*
X77046393Y-78846393D01*
X77064117Y-78830329D01*
X77083330Y-78816079D01*
X77103847Y-78803782D01*
X77125471Y-78793554D01*
X77147993Y-78785496D01*
X77171197Y-78779684D01*
X77194858Y-78776174D01*
X77218750Y-78775000D01*
X77706250Y-78775000D01*
X77730142Y-78776174D01*
X77730142Y-78776174D01*
G37*
D16*
X77462500Y-79475000D03*
D15*
G36*
X98805142Y-79151174D02*
G01*
X98828803Y-79154684D01*
X98852007Y-79160496D01*
X98874529Y-79168554D01*
X98896153Y-79178782D01*
X98916670Y-79191079D01*
X98935883Y-79205329D01*
X98953607Y-79221393D01*
X98969671Y-79239117D01*
X98983921Y-79258330D01*
X98996218Y-79278847D01*
X99006446Y-79300471D01*
X99014504Y-79322993D01*
X99020316Y-79346197D01*
X99023826Y-79369858D01*
X99025000Y-79393750D01*
X99025000Y-79881250D01*
X99023826Y-79905142D01*
X99020316Y-79928803D01*
X99014504Y-79952007D01*
X99006446Y-79974529D01*
X98996218Y-79996153D01*
X98983921Y-80016670D01*
X98969671Y-80035883D01*
X98953607Y-80053607D01*
X98935883Y-80069671D01*
X98916670Y-80083921D01*
X98896153Y-80096218D01*
X98874529Y-80106446D01*
X98852007Y-80114504D01*
X98828803Y-80120316D01*
X98805142Y-80123826D01*
X98781250Y-80125000D01*
X97868750Y-80125000D01*
X97844858Y-80123826D01*
X97821197Y-80120316D01*
X97797993Y-80114504D01*
X97775471Y-80106446D01*
X97753847Y-80096218D01*
X97733330Y-80083921D01*
X97714117Y-80069671D01*
X97696393Y-80053607D01*
X97680329Y-80035883D01*
X97666079Y-80016670D01*
X97653782Y-79996153D01*
X97643554Y-79974529D01*
X97635496Y-79952007D01*
X97629684Y-79928803D01*
X97626174Y-79905142D01*
X97625000Y-79881250D01*
X97625000Y-79393750D01*
X97626174Y-79369858D01*
X97629684Y-79346197D01*
X97635496Y-79322993D01*
X97643554Y-79300471D01*
X97653782Y-79278847D01*
X97666079Y-79258330D01*
X97680329Y-79239117D01*
X97696393Y-79221393D01*
X97714117Y-79205329D01*
X97733330Y-79191079D01*
X97753847Y-79178782D01*
X97775471Y-79168554D01*
X97797993Y-79160496D01*
X97821197Y-79154684D01*
X97844858Y-79151174D01*
X97868750Y-79150000D01*
X98781250Y-79150000D01*
X98805142Y-79151174D01*
X98805142Y-79151174D01*
G37*
D16*
X98325000Y-79637500D03*
D15*
G36*
X98805142Y-77276174D02*
G01*
X98828803Y-77279684D01*
X98852007Y-77285496D01*
X98874529Y-77293554D01*
X98896153Y-77303782D01*
X98916670Y-77316079D01*
X98935883Y-77330329D01*
X98953607Y-77346393D01*
X98969671Y-77364117D01*
X98983921Y-77383330D01*
X98996218Y-77403847D01*
X99006446Y-77425471D01*
X99014504Y-77447993D01*
X99020316Y-77471197D01*
X99023826Y-77494858D01*
X99025000Y-77518750D01*
X99025000Y-78006250D01*
X99023826Y-78030142D01*
X99020316Y-78053803D01*
X99014504Y-78077007D01*
X99006446Y-78099529D01*
X98996218Y-78121153D01*
X98983921Y-78141670D01*
X98969671Y-78160883D01*
X98953607Y-78178607D01*
X98935883Y-78194671D01*
X98916670Y-78208921D01*
X98896153Y-78221218D01*
X98874529Y-78231446D01*
X98852007Y-78239504D01*
X98828803Y-78245316D01*
X98805142Y-78248826D01*
X98781250Y-78250000D01*
X97868750Y-78250000D01*
X97844858Y-78248826D01*
X97821197Y-78245316D01*
X97797993Y-78239504D01*
X97775471Y-78231446D01*
X97753847Y-78221218D01*
X97733330Y-78208921D01*
X97714117Y-78194671D01*
X97696393Y-78178607D01*
X97680329Y-78160883D01*
X97666079Y-78141670D01*
X97653782Y-78121153D01*
X97643554Y-78099529D01*
X97635496Y-78077007D01*
X97629684Y-78053803D01*
X97626174Y-78030142D01*
X97625000Y-78006250D01*
X97625000Y-77518750D01*
X97626174Y-77494858D01*
X97629684Y-77471197D01*
X97635496Y-77447993D01*
X97643554Y-77425471D01*
X97653782Y-77403847D01*
X97666079Y-77383330D01*
X97680329Y-77364117D01*
X97696393Y-77346393D01*
X97714117Y-77330329D01*
X97733330Y-77316079D01*
X97753847Y-77303782D01*
X97775471Y-77293554D01*
X97797993Y-77285496D01*
X97821197Y-77279684D01*
X97844858Y-77276174D01*
X97868750Y-77275000D01*
X98781250Y-77275000D01*
X98805142Y-77276174D01*
X98805142Y-77276174D01*
G37*
D16*
X98325000Y-77762500D03*
D12*
X126400000Y-81685000D03*
D13*
X120300000Y-85850000D03*
D14*
X132475000Y-78850000D03*
X114225000Y-78850000D03*
X132475000Y-79850000D03*
X114225000Y-79850000D03*
X132475000Y-80850000D03*
X114225000Y-80850000D03*
X132475000Y-81850000D03*
X114225000Y-81850000D03*
X132475000Y-82850000D03*
X114225000Y-82850000D03*
X132475000Y-83850000D03*
X114225000Y-83850000D03*
X132475000Y-84850000D03*
X114225000Y-84850000D03*
X132475000Y-85850000D03*
X114225000Y-85850000D03*
X132475000Y-86850000D03*
X114225000Y-86850000D03*
X132475000Y-87850000D03*
X114225000Y-87850000D03*
X132475000Y-88850000D03*
X114225000Y-88850000D03*
X132475000Y-89850000D03*
X114225000Y-89850000D03*
X132475000Y-90850000D03*
X114225000Y-90850000D03*
X132475000Y-91850000D03*
X114225000Y-91850000D03*
X132475000Y-92850000D03*
X114225000Y-92850000D03*
D12*
X126400000Y-90015000D03*
D18*
X96150000Y-77775000D03*
X96150000Y-78425000D03*
X96150000Y-79075000D03*
X96150000Y-79725000D03*
X91850000Y-79725000D03*
X91850000Y-79075000D03*
X91850000Y-78425000D03*
X91850000Y-77775000D03*
D15*
G36*
X135730142Y-86326174D02*
G01*
X135753803Y-86329684D01*
X135777007Y-86335496D01*
X135799529Y-86343554D01*
X135821153Y-86353782D01*
X135841670Y-86366079D01*
X135860883Y-86380329D01*
X135878607Y-86396393D01*
X135894671Y-86414117D01*
X135908921Y-86433330D01*
X135921218Y-86453847D01*
X135931446Y-86475471D01*
X135939504Y-86497993D01*
X135945316Y-86521197D01*
X135948826Y-86544858D01*
X135950000Y-86568750D01*
X135950000Y-87056250D01*
X135948826Y-87080142D01*
X135945316Y-87103803D01*
X135939504Y-87127007D01*
X135931446Y-87149529D01*
X135921218Y-87171153D01*
X135908921Y-87191670D01*
X135894671Y-87210883D01*
X135878607Y-87228607D01*
X135860883Y-87244671D01*
X135841670Y-87258921D01*
X135821153Y-87271218D01*
X135799529Y-87281446D01*
X135777007Y-87289504D01*
X135753803Y-87295316D01*
X135730142Y-87298826D01*
X135706250Y-87300000D01*
X134793750Y-87300000D01*
X134769858Y-87298826D01*
X134746197Y-87295316D01*
X134722993Y-87289504D01*
X134700471Y-87281446D01*
X134678847Y-87271218D01*
X134658330Y-87258921D01*
X134639117Y-87244671D01*
X134621393Y-87228607D01*
X134605329Y-87210883D01*
X134591079Y-87191670D01*
X134578782Y-87171153D01*
X134568554Y-87149529D01*
X134560496Y-87127007D01*
X134554684Y-87103803D01*
X134551174Y-87080142D01*
X134550000Y-87056250D01*
X134550000Y-86568750D01*
X134551174Y-86544858D01*
X134554684Y-86521197D01*
X134560496Y-86497993D01*
X134568554Y-86475471D01*
X134578782Y-86453847D01*
X134591079Y-86433330D01*
X134605329Y-86414117D01*
X134621393Y-86396393D01*
X134639117Y-86380329D01*
X134658330Y-86366079D01*
X134678847Y-86353782D01*
X134700471Y-86343554D01*
X134722993Y-86335496D01*
X134746197Y-86329684D01*
X134769858Y-86326174D01*
X134793750Y-86325000D01*
X135706250Y-86325000D01*
X135730142Y-86326174D01*
X135730142Y-86326174D01*
G37*
D16*
X135250000Y-86812500D03*
D15*
G36*
X135730142Y-84451174D02*
G01*
X135753803Y-84454684D01*
X135777007Y-84460496D01*
X135799529Y-84468554D01*
X135821153Y-84478782D01*
X135841670Y-84491079D01*
X135860883Y-84505329D01*
X135878607Y-84521393D01*
X135894671Y-84539117D01*
X135908921Y-84558330D01*
X135921218Y-84578847D01*
X135931446Y-84600471D01*
X135939504Y-84622993D01*
X135945316Y-84646197D01*
X135948826Y-84669858D01*
X135950000Y-84693750D01*
X135950000Y-85181250D01*
X135948826Y-85205142D01*
X135945316Y-85228803D01*
X135939504Y-85252007D01*
X135931446Y-85274529D01*
X135921218Y-85296153D01*
X135908921Y-85316670D01*
X135894671Y-85335883D01*
X135878607Y-85353607D01*
X135860883Y-85369671D01*
X135841670Y-85383921D01*
X135821153Y-85396218D01*
X135799529Y-85406446D01*
X135777007Y-85414504D01*
X135753803Y-85420316D01*
X135730142Y-85423826D01*
X135706250Y-85425000D01*
X134793750Y-85425000D01*
X134769858Y-85423826D01*
X134746197Y-85420316D01*
X134722993Y-85414504D01*
X134700471Y-85406446D01*
X134678847Y-85396218D01*
X134658330Y-85383921D01*
X134639117Y-85369671D01*
X134621393Y-85353607D01*
X134605329Y-85335883D01*
X134591079Y-85316670D01*
X134578782Y-85296153D01*
X134568554Y-85274529D01*
X134560496Y-85252007D01*
X134554684Y-85228803D01*
X134551174Y-85205142D01*
X134550000Y-85181250D01*
X134550000Y-84693750D01*
X134551174Y-84669858D01*
X134554684Y-84646197D01*
X134560496Y-84622993D01*
X134568554Y-84600471D01*
X134578782Y-84578847D01*
X134591079Y-84558330D01*
X134605329Y-84539117D01*
X134621393Y-84521393D01*
X134639117Y-84505329D01*
X134658330Y-84491079D01*
X134678847Y-84478782D01*
X134700471Y-84468554D01*
X134722993Y-84460496D01*
X134746197Y-84454684D01*
X134769858Y-84451174D01*
X134793750Y-84450000D01*
X135706250Y-84450000D01*
X135730142Y-84451174D01*
X135730142Y-84451174D01*
G37*
D16*
X135250000Y-84937500D03*
D15*
G36*
X108930142Y-82576174D02*
G01*
X108953803Y-82579684D01*
X108977007Y-82585496D01*
X108999529Y-82593554D01*
X109021153Y-82603782D01*
X109041670Y-82616079D01*
X109060883Y-82630329D01*
X109078607Y-82646393D01*
X109094671Y-82664117D01*
X109108921Y-82683330D01*
X109121218Y-82703847D01*
X109131446Y-82725471D01*
X109139504Y-82747993D01*
X109145316Y-82771197D01*
X109148826Y-82794858D01*
X109150000Y-82818750D01*
X109150000Y-83731250D01*
X109148826Y-83755142D01*
X109145316Y-83778803D01*
X109139504Y-83802007D01*
X109131446Y-83824529D01*
X109121218Y-83846153D01*
X109108921Y-83866670D01*
X109094671Y-83885883D01*
X109078607Y-83903607D01*
X109060883Y-83919671D01*
X109041670Y-83933921D01*
X109021153Y-83946218D01*
X108999529Y-83956446D01*
X108977007Y-83964504D01*
X108953803Y-83970316D01*
X108930142Y-83973826D01*
X108906250Y-83975000D01*
X108418750Y-83975000D01*
X108394858Y-83973826D01*
X108371197Y-83970316D01*
X108347993Y-83964504D01*
X108325471Y-83956446D01*
X108303847Y-83946218D01*
X108283330Y-83933921D01*
X108264117Y-83919671D01*
X108246393Y-83903607D01*
X108230329Y-83885883D01*
X108216079Y-83866670D01*
X108203782Y-83846153D01*
X108193554Y-83824529D01*
X108185496Y-83802007D01*
X108179684Y-83778803D01*
X108176174Y-83755142D01*
X108175000Y-83731250D01*
X108175000Y-82818750D01*
X108176174Y-82794858D01*
X108179684Y-82771197D01*
X108185496Y-82747993D01*
X108193554Y-82725471D01*
X108203782Y-82703847D01*
X108216079Y-82683330D01*
X108230329Y-82664117D01*
X108246393Y-82646393D01*
X108264117Y-82630329D01*
X108283330Y-82616079D01*
X108303847Y-82603782D01*
X108325471Y-82593554D01*
X108347993Y-82585496D01*
X108371197Y-82579684D01*
X108394858Y-82576174D01*
X108418750Y-82575000D01*
X108906250Y-82575000D01*
X108930142Y-82576174D01*
X108930142Y-82576174D01*
G37*
D16*
X108662500Y-83275000D03*
D15*
G36*
X110805142Y-82576174D02*
G01*
X110828803Y-82579684D01*
X110852007Y-82585496D01*
X110874529Y-82593554D01*
X110896153Y-82603782D01*
X110916670Y-82616079D01*
X110935883Y-82630329D01*
X110953607Y-82646393D01*
X110969671Y-82664117D01*
X110983921Y-82683330D01*
X110996218Y-82703847D01*
X111006446Y-82725471D01*
X111014504Y-82747993D01*
X111020316Y-82771197D01*
X111023826Y-82794858D01*
X111025000Y-82818750D01*
X111025000Y-83731250D01*
X111023826Y-83755142D01*
X111020316Y-83778803D01*
X111014504Y-83802007D01*
X111006446Y-83824529D01*
X110996218Y-83846153D01*
X110983921Y-83866670D01*
X110969671Y-83885883D01*
X110953607Y-83903607D01*
X110935883Y-83919671D01*
X110916670Y-83933921D01*
X110896153Y-83946218D01*
X110874529Y-83956446D01*
X110852007Y-83964504D01*
X110828803Y-83970316D01*
X110805142Y-83973826D01*
X110781250Y-83975000D01*
X110293750Y-83975000D01*
X110269858Y-83973826D01*
X110246197Y-83970316D01*
X110222993Y-83964504D01*
X110200471Y-83956446D01*
X110178847Y-83946218D01*
X110158330Y-83933921D01*
X110139117Y-83919671D01*
X110121393Y-83903607D01*
X110105329Y-83885883D01*
X110091079Y-83866670D01*
X110078782Y-83846153D01*
X110068554Y-83824529D01*
X110060496Y-83802007D01*
X110054684Y-83778803D01*
X110051174Y-83755142D01*
X110050000Y-83731250D01*
X110050000Y-82818750D01*
X110051174Y-82794858D01*
X110054684Y-82771197D01*
X110060496Y-82747993D01*
X110068554Y-82725471D01*
X110078782Y-82703847D01*
X110091079Y-82683330D01*
X110105329Y-82664117D01*
X110121393Y-82646393D01*
X110139117Y-82630329D01*
X110158330Y-82616079D01*
X110178847Y-82603782D01*
X110200471Y-82593554D01*
X110222993Y-82585496D01*
X110246197Y-82579684D01*
X110269858Y-82576174D01*
X110293750Y-82575000D01*
X110781250Y-82575000D01*
X110805142Y-82576174D01*
X110805142Y-82576174D01*
G37*
D16*
X110537500Y-83275000D03*
D15*
G36*
X108930142Y-76876174D02*
G01*
X108953803Y-76879684D01*
X108977007Y-76885496D01*
X108999529Y-76893554D01*
X109021153Y-76903782D01*
X109041670Y-76916079D01*
X109060883Y-76930329D01*
X109078607Y-76946393D01*
X109094671Y-76964117D01*
X109108921Y-76983330D01*
X109121218Y-77003847D01*
X109131446Y-77025471D01*
X109139504Y-77047993D01*
X109145316Y-77071197D01*
X109148826Y-77094858D01*
X109150000Y-77118750D01*
X109150000Y-78031250D01*
X109148826Y-78055142D01*
X109145316Y-78078803D01*
X109139504Y-78102007D01*
X109131446Y-78124529D01*
X109121218Y-78146153D01*
X109108921Y-78166670D01*
X109094671Y-78185883D01*
X109078607Y-78203607D01*
X109060883Y-78219671D01*
X109041670Y-78233921D01*
X109021153Y-78246218D01*
X108999529Y-78256446D01*
X108977007Y-78264504D01*
X108953803Y-78270316D01*
X108930142Y-78273826D01*
X108906250Y-78275000D01*
X108418750Y-78275000D01*
X108394858Y-78273826D01*
X108371197Y-78270316D01*
X108347993Y-78264504D01*
X108325471Y-78256446D01*
X108303847Y-78246218D01*
X108283330Y-78233921D01*
X108264117Y-78219671D01*
X108246393Y-78203607D01*
X108230329Y-78185883D01*
X108216079Y-78166670D01*
X108203782Y-78146153D01*
X108193554Y-78124529D01*
X108185496Y-78102007D01*
X108179684Y-78078803D01*
X108176174Y-78055142D01*
X108175000Y-78031250D01*
X108175000Y-77118750D01*
X108176174Y-77094858D01*
X108179684Y-77071197D01*
X108185496Y-77047993D01*
X108193554Y-77025471D01*
X108203782Y-77003847D01*
X108216079Y-76983330D01*
X108230329Y-76964117D01*
X108246393Y-76946393D01*
X108264117Y-76930329D01*
X108283330Y-76916079D01*
X108303847Y-76903782D01*
X108325471Y-76893554D01*
X108347993Y-76885496D01*
X108371197Y-76879684D01*
X108394858Y-76876174D01*
X108418750Y-76875000D01*
X108906250Y-76875000D01*
X108930142Y-76876174D01*
X108930142Y-76876174D01*
G37*
D16*
X108662500Y-77575000D03*
D15*
G36*
X110805142Y-76876174D02*
G01*
X110828803Y-76879684D01*
X110852007Y-76885496D01*
X110874529Y-76893554D01*
X110896153Y-76903782D01*
X110916670Y-76916079D01*
X110935883Y-76930329D01*
X110953607Y-76946393D01*
X110969671Y-76964117D01*
X110983921Y-76983330D01*
X110996218Y-77003847D01*
X111006446Y-77025471D01*
X111014504Y-77047993D01*
X111020316Y-77071197D01*
X111023826Y-77094858D01*
X111025000Y-77118750D01*
X111025000Y-78031250D01*
X111023826Y-78055142D01*
X111020316Y-78078803D01*
X111014504Y-78102007D01*
X111006446Y-78124529D01*
X110996218Y-78146153D01*
X110983921Y-78166670D01*
X110969671Y-78185883D01*
X110953607Y-78203607D01*
X110935883Y-78219671D01*
X110916670Y-78233921D01*
X110896153Y-78246218D01*
X110874529Y-78256446D01*
X110852007Y-78264504D01*
X110828803Y-78270316D01*
X110805142Y-78273826D01*
X110781250Y-78275000D01*
X110293750Y-78275000D01*
X110269858Y-78273826D01*
X110246197Y-78270316D01*
X110222993Y-78264504D01*
X110200471Y-78256446D01*
X110178847Y-78246218D01*
X110158330Y-78233921D01*
X110139117Y-78219671D01*
X110121393Y-78203607D01*
X110105329Y-78185883D01*
X110091079Y-78166670D01*
X110078782Y-78146153D01*
X110068554Y-78124529D01*
X110060496Y-78102007D01*
X110054684Y-78078803D01*
X110051174Y-78055142D01*
X110050000Y-78031250D01*
X110050000Y-77118750D01*
X110051174Y-77094858D01*
X110054684Y-77071197D01*
X110060496Y-77047993D01*
X110068554Y-77025471D01*
X110078782Y-77003847D01*
X110091079Y-76983330D01*
X110105329Y-76964117D01*
X110121393Y-76946393D01*
X110139117Y-76930329D01*
X110158330Y-76916079D01*
X110178847Y-76903782D01*
X110200471Y-76893554D01*
X110222993Y-76885496D01*
X110246197Y-76879684D01*
X110269858Y-76876174D01*
X110293750Y-76875000D01*
X110781250Y-76875000D01*
X110805142Y-76876174D01*
X110805142Y-76876174D01*
G37*
D16*
X110537500Y-77575000D03*
D15*
G36*
X108930142Y-74976174D02*
G01*
X108953803Y-74979684D01*
X108977007Y-74985496D01*
X108999529Y-74993554D01*
X109021153Y-75003782D01*
X109041670Y-75016079D01*
X109060883Y-75030329D01*
X109078607Y-75046393D01*
X109094671Y-75064117D01*
X109108921Y-75083330D01*
X109121218Y-75103847D01*
X109131446Y-75125471D01*
X109139504Y-75147993D01*
X109145316Y-75171197D01*
X109148826Y-75194858D01*
X109150000Y-75218750D01*
X109150000Y-76131250D01*
X109148826Y-76155142D01*
X109145316Y-76178803D01*
X109139504Y-76202007D01*
X109131446Y-76224529D01*
X109121218Y-76246153D01*
X109108921Y-76266670D01*
X109094671Y-76285883D01*
X109078607Y-76303607D01*
X109060883Y-76319671D01*
X109041670Y-76333921D01*
X109021153Y-76346218D01*
X108999529Y-76356446D01*
X108977007Y-76364504D01*
X108953803Y-76370316D01*
X108930142Y-76373826D01*
X108906250Y-76375000D01*
X108418750Y-76375000D01*
X108394858Y-76373826D01*
X108371197Y-76370316D01*
X108347993Y-76364504D01*
X108325471Y-76356446D01*
X108303847Y-76346218D01*
X108283330Y-76333921D01*
X108264117Y-76319671D01*
X108246393Y-76303607D01*
X108230329Y-76285883D01*
X108216079Y-76266670D01*
X108203782Y-76246153D01*
X108193554Y-76224529D01*
X108185496Y-76202007D01*
X108179684Y-76178803D01*
X108176174Y-76155142D01*
X108175000Y-76131250D01*
X108175000Y-75218750D01*
X108176174Y-75194858D01*
X108179684Y-75171197D01*
X108185496Y-75147993D01*
X108193554Y-75125471D01*
X108203782Y-75103847D01*
X108216079Y-75083330D01*
X108230329Y-75064117D01*
X108246393Y-75046393D01*
X108264117Y-75030329D01*
X108283330Y-75016079D01*
X108303847Y-75003782D01*
X108325471Y-74993554D01*
X108347993Y-74985496D01*
X108371197Y-74979684D01*
X108394858Y-74976174D01*
X108418750Y-74975000D01*
X108906250Y-74975000D01*
X108930142Y-74976174D01*
X108930142Y-74976174D01*
G37*
D16*
X108662500Y-75675000D03*
D15*
G36*
X110805142Y-74976174D02*
G01*
X110828803Y-74979684D01*
X110852007Y-74985496D01*
X110874529Y-74993554D01*
X110896153Y-75003782D01*
X110916670Y-75016079D01*
X110935883Y-75030329D01*
X110953607Y-75046393D01*
X110969671Y-75064117D01*
X110983921Y-75083330D01*
X110996218Y-75103847D01*
X111006446Y-75125471D01*
X111014504Y-75147993D01*
X111020316Y-75171197D01*
X111023826Y-75194858D01*
X111025000Y-75218750D01*
X111025000Y-76131250D01*
X111023826Y-76155142D01*
X111020316Y-76178803D01*
X111014504Y-76202007D01*
X111006446Y-76224529D01*
X110996218Y-76246153D01*
X110983921Y-76266670D01*
X110969671Y-76285883D01*
X110953607Y-76303607D01*
X110935883Y-76319671D01*
X110916670Y-76333921D01*
X110896153Y-76346218D01*
X110874529Y-76356446D01*
X110852007Y-76364504D01*
X110828803Y-76370316D01*
X110805142Y-76373826D01*
X110781250Y-76375000D01*
X110293750Y-76375000D01*
X110269858Y-76373826D01*
X110246197Y-76370316D01*
X110222993Y-76364504D01*
X110200471Y-76356446D01*
X110178847Y-76346218D01*
X110158330Y-76333921D01*
X110139117Y-76319671D01*
X110121393Y-76303607D01*
X110105329Y-76285883D01*
X110091079Y-76266670D01*
X110078782Y-76246153D01*
X110068554Y-76224529D01*
X110060496Y-76202007D01*
X110054684Y-76178803D01*
X110051174Y-76155142D01*
X110050000Y-76131250D01*
X110050000Y-75218750D01*
X110051174Y-75194858D01*
X110054684Y-75171197D01*
X110060496Y-75147993D01*
X110068554Y-75125471D01*
X110078782Y-75103847D01*
X110091079Y-75083330D01*
X110105329Y-75064117D01*
X110121393Y-75046393D01*
X110139117Y-75030329D01*
X110158330Y-75016079D01*
X110178847Y-75003782D01*
X110200471Y-74993554D01*
X110222993Y-74985496D01*
X110246197Y-74979684D01*
X110269858Y-74976174D01*
X110293750Y-74975000D01*
X110781250Y-74975000D01*
X110805142Y-74976174D01*
X110805142Y-74976174D01*
G37*
D16*
X110537500Y-75675000D03*
D15*
G36*
X108930142Y-88276174D02*
G01*
X108953803Y-88279684D01*
X108977007Y-88285496D01*
X108999529Y-88293554D01*
X109021153Y-88303782D01*
X109041670Y-88316079D01*
X109060883Y-88330329D01*
X109078607Y-88346393D01*
X109094671Y-88364117D01*
X109108921Y-88383330D01*
X109121218Y-88403847D01*
X109131446Y-88425471D01*
X109139504Y-88447993D01*
X109145316Y-88471197D01*
X109148826Y-88494858D01*
X109150000Y-88518750D01*
X109150000Y-89431250D01*
X109148826Y-89455142D01*
X109145316Y-89478803D01*
X109139504Y-89502007D01*
X109131446Y-89524529D01*
X109121218Y-89546153D01*
X109108921Y-89566670D01*
X109094671Y-89585883D01*
X109078607Y-89603607D01*
X109060883Y-89619671D01*
X109041670Y-89633921D01*
X109021153Y-89646218D01*
X108999529Y-89656446D01*
X108977007Y-89664504D01*
X108953803Y-89670316D01*
X108930142Y-89673826D01*
X108906250Y-89675000D01*
X108418750Y-89675000D01*
X108394858Y-89673826D01*
X108371197Y-89670316D01*
X108347993Y-89664504D01*
X108325471Y-89656446D01*
X108303847Y-89646218D01*
X108283330Y-89633921D01*
X108264117Y-89619671D01*
X108246393Y-89603607D01*
X108230329Y-89585883D01*
X108216079Y-89566670D01*
X108203782Y-89546153D01*
X108193554Y-89524529D01*
X108185496Y-89502007D01*
X108179684Y-89478803D01*
X108176174Y-89455142D01*
X108175000Y-89431250D01*
X108175000Y-88518750D01*
X108176174Y-88494858D01*
X108179684Y-88471197D01*
X108185496Y-88447993D01*
X108193554Y-88425471D01*
X108203782Y-88403847D01*
X108216079Y-88383330D01*
X108230329Y-88364117D01*
X108246393Y-88346393D01*
X108264117Y-88330329D01*
X108283330Y-88316079D01*
X108303847Y-88303782D01*
X108325471Y-88293554D01*
X108347993Y-88285496D01*
X108371197Y-88279684D01*
X108394858Y-88276174D01*
X108418750Y-88275000D01*
X108906250Y-88275000D01*
X108930142Y-88276174D01*
X108930142Y-88276174D01*
G37*
D16*
X108662500Y-88975000D03*
D15*
G36*
X110805142Y-88276174D02*
G01*
X110828803Y-88279684D01*
X110852007Y-88285496D01*
X110874529Y-88293554D01*
X110896153Y-88303782D01*
X110916670Y-88316079D01*
X110935883Y-88330329D01*
X110953607Y-88346393D01*
X110969671Y-88364117D01*
X110983921Y-88383330D01*
X110996218Y-88403847D01*
X111006446Y-88425471D01*
X111014504Y-88447993D01*
X111020316Y-88471197D01*
X111023826Y-88494858D01*
X111025000Y-88518750D01*
X111025000Y-89431250D01*
X111023826Y-89455142D01*
X111020316Y-89478803D01*
X111014504Y-89502007D01*
X111006446Y-89524529D01*
X110996218Y-89546153D01*
X110983921Y-89566670D01*
X110969671Y-89585883D01*
X110953607Y-89603607D01*
X110935883Y-89619671D01*
X110916670Y-89633921D01*
X110896153Y-89646218D01*
X110874529Y-89656446D01*
X110852007Y-89664504D01*
X110828803Y-89670316D01*
X110805142Y-89673826D01*
X110781250Y-89675000D01*
X110293750Y-89675000D01*
X110269858Y-89673826D01*
X110246197Y-89670316D01*
X110222993Y-89664504D01*
X110200471Y-89656446D01*
X110178847Y-89646218D01*
X110158330Y-89633921D01*
X110139117Y-89619671D01*
X110121393Y-89603607D01*
X110105329Y-89585883D01*
X110091079Y-89566670D01*
X110078782Y-89546153D01*
X110068554Y-89524529D01*
X110060496Y-89502007D01*
X110054684Y-89478803D01*
X110051174Y-89455142D01*
X110050000Y-89431250D01*
X110050000Y-88518750D01*
X110051174Y-88494858D01*
X110054684Y-88471197D01*
X110060496Y-88447993D01*
X110068554Y-88425471D01*
X110078782Y-88403847D01*
X110091079Y-88383330D01*
X110105329Y-88364117D01*
X110121393Y-88346393D01*
X110139117Y-88330329D01*
X110158330Y-88316079D01*
X110178847Y-88303782D01*
X110200471Y-88293554D01*
X110222993Y-88285496D01*
X110246197Y-88279684D01*
X110269858Y-88276174D01*
X110293750Y-88275000D01*
X110781250Y-88275000D01*
X110805142Y-88276174D01*
X110805142Y-88276174D01*
G37*
D16*
X110537500Y-88975000D03*
D15*
G36*
X108930142Y-80676174D02*
G01*
X108953803Y-80679684D01*
X108977007Y-80685496D01*
X108999529Y-80693554D01*
X109021153Y-80703782D01*
X109041670Y-80716079D01*
X109060883Y-80730329D01*
X109078607Y-80746393D01*
X109094671Y-80764117D01*
X109108921Y-80783330D01*
X109121218Y-80803847D01*
X109131446Y-80825471D01*
X109139504Y-80847993D01*
X109145316Y-80871197D01*
X109148826Y-80894858D01*
X109150000Y-80918750D01*
X109150000Y-81831250D01*
X109148826Y-81855142D01*
X109145316Y-81878803D01*
X109139504Y-81902007D01*
X109131446Y-81924529D01*
X109121218Y-81946153D01*
X109108921Y-81966670D01*
X109094671Y-81985883D01*
X109078607Y-82003607D01*
X109060883Y-82019671D01*
X109041670Y-82033921D01*
X109021153Y-82046218D01*
X108999529Y-82056446D01*
X108977007Y-82064504D01*
X108953803Y-82070316D01*
X108930142Y-82073826D01*
X108906250Y-82075000D01*
X108418750Y-82075000D01*
X108394858Y-82073826D01*
X108371197Y-82070316D01*
X108347993Y-82064504D01*
X108325471Y-82056446D01*
X108303847Y-82046218D01*
X108283330Y-82033921D01*
X108264117Y-82019671D01*
X108246393Y-82003607D01*
X108230329Y-81985883D01*
X108216079Y-81966670D01*
X108203782Y-81946153D01*
X108193554Y-81924529D01*
X108185496Y-81902007D01*
X108179684Y-81878803D01*
X108176174Y-81855142D01*
X108175000Y-81831250D01*
X108175000Y-80918750D01*
X108176174Y-80894858D01*
X108179684Y-80871197D01*
X108185496Y-80847993D01*
X108193554Y-80825471D01*
X108203782Y-80803847D01*
X108216079Y-80783330D01*
X108230329Y-80764117D01*
X108246393Y-80746393D01*
X108264117Y-80730329D01*
X108283330Y-80716079D01*
X108303847Y-80703782D01*
X108325471Y-80693554D01*
X108347993Y-80685496D01*
X108371197Y-80679684D01*
X108394858Y-80676174D01*
X108418750Y-80675000D01*
X108906250Y-80675000D01*
X108930142Y-80676174D01*
X108930142Y-80676174D01*
G37*
D16*
X108662500Y-81375000D03*
D15*
G36*
X110805142Y-80676174D02*
G01*
X110828803Y-80679684D01*
X110852007Y-80685496D01*
X110874529Y-80693554D01*
X110896153Y-80703782D01*
X110916670Y-80716079D01*
X110935883Y-80730329D01*
X110953607Y-80746393D01*
X110969671Y-80764117D01*
X110983921Y-80783330D01*
X110996218Y-80803847D01*
X111006446Y-80825471D01*
X111014504Y-80847993D01*
X111020316Y-80871197D01*
X111023826Y-80894858D01*
X111025000Y-80918750D01*
X111025000Y-81831250D01*
X111023826Y-81855142D01*
X111020316Y-81878803D01*
X111014504Y-81902007D01*
X111006446Y-81924529D01*
X110996218Y-81946153D01*
X110983921Y-81966670D01*
X110969671Y-81985883D01*
X110953607Y-82003607D01*
X110935883Y-82019671D01*
X110916670Y-82033921D01*
X110896153Y-82046218D01*
X110874529Y-82056446D01*
X110852007Y-82064504D01*
X110828803Y-82070316D01*
X110805142Y-82073826D01*
X110781250Y-82075000D01*
X110293750Y-82075000D01*
X110269858Y-82073826D01*
X110246197Y-82070316D01*
X110222993Y-82064504D01*
X110200471Y-82056446D01*
X110178847Y-82046218D01*
X110158330Y-82033921D01*
X110139117Y-82019671D01*
X110121393Y-82003607D01*
X110105329Y-81985883D01*
X110091079Y-81966670D01*
X110078782Y-81946153D01*
X110068554Y-81924529D01*
X110060496Y-81902007D01*
X110054684Y-81878803D01*
X110051174Y-81855142D01*
X110050000Y-81831250D01*
X110050000Y-80918750D01*
X110051174Y-80894858D01*
X110054684Y-80871197D01*
X110060496Y-80847993D01*
X110068554Y-80825471D01*
X110078782Y-80803847D01*
X110091079Y-80783330D01*
X110105329Y-80764117D01*
X110121393Y-80746393D01*
X110139117Y-80730329D01*
X110158330Y-80716079D01*
X110178847Y-80703782D01*
X110200471Y-80693554D01*
X110222993Y-80685496D01*
X110246197Y-80679684D01*
X110269858Y-80676174D01*
X110293750Y-80675000D01*
X110781250Y-80675000D01*
X110805142Y-80676174D01*
X110805142Y-80676174D01*
G37*
D16*
X110537500Y-81375000D03*
D15*
G36*
X108930142Y-86376174D02*
G01*
X108953803Y-86379684D01*
X108977007Y-86385496D01*
X108999529Y-86393554D01*
X109021153Y-86403782D01*
X109041670Y-86416079D01*
X109060883Y-86430329D01*
X109078607Y-86446393D01*
X109094671Y-86464117D01*
X109108921Y-86483330D01*
X109121218Y-86503847D01*
X109131446Y-86525471D01*
X109139504Y-86547993D01*
X109145316Y-86571197D01*
X109148826Y-86594858D01*
X109150000Y-86618750D01*
X109150000Y-87531250D01*
X109148826Y-87555142D01*
X109145316Y-87578803D01*
X109139504Y-87602007D01*
X109131446Y-87624529D01*
X109121218Y-87646153D01*
X109108921Y-87666670D01*
X109094671Y-87685883D01*
X109078607Y-87703607D01*
X109060883Y-87719671D01*
X109041670Y-87733921D01*
X109021153Y-87746218D01*
X108999529Y-87756446D01*
X108977007Y-87764504D01*
X108953803Y-87770316D01*
X108930142Y-87773826D01*
X108906250Y-87775000D01*
X108418750Y-87775000D01*
X108394858Y-87773826D01*
X108371197Y-87770316D01*
X108347993Y-87764504D01*
X108325471Y-87756446D01*
X108303847Y-87746218D01*
X108283330Y-87733921D01*
X108264117Y-87719671D01*
X108246393Y-87703607D01*
X108230329Y-87685883D01*
X108216079Y-87666670D01*
X108203782Y-87646153D01*
X108193554Y-87624529D01*
X108185496Y-87602007D01*
X108179684Y-87578803D01*
X108176174Y-87555142D01*
X108175000Y-87531250D01*
X108175000Y-86618750D01*
X108176174Y-86594858D01*
X108179684Y-86571197D01*
X108185496Y-86547993D01*
X108193554Y-86525471D01*
X108203782Y-86503847D01*
X108216079Y-86483330D01*
X108230329Y-86464117D01*
X108246393Y-86446393D01*
X108264117Y-86430329D01*
X108283330Y-86416079D01*
X108303847Y-86403782D01*
X108325471Y-86393554D01*
X108347993Y-86385496D01*
X108371197Y-86379684D01*
X108394858Y-86376174D01*
X108418750Y-86375000D01*
X108906250Y-86375000D01*
X108930142Y-86376174D01*
X108930142Y-86376174D01*
G37*
D16*
X108662500Y-87075000D03*
D15*
G36*
X110805142Y-86376174D02*
G01*
X110828803Y-86379684D01*
X110852007Y-86385496D01*
X110874529Y-86393554D01*
X110896153Y-86403782D01*
X110916670Y-86416079D01*
X110935883Y-86430329D01*
X110953607Y-86446393D01*
X110969671Y-86464117D01*
X110983921Y-86483330D01*
X110996218Y-86503847D01*
X111006446Y-86525471D01*
X111014504Y-86547993D01*
X111020316Y-86571197D01*
X111023826Y-86594858D01*
X111025000Y-86618750D01*
X111025000Y-87531250D01*
X111023826Y-87555142D01*
X111020316Y-87578803D01*
X111014504Y-87602007D01*
X111006446Y-87624529D01*
X110996218Y-87646153D01*
X110983921Y-87666670D01*
X110969671Y-87685883D01*
X110953607Y-87703607D01*
X110935883Y-87719671D01*
X110916670Y-87733921D01*
X110896153Y-87746218D01*
X110874529Y-87756446D01*
X110852007Y-87764504D01*
X110828803Y-87770316D01*
X110805142Y-87773826D01*
X110781250Y-87775000D01*
X110293750Y-87775000D01*
X110269858Y-87773826D01*
X110246197Y-87770316D01*
X110222993Y-87764504D01*
X110200471Y-87756446D01*
X110178847Y-87746218D01*
X110158330Y-87733921D01*
X110139117Y-87719671D01*
X110121393Y-87703607D01*
X110105329Y-87685883D01*
X110091079Y-87666670D01*
X110078782Y-87646153D01*
X110068554Y-87624529D01*
X110060496Y-87602007D01*
X110054684Y-87578803D01*
X110051174Y-87555142D01*
X110050000Y-87531250D01*
X110050000Y-86618750D01*
X110051174Y-86594858D01*
X110054684Y-86571197D01*
X110060496Y-86547993D01*
X110068554Y-86525471D01*
X110078782Y-86503847D01*
X110091079Y-86483330D01*
X110105329Y-86464117D01*
X110121393Y-86446393D01*
X110139117Y-86430329D01*
X110158330Y-86416079D01*
X110178847Y-86403782D01*
X110200471Y-86393554D01*
X110222993Y-86385496D01*
X110246197Y-86379684D01*
X110269858Y-86376174D01*
X110293750Y-86375000D01*
X110781250Y-86375000D01*
X110805142Y-86376174D01*
X110805142Y-86376174D01*
G37*
D16*
X110537500Y-87075000D03*
D15*
G36*
X108930142Y-78776174D02*
G01*
X108953803Y-78779684D01*
X108977007Y-78785496D01*
X108999529Y-78793554D01*
X109021153Y-78803782D01*
X109041670Y-78816079D01*
X109060883Y-78830329D01*
X109078607Y-78846393D01*
X109094671Y-78864117D01*
X109108921Y-78883330D01*
X109121218Y-78903847D01*
X109131446Y-78925471D01*
X109139504Y-78947993D01*
X109145316Y-78971197D01*
X109148826Y-78994858D01*
X109150000Y-79018750D01*
X109150000Y-79931250D01*
X109148826Y-79955142D01*
X109145316Y-79978803D01*
X109139504Y-80002007D01*
X109131446Y-80024529D01*
X109121218Y-80046153D01*
X109108921Y-80066670D01*
X109094671Y-80085883D01*
X109078607Y-80103607D01*
X109060883Y-80119671D01*
X109041670Y-80133921D01*
X109021153Y-80146218D01*
X108999529Y-80156446D01*
X108977007Y-80164504D01*
X108953803Y-80170316D01*
X108930142Y-80173826D01*
X108906250Y-80175000D01*
X108418750Y-80175000D01*
X108394858Y-80173826D01*
X108371197Y-80170316D01*
X108347993Y-80164504D01*
X108325471Y-80156446D01*
X108303847Y-80146218D01*
X108283330Y-80133921D01*
X108264117Y-80119671D01*
X108246393Y-80103607D01*
X108230329Y-80085883D01*
X108216079Y-80066670D01*
X108203782Y-80046153D01*
X108193554Y-80024529D01*
X108185496Y-80002007D01*
X108179684Y-79978803D01*
X108176174Y-79955142D01*
X108175000Y-79931250D01*
X108175000Y-79018750D01*
X108176174Y-78994858D01*
X108179684Y-78971197D01*
X108185496Y-78947993D01*
X108193554Y-78925471D01*
X108203782Y-78903847D01*
X108216079Y-78883330D01*
X108230329Y-78864117D01*
X108246393Y-78846393D01*
X108264117Y-78830329D01*
X108283330Y-78816079D01*
X108303847Y-78803782D01*
X108325471Y-78793554D01*
X108347993Y-78785496D01*
X108371197Y-78779684D01*
X108394858Y-78776174D01*
X108418750Y-78775000D01*
X108906250Y-78775000D01*
X108930142Y-78776174D01*
X108930142Y-78776174D01*
G37*
D16*
X108662500Y-79475000D03*
D15*
G36*
X110805142Y-78776174D02*
G01*
X110828803Y-78779684D01*
X110852007Y-78785496D01*
X110874529Y-78793554D01*
X110896153Y-78803782D01*
X110916670Y-78816079D01*
X110935883Y-78830329D01*
X110953607Y-78846393D01*
X110969671Y-78864117D01*
X110983921Y-78883330D01*
X110996218Y-78903847D01*
X111006446Y-78925471D01*
X111014504Y-78947993D01*
X111020316Y-78971197D01*
X111023826Y-78994858D01*
X111025000Y-79018750D01*
X111025000Y-79931250D01*
X111023826Y-79955142D01*
X111020316Y-79978803D01*
X111014504Y-80002007D01*
X111006446Y-80024529D01*
X110996218Y-80046153D01*
X110983921Y-80066670D01*
X110969671Y-80085883D01*
X110953607Y-80103607D01*
X110935883Y-80119671D01*
X110916670Y-80133921D01*
X110896153Y-80146218D01*
X110874529Y-80156446D01*
X110852007Y-80164504D01*
X110828803Y-80170316D01*
X110805142Y-80173826D01*
X110781250Y-80175000D01*
X110293750Y-80175000D01*
X110269858Y-80173826D01*
X110246197Y-80170316D01*
X110222993Y-80164504D01*
X110200471Y-80156446D01*
X110178847Y-80146218D01*
X110158330Y-80133921D01*
X110139117Y-80119671D01*
X110121393Y-80103607D01*
X110105329Y-80085883D01*
X110091079Y-80066670D01*
X110078782Y-80046153D01*
X110068554Y-80024529D01*
X110060496Y-80002007D01*
X110054684Y-79978803D01*
X110051174Y-79955142D01*
X110050000Y-79931250D01*
X110050000Y-79018750D01*
X110051174Y-78994858D01*
X110054684Y-78971197D01*
X110060496Y-78947993D01*
X110068554Y-78925471D01*
X110078782Y-78903847D01*
X110091079Y-78883330D01*
X110105329Y-78864117D01*
X110121393Y-78846393D01*
X110139117Y-78830329D01*
X110158330Y-78816079D01*
X110178847Y-78803782D01*
X110200471Y-78793554D01*
X110222993Y-78785496D01*
X110246197Y-78779684D01*
X110269858Y-78776174D01*
X110293750Y-78775000D01*
X110781250Y-78775000D01*
X110805142Y-78776174D01*
X110805142Y-78776174D01*
G37*
D16*
X110537500Y-79475000D03*
D15*
G36*
X108930142Y-73076174D02*
G01*
X108953803Y-73079684D01*
X108977007Y-73085496D01*
X108999529Y-73093554D01*
X109021153Y-73103782D01*
X109041670Y-73116079D01*
X109060883Y-73130329D01*
X109078607Y-73146393D01*
X109094671Y-73164117D01*
X109108921Y-73183330D01*
X109121218Y-73203847D01*
X109131446Y-73225471D01*
X109139504Y-73247993D01*
X109145316Y-73271197D01*
X109148826Y-73294858D01*
X109150000Y-73318750D01*
X109150000Y-74231250D01*
X109148826Y-74255142D01*
X109145316Y-74278803D01*
X109139504Y-74302007D01*
X109131446Y-74324529D01*
X109121218Y-74346153D01*
X109108921Y-74366670D01*
X109094671Y-74385883D01*
X109078607Y-74403607D01*
X109060883Y-74419671D01*
X109041670Y-74433921D01*
X109021153Y-74446218D01*
X108999529Y-74456446D01*
X108977007Y-74464504D01*
X108953803Y-74470316D01*
X108930142Y-74473826D01*
X108906250Y-74475000D01*
X108418750Y-74475000D01*
X108394858Y-74473826D01*
X108371197Y-74470316D01*
X108347993Y-74464504D01*
X108325471Y-74456446D01*
X108303847Y-74446218D01*
X108283330Y-74433921D01*
X108264117Y-74419671D01*
X108246393Y-74403607D01*
X108230329Y-74385883D01*
X108216079Y-74366670D01*
X108203782Y-74346153D01*
X108193554Y-74324529D01*
X108185496Y-74302007D01*
X108179684Y-74278803D01*
X108176174Y-74255142D01*
X108175000Y-74231250D01*
X108175000Y-73318750D01*
X108176174Y-73294858D01*
X108179684Y-73271197D01*
X108185496Y-73247993D01*
X108193554Y-73225471D01*
X108203782Y-73203847D01*
X108216079Y-73183330D01*
X108230329Y-73164117D01*
X108246393Y-73146393D01*
X108264117Y-73130329D01*
X108283330Y-73116079D01*
X108303847Y-73103782D01*
X108325471Y-73093554D01*
X108347993Y-73085496D01*
X108371197Y-73079684D01*
X108394858Y-73076174D01*
X108418750Y-73075000D01*
X108906250Y-73075000D01*
X108930142Y-73076174D01*
X108930142Y-73076174D01*
G37*
D16*
X108662500Y-73775000D03*
D15*
G36*
X110805142Y-73076174D02*
G01*
X110828803Y-73079684D01*
X110852007Y-73085496D01*
X110874529Y-73093554D01*
X110896153Y-73103782D01*
X110916670Y-73116079D01*
X110935883Y-73130329D01*
X110953607Y-73146393D01*
X110969671Y-73164117D01*
X110983921Y-73183330D01*
X110996218Y-73203847D01*
X111006446Y-73225471D01*
X111014504Y-73247993D01*
X111020316Y-73271197D01*
X111023826Y-73294858D01*
X111025000Y-73318750D01*
X111025000Y-74231250D01*
X111023826Y-74255142D01*
X111020316Y-74278803D01*
X111014504Y-74302007D01*
X111006446Y-74324529D01*
X110996218Y-74346153D01*
X110983921Y-74366670D01*
X110969671Y-74385883D01*
X110953607Y-74403607D01*
X110935883Y-74419671D01*
X110916670Y-74433921D01*
X110896153Y-74446218D01*
X110874529Y-74456446D01*
X110852007Y-74464504D01*
X110828803Y-74470316D01*
X110805142Y-74473826D01*
X110781250Y-74475000D01*
X110293750Y-74475000D01*
X110269858Y-74473826D01*
X110246197Y-74470316D01*
X110222993Y-74464504D01*
X110200471Y-74456446D01*
X110178847Y-74446218D01*
X110158330Y-74433921D01*
X110139117Y-74419671D01*
X110121393Y-74403607D01*
X110105329Y-74385883D01*
X110091079Y-74366670D01*
X110078782Y-74346153D01*
X110068554Y-74324529D01*
X110060496Y-74302007D01*
X110054684Y-74278803D01*
X110051174Y-74255142D01*
X110050000Y-74231250D01*
X110050000Y-73318750D01*
X110051174Y-73294858D01*
X110054684Y-73271197D01*
X110060496Y-73247993D01*
X110068554Y-73225471D01*
X110078782Y-73203847D01*
X110091079Y-73183330D01*
X110105329Y-73164117D01*
X110121393Y-73146393D01*
X110139117Y-73130329D01*
X110158330Y-73116079D01*
X110178847Y-73103782D01*
X110200471Y-73093554D01*
X110222993Y-73085496D01*
X110246197Y-73079684D01*
X110269858Y-73076174D01*
X110293750Y-73075000D01*
X110781250Y-73075000D01*
X110805142Y-73076174D01*
X110805142Y-73076174D01*
G37*
D16*
X110537500Y-73775000D03*
D15*
G36*
X135730142Y-89701174D02*
G01*
X135753803Y-89704684D01*
X135777007Y-89710496D01*
X135799529Y-89718554D01*
X135821153Y-89728782D01*
X135841670Y-89741079D01*
X135860883Y-89755329D01*
X135878607Y-89771393D01*
X135894671Y-89789117D01*
X135908921Y-89808330D01*
X135921218Y-89828847D01*
X135931446Y-89850471D01*
X135939504Y-89872993D01*
X135945316Y-89896197D01*
X135948826Y-89919858D01*
X135950000Y-89943750D01*
X135950000Y-90431250D01*
X135948826Y-90455142D01*
X135945316Y-90478803D01*
X135939504Y-90502007D01*
X135931446Y-90524529D01*
X135921218Y-90546153D01*
X135908921Y-90566670D01*
X135894671Y-90585883D01*
X135878607Y-90603607D01*
X135860883Y-90619671D01*
X135841670Y-90633921D01*
X135821153Y-90646218D01*
X135799529Y-90656446D01*
X135777007Y-90664504D01*
X135753803Y-90670316D01*
X135730142Y-90673826D01*
X135706250Y-90675000D01*
X134793750Y-90675000D01*
X134769858Y-90673826D01*
X134746197Y-90670316D01*
X134722993Y-90664504D01*
X134700471Y-90656446D01*
X134678847Y-90646218D01*
X134658330Y-90633921D01*
X134639117Y-90619671D01*
X134621393Y-90603607D01*
X134605329Y-90585883D01*
X134591079Y-90566670D01*
X134578782Y-90546153D01*
X134568554Y-90524529D01*
X134560496Y-90502007D01*
X134554684Y-90478803D01*
X134551174Y-90455142D01*
X134550000Y-90431250D01*
X134550000Y-89943750D01*
X134551174Y-89919858D01*
X134554684Y-89896197D01*
X134560496Y-89872993D01*
X134568554Y-89850471D01*
X134578782Y-89828847D01*
X134591079Y-89808330D01*
X134605329Y-89789117D01*
X134621393Y-89771393D01*
X134639117Y-89755329D01*
X134658330Y-89741079D01*
X134678847Y-89728782D01*
X134700471Y-89718554D01*
X134722993Y-89710496D01*
X134746197Y-89704684D01*
X134769858Y-89701174D01*
X134793750Y-89700000D01*
X135706250Y-89700000D01*
X135730142Y-89701174D01*
X135730142Y-89701174D01*
G37*
D16*
X135250000Y-90187500D03*
D15*
G36*
X135730142Y-87826174D02*
G01*
X135753803Y-87829684D01*
X135777007Y-87835496D01*
X135799529Y-87843554D01*
X135821153Y-87853782D01*
X135841670Y-87866079D01*
X135860883Y-87880329D01*
X135878607Y-87896393D01*
X135894671Y-87914117D01*
X135908921Y-87933330D01*
X135921218Y-87953847D01*
X135931446Y-87975471D01*
X135939504Y-87997993D01*
X135945316Y-88021197D01*
X135948826Y-88044858D01*
X135950000Y-88068750D01*
X135950000Y-88556250D01*
X135948826Y-88580142D01*
X135945316Y-88603803D01*
X135939504Y-88627007D01*
X135931446Y-88649529D01*
X135921218Y-88671153D01*
X135908921Y-88691670D01*
X135894671Y-88710883D01*
X135878607Y-88728607D01*
X135860883Y-88744671D01*
X135841670Y-88758921D01*
X135821153Y-88771218D01*
X135799529Y-88781446D01*
X135777007Y-88789504D01*
X135753803Y-88795316D01*
X135730142Y-88798826D01*
X135706250Y-88800000D01*
X134793750Y-88800000D01*
X134769858Y-88798826D01*
X134746197Y-88795316D01*
X134722993Y-88789504D01*
X134700471Y-88781446D01*
X134678847Y-88771218D01*
X134658330Y-88758921D01*
X134639117Y-88744671D01*
X134621393Y-88728607D01*
X134605329Y-88710883D01*
X134591079Y-88691670D01*
X134578782Y-88671153D01*
X134568554Y-88649529D01*
X134560496Y-88627007D01*
X134554684Y-88603803D01*
X134551174Y-88580142D01*
X134550000Y-88556250D01*
X134550000Y-88068750D01*
X134551174Y-88044858D01*
X134554684Y-88021197D01*
X134560496Y-87997993D01*
X134568554Y-87975471D01*
X134578782Y-87953847D01*
X134591079Y-87933330D01*
X134605329Y-87914117D01*
X134621393Y-87896393D01*
X134639117Y-87880329D01*
X134658330Y-87866079D01*
X134678847Y-87853782D01*
X134700471Y-87843554D01*
X134722993Y-87835496D01*
X134746197Y-87829684D01*
X134769858Y-87826174D01*
X134793750Y-87825000D01*
X135706250Y-87825000D01*
X135730142Y-87826174D01*
X135730142Y-87826174D01*
G37*
D16*
X135250000Y-88312500D03*
D15*
G36*
X135730142Y-82951174D02*
G01*
X135753803Y-82954684D01*
X135777007Y-82960496D01*
X135799529Y-82968554D01*
X135821153Y-82978782D01*
X135841670Y-82991079D01*
X135860883Y-83005329D01*
X135878607Y-83021393D01*
X135894671Y-83039117D01*
X135908921Y-83058330D01*
X135921218Y-83078847D01*
X135931446Y-83100471D01*
X135939504Y-83122993D01*
X135945316Y-83146197D01*
X135948826Y-83169858D01*
X135950000Y-83193750D01*
X135950000Y-83681250D01*
X135948826Y-83705142D01*
X135945316Y-83728803D01*
X135939504Y-83752007D01*
X135931446Y-83774529D01*
X135921218Y-83796153D01*
X135908921Y-83816670D01*
X135894671Y-83835883D01*
X135878607Y-83853607D01*
X135860883Y-83869671D01*
X135841670Y-83883921D01*
X135821153Y-83896218D01*
X135799529Y-83906446D01*
X135777007Y-83914504D01*
X135753803Y-83920316D01*
X135730142Y-83923826D01*
X135706250Y-83925000D01*
X134793750Y-83925000D01*
X134769858Y-83923826D01*
X134746197Y-83920316D01*
X134722993Y-83914504D01*
X134700471Y-83906446D01*
X134678847Y-83896218D01*
X134658330Y-83883921D01*
X134639117Y-83869671D01*
X134621393Y-83853607D01*
X134605329Y-83835883D01*
X134591079Y-83816670D01*
X134578782Y-83796153D01*
X134568554Y-83774529D01*
X134560496Y-83752007D01*
X134554684Y-83728803D01*
X134551174Y-83705142D01*
X134550000Y-83681250D01*
X134550000Y-83193750D01*
X134551174Y-83169858D01*
X134554684Y-83146197D01*
X134560496Y-83122993D01*
X134568554Y-83100471D01*
X134578782Y-83078847D01*
X134591079Y-83058330D01*
X134605329Y-83039117D01*
X134621393Y-83021393D01*
X134639117Y-83005329D01*
X134658330Y-82991079D01*
X134678847Y-82978782D01*
X134700471Y-82968554D01*
X134722993Y-82960496D01*
X134746197Y-82954684D01*
X134769858Y-82951174D01*
X134793750Y-82950000D01*
X135706250Y-82950000D01*
X135730142Y-82951174D01*
X135730142Y-82951174D01*
G37*
D16*
X135250000Y-83437500D03*
D15*
G36*
X135730142Y-81076174D02*
G01*
X135753803Y-81079684D01*
X135777007Y-81085496D01*
X135799529Y-81093554D01*
X135821153Y-81103782D01*
X135841670Y-81116079D01*
X135860883Y-81130329D01*
X135878607Y-81146393D01*
X135894671Y-81164117D01*
X135908921Y-81183330D01*
X135921218Y-81203847D01*
X135931446Y-81225471D01*
X135939504Y-81247993D01*
X135945316Y-81271197D01*
X135948826Y-81294858D01*
X135950000Y-81318750D01*
X135950000Y-81806250D01*
X135948826Y-81830142D01*
X135945316Y-81853803D01*
X135939504Y-81877007D01*
X135931446Y-81899529D01*
X135921218Y-81921153D01*
X135908921Y-81941670D01*
X135894671Y-81960883D01*
X135878607Y-81978607D01*
X135860883Y-81994671D01*
X135841670Y-82008921D01*
X135821153Y-82021218D01*
X135799529Y-82031446D01*
X135777007Y-82039504D01*
X135753803Y-82045316D01*
X135730142Y-82048826D01*
X135706250Y-82050000D01*
X134793750Y-82050000D01*
X134769858Y-82048826D01*
X134746197Y-82045316D01*
X134722993Y-82039504D01*
X134700471Y-82031446D01*
X134678847Y-82021218D01*
X134658330Y-82008921D01*
X134639117Y-81994671D01*
X134621393Y-81978607D01*
X134605329Y-81960883D01*
X134591079Y-81941670D01*
X134578782Y-81921153D01*
X134568554Y-81899529D01*
X134560496Y-81877007D01*
X134554684Y-81853803D01*
X134551174Y-81830142D01*
X134550000Y-81806250D01*
X134550000Y-81318750D01*
X134551174Y-81294858D01*
X134554684Y-81271197D01*
X134560496Y-81247993D01*
X134568554Y-81225471D01*
X134578782Y-81203847D01*
X134591079Y-81183330D01*
X134605329Y-81164117D01*
X134621393Y-81146393D01*
X134639117Y-81130329D01*
X134658330Y-81116079D01*
X134678847Y-81103782D01*
X134700471Y-81093554D01*
X134722993Y-81085496D01*
X134746197Y-81079684D01*
X134769858Y-81076174D01*
X134793750Y-81075000D01*
X135706250Y-81075000D01*
X135730142Y-81076174D01*
X135730142Y-81076174D01*
G37*
D16*
X135250000Y-81562500D03*
D15*
G36*
X108930142Y-90401174D02*
G01*
X108953803Y-90404684D01*
X108977007Y-90410496D01*
X108999529Y-90418554D01*
X109021153Y-90428782D01*
X109041670Y-90441079D01*
X109060883Y-90455329D01*
X109078607Y-90471393D01*
X109094671Y-90489117D01*
X109108921Y-90508330D01*
X109121218Y-90528847D01*
X109131446Y-90550471D01*
X109139504Y-90572993D01*
X109145316Y-90596197D01*
X109148826Y-90619858D01*
X109150000Y-90643750D01*
X109150000Y-91556250D01*
X109148826Y-91580142D01*
X109145316Y-91603803D01*
X109139504Y-91627007D01*
X109131446Y-91649529D01*
X109121218Y-91671153D01*
X109108921Y-91691670D01*
X109094671Y-91710883D01*
X109078607Y-91728607D01*
X109060883Y-91744671D01*
X109041670Y-91758921D01*
X109021153Y-91771218D01*
X108999529Y-91781446D01*
X108977007Y-91789504D01*
X108953803Y-91795316D01*
X108930142Y-91798826D01*
X108906250Y-91800000D01*
X108418750Y-91800000D01*
X108394858Y-91798826D01*
X108371197Y-91795316D01*
X108347993Y-91789504D01*
X108325471Y-91781446D01*
X108303847Y-91771218D01*
X108283330Y-91758921D01*
X108264117Y-91744671D01*
X108246393Y-91728607D01*
X108230329Y-91710883D01*
X108216079Y-91691670D01*
X108203782Y-91671153D01*
X108193554Y-91649529D01*
X108185496Y-91627007D01*
X108179684Y-91603803D01*
X108176174Y-91580142D01*
X108175000Y-91556250D01*
X108175000Y-90643750D01*
X108176174Y-90619858D01*
X108179684Y-90596197D01*
X108185496Y-90572993D01*
X108193554Y-90550471D01*
X108203782Y-90528847D01*
X108216079Y-90508330D01*
X108230329Y-90489117D01*
X108246393Y-90471393D01*
X108264117Y-90455329D01*
X108283330Y-90441079D01*
X108303847Y-90428782D01*
X108325471Y-90418554D01*
X108347993Y-90410496D01*
X108371197Y-90404684D01*
X108394858Y-90401174D01*
X108418750Y-90400000D01*
X108906250Y-90400000D01*
X108930142Y-90401174D01*
X108930142Y-90401174D01*
G37*
D16*
X108662500Y-91100000D03*
D15*
G36*
X110805142Y-90401174D02*
G01*
X110828803Y-90404684D01*
X110852007Y-90410496D01*
X110874529Y-90418554D01*
X110896153Y-90428782D01*
X110916670Y-90441079D01*
X110935883Y-90455329D01*
X110953607Y-90471393D01*
X110969671Y-90489117D01*
X110983921Y-90508330D01*
X110996218Y-90528847D01*
X111006446Y-90550471D01*
X111014504Y-90572993D01*
X111020316Y-90596197D01*
X111023826Y-90619858D01*
X111025000Y-90643750D01*
X111025000Y-91556250D01*
X111023826Y-91580142D01*
X111020316Y-91603803D01*
X111014504Y-91627007D01*
X111006446Y-91649529D01*
X110996218Y-91671153D01*
X110983921Y-91691670D01*
X110969671Y-91710883D01*
X110953607Y-91728607D01*
X110935883Y-91744671D01*
X110916670Y-91758921D01*
X110896153Y-91771218D01*
X110874529Y-91781446D01*
X110852007Y-91789504D01*
X110828803Y-91795316D01*
X110805142Y-91798826D01*
X110781250Y-91800000D01*
X110293750Y-91800000D01*
X110269858Y-91798826D01*
X110246197Y-91795316D01*
X110222993Y-91789504D01*
X110200471Y-91781446D01*
X110178847Y-91771218D01*
X110158330Y-91758921D01*
X110139117Y-91744671D01*
X110121393Y-91728607D01*
X110105329Y-91710883D01*
X110091079Y-91691670D01*
X110078782Y-91671153D01*
X110068554Y-91649529D01*
X110060496Y-91627007D01*
X110054684Y-91603803D01*
X110051174Y-91580142D01*
X110050000Y-91556250D01*
X110050000Y-90643750D01*
X110051174Y-90619858D01*
X110054684Y-90596197D01*
X110060496Y-90572993D01*
X110068554Y-90550471D01*
X110078782Y-90528847D01*
X110091079Y-90508330D01*
X110105329Y-90489117D01*
X110121393Y-90471393D01*
X110139117Y-90455329D01*
X110158330Y-90441079D01*
X110178847Y-90428782D01*
X110200471Y-90418554D01*
X110222993Y-90410496D01*
X110246197Y-90404684D01*
X110269858Y-90401174D01*
X110293750Y-90400000D01*
X110781250Y-90400000D01*
X110805142Y-90401174D01*
X110805142Y-90401174D01*
G37*
D16*
X110537500Y-91100000D03*
D15*
G36*
X125124504Y-72001204D02*
G01*
X125148773Y-72004804D01*
X125172571Y-72010765D01*
X125195671Y-72019030D01*
X125217849Y-72029520D01*
X125238893Y-72042133D01*
X125258598Y-72056747D01*
X125276777Y-72073223D01*
X125293253Y-72091402D01*
X125307867Y-72111107D01*
X125320480Y-72132151D01*
X125330970Y-72154329D01*
X125339235Y-72177429D01*
X125345196Y-72201227D01*
X125348796Y-72225496D01*
X125350000Y-72250000D01*
X125350000Y-73350000D01*
X125348796Y-73374504D01*
X125345196Y-73398773D01*
X125339235Y-73422571D01*
X125330970Y-73445671D01*
X125320480Y-73467849D01*
X125307867Y-73488893D01*
X125293253Y-73508598D01*
X125276777Y-73526777D01*
X125258598Y-73543253D01*
X125238893Y-73557867D01*
X125217849Y-73570480D01*
X125195671Y-73580970D01*
X125172571Y-73589235D01*
X125148773Y-73595196D01*
X125124504Y-73598796D01*
X125100000Y-73600000D01*
X123000000Y-73600000D01*
X122975496Y-73598796D01*
X122951227Y-73595196D01*
X122927429Y-73589235D01*
X122904329Y-73580970D01*
X122882151Y-73570480D01*
X122861107Y-73557867D01*
X122841402Y-73543253D01*
X122823223Y-73526777D01*
X122806747Y-73508598D01*
X122792133Y-73488893D01*
X122779520Y-73467849D01*
X122769030Y-73445671D01*
X122760765Y-73422571D01*
X122754804Y-73398773D01*
X122751204Y-73374504D01*
X122750000Y-73350000D01*
X122750000Y-72250000D01*
X122751204Y-72225496D01*
X122754804Y-72201227D01*
X122760765Y-72177429D01*
X122769030Y-72154329D01*
X122779520Y-72132151D01*
X122792133Y-72111107D01*
X122806747Y-72091402D01*
X122823223Y-72073223D01*
X122841402Y-72056747D01*
X122861107Y-72042133D01*
X122882151Y-72029520D01*
X122904329Y-72019030D01*
X122927429Y-72010765D01*
X122951227Y-72004804D01*
X122975496Y-72001204D01*
X123000000Y-72000000D01*
X125100000Y-72000000D01*
X125124504Y-72001204D01*
X125124504Y-72001204D01*
G37*
D17*
X124050000Y-72800000D03*
D15*
G36*
X121524504Y-72001204D02*
G01*
X121548773Y-72004804D01*
X121572571Y-72010765D01*
X121595671Y-72019030D01*
X121617849Y-72029520D01*
X121638893Y-72042133D01*
X121658598Y-72056747D01*
X121676777Y-72073223D01*
X121693253Y-72091402D01*
X121707867Y-72111107D01*
X121720480Y-72132151D01*
X121730970Y-72154329D01*
X121739235Y-72177429D01*
X121745196Y-72201227D01*
X121748796Y-72225496D01*
X121750000Y-72250000D01*
X121750000Y-73350000D01*
X121748796Y-73374504D01*
X121745196Y-73398773D01*
X121739235Y-73422571D01*
X121730970Y-73445671D01*
X121720480Y-73467849D01*
X121707867Y-73488893D01*
X121693253Y-73508598D01*
X121676777Y-73526777D01*
X121658598Y-73543253D01*
X121638893Y-73557867D01*
X121617849Y-73570480D01*
X121595671Y-73580970D01*
X121572571Y-73589235D01*
X121548773Y-73595196D01*
X121524504Y-73598796D01*
X121500000Y-73600000D01*
X119400000Y-73600000D01*
X119375496Y-73598796D01*
X119351227Y-73595196D01*
X119327429Y-73589235D01*
X119304329Y-73580970D01*
X119282151Y-73570480D01*
X119261107Y-73557867D01*
X119241402Y-73543253D01*
X119223223Y-73526777D01*
X119206747Y-73508598D01*
X119192133Y-73488893D01*
X119179520Y-73467849D01*
X119169030Y-73445671D01*
X119160765Y-73422571D01*
X119154804Y-73398773D01*
X119151204Y-73374504D01*
X119150000Y-73350000D01*
X119150000Y-72250000D01*
X119151204Y-72225496D01*
X119154804Y-72201227D01*
X119160765Y-72177429D01*
X119169030Y-72154329D01*
X119179520Y-72132151D01*
X119192133Y-72111107D01*
X119206747Y-72091402D01*
X119223223Y-72073223D01*
X119241402Y-72056747D01*
X119261107Y-72042133D01*
X119282151Y-72029520D01*
X119304329Y-72019030D01*
X119327429Y-72010765D01*
X119351227Y-72004804D01*
X119375496Y-72001204D01*
X119400000Y-72000000D01*
X121500000Y-72000000D01*
X121524504Y-72001204D01*
X121524504Y-72001204D01*
G37*
D17*
X120450000Y-72800000D03*
D15*
G36*
X113905142Y-73076174D02*
G01*
X113928803Y-73079684D01*
X113952007Y-73085496D01*
X113974529Y-73093554D01*
X113996153Y-73103782D01*
X114016670Y-73116079D01*
X114035883Y-73130329D01*
X114053607Y-73146393D01*
X114069671Y-73164117D01*
X114083921Y-73183330D01*
X114096218Y-73203847D01*
X114106446Y-73225471D01*
X114114504Y-73247993D01*
X114120316Y-73271197D01*
X114123826Y-73294858D01*
X114125000Y-73318750D01*
X114125000Y-74231250D01*
X114123826Y-74255142D01*
X114120316Y-74278803D01*
X114114504Y-74302007D01*
X114106446Y-74324529D01*
X114096218Y-74346153D01*
X114083921Y-74366670D01*
X114069671Y-74385883D01*
X114053607Y-74403607D01*
X114035883Y-74419671D01*
X114016670Y-74433921D01*
X113996153Y-74446218D01*
X113974529Y-74456446D01*
X113952007Y-74464504D01*
X113928803Y-74470316D01*
X113905142Y-74473826D01*
X113881250Y-74475000D01*
X113393750Y-74475000D01*
X113369858Y-74473826D01*
X113346197Y-74470316D01*
X113322993Y-74464504D01*
X113300471Y-74456446D01*
X113278847Y-74446218D01*
X113258330Y-74433921D01*
X113239117Y-74419671D01*
X113221393Y-74403607D01*
X113205329Y-74385883D01*
X113191079Y-74366670D01*
X113178782Y-74346153D01*
X113168554Y-74324529D01*
X113160496Y-74302007D01*
X113154684Y-74278803D01*
X113151174Y-74255142D01*
X113150000Y-74231250D01*
X113150000Y-73318750D01*
X113151174Y-73294858D01*
X113154684Y-73271197D01*
X113160496Y-73247993D01*
X113168554Y-73225471D01*
X113178782Y-73203847D01*
X113191079Y-73183330D01*
X113205329Y-73164117D01*
X113221393Y-73146393D01*
X113239117Y-73130329D01*
X113258330Y-73116079D01*
X113278847Y-73103782D01*
X113300471Y-73093554D01*
X113322993Y-73085496D01*
X113346197Y-73079684D01*
X113369858Y-73076174D01*
X113393750Y-73075000D01*
X113881250Y-73075000D01*
X113905142Y-73076174D01*
X113905142Y-73076174D01*
G37*
D16*
X113637500Y-73775000D03*
D15*
G36*
X115780142Y-73076174D02*
G01*
X115803803Y-73079684D01*
X115827007Y-73085496D01*
X115849529Y-73093554D01*
X115871153Y-73103782D01*
X115891670Y-73116079D01*
X115910883Y-73130329D01*
X115928607Y-73146393D01*
X115944671Y-73164117D01*
X115958921Y-73183330D01*
X115971218Y-73203847D01*
X115981446Y-73225471D01*
X115989504Y-73247993D01*
X115995316Y-73271197D01*
X115998826Y-73294858D01*
X116000000Y-73318750D01*
X116000000Y-74231250D01*
X115998826Y-74255142D01*
X115995316Y-74278803D01*
X115989504Y-74302007D01*
X115981446Y-74324529D01*
X115971218Y-74346153D01*
X115958921Y-74366670D01*
X115944671Y-74385883D01*
X115928607Y-74403607D01*
X115910883Y-74419671D01*
X115891670Y-74433921D01*
X115871153Y-74446218D01*
X115849529Y-74456446D01*
X115827007Y-74464504D01*
X115803803Y-74470316D01*
X115780142Y-74473826D01*
X115756250Y-74475000D01*
X115268750Y-74475000D01*
X115244858Y-74473826D01*
X115221197Y-74470316D01*
X115197993Y-74464504D01*
X115175471Y-74456446D01*
X115153847Y-74446218D01*
X115133330Y-74433921D01*
X115114117Y-74419671D01*
X115096393Y-74403607D01*
X115080329Y-74385883D01*
X115066079Y-74366670D01*
X115053782Y-74346153D01*
X115043554Y-74324529D01*
X115035496Y-74302007D01*
X115029684Y-74278803D01*
X115026174Y-74255142D01*
X115025000Y-74231250D01*
X115025000Y-73318750D01*
X115026174Y-73294858D01*
X115029684Y-73271197D01*
X115035496Y-73247993D01*
X115043554Y-73225471D01*
X115053782Y-73203847D01*
X115066079Y-73183330D01*
X115080329Y-73164117D01*
X115096393Y-73146393D01*
X115114117Y-73130329D01*
X115133330Y-73116079D01*
X115153847Y-73103782D01*
X115175471Y-73093554D01*
X115197993Y-73085496D01*
X115221197Y-73079684D01*
X115244858Y-73076174D01*
X115268750Y-73075000D01*
X115756250Y-73075000D01*
X115780142Y-73076174D01*
X115780142Y-73076174D01*
G37*
D16*
X115512500Y-73775000D03*
D15*
G36*
X108930142Y-84476174D02*
G01*
X108953803Y-84479684D01*
X108977007Y-84485496D01*
X108999529Y-84493554D01*
X109021153Y-84503782D01*
X109041670Y-84516079D01*
X109060883Y-84530329D01*
X109078607Y-84546393D01*
X109094671Y-84564117D01*
X109108921Y-84583330D01*
X109121218Y-84603847D01*
X109131446Y-84625471D01*
X109139504Y-84647993D01*
X109145316Y-84671197D01*
X109148826Y-84694858D01*
X109150000Y-84718750D01*
X109150000Y-85631250D01*
X109148826Y-85655142D01*
X109145316Y-85678803D01*
X109139504Y-85702007D01*
X109131446Y-85724529D01*
X109121218Y-85746153D01*
X109108921Y-85766670D01*
X109094671Y-85785883D01*
X109078607Y-85803607D01*
X109060883Y-85819671D01*
X109041670Y-85833921D01*
X109021153Y-85846218D01*
X108999529Y-85856446D01*
X108977007Y-85864504D01*
X108953803Y-85870316D01*
X108930142Y-85873826D01*
X108906250Y-85875000D01*
X108418750Y-85875000D01*
X108394858Y-85873826D01*
X108371197Y-85870316D01*
X108347993Y-85864504D01*
X108325471Y-85856446D01*
X108303847Y-85846218D01*
X108283330Y-85833921D01*
X108264117Y-85819671D01*
X108246393Y-85803607D01*
X108230329Y-85785883D01*
X108216079Y-85766670D01*
X108203782Y-85746153D01*
X108193554Y-85724529D01*
X108185496Y-85702007D01*
X108179684Y-85678803D01*
X108176174Y-85655142D01*
X108175000Y-85631250D01*
X108175000Y-84718750D01*
X108176174Y-84694858D01*
X108179684Y-84671197D01*
X108185496Y-84647993D01*
X108193554Y-84625471D01*
X108203782Y-84603847D01*
X108216079Y-84583330D01*
X108230329Y-84564117D01*
X108246393Y-84546393D01*
X108264117Y-84530329D01*
X108283330Y-84516079D01*
X108303847Y-84503782D01*
X108325471Y-84493554D01*
X108347993Y-84485496D01*
X108371197Y-84479684D01*
X108394858Y-84476174D01*
X108418750Y-84475000D01*
X108906250Y-84475000D01*
X108930142Y-84476174D01*
X108930142Y-84476174D01*
G37*
D16*
X108662500Y-85175000D03*
D15*
G36*
X110805142Y-84476174D02*
G01*
X110828803Y-84479684D01*
X110852007Y-84485496D01*
X110874529Y-84493554D01*
X110896153Y-84503782D01*
X110916670Y-84516079D01*
X110935883Y-84530329D01*
X110953607Y-84546393D01*
X110969671Y-84564117D01*
X110983921Y-84583330D01*
X110996218Y-84603847D01*
X111006446Y-84625471D01*
X111014504Y-84647993D01*
X111020316Y-84671197D01*
X111023826Y-84694858D01*
X111025000Y-84718750D01*
X111025000Y-85631250D01*
X111023826Y-85655142D01*
X111020316Y-85678803D01*
X111014504Y-85702007D01*
X111006446Y-85724529D01*
X110996218Y-85746153D01*
X110983921Y-85766670D01*
X110969671Y-85785883D01*
X110953607Y-85803607D01*
X110935883Y-85819671D01*
X110916670Y-85833921D01*
X110896153Y-85846218D01*
X110874529Y-85856446D01*
X110852007Y-85864504D01*
X110828803Y-85870316D01*
X110805142Y-85873826D01*
X110781250Y-85875000D01*
X110293750Y-85875000D01*
X110269858Y-85873826D01*
X110246197Y-85870316D01*
X110222993Y-85864504D01*
X110200471Y-85856446D01*
X110178847Y-85846218D01*
X110158330Y-85833921D01*
X110139117Y-85819671D01*
X110121393Y-85803607D01*
X110105329Y-85785883D01*
X110091079Y-85766670D01*
X110078782Y-85746153D01*
X110068554Y-85724529D01*
X110060496Y-85702007D01*
X110054684Y-85678803D01*
X110051174Y-85655142D01*
X110050000Y-85631250D01*
X110050000Y-84718750D01*
X110051174Y-84694858D01*
X110054684Y-84671197D01*
X110060496Y-84647993D01*
X110068554Y-84625471D01*
X110078782Y-84603847D01*
X110091079Y-84583330D01*
X110105329Y-84564117D01*
X110121393Y-84546393D01*
X110139117Y-84530329D01*
X110158330Y-84516079D01*
X110178847Y-84503782D01*
X110200471Y-84493554D01*
X110222993Y-84485496D01*
X110246197Y-84479684D01*
X110269858Y-84476174D01*
X110293750Y-84475000D01*
X110781250Y-84475000D01*
X110805142Y-84476174D01*
X110805142Y-84476174D01*
G37*
D16*
X110537500Y-85175000D03*
D15*
G36*
X130646742Y-60389774D02*
G01*
X130670403Y-60393284D01*
X130693607Y-60399096D01*
X130716129Y-60407154D01*
X130737753Y-60417382D01*
X130758270Y-60429679D01*
X130777483Y-60443929D01*
X130795207Y-60459993D01*
X130811271Y-60477717D01*
X130825521Y-60496930D01*
X130837818Y-60517447D01*
X130848046Y-60539071D01*
X130856104Y-60561593D01*
X130861916Y-60584797D01*
X130865426Y-60608458D01*
X130866600Y-60632350D01*
X130866600Y-61544850D01*
X130865426Y-61568742D01*
X130861916Y-61592403D01*
X130856104Y-61615607D01*
X130848046Y-61638129D01*
X130837818Y-61659753D01*
X130825521Y-61680270D01*
X130811271Y-61699483D01*
X130795207Y-61717207D01*
X130777483Y-61733271D01*
X130758270Y-61747521D01*
X130737753Y-61759818D01*
X130716129Y-61770046D01*
X130693607Y-61778104D01*
X130670403Y-61783916D01*
X130646742Y-61787426D01*
X130622850Y-61788600D01*
X130135350Y-61788600D01*
X130111458Y-61787426D01*
X130087797Y-61783916D01*
X130064593Y-61778104D01*
X130042071Y-61770046D01*
X130020447Y-61759818D01*
X129999930Y-61747521D01*
X129980717Y-61733271D01*
X129962993Y-61717207D01*
X129946929Y-61699483D01*
X129932679Y-61680270D01*
X129920382Y-61659753D01*
X129910154Y-61638129D01*
X129902096Y-61615607D01*
X129896284Y-61592403D01*
X129892774Y-61568742D01*
X129891600Y-61544850D01*
X129891600Y-60632350D01*
X129892774Y-60608458D01*
X129896284Y-60584797D01*
X129902096Y-60561593D01*
X129910154Y-60539071D01*
X129920382Y-60517447D01*
X129932679Y-60496930D01*
X129946929Y-60477717D01*
X129962993Y-60459993D01*
X129980717Y-60443929D01*
X129999930Y-60429679D01*
X130020447Y-60417382D01*
X130042071Y-60407154D01*
X130064593Y-60399096D01*
X130087797Y-60393284D01*
X130111458Y-60389774D01*
X130135350Y-60388600D01*
X130622850Y-60388600D01*
X130646742Y-60389774D01*
X130646742Y-60389774D01*
G37*
D16*
X130379100Y-61088600D03*
D15*
G36*
X132521742Y-60389774D02*
G01*
X132545403Y-60393284D01*
X132568607Y-60399096D01*
X132591129Y-60407154D01*
X132612753Y-60417382D01*
X132633270Y-60429679D01*
X132652483Y-60443929D01*
X132670207Y-60459993D01*
X132686271Y-60477717D01*
X132700521Y-60496930D01*
X132712818Y-60517447D01*
X132723046Y-60539071D01*
X132731104Y-60561593D01*
X132736916Y-60584797D01*
X132740426Y-60608458D01*
X132741600Y-60632350D01*
X132741600Y-61544850D01*
X132740426Y-61568742D01*
X132736916Y-61592403D01*
X132731104Y-61615607D01*
X132723046Y-61638129D01*
X132712818Y-61659753D01*
X132700521Y-61680270D01*
X132686271Y-61699483D01*
X132670207Y-61717207D01*
X132652483Y-61733271D01*
X132633270Y-61747521D01*
X132612753Y-61759818D01*
X132591129Y-61770046D01*
X132568607Y-61778104D01*
X132545403Y-61783916D01*
X132521742Y-61787426D01*
X132497850Y-61788600D01*
X132010350Y-61788600D01*
X131986458Y-61787426D01*
X131962797Y-61783916D01*
X131939593Y-61778104D01*
X131917071Y-61770046D01*
X131895447Y-61759818D01*
X131874930Y-61747521D01*
X131855717Y-61733271D01*
X131837993Y-61717207D01*
X131821929Y-61699483D01*
X131807679Y-61680270D01*
X131795382Y-61659753D01*
X131785154Y-61638129D01*
X131777096Y-61615607D01*
X131771284Y-61592403D01*
X131767774Y-61568742D01*
X131766600Y-61544850D01*
X131766600Y-60632350D01*
X131767774Y-60608458D01*
X131771284Y-60584797D01*
X131777096Y-60561593D01*
X131785154Y-60539071D01*
X131795382Y-60517447D01*
X131807679Y-60496930D01*
X131821929Y-60477717D01*
X131837993Y-60459993D01*
X131855717Y-60443929D01*
X131874930Y-60429679D01*
X131895447Y-60417382D01*
X131917071Y-60407154D01*
X131939593Y-60399096D01*
X131962797Y-60393284D01*
X131986458Y-60389774D01*
X132010350Y-60388600D01*
X132497850Y-60388600D01*
X132521742Y-60389774D01*
X132521742Y-60389774D01*
G37*
D16*
X132254100Y-61088600D03*
D15*
G36*
X130646742Y-62389774D02*
G01*
X130670403Y-62393284D01*
X130693607Y-62399096D01*
X130716129Y-62407154D01*
X130737753Y-62417382D01*
X130758270Y-62429679D01*
X130777483Y-62443929D01*
X130795207Y-62459993D01*
X130811271Y-62477717D01*
X130825521Y-62496930D01*
X130837818Y-62517447D01*
X130848046Y-62539071D01*
X130856104Y-62561593D01*
X130861916Y-62584797D01*
X130865426Y-62608458D01*
X130866600Y-62632350D01*
X130866600Y-63544850D01*
X130865426Y-63568742D01*
X130861916Y-63592403D01*
X130856104Y-63615607D01*
X130848046Y-63638129D01*
X130837818Y-63659753D01*
X130825521Y-63680270D01*
X130811271Y-63699483D01*
X130795207Y-63717207D01*
X130777483Y-63733271D01*
X130758270Y-63747521D01*
X130737753Y-63759818D01*
X130716129Y-63770046D01*
X130693607Y-63778104D01*
X130670403Y-63783916D01*
X130646742Y-63787426D01*
X130622850Y-63788600D01*
X130135350Y-63788600D01*
X130111458Y-63787426D01*
X130087797Y-63783916D01*
X130064593Y-63778104D01*
X130042071Y-63770046D01*
X130020447Y-63759818D01*
X129999930Y-63747521D01*
X129980717Y-63733271D01*
X129962993Y-63717207D01*
X129946929Y-63699483D01*
X129932679Y-63680270D01*
X129920382Y-63659753D01*
X129910154Y-63638129D01*
X129902096Y-63615607D01*
X129896284Y-63592403D01*
X129892774Y-63568742D01*
X129891600Y-63544850D01*
X129891600Y-62632350D01*
X129892774Y-62608458D01*
X129896284Y-62584797D01*
X129902096Y-62561593D01*
X129910154Y-62539071D01*
X129920382Y-62517447D01*
X129932679Y-62496930D01*
X129946929Y-62477717D01*
X129962993Y-62459993D01*
X129980717Y-62443929D01*
X129999930Y-62429679D01*
X130020447Y-62417382D01*
X130042071Y-62407154D01*
X130064593Y-62399096D01*
X130087797Y-62393284D01*
X130111458Y-62389774D01*
X130135350Y-62388600D01*
X130622850Y-62388600D01*
X130646742Y-62389774D01*
X130646742Y-62389774D01*
G37*
D16*
X130379100Y-63088600D03*
D15*
G36*
X132521742Y-62389774D02*
G01*
X132545403Y-62393284D01*
X132568607Y-62399096D01*
X132591129Y-62407154D01*
X132612753Y-62417382D01*
X132633270Y-62429679D01*
X132652483Y-62443929D01*
X132670207Y-62459993D01*
X132686271Y-62477717D01*
X132700521Y-62496930D01*
X132712818Y-62517447D01*
X132723046Y-62539071D01*
X132731104Y-62561593D01*
X132736916Y-62584797D01*
X132740426Y-62608458D01*
X132741600Y-62632350D01*
X132741600Y-63544850D01*
X132740426Y-63568742D01*
X132736916Y-63592403D01*
X132731104Y-63615607D01*
X132723046Y-63638129D01*
X132712818Y-63659753D01*
X132700521Y-63680270D01*
X132686271Y-63699483D01*
X132670207Y-63717207D01*
X132652483Y-63733271D01*
X132633270Y-63747521D01*
X132612753Y-63759818D01*
X132591129Y-63770046D01*
X132568607Y-63778104D01*
X132545403Y-63783916D01*
X132521742Y-63787426D01*
X132497850Y-63788600D01*
X132010350Y-63788600D01*
X131986458Y-63787426D01*
X131962797Y-63783916D01*
X131939593Y-63778104D01*
X131917071Y-63770046D01*
X131895447Y-63759818D01*
X131874930Y-63747521D01*
X131855717Y-63733271D01*
X131837993Y-63717207D01*
X131821929Y-63699483D01*
X131807679Y-63680270D01*
X131795382Y-63659753D01*
X131785154Y-63638129D01*
X131777096Y-63615607D01*
X131771284Y-63592403D01*
X131767774Y-63568742D01*
X131766600Y-63544850D01*
X131766600Y-62632350D01*
X131767774Y-62608458D01*
X131771284Y-62584797D01*
X131777096Y-62561593D01*
X131785154Y-62539071D01*
X131795382Y-62517447D01*
X131807679Y-62496930D01*
X131821929Y-62477717D01*
X131837993Y-62459993D01*
X131855717Y-62443929D01*
X131874930Y-62429679D01*
X131895447Y-62417382D01*
X131917071Y-62407154D01*
X131939593Y-62399096D01*
X131962797Y-62393284D01*
X131986458Y-62389774D01*
X132010350Y-62388600D01*
X132497850Y-62388600D01*
X132521742Y-62389774D01*
X132521742Y-62389774D01*
G37*
D16*
X132254100Y-63088600D03*
M02*
