G04 #@! TF.GenerationSoftware,KiCad,Pcbnew,(5.1.4)-1*
G04 #@! TF.CreationDate,2020-03-06T17:00:34+01:00*
G04 #@! TF.ProjectId,asserv_dc,61737365-7276-45f6-9463-2e6b69636164,rev?*
G04 #@! TF.SameCoordinates,Original*
G04 #@! TF.FileFunction,Soldermask,Top*
G04 #@! TF.FilePolarity,Negative*
%FSLAX46Y46*%
G04 Gerber Fmt 4.6, Leading zero omitted, Abs format (unit mm)*
G04 Created by KiCad (PCBNEW (5.1.4)-1) date 2020-03-06 17:00:34*
%MOMM*%
%LPD*%
G04 APERTURE LIST*
%ADD10C,0.100000*%
G04 APERTURE END LIST*
D10*
G36*
X135134239Y-98311467D02*
G01*
X135448282Y-98373934D01*
X136039926Y-98619001D01*
X136572392Y-98974784D01*
X137025216Y-99427608D01*
X137380999Y-99960074D01*
X137626066Y-100551718D01*
X137751000Y-101179804D01*
X137751000Y-101820196D01*
X137626066Y-102448282D01*
X137380999Y-103039926D01*
X137025216Y-103572392D01*
X136572392Y-104025216D01*
X136039926Y-104380999D01*
X135448282Y-104626066D01*
X135134239Y-104688533D01*
X134820197Y-104751000D01*
X134179803Y-104751000D01*
X133865761Y-104688533D01*
X133551718Y-104626066D01*
X132960074Y-104380999D01*
X132427608Y-104025216D01*
X131974784Y-103572392D01*
X131619001Y-103039926D01*
X131373934Y-102448282D01*
X131249000Y-101820196D01*
X131249000Y-101179804D01*
X131373934Y-100551718D01*
X131619001Y-99960074D01*
X131974784Y-99427608D01*
X132427608Y-98974784D01*
X132960074Y-98619001D01*
X133551718Y-98373934D01*
X133865761Y-98311467D01*
X134179803Y-98249000D01*
X134820197Y-98249000D01*
X135134239Y-98311467D01*
X135134239Y-98311467D01*
G37*
G36*
X54134239Y-98311467D02*
G01*
X54448282Y-98373934D01*
X55039926Y-98619001D01*
X55572392Y-98974784D01*
X56025216Y-99427608D01*
X56380999Y-99960074D01*
X56626066Y-100551718D01*
X56751000Y-101179804D01*
X56751000Y-101820196D01*
X56626066Y-102448282D01*
X56380999Y-103039926D01*
X56025216Y-103572392D01*
X55572392Y-104025216D01*
X55039926Y-104380999D01*
X54448282Y-104626066D01*
X54134239Y-104688533D01*
X53820197Y-104751000D01*
X53179803Y-104751000D01*
X52865761Y-104688533D01*
X52551718Y-104626066D01*
X51960074Y-104380999D01*
X51427608Y-104025216D01*
X50974784Y-103572392D01*
X50619001Y-103039926D01*
X50373934Y-102448282D01*
X50249000Y-101820196D01*
X50249000Y-101179804D01*
X50373934Y-100551718D01*
X50619001Y-99960074D01*
X50974784Y-99427608D01*
X51427608Y-98974784D01*
X51960074Y-98619001D01*
X52551718Y-98373934D01*
X52865761Y-98311467D01*
X53179803Y-98249000D01*
X53820197Y-98249000D01*
X54134239Y-98311467D01*
X54134239Y-98311467D01*
G37*
G36*
X109234810Y-101645935D02*
G01*
X109381309Y-101706617D01*
X109381310Y-101706618D01*
X109513158Y-101794716D01*
X109625284Y-101906842D01*
X109625285Y-101906844D01*
X109713383Y-102038691D01*
X109774065Y-102185190D01*
X109805000Y-102340713D01*
X109805000Y-102499287D01*
X109774065Y-102654810D01*
X109713383Y-102801309D01*
X109713382Y-102801310D01*
X109625284Y-102933158D01*
X109513158Y-103045284D01*
X109446785Y-103089633D01*
X109381309Y-103133383D01*
X109234810Y-103194065D01*
X109079287Y-103225000D01*
X108920713Y-103225000D01*
X108765190Y-103194065D01*
X108618691Y-103133383D01*
X108553215Y-103089633D01*
X108486842Y-103045284D01*
X108374716Y-102933158D01*
X108286618Y-102801310D01*
X108286617Y-102801309D01*
X108225935Y-102654810D01*
X108195000Y-102499287D01*
X108195000Y-102340713D01*
X108225935Y-102185190D01*
X108286617Y-102038691D01*
X108374715Y-101906844D01*
X108374716Y-101906842D01*
X108486842Y-101794716D01*
X108618690Y-101706618D01*
X108618691Y-101706617D01*
X108765190Y-101645935D01*
X108920713Y-101615000D01*
X109079287Y-101615000D01*
X109234810Y-101645935D01*
X109234810Y-101645935D01*
G37*
G36*
X79805000Y-103205000D02*
G01*
X78195000Y-103205000D01*
X78195000Y-101595000D01*
X79805000Y-101595000D01*
X79805000Y-103205000D01*
X79805000Y-103205000D01*
G37*
G36*
X109234810Y-99105935D02*
G01*
X109381309Y-99166617D01*
X109381310Y-99166618D01*
X109513158Y-99254716D01*
X109625284Y-99366842D01*
X109625285Y-99366844D01*
X109713383Y-99498691D01*
X109774065Y-99645190D01*
X109805000Y-99800713D01*
X109805000Y-99959287D01*
X109774065Y-100114810D01*
X109713383Y-100261309D01*
X109713382Y-100261310D01*
X109625284Y-100393158D01*
X109513158Y-100505284D01*
X109446785Y-100549633D01*
X109381309Y-100593383D01*
X109234810Y-100654065D01*
X109079287Y-100685000D01*
X108920713Y-100685000D01*
X108765190Y-100654065D01*
X108618691Y-100593383D01*
X108553215Y-100549633D01*
X108486842Y-100505284D01*
X108374716Y-100393158D01*
X108286618Y-100261310D01*
X108286617Y-100261309D01*
X108225935Y-100114810D01*
X108195000Y-99959287D01*
X108195000Y-99800713D01*
X108225935Y-99645190D01*
X108286617Y-99498691D01*
X108374715Y-99366844D01*
X108374716Y-99366842D01*
X108486842Y-99254716D01*
X108618690Y-99166618D01*
X108618691Y-99166617D01*
X108765190Y-99105935D01*
X108920713Y-99075000D01*
X109079287Y-99075000D01*
X109234810Y-99105935D01*
X109234810Y-99105935D01*
G37*
G36*
X79234810Y-99085935D02*
G01*
X79381309Y-99146617D01*
X79381310Y-99146618D01*
X79513158Y-99234716D01*
X79625284Y-99346842D01*
X79638649Y-99366844D01*
X79713383Y-99478691D01*
X79774065Y-99625190D01*
X79805000Y-99780713D01*
X79805000Y-99939287D01*
X79774065Y-100094810D01*
X79713383Y-100241309D01*
X79669633Y-100306785D01*
X79625284Y-100373158D01*
X79513158Y-100485284D01*
X79483226Y-100505284D01*
X79381309Y-100573383D01*
X79234810Y-100634065D01*
X79079287Y-100665000D01*
X78920713Y-100665000D01*
X78765190Y-100634065D01*
X78618691Y-100573383D01*
X78516774Y-100505284D01*
X78486842Y-100485284D01*
X78374716Y-100373158D01*
X78330367Y-100306785D01*
X78286617Y-100241309D01*
X78225935Y-100094810D01*
X78195000Y-99939287D01*
X78195000Y-99780713D01*
X78225935Y-99625190D01*
X78286617Y-99478691D01*
X78361351Y-99366844D01*
X78374716Y-99346842D01*
X78486842Y-99234716D01*
X78618690Y-99146618D01*
X78618691Y-99146617D01*
X78765190Y-99085935D01*
X78920713Y-99055000D01*
X79079287Y-99055000D01*
X79234810Y-99085935D01*
X79234810Y-99085935D01*
G37*
G36*
X109234810Y-96565935D02*
G01*
X109381309Y-96626617D01*
X109381310Y-96626618D01*
X109513158Y-96714716D01*
X109625284Y-96826842D01*
X109625285Y-96826844D01*
X109713383Y-96958691D01*
X109774065Y-97105190D01*
X109805000Y-97260713D01*
X109805000Y-97419287D01*
X109774065Y-97574810D01*
X109713383Y-97721309D01*
X109713382Y-97721310D01*
X109625284Y-97853158D01*
X109513158Y-97965284D01*
X109446785Y-98009633D01*
X109381309Y-98053383D01*
X109234810Y-98114065D01*
X109079287Y-98145000D01*
X108920713Y-98145000D01*
X108765190Y-98114065D01*
X108618691Y-98053383D01*
X108553215Y-98009633D01*
X108486842Y-97965284D01*
X108374716Y-97853158D01*
X108286618Y-97721310D01*
X108286617Y-97721309D01*
X108225935Y-97574810D01*
X108195000Y-97419287D01*
X108195000Y-97260713D01*
X108225935Y-97105190D01*
X108286617Y-96958691D01*
X108374715Y-96826844D01*
X108374716Y-96826842D01*
X108486842Y-96714716D01*
X108618690Y-96626618D01*
X108618691Y-96626617D01*
X108765190Y-96565935D01*
X108920713Y-96535000D01*
X109079287Y-96535000D01*
X109234810Y-96565935D01*
X109234810Y-96565935D01*
G37*
G36*
X79234810Y-96545935D02*
G01*
X79381309Y-96606617D01*
X79381310Y-96606618D01*
X79513158Y-96694716D01*
X79625284Y-96806842D01*
X79638649Y-96826844D01*
X79713383Y-96938691D01*
X79774065Y-97085190D01*
X79805000Y-97240713D01*
X79805000Y-97399287D01*
X79774065Y-97554810D01*
X79713383Y-97701309D01*
X79669633Y-97766785D01*
X79625284Y-97833158D01*
X79513158Y-97945284D01*
X79483226Y-97965284D01*
X79381309Y-98033383D01*
X79234810Y-98094065D01*
X79079287Y-98125000D01*
X78920713Y-98125000D01*
X78765190Y-98094065D01*
X78618691Y-98033383D01*
X78516774Y-97965284D01*
X78486842Y-97945284D01*
X78374716Y-97833158D01*
X78330367Y-97766785D01*
X78286617Y-97701309D01*
X78225935Y-97554810D01*
X78195000Y-97399287D01*
X78195000Y-97240713D01*
X78225935Y-97085190D01*
X78286617Y-96938691D01*
X78361351Y-96826844D01*
X78374716Y-96806842D01*
X78486842Y-96694716D01*
X78618690Y-96606618D01*
X78618691Y-96606617D01*
X78765190Y-96545935D01*
X78920713Y-96515000D01*
X79079287Y-96515000D01*
X79234810Y-96545935D01*
X79234810Y-96545935D01*
G37*
G36*
X101868228Y-95711703D02*
G01*
X102023100Y-95775853D01*
X102162481Y-95868985D01*
X102281015Y-95987519D01*
X102374147Y-96126900D01*
X102438297Y-96281772D01*
X102471000Y-96446184D01*
X102471000Y-96613816D01*
X102438297Y-96778228D01*
X102374147Y-96933100D01*
X102281015Y-97072481D01*
X102162481Y-97191015D01*
X102023100Y-97284147D01*
X101868228Y-97348297D01*
X101703816Y-97381000D01*
X101536184Y-97381000D01*
X101371772Y-97348297D01*
X101216900Y-97284147D01*
X101077519Y-97191015D01*
X100958985Y-97072481D01*
X100865853Y-96933100D01*
X100801703Y-96778228D01*
X100769000Y-96613816D01*
X100769000Y-96446184D01*
X100801703Y-96281772D01*
X100865853Y-96126900D01*
X100958985Y-95987519D01*
X101077519Y-95868985D01*
X101216900Y-95775853D01*
X101371772Y-95711703D01*
X101536184Y-95679000D01*
X101703816Y-95679000D01*
X101868228Y-95711703D01*
X101868228Y-95711703D01*
G37*
G36*
X86628228Y-95711703D02*
G01*
X86783100Y-95775853D01*
X86922481Y-95868985D01*
X87041015Y-95987519D01*
X87134147Y-96126900D01*
X87198297Y-96281772D01*
X87231000Y-96446184D01*
X87231000Y-96613816D01*
X87198297Y-96778228D01*
X87134147Y-96933100D01*
X87041015Y-97072481D01*
X86922481Y-97191015D01*
X86783100Y-97284147D01*
X86628228Y-97348297D01*
X86463816Y-97381000D01*
X86296184Y-97381000D01*
X86131772Y-97348297D01*
X85976900Y-97284147D01*
X85837519Y-97191015D01*
X85718985Y-97072481D01*
X85625853Y-96933100D01*
X85561703Y-96778228D01*
X85529000Y-96613816D01*
X85529000Y-96446184D01*
X85561703Y-96281772D01*
X85625853Y-96126900D01*
X85718985Y-95987519D01*
X85837519Y-95868985D01*
X85976900Y-95775853D01*
X86131772Y-95711703D01*
X86296184Y-95679000D01*
X86463816Y-95679000D01*
X86628228Y-95711703D01*
X86628228Y-95711703D01*
G37*
G36*
X109805000Y-95605000D02*
G01*
X108195000Y-95605000D01*
X108195000Y-93995000D01*
X109805000Y-93995000D01*
X109805000Y-95605000D01*
X109805000Y-95605000D01*
G37*
G36*
X79234810Y-94005935D02*
G01*
X79381309Y-94066617D01*
X79381310Y-94066618D01*
X79513158Y-94154716D01*
X79625284Y-94266842D01*
X79625285Y-94266844D01*
X79713383Y-94398691D01*
X79774065Y-94545190D01*
X79805000Y-94700713D01*
X79805000Y-94859287D01*
X79774065Y-95014810D01*
X79713383Y-95161309D01*
X79713382Y-95161310D01*
X79625284Y-95293158D01*
X79513158Y-95405284D01*
X79446785Y-95449633D01*
X79381309Y-95493383D01*
X79234810Y-95554065D01*
X79079287Y-95585000D01*
X78920713Y-95585000D01*
X78765190Y-95554065D01*
X78618691Y-95493383D01*
X78553215Y-95449633D01*
X78486842Y-95405284D01*
X78374716Y-95293158D01*
X78286618Y-95161310D01*
X78286617Y-95161309D01*
X78225935Y-95014810D01*
X78195000Y-94859287D01*
X78195000Y-94700713D01*
X78225935Y-94545190D01*
X78286617Y-94398691D01*
X78374715Y-94266844D01*
X78374716Y-94266842D01*
X78486842Y-94154716D01*
X78618690Y-94066618D01*
X78618691Y-94066617D01*
X78765190Y-94005935D01*
X78920713Y-93975000D01*
X79079287Y-93975000D01*
X79234810Y-94005935D01*
X79234810Y-94005935D01*
G37*
G36*
X86628228Y-93171703D02*
G01*
X86783100Y-93235853D01*
X86922481Y-93328985D01*
X87041015Y-93447519D01*
X87134147Y-93586900D01*
X87198297Y-93741772D01*
X87231000Y-93906184D01*
X87231000Y-94073816D01*
X87198297Y-94238228D01*
X87134147Y-94393100D01*
X87041015Y-94532481D01*
X86922481Y-94651015D01*
X86783100Y-94744147D01*
X86628228Y-94808297D01*
X86463816Y-94841000D01*
X86296184Y-94841000D01*
X86131772Y-94808297D01*
X85976900Y-94744147D01*
X85837519Y-94651015D01*
X85718985Y-94532481D01*
X85625853Y-94393100D01*
X85561703Y-94238228D01*
X85529000Y-94073816D01*
X85529000Y-93906184D01*
X85561703Y-93741772D01*
X85625853Y-93586900D01*
X85718985Y-93447519D01*
X85837519Y-93328985D01*
X85976900Y-93235853D01*
X86131772Y-93171703D01*
X86296184Y-93139000D01*
X86463816Y-93139000D01*
X86628228Y-93171703D01*
X86628228Y-93171703D01*
G37*
G36*
X101868228Y-93171703D02*
G01*
X102023100Y-93235853D01*
X102162481Y-93328985D01*
X102281015Y-93447519D01*
X102374147Y-93586900D01*
X102438297Y-93741772D01*
X102471000Y-93906184D01*
X102471000Y-94073816D01*
X102438297Y-94238228D01*
X102374147Y-94393100D01*
X102281015Y-94532481D01*
X102162481Y-94651015D01*
X102023100Y-94744147D01*
X101868228Y-94808297D01*
X101703816Y-94841000D01*
X101536184Y-94841000D01*
X101371772Y-94808297D01*
X101216900Y-94744147D01*
X101077519Y-94651015D01*
X100958985Y-94532481D01*
X100865853Y-94393100D01*
X100801703Y-94238228D01*
X100769000Y-94073816D01*
X100769000Y-93906184D01*
X100801703Y-93741772D01*
X100865853Y-93586900D01*
X100958985Y-93447519D01*
X101077519Y-93328985D01*
X101216900Y-93235853D01*
X101371772Y-93171703D01*
X101536184Y-93139000D01*
X101703816Y-93139000D01*
X101868228Y-93171703D01*
X101868228Y-93171703D01*
G37*
G36*
X114951000Y-93231000D02*
G01*
X113499000Y-93231000D01*
X113499000Y-78469000D01*
X114951000Y-78469000D01*
X114951000Y-93231000D01*
X114951000Y-93231000D01*
G37*
G36*
X133201000Y-93231000D02*
G01*
X131749000Y-93231000D01*
X131749000Y-78469000D01*
X133201000Y-78469000D01*
X133201000Y-93231000D01*
X133201000Y-93231000D01*
G37*
G36*
X56251000Y-93231000D02*
G01*
X54799000Y-93231000D01*
X54799000Y-78469000D01*
X56251000Y-78469000D01*
X56251000Y-93231000D01*
X56251000Y-93231000D01*
G37*
G36*
X74501000Y-93231000D02*
G01*
X73049000Y-93231000D01*
X73049000Y-78469000D01*
X74501000Y-78469000D01*
X74501000Y-93231000D01*
X74501000Y-93231000D01*
G37*
G36*
X129076000Y-93181000D02*
G01*
X123724000Y-93181000D01*
X123724000Y-86849000D01*
X129076000Y-86849000D01*
X129076000Y-93181000D01*
X129076000Y-93181000D01*
G37*
G36*
X64276000Y-93181000D02*
G01*
X58924000Y-93181000D01*
X58924000Y-86849000D01*
X64276000Y-86849000D01*
X64276000Y-93181000D01*
X64276000Y-93181000D01*
G37*
G36*
X86628228Y-90631703D02*
G01*
X86783100Y-90695853D01*
X86922481Y-90788985D01*
X87041015Y-90907519D01*
X87134147Y-91046900D01*
X87198297Y-91201772D01*
X87231000Y-91366184D01*
X87231000Y-91533816D01*
X87198297Y-91698228D01*
X87134147Y-91853100D01*
X87041015Y-91992481D01*
X86922481Y-92111015D01*
X86783100Y-92204147D01*
X86628228Y-92268297D01*
X86463816Y-92301000D01*
X86296184Y-92301000D01*
X86131772Y-92268297D01*
X85976900Y-92204147D01*
X85837519Y-92111015D01*
X85718985Y-91992481D01*
X85625853Y-91853100D01*
X85561703Y-91698228D01*
X85529000Y-91533816D01*
X85529000Y-91366184D01*
X85561703Y-91201772D01*
X85625853Y-91046900D01*
X85718985Y-90907519D01*
X85837519Y-90788985D01*
X85976900Y-90695853D01*
X86131772Y-90631703D01*
X86296184Y-90599000D01*
X86463816Y-90599000D01*
X86628228Y-90631703D01*
X86628228Y-90631703D01*
G37*
G36*
X101868228Y-90631703D02*
G01*
X102023100Y-90695853D01*
X102162481Y-90788985D01*
X102281015Y-90907519D01*
X102374147Y-91046900D01*
X102438297Y-91201772D01*
X102471000Y-91366184D01*
X102471000Y-91533816D01*
X102438297Y-91698228D01*
X102374147Y-91853100D01*
X102281015Y-91992481D01*
X102162481Y-92111015D01*
X102023100Y-92204147D01*
X101868228Y-92268297D01*
X101703816Y-92301000D01*
X101536184Y-92301000D01*
X101371772Y-92268297D01*
X101216900Y-92204147D01*
X101077519Y-92111015D01*
X100958985Y-91992481D01*
X100865853Y-91853100D01*
X100801703Y-91698228D01*
X100769000Y-91533816D01*
X100769000Y-91366184D01*
X100801703Y-91201772D01*
X100865853Y-91046900D01*
X100958985Y-90907519D01*
X101077519Y-90788985D01*
X101216900Y-90695853D01*
X101371772Y-90631703D01*
X101536184Y-90599000D01*
X101703816Y-90599000D01*
X101868228Y-90631703D01*
X101868228Y-90631703D01*
G37*
G36*
X109034468Y-90353565D02*
G01*
X109073138Y-90365296D01*
X109108777Y-90384346D01*
X109140017Y-90409983D01*
X109165654Y-90441223D01*
X109184704Y-90476862D01*
X109196435Y-90515532D01*
X109201000Y-90561888D01*
X109201000Y-91638112D01*
X109196435Y-91684468D01*
X109184704Y-91723138D01*
X109165654Y-91758777D01*
X109140017Y-91790017D01*
X109108777Y-91815654D01*
X109073138Y-91834704D01*
X109034468Y-91846435D01*
X108988112Y-91851000D01*
X108336888Y-91851000D01*
X108290532Y-91846435D01*
X108251862Y-91834704D01*
X108216223Y-91815654D01*
X108184983Y-91790017D01*
X108159346Y-91758777D01*
X108140296Y-91723138D01*
X108128565Y-91684468D01*
X108124000Y-91638112D01*
X108124000Y-90561888D01*
X108128565Y-90515532D01*
X108140296Y-90476862D01*
X108159346Y-90441223D01*
X108184983Y-90409983D01*
X108216223Y-90384346D01*
X108251862Y-90365296D01*
X108290532Y-90353565D01*
X108336888Y-90349000D01*
X108988112Y-90349000D01*
X109034468Y-90353565D01*
X109034468Y-90353565D01*
G37*
G36*
X110909468Y-90353565D02*
G01*
X110948138Y-90365296D01*
X110983777Y-90384346D01*
X111015017Y-90409983D01*
X111040654Y-90441223D01*
X111059704Y-90476862D01*
X111071435Y-90515532D01*
X111076000Y-90561888D01*
X111076000Y-91638112D01*
X111071435Y-91684468D01*
X111059704Y-91723138D01*
X111040654Y-91758777D01*
X111015017Y-91790017D01*
X110983777Y-91815654D01*
X110948138Y-91834704D01*
X110909468Y-91846435D01*
X110863112Y-91851000D01*
X110211888Y-91851000D01*
X110165532Y-91846435D01*
X110126862Y-91834704D01*
X110091223Y-91815654D01*
X110059983Y-91790017D01*
X110034346Y-91758777D01*
X110015296Y-91723138D01*
X110003565Y-91684468D01*
X109999000Y-91638112D01*
X109999000Y-90561888D01*
X110003565Y-90515532D01*
X110015296Y-90476862D01*
X110034346Y-90441223D01*
X110059983Y-90409983D01*
X110091223Y-90384346D01*
X110126862Y-90365296D01*
X110165532Y-90353565D01*
X110211888Y-90349000D01*
X110863112Y-90349000D01*
X110909468Y-90353565D01*
X110909468Y-90353565D01*
G37*
G36*
X77834468Y-90128565D02*
G01*
X77873138Y-90140296D01*
X77908777Y-90159346D01*
X77940017Y-90184983D01*
X77965654Y-90216223D01*
X77984704Y-90251862D01*
X77996435Y-90290532D01*
X78001000Y-90336888D01*
X78001000Y-91413112D01*
X77996435Y-91459468D01*
X77984704Y-91498138D01*
X77965654Y-91533777D01*
X77940017Y-91565017D01*
X77908777Y-91590654D01*
X77873138Y-91609704D01*
X77834468Y-91621435D01*
X77788112Y-91626000D01*
X77136888Y-91626000D01*
X77090532Y-91621435D01*
X77051862Y-91609704D01*
X77016223Y-91590654D01*
X76984983Y-91565017D01*
X76959346Y-91533777D01*
X76940296Y-91498138D01*
X76928565Y-91459468D01*
X76924000Y-91413112D01*
X76924000Y-90336888D01*
X76928565Y-90290532D01*
X76940296Y-90251862D01*
X76959346Y-90216223D01*
X76984983Y-90184983D01*
X77016223Y-90159346D01*
X77051862Y-90140296D01*
X77090532Y-90128565D01*
X77136888Y-90124000D01*
X77788112Y-90124000D01*
X77834468Y-90128565D01*
X77834468Y-90128565D01*
G37*
G36*
X79709468Y-90128565D02*
G01*
X79748138Y-90140296D01*
X79783777Y-90159346D01*
X79815017Y-90184983D01*
X79840654Y-90216223D01*
X79859704Y-90251862D01*
X79871435Y-90290532D01*
X79876000Y-90336888D01*
X79876000Y-91413112D01*
X79871435Y-91459468D01*
X79859704Y-91498138D01*
X79840654Y-91533777D01*
X79815017Y-91565017D01*
X79783777Y-91590654D01*
X79748138Y-91609704D01*
X79709468Y-91621435D01*
X79663112Y-91626000D01*
X79011888Y-91626000D01*
X78965532Y-91621435D01*
X78926862Y-91609704D01*
X78891223Y-91590654D01*
X78859983Y-91565017D01*
X78834346Y-91533777D01*
X78815296Y-91498138D01*
X78803565Y-91459468D01*
X78799000Y-91413112D01*
X78799000Y-90336888D01*
X78803565Y-90290532D01*
X78815296Y-90251862D01*
X78834346Y-90216223D01*
X78859983Y-90184983D01*
X78891223Y-90159346D01*
X78926862Y-90140296D01*
X78965532Y-90128565D01*
X79011888Y-90124000D01*
X79663112Y-90124000D01*
X79709468Y-90128565D01*
X79709468Y-90128565D01*
G37*
G36*
X122976000Y-91051000D02*
G01*
X117624000Y-91051000D01*
X117624000Y-80649000D01*
X122976000Y-80649000D01*
X122976000Y-91051000D01*
X122976000Y-91051000D01*
G37*
G36*
X70376000Y-91051000D02*
G01*
X65024000Y-91051000D01*
X65024000Y-80649000D01*
X70376000Y-80649000D01*
X70376000Y-91051000D01*
X70376000Y-91051000D01*
G37*
G36*
X53334468Y-89653565D02*
G01*
X53373138Y-89665296D01*
X53408777Y-89684346D01*
X53440017Y-89709983D01*
X53465654Y-89741223D01*
X53484704Y-89776862D01*
X53496435Y-89815532D01*
X53501000Y-89861888D01*
X53501000Y-90513112D01*
X53496435Y-90559468D01*
X53484704Y-90598138D01*
X53465654Y-90633777D01*
X53440017Y-90665017D01*
X53408777Y-90690654D01*
X53373138Y-90709704D01*
X53334468Y-90721435D01*
X53288112Y-90726000D01*
X52211888Y-90726000D01*
X52165532Y-90721435D01*
X52126862Y-90709704D01*
X52091223Y-90690654D01*
X52059983Y-90665017D01*
X52034346Y-90633777D01*
X52015296Y-90598138D01*
X52003565Y-90559468D01*
X51999000Y-90513112D01*
X51999000Y-89861888D01*
X52003565Y-89815532D01*
X52015296Y-89776862D01*
X52034346Y-89741223D01*
X52059983Y-89709983D01*
X52091223Y-89684346D01*
X52126862Y-89665296D01*
X52165532Y-89653565D01*
X52211888Y-89649000D01*
X53288112Y-89649000D01*
X53334468Y-89653565D01*
X53334468Y-89653565D01*
G37*
G36*
X135834468Y-89653565D02*
G01*
X135873138Y-89665296D01*
X135908777Y-89684346D01*
X135940017Y-89709983D01*
X135965654Y-89741223D01*
X135984704Y-89776862D01*
X135996435Y-89815532D01*
X136001000Y-89861888D01*
X136001000Y-90513112D01*
X135996435Y-90559468D01*
X135984704Y-90598138D01*
X135965654Y-90633777D01*
X135940017Y-90665017D01*
X135908777Y-90690654D01*
X135873138Y-90709704D01*
X135834468Y-90721435D01*
X135788112Y-90726000D01*
X134711888Y-90726000D01*
X134665532Y-90721435D01*
X134626862Y-90709704D01*
X134591223Y-90690654D01*
X134559983Y-90665017D01*
X134534346Y-90633777D01*
X134515296Y-90598138D01*
X134503565Y-90559468D01*
X134499000Y-90513112D01*
X134499000Y-89861888D01*
X134503565Y-89815532D01*
X134515296Y-89776862D01*
X134534346Y-89741223D01*
X134559983Y-89709983D01*
X134591223Y-89684346D01*
X134626862Y-89665296D01*
X134665532Y-89653565D01*
X134711888Y-89649000D01*
X135788112Y-89649000D01*
X135834468Y-89653565D01*
X135834468Y-89653565D01*
G37*
G36*
X101868228Y-88091703D02*
G01*
X102023100Y-88155853D01*
X102162481Y-88248985D01*
X102281015Y-88367519D01*
X102374147Y-88506900D01*
X102438297Y-88661772D01*
X102471000Y-88826184D01*
X102471000Y-88993816D01*
X102438297Y-89158228D01*
X102374147Y-89313100D01*
X102281015Y-89452481D01*
X102162481Y-89571015D01*
X102023100Y-89664147D01*
X101868228Y-89728297D01*
X101703816Y-89761000D01*
X101536184Y-89761000D01*
X101371772Y-89728297D01*
X101216900Y-89664147D01*
X101077519Y-89571015D01*
X100958985Y-89452481D01*
X100865853Y-89313100D01*
X100801703Y-89158228D01*
X100769000Y-88993816D01*
X100769000Y-88826184D01*
X100801703Y-88661772D01*
X100865853Y-88506900D01*
X100958985Y-88367519D01*
X101077519Y-88248985D01*
X101216900Y-88155853D01*
X101371772Y-88091703D01*
X101536184Y-88059000D01*
X101703816Y-88059000D01*
X101868228Y-88091703D01*
X101868228Y-88091703D01*
G37*
G36*
X86628228Y-88091703D02*
G01*
X86783100Y-88155853D01*
X86922481Y-88248985D01*
X87041015Y-88367519D01*
X87134147Y-88506900D01*
X87198297Y-88661772D01*
X87231000Y-88826184D01*
X87231000Y-88993816D01*
X87198297Y-89158228D01*
X87134147Y-89313100D01*
X87041015Y-89452481D01*
X86922481Y-89571015D01*
X86783100Y-89664147D01*
X86628228Y-89728297D01*
X86463816Y-89761000D01*
X86296184Y-89761000D01*
X86131772Y-89728297D01*
X85976900Y-89664147D01*
X85837519Y-89571015D01*
X85718985Y-89452481D01*
X85625853Y-89313100D01*
X85561703Y-89158228D01*
X85529000Y-88993816D01*
X85529000Y-88826184D01*
X85561703Y-88661772D01*
X85625853Y-88506900D01*
X85718985Y-88367519D01*
X85837519Y-88248985D01*
X85976900Y-88155853D01*
X86131772Y-88091703D01*
X86296184Y-88059000D01*
X86463816Y-88059000D01*
X86628228Y-88091703D01*
X86628228Y-88091703D01*
G37*
G36*
X110909468Y-88228565D02*
G01*
X110948138Y-88240296D01*
X110983777Y-88259346D01*
X111015017Y-88284983D01*
X111040654Y-88316223D01*
X111059704Y-88351862D01*
X111071435Y-88390532D01*
X111076000Y-88436888D01*
X111076000Y-89513112D01*
X111071435Y-89559468D01*
X111059704Y-89598138D01*
X111040654Y-89633777D01*
X111015017Y-89665017D01*
X110983777Y-89690654D01*
X110948138Y-89709704D01*
X110909468Y-89721435D01*
X110863112Y-89726000D01*
X110211888Y-89726000D01*
X110165532Y-89721435D01*
X110126862Y-89709704D01*
X110091223Y-89690654D01*
X110059983Y-89665017D01*
X110034346Y-89633777D01*
X110015296Y-89598138D01*
X110003565Y-89559468D01*
X109999000Y-89513112D01*
X109999000Y-88436888D01*
X110003565Y-88390532D01*
X110015296Y-88351862D01*
X110034346Y-88316223D01*
X110059983Y-88284983D01*
X110091223Y-88259346D01*
X110126862Y-88240296D01*
X110165532Y-88228565D01*
X110211888Y-88224000D01*
X110863112Y-88224000D01*
X110909468Y-88228565D01*
X110909468Y-88228565D01*
G37*
G36*
X77834468Y-88228565D02*
G01*
X77873138Y-88240296D01*
X77908777Y-88259346D01*
X77940017Y-88284983D01*
X77965654Y-88316223D01*
X77984704Y-88351862D01*
X77996435Y-88390532D01*
X78001000Y-88436888D01*
X78001000Y-89513112D01*
X77996435Y-89559468D01*
X77984704Y-89598138D01*
X77965654Y-89633777D01*
X77940017Y-89665017D01*
X77908777Y-89690654D01*
X77873138Y-89709704D01*
X77834468Y-89721435D01*
X77788112Y-89726000D01*
X77136888Y-89726000D01*
X77090532Y-89721435D01*
X77051862Y-89709704D01*
X77016223Y-89690654D01*
X76984983Y-89665017D01*
X76959346Y-89633777D01*
X76940296Y-89598138D01*
X76928565Y-89559468D01*
X76924000Y-89513112D01*
X76924000Y-88436888D01*
X76928565Y-88390532D01*
X76940296Y-88351862D01*
X76959346Y-88316223D01*
X76984983Y-88284983D01*
X77016223Y-88259346D01*
X77051862Y-88240296D01*
X77090532Y-88228565D01*
X77136888Y-88224000D01*
X77788112Y-88224000D01*
X77834468Y-88228565D01*
X77834468Y-88228565D01*
G37*
G36*
X79709468Y-88228565D02*
G01*
X79748138Y-88240296D01*
X79783777Y-88259346D01*
X79815017Y-88284983D01*
X79840654Y-88316223D01*
X79859704Y-88351862D01*
X79871435Y-88390532D01*
X79876000Y-88436888D01*
X79876000Y-89513112D01*
X79871435Y-89559468D01*
X79859704Y-89598138D01*
X79840654Y-89633777D01*
X79815017Y-89665017D01*
X79783777Y-89690654D01*
X79748138Y-89709704D01*
X79709468Y-89721435D01*
X79663112Y-89726000D01*
X79011888Y-89726000D01*
X78965532Y-89721435D01*
X78926862Y-89709704D01*
X78891223Y-89690654D01*
X78859983Y-89665017D01*
X78834346Y-89633777D01*
X78815296Y-89598138D01*
X78803565Y-89559468D01*
X78799000Y-89513112D01*
X78799000Y-88436888D01*
X78803565Y-88390532D01*
X78815296Y-88351862D01*
X78834346Y-88316223D01*
X78859983Y-88284983D01*
X78891223Y-88259346D01*
X78926862Y-88240296D01*
X78965532Y-88228565D01*
X79011888Y-88224000D01*
X79663112Y-88224000D01*
X79709468Y-88228565D01*
X79709468Y-88228565D01*
G37*
G36*
X109034468Y-88228565D02*
G01*
X109073138Y-88240296D01*
X109108777Y-88259346D01*
X109140017Y-88284983D01*
X109165654Y-88316223D01*
X109184704Y-88351862D01*
X109196435Y-88390532D01*
X109201000Y-88436888D01*
X109201000Y-89513112D01*
X109196435Y-89559468D01*
X109184704Y-89598138D01*
X109165654Y-89633777D01*
X109140017Y-89665017D01*
X109108777Y-89690654D01*
X109073138Y-89709704D01*
X109034468Y-89721435D01*
X108988112Y-89726000D01*
X108336888Y-89726000D01*
X108290532Y-89721435D01*
X108251862Y-89709704D01*
X108216223Y-89690654D01*
X108184983Y-89665017D01*
X108159346Y-89633777D01*
X108140296Y-89598138D01*
X108128565Y-89559468D01*
X108124000Y-89513112D01*
X108124000Y-88436888D01*
X108128565Y-88390532D01*
X108140296Y-88351862D01*
X108159346Y-88316223D01*
X108184983Y-88284983D01*
X108216223Y-88259346D01*
X108251862Y-88240296D01*
X108290532Y-88228565D01*
X108336888Y-88224000D01*
X108988112Y-88224000D01*
X109034468Y-88228565D01*
X109034468Y-88228565D01*
G37*
G36*
X135834468Y-87778565D02*
G01*
X135873138Y-87790296D01*
X135908777Y-87809346D01*
X135940017Y-87834983D01*
X135965654Y-87866223D01*
X135984704Y-87901862D01*
X135996435Y-87940532D01*
X136001000Y-87986888D01*
X136001000Y-88638112D01*
X135996435Y-88684468D01*
X135984704Y-88723138D01*
X135965654Y-88758777D01*
X135940017Y-88790017D01*
X135908777Y-88815654D01*
X135873138Y-88834704D01*
X135834468Y-88846435D01*
X135788112Y-88851000D01*
X134711888Y-88851000D01*
X134665532Y-88846435D01*
X134626862Y-88834704D01*
X134591223Y-88815654D01*
X134559983Y-88790017D01*
X134534346Y-88758777D01*
X134515296Y-88723138D01*
X134503565Y-88684468D01*
X134499000Y-88638112D01*
X134499000Y-87986888D01*
X134503565Y-87940532D01*
X134515296Y-87901862D01*
X134534346Y-87866223D01*
X134559983Y-87834983D01*
X134591223Y-87809346D01*
X134626862Y-87790296D01*
X134665532Y-87778565D01*
X134711888Y-87774000D01*
X135788112Y-87774000D01*
X135834468Y-87778565D01*
X135834468Y-87778565D01*
G37*
G36*
X53334468Y-87778565D02*
G01*
X53373138Y-87790296D01*
X53408777Y-87809346D01*
X53440017Y-87834983D01*
X53465654Y-87866223D01*
X53484704Y-87901862D01*
X53496435Y-87940532D01*
X53501000Y-87986888D01*
X53501000Y-88638112D01*
X53496435Y-88684468D01*
X53484704Y-88723138D01*
X53465654Y-88758777D01*
X53440017Y-88790017D01*
X53408777Y-88815654D01*
X53373138Y-88834704D01*
X53334468Y-88846435D01*
X53288112Y-88851000D01*
X52211888Y-88851000D01*
X52165532Y-88846435D01*
X52126862Y-88834704D01*
X52091223Y-88815654D01*
X52059983Y-88790017D01*
X52034346Y-88758777D01*
X52015296Y-88723138D01*
X52003565Y-88684468D01*
X51999000Y-88638112D01*
X51999000Y-87986888D01*
X52003565Y-87940532D01*
X52015296Y-87901862D01*
X52034346Y-87866223D01*
X52059983Y-87834983D01*
X52091223Y-87809346D01*
X52126862Y-87790296D01*
X52165532Y-87778565D01*
X52211888Y-87774000D01*
X53288112Y-87774000D01*
X53334468Y-87778565D01*
X53334468Y-87778565D01*
G37*
G36*
X79709468Y-86328565D02*
G01*
X79748138Y-86340296D01*
X79783777Y-86359346D01*
X79815017Y-86384983D01*
X79840654Y-86416223D01*
X79859704Y-86451862D01*
X79871435Y-86490532D01*
X79876000Y-86536888D01*
X79876000Y-87613112D01*
X79871435Y-87659468D01*
X79859704Y-87698138D01*
X79840654Y-87733777D01*
X79815017Y-87765017D01*
X79783777Y-87790654D01*
X79748138Y-87809704D01*
X79709468Y-87821435D01*
X79663112Y-87826000D01*
X79011888Y-87826000D01*
X78965532Y-87821435D01*
X78926862Y-87809704D01*
X78891223Y-87790654D01*
X78859983Y-87765017D01*
X78834346Y-87733777D01*
X78815296Y-87698138D01*
X78803565Y-87659468D01*
X78799000Y-87613112D01*
X78799000Y-86536888D01*
X78803565Y-86490532D01*
X78815296Y-86451862D01*
X78834346Y-86416223D01*
X78859983Y-86384983D01*
X78891223Y-86359346D01*
X78926862Y-86340296D01*
X78965532Y-86328565D01*
X79011888Y-86324000D01*
X79663112Y-86324000D01*
X79709468Y-86328565D01*
X79709468Y-86328565D01*
G37*
G36*
X77834468Y-86328565D02*
G01*
X77873138Y-86340296D01*
X77908777Y-86359346D01*
X77940017Y-86384983D01*
X77965654Y-86416223D01*
X77984704Y-86451862D01*
X77996435Y-86490532D01*
X78001000Y-86536888D01*
X78001000Y-87613112D01*
X77996435Y-87659468D01*
X77984704Y-87698138D01*
X77965654Y-87733777D01*
X77940017Y-87765017D01*
X77908777Y-87790654D01*
X77873138Y-87809704D01*
X77834468Y-87821435D01*
X77788112Y-87826000D01*
X77136888Y-87826000D01*
X77090532Y-87821435D01*
X77051862Y-87809704D01*
X77016223Y-87790654D01*
X76984983Y-87765017D01*
X76959346Y-87733777D01*
X76940296Y-87698138D01*
X76928565Y-87659468D01*
X76924000Y-87613112D01*
X76924000Y-86536888D01*
X76928565Y-86490532D01*
X76940296Y-86451862D01*
X76959346Y-86416223D01*
X76984983Y-86384983D01*
X77016223Y-86359346D01*
X77051862Y-86340296D01*
X77090532Y-86328565D01*
X77136888Y-86324000D01*
X77788112Y-86324000D01*
X77834468Y-86328565D01*
X77834468Y-86328565D01*
G37*
G36*
X109034468Y-86328565D02*
G01*
X109073138Y-86340296D01*
X109108777Y-86359346D01*
X109140017Y-86384983D01*
X109165654Y-86416223D01*
X109184704Y-86451862D01*
X109196435Y-86490532D01*
X109201000Y-86536888D01*
X109201000Y-87613112D01*
X109196435Y-87659468D01*
X109184704Y-87698138D01*
X109165654Y-87733777D01*
X109140017Y-87765017D01*
X109108777Y-87790654D01*
X109073138Y-87809704D01*
X109034468Y-87821435D01*
X108988112Y-87826000D01*
X108336888Y-87826000D01*
X108290532Y-87821435D01*
X108251862Y-87809704D01*
X108216223Y-87790654D01*
X108184983Y-87765017D01*
X108159346Y-87733777D01*
X108140296Y-87698138D01*
X108128565Y-87659468D01*
X108124000Y-87613112D01*
X108124000Y-86536888D01*
X108128565Y-86490532D01*
X108140296Y-86451862D01*
X108159346Y-86416223D01*
X108184983Y-86384983D01*
X108216223Y-86359346D01*
X108251862Y-86340296D01*
X108290532Y-86328565D01*
X108336888Y-86324000D01*
X108988112Y-86324000D01*
X109034468Y-86328565D01*
X109034468Y-86328565D01*
G37*
G36*
X110909468Y-86328565D02*
G01*
X110948138Y-86340296D01*
X110983777Y-86359346D01*
X111015017Y-86384983D01*
X111040654Y-86416223D01*
X111059704Y-86451862D01*
X111071435Y-86490532D01*
X111076000Y-86536888D01*
X111076000Y-87613112D01*
X111071435Y-87659468D01*
X111059704Y-87698138D01*
X111040654Y-87733777D01*
X111015017Y-87765017D01*
X110983777Y-87790654D01*
X110948138Y-87809704D01*
X110909468Y-87821435D01*
X110863112Y-87826000D01*
X110211888Y-87826000D01*
X110165532Y-87821435D01*
X110126862Y-87809704D01*
X110091223Y-87790654D01*
X110059983Y-87765017D01*
X110034346Y-87733777D01*
X110015296Y-87698138D01*
X110003565Y-87659468D01*
X109999000Y-87613112D01*
X109999000Y-86536888D01*
X110003565Y-86490532D01*
X110015296Y-86451862D01*
X110034346Y-86416223D01*
X110059983Y-86384983D01*
X110091223Y-86359346D01*
X110126862Y-86340296D01*
X110165532Y-86328565D01*
X110211888Y-86324000D01*
X110863112Y-86324000D01*
X110909468Y-86328565D01*
X110909468Y-86328565D01*
G37*
G36*
X53334468Y-86278565D02*
G01*
X53373138Y-86290296D01*
X53408777Y-86309346D01*
X53440017Y-86334983D01*
X53465654Y-86366223D01*
X53484704Y-86401862D01*
X53496435Y-86440532D01*
X53501000Y-86486888D01*
X53501000Y-87138112D01*
X53496435Y-87184468D01*
X53484704Y-87223138D01*
X53465654Y-87258777D01*
X53440017Y-87290017D01*
X53408777Y-87315654D01*
X53373138Y-87334704D01*
X53334468Y-87346435D01*
X53288112Y-87351000D01*
X52211888Y-87351000D01*
X52165532Y-87346435D01*
X52126862Y-87334704D01*
X52091223Y-87315654D01*
X52059983Y-87290017D01*
X52034346Y-87258777D01*
X52015296Y-87223138D01*
X52003565Y-87184468D01*
X51999000Y-87138112D01*
X51999000Y-86486888D01*
X52003565Y-86440532D01*
X52015296Y-86401862D01*
X52034346Y-86366223D01*
X52059983Y-86334983D01*
X52091223Y-86309346D01*
X52126862Y-86290296D01*
X52165532Y-86278565D01*
X52211888Y-86274000D01*
X53288112Y-86274000D01*
X53334468Y-86278565D01*
X53334468Y-86278565D01*
G37*
G36*
X135834468Y-86278565D02*
G01*
X135873138Y-86290296D01*
X135908777Y-86309346D01*
X135940017Y-86334983D01*
X135965654Y-86366223D01*
X135984704Y-86401862D01*
X135996435Y-86440532D01*
X136001000Y-86486888D01*
X136001000Y-87138112D01*
X135996435Y-87184468D01*
X135984704Y-87223138D01*
X135965654Y-87258777D01*
X135940017Y-87290017D01*
X135908777Y-87315654D01*
X135873138Y-87334704D01*
X135834468Y-87346435D01*
X135788112Y-87351000D01*
X134711888Y-87351000D01*
X134665532Y-87346435D01*
X134626862Y-87334704D01*
X134591223Y-87315654D01*
X134559983Y-87290017D01*
X134534346Y-87258777D01*
X134515296Y-87223138D01*
X134503565Y-87184468D01*
X134499000Y-87138112D01*
X134499000Y-86486888D01*
X134503565Y-86440532D01*
X134515296Y-86401862D01*
X134534346Y-86366223D01*
X134559983Y-86334983D01*
X134591223Y-86309346D01*
X134626862Y-86290296D01*
X134665532Y-86278565D01*
X134711888Y-86274000D01*
X135788112Y-86274000D01*
X135834468Y-86278565D01*
X135834468Y-86278565D01*
G37*
G36*
X86628228Y-85551703D02*
G01*
X86783100Y-85615853D01*
X86922481Y-85708985D01*
X87041015Y-85827519D01*
X87134147Y-85966900D01*
X87198297Y-86121772D01*
X87231000Y-86286184D01*
X87231000Y-86453816D01*
X87198297Y-86618228D01*
X87134147Y-86773100D01*
X87041015Y-86912481D01*
X86922481Y-87031015D01*
X86783100Y-87124147D01*
X86628228Y-87188297D01*
X86463816Y-87221000D01*
X86296184Y-87221000D01*
X86131772Y-87188297D01*
X85976900Y-87124147D01*
X85837519Y-87031015D01*
X85718985Y-86912481D01*
X85625853Y-86773100D01*
X85561703Y-86618228D01*
X85529000Y-86453816D01*
X85529000Y-86286184D01*
X85561703Y-86121772D01*
X85625853Y-85966900D01*
X85718985Y-85827519D01*
X85837519Y-85708985D01*
X85976900Y-85615853D01*
X86131772Y-85551703D01*
X86296184Y-85519000D01*
X86463816Y-85519000D01*
X86628228Y-85551703D01*
X86628228Y-85551703D01*
G37*
G36*
X101868228Y-85551703D02*
G01*
X102023100Y-85615853D01*
X102162481Y-85708985D01*
X102281015Y-85827519D01*
X102374147Y-85966900D01*
X102438297Y-86121772D01*
X102471000Y-86286184D01*
X102471000Y-86453816D01*
X102438297Y-86618228D01*
X102374147Y-86773100D01*
X102281015Y-86912481D01*
X102162481Y-87031015D01*
X102023100Y-87124147D01*
X101868228Y-87188297D01*
X101703816Y-87221000D01*
X101536184Y-87221000D01*
X101371772Y-87188297D01*
X101216900Y-87124147D01*
X101077519Y-87031015D01*
X100958985Y-86912481D01*
X100865853Y-86773100D01*
X100801703Y-86618228D01*
X100769000Y-86453816D01*
X100769000Y-86286184D01*
X100801703Y-86121772D01*
X100865853Y-85966900D01*
X100958985Y-85827519D01*
X101077519Y-85708985D01*
X101216900Y-85615853D01*
X101371772Y-85551703D01*
X101536184Y-85519000D01*
X101703816Y-85519000D01*
X101868228Y-85551703D01*
X101868228Y-85551703D01*
G37*
G36*
X110909468Y-84428565D02*
G01*
X110948138Y-84440296D01*
X110983777Y-84459346D01*
X111015017Y-84484983D01*
X111040654Y-84516223D01*
X111059704Y-84551862D01*
X111071435Y-84590532D01*
X111076000Y-84636888D01*
X111076000Y-85713112D01*
X111071435Y-85759468D01*
X111059704Y-85798138D01*
X111040654Y-85833777D01*
X111015017Y-85865017D01*
X110983777Y-85890654D01*
X110948138Y-85909704D01*
X110909468Y-85921435D01*
X110863112Y-85926000D01*
X110211888Y-85926000D01*
X110165532Y-85921435D01*
X110126862Y-85909704D01*
X110091223Y-85890654D01*
X110059983Y-85865017D01*
X110034346Y-85833777D01*
X110015296Y-85798138D01*
X110003565Y-85759468D01*
X109999000Y-85713112D01*
X109999000Y-84636888D01*
X110003565Y-84590532D01*
X110015296Y-84551862D01*
X110034346Y-84516223D01*
X110059983Y-84484983D01*
X110091223Y-84459346D01*
X110126862Y-84440296D01*
X110165532Y-84428565D01*
X110211888Y-84424000D01*
X110863112Y-84424000D01*
X110909468Y-84428565D01*
X110909468Y-84428565D01*
G37*
G36*
X109034468Y-84428565D02*
G01*
X109073138Y-84440296D01*
X109108777Y-84459346D01*
X109140017Y-84484983D01*
X109165654Y-84516223D01*
X109184704Y-84551862D01*
X109196435Y-84590532D01*
X109201000Y-84636888D01*
X109201000Y-85713112D01*
X109196435Y-85759468D01*
X109184704Y-85798138D01*
X109165654Y-85833777D01*
X109140017Y-85865017D01*
X109108777Y-85890654D01*
X109073138Y-85909704D01*
X109034468Y-85921435D01*
X108988112Y-85926000D01*
X108336888Y-85926000D01*
X108290532Y-85921435D01*
X108251862Y-85909704D01*
X108216223Y-85890654D01*
X108184983Y-85865017D01*
X108159346Y-85833777D01*
X108140296Y-85798138D01*
X108128565Y-85759468D01*
X108124000Y-85713112D01*
X108124000Y-84636888D01*
X108128565Y-84590532D01*
X108140296Y-84551862D01*
X108159346Y-84516223D01*
X108184983Y-84484983D01*
X108216223Y-84459346D01*
X108251862Y-84440296D01*
X108290532Y-84428565D01*
X108336888Y-84424000D01*
X108988112Y-84424000D01*
X109034468Y-84428565D01*
X109034468Y-84428565D01*
G37*
G36*
X79709468Y-84428565D02*
G01*
X79748138Y-84440296D01*
X79783777Y-84459346D01*
X79815017Y-84484983D01*
X79840654Y-84516223D01*
X79859704Y-84551862D01*
X79871435Y-84590532D01*
X79876000Y-84636888D01*
X79876000Y-85713112D01*
X79871435Y-85759468D01*
X79859704Y-85798138D01*
X79840654Y-85833777D01*
X79815017Y-85865017D01*
X79783777Y-85890654D01*
X79748138Y-85909704D01*
X79709468Y-85921435D01*
X79663112Y-85926000D01*
X79011888Y-85926000D01*
X78965532Y-85921435D01*
X78926862Y-85909704D01*
X78891223Y-85890654D01*
X78859983Y-85865017D01*
X78834346Y-85833777D01*
X78815296Y-85798138D01*
X78803565Y-85759468D01*
X78799000Y-85713112D01*
X78799000Y-84636888D01*
X78803565Y-84590532D01*
X78815296Y-84551862D01*
X78834346Y-84516223D01*
X78859983Y-84484983D01*
X78891223Y-84459346D01*
X78926862Y-84440296D01*
X78965532Y-84428565D01*
X79011888Y-84424000D01*
X79663112Y-84424000D01*
X79709468Y-84428565D01*
X79709468Y-84428565D01*
G37*
G36*
X77834468Y-84428565D02*
G01*
X77873138Y-84440296D01*
X77908777Y-84459346D01*
X77940017Y-84484983D01*
X77965654Y-84516223D01*
X77984704Y-84551862D01*
X77996435Y-84590532D01*
X78001000Y-84636888D01*
X78001000Y-85713112D01*
X77996435Y-85759468D01*
X77984704Y-85798138D01*
X77965654Y-85833777D01*
X77940017Y-85865017D01*
X77908777Y-85890654D01*
X77873138Y-85909704D01*
X77834468Y-85921435D01*
X77788112Y-85926000D01*
X77136888Y-85926000D01*
X77090532Y-85921435D01*
X77051862Y-85909704D01*
X77016223Y-85890654D01*
X76984983Y-85865017D01*
X76959346Y-85833777D01*
X76940296Y-85798138D01*
X76928565Y-85759468D01*
X76924000Y-85713112D01*
X76924000Y-84636888D01*
X76928565Y-84590532D01*
X76940296Y-84551862D01*
X76959346Y-84516223D01*
X76984983Y-84484983D01*
X77016223Y-84459346D01*
X77051862Y-84440296D01*
X77090532Y-84428565D01*
X77136888Y-84424000D01*
X77788112Y-84424000D01*
X77834468Y-84428565D01*
X77834468Y-84428565D01*
G37*
G36*
X53334468Y-84403565D02*
G01*
X53373138Y-84415296D01*
X53408777Y-84434346D01*
X53440017Y-84459983D01*
X53465654Y-84491223D01*
X53484704Y-84526862D01*
X53496435Y-84565532D01*
X53501000Y-84611888D01*
X53501000Y-85263112D01*
X53496435Y-85309468D01*
X53484704Y-85348138D01*
X53465654Y-85383777D01*
X53440017Y-85415017D01*
X53408777Y-85440654D01*
X53373138Y-85459704D01*
X53334468Y-85471435D01*
X53288112Y-85476000D01*
X52211888Y-85476000D01*
X52165532Y-85471435D01*
X52126862Y-85459704D01*
X52091223Y-85440654D01*
X52059983Y-85415017D01*
X52034346Y-85383777D01*
X52015296Y-85348138D01*
X52003565Y-85309468D01*
X51999000Y-85263112D01*
X51999000Y-84611888D01*
X52003565Y-84565532D01*
X52015296Y-84526862D01*
X52034346Y-84491223D01*
X52059983Y-84459983D01*
X52091223Y-84434346D01*
X52126862Y-84415296D01*
X52165532Y-84403565D01*
X52211888Y-84399000D01*
X53288112Y-84399000D01*
X53334468Y-84403565D01*
X53334468Y-84403565D01*
G37*
G36*
X135834468Y-84403565D02*
G01*
X135873138Y-84415296D01*
X135908777Y-84434346D01*
X135940017Y-84459983D01*
X135965654Y-84491223D01*
X135984704Y-84526862D01*
X135996435Y-84565532D01*
X136001000Y-84611888D01*
X136001000Y-85263112D01*
X135996435Y-85309468D01*
X135984704Y-85348138D01*
X135965654Y-85383777D01*
X135940017Y-85415017D01*
X135908777Y-85440654D01*
X135873138Y-85459704D01*
X135834468Y-85471435D01*
X135788112Y-85476000D01*
X134711888Y-85476000D01*
X134665532Y-85471435D01*
X134626862Y-85459704D01*
X134591223Y-85440654D01*
X134559983Y-85415017D01*
X134534346Y-85383777D01*
X134515296Y-85348138D01*
X134503565Y-85309468D01*
X134499000Y-85263112D01*
X134499000Y-84611888D01*
X134503565Y-84565532D01*
X134515296Y-84526862D01*
X134534346Y-84491223D01*
X134559983Y-84459983D01*
X134591223Y-84434346D01*
X134626862Y-84415296D01*
X134665532Y-84403565D01*
X134711888Y-84399000D01*
X135788112Y-84399000D01*
X135834468Y-84403565D01*
X135834468Y-84403565D01*
G37*
G36*
X129076000Y-84851000D02*
G01*
X123724000Y-84851000D01*
X123724000Y-78519000D01*
X129076000Y-78519000D01*
X129076000Y-84851000D01*
X129076000Y-84851000D01*
G37*
G36*
X64276000Y-84851000D02*
G01*
X58924000Y-84851000D01*
X58924000Y-78519000D01*
X64276000Y-78519000D01*
X64276000Y-84851000D01*
X64276000Y-84851000D01*
G37*
G36*
X101868228Y-83011703D02*
G01*
X102023100Y-83075853D01*
X102162481Y-83168985D01*
X102281015Y-83287519D01*
X102374147Y-83426900D01*
X102438297Y-83581772D01*
X102471000Y-83746184D01*
X102471000Y-83913816D01*
X102438297Y-84078228D01*
X102374147Y-84233100D01*
X102281015Y-84372481D01*
X102162481Y-84491015D01*
X102023100Y-84584147D01*
X101868228Y-84648297D01*
X101703816Y-84681000D01*
X101536184Y-84681000D01*
X101371772Y-84648297D01*
X101216900Y-84584147D01*
X101077519Y-84491015D01*
X100958985Y-84372481D01*
X100865853Y-84233100D01*
X100801703Y-84078228D01*
X100769000Y-83913816D01*
X100769000Y-83746184D01*
X100801703Y-83581772D01*
X100865853Y-83426900D01*
X100958985Y-83287519D01*
X101077519Y-83168985D01*
X101216900Y-83075853D01*
X101371772Y-83011703D01*
X101536184Y-82979000D01*
X101703816Y-82979000D01*
X101868228Y-83011703D01*
X101868228Y-83011703D01*
G37*
G36*
X86628228Y-83011703D02*
G01*
X86783100Y-83075853D01*
X86922481Y-83168985D01*
X87041015Y-83287519D01*
X87134147Y-83426900D01*
X87198297Y-83581772D01*
X87231000Y-83746184D01*
X87231000Y-83913816D01*
X87198297Y-84078228D01*
X87134147Y-84233100D01*
X87041015Y-84372481D01*
X86922481Y-84491015D01*
X86783100Y-84584147D01*
X86628228Y-84648297D01*
X86463816Y-84681000D01*
X86296184Y-84681000D01*
X86131772Y-84648297D01*
X85976900Y-84584147D01*
X85837519Y-84491015D01*
X85718985Y-84372481D01*
X85625853Y-84233100D01*
X85561703Y-84078228D01*
X85529000Y-83913816D01*
X85529000Y-83746184D01*
X85561703Y-83581772D01*
X85625853Y-83426900D01*
X85718985Y-83287519D01*
X85837519Y-83168985D01*
X85976900Y-83075853D01*
X86131772Y-83011703D01*
X86296184Y-82979000D01*
X86463816Y-82979000D01*
X86628228Y-83011703D01*
X86628228Y-83011703D01*
G37*
G36*
X109034468Y-82528565D02*
G01*
X109073138Y-82540296D01*
X109108777Y-82559346D01*
X109140017Y-82584983D01*
X109165654Y-82616223D01*
X109184704Y-82651862D01*
X109196435Y-82690532D01*
X109201000Y-82736888D01*
X109201000Y-83813112D01*
X109196435Y-83859468D01*
X109184704Y-83898138D01*
X109165654Y-83933777D01*
X109140017Y-83965017D01*
X109108777Y-83990654D01*
X109073138Y-84009704D01*
X109034468Y-84021435D01*
X108988112Y-84026000D01*
X108336888Y-84026000D01*
X108290532Y-84021435D01*
X108251862Y-84009704D01*
X108216223Y-83990654D01*
X108184983Y-83965017D01*
X108159346Y-83933777D01*
X108140296Y-83898138D01*
X108128565Y-83859468D01*
X108124000Y-83813112D01*
X108124000Y-82736888D01*
X108128565Y-82690532D01*
X108140296Y-82651862D01*
X108159346Y-82616223D01*
X108184983Y-82584983D01*
X108216223Y-82559346D01*
X108251862Y-82540296D01*
X108290532Y-82528565D01*
X108336888Y-82524000D01*
X108988112Y-82524000D01*
X109034468Y-82528565D01*
X109034468Y-82528565D01*
G37*
G36*
X77834468Y-82528565D02*
G01*
X77873138Y-82540296D01*
X77908777Y-82559346D01*
X77940017Y-82584983D01*
X77965654Y-82616223D01*
X77984704Y-82651862D01*
X77996435Y-82690532D01*
X78001000Y-82736888D01*
X78001000Y-83813112D01*
X77996435Y-83859468D01*
X77984704Y-83898138D01*
X77965654Y-83933777D01*
X77940017Y-83965017D01*
X77908777Y-83990654D01*
X77873138Y-84009704D01*
X77834468Y-84021435D01*
X77788112Y-84026000D01*
X77136888Y-84026000D01*
X77090532Y-84021435D01*
X77051862Y-84009704D01*
X77016223Y-83990654D01*
X76984983Y-83965017D01*
X76959346Y-83933777D01*
X76940296Y-83898138D01*
X76928565Y-83859468D01*
X76924000Y-83813112D01*
X76924000Y-82736888D01*
X76928565Y-82690532D01*
X76940296Y-82651862D01*
X76959346Y-82616223D01*
X76984983Y-82584983D01*
X77016223Y-82559346D01*
X77051862Y-82540296D01*
X77090532Y-82528565D01*
X77136888Y-82524000D01*
X77788112Y-82524000D01*
X77834468Y-82528565D01*
X77834468Y-82528565D01*
G37*
G36*
X79709468Y-82528565D02*
G01*
X79748138Y-82540296D01*
X79783777Y-82559346D01*
X79815017Y-82584983D01*
X79840654Y-82616223D01*
X79859704Y-82651862D01*
X79871435Y-82690532D01*
X79876000Y-82736888D01*
X79876000Y-83813112D01*
X79871435Y-83859468D01*
X79859704Y-83898138D01*
X79840654Y-83933777D01*
X79815017Y-83965017D01*
X79783777Y-83990654D01*
X79748138Y-84009704D01*
X79709468Y-84021435D01*
X79663112Y-84026000D01*
X79011888Y-84026000D01*
X78965532Y-84021435D01*
X78926862Y-84009704D01*
X78891223Y-83990654D01*
X78859983Y-83965017D01*
X78834346Y-83933777D01*
X78815296Y-83898138D01*
X78803565Y-83859468D01*
X78799000Y-83813112D01*
X78799000Y-82736888D01*
X78803565Y-82690532D01*
X78815296Y-82651862D01*
X78834346Y-82616223D01*
X78859983Y-82584983D01*
X78891223Y-82559346D01*
X78926862Y-82540296D01*
X78965532Y-82528565D01*
X79011888Y-82524000D01*
X79663112Y-82524000D01*
X79709468Y-82528565D01*
X79709468Y-82528565D01*
G37*
G36*
X110909468Y-82528565D02*
G01*
X110948138Y-82540296D01*
X110983777Y-82559346D01*
X111015017Y-82584983D01*
X111040654Y-82616223D01*
X111059704Y-82651862D01*
X111071435Y-82690532D01*
X111076000Y-82736888D01*
X111076000Y-83813112D01*
X111071435Y-83859468D01*
X111059704Y-83898138D01*
X111040654Y-83933777D01*
X111015017Y-83965017D01*
X110983777Y-83990654D01*
X110948138Y-84009704D01*
X110909468Y-84021435D01*
X110863112Y-84026000D01*
X110211888Y-84026000D01*
X110165532Y-84021435D01*
X110126862Y-84009704D01*
X110091223Y-83990654D01*
X110059983Y-83965017D01*
X110034346Y-83933777D01*
X110015296Y-83898138D01*
X110003565Y-83859468D01*
X109999000Y-83813112D01*
X109999000Y-82736888D01*
X110003565Y-82690532D01*
X110015296Y-82651862D01*
X110034346Y-82616223D01*
X110059983Y-82584983D01*
X110091223Y-82559346D01*
X110126862Y-82540296D01*
X110165532Y-82528565D01*
X110211888Y-82524000D01*
X110863112Y-82524000D01*
X110909468Y-82528565D01*
X110909468Y-82528565D01*
G37*
G36*
X135834468Y-82903565D02*
G01*
X135873138Y-82915296D01*
X135908777Y-82934346D01*
X135940017Y-82959983D01*
X135965654Y-82991223D01*
X135984704Y-83026862D01*
X135996435Y-83065532D01*
X136001000Y-83111888D01*
X136001000Y-83763112D01*
X135996435Y-83809468D01*
X135984704Y-83848138D01*
X135965654Y-83883777D01*
X135940017Y-83915017D01*
X135908777Y-83940654D01*
X135873138Y-83959704D01*
X135834468Y-83971435D01*
X135788112Y-83976000D01*
X134711888Y-83976000D01*
X134665532Y-83971435D01*
X134626862Y-83959704D01*
X134591223Y-83940654D01*
X134559983Y-83915017D01*
X134534346Y-83883777D01*
X134515296Y-83848138D01*
X134503565Y-83809468D01*
X134499000Y-83763112D01*
X134499000Y-83111888D01*
X134503565Y-83065532D01*
X134515296Y-83026862D01*
X134534346Y-82991223D01*
X134559983Y-82959983D01*
X134591223Y-82934346D01*
X134626862Y-82915296D01*
X134665532Y-82903565D01*
X134711888Y-82899000D01*
X135788112Y-82899000D01*
X135834468Y-82903565D01*
X135834468Y-82903565D01*
G37*
G36*
X53334468Y-82903565D02*
G01*
X53373138Y-82915296D01*
X53408777Y-82934346D01*
X53440017Y-82959983D01*
X53465654Y-82991223D01*
X53484704Y-83026862D01*
X53496435Y-83065532D01*
X53501000Y-83111888D01*
X53501000Y-83763112D01*
X53496435Y-83809468D01*
X53484704Y-83848138D01*
X53465654Y-83883777D01*
X53440017Y-83915017D01*
X53408777Y-83940654D01*
X53373138Y-83959704D01*
X53334468Y-83971435D01*
X53288112Y-83976000D01*
X52211888Y-83976000D01*
X52165532Y-83971435D01*
X52126862Y-83959704D01*
X52091223Y-83940654D01*
X52059983Y-83915017D01*
X52034346Y-83883777D01*
X52015296Y-83848138D01*
X52003565Y-83809468D01*
X51999000Y-83763112D01*
X51999000Y-83111888D01*
X52003565Y-83065532D01*
X52015296Y-83026862D01*
X52034346Y-82991223D01*
X52059983Y-82959983D01*
X52091223Y-82934346D01*
X52126862Y-82915296D01*
X52165532Y-82903565D01*
X52211888Y-82899000D01*
X53288112Y-82899000D01*
X53334468Y-82903565D01*
X53334468Y-82903565D01*
G37*
G36*
X86628228Y-80471703D02*
G01*
X86783100Y-80535853D01*
X86922481Y-80628985D01*
X87041015Y-80747519D01*
X87134147Y-80886900D01*
X87198297Y-81041772D01*
X87231000Y-81206184D01*
X87231000Y-81373816D01*
X87198297Y-81538228D01*
X87134147Y-81693100D01*
X87041015Y-81832481D01*
X86922481Y-81951015D01*
X86783100Y-82044147D01*
X86628228Y-82108297D01*
X86463816Y-82141000D01*
X86296184Y-82141000D01*
X86131772Y-82108297D01*
X85976900Y-82044147D01*
X85837519Y-81951015D01*
X85718985Y-81832481D01*
X85625853Y-81693100D01*
X85561703Y-81538228D01*
X85529000Y-81373816D01*
X85529000Y-81206184D01*
X85561703Y-81041772D01*
X85625853Y-80886900D01*
X85718985Y-80747519D01*
X85837519Y-80628985D01*
X85976900Y-80535853D01*
X86131772Y-80471703D01*
X86296184Y-80439000D01*
X86463816Y-80439000D01*
X86628228Y-80471703D01*
X86628228Y-80471703D01*
G37*
G36*
X101868228Y-80471703D02*
G01*
X102023100Y-80535853D01*
X102162481Y-80628985D01*
X102281015Y-80747519D01*
X102374147Y-80886900D01*
X102438297Y-81041772D01*
X102471000Y-81206184D01*
X102471000Y-81373816D01*
X102438297Y-81538228D01*
X102374147Y-81693100D01*
X102281015Y-81832481D01*
X102162481Y-81951015D01*
X102023100Y-82044147D01*
X101868228Y-82108297D01*
X101703816Y-82141000D01*
X101536184Y-82141000D01*
X101371772Y-82108297D01*
X101216900Y-82044147D01*
X101077519Y-81951015D01*
X100958985Y-81832481D01*
X100865853Y-81693100D01*
X100801703Y-81538228D01*
X100769000Y-81373816D01*
X100769000Y-81206184D01*
X100801703Y-81041772D01*
X100865853Y-80886900D01*
X100958985Y-80747519D01*
X101077519Y-80628985D01*
X101216900Y-80535853D01*
X101371772Y-80471703D01*
X101536184Y-80439000D01*
X101703816Y-80439000D01*
X101868228Y-80471703D01*
X101868228Y-80471703D01*
G37*
G36*
X109034468Y-80628565D02*
G01*
X109073138Y-80640296D01*
X109108777Y-80659346D01*
X109140017Y-80684983D01*
X109165654Y-80716223D01*
X109184704Y-80751862D01*
X109196435Y-80790532D01*
X109201000Y-80836888D01*
X109201000Y-81913112D01*
X109196435Y-81959468D01*
X109184704Y-81998138D01*
X109165654Y-82033777D01*
X109140017Y-82065017D01*
X109108777Y-82090654D01*
X109073138Y-82109704D01*
X109034468Y-82121435D01*
X108988112Y-82126000D01*
X108336888Y-82126000D01*
X108290532Y-82121435D01*
X108251862Y-82109704D01*
X108216223Y-82090654D01*
X108184983Y-82065017D01*
X108159346Y-82033777D01*
X108140296Y-81998138D01*
X108128565Y-81959468D01*
X108124000Y-81913112D01*
X108124000Y-80836888D01*
X108128565Y-80790532D01*
X108140296Y-80751862D01*
X108159346Y-80716223D01*
X108184983Y-80684983D01*
X108216223Y-80659346D01*
X108251862Y-80640296D01*
X108290532Y-80628565D01*
X108336888Y-80624000D01*
X108988112Y-80624000D01*
X109034468Y-80628565D01*
X109034468Y-80628565D01*
G37*
G36*
X79709468Y-80628565D02*
G01*
X79748138Y-80640296D01*
X79783777Y-80659346D01*
X79815017Y-80684983D01*
X79840654Y-80716223D01*
X79859704Y-80751862D01*
X79871435Y-80790532D01*
X79876000Y-80836888D01*
X79876000Y-81913112D01*
X79871435Y-81959468D01*
X79859704Y-81998138D01*
X79840654Y-82033777D01*
X79815017Y-82065017D01*
X79783777Y-82090654D01*
X79748138Y-82109704D01*
X79709468Y-82121435D01*
X79663112Y-82126000D01*
X79011888Y-82126000D01*
X78965532Y-82121435D01*
X78926862Y-82109704D01*
X78891223Y-82090654D01*
X78859983Y-82065017D01*
X78834346Y-82033777D01*
X78815296Y-81998138D01*
X78803565Y-81959468D01*
X78799000Y-81913112D01*
X78799000Y-80836888D01*
X78803565Y-80790532D01*
X78815296Y-80751862D01*
X78834346Y-80716223D01*
X78859983Y-80684983D01*
X78891223Y-80659346D01*
X78926862Y-80640296D01*
X78965532Y-80628565D01*
X79011888Y-80624000D01*
X79663112Y-80624000D01*
X79709468Y-80628565D01*
X79709468Y-80628565D01*
G37*
G36*
X110909468Y-80628565D02*
G01*
X110948138Y-80640296D01*
X110983777Y-80659346D01*
X111015017Y-80684983D01*
X111040654Y-80716223D01*
X111059704Y-80751862D01*
X111071435Y-80790532D01*
X111076000Y-80836888D01*
X111076000Y-81913112D01*
X111071435Y-81959468D01*
X111059704Y-81998138D01*
X111040654Y-82033777D01*
X111015017Y-82065017D01*
X110983777Y-82090654D01*
X110948138Y-82109704D01*
X110909468Y-82121435D01*
X110863112Y-82126000D01*
X110211888Y-82126000D01*
X110165532Y-82121435D01*
X110126862Y-82109704D01*
X110091223Y-82090654D01*
X110059983Y-82065017D01*
X110034346Y-82033777D01*
X110015296Y-81998138D01*
X110003565Y-81959468D01*
X109999000Y-81913112D01*
X109999000Y-80836888D01*
X110003565Y-80790532D01*
X110015296Y-80751862D01*
X110034346Y-80716223D01*
X110059983Y-80684983D01*
X110091223Y-80659346D01*
X110126862Y-80640296D01*
X110165532Y-80628565D01*
X110211888Y-80624000D01*
X110863112Y-80624000D01*
X110909468Y-80628565D01*
X110909468Y-80628565D01*
G37*
G36*
X77834468Y-80628565D02*
G01*
X77873138Y-80640296D01*
X77908777Y-80659346D01*
X77940017Y-80684983D01*
X77965654Y-80716223D01*
X77984704Y-80751862D01*
X77996435Y-80790532D01*
X78001000Y-80836888D01*
X78001000Y-81913112D01*
X77996435Y-81959468D01*
X77984704Y-81998138D01*
X77965654Y-82033777D01*
X77940017Y-82065017D01*
X77908777Y-82090654D01*
X77873138Y-82109704D01*
X77834468Y-82121435D01*
X77788112Y-82126000D01*
X77136888Y-82126000D01*
X77090532Y-82121435D01*
X77051862Y-82109704D01*
X77016223Y-82090654D01*
X76984983Y-82065017D01*
X76959346Y-82033777D01*
X76940296Y-81998138D01*
X76928565Y-81959468D01*
X76924000Y-81913112D01*
X76924000Y-80836888D01*
X76928565Y-80790532D01*
X76940296Y-80751862D01*
X76959346Y-80716223D01*
X76984983Y-80684983D01*
X77016223Y-80659346D01*
X77051862Y-80640296D01*
X77090532Y-80628565D01*
X77136888Y-80624000D01*
X77788112Y-80624000D01*
X77834468Y-80628565D01*
X77834468Y-80628565D01*
G37*
G36*
X135834468Y-81028565D02*
G01*
X135873138Y-81040296D01*
X135908777Y-81059346D01*
X135940017Y-81084983D01*
X135965654Y-81116223D01*
X135984704Y-81151862D01*
X135996435Y-81190532D01*
X136001000Y-81236888D01*
X136001000Y-81888112D01*
X135996435Y-81934468D01*
X135984704Y-81973138D01*
X135965654Y-82008777D01*
X135940017Y-82040017D01*
X135908777Y-82065654D01*
X135873138Y-82084704D01*
X135834468Y-82096435D01*
X135788112Y-82101000D01*
X134711888Y-82101000D01*
X134665532Y-82096435D01*
X134626862Y-82084704D01*
X134591223Y-82065654D01*
X134559983Y-82040017D01*
X134534346Y-82008777D01*
X134515296Y-81973138D01*
X134503565Y-81934468D01*
X134499000Y-81888112D01*
X134499000Y-81236888D01*
X134503565Y-81190532D01*
X134515296Y-81151862D01*
X134534346Y-81116223D01*
X134559983Y-81084983D01*
X134591223Y-81059346D01*
X134626862Y-81040296D01*
X134665532Y-81028565D01*
X134711888Y-81024000D01*
X135788112Y-81024000D01*
X135834468Y-81028565D01*
X135834468Y-81028565D01*
G37*
G36*
X53334468Y-81028565D02*
G01*
X53373138Y-81040296D01*
X53408777Y-81059346D01*
X53440017Y-81084983D01*
X53465654Y-81116223D01*
X53484704Y-81151862D01*
X53496435Y-81190532D01*
X53501000Y-81236888D01*
X53501000Y-81888112D01*
X53496435Y-81934468D01*
X53484704Y-81973138D01*
X53465654Y-82008777D01*
X53440017Y-82040017D01*
X53408777Y-82065654D01*
X53373138Y-82084704D01*
X53334468Y-82096435D01*
X53288112Y-82101000D01*
X52211888Y-82101000D01*
X52165532Y-82096435D01*
X52126862Y-82084704D01*
X52091223Y-82065654D01*
X52059983Y-82040017D01*
X52034346Y-82008777D01*
X52015296Y-81973138D01*
X52003565Y-81934468D01*
X51999000Y-81888112D01*
X51999000Y-81236888D01*
X52003565Y-81190532D01*
X52015296Y-81151862D01*
X52034346Y-81116223D01*
X52059983Y-81084983D01*
X52091223Y-81059346D01*
X52126862Y-81040296D01*
X52165532Y-81028565D01*
X52211888Y-81024000D01*
X53288112Y-81024000D01*
X53334468Y-81028565D01*
X53334468Y-81028565D01*
G37*
G36*
X77834468Y-78728565D02*
G01*
X77873138Y-78740296D01*
X77908777Y-78759346D01*
X77940017Y-78784983D01*
X77965654Y-78816223D01*
X77984704Y-78851862D01*
X77996435Y-78890532D01*
X78001000Y-78936888D01*
X78001000Y-80013112D01*
X77996435Y-80059468D01*
X77984704Y-80098138D01*
X77965654Y-80133777D01*
X77940017Y-80165017D01*
X77908777Y-80190654D01*
X77873138Y-80209704D01*
X77834468Y-80221435D01*
X77788112Y-80226000D01*
X77136888Y-80226000D01*
X77090532Y-80221435D01*
X77051862Y-80209704D01*
X77016223Y-80190654D01*
X76984983Y-80165017D01*
X76959346Y-80133777D01*
X76940296Y-80098138D01*
X76928565Y-80059468D01*
X76924000Y-80013112D01*
X76924000Y-78936888D01*
X76928565Y-78890532D01*
X76940296Y-78851862D01*
X76959346Y-78816223D01*
X76984983Y-78784983D01*
X77016223Y-78759346D01*
X77051862Y-78740296D01*
X77090532Y-78728565D01*
X77136888Y-78724000D01*
X77788112Y-78724000D01*
X77834468Y-78728565D01*
X77834468Y-78728565D01*
G37*
G36*
X79709468Y-78728565D02*
G01*
X79748138Y-78740296D01*
X79783777Y-78759346D01*
X79815017Y-78784983D01*
X79840654Y-78816223D01*
X79859704Y-78851862D01*
X79871435Y-78890532D01*
X79876000Y-78936888D01*
X79876000Y-80013112D01*
X79871435Y-80059468D01*
X79859704Y-80098138D01*
X79840654Y-80133777D01*
X79815017Y-80165017D01*
X79783777Y-80190654D01*
X79748138Y-80209704D01*
X79709468Y-80221435D01*
X79663112Y-80226000D01*
X79011888Y-80226000D01*
X78965532Y-80221435D01*
X78926862Y-80209704D01*
X78891223Y-80190654D01*
X78859983Y-80165017D01*
X78834346Y-80133777D01*
X78815296Y-80098138D01*
X78803565Y-80059468D01*
X78799000Y-80013112D01*
X78799000Y-78936888D01*
X78803565Y-78890532D01*
X78815296Y-78851862D01*
X78834346Y-78816223D01*
X78859983Y-78784983D01*
X78891223Y-78759346D01*
X78926862Y-78740296D01*
X78965532Y-78728565D01*
X79011888Y-78724000D01*
X79663112Y-78724000D01*
X79709468Y-78728565D01*
X79709468Y-78728565D01*
G37*
G36*
X109034468Y-78728565D02*
G01*
X109073138Y-78740296D01*
X109108777Y-78759346D01*
X109140017Y-78784983D01*
X109165654Y-78816223D01*
X109184704Y-78851862D01*
X109196435Y-78890532D01*
X109201000Y-78936888D01*
X109201000Y-80013112D01*
X109196435Y-80059468D01*
X109184704Y-80098138D01*
X109165654Y-80133777D01*
X109140017Y-80165017D01*
X109108777Y-80190654D01*
X109073138Y-80209704D01*
X109034468Y-80221435D01*
X108988112Y-80226000D01*
X108336888Y-80226000D01*
X108290532Y-80221435D01*
X108251862Y-80209704D01*
X108216223Y-80190654D01*
X108184983Y-80165017D01*
X108159346Y-80133777D01*
X108140296Y-80098138D01*
X108128565Y-80059468D01*
X108124000Y-80013112D01*
X108124000Y-78936888D01*
X108128565Y-78890532D01*
X108140296Y-78851862D01*
X108159346Y-78816223D01*
X108184983Y-78784983D01*
X108216223Y-78759346D01*
X108251862Y-78740296D01*
X108290532Y-78728565D01*
X108336888Y-78724000D01*
X108988112Y-78724000D01*
X109034468Y-78728565D01*
X109034468Y-78728565D01*
G37*
G36*
X110909468Y-78728565D02*
G01*
X110948138Y-78740296D01*
X110983777Y-78759346D01*
X111015017Y-78784983D01*
X111040654Y-78816223D01*
X111059704Y-78851862D01*
X111071435Y-78890532D01*
X111076000Y-78936888D01*
X111076000Y-80013112D01*
X111071435Y-80059468D01*
X111059704Y-80098138D01*
X111040654Y-80133777D01*
X111015017Y-80165017D01*
X110983777Y-80190654D01*
X110948138Y-80209704D01*
X110909468Y-80221435D01*
X110863112Y-80226000D01*
X110211888Y-80226000D01*
X110165532Y-80221435D01*
X110126862Y-80209704D01*
X110091223Y-80190654D01*
X110059983Y-80165017D01*
X110034346Y-80133777D01*
X110015296Y-80098138D01*
X110003565Y-80059468D01*
X109999000Y-80013112D01*
X109999000Y-78936888D01*
X110003565Y-78890532D01*
X110015296Y-78851862D01*
X110034346Y-78816223D01*
X110059983Y-78784983D01*
X110091223Y-78759346D01*
X110126862Y-78740296D01*
X110165532Y-78728565D01*
X110211888Y-78724000D01*
X110863112Y-78724000D01*
X110909468Y-78728565D01*
X110909468Y-78728565D01*
G37*
G36*
X98909468Y-79103565D02*
G01*
X98948138Y-79115296D01*
X98983777Y-79134346D01*
X99015017Y-79159983D01*
X99040654Y-79191223D01*
X99059704Y-79226862D01*
X99071435Y-79265532D01*
X99076000Y-79311888D01*
X99076000Y-79963112D01*
X99071435Y-80009468D01*
X99059704Y-80048138D01*
X99040654Y-80083777D01*
X99015017Y-80115017D01*
X98983777Y-80140654D01*
X98948138Y-80159704D01*
X98909468Y-80171435D01*
X98863112Y-80176000D01*
X97786888Y-80176000D01*
X97740532Y-80171435D01*
X97701862Y-80159704D01*
X97666223Y-80140654D01*
X97634983Y-80115017D01*
X97609346Y-80083777D01*
X97590296Y-80048138D01*
X97578565Y-80009468D01*
X97574000Y-79963112D01*
X97574000Y-79311888D01*
X97578565Y-79265532D01*
X97590296Y-79226862D01*
X97609346Y-79191223D01*
X97634983Y-79159983D01*
X97666223Y-79134346D01*
X97701862Y-79115296D01*
X97740532Y-79103565D01*
X97786888Y-79099000D01*
X98863112Y-79099000D01*
X98909468Y-79103565D01*
X98909468Y-79103565D01*
G37*
G36*
X96751000Y-79976000D02*
G01*
X95549000Y-79976000D01*
X95549000Y-77524000D01*
X96751000Y-77524000D01*
X96751000Y-79976000D01*
X96751000Y-79976000D01*
G37*
G36*
X92451000Y-79976000D02*
G01*
X91249000Y-79976000D01*
X91249000Y-77524000D01*
X92451000Y-77524000D01*
X92451000Y-79976000D01*
X92451000Y-79976000D01*
G37*
G36*
X101868228Y-77931703D02*
G01*
X102023100Y-77995853D01*
X102162481Y-78088985D01*
X102281015Y-78207519D01*
X102374147Y-78346900D01*
X102438297Y-78501772D01*
X102471000Y-78666184D01*
X102471000Y-78833816D01*
X102438297Y-78998228D01*
X102374147Y-79153100D01*
X102281015Y-79292481D01*
X102162481Y-79411015D01*
X102023100Y-79504147D01*
X101868228Y-79568297D01*
X101703816Y-79601000D01*
X101536184Y-79601000D01*
X101371772Y-79568297D01*
X101216900Y-79504147D01*
X101077519Y-79411015D01*
X100958985Y-79292481D01*
X100865853Y-79153100D01*
X100801703Y-78998228D01*
X100769000Y-78833816D01*
X100769000Y-78666184D01*
X100801703Y-78501772D01*
X100865853Y-78346900D01*
X100958985Y-78207519D01*
X101077519Y-78088985D01*
X101216900Y-77995853D01*
X101371772Y-77931703D01*
X101536184Y-77899000D01*
X101703816Y-77899000D01*
X101868228Y-77931703D01*
X101868228Y-77931703D01*
G37*
G36*
X86628228Y-77931703D02*
G01*
X86783100Y-77995853D01*
X86922481Y-78088985D01*
X87041015Y-78207519D01*
X87134147Y-78346900D01*
X87198297Y-78501772D01*
X87231000Y-78666184D01*
X87231000Y-78833816D01*
X87198297Y-78998228D01*
X87134147Y-79153100D01*
X87041015Y-79292481D01*
X86922481Y-79411015D01*
X86783100Y-79504147D01*
X86628228Y-79568297D01*
X86463816Y-79601000D01*
X86296184Y-79601000D01*
X86131772Y-79568297D01*
X85976900Y-79504147D01*
X85837519Y-79411015D01*
X85718985Y-79292481D01*
X85625853Y-79153100D01*
X85561703Y-78998228D01*
X85529000Y-78833816D01*
X85529000Y-78666184D01*
X85561703Y-78501772D01*
X85625853Y-78346900D01*
X85718985Y-78207519D01*
X85837519Y-78088985D01*
X85976900Y-77995853D01*
X86131772Y-77931703D01*
X86296184Y-77899000D01*
X86463816Y-77899000D01*
X86628228Y-77931703D01*
X86628228Y-77931703D01*
G37*
G36*
X79709468Y-76828565D02*
G01*
X79748138Y-76840296D01*
X79783777Y-76859346D01*
X79815017Y-76884983D01*
X79840654Y-76916223D01*
X79859704Y-76951862D01*
X79871435Y-76990532D01*
X79876000Y-77036888D01*
X79876000Y-78113112D01*
X79871435Y-78159468D01*
X79859704Y-78198138D01*
X79840654Y-78233777D01*
X79815017Y-78265017D01*
X79783777Y-78290654D01*
X79748138Y-78309704D01*
X79709468Y-78321435D01*
X79663112Y-78326000D01*
X79011888Y-78326000D01*
X78965532Y-78321435D01*
X78926862Y-78309704D01*
X78891223Y-78290654D01*
X78859983Y-78265017D01*
X78834346Y-78233777D01*
X78815296Y-78198138D01*
X78803565Y-78159468D01*
X78799000Y-78113112D01*
X78799000Y-77036888D01*
X78803565Y-76990532D01*
X78815296Y-76951862D01*
X78834346Y-76916223D01*
X78859983Y-76884983D01*
X78891223Y-76859346D01*
X78926862Y-76840296D01*
X78965532Y-76828565D01*
X79011888Y-76824000D01*
X79663112Y-76824000D01*
X79709468Y-76828565D01*
X79709468Y-76828565D01*
G37*
G36*
X77834468Y-76828565D02*
G01*
X77873138Y-76840296D01*
X77908777Y-76859346D01*
X77940017Y-76884983D01*
X77965654Y-76916223D01*
X77984704Y-76951862D01*
X77996435Y-76990532D01*
X78001000Y-77036888D01*
X78001000Y-78113112D01*
X77996435Y-78159468D01*
X77984704Y-78198138D01*
X77965654Y-78233777D01*
X77940017Y-78265017D01*
X77908777Y-78290654D01*
X77873138Y-78309704D01*
X77834468Y-78321435D01*
X77788112Y-78326000D01*
X77136888Y-78326000D01*
X77090532Y-78321435D01*
X77051862Y-78309704D01*
X77016223Y-78290654D01*
X76984983Y-78265017D01*
X76959346Y-78233777D01*
X76940296Y-78198138D01*
X76928565Y-78159468D01*
X76924000Y-78113112D01*
X76924000Y-77036888D01*
X76928565Y-76990532D01*
X76940296Y-76951862D01*
X76959346Y-76916223D01*
X76984983Y-76884983D01*
X77016223Y-76859346D01*
X77051862Y-76840296D01*
X77090532Y-76828565D01*
X77136888Y-76824000D01*
X77788112Y-76824000D01*
X77834468Y-76828565D01*
X77834468Y-76828565D01*
G37*
G36*
X109034468Y-76828565D02*
G01*
X109073138Y-76840296D01*
X109108777Y-76859346D01*
X109140017Y-76884983D01*
X109165654Y-76916223D01*
X109184704Y-76951862D01*
X109196435Y-76990532D01*
X109201000Y-77036888D01*
X109201000Y-78113112D01*
X109196435Y-78159468D01*
X109184704Y-78198138D01*
X109165654Y-78233777D01*
X109140017Y-78265017D01*
X109108777Y-78290654D01*
X109073138Y-78309704D01*
X109034468Y-78321435D01*
X108988112Y-78326000D01*
X108336888Y-78326000D01*
X108290532Y-78321435D01*
X108251862Y-78309704D01*
X108216223Y-78290654D01*
X108184983Y-78265017D01*
X108159346Y-78233777D01*
X108140296Y-78198138D01*
X108128565Y-78159468D01*
X108124000Y-78113112D01*
X108124000Y-77036888D01*
X108128565Y-76990532D01*
X108140296Y-76951862D01*
X108159346Y-76916223D01*
X108184983Y-76884983D01*
X108216223Y-76859346D01*
X108251862Y-76840296D01*
X108290532Y-76828565D01*
X108336888Y-76824000D01*
X108988112Y-76824000D01*
X109034468Y-76828565D01*
X109034468Y-76828565D01*
G37*
G36*
X110909468Y-76828565D02*
G01*
X110948138Y-76840296D01*
X110983777Y-76859346D01*
X111015017Y-76884983D01*
X111040654Y-76916223D01*
X111059704Y-76951862D01*
X111071435Y-76990532D01*
X111076000Y-77036888D01*
X111076000Y-78113112D01*
X111071435Y-78159468D01*
X111059704Y-78198138D01*
X111040654Y-78233777D01*
X111015017Y-78265017D01*
X110983777Y-78290654D01*
X110948138Y-78309704D01*
X110909468Y-78321435D01*
X110863112Y-78326000D01*
X110211888Y-78326000D01*
X110165532Y-78321435D01*
X110126862Y-78309704D01*
X110091223Y-78290654D01*
X110059983Y-78265017D01*
X110034346Y-78233777D01*
X110015296Y-78198138D01*
X110003565Y-78159468D01*
X109999000Y-78113112D01*
X109999000Y-77036888D01*
X110003565Y-76990532D01*
X110015296Y-76951862D01*
X110034346Y-76916223D01*
X110059983Y-76884983D01*
X110091223Y-76859346D01*
X110126862Y-76840296D01*
X110165532Y-76828565D01*
X110211888Y-76824000D01*
X110863112Y-76824000D01*
X110909468Y-76828565D01*
X110909468Y-76828565D01*
G37*
G36*
X98909468Y-77228565D02*
G01*
X98948138Y-77240296D01*
X98983777Y-77259346D01*
X99015017Y-77284983D01*
X99040654Y-77316223D01*
X99059704Y-77351862D01*
X99071435Y-77390532D01*
X99076000Y-77436888D01*
X99076000Y-78088112D01*
X99071435Y-78134468D01*
X99059704Y-78173138D01*
X99040654Y-78208777D01*
X99015017Y-78240017D01*
X98983777Y-78265654D01*
X98948138Y-78284704D01*
X98909468Y-78296435D01*
X98863112Y-78301000D01*
X97786888Y-78301000D01*
X97740532Y-78296435D01*
X97701862Y-78284704D01*
X97666223Y-78265654D01*
X97634983Y-78240017D01*
X97609346Y-78208777D01*
X97590296Y-78173138D01*
X97578565Y-78134468D01*
X97574000Y-78088112D01*
X97574000Y-77436888D01*
X97578565Y-77390532D01*
X97590296Y-77351862D01*
X97609346Y-77316223D01*
X97634983Y-77284983D01*
X97666223Y-77259346D01*
X97701862Y-77240296D01*
X97740532Y-77228565D01*
X97786888Y-77224000D01*
X98863112Y-77224000D01*
X98909468Y-77228565D01*
X98909468Y-77228565D01*
G37*
G36*
X86628228Y-75391703D02*
G01*
X86783100Y-75455853D01*
X86922481Y-75548985D01*
X87041015Y-75667519D01*
X87134147Y-75806900D01*
X87198297Y-75961772D01*
X87231000Y-76126184D01*
X87231000Y-76293816D01*
X87198297Y-76458228D01*
X87134147Y-76613100D01*
X87041015Y-76752481D01*
X86922481Y-76871015D01*
X86783100Y-76964147D01*
X86628228Y-77028297D01*
X86463816Y-77061000D01*
X86296184Y-77061000D01*
X86131772Y-77028297D01*
X85976900Y-76964147D01*
X85837519Y-76871015D01*
X85718985Y-76752481D01*
X85625853Y-76613100D01*
X85561703Y-76458228D01*
X85529000Y-76293816D01*
X85529000Y-76126184D01*
X85561703Y-75961772D01*
X85625853Y-75806900D01*
X85718985Y-75667519D01*
X85837519Y-75548985D01*
X85976900Y-75455853D01*
X86131772Y-75391703D01*
X86296184Y-75359000D01*
X86463816Y-75359000D01*
X86628228Y-75391703D01*
X86628228Y-75391703D01*
G37*
G36*
X101868228Y-75391703D02*
G01*
X102023100Y-75455853D01*
X102162481Y-75548985D01*
X102281015Y-75667519D01*
X102374147Y-75806900D01*
X102438297Y-75961772D01*
X102471000Y-76126184D01*
X102471000Y-76293816D01*
X102438297Y-76458228D01*
X102374147Y-76613100D01*
X102281015Y-76752481D01*
X102162481Y-76871015D01*
X102023100Y-76964147D01*
X101868228Y-77028297D01*
X101703816Y-77061000D01*
X101536184Y-77061000D01*
X101371772Y-77028297D01*
X101216900Y-76964147D01*
X101077519Y-76871015D01*
X100958985Y-76752481D01*
X100865853Y-76613100D01*
X100801703Y-76458228D01*
X100769000Y-76293816D01*
X100769000Y-76126184D01*
X100801703Y-75961772D01*
X100865853Y-75806900D01*
X100958985Y-75667519D01*
X101077519Y-75548985D01*
X101216900Y-75455853D01*
X101371772Y-75391703D01*
X101536184Y-75359000D01*
X101703816Y-75359000D01*
X101868228Y-75391703D01*
X101868228Y-75391703D01*
G37*
G36*
X77834468Y-74928565D02*
G01*
X77873138Y-74940296D01*
X77908777Y-74959346D01*
X77940017Y-74984983D01*
X77965654Y-75016223D01*
X77984704Y-75051862D01*
X77996435Y-75090532D01*
X78001000Y-75136888D01*
X78001000Y-76213112D01*
X77996435Y-76259468D01*
X77984704Y-76298138D01*
X77965654Y-76333777D01*
X77940017Y-76365017D01*
X77908777Y-76390654D01*
X77873138Y-76409704D01*
X77834468Y-76421435D01*
X77788112Y-76426000D01*
X77136888Y-76426000D01*
X77090532Y-76421435D01*
X77051862Y-76409704D01*
X77016223Y-76390654D01*
X76984983Y-76365017D01*
X76959346Y-76333777D01*
X76940296Y-76298138D01*
X76928565Y-76259468D01*
X76924000Y-76213112D01*
X76924000Y-75136888D01*
X76928565Y-75090532D01*
X76940296Y-75051862D01*
X76959346Y-75016223D01*
X76984983Y-74984983D01*
X77016223Y-74959346D01*
X77051862Y-74940296D01*
X77090532Y-74928565D01*
X77136888Y-74924000D01*
X77788112Y-74924000D01*
X77834468Y-74928565D01*
X77834468Y-74928565D01*
G37*
G36*
X79709468Y-74928565D02*
G01*
X79748138Y-74940296D01*
X79783777Y-74959346D01*
X79815017Y-74984983D01*
X79840654Y-75016223D01*
X79859704Y-75051862D01*
X79871435Y-75090532D01*
X79876000Y-75136888D01*
X79876000Y-76213112D01*
X79871435Y-76259468D01*
X79859704Y-76298138D01*
X79840654Y-76333777D01*
X79815017Y-76365017D01*
X79783777Y-76390654D01*
X79748138Y-76409704D01*
X79709468Y-76421435D01*
X79663112Y-76426000D01*
X79011888Y-76426000D01*
X78965532Y-76421435D01*
X78926862Y-76409704D01*
X78891223Y-76390654D01*
X78859983Y-76365017D01*
X78834346Y-76333777D01*
X78815296Y-76298138D01*
X78803565Y-76259468D01*
X78799000Y-76213112D01*
X78799000Y-75136888D01*
X78803565Y-75090532D01*
X78815296Y-75051862D01*
X78834346Y-75016223D01*
X78859983Y-74984983D01*
X78891223Y-74959346D01*
X78926862Y-74940296D01*
X78965532Y-74928565D01*
X79011888Y-74924000D01*
X79663112Y-74924000D01*
X79709468Y-74928565D01*
X79709468Y-74928565D01*
G37*
G36*
X109034468Y-74928565D02*
G01*
X109073138Y-74940296D01*
X109108777Y-74959346D01*
X109140017Y-74984983D01*
X109165654Y-75016223D01*
X109184704Y-75051862D01*
X109196435Y-75090532D01*
X109201000Y-75136888D01*
X109201000Y-76213112D01*
X109196435Y-76259468D01*
X109184704Y-76298138D01*
X109165654Y-76333777D01*
X109140017Y-76365017D01*
X109108777Y-76390654D01*
X109073138Y-76409704D01*
X109034468Y-76421435D01*
X108988112Y-76426000D01*
X108336888Y-76426000D01*
X108290532Y-76421435D01*
X108251862Y-76409704D01*
X108216223Y-76390654D01*
X108184983Y-76365017D01*
X108159346Y-76333777D01*
X108140296Y-76298138D01*
X108128565Y-76259468D01*
X108124000Y-76213112D01*
X108124000Y-75136888D01*
X108128565Y-75090532D01*
X108140296Y-75051862D01*
X108159346Y-75016223D01*
X108184983Y-74984983D01*
X108216223Y-74959346D01*
X108251862Y-74940296D01*
X108290532Y-74928565D01*
X108336888Y-74924000D01*
X108988112Y-74924000D01*
X109034468Y-74928565D01*
X109034468Y-74928565D01*
G37*
G36*
X110909468Y-74928565D02*
G01*
X110948138Y-74940296D01*
X110983777Y-74959346D01*
X111015017Y-74984983D01*
X111040654Y-75016223D01*
X111059704Y-75051862D01*
X111071435Y-75090532D01*
X111076000Y-75136888D01*
X111076000Y-76213112D01*
X111071435Y-76259468D01*
X111059704Y-76298138D01*
X111040654Y-76333777D01*
X111015017Y-76365017D01*
X110983777Y-76390654D01*
X110948138Y-76409704D01*
X110909468Y-76421435D01*
X110863112Y-76426000D01*
X110211888Y-76426000D01*
X110165532Y-76421435D01*
X110126862Y-76409704D01*
X110091223Y-76390654D01*
X110059983Y-76365017D01*
X110034346Y-76333777D01*
X110015296Y-76298138D01*
X110003565Y-76259468D01*
X109999000Y-76213112D01*
X109999000Y-75136888D01*
X110003565Y-75090532D01*
X110015296Y-75051862D01*
X110034346Y-75016223D01*
X110059983Y-74984983D01*
X110091223Y-74959346D01*
X110126862Y-74940296D01*
X110165532Y-74928565D01*
X110211888Y-74924000D01*
X110863112Y-74924000D01*
X110909468Y-74928565D01*
X110909468Y-74928565D01*
G37*
G36*
X72859468Y-73028565D02*
G01*
X72898138Y-73040296D01*
X72933777Y-73059346D01*
X72965017Y-73084983D01*
X72990654Y-73116223D01*
X73009704Y-73151862D01*
X73021435Y-73190532D01*
X73026000Y-73236888D01*
X73026000Y-74313112D01*
X73021435Y-74359468D01*
X73009704Y-74398138D01*
X72990654Y-74433777D01*
X72965017Y-74465017D01*
X72933777Y-74490654D01*
X72898138Y-74509704D01*
X72859468Y-74521435D01*
X72813112Y-74526000D01*
X72161888Y-74526000D01*
X72115532Y-74521435D01*
X72076862Y-74509704D01*
X72041223Y-74490654D01*
X72009983Y-74465017D01*
X71984346Y-74433777D01*
X71965296Y-74398138D01*
X71953565Y-74359468D01*
X71949000Y-74313112D01*
X71949000Y-73236888D01*
X71953565Y-73190532D01*
X71965296Y-73151862D01*
X71984346Y-73116223D01*
X72009983Y-73084983D01*
X72041223Y-73059346D01*
X72076862Y-73040296D01*
X72115532Y-73028565D01*
X72161888Y-73024000D01*
X72813112Y-73024000D01*
X72859468Y-73028565D01*
X72859468Y-73028565D01*
G37*
G36*
X110909468Y-73028565D02*
G01*
X110948138Y-73040296D01*
X110983777Y-73059346D01*
X111015017Y-73084983D01*
X111040654Y-73116223D01*
X111059704Y-73151862D01*
X111071435Y-73190532D01*
X111076000Y-73236888D01*
X111076000Y-74313112D01*
X111071435Y-74359468D01*
X111059704Y-74398138D01*
X111040654Y-74433777D01*
X111015017Y-74465017D01*
X110983777Y-74490654D01*
X110948138Y-74509704D01*
X110909468Y-74521435D01*
X110863112Y-74526000D01*
X110211888Y-74526000D01*
X110165532Y-74521435D01*
X110126862Y-74509704D01*
X110091223Y-74490654D01*
X110059983Y-74465017D01*
X110034346Y-74433777D01*
X110015296Y-74398138D01*
X110003565Y-74359468D01*
X109999000Y-74313112D01*
X109999000Y-73236888D01*
X110003565Y-73190532D01*
X110015296Y-73151862D01*
X110034346Y-73116223D01*
X110059983Y-73084983D01*
X110091223Y-73059346D01*
X110126862Y-73040296D01*
X110165532Y-73028565D01*
X110211888Y-73024000D01*
X110863112Y-73024000D01*
X110909468Y-73028565D01*
X110909468Y-73028565D01*
G37*
G36*
X74734468Y-73028565D02*
G01*
X74773138Y-73040296D01*
X74808777Y-73059346D01*
X74840017Y-73084983D01*
X74865654Y-73116223D01*
X74884704Y-73151862D01*
X74896435Y-73190532D01*
X74901000Y-73236888D01*
X74901000Y-74313112D01*
X74896435Y-74359468D01*
X74884704Y-74398138D01*
X74865654Y-74433777D01*
X74840017Y-74465017D01*
X74808777Y-74490654D01*
X74773138Y-74509704D01*
X74734468Y-74521435D01*
X74688112Y-74526000D01*
X74036888Y-74526000D01*
X73990532Y-74521435D01*
X73951862Y-74509704D01*
X73916223Y-74490654D01*
X73884983Y-74465017D01*
X73859346Y-74433777D01*
X73840296Y-74398138D01*
X73828565Y-74359468D01*
X73824000Y-74313112D01*
X73824000Y-73236888D01*
X73828565Y-73190532D01*
X73840296Y-73151862D01*
X73859346Y-73116223D01*
X73884983Y-73084983D01*
X73916223Y-73059346D01*
X73951862Y-73040296D01*
X73990532Y-73028565D01*
X74036888Y-73024000D01*
X74688112Y-73024000D01*
X74734468Y-73028565D01*
X74734468Y-73028565D01*
G37*
G36*
X109034468Y-73028565D02*
G01*
X109073138Y-73040296D01*
X109108777Y-73059346D01*
X109140017Y-73084983D01*
X109165654Y-73116223D01*
X109184704Y-73151862D01*
X109196435Y-73190532D01*
X109201000Y-73236888D01*
X109201000Y-74313112D01*
X109196435Y-74359468D01*
X109184704Y-74398138D01*
X109165654Y-74433777D01*
X109140017Y-74465017D01*
X109108777Y-74490654D01*
X109073138Y-74509704D01*
X109034468Y-74521435D01*
X108988112Y-74526000D01*
X108336888Y-74526000D01*
X108290532Y-74521435D01*
X108251862Y-74509704D01*
X108216223Y-74490654D01*
X108184983Y-74465017D01*
X108159346Y-74433777D01*
X108140296Y-74398138D01*
X108128565Y-74359468D01*
X108124000Y-74313112D01*
X108124000Y-73236888D01*
X108128565Y-73190532D01*
X108140296Y-73151862D01*
X108159346Y-73116223D01*
X108184983Y-73084983D01*
X108216223Y-73059346D01*
X108251862Y-73040296D01*
X108290532Y-73028565D01*
X108336888Y-73024000D01*
X108988112Y-73024000D01*
X109034468Y-73028565D01*
X109034468Y-73028565D01*
G37*
G36*
X115884468Y-73028565D02*
G01*
X115923138Y-73040296D01*
X115958777Y-73059346D01*
X115990017Y-73084983D01*
X116015654Y-73116223D01*
X116034704Y-73151862D01*
X116046435Y-73190532D01*
X116051000Y-73236888D01*
X116051000Y-74313112D01*
X116046435Y-74359468D01*
X116034704Y-74398138D01*
X116015654Y-74433777D01*
X115990017Y-74465017D01*
X115958777Y-74490654D01*
X115923138Y-74509704D01*
X115884468Y-74521435D01*
X115838112Y-74526000D01*
X115186888Y-74526000D01*
X115140532Y-74521435D01*
X115101862Y-74509704D01*
X115066223Y-74490654D01*
X115034983Y-74465017D01*
X115009346Y-74433777D01*
X114990296Y-74398138D01*
X114978565Y-74359468D01*
X114974000Y-74313112D01*
X114974000Y-73236888D01*
X114978565Y-73190532D01*
X114990296Y-73151862D01*
X115009346Y-73116223D01*
X115034983Y-73084983D01*
X115066223Y-73059346D01*
X115101862Y-73040296D01*
X115140532Y-73028565D01*
X115186888Y-73024000D01*
X115838112Y-73024000D01*
X115884468Y-73028565D01*
X115884468Y-73028565D01*
G37*
G36*
X114009468Y-73028565D02*
G01*
X114048138Y-73040296D01*
X114083777Y-73059346D01*
X114115017Y-73084983D01*
X114140654Y-73116223D01*
X114159704Y-73151862D01*
X114171435Y-73190532D01*
X114176000Y-73236888D01*
X114176000Y-74313112D01*
X114171435Y-74359468D01*
X114159704Y-74398138D01*
X114140654Y-74433777D01*
X114115017Y-74465017D01*
X114083777Y-74490654D01*
X114048138Y-74509704D01*
X114009468Y-74521435D01*
X113963112Y-74526000D01*
X113311888Y-74526000D01*
X113265532Y-74521435D01*
X113226862Y-74509704D01*
X113191223Y-74490654D01*
X113159983Y-74465017D01*
X113134346Y-74433777D01*
X113115296Y-74398138D01*
X113103565Y-74359468D01*
X113099000Y-74313112D01*
X113099000Y-73236888D01*
X113103565Y-73190532D01*
X113115296Y-73151862D01*
X113134346Y-73116223D01*
X113159983Y-73084983D01*
X113191223Y-73059346D01*
X113226862Y-73040296D01*
X113265532Y-73028565D01*
X113311888Y-73024000D01*
X113963112Y-73024000D01*
X114009468Y-73028565D01*
X114009468Y-73028565D01*
G37*
G36*
X101868228Y-72851703D02*
G01*
X102023100Y-72915853D01*
X102162481Y-73008985D01*
X102281015Y-73127519D01*
X102374147Y-73266900D01*
X102438297Y-73421772D01*
X102471000Y-73586184D01*
X102471000Y-73753816D01*
X102438297Y-73918228D01*
X102374147Y-74073100D01*
X102281015Y-74212481D01*
X102162481Y-74331015D01*
X102023100Y-74424147D01*
X101868228Y-74488297D01*
X101703816Y-74521000D01*
X101536184Y-74521000D01*
X101371772Y-74488297D01*
X101216900Y-74424147D01*
X101077519Y-74331015D01*
X100958985Y-74212481D01*
X100865853Y-74073100D01*
X100801703Y-73918228D01*
X100769000Y-73753816D01*
X100769000Y-73586184D01*
X100801703Y-73421772D01*
X100865853Y-73266900D01*
X100958985Y-73127519D01*
X101077519Y-73008985D01*
X101216900Y-72915853D01*
X101371772Y-72851703D01*
X101536184Y-72819000D01*
X101703816Y-72819000D01*
X101868228Y-72851703D01*
X101868228Y-72851703D01*
G37*
G36*
X86628228Y-72851703D02*
G01*
X86783100Y-72915853D01*
X86922481Y-73008985D01*
X87041015Y-73127519D01*
X87134147Y-73266900D01*
X87198297Y-73421772D01*
X87231000Y-73586184D01*
X87231000Y-73753816D01*
X87198297Y-73918228D01*
X87134147Y-74073100D01*
X87041015Y-74212481D01*
X86922481Y-74331015D01*
X86783100Y-74424147D01*
X86628228Y-74488297D01*
X86463816Y-74521000D01*
X86296184Y-74521000D01*
X86131772Y-74488297D01*
X85976900Y-74424147D01*
X85837519Y-74331015D01*
X85718985Y-74212481D01*
X85625853Y-74073100D01*
X85561703Y-73918228D01*
X85529000Y-73753816D01*
X85529000Y-73586184D01*
X85561703Y-73421772D01*
X85625853Y-73266900D01*
X85718985Y-73127519D01*
X85837519Y-73008985D01*
X85976900Y-72915853D01*
X86131772Y-72851703D01*
X86296184Y-72819000D01*
X86463816Y-72819000D01*
X86628228Y-72851703D01*
X86628228Y-72851703D01*
G37*
G36*
X77834468Y-72828565D02*
G01*
X77873138Y-72840296D01*
X77908777Y-72859346D01*
X77940017Y-72884983D01*
X77965654Y-72916223D01*
X77984704Y-72951862D01*
X77996435Y-72990532D01*
X78001000Y-73036888D01*
X78001000Y-74113112D01*
X77996435Y-74159468D01*
X77984704Y-74198138D01*
X77965654Y-74233777D01*
X77940017Y-74265017D01*
X77908777Y-74290654D01*
X77873138Y-74309704D01*
X77834468Y-74321435D01*
X77788112Y-74326000D01*
X77136888Y-74326000D01*
X77090532Y-74321435D01*
X77051862Y-74309704D01*
X77016223Y-74290654D01*
X76984983Y-74265017D01*
X76959346Y-74233777D01*
X76940296Y-74198138D01*
X76928565Y-74159468D01*
X76924000Y-74113112D01*
X76924000Y-73036888D01*
X76928565Y-72990532D01*
X76940296Y-72951862D01*
X76959346Y-72916223D01*
X76984983Y-72884983D01*
X77016223Y-72859346D01*
X77051862Y-72840296D01*
X77090532Y-72828565D01*
X77136888Y-72824000D01*
X77788112Y-72824000D01*
X77834468Y-72828565D01*
X77834468Y-72828565D01*
G37*
G36*
X79709468Y-72828565D02*
G01*
X79748138Y-72840296D01*
X79783777Y-72859346D01*
X79815017Y-72884983D01*
X79840654Y-72916223D01*
X79859704Y-72951862D01*
X79871435Y-72990532D01*
X79876000Y-73036888D01*
X79876000Y-74113112D01*
X79871435Y-74159468D01*
X79859704Y-74198138D01*
X79840654Y-74233777D01*
X79815017Y-74265017D01*
X79783777Y-74290654D01*
X79748138Y-74309704D01*
X79709468Y-74321435D01*
X79663112Y-74326000D01*
X79011888Y-74326000D01*
X78965532Y-74321435D01*
X78926862Y-74309704D01*
X78891223Y-74290654D01*
X78859983Y-74265017D01*
X78834346Y-74233777D01*
X78815296Y-74198138D01*
X78803565Y-74159468D01*
X78799000Y-74113112D01*
X78799000Y-73036888D01*
X78803565Y-72990532D01*
X78815296Y-72951862D01*
X78834346Y-72916223D01*
X78859983Y-72884983D01*
X78891223Y-72859346D01*
X78926862Y-72840296D01*
X78965532Y-72828565D01*
X79011888Y-72824000D01*
X79663112Y-72824000D01*
X79709468Y-72828565D01*
X79709468Y-72828565D01*
G37*
G36*
X125255997Y-71953051D02*
G01*
X125289652Y-71963261D01*
X125320665Y-71979838D01*
X125347851Y-72002149D01*
X125370162Y-72029335D01*
X125386739Y-72060348D01*
X125396949Y-72094003D01*
X125401000Y-72135138D01*
X125401000Y-73464862D01*
X125396949Y-73505997D01*
X125386739Y-73539652D01*
X125370162Y-73570665D01*
X125347851Y-73597851D01*
X125320665Y-73620162D01*
X125289652Y-73636739D01*
X125255997Y-73646949D01*
X125214862Y-73651000D01*
X122885138Y-73651000D01*
X122844003Y-73646949D01*
X122810348Y-73636739D01*
X122779335Y-73620162D01*
X122752149Y-73597851D01*
X122729838Y-73570665D01*
X122713261Y-73539652D01*
X122703051Y-73505997D01*
X122699000Y-73464862D01*
X122699000Y-72135138D01*
X122703051Y-72094003D01*
X122713261Y-72060348D01*
X122729838Y-72029335D01*
X122752149Y-72002149D01*
X122779335Y-71979838D01*
X122810348Y-71963261D01*
X122844003Y-71953051D01*
X122885138Y-71949000D01*
X125214862Y-71949000D01*
X125255997Y-71953051D01*
X125255997Y-71953051D01*
G37*
G36*
X121655997Y-71953051D02*
G01*
X121689652Y-71963261D01*
X121720665Y-71979838D01*
X121747851Y-72002149D01*
X121770162Y-72029335D01*
X121786739Y-72060348D01*
X121796949Y-72094003D01*
X121801000Y-72135138D01*
X121801000Y-73464862D01*
X121796949Y-73505997D01*
X121786739Y-73539652D01*
X121770162Y-73570665D01*
X121747851Y-73597851D01*
X121720665Y-73620162D01*
X121689652Y-73636739D01*
X121655997Y-73646949D01*
X121614862Y-73651000D01*
X119285138Y-73651000D01*
X119244003Y-73646949D01*
X119210348Y-73636739D01*
X119179335Y-73620162D01*
X119152149Y-73597851D01*
X119129838Y-73570665D01*
X119113261Y-73539652D01*
X119103051Y-73505997D01*
X119099000Y-73464862D01*
X119099000Y-72135138D01*
X119103051Y-72094003D01*
X119113261Y-72060348D01*
X119129838Y-72029335D01*
X119152149Y-72002149D01*
X119179335Y-71979838D01*
X119210348Y-71963261D01*
X119244003Y-71953051D01*
X119285138Y-71949000D01*
X121614862Y-71949000D01*
X121655997Y-71953051D01*
X121655997Y-71953051D01*
G37*
G36*
X68755997Y-71953051D02*
G01*
X68789652Y-71963261D01*
X68820665Y-71979838D01*
X68847851Y-72002149D01*
X68870162Y-72029335D01*
X68886739Y-72060348D01*
X68896949Y-72094003D01*
X68901000Y-72135138D01*
X68901000Y-73464862D01*
X68896949Y-73505997D01*
X68886739Y-73539652D01*
X68870162Y-73570665D01*
X68847851Y-73597851D01*
X68820665Y-73620162D01*
X68789652Y-73636739D01*
X68755997Y-73646949D01*
X68714862Y-73651000D01*
X66385138Y-73651000D01*
X66344003Y-73646949D01*
X66310348Y-73636739D01*
X66279335Y-73620162D01*
X66252149Y-73597851D01*
X66229838Y-73570665D01*
X66213261Y-73539652D01*
X66203051Y-73505997D01*
X66199000Y-73464862D01*
X66199000Y-72135138D01*
X66203051Y-72094003D01*
X66213261Y-72060348D01*
X66229838Y-72029335D01*
X66252149Y-72002149D01*
X66279335Y-71979838D01*
X66310348Y-71963261D01*
X66344003Y-71953051D01*
X66385138Y-71949000D01*
X68714862Y-71949000D01*
X68755997Y-71953051D01*
X68755997Y-71953051D01*
G37*
G36*
X65155997Y-71953051D02*
G01*
X65189652Y-71963261D01*
X65220665Y-71979838D01*
X65247851Y-72002149D01*
X65270162Y-72029335D01*
X65286739Y-72060348D01*
X65296949Y-72094003D01*
X65301000Y-72135138D01*
X65301000Y-73464862D01*
X65296949Y-73505997D01*
X65286739Y-73539652D01*
X65270162Y-73570665D01*
X65247851Y-73597851D01*
X65220665Y-73620162D01*
X65189652Y-73636739D01*
X65155997Y-73646949D01*
X65114862Y-73651000D01*
X62785138Y-73651000D01*
X62744003Y-73646949D01*
X62710348Y-73636739D01*
X62679335Y-73620162D01*
X62652149Y-73597851D01*
X62629838Y-73570665D01*
X62613261Y-73539652D01*
X62603051Y-73505997D01*
X62599000Y-73464862D01*
X62599000Y-72135138D01*
X62603051Y-72094003D01*
X62613261Y-72060348D01*
X62629838Y-72029335D01*
X62652149Y-72002149D01*
X62679335Y-71979838D01*
X62710348Y-71963261D01*
X62744003Y-71953051D01*
X62785138Y-71949000D01*
X65114862Y-71949000D01*
X65155997Y-71953051D01*
X65155997Y-71953051D01*
G37*
G36*
X131210915Y-70852934D02*
G01*
X131243424Y-70862795D01*
X131273382Y-70878809D01*
X131299641Y-70900359D01*
X131321191Y-70926618D01*
X131337205Y-70956576D01*
X131347066Y-70989085D01*
X131351000Y-71029029D01*
X131351000Y-72570971D01*
X131347066Y-72610915D01*
X131337205Y-72643424D01*
X131321191Y-72673382D01*
X131299641Y-72699641D01*
X131273382Y-72721191D01*
X131243424Y-72737205D01*
X131210915Y-72747066D01*
X131170971Y-72751000D01*
X127829029Y-72751000D01*
X127789085Y-72747066D01*
X127756576Y-72737205D01*
X127726618Y-72721191D01*
X127700359Y-72699641D01*
X127678809Y-72673382D01*
X127662795Y-72643424D01*
X127652934Y-72610915D01*
X127649000Y-72570971D01*
X127649000Y-71029029D01*
X127652934Y-70989085D01*
X127662795Y-70956576D01*
X127678809Y-70926618D01*
X127700359Y-70900359D01*
X127726618Y-70878809D01*
X127756576Y-70862795D01*
X127789085Y-70852934D01*
X127829029Y-70849000D01*
X131170971Y-70849000D01*
X131210915Y-70852934D01*
X131210915Y-70852934D01*
G37*
G36*
X59586425Y-70837760D02*
G01*
X59586428Y-70837761D01*
X59586429Y-70837761D01*
X59765693Y-70892140D01*
X59765696Y-70892142D01*
X59765697Y-70892142D01*
X59930903Y-70980446D01*
X60075712Y-71099288D01*
X60194554Y-71244097D01*
X60282858Y-71409303D01*
X60282860Y-71409307D01*
X60320411Y-71533097D01*
X60337240Y-71588575D01*
X60355601Y-71775000D01*
X60337240Y-71961425D01*
X60337239Y-71961428D01*
X60337239Y-71961429D01*
X60282860Y-72140693D01*
X60282858Y-72140696D01*
X60282858Y-72140697D01*
X60194554Y-72305903D01*
X60075712Y-72450712D01*
X59930903Y-72569554D01*
X59811086Y-72633597D01*
X59765693Y-72657860D01*
X59586429Y-72712239D01*
X59586428Y-72712239D01*
X59586425Y-72712240D01*
X59446718Y-72726000D01*
X57553282Y-72726000D01*
X57413575Y-72712240D01*
X57413572Y-72712239D01*
X57413571Y-72712239D01*
X57234307Y-72657860D01*
X57188914Y-72633597D01*
X57069097Y-72569554D01*
X56924288Y-72450712D01*
X56805446Y-72305903D01*
X56717142Y-72140697D01*
X56717142Y-72140696D01*
X56717140Y-72140693D01*
X56662761Y-71961429D01*
X56662761Y-71961428D01*
X56662760Y-71961425D01*
X56644399Y-71775000D01*
X56662760Y-71588575D01*
X56679589Y-71533097D01*
X56717140Y-71409307D01*
X56717142Y-71409303D01*
X56805446Y-71244097D01*
X56924288Y-71099288D01*
X57069097Y-70980446D01*
X57234303Y-70892142D01*
X57234304Y-70892142D01*
X57234307Y-70892140D01*
X57413571Y-70837761D01*
X57413572Y-70837761D01*
X57413575Y-70837760D01*
X57553282Y-70824000D01*
X59446718Y-70824000D01*
X59586425Y-70837760D01*
X59586425Y-70837760D01*
G37*
G36*
X101868228Y-70311703D02*
G01*
X102023100Y-70375853D01*
X102162481Y-70468985D01*
X102281015Y-70587519D01*
X102374147Y-70726900D01*
X102438297Y-70881772D01*
X102471000Y-71046184D01*
X102471000Y-71213816D01*
X102438297Y-71378228D01*
X102374147Y-71533100D01*
X102281015Y-71672481D01*
X102162481Y-71791015D01*
X102023100Y-71884147D01*
X101868228Y-71948297D01*
X101703816Y-71981000D01*
X101536184Y-71981000D01*
X101371772Y-71948297D01*
X101216900Y-71884147D01*
X101077519Y-71791015D01*
X100958985Y-71672481D01*
X100865853Y-71533100D01*
X100801703Y-71378228D01*
X100769000Y-71213816D01*
X100769000Y-71046184D01*
X100801703Y-70881772D01*
X100865853Y-70726900D01*
X100958985Y-70587519D01*
X101077519Y-70468985D01*
X101216900Y-70375853D01*
X101371772Y-70311703D01*
X101536184Y-70279000D01*
X101703816Y-70279000D01*
X101868228Y-70311703D01*
X101868228Y-70311703D01*
G37*
G36*
X86628228Y-70311703D02*
G01*
X86783100Y-70375853D01*
X86922481Y-70468985D01*
X87041015Y-70587519D01*
X87134147Y-70726900D01*
X87198297Y-70881772D01*
X87231000Y-71046184D01*
X87231000Y-71213816D01*
X87198297Y-71378228D01*
X87134147Y-71533100D01*
X87041015Y-71672481D01*
X86922481Y-71791015D01*
X86783100Y-71884147D01*
X86628228Y-71948297D01*
X86463816Y-71981000D01*
X86296184Y-71981000D01*
X86131772Y-71948297D01*
X85976900Y-71884147D01*
X85837519Y-71791015D01*
X85718985Y-71672481D01*
X85625853Y-71533100D01*
X85561703Y-71378228D01*
X85529000Y-71213816D01*
X85529000Y-71046184D01*
X85561703Y-70881772D01*
X85625853Y-70726900D01*
X85718985Y-70587519D01*
X85837519Y-70468985D01*
X85976900Y-70375853D01*
X86131772Y-70311703D01*
X86296184Y-70279000D01*
X86463816Y-70279000D01*
X86628228Y-70311703D01*
X86628228Y-70311703D01*
G37*
G36*
X81601000Y-70656000D02*
G01*
X78649000Y-70656000D01*
X78649000Y-69554000D01*
X81601000Y-69554000D01*
X81601000Y-70656000D01*
X81601000Y-70656000D01*
G37*
G36*
X109351000Y-70656000D02*
G01*
X106399000Y-70656000D01*
X106399000Y-69554000D01*
X109351000Y-69554000D01*
X109351000Y-70656000D01*
X109351000Y-70656000D01*
G37*
G36*
X75476000Y-70651000D02*
G01*
X70374000Y-70651000D01*
X70374000Y-64999000D01*
X75476000Y-64999000D01*
X75476000Y-70651000D01*
X75476000Y-70651000D01*
G37*
G36*
X117626000Y-70651000D02*
G01*
X112524000Y-70651000D01*
X112524000Y-64999000D01*
X117626000Y-64999000D01*
X117626000Y-70651000D01*
X117626000Y-70651000D01*
G37*
G36*
X101868228Y-67771703D02*
G01*
X102023100Y-67835853D01*
X102162481Y-67928985D01*
X102281015Y-68047519D01*
X102374147Y-68186900D01*
X102438297Y-68341772D01*
X102471000Y-68506184D01*
X102471000Y-68673816D01*
X102438297Y-68838228D01*
X102374147Y-68993100D01*
X102281015Y-69132481D01*
X102162481Y-69251015D01*
X102023100Y-69344147D01*
X101868228Y-69408297D01*
X101703816Y-69441000D01*
X101536184Y-69441000D01*
X101371772Y-69408297D01*
X101216900Y-69344147D01*
X101077519Y-69251015D01*
X100958985Y-69132481D01*
X100865853Y-68993100D01*
X100801703Y-68838228D01*
X100769000Y-68673816D01*
X100769000Y-68506184D01*
X100801703Y-68341772D01*
X100865853Y-68186900D01*
X100958985Y-68047519D01*
X101077519Y-67928985D01*
X101216900Y-67835853D01*
X101371772Y-67771703D01*
X101536184Y-67739000D01*
X101703816Y-67739000D01*
X101868228Y-67771703D01*
X101868228Y-67771703D01*
G37*
G36*
X86628228Y-67771703D02*
G01*
X86783100Y-67835853D01*
X86922481Y-67928985D01*
X87041015Y-68047519D01*
X87134147Y-68186900D01*
X87198297Y-68341772D01*
X87231000Y-68506184D01*
X87231000Y-68673816D01*
X87198297Y-68838228D01*
X87134147Y-68993100D01*
X87041015Y-69132481D01*
X86922481Y-69251015D01*
X86783100Y-69344147D01*
X86628228Y-69408297D01*
X86463816Y-69441000D01*
X86296184Y-69441000D01*
X86131772Y-69408297D01*
X85976900Y-69344147D01*
X85837519Y-69251015D01*
X85718985Y-69132481D01*
X85625853Y-68993100D01*
X85561703Y-68838228D01*
X85529000Y-68673816D01*
X85529000Y-68506184D01*
X85561703Y-68341772D01*
X85625853Y-68186900D01*
X85718985Y-68047519D01*
X85837519Y-67928985D01*
X85976900Y-67835853D01*
X86131772Y-67771703D01*
X86296184Y-67739000D01*
X86463816Y-67739000D01*
X86628228Y-67771703D01*
X86628228Y-67771703D01*
G37*
G36*
X130586425Y-67362760D02*
G01*
X130586428Y-67362761D01*
X130586429Y-67362761D01*
X130765693Y-67417140D01*
X130765696Y-67417142D01*
X130765697Y-67417142D01*
X130930903Y-67505446D01*
X131075712Y-67624288D01*
X131194554Y-67769097D01*
X131280015Y-67928985D01*
X131282860Y-67934307D01*
X131337239Y-68113571D01*
X131337240Y-68113575D01*
X131355601Y-68300000D01*
X131337240Y-68486425D01*
X131337239Y-68486428D01*
X131337239Y-68486429D01*
X131282860Y-68665693D01*
X131282858Y-68665696D01*
X131282858Y-68665697D01*
X131194554Y-68830903D01*
X131075712Y-68975712D01*
X130930903Y-69094554D01*
X130781070Y-69174641D01*
X130765693Y-69182860D01*
X130586429Y-69237239D01*
X130586428Y-69237239D01*
X130586425Y-69237240D01*
X130446718Y-69251000D01*
X128553282Y-69251000D01*
X128413575Y-69237240D01*
X128413572Y-69237239D01*
X128413571Y-69237239D01*
X128234307Y-69182860D01*
X128218930Y-69174641D01*
X128069097Y-69094554D01*
X127924288Y-68975712D01*
X127805446Y-68830903D01*
X127717142Y-68665697D01*
X127717142Y-68665696D01*
X127717140Y-68665693D01*
X127662761Y-68486429D01*
X127662761Y-68486428D01*
X127662760Y-68486425D01*
X127644399Y-68300000D01*
X127662760Y-68113575D01*
X127662761Y-68113571D01*
X127717140Y-67934307D01*
X127719985Y-67928985D01*
X127805446Y-67769097D01*
X127924288Y-67624288D01*
X128069097Y-67505446D01*
X128234303Y-67417142D01*
X128234304Y-67417142D01*
X128234307Y-67417140D01*
X128413571Y-67362761D01*
X128413572Y-67362761D01*
X128413575Y-67362760D01*
X128553282Y-67349000D01*
X130446718Y-67349000D01*
X130586425Y-67362760D01*
X130586425Y-67362760D01*
G37*
G36*
X60210915Y-67327934D02*
G01*
X60243424Y-67337795D01*
X60273382Y-67353809D01*
X60299641Y-67375359D01*
X60321191Y-67401618D01*
X60337205Y-67431576D01*
X60347066Y-67464085D01*
X60351000Y-67504029D01*
X60351000Y-69045971D01*
X60347066Y-69085915D01*
X60337205Y-69118424D01*
X60321191Y-69148382D01*
X60299641Y-69174641D01*
X60273382Y-69196191D01*
X60243424Y-69212205D01*
X60210915Y-69222066D01*
X60170971Y-69226000D01*
X56829029Y-69226000D01*
X56789085Y-69222066D01*
X56756576Y-69212205D01*
X56726618Y-69196191D01*
X56700359Y-69174641D01*
X56678809Y-69148382D01*
X56662795Y-69118424D01*
X56652934Y-69085915D01*
X56649000Y-69045971D01*
X56649000Y-67504029D01*
X56652934Y-67464085D01*
X56662795Y-67431576D01*
X56678809Y-67401618D01*
X56700359Y-67375359D01*
X56726618Y-67353809D01*
X56756576Y-67337795D01*
X56789085Y-67327934D01*
X56829029Y-67324000D01*
X60170971Y-67324000D01*
X60210915Y-67327934D01*
X60210915Y-67327934D01*
G37*
G36*
X86628228Y-65231703D02*
G01*
X86783100Y-65295853D01*
X86922481Y-65388985D01*
X87041015Y-65507519D01*
X87134147Y-65646900D01*
X87198297Y-65801772D01*
X87231000Y-65966184D01*
X87231000Y-66133816D01*
X87198297Y-66298228D01*
X87134147Y-66453100D01*
X87041015Y-66592481D01*
X86922481Y-66711015D01*
X86783100Y-66804147D01*
X86628228Y-66868297D01*
X86463816Y-66901000D01*
X86296184Y-66901000D01*
X86131772Y-66868297D01*
X85976900Y-66804147D01*
X85837519Y-66711015D01*
X85718985Y-66592481D01*
X85625853Y-66453100D01*
X85561703Y-66298228D01*
X85529000Y-66133816D01*
X85529000Y-65966184D01*
X85561703Y-65801772D01*
X85625853Y-65646900D01*
X85718985Y-65507519D01*
X85837519Y-65388985D01*
X85976900Y-65295853D01*
X86131772Y-65231703D01*
X86296184Y-65199000D01*
X86463816Y-65199000D01*
X86628228Y-65231703D01*
X86628228Y-65231703D01*
G37*
G36*
X101868228Y-65231703D02*
G01*
X102023100Y-65295853D01*
X102162481Y-65388985D01*
X102281015Y-65507519D01*
X102374147Y-65646900D01*
X102438297Y-65801772D01*
X102471000Y-65966184D01*
X102471000Y-66133816D01*
X102438297Y-66298228D01*
X102374147Y-66453100D01*
X102281015Y-66592481D01*
X102162481Y-66711015D01*
X102023100Y-66804147D01*
X101868228Y-66868297D01*
X101703816Y-66901000D01*
X101536184Y-66901000D01*
X101371772Y-66868297D01*
X101216900Y-66804147D01*
X101077519Y-66711015D01*
X100958985Y-66592481D01*
X100865853Y-66453100D01*
X100801703Y-66298228D01*
X100769000Y-66133816D01*
X100769000Y-65966184D01*
X100801703Y-65801772D01*
X100865853Y-65646900D01*
X100958985Y-65507519D01*
X101077519Y-65388985D01*
X101216900Y-65295853D01*
X101371772Y-65231703D01*
X101536184Y-65199000D01*
X101703816Y-65199000D01*
X101868228Y-65231703D01*
X101868228Y-65231703D01*
G37*
G36*
X81601000Y-66096000D02*
G01*
X78649000Y-66096000D01*
X78649000Y-64994000D01*
X81601000Y-64994000D01*
X81601000Y-66096000D01*
X81601000Y-66096000D01*
G37*
G36*
X109351000Y-66096000D02*
G01*
X106399000Y-66096000D01*
X106399000Y-64994000D01*
X109351000Y-64994000D01*
X109351000Y-66096000D01*
X109351000Y-66096000D01*
G37*
G36*
X101868228Y-62691703D02*
G01*
X102023100Y-62755853D01*
X102162481Y-62848985D01*
X102281015Y-62967519D01*
X102374147Y-63106900D01*
X102438297Y-63261772D01*
X102471000Y-63426184D01*
X102471000Y-63593816D01*
X102438297Y-63758228D01*
X102374147Y-63913100D01*
X102281015Y-64052481D01*
X102162481Y-64171015D01*
X102023100Y-64264147D01*
X101868228Y-64328297D01*
X101703816Y-64361000D01*
X101536184Y-64361000D01*
X101371772Y-64328297D01*
X101216900Y-64264147D01*
X101077519Y-64171015D01*
X100958985Y-64052481D01*
X100865853Y-63913100D01*
X100801703Y-63758228D01*
X100769000Y-63593816D01*
X100769000Y-63426184D01*
X100801703Y-63261772D01*
X100865853Y-63106900D01*
X100958985Y-62967519D01*
X101077519Y-62848985D01*
X101216900Y-62755853D01*
X101371772Y-62691703D01*
X101536184Y-62659000D01*
X101703816Y-62659000D01*
X101868228Y-62691703D01*
X101868228Y-62691703D01*
G37*
G36*
X86628228Y-62691703D02*
G01*
X86783100Y-62755853D01*
X86922481Y-62848985D01*
X87041015Y-62967519D01*
X87134147Y-63106900D01*
X87198297Y-63261772D01*
X87231000Y-63426184D01*
X87231000Y-63593816D01*
X87198297Y-63758228D01*
X87134147Y-63913100D01*
X87041015Y-64052481D01*
X86922481Y-64171015D01*
X86783100Y-64264147D01*
X86628228Y-64328297D01*
X86463816Y-64361000D01*
X86296184Y-64361000D01*
X86131772Y-64328297D01*
X85976900Y-64264147D01*
X85837519Y-64171015D01*
X85718985Y-64052481D01*
X85625853Y-63913100D01*
X85561703Y-63758228D01*
X85529000Y-63593816D01*
X85529000Y-63426184D01*
X85561703Y-63261772D01*
X85625853Y-63106900D01*
X85718985Y-62967519D01*
X85837519Y-62848985D01*
X85976900Y-62755853D01*
X86131772Y-62691703D01*
X86296184Y-62659000D01*
X86463816Y-62659000D01*
X86628228Y-62691703D01*
X86628228Y-62691703D01*
G37*
G36*
X132626068Y-62342165D02*
G01*
X132664738Y-62353896D01*
X132700377Y-62372946D01*
X132731617Y-62398583D01*
X132757254Y-62429823D01*
X132776304Y-62465462D01*
X132788035Y-62504132D01*
X132792600Y-62550488D01*
X132792600Y-63626712D01*
X132788035Y-63673068D01*
X132776304Y-63711738D01*
X132757254Y-63747377D01*
X132731617Y-63778617D01*
X132700377Y-63804254D01*
X132664738Y-63823304D01*
X132626068Y-63835035D01*
X132579712Y-63839600D01*
X131928488Y-63839600D01*
X131882132Y-63835035D01*
X131843462Y-63823304D01*
X131807823Y-63804254D01*
X131776583Y-63778617D01*
X131750946Y-63747377D01*
X131731896Y-63711738D01*
X131720165Y-63673068D01*
X131715600Y-63626712D01*
X131715600Y-62550488D01*
X131720165Y-62504132D01*
X131731896Y-62465462D01*
X131750946Y-62429823D01*
X131776583Y-62398583D01*
X131807823Y-62372946D01*
X131843462Y-62353896D01*
X131882132Y-62342165D01*
X131928488Y-62337600D01*
X132579712Y-62337600D01*
X132626068Y-62342165D01*
X132626068Y-62342165D01*
G37*
G36*
X130751068Y-62342165D02*
G01*
X130789738Y-62353896D01*
X130825377Y-62372946D01*
X130856617Y-62398583D01*
X130882254Y-62429823D01*
X130901304Y-62465462D01*
X130913035Y-62504132D01*
X130917600Y-62550488D01*
X130917600Y-63626712D01*
X130913035Y-63673068D01*
X130901304Y-63711738D01*
X130882254Y-63747377D01*
X130856617Y-63778617D01*
X130825377Y-63804254D01*
X130789738Y-63823304D01*
X130751068Y-63835035D01*
X130704712Y-63839600D01*
X130053488Y-63839600D01*
X130007132Y-63835035D01*
X129968462Y-63823304D01*
X129932823Y-63804254D01*
X129901583Y-63778617D01*
X129875946Y-63747377D01*
X129856896Y-63711738D01*
X129845165Y-63673068D01*
X129840600Y-63626712D01*
X129840600Y-62550488D01*
X129845165Y-62504132D01*
X129856896Y-62465462D01*
X129875946Y-62429823D01*
X129901583Y-62398583D01*
X129932823Y-62372946D01*
X129968462Y-62353896D01*
X130007132Y-62342165D01*
X130053488Y-62337600D01*
X130704712Y-62337600D01*
X130751068Y-62342165D01*
X130751068Y-62342165D01*
G37*
G36*
X117208871Y-58689786D02*
G01*
X117319780Y-58723430D01*
X117410054Y-58750814D01*
X117414530Y-58752172D01*
X117604055Y-58853475D01*
X117604058Y-58853477D01*
X117604059Y-58853478D01*
X117770186Y-58989814D01*
X117906522Y-59155941D01*
X117906525Y-59155945D01*
X118007828Y-59345470D01*
X118070214Y-59551129D01*
X118086000Y-59711409D01*
X118086000Y-61338591D01*
X118070214Y-61498871D01*
X118007828Y-61704530D01*
X117906525Y-61894055D01*
X117906523Y-61894057D01*
X117906522Y-61894059D01*
X117770186Y-62060186D01*
X117604059Y-62196522D01*
X117604057Y-62196523D01*
X117414529Y-62297828D01*
X117414526Y-62297829D01*
X117403057Y-62301308D01*
X117208870Y-62360214D01*
X116995000Y-62381278D01*
X116781129Y-62360214D01*
X116586942Y-62301308D01*
X116575473Y-62297829D01*
X116575470Y-62297828D01*
X116385945Y-62196525D01*
X116347417Y-62164906D01*
X116219814Y-62060186D01*
X116083478Y-61894059D01*
X115990408Y-61719937D01*
X115982172Y-61704529D01*
X115919786Y-61498870D01*
X115904000Y-61338590D01*
X115904000Y-59711409D01*
X115919786Y-59551126D01*
X115982171Y-59345473D01*
X116083476Y-59155945D01*
X116083479Y-59155941D01*
X116219815Y-58989814D01*
X116385942Y-58853478D01*
X116385943Y-58853477D01*
X116385946Y-58853475D01*
X116575471Y-58752172D01*
X116579948Y-58750814D01*
X116670221Y-58723430D01*
X116781130Y-58689786D01*
X116995000Y-58668722D01*
X117208871Y-58689786D01*
X117208871Y-58689786D01*
G37*
G36*
X123031217Y-58677808D02*
G01*
X123062489Y-58687294D01*
X123091308Y-58702698D01*
X123116570Y-58723430D01*
X123137302Y-58748692D01*
X123152706Y-58777511D01*
X123162192Y-58808783D01*
X123166000Y-58847448D01*
X123166000Y-62202552D01*
X123162192Y-62241217D01*
X123152706Y-62272489D01*
X123137302Y-62301308D01*
X123116570Y-62326570D01*
X123091308Y-62347302D01*
X123062489Y-62362706D01*
X123031217Y-62372192D01*
X122992552Y-62376000D01*
X121157448Y-62376000D01*
X121118783Y-62372192D01*
X121087511Y-62362706D01*
X121058692Y-62347302D01*
X121033430Y-62326570D01*
X121012698Y-62301308D01*
X120997294Y-62272489D01*
X120987808Y-62241217D01*
X120984000Y-62202552D01*
X120984000Y-58847448D01*
X120987808Y-58808783D01*
X120997294Y-58777511D01*
X121012698Y-58748692D01*
X121033430Y-58723430D01*
X121058692Y-58702698D01*
X121087511Y-58687294D01*
X121118783Y-58677808D01*
X121157448Y-58674000D01*
X122992552Y-58674000D01*
X123031217Y-58677808D01*
X123031217Y-58677808D01*
G37*
G36*
X130751068Y-60342165D02*
G01*
X130789738Y-60353896D01*
X130825377Y-60372946D01*
X130856617Y-60398583D01*
X130882254Y-60429823D01*
X130901304Y-60465462D01*
X130913035Y-60504132D01*
X130917600Y-60550488D01*
X130917600Y-61626712D01*
X130913035Y-61673068D01*
X130901304Y-61711738D01*
X130882254Y-61747377D01*
X130856617Y-61778617D01*
X130825377Y-61804254D01*
X130789738Y-61823304D01*
X130751068Y-61835035D01*
X130704712Y-61839600D01*
X130053488Y-61839600D01*
X130007132Y-61835035D01*
X129968462Y-61823304D01*
X129932823Y-61804254D01*
X129901583Y-61778617D01*
X129875946Y-61747377D01*
X129856896Y-61711738D01*
X129845165Y-61673068D01*
X129840600Y-61626712D01*
X129840600Y-60550488D01*
X129845165Y-60504132D01*
X129856896Y-60465462D01*
X129875946Y-60429823D01*
X129901583Y-60398583D01*
X129932823Y-60372946D01*
X129968462Y-60353896D01*
X130007132Y-60342165D01*
X130053488Y-60337600D01*
X130704712Y-60337600D01*
X130751068Y-60342165D01*
X130751068Y-60342165D01*
G37*
G36*
X132626068Y-60342165D02*
G01*
X132664738Y-60353896D01*
X132700377Y-60372946D01*
X132731617Y-60398583D01*
X132757254Y-60429823D01*
X132776304Y-60465462D01*
X132788035Y-60504132D01*
X132792600Y-60550488D01*
X132792600Y-61626712D01*
X132788035Y-61673068D01*
X132776304Y-61711738D01*
X132757254Y-61747377D01*
X132731617Y-61778617D01*
X132700377Y-61804254D01*
X132664738Y-61823304D01*
X132626068Y-61835035D01*
X132579712Y-61839600D01*
X131928488Y-61839600D01*
X131882132Y-61835035D01*
X131843462Y-61823304D01*
X131807823Y-61804254D01*
X131776583Y-61778617D01*
X131750946Y-61747377D01*
X131731896Y-61711738D01*
X131720165Y-61673068D01*
X131715600Y-61626712D01*
X131715600Y-60550488D01*
X131720165Y-60504132D01*
X131731896Y-60465462D01*
X131750946Y-60429823D01*
X131776583Y-60398583D01*
X131807823Y-60372946D01*
X131843462Y-60353896D01*
X131882132Y-60342165D01*
X131928488Y-60337600D01*
X132579712Y-60337600D01*
X132626068Y-60342165D01*
X132626068Y-60342165D01*
G37*
G36*
X87231000Y-61821000D02*
G01*
X85529000Y-61821000D01*
X85529000Y-60119000D01*
X87231000Y-60119000D01*
X87231000Y-61821000D01*
X87231000Y-61821000D01*
G37*
G36*
X102471000Y-61821000D02*
G01*
X100769000Y-61821000D01*
X100769000Y-60119000D01*
X102471000Y-60119000D01*
X102471000Y-61821000D01*
X102471000Y-61821000D01*
G37*
G36*
X54134239Y-50311467D02*
G01*
X54448282Y-50373934D01*
X55039926Y-50619001D01*
X55572392Y-50974784D01*
X56025216Y-51427608D01*
X56380999Y-51960074D01*
X56626066Y-52551718D01*
X56751000Y-53179804D01*
X56751000Y-53820196D01*
X56626066Y-54448282D01*
X56380999Y-55039926D01*
X56025216Y-55572392D01*
X55572392Y-56025216D01*
X55039926Y-56380999D01*
X54448282Y-56626066D01*
X54134239Y-56688533D01*
X53820197Y-56751000D01*
X53179803Y-56751000D01*
X52865761Y-56688533D01*
X52551718Y-56626066D01*
X51960074Y-56380999D01*
X51427608Y-56025216D01*
X50974784Y-55572392D01*
X50619001Y-55039926D01*
X50373934Y-54448282D01*
X50249000Y-53820196D01*
X50249000Y-53179804D01*
X50373934Y-52551718D01*
X50619001Y-51960074D01*
X50974784Y-51427608D01*
X51427608Y-50974784D01*
X51960074Y-50619001D01*
X52551718Y-50373934D01*
X52865761Y-50311467D01*
X53179803Y-50249000D01*
X53820197Y-50249000D01*
X54134239Y-50311467D01*
X54134239Y-50311467D01*
G37*
G36*
X135134239Y-50311467D02*
G01*
X135448282Y-50373934D01*
X136039926Y-50619001D01*
X136572392Y-50974784D01*
X137025216Y-51427608D01*
X137380999Y-51960074D01*
X137626066Y-52551718D01*
X137751000Y-53179804D01*
X137751000Y-53820196D01*
X137626066Y-54448282D01*
X137380999Y-55039926D01*
X137025216Y-55572392D01*
X136572392Y-56025216D01*
X136039926Y-56380999D01*
X135448282Y-56626066D01*
X135134239Y-56688533D01*
X134820197Y-56751000D01*
X134179803Y-56751000D01*
X133865761Y-56688533D01*
X133551718Y-56626066D01*
X132960074Y-56380999D01*
X132427608Y-56025216D01*
X131974784Y-55572392D01*
X131619001Y-55039926D01*
X131373934Y-54448282D01*
X131249000Y-53820196D01*
X131249000Y-53179804D01*
X131373934Y-52551718D01*
X131619001Y-51960074D01*
X131974784Y-51427608D01*
X132427608Y-50974784D01*
X132960074Y-50619001D01*
X133551718Y-50373934D01*
X133865761Y-50311467D01*
X134179803Y-50249000D01*
X134820197Y-50249000D01*
X135134239Y-50311467D01*
X135134239Y-50311467D01*
G37*
M02*
