G04 #@! TF.GenerationSoftware,KiCad,Pcbnew,(5.1.4)-1*
G04 #@! TF.CreationDate,2020-03-06T17:00:34+01:00*
G04 #@! TF.ProjectId,asserv_dc,61737365-7276-45f6-9463-2e6b69636164,rev?*
G04 #@! TF.SameCoordinates,Original*
G04 #@! TF.FileFunction,Legend,Top*
G04 #@! TF.FilePolarity,Positive*
%FSLAX46Y46*%
G04 Gerber Fmt 4.6, Leading zero omitted, Abs format (unit mm)*
G04 Created by KiCad (PCBNEW (5.1.4)-1) date 2020-03-06 17:00:34*
%MOMM*%
%LPD*%
G04 APERTURE LIST*
%ADD10C,0.300000*%
%ADD11C,0.250000*%
%ADD12C,0.200000*%
%ADD13C,0.120000*%
%ADD14C,0.150000*%
%ADD15C,0.127000*%
%ADD16C,0.400000*%
%ADD17C,0.050000*%
G04 APERTURE END LIST*
D10*
X58322628Y-103553571D02*
X58322628Y-102053571D01*
X58679771Y-102053571D01*
X58894057Y-102125000D01*
X59036914Y-102267857D01*
X59108342Y-102410714D01*
X59179771Y-102696428D01*
X59179771Y-102910714D01*
X59108342Y-103196428D01*
X59036914Y-103339285D01*
X58894057Y-103482142D01*
X58679771Y-103553571D01*
X58322628Y-103553571D01*
X60679771Y-103410714D02*
X60608342Y-103482142D01*
X60394057Y-103553571D01*
X60251200Y-103553571D01*
X60036914Y-103482142D01*
X59894057Y-103339285D01*
X59822628Y-103196428D01*
X59751200Y-102910714D01*
X59751200Y-102696428D01*
X59822628Y-102410714D01*
X59894057Y-102267857D01*
X60036914Y-102125000D01*
X60251200Y-102053571D01*
X60394057Y-102053571D01*
X60608342Y-102125000D01*
X60679771Y-102196428D01*
X62465485Y-103553571D02*
X62465485Y-102053571D01*
X62965485Y-103125000D01*
X63465485Y-102053571D01*
X63465485Y-103553571D01*
X64394057Y-103553571D02*
X64251200Y-103482142D01*
X64179771Y-103410714D01*
X64108342Y-103267857D01*
X64108342Y-102839285D01*
X64179771Y-102696428D01*
X64251200Y-102625000D01*
X64394057Y-102553571D01*
X64608342Y-102553571D01*
X64751200Y-102625000D01*
X64822628Y-102696428D01*
X64894057Y-102839285D01*
X64894057Y-103267857D01*
X64822628Y-103410714D01*
X64751200Y-103482142D01*
X64608342Y-103553571D01*
X64394057Y-103553571D01*
X65322628Y-102553571D02*
X65894057Y-102553571D01*
X65536914Y-102053571D02*
X65536914Y-103339285D01*
X65608342Y-103482142D01*
X65751200Y-103553571D01*
X65894057Y-103553571D01*
X66608342Y-103553571D02*
X66465485Y-103482142D01*
X66394057Y-103410714D01*
X66322628Y-103267857D01*
X66322628Y-102839285D01*
X66394057Y-102696428D01*
X66465485Y-102625000D01*
X66608342Y-102553571D01*
X66822628Y-102553571D01*
X66965485Y-102625000D01*
X67036914Y-102696428D01*
X67108342Y-102839285D01*
X67108342Y-103267857D01*
X67036914Y-103410714D01*
X66965485Y-103482142D01*
X66822628Y-103553571D01*
X66608342Y-103553571D01*
X67751200Y-103553571D02*
X67751200Y-102553571D01*
X67751200Y-102839285D02*
X67822628Y-102696428D01*
X67894057Y-102625000D01*
X68036914Y-102553571D01*
X68179771Y-102553571D01*
X68608342Y-103482142D02*
X68751200Y-103553571D01*
X69036914Y-103553571D01*
X69179771Y-103482142D01*
X69251200Y-103339285D01*
X69251200Y-103267857D01*
X69179771Y-103125000D01*
X69036914Y-103053571D01*
X68822628Y-103053571D01*
X68679771Y-102982142D01*
X68608342Y-102839285D01*
X68608342Y-102767857D01*
X68679771Y-102625000D01*
X68822628Y-102553571D01*
X69036914Y-102553571D01*
X69179771Y-102625000D01*
X70822628Y-102053571D02*
X71322628Y-103553571D01*
X71822628Y-102053571D01*
X73108342Y-103553571D02*
X72251200Y-103553571D01*
X72679771Y-103553571D02*
X72679771Y-102053571D01*
X72536914Y-102267857D01*
X72394057Y-102410714D01*
X72251200Y-102482142D01*
X73751200Y-103410714D02*
X73822628Y-103482142D01*
X73751200Y-103553571D01*
X73679771Y-103482142D01*
X73751200Y-103410714D01*
X73751200Y-103553571D01*
X75251200Y-103553571D02*
X74394057Y-103553571D01*
X74822628Y-103553571D02*
X74822628Y-102053571D01*
X74679771Y-102267857D01*
X74536914Y-102410714D01*
X74394057Y-102482142D01*
X118116114Y-103410714D02*
X118044685Y-103482142D01*
X117830400Y-103553571D01*
X117687542Y-103553571D01*
X117473257Y-103482142D01*
X117330400Y-103339285D01*
X117258971Y-103196428D01*
X117187542Y-102910714D01*
X117187542Y-102696428D01*
X117258971Y-102410714D01*
X117330400Y-102267857D01*
X117473257Y-102125000D01*
X117687542Y-102053571D01*
X117830400Y-102053571D01*
X118044685Y-102125000D01*
X118116114Y-102196428D01*
X118758971Y-103553571D02*
X118758971Y-102053571D01*
X119116114Y-102053571D01*
X119330400Y-102125000D01*
X119473257Y-102267857D01*
X119544685Y-102410714D01*
X119616114Y-102696428D01*
X119616114Y-102910714D01*
X119544685Y-103196428D01*
X119473257Y-103339285D01*
X119330400Y-103482142D01*
X119116114Y-103553571D01*
X118758971Y-103553571D01*
X121116114Y-103553571D02*
X120616114Y-102839285D01*
X120258971Y-103553571D02*
X120258971Y-102053571D01*
X120830400Y-102053571D01*
X120973257Y-102125000D01*
X121044685Y-102196428D01*
X121116114Y-102339285D01*
X121116114Y-102553571D01*
X121044685Y-102696428D01*
X120973257Y-102767857D01*
X120830400Y-102839285D01*
X120258971Y-102839285D01*
X122830400Y-102196428D02*
X122901828Y-102125000D01*
X123044685Y-102053571D01*
X123401828Y-102053571D01*
X123544685Y-102125000D01*
X123616114Y-102196428D01*
X123687542Y-102339285D01*
X123687542Y-102482142D01*
X123616114Y-102696428D01*
X122758971Y-103553571D01*
X123687542Y-103553571D01*
X124616114Y-102053571D02*
X124758971Y-102053571D01*
X124901828Y-102125000D01*
X124973257Y-102196428D01*
X125044685Y-102339285D01*
X125116114Y-102625000D01*
X125116114Y-102982142D01*
X125044685Y-103267857D01*
X124973257Y-103410714D01*
X124901828Y-103482142D01*
X124758971Y-103553571D01*
X124616114Y-103553571D01*
X124473257Y-103482142D01*
X124401828Y-103410714D01*
X124330400Y-103267857D01*
X124258971Y-102982142D01*
X124258971Y-102625000D01*
X124330400Y-102339285D01*
X124401828Y-102196428D01*
X124473257Y-102125000D01*
X124616114Y-102053571D01*
X125687542Y-102196428D02*
X125758971Y-102125000D01*
X125901828Y-102053571D01*
X126258971Y-102053571D01*
X126401828Y-102125000D01*
X126473257Y-102196428D01*
X126544685Y-102339285D01*
X126544685Y-102482142D01*
X126473257Y-102696428D01*
X125616114Y-103553571D01*
X126544685Y-103553571D01*
X127473257Y-102053571D02*
X127616114Y-102053571D01*
X127758971Y-102125000D01*
X127830400Y-102196428D01*
X127901828Y-102339285D01*
X127973257Y-102625000D01*
X127973257Y-102982142D01*
X127901828Y-103267857D01*
X127830400Y-103410714D01*
X127758971Y-103482142D01*
X127616114Y-103553571D01*
X127473257Y-103553571D01*
X127330400Y-103482142D01*
X127258971Y-103410714D01*
X127187542Y-103267857D01*
X127116114Y-102982142D01*
X127116114Y-102625000D01*
X127187542Y-102339285D01*
X127258971Y-102196428D01*
X127330400Y-102125000D01*
X127473257Y-102053571D01*
X128673742Y-58695742D02*
X129816600Y-58695742D01*
X129245171Y-59267171D02*
X129245171Y-58124314D01*
X131316600Y-59267171D02*
X130459457Y-59267171D01*
X130888028Y-59267171D02*
X130888028Y-57767171D01*
X130745171Y-57981457D01*
X130602314Y-58124314D01*
X130459457Y-58195742D01*
X131888028Y-57910028D02*
X131959457Y-57838600D01*
X132102314Y-57767171D01*
X132459457Y-57767171D01*
X132602314Y-57838600D01*
X132673742Y-57910028D01*
X132745171Y-58052885D01*
X132745171Y-58195742D01*
X132673742Y-58410028D01*
X131816600Y-59267171D01*
X132745171Y-59267171D01*
X133173742Y-57767171D02*
X133673742Y-59267171D01*
X134173742Y-57767171D01*
D11*
X106850000Y-64525000D02*
G75*
G03X106850000Y-64525000I-125000J0D01*
G01*
D12*
X109725000Y-64575000D02*
X112225000Y-64575000D01*
X109725000Y-71075000D02*
X109725000Y-64575000D01*
X112225000Y-71075000D02*
X109725000Y-71075000D01*
D11*
X81400000Y-71125000D02*
G75*
G03X81400000Y-71125000I-125000J0D01*
G01*
D12*
X78275000Y-71075000D02*
X75775000Y-71075000D01*
X78275000Y-64575000D02*
X78275000Y-71075000D01*
X75775000Y-64575000D02*
X78275000Y-64575000D01*
D13*
X72750000Y-93350000D02*
X74450000Y-93350000D01*
X72750000Y-94550000D02*
X72750000Y-93350000D01*
X72650000Y-94550000D02*
X72750000Y-94550000D01*
X56650000Y-94550000D02*
X72650000Y-94550000D01*
X72750000Y-77150000D02*
X72750000Y-78350000D01*
X56650000Y-77150000D02*
X72750000Y-77150000D01*
X56550000Y-77150000D02*
X56550000Y-78350000D01*
X56650000Y-77150000D02*
X56550000Y-77150000D01*
X56550000Y-94550000D02*
X56550000Y-93350000D01*
X56650000Y-94550000D02*
X56550000Y-94550000D01*
X52040000Y-85616422D02*
X52040000Y-86133578D01*
X53460000Y-85616422D02*
X53460000Y-86133578D01*
X78141422Y-82085000D02*
X78658578Y-82085000D01*
X78141422Y-80665000D02*
X78658578Y-80665000D01*
X78141422Y-87785000D02*
X78658578Y-87785000D01*
X78141422Y-86365000D02*
X78658578Y-86365000D01*
X78141422Y-89685000D02*
X78658578Y-89685000D01*
X78141422Y-88265000D02*
X78658578Y-88265000D01*
X78141422Y-76385000D02*
X78658578Y-76385000D01*
X78141422Y-74965000D02*
X78658578Y-74965000D01*
X78141422Y-83985000D02*
X78658578Y-83985000D01*
X78141422Y-82565000D02*
X78658578Y-82565000D01*
X78141422Y-78285000D02*
X78658578Y-78285000D01*
X78141422Y-76865000D02*
X78658578Y-76865000D01*
X78141422Y-85885000D02*
X78658578Y-85885000D01*
X78141422Y-84465000D02*
X78658578Y-84465000D01*
X78141422Y-91585000D02*
X78658578Y-91585000D01*
X78141422Y-90165000D02*
X78658578Y-90165000D01*
X61100000Y-67975000D02*
X61100000Y-68575000D01*
X60500000Y-68275000D02*
X61100000Y-67975000D01*
X61100000Y-68575000D02*
X60500000Y-68275000D01*
X53700000Y-65715000D02*
X53700000Y-74335000D01*
X59810000Y-69325000D02*
X59810000Y-70725000D01*
X59810000Y-74335000D02*
X59810000Y-72825000D01*
X59810000Y-65715000D02*
X59810000Y-67225000D01*
X50390000Y-74335000D02*
X59810000Y-74335000D01*
X50390000Y-65715000D02*
X50390000Y-74335000D01*
X59810000Y-65715000D02*
X50390000Y-65715000D01*
X51790000Y-81500000D02*
X51790000Y-84185000D01*
X51790000Y-84185000D02*
X53710000Y-84185000D01*
X53710000Y-84185000D02*
X53710000Y-81500000D01*
X53710000Y-90935000D02*
X53710000Y-88250000D01*
X51790000Y-90935000D02*
X53710000Y-90935000D01*
X51790000Y-88250000D02*
X51790000Y-90935000D01*
X78141422Y-74285000D02*
X78658578Y-74285000D01*
X78141422Y-72865000D02*
X78658578Y-72865000D01*
X68500000Y-74610000D02*
X68500000Y-74110000D01*
X68750000Y-74360000D02*
X68250000Y-74360000D01*
X68010000Y-71604437D02*
X66945563Y-70540000D01*
X68010000Y-73995563D02*
X66945563Y-75060000D01*
X68010000Y-73995563D02*
X68010000Y-73860000D01*
X68010000Y-71604437D02*
X68010000Y-71740000D01*
X66945563Y-70540000D02*
X63490000Y-70540000D01*
X66945563Y-75060000D02*
X63490000Y-75060000D01*
X63490000Y-75060000D02*
X63490000Y-73860000D01*
X63490000Y-70540000D02*
X63490000Y-71740000D01*
X73166422Y-74485000D02*
X73683578Y-74485000D01*
X73166422Y-73065000D02*
X73683578Y-73065000D01*
X78141422Y-80185000D02*
X78658578Y-80185000D01*
X78141422Y-78765000D02*
X78658578Y-78765000D01*
X97615000Y-78441422D02*
X97615000Y-78958578D01*
X99035000Y-78441422D02*
X99035000Y-78958578D01*
X115250000Y-78350000D02*
X113550000Y-78350000D01*
X115250000Y-77150000D02*
X115250000Y-78350000D01*
X115350000Y-77150000D02*
X115250000Y-77150000D01*
X131350000Y-77150000D02*
X115350000Y-77150000D01*
X115250000Y-94550000D02*
X115250000Y-93350000D01*
X131350000Y-94550000D02*
X115250000Y-94550000D01*
X131450000Y-94550000D02*
X131450000Y-93350000D01*
X131350000Y-94550000D02*
X131450000Y-94550000D01*
X131450000Y-77150000D02*
X131450000Y-78350000D01*
X131350000Y-77150000D02*
X131450000Y-77150000D01*
D14*
X92375000Y-77250000D02*
X91300000Y-77250000D01*
X92375000Y-80375000D02*
X95625000Y-80375000D01*
X92375000Y-77125000D02*
X95625000Y-77125000D01*
X92375000Y-80375000D02*
X92375000Y-80150000D01*
X95625000Y-80375000D02*
X95625000Y-80150000D01*
X95625000Y-77125000D02*
X95625000Y-77350000D01*
X92375000Y-77125000D02*
X92375000Y-77250000D01*
D13*
X134540000Y-85616422D02*
X134540000Y-86133578D01*
X135960000Y-85616422D02*
X135960000Y-86133578D01*
X109858578Y-82565000D02*
X109341422Y-82565000D01*
X109858578Y-83985000D02*
X109341422Y-83985000D01*
X109858578Y-76865000D02*
X109341422Y-76865000D01*
X109858578Y-78285000D02*
X109341422Y-78285000D01*
X109858578Y-74965000D02*
X109341422Y-74965000D01*
X109858578Y-76385000D02*
X109341422Y-76385000D01*
X109858578Y-88265000D02*
X109341422Y-88265000D01*
X109858578Y-89685000D02*
X109341422Y-89685000D01*
X109858578Y-80665000D02*
X109341422Y-80665000D01*
X109858578Y-82085000D02*
X109341422Y-82085000D01*
X109858578Y-86365000D02*
X109341422Y-86365000D01*
X109858578Y-87785000D02*
X109341422Y-87785000D01*
X109858578Y-78765000D02*
X109341422Y-78765000D01*
X109858578Y-80185000D02*
X109341422Y-80185000D01*
X109858578Y-73065000D02*
X109341422Y-73065000D01*
X109858578Y-74485000D02*
X109341422Y-74485000D01*
X126900000Y-72100000D02*
X126900000Y-71500000D01*
X127500000Y-71800000D02*
X126900000Y-72100000D01*
X126900000Y-71500000D02*
X127500000Y-71800000D01*
X134300000Y-74360000D02*
X134300000Y-65740000D01*
X128190000Y-70750000D02*
X128190000Y-69350000D01*
X128190000Y-65740000D02*
X128190000Y-67250000D01*
X128190000Y-74360000D02*
X128190000Y-72850000D01*
X137610000Y-65740000D02*
X128190000Y-65740000D01*
X137610000Y-74360000D02*
X137610000Y-65740000D01*
X128190000Y-74360000D02*
X137610000Y-74360000D01*
X134290000Y-87565000D02*
X134290000Y-90250000D01*
X136210000Y-87565000D02*
X134290000Y-87565000D01*
X136210000Y-90250000D02*
X136210000Y-87565000D01*
X134290000Y-80815000D02*
X134290000Y-83500000D01*
X136210000Y-80815000D02*
X134290000Y-80815000D01*
X136210000Y-83500000D02*
X136210000Y-80815000D01*
X109858578Y-90390000D02*
X109341422Y-90390000D01*
X109858578Y-91810000D02*
X109341422Y-91810000D01*
X119500000Y-70990000D02*
X119500000Y-71490000D01*
X119250000Y-71240000D02*
X119750000Y-71240000D01*
X119990000Y-73995563D02*
X121054437Y-75060000D01*
X119990000Y-71604437D02*
X121054437Y-70540000D01*
X119990000Y-71604437D02*
X119990000Y-71740000D01*
X119990000Y-73995563D02*
X119990000Y-73860000D01*
X121054437Y-75060000D02*
X124510000Y-75060000D01*
X121054437Y-70540000D02*
X124510000Y-70540000D01*
X124510000Y-70540000D02*
X124510000Y-71740000D01*
X124510000Y-75060000D02*
X124510000Y-73860000D01*
X114833578Y-73065000D02*
X114316422Y-73065000D01*
X114833578Y-74485000D02*
X114316422Y-74485000D01*
X109858578Y-84465000D02*
X109341422Y-84465000D01*
X109858578Y-85885000D02*
X109341422Y-85885000D01*
D15*
X106460000Y-93530000D02*
X111540000Y-93530000D01*
X106460000Y-103690000D02*
X106460000Y-93530000D01*
X111540000Y-103690000D02*
X106460000Y-103690000D01*
X111540000Y-93530000D02*
X111540000Y-103690000D01*
D12*
X109241000Y-92415000D02*
G75*
G03X109241000Y-92415000I-300000J0D01*
G01*
D15*
X81540000Y-103670000D02*
X76460000Y-103670000D01*
X81540000Y-93510000D02*
X81540000Y-103670000D01*
X76460000Y-93510000D02*
X81540000Y-93510000D01*
X76460000Y-103670000D02*
X76460000Y-93510000D01*
D12*
X79359000Y-104785000D02*
G75*
G03X79359000Y-104785000I-300000J0D01*
G01*
D13*
X122375000Y-63435000D02*
X121775000Y-63435000D01*
X122075000Y-62835000D02*
X122375000Y-63435000D01*
X121775000Y-63435000D02*
X122075000Y-62835000D01*
X117745000Y-51915000D02*
X117995000Y-50415000D01*
X116245000Y-51915000D02*
X117745000Y-51915000D01*
X115995000Y-50415000D02*
X116245000Y-51915000D01*
X117995000Y-50415000D02*
X115995000Y-50415000D01*
X122825000Y-51915000D02*
X123075000Y-50415000D01*
X121325000Y-51915000D02*
X122825000Y-51915000D01*
X121075000Y-50415000D02*
X121325000Y-51915000D01*
X123075000Y-50415000D02*
X121075000Y-50415000D01*
X113345000Y-51915000D02*
X125725000Y-51915000D01*
X113345000Y-53715000D02*
X113345000Y-51915000D01*
X125725000Y-53715000D02*
X113345000Y-53715000D01*
X125725000Y-51915000D02*
X125725000Y-53715000D01*
X113345000Y-62635000D02*
X125725000Y-62635000D01*
X113345000Y-50415000D02*
X113345000Y-62635000D01*
X125725000Y-50415000D02*
X113345000Y-50415000D01*
X125725000Y-62635000D02*
X125725000Y-50415000D01*
X133001600Y-60128600D02*
X130316600Y-60128600D01*
X133001600Y-62048600D02*
X133001600Y-60128600D01*
X130316600Y-62048600D02*
X133001600Y-62048600D01*
X131575178Y-62378600D02*
X131058022Y-62378600D01*
X131575178Y-63798600D02*
X131058022Y-63798600D01*
D16*
X84040000Y-60970000D02*
G75*
G03X84040000Y-60970000I-200000J0D01*
G01*
D15*
X103270000Y-103895000D02*
X84730000Y-103895000D01*
X103270000Y-51250000D02*
X103270000Y-103895000D01*
X84730000Y-51250000D02*
X103270000Y-51250000D01*
X84730000Y-103895000D02*
X84730000Y-51250000D01*
D14*
X107072095Y-67353580D02*
X107072095Y-68163104D01*
X107119714Y-68258342D01*
X107167333Y-68305961D01*
X107262571Y-68353580D01*
X107453047Y-68353580D01*
X107548285Y-68305961D01*
X107595904Y-68258342D01*
X107643523Y-68163104D01*
X107643523Y-67353580D01*
X108548285Y-67353580D02*
X108357809Y-67353580D01*
X108262571Y-67401200D01*
X108214952Y-67448819D01*
X108119714Y-67591676D01*
X108072095Y-67782152D01*
X108072095Y-68163104D01*
X108119714Y-68258342D01*
X108167333Y-68305961D01*
X108262571Y-68353580D01*
X108453047Y-68353580D01*
X108548285Y-68305961D01*
X108595904Y-68258342D01*
X108643523Y-68163104D01*
X108643523Y-67925009D01*
X108595904Y-67829771D01*
X108548285Y-67782152D01*
X108453047Y-67734533D01*
X108262571Y-67734533D01*
X108167333Y-67782152D01*
X108119714Y-67829771D01*
X108072095Y-67925009D01*
X79404095Y-67201180D02*
X79404095Y-68010704D01*
X79451714Y-68105942D01*
X79499333Y-68153561D01*
X79594571Y-68201180D01*
X79785047Y-68201180D01*
X79880285Y-68153561D01*
X79927904Y-68105942D01*
X79975523Y-68010704D01*
X79975523Y-67201180D01*
X80927904Y-67201180D02*
X80451714Y-67201180D01*
X80404095Y-67677371D01*
X80451714Y-67629752D01*
X80546952Y-67582133D01*
X80785047Y-67582133D01*
X80880285Y-67629752D01*
X80927904Y-67677371D01*
X80975523Y-67772609D01*
X80975523Y-68010704D01*
X80927904Y-68105942D01*
X80880285Y-68153561D01*
X80785047Y-68201180D01*
X80546952Y-68201180D01*
X80451714Y-68153561D01*
X80404095Y-68105942D01*
X60413095Y-75552380D02*
X60413095Y-76361904D01*
X60460714Y-76457142D01*
X60508333Y-76504761D01*
X60603571Y-76552380D01*
X60794047Y-76552380D01*
X60889285Y-76504761D01*
X60936904Y-76457142D01*
X60984523Y-76361904D01*
X60984523Y-75552380D01*
X61413095Y-75647619D02*
X61460714Y-75600000D01*
X61555952Y-75552380D01*
X61794047Y-75552380D01*
X61889285Y-75600000D01*
X61936904Y-75647619D01*
X61984523Y-75742857D01*
X61984523Y-75838095D01*
X61936904Y-75980952D01*
X61365476Y-76552380D01*
X61984523Y-76552380D01*
X51552380Y-86517857D02*
X51076190Y-86851190D01*
X51552380Y-87089285D02*
X50552380Y-87089285D01*
X50552380Y-86708333D01*
X50600000Y-86613095D01*
X50647619Y-86565476D01*
X50742857Y-86517857D01*
X50885714Y-86517857D01*
X50980952Y-86565476D01*
X51028571Y-86613095D01*
X51076190Y-86708333D01*
X51076190Y-87089285D01*
X51552380Y-85565476D02*
X51552380Y-86136904D01*
X51552380Y-85851190D02*
X50552380Y-85851190D01*
X50695238Y-85946428D01*
X50790476Y-86041666D01*
X50838095Y-86136904D01*
X50980952Y-84994047D02*
X50933333Y-85089285D01*
X50885714Y-85136904D01*
X50790476Y-85184523D01*
X50742857Y-85184523D01*
X50647619Y-85136904D01*
X50600000Y-85089285D01*
X50552380Y-84994047D01*
X50552380Y-84803571D01*
X50600000Y-84708333D01*
X50647619Y-84660714D01*
X50742857Y-84613095D01*
X50790476Y-84613095D01*
X50885714Y-84660714D01*
X50933333Y-84708333D01*
X50980952Y-84803571D01*
X50980952Y-84994047D01*
X51028571Y-85089285D01*
X51076190Y-85136904D01*
X51171428Y-85184523D01*
X51361904Y-85184523D01*
X51457142Y-85136904D01*
X51504761Y-85089285D01*
X51552380Y-84994047D01*
X51552380Y-84803571D01*
X51504761Y-84708333D01*
X51457142Y-84660714D01*
X51361904Y-84613095D01*
X51171428Y-84613095D01*
X51076190Y-84660714D01*
X51028571Y-84708333D01*
X50980952Y-84803571D01*
X80857142Y-81827380D02*
X80523809Y-81351190D01*
X80285714Y-81827380D02*
X80285714Y-80827380D01*
X80666666Y-80827380D01*
X80761904Y-80875000D01*
X80809523Y-80922619D01*
X80857142Y-81017857D01*
X80857142Y-81160714D01*
X80809523Y-81255952D01*
X80761904Y-81303571D01*
X80666666Y-81351190D01*
X80285714Y-81351190D01*
X81809523Y-81827380D02*
X81238095Y-81827380D01*
X81523809Y-81827380D02*
X81523809Y-80827380D01*
X81428571Y-80970238D01*
X81333333Y-81065476D01*
X81238095Y-81113095D01*
X82142857Y-80827380D02*
X82761904Y-80827380D01*
X82428571Y-81208333D01*
X82571428Y-81208333D01*
X82666666Y-81255952D01*
X82714285Y-81303571D01*
X82761904Y-81398809D01*
X82761904Y-81636904D01*
X82714285Y-81732142D01*
X82666666Y-81779761D01*
X82571428Y-81827380D01*
X82285714Y-81827380D01*
X82190476Y-81779761D01*
X82142857Y-81732142D01*
X80857142Y-87527380D02*
X80523809Y-87051190D01*
X80285714Y-87527380D02*
X80285714Y-86527380D01*
X80666666Y-86527380D01*
X80761904Y-86575000D01*
X80809523Y-86622619D01*
X80857142Y-86717857D01*
X80857142Y-86860714D01*
X80809523Y-86955952D01*
X80761904Y-87003571D01*
X80666666Y-87051190D01*
X80285714Y-87051190D01*
X81809523Y-87527380D02*
X81238095Y-87527380D01*
X81523809Y-87527380D02*
X81523809Y-86527380D01*
X81428571Y-86670238D01*
X81333333Y-86765476D01*
X81238095Y-86813095D01*
X82190476Y-86622619D02*
X82238095Y-86575000D01*
X82333333Y-86527380D01*
X82571428Y-86527380D01*
X82666666Y-86575000D01*
X82714285Y-86622619D01*
X82761904Y-86717857D01*
X82761904Y-86813095D01*
X82714285Y-86955952D01*
X82142857Y-87527380D01*
X82761904Y-87527380D01*
X80857142Y-89427380D02*
X80523809Y-88951190D01*
X80285714Y-89427380D02*
X80285714Y-88427380D01*
X80666666Y-88427380D01*
X80761904Y-88475000D01*
X80809523Y-88522619D01*
X80857142Y-88617857D01*
X80857142Y-88760714D01*
X80809523Y-88855952D01*
X80761904Y-88903571D01*
X80666666Y-88951190D01*
X80285714Y-88951190D01*
X81809523Y-89427380D02*
X81238095Y-89427380D01*
X81523809Y-89427380D02*
X81523809Y-88427380D01*
X81428571Y-88570238D01*
X81333333Y-88665476D01*
X81238095Y-88713095D01*
X82761904Y-89427380D02*
X82190476Y-89427380D01*
X82476190Y-89427380D02*
X82476190Y-88427380D01*
X82380952Y-88570238D01*
X82285714Y-88665476D01*
X82190476Y-88713095D01*
X80857142Y-76127380D02*
X80523809Y-75651190D01*
X80285714Y-76127380D02*
X80285714Y-75127380D01*
X80666666Y-75127380D01*
X80761904Y-75175000D01*
X80809523Y-75222619D01*
X80857142Y-75317857D01*
X80857142Y-75460714D01*
X80809523Y-75555952D01*
X80761904Y-75603571D01*
X80666666Y-75651190D01*
X80285714Y-75651190D01*
X81809523Y-76127380D02*
X81238095Y-76127380D01*
X81523809Y-76127380D02*
X81523809Y-75127380D01*
X81428571Y-75270238D01*
X81333333Y-75365476D01*
X81238095Y-75413095D01*
X82428571Y-75127380D02*
X82523809Y-75127380D01*
X82619047Y-75175000D01*
X82666666Y-75222619D01*
X82714285Y-75317857D01*
X82761904Y-75508333D01*
X82761904Y-75746428D01*
X82714285Y-75936904D01*
X82666666Y-76032142D01*
X82619047Y-76079761D01*
X82523809Y-76127380D01*
X82428571Y-76127380D01*
X82333333Y-76079761D01*
X82285714Y-76032142D01*
X82238095Y-75936904D01*
X82190476Y-75746428D01*
X82190476Y-75508333D01*
X82238095Y-75317857D01*
X82285714Y-75222619D01*
X82333333Y-75175000D01*
X82428571Y-75127380D01*
X80858333Y-83727380D02*
X80525000Y-83251190D01*
X80286904Y-83727380D02*
X80286904Y-82727380D01*
X80667857Y-82727380D01*
X80763095Y-82775000D01*
X80810714Y-82822619D01*
X80858333Y-82917857D01*
X80858333Y-83060714D01*
X80810714Y-83155952D01*
X80763095Y-83203571D01*
X80667857Y-83251190D01*
X80286904Y-83251190D01*
X81429761Y-83155952D02*
X81334523Y-83108333D01*
X81286904Y-83060714D01*
X81239285Y-82965476D01*
X81239285Y-82917857D01*
X81286904Y-82822619D01*
X81334523Y-82775000D01*
X81429761Y-82727380D01*
X81620238Y-82727380D01*
X81715476Y-82775000D01*
X81763095Y-82822619D01*
X81810714Y-82917857D01*
X81810714Y-82965476D01*
X81763095Y-83060714D01*
X81715476Y-83108333D01*
X81620238Y-83155952D01*
X81429761Y-83155952D01*
X81334523Y-83203571D01*
X81286904Y-83251190D01*
X81239285Y-83346428D01*
X81239285Y-83536904D01*
X81286904Y-83632142D01*
X81334523Y-83679761D01*
X81429761Y-83727380D01*
X81620238Y-83727380D01*
X81715476Y-83679761D01*
X81763095Y-83632142D01*
X81810714Y-83536904D01*
X81810714Y-83346428D01*
X81763095Y-83251190D01*
X81715476Y-83203571D01*
X81620238Y-83155952D01*
X80858333Y-78027380D02*
X80525000Y-77551190D01*
X80286904Y-78027380D02*
X80286904Y-77027380D01*
X80667857Y-77027380D01*
X80763095Y-77075000D01*
X80810714Y-77122619D01*
X80858333Y-77217857D01*
X80858333Y-77360714D01*
X80810714Y-77455952D01*
X80763095Y-77503571D01*
X80667857Y-77551190D01*
X80286904Y-77551190D01*
X81715476Y-77360714D02*
X81715476Y-78027380D01*
X81477380Y-76979761D02*
X81239285Y-77694047D01*
X81858333Y-77694047D01*
X81708333Y-85627380D02*
X81375000Y-85151190D01*
X81136904Y-85627380D02*
X81136904Y-84627380D01*
X81517857Y-84627380D01*
X81613095Y-84675000D01*
X81660714Y-84722619D01*
X81708333Y-84817857D01*
X81708333Y-84960714D01*
X81660714Y-85055952D01*
X81613095Y-85103571D01*
X81517857Y-85151190D01*
X81136904Y-85151190D01*
X82041666Y-84627380D02*
X82660714Y-84627380D01*
X82327380Y-85008333D01*
X82470238Y-85008333D01*
X82565476Y-85055952D01*
X82613095Y-85103571D01*
X82660714Y-85198809D01*
X82660714Y-85436904D01*
X82613095Y-85532142D01*
X82565476Y-85579761D01*
X82470238Y-85627380D01*
X82184523Y-85627380D01*
X82089285Y-85579761D01*
X82041666Y-85532142D01*
X80858333Y-91327380D02*
X80525000Y-90851190D01*
X80286904Y-91327380D02*
X80286904Y-90327380D01*
X80667857Y-90327380D01*
X80763095Y-90375000D01*
X80810714Y-90422619D01*
X80858333Y-90517857D01*
X80858333Y-90660714D01*
X80810714Y-90755952D01*
X80763095Y-90803571D01*
X80667857Y-90851190D01*
X80286904Y-90851190D01*
X81239285Y-90422619D02*
X81286904Y-90375000D01*
X81382142Y-90327380D01*
X81620238Y-90327380D01*
X81715476Y-90375000D01*
X81763095Y-90422619D01*
X81810714Y-90517857D01*
X81810714Y-90613095D01*
X81763095Y-90755952D01*
X81191666Y-91327380D01*
X81810714Y-91327380D01*
X61166666Y-69477380D02*
X61166666Y-70191666D01*
X61119047Y-70334523D01*
X61023809Y-70429761D01*
X60880952Y-70477380D01*
X60785714Y-70477380D01*
X62071428Y-69810714D02*
X62071428Y-70477380D01*
X61833333Y-69429761D02*
X61595238Y-70144047D01*
X62214285Y-70144047D01*
X51552380Y-83238095D02*
X50552380Y-83238095D01*
X50552380Y-83000000D01*
X50600000Y-82857142D01*
X50695238Y-82761904D01*
X50790476Y-82714285D01*
X50980952Y-82666666D01*
X51123809Y-82666666D01*
X51314285Y-82714285D01*
X51409523Y-82761904D01*
X51504761Y-82857142D01*
X51552380Y-83000000D01*
X51552380Y-83238095D01*
X50885714Y-81809523D02*
X51552380Y-81809523D01*
X50504761Y-82047619D02*
X51219047Y-82285714D01*
X51219047Y-81666666D01*
X51552380Y-89988095D02*
X50552380Y-89988095D01*
X50552380Y-89750000D01*
X50600000Y-89607142D01*
X50695238Y-89511904D01*
X50790476Y-89464285D01*
X50980952Y-89416666D01*
X51123809Y-89416666D01*
X51314285Y-89464285D01*
X51409523Y-89511904D01*
X51504761Y-89607142D01*
X51552380Y-89750000D01*
X51552380Y-89988095D01*
X50647619Y-89035714D02*
X50600000Y-88988095D01*
X50552380Y-88892857D01*
X50552380Y-88654761D01*
X50600000Y-88559523D01*
X50647619Y-88511904D01*
X50742857Y-88464285D01*
X50838095Y-88464285D01*
X50980952Y-88511904D01*
X51552380Y-89083333D01*
X51552380Y-88464285D01*
X80908333Y-73932142D02*
X80860714Y-73979761D01*
X80717857Y-74027380D01*
X80622619Y-74027380D01*
X80479761Y-73979761D01*
X80384523Y-73884523D01*
X80336904Y-73789285D01*
X80289285Y-73598809D01*
X80289285Y-73455952D01*
X80336904Y-73265476D01*
X80384523Y-73170238D01*
X80479761Y-73075000D01*
X80622619Y-73027380D01*
X80717857Y-73027380D01*
X80860714Y-73075000D01*
X80908333Y-73122619D01*
X81241666Y-73027380D02*
X81908333Y-73027380D01*
X81479761Y-74027380D01*
X67908333Y-75907142D02*
X67860714Y-75954761D01*
X67717857Y-76002380D01*
X67622619Y-76002380D01*
X67479761Y-75954761D01*
X67384523Y-75859523D01*
X67336904Y-75764285D01*
X67289285Y-75573809D01*
X67289285Y-75430952D01*
X67336904Y-75240476D01*
X67384523Y-75145238D01*
X67479761Y-75050000D01*
X67622619Y-75002380D01*
X67717857Y-75002380D01*
X67860714Y-75050000D01*
X67908333Y-75097619D01*
X68813095Y-75002380D02*
X68336904Y-75002380D01*
X68289285Y-75478571D01*
X68336904Y-75430952D01*
X68432142Y-75383333D01*
X68670238Y-75383333D01*
X68765476Y-75430952D01*
X68813095Y-75478571D01*
X68860714Y-75573809D01*
X68860714Y-75811904D01*
X68813095Y-75907142D01*
X68765476Y-75954761D01*
X68670238Y-76002380D01*
X68432142Y-76002380D01*
X68336904Y-75954761D01*
X68289285Y-75907142D01*
X73208333Y-75807142D02*
X73160714Y-75854761D01*
X73017857Y-75902380D01*
X72922619Y-75902380D01*
X72779761Y-75854761D01*
X72684523Y-75759523D01*
X72636904Y-75664285D01*
X72589285Y-75473809D01*
X72589285Y-75330952D01*
X72636904Y-75140476D01*
X72684523Y-75045238D01*
X72779761Y-74950000D01*
X72922619Y-74902380D01*
X73017857Y-74902380D01*
X73160714Y-74950000D01*
X73208333Y-74997619D01*
X73541666Y-74902380D02*
X74160714Y-74902380D01*
X73827380Y-75283333D01*
X73970238Y-75283333D01*
X74065476Y-75330952D01*
X74113095Y-75378571D01*
X74160714Y-75473809D01*
X74160714Y-75711904D01*
X74113095Y-75807142D01*
X74065476Y-75854761D01*
X73970238Y-75902380D01*
X73684523Y-75902380D01*
X73589285Y-75854761D01*
X73541666Y-75807142D01*
X80908333Y-79832142D02*
X80860714Y-79879761D01*
X80717857Y-79927380D01*
X80622619Y-79927380D01*
X80479761Y-79879761D01*
X80384523Y-79784523D01*
X80336904Y-79689285D01*
X80289285Y-79498809D01*
X80289285Y-79355952D01*
X80336904Y-79165476D01*
X80384523Y-79070238D01*
X80479761Y-78975000D01*
X80622619Y-78927380D01*
X80717857Y-78927380D01*
X80860714Y-78975000D01*
X80908333Y-79022619D01*
X81860714Y-79927380D02*
X81289285Y-79927380D01*
X81575000Y-79927380D02*
X81575000Y-78927380D01*
X81479761Y-79070238D01*
X81384523Y-79165476D01*
X81289285Y-79213095D01*
X100332142Y-78866666D02*
X100379761Y-78914285D01*
X100427380Y-79057142D01*
X100427380Y-79152380D01*
X100379761Y-79295238D01*
X100284523Y-79390476D01*
X100189285Y-79438095D01*
X99998809Y-79485714D01*
X99855952Y-79485714D01*
X99665476Y-79438095D01*
X99570238Y-79390476D01*
X99475000Y-79295238D01*
X99427380Y-79152380D01*
X99427380Y-79057142D01*
X99475000Y-78914285D01*
X99522619Y-78866666D01*
X100427380Y-78390476D02*
X100427380Y-78200000D01*
X100379761Y-78104761D01*
X100332142Y-78057142D01*
X100189285Y-77961904D01*
X99998809Y-77914285D01*
X99617857Y-77914285D01*
X99522619Y-77961904D01*
X99475000Y-78009523D01*
X99427380Y-78104761D01*
X99427380Y-78295238D01*
X99475000Y-78390476D01*
X99522619Y-78438095D01*
X99617857Y-78485714D01*
X99855952Y-78485714D01*
X99951190Y-78438095D01*
X99998809Y-78390476D01*
X100046428Y-78295238D01*
X100046428Y-78104761D01*
X99998809Y-78009523D01*
X99951190Y-77961904D01*
X99855952Y-77914285D01*
X125438095Y-75577380D02*
X125438095Y-76386904D01*
X125485714Y-76482142D01*
X125533333Y-76529761D01*
X125628571Y-76577380D01*
X125819047Y-76577380D01*
X125914285Y-76529761D01*
X125961904Y-76482142D01*
X126009523Y-76386904D01*
X126009523Y-75577380D01*
X126914285Y-75910714D02*
X126914285Y-76577380D01*
X126676190Y-75529761D02*
X126438095Y-76244047D01*
X127057142Y-76244047D01*
X93238095Y-75652380D02*
X93238095Y-76461904D01*
X93285714Y-76557142D01*
X93333333Y-76604761D01*
X93428571Y-76652380D01*
X93619047Y-76652380D01*
X93714285Y-76604761D01*
X93761904Y-76557142D01*
X93809523Y-76461904D01*
X93809523Y-75652380D01*
X94190476Y-75652380D02*
X94809523Y-75652380D01*
X94476190Y-76033333D01*
X94619047Y-76033333D01*
X94714285Y-76080952D01*
X94761904Y-76128571D01*
X94809523Y-76223809D01*
X94809523Y-76461904D01*
X94761904Y-76557142D01*
X94714285Y-76604761D01*
X94619047Y-76652380D01*
X94333333Y-76652380D01*
X94238095Y-76604761D01*
X94190476Y-76557142D01*
X137352380Y-86517857D02*
X136876190Y-86851190D01*
X137352380Y-87089285D02*
X136352380Y-87089285D01*
X136352380Y-86708333D01*
X136400000Y-86613095D01*
X136447619Y-86565476D01*
X136542857Y-86517857D01*
X136685714Y-86517857D01*
X136780952Y-86565476D01*
X136828571Y-86613095D01*
X136876190Y-86708333D01*
X136876190Y-87089285D01*
X137352380Y-85565476D02*
X137352380Y-86136904D01*
X137352380Y-85851190D02*
X136352380Y-85851190D01*
X136495238Y-85946428D01*
X136590476Y-86041666D01*
X136638095Y-86136904D01*
X137352380Y-85089285D02*
X137352380Y-84898809D01*
X137304761Y-84803571D01*
X137257142Y-84755952D01*
X137114285Y-84660714D01*
X136923809Y-84613095D01*
X136542857Y-84613095D01*
X136447619Y-84660714D01*
X136400000Y-84708333D01*
X136352380Y-84803571D01*
X136352380Y-84994047D01*
X136400000Y-85089285D01*
X136447619Y-85136904D01*
X136542857Y-85184523D01*
X136780952Y-85184523D01*
X136876190Y-85136904D01*
X136923809Y-85089285D01*
X136971428Y-84994047D01*
X136971428Y-84803571D01*
X136923809Y-84708333D01*
X136876190Y-84660714D01*
X136780952Y-84613095D01*
X105657142Y-83727380D02*
X105323809Y-83251190D01*
X105085714Y-83727380D02*
X105085714Y-82727380D01*
X105466666Y-82727380D01*
X105561904Y-82775000D01*
X105609523Y-82822619D01*
X105657142Y-82917857D01*
X105657142Y-83060714D01*
X105609523Y-83155952D01*
X105561904Y-83203571D01*
X105466666Y-83251190D01*
X105085714Y-83251190D01*
X106609523Y-83727380D02*
X106038095Y-83727380D01*
X106323809Y-83727380D02*
X106323809Y-82727380D01*
X106228571Y-82870238D01*
X106133333Y-82965476D01*
X106038095Y-83013095D01*
X106942857Y-82727380D02*
X107609523Y-82727380D01*
X107180952Y-83727380D01*
X105732142Y-78027380D02*
X105398809Y-77551190D01*
X105160714Y-78027380D02*
X105160714Y-77027380D01*
X105541666Y-77027380D01*
X105636904Y-77075000D01*
X105684523Y-77122619D01*
X105732142Y-77217857D01*
X105732142Y-77360714D01*
X105684523Y-77455952D01*
X105636904Y-77503571D01*
X105541666Y-77551190D01*
X105160714Y-77551190D01*
X106684523Y-78027380D02*
X106113095Y-78027380D01*
X106398809Y-78027380D02*
X106398809Y-77027380D01*
X106303571Y-77170238D01*
X106208333Y-77265476D01*
X106113095Y-77313095D01*
X107541666Y-77027380D02*
X107351190Y-77027380D01*
X107255952Y-77075000D01*
X107208333Y-77122619D01*
X107113095Y-77265476D01*
X107065476Y-77455952D01*
X107065476Y-77836904D01*
X107113095Y-77932142D01*
X107160714Y-77979761D01*
X107255952Y-78027380D01*
X107446428Y-78027380D01*
X107541666Y-77979761D01*
X107589285Y-77932142D01*
X107636904Y-77836904D01*
X107636904Y-77598809D01*
X107589285Y-77503571D01*
X107541666Y-77455952D01*
X107446428Y-77408333D01*
X107255952Y-77408333D01*
X107160714Y-77455952D01*
X107113095Y-77503571D01*
X107065476Y-77598809D01*
X105707142Y-76127380D02*
X105373809Y-75651190D01*
X105135714Y-76127380D02*
X105135714Y-75127380D01*
X105516666Y-75127380D01*
X105611904Y-75175000D01*
X105659523Y-75222619D01*
X105707142Y-75317857D01*
X105707142Y-75460714D01*
X105659523Y-75555952D01*
X105611904Y-75603571D01*
X105516666Y-75651190D01*
X105135714Y-75651190D01*
X106659523Y-76127380D02*
X106088095Y-76127380D01*
X106373809Y-76127380D02*
X106373809Y-75127380D01*
X106278571Y-75270238D01*
X106183333Y-75365476D01*
X106088095Y-75413095D01*
X107564285Y-75127380D02*
X107088095Y-75127380D01*
X107040476Y-75603571D01*
X107088095Y-75555952D01*
X107183333Y-75508333D01*
X107421428Y-75508333D01*
X107516666Y-75555952D01*
X107564285Y-75603571D01*
X107611904Y-75698809D01*
X107611904Y-75936904D01*
X107564285Y-76032142D01*
X107516666Y-76079761D01*
X107421428Y-76127380D01*
X107183333Y-76127380D01*
X107088095Y-76079761D01*
X107040476Y-76032142D01*
X105707142Y-89427380D02*
X105373809Y-88951190D01*
X105135714Y-89427380D02*
X105135714Y-88427380D01*
X105516666Y-88427380D01*
X105611904Y-88475000D01*
X105659523Y-88522619D01*
X105707142Y-88617857D01*
X105707142Y-88760714D01*
X105659523Y-88855952D01*
X105611904Y-88903571D01*
X105516666Y-88951190D01*
X105135714Y-88951190D01*
X106659523Y-89427380D02*
X106088095Y-89427380D01*
X106373809Y-89427380D02*
X106373809Y-88427380D01*
X106278571Y-88570238D01*
X106183333Y-88665476D01*
X106088095Y-88713095D01*
X107516666Y-88760714D02*
X107516666Y-89427380D01*
X107278571Y-88379761D02*
X107040476Y-89094047D01*
X107659523Y-89094047D01*
X106608333Y-81827380D02*
X106275000Y-81351190D01*
X106036904Y-81827380D02*
X106036904Y-80827380D01*
X106417857Y-80827380D01*
X106513095Y-80875000D01*
X106560714Y-80922619D01*
X106608333Y-81017857D01*
X106608333Y-81160714D01*
X106560714Y-81255952D01*
X106513095Y-81303571D01*
X106417857Y-81351190D01*
X106036904Y-81351190D01*
X107084523Y-81827380D02*
X107275000Y-81827380D01*
X107370238Y-81779761D01*
X107417857Y-81732142D01*
X107513095Y-81589285D01*
X107560714Y-81398809D01*
X107560714Y-81017857D01*
X107513095Y-80922619D01*
X107465476Y-80875000D01*
X107370238Y-80827380D01*
X107179761Y-80827380D01*
X107084523Y-80875000D01*
X107036904Y-80922619D01*
X106989285Y-81017857D01*
X106989285Y-81255952D01*
X107036904Y-81351190D01*
X107084523Y-81398809D01*
X107179761Y-81446428D01*
X107370238Y-81446428D01*
X107465476Y-81398809D01*
X107513095Y-81351190D01*
X107560714Y-81255952D01*
X106633333Y-87527380D02*
X106300000Y-87051190D01*
X106061904Y-87527380D02*
X106061904Y-86527380D01*
X106442857Y-86527380D01*
X106538095Y-86575000D01*
X106585714Y-86622619D01*
X106633333Y-86717857D01*
X106633333Y-86860714D01*
X106585714Y-86955952D01*
X106538095Y-87003571D01*
X106442857Y-87051190D01*
X106061904Y-87051190D01*
X106966666Y-86527380D02*
X107633333Y-86527380D01*
X107204761Y-87527380D01*
X106658333Y-79927380D02*
X106325000Y-79451190D01*
X106086904Y-79927380D02*
X106086904Y-78927380D01*
X106467857Y-78927380D01*
X106563095Y-78975000D01*
X106610714Y-79022619D01*
X106658333Y-79117857D01*
X106658333Y-79260714D01*
X106610714Y-79355952D01*
X106563095Y-79403571D01*
X106467857Y-79451190D01*
X106086904Y-79451190D01*
X107515476Y-78927380D02*
X107325000Y-78927380D01*
X107229761Y-78975000D01*
X107182142Y-79022619D01*
X107086904Y-79165476D01*
X107039285Y-79355952D01*
X107039285Y-79736904D01*
X107086904Y-79832142D01*
X107134523Y-79879761D01*
X107229761Y-79927380D01*
X107420238Y-79927380D01*
X107515476Y-79879761D01*
X107563095Y-79832142D01*
X107610714Y-79736904D01*
X107610714Y-79498809D01*
X107563095Y-79403571D01*
X107515476Y-79355952D01*
X107420238Y-79308333D01*
X107229761Y-79308333D01*
X107134523Y-79355952D01*
X107086904Y-79403571D01*
X107039285Y-79498809D01*
X106658333Y-74227380D02*
X106325000Y-73751190D01*
X106086904Y-74227380D02*
X106086904Y-73227380D01*
X106467857Y-73227380D01*
X106563095Y-73275000D01*
X106610714Y-73322619D01*
X106658333Y-73417857D01*
X106658333Y-73560714D01*
X106610714Y-73655952D01*
X106563095Y-73703571D01*
X106467857Y-73751190D01*
X106086904Y-73751190D01*
X107563095Y-73227380D02*
X107086904Y-73227380D01*
X107039285Y-73703571D01*
X107086904Y-73655952D01*
X107182142Y-73608333D01*
X107420238Y-73608333D01*
X107515476Y-73655952D01*
X107563095Y-73703571D01*
X107610714Y-73798809D01*
X107610714Y-74036904D01*
X107563095Y-74132142D01*
X107515476Y-74179761D01*
X107420238Y-74227380D01*
X107182142Y-74227380D01*
X107086904Y-74179761D01*
X107039285Y-74132142D01*
X126166666Y-69502380D02*
X126166666Y-70216666D01*
X126119047Y-70359523D01*
X126023809Y-70454761D01*
X125880952Y-70502380D01*
X125785714Y-70502380D01*
X127119047Y-69502380D02*
X126642857Y-69502380D01*
X126595238Y-69978571D01*
X126642857Y-69930952D01*
X126738095Y-69883333D01*
X126976190Y-69883333D01*
X127071428Y-69930952D01*
X127119047Y-69978571D01*
X127166666Y-70073809D01*
X127166666Y-70311904D01*
X127119047Y-70407142D01*
X127071428Y-70454761D01*
X126976190Y-70502380D01*
X126738095Y-70502380D01*
X126642857Y-70454761D01*
X126595238Y-70407142D01*
X137352380Y-89988095D02*
X136352380Y-89988095D01*
X136352380Y-89750000D01*
X136400000Y-89607142D01*
X136495238Y-89511904D01*
X136590476Y-89464285D01*
X136780952Y-89416666D01*
X136923809Y-89416666D01*
X137114285Y-89464285D01*
X137209523Y-89511904D01*
X137304761Y-89607142D01*
X137352380Y-89750000D01*
X137352380Y-89988095D01*
X136352380Y-88511904D02*
X136352380Y-88988095D01*
X136828571Y-89035714D01*
X136780952Y-88988095D01*
X136733333Y-88892857D01*
X136733333Y-88654761D01*
X136780952Y-88559523D01*
X136828571Y-88511904D01*
X136923809Y-88464285D01*
X137161904Y-88464285D01*
X137257142Y-88511904D01*
X137304761Y-88559523D01*
X137352380Y-88654761D01*
X137352380Y-88892857D01*
X137304761Y-88988095D01*
X137257142Y-89035714D01*
X137352380Y-83238095D02*
X136352380Y-83238095D01*
X136352380Y-83000000D01*
X136400000Y-82857142D01*
X136495238Y-82761904D01*
X136590476Y-82714285D01*
X136780952Y-82666666D01*
X136923809Y-82666666D01*
X137114285Y-82714285D01*
X137209523Y-82761904D01*
X137304761Y-82857142D01*
X137352380Y-83000000D01*
X137352380Y-83238095D01*
X136352380Y-82333333D02*
X136352380Y-81714285D01*
X136733333Y-82047619D01*
X136733333Y-81904761D01*
X136780952Y-81809523D01*
X136828571Y-81761904D01*
X136923809Y-81714285D01*
X137161904Y-81714285D01*
X137257142Y-81761904D01*
X137304761Y-81809523D01*
X137352380Y-81904761D01*
X137352380Y-82190476D01*
X137304761Y-82285714D01*
X137257142Y-82333333D01*
X106658333Y-91457142D02*
X106610714Y-91504761D01*
X106467857Y-91552380D01*
X106372619Y-91552380D01*
X106229761Y-91504761D01*
X106134523Y-91409523D01*
X106086904Y-91314285D01*
X106039285Y-91123809D01*
X106039285Y-90980952D01*
X106086904Y-90790476D01*
X106134523Y-90695238D01*
X106229761Y-90600000D01*
X106372619Y-90552380D01*
X106467857Y-90552380D01*
X106610714Y-90600000D01*
X106658333Y-90647619D01*
X107229761Y-90980952D02*
X107134523Y-90933333D01*
X107086904Y-90885714D01*
X107039285Y-90790476D01*
X107039285Y-90742857D01*
X107086904Y-90647619D01*
X107134523Y-90600000D01*
X107229761Y-90552380D01*
X107420238Y-90552380D01*
X107515476Y-90600000D01*
X107563095Y-90647619D01*
X107610714Y-90742857D01*
X107610714Y-90790476D01*
X107563095Y-90885714D01*
X107515476Y-90933333D01*
X107420238Y-90980952D01*
X107229761Y-90980952D01*
X107134523Y-91028571D01*
X107086904Y-91076190D01*
X107039285Y-91171428D01*
X107039285Y-91361904D01*
X107086904Y-91457142D01*
X107134523Y-91504761D01*
X107229761Y-91552380D01*
X107420238Y-91552380D01*
X107515476Y-91504761D01*
X107563095Y-91457142D01*
X107610714Y-91361904D01*
X107610714Y-91171428D01*
X107563095Y-91076190D01*
X107515476Y-91028571D01*
X107420238Y-90980952D01*
X122083333Y-69957142D02*
X122035714Y-70004761D01*
X121892857Y-70052380D01*
X121797619Y-70052380D01*
X121654761Y-70004761D01*
X121559523Y-69909523D01*
X121511904Y-69814285D01*
X121464285Y-69623809D01*
X121464285Y-69480952D01*
X121511904Y-69290476D01*
X121559523Y-69195238D01*
X121654761Y-69100000D01*
X121797619Y-69052380D01*
X121892857Y-69052380D01*
X122035714Y-69100000D01*
X122083333Y-69147619D01*
X122940476Y-69052380D02*
X122750000Y-69052380D01*
X122654761Y-69100000D01*
X122607142Y-69147619D01*
X122511904Y-69290476D01*
X122464285Y-69480952D01*
X122464285Y-69861904D01*
X122511904Y-69957142D01*
X122559523Y-70004761D01*
X122654761Y-70052380D01*
X122845238Y-70052380D01*
X122940476Y-70004761D01*
X122988095Y-69957142D01*
X123035714Y-69861904D01*
X123035714Y-69623809D01*
X122988095Y-69528571D01*
X122940476Y-69480952D01*
X122845238Y-69433333D01*
X122654761Y-69433333D01*
X122559523Y-69480952D01*
X122511904Y-69528571D01*
X122464285Y-69623809D01*
X114408333Y-75782142D02*
X114360714Y-75829761D01*
X114217857Y-75877380D01*
X114122619Y-75877380D01*
X113979761Y-75829761D01*
X113884523Y-75734523D01*
X113836904Y-75639285D01*
X113789285Y-75448809D01*
X113789285Y-75305952D01*
X113836904Y-75115476D01*
X113884523Y-75020238D01*
X113979761Y-74925000D01*
X114122619Y-74877380D01*
X114217857Y-74877380D01*
X114360714Y-74925000D01*
X114408333Y-74972619D01*
X115265476Y-75210714D02*
X115265476Y-75877380D01*
X115027380Y-74829761D02*
X114789285Y-75544047D01*
X115408333Y-75544047D01*
X106633333Y-85532142D02*
X106585714Y-85579761D01*
X106442857Y-85627380D01*
X106347619Y-85627380D01*
X106204761Y-85579761D01*
X106109523Y-85484523D01*
X106061904Y-85389285D01*
X106014285Y-85198809D01*
X106014285Y-85055952D01*
X106061904Y-84865476D01*
X106109523Y-84770238D01*
X106204761Y-84675000D01*
X106347619Y-84627380D01*
X106442857Y-84627380D01*
X106585714Y-84675000D01*
X106633333Y-84722619D01*
X107014285Y-84722619D02*
X107061904Y-84675000D01*
X107157142Y-84627380D01*
X107395238Y-84627380D01*
X107490476Y-84675000D01*
X107538095Y-84722619D01*
X107585714Y-84817857D01*
X107585714Y-84913095D01*
X107538095Y-85055952D01*
X106966666Y-85627380D01*
X107585714Y-85627380D01*
X112222666Y-97859180D02*
X112222666Y-98573466D01*
X112175047Y-98716323D01*
X112079809Y-98811561D01*
X111936952Y-98859180D01*
X111841714Y-98859180D01*
X112651238Y-97954419D02*
X112698857Y-97906800D01*
X112794095Y-97859180D01*
X113032190Y-97859180D01*
X113127428Y-97906800D01*
X113175047Y-97954419D01*
X113222666Y-98049657D01*
X113222666Y-98144895D01*
X113175047Y-98287752D01*
X112603619Y-98859180D01*
X113222666Y-98859180D01*
X75110666Y-98245580D02*
X75110666Y-98959866D01*
X75063047Y-99102723D01*
X74967809Y-99197961D01*
X74824952Y-99245580D01*
X74729714Y-99245580D01*
X75491619Y-98245580D02*
X76110666Y-98245580D01*
X75777333Y-98626533D01*
X75920190Y-98626533D01*
X76015428Y-98674152D01*
X76063047Y-98721771D01*
X76110666Y-98817009D01*
X76110666Y-99055104D01*
X76063047Y-99150342D01*
X76015428Y-99197961D01*
X75920190Y-99245580D01*
X75634476Y-99245580D01*
X75539238Y-99197961D01*
X75491619Y-99150342D01*
X119201666Y-63177380D02*
X119201666Y-63891666D01*
X119154047Y-64034523D01*
X119058809Y-64129761D01*
X118915952Y-64177380D01*
X118820714Y-64177380D01*
X120201666Y-64177380D02*
X119630238Y-64177380D01*
X119915952Y-64177380D02*
X119915952Y-63177380D01*
X119820714Y-63320238D01*
X119725476Y-63415476D01*
X119630238Y-63463095D01*
X133278504Y-61565980D02*
X133278504Y-60565980D01*
X133516600Y-60565980D01*
X133659457Y-60613600D01*
X133754695Y-60708838D01*
X133802314Y-60804076D01*
X133849933Y-60994552D01*
X133849933Y-61137409D01*
X133802314Y-61327885D01*
X133754695Y-61423123D01*
X133659457Y-61518361D01*
X133516600Y-61565980D01*
X133278504Y-61565980D01*
X134802314Y-61565980D02*
X134230885Y-61565980D01*
X134516600Y-61565980D02*
X134516600Y-60565980D01*
X134421361Y-60708838D01*
X134326123Y-60804076D01*
X134230885Y-60851695D01*
X133849933Y-63540980D02*
X133516600Y-63064790D01*
X133278504Y-63540980D02*
X133278504Y-62540980D01*
X133659457Y-62540980D01*
X133754695Y-62588600D01*
X133802314Y-62636219D01*
X133849933Y-62731457D01*
X133849933Y-62874314D01*
X133802314Y-62969552D01*
X133754695Y-63017171D01*
X133659457Y-63064790D01*
X133278504Y-63064790D01*
X134802314Y-63540980D02*
X134230885Y-63540980D01*
X134516600Y-63540980D02*
X134516600Y-62540980D01*
X134421361Y-62683838D01*
X134326123Y-62779076D01*
X134230885Y-62826695D01*
D17*
X103756520Y-51082030D02*
X103756520Y-52217290D01*
X103823300Y-52350850D01*
X103890080Y-52417630D01*
X104023640Y-52484410D01*
X104290760Y-52484410D01*
X104424320Y-52417630D01*
X104491100Y-52350850D01*
X104557880Y-52217290D01*
X104557880Y-51082030D01*
X105960260Y-52484410D02*
X105158900Y-52484410D01*
X105559580Y-52484410D02*
X105559580Y-51082030D01*
X105426020Y-51282370D01*
X105292460Y-51415930D01*
X105158900Y-51482710D01*
M02*
