G04 #@! TF.GenerationSoftware,KiCad,Pcbnew,(5.1.4)-1*
G04 #@! TF.CreationDate,2019-11-21T21:18:38+01:00*
G04 #@! TF.ProjectId,asserv_dc,61737365-7276-45f6-9463-2e6b69636164,rev?*
G04 #@! TF.SameCoordinates,Original*
G04 #@! TF.FileFunction,Copper,L2,Bot*
G04 #@! TF.FilePolarity,Positive*
%FSLAX46Y46*%
G04 Gerber Fmt 4.6, Leading zero omitted, Abs format (unit mm)*
G04 Created by KiCad (PCBNEW (5.1.4)-1) date 2019-11-21 21:18:38*
%MOMM*%
%LPD*%
G04 APERTURE LIST*
%ADD10O,3.600000X1.800000*%
%ADD11C,0.100000*%
%ADD12C,1.800000*%
%ADD13C,1.508000*%
%ADD14R,1.508000X1.508000*%
%ADD15C,6.400000*%
%ADD16O,2.080000X3.600000*%
%ADD17C,2.080000*%
%ADD18C,1.600000*%
%ADD19R,1.600000X1.600000*%
%ADD20C,0.600000*%
%ADD21C,0.250000*%
%ADD22C,0.500000*%
%ADD23C,0.254000*%
G04 APERTURE END LIST*
D10*
X58500000Y-71775000D03*
D11*
G36*
X60074504Y-67376204D02*
G01*
X60098773Y-67379804D01*
X60122571Y-67385765D01*
X60145671Y-67394030D01*
X60167849Y-67404520D01*
X60188893Y-67417133D01*
X60208598Y-67431747D01*
X60226777Y-67448223D01*
X60243253Y-67466402D01*
X60257867Y-67486107D01*
X60270480Y-67507151D01*
X60280970Y-67529329D01*
X60289235Y-67552429D01*
X60295196Y-67576227D01*
X60298796Y-67600496D01*
X60300000Y-67625000D01*
X60300000Y-68925000D01*
X60298796Y-68949504D01*
X60295196Y-68973773D01*
X60289235Y-68997571D01*
X60280970Y-69020671D01*
X60270480Y-69042849D01*
X60257867Y-69063893D01*
X60243253Y-69083598D01*
X60226777Y-69101777D01*
X60208598Y-69118253D01*
X60188893Y-69132867D01*
X60167849Y-69145480D01*
X60145671Y-69155970D01*
X60122571Y-69164235D01*
X60098773Y-69170196D01*
X60074504Y-69173796D01*
X60050000Y-69175000D01*
X56950000Y-69175000D01*
X56925496Y-69173796D01*
X56901227Y-69170196D01*
X56877429Y-69164235D01*
X56854329Y-69155970D01*
X56832151Y-69145480D01*
X56811107Y-69132867D01*
X56791402Y-69118253D01*
X56773223Y-69101777D01*
X56756747Y-69083598D01*
X56742133Y-69063893D01*
X56729520Y-69042849D01*
X56719030Y-69020671D01*
X56710765Y-68997571D01*
X56704804Y-68973773D01*
X56701204Y-68949504D01*
X56700000Y-68925000D01*
X56700000Y-67625000D01*
X56701204Y-67600496D01*
X56704804Y-67576227D01*
X56710765Y-67552429D01*
X56719030Y-67529329D01*
X56729520Y-67507151D01*
X56742133Y-67486107D01*
X56756747Y-67466402D01*
X56773223Y-67448223D01*
X56791402Y-67431747D01*
X56811107Y-67417133D01*
X56832151Y-67404520D01*
X56854329Y-67394030D01*
X56877429Y-67385765D01*
X56901227Y-67379804D01*
X56925496Y-67376204D01*
X56950000Y-67375000D01*
X60050000Y-67375000D01*
X60074504Y-67376204D01*
X60074504Y-67376204D01*
G37*
D12*
X58500000Y-68275000D03*
D10*
X129500000Y-68300000D03*
D11*
G36*
X131074504Y-70901204D02*
G01*
X131098773Y-70904804D01*
X131122571Y-70910765D01*
X131145671Y-70919030D01*
X131167849Y-70929520D01*
X131188893Y-70942133D01*
X131208598Y-70956747D01*
X131226777Y-70973223D01*
X131243253Y-70991402D01*
X131257867Y-71011107D01*
X131270480Y-71032151D01*
X131280970Y-71054329D01*
X131289235Y-71077429D01*
X131295196Y-71101227D01*
X131298796Y-71125496D01*
X131300000Y-71150000D01*
X131300000Y-72450000D01*
X131298796Y-72474504D01*
X131295196Y-72498773D01*
X131289235Y-72522571D01*
X131280970Y-72545671D01*
X131270480Y-72567849D01*
X131257867Y-72588893D01*
X131243253Y-72608598D01*
X131226777Y-72626777D01*
X131208598Y-72643253D01*
X131188893Y-72657867D01*
X131167849Y-72670480D01*
X131145671Y-72680970D01*
X131122571Y-72689235D01*
X131098773Y-72695196D01*
X131074504Y-72698796D01*
X131050000Y-72700000D01*
X127950000Y-72700000D01*
X127925496Y-72698796D01*
X127901227Y-72695196D01*
X127877429Y-72689235D01*
X127854329Y-72680970D01*
X127832151Y-72670480D01*
X127811107Y-72657867D01*
X127791402Y-72643253D01*
X127773223Y-72626777D01*
X127756747Y-72608598D01*
X127742133Y-72588893D01*
X127729520Y-72567849D01*
X127719030Y-72545671D01*
X127710765Y-72522571D01*
X127704804Y-72498773D01*
X127701204Y-72474504D01*
X127700000Y-72450000D01*
X127700000Y-71150000D01*
X127701204Y-71125496D01*
X127704804Y-71101227D01*
X127710765Y-71077429D01*
X127719030Y-71054329D01*
X127729520Y-71032151D01*
X127742133Y-71011107D01*
X127756747Y-70991402D01*
X127773223Y-70973223D01*
X127791402Y-70956747D01*
X127811107Y-70942133D01*
X127832151Y-70929520D01*
X127854329Y-70919030D01*
X127877429Y-70910765D01*
X127901227Y-70904804D01*
X127925496Y-70901204D01*
X127950000Y-70900000D01*
X131050000Y-70900000D01*
X131074504Y-70901204D01*
X131074504Y-70901204D01*
G37*
D12*
X129500000Y-71800000D03*
D13*
X109000000Y-102420000D03*
X109000000Y-99880000D03*
X109000000Y-97340000D03*
D14*
X109000000Y-94800000D03*
D13*
X79000000Y-94780000D03*
X79000000Y-97320000D03*
X79000000Y-99860000D03*
D14*
X79000000Y-102400000D03*
D15*
X53500000Y-53500000D03*
X134500000Y-53500000D03*
X134500000Y-101500000D03*
X53500000Y-101500000D03*
D16*
X116995000Y-60525000D03*
D11*
G36*
X122889505Y-58726204D02*
G01*
X122913773Y-58729804D01*
X122937572Y-58735765D01*
X122960671Y-58744030D01*
X122982850Y-58754520D01*
X123003893Y-58767132D01*
X123023599Y-58781747D01*
X123041777Y-58798223D01*
X123058253Y-58816401D01*
X123072868Y-58836107D01*
X123085480Y-58857150D01*
X123095970Y-58879329D01*
X123104235Y-58902428D01*
X123110196Y-58926227D01*
X123113796Y-58950495D01*
X123115000Y-58974999D01*
X123115000Y-62075001D01*
X123113796Y-62099505D01*
X123110196Y-62123773D01*
X123104235Y-62147572D01*
X123095970Y-62170671D01*
X123085480Y-62192850D01*
X123072868Y-62213893D01*
X123058253Y-62233599D01*
X123041777Y-62251777D01*
X123023599Y-62268253D01*
X123003893Y-62282868D01*
X122982850Y-62295480D01*
X122960671Y-62305970D01*
X122937572Y-62314235D01*
X122913773Y-62320196D01*
X122889505Y-62323796D01*
X122865001Y-62325000D01*
X121284999Y-62325000D01*
X121260495Y-62323796D01*
X121236227Y-62320196D01*
X121212428Y-62314235D01*
X121189329Y-62305970D01*
X121167150Y-62295480D01*
X121146107Y-62282868D01*
X121126401Y-62268253D01*
X121108223Y-62251777D01*
X121091747Y-62233599D01*
X121077132Y-62213893D01*
X121064520Y-62192850D01*
X121054030Y-62170671D01*
X121045765Y-62147572D01*
X121039804Y-62123773D01*
X121036204Y-62099505D01*
X121035000Y-62075001D01*
X121035000Y-58974999D01*
X121036204Y-58950495D01*
X121039804Y-58926227D01*
X121045765Y-58902428D01*
X121054030Y-58879329D01*
X121064520Y-58857150D01*
X121077132Y-58836107D01*
X121091747Y-58816401D01*
X121108223Y-58798223D01*
X121126401Y-58781747D01*
X121146107Y-58767132D01*
X121167150Y-58754520D01*
X121189329Y-58744030D01*
X121212428Y-58735765D01*
X121236227Y-58729804D01*
X121260495Y-58726204D01*
X121284999Y-58725000D01*
X122865001Y-58725000D01*
X122889505Y-58726204D01*
X122889505Y-58726204D01*
G37*
D17*
X122075000Y-60525000D03*
D18*
X101620000Y-96530000D03*
X86380000Y-96530000D03*
X101620000Y-93990000D03*
X86380000Y-93990000D03*
X101620000Y-91450000D03*
X86380000Y-91450000D03*
X101620000Y-88910000D03*
X86380000Y-88910000D03*
X101620000Y-86370000D03*
X86380000Y-86370000D03*
X101620000Y-83830000D03*
X86380000Y-83830000D03*
X101620000Y-81290000D03*
X86380000Y-81290000D03*
X101620000Y-78750000D03*
X86380000Y-78750000D03*
X101620000Y-76210000D03*
X86380000Y-76210000D03*
X101620000Y-73670000D03*
X86380000Y-73670000D03*
X101620000Y-71130000D03*
X86380000Y-71130000D03*
X101620000Y-68590000D03*
X86380000Y-68590000D03*
X101620000Y-66050000D03*
X86380000Y-66050000D03*
X101620000Y-63510000D03*
X86380000Y-63510000D03*
D19*
X101620000Y-60970000D03*
X86380000Y-60970000D03*
D20*
X107200000Y-76550000D03*
X105625000Y-79100000D03*
X99975000Y-76525000D03*
X83475000Y-77600000D03*
X104300000Y-88418626D03*
X105675000Y-70525000D03*
X97275000Y-81000000D03*
X97275000Y-82000000D03*
X98275000Y-82000000D03*
X98275000Y-81000000D03*
X112125000Y-95350000D03*
X113125000Y-95350000D03*
X111125000Y-95350000D03*
X111125000Y-97350000D03*
X113125000Y-97350000D03*
X113125000Y-96350000D03*
X112125000Y-96350000D03*
X111125000Y-96350000D03*
X112125000Y-97350000D03*
X76875000Y-97350000D03*
X74875000Y-97350000D03*
X76875000Y-96350000D03*
X75875000Y-96350000D03*
X76875000Y-95350000D03*
X74875000Y-95350000D03*
X75875000Y-95350000D03*
X74875000Y-96350000D03*
X75875000Y-97350000D03*
X67000000Y-67425000D03*
X66000000Y-68425000D03*
X67000000Y-69425000D03*
X66000000Y-69425000D03*
X67000000Y-68425000D03*
X66000000Y-67425000D03*
X63000000Y-68425000D03*
X64000000Y-69425000D03*
X65000000Y-68425000D03*
X63000000Y-67425000D03*
X63000000Y-69425000D03*
X65000000Y-67425000D03*
X64000000Y-68425000D03*
X64000000Y-67425000D03*
X65000000Y-69425000D03*
X80725000Y-79425000D03*
X81475000Y-86125000D03*
X106850000Y-83250000D03*
X107375000Y-78350000D03*
X106800000Y-90150000D03*
X128400000Y-90500000D03*
X124400000Y-90500000D03*
X127400000Y-90500000D03*
X128400000Y-87500000D03*
X124400000Y-89500000D03*
X128400000Y-91500000D03*
X127400000Y-89500000D03*
X126400000Y-90500000D03*
X124400000Y-88500000D03*
X125400000Y-92500000D03*
X127400000Y-88500000D03*
X124400000Y-91500000D03*
X128400000Y-92500000D03*
X127400000Y-92500000D03*
X124400000Y-87500000D03*
X128400000Y-89500000D03*
X125400000Y-91500000D03*
X126400000Y-89500000D03*
X131200000Y-87800000D03*
X125400000Y-89500000D03*
X128400000Y-88500000D03*
X125400000Y-88500000D03*
X126400000Y-92500000D03*
X126400000Y-91500000D03*
X130900000Y-92800000D03*
X127400000Y-87500000D03*
X125400000Y-87500000D03*
X127400000Y-91500000D03*
X124400000Y-92500000D03*
X125400000Y-90500000D03*
X126400000Y-87500000D03*
X126400000Y-88500000D03*
X115325000Y-92725000D03*
X115325000Y-93400000D03*
X118300000Y-85300000D03*
X118300000Y-90300000D03*
X120300000Y-87300000D03*
X120300000Y-83300000D03*
X121300000Y-81300000D03*
X118300000Y-86300000D03*
X121300000Y-89300000D03*
X119300000Y-88300000D03*
X122300000Y-88300000D03*
X120300000Y-86300000D03*
X120300000Y-88300000D03*
X120300000Y-90300000D03*
X122300000Y-89300000D03*
X119300000Y-89300000D03*
X119300000Y-86300000D03*
X118300000Y-87300000D03*
X122300000Y-90300000D03*
X122300000Y-87300000D03*
X121300000Y-88300000D03*
X121300000Y-87300000D03*
X122300000Y-86300000D03*
X118300000Y-89300000D03*
X119300000Y-90300000D03*
X121300000Y-86300000D03*
X121300000Y-90300000D03*
X120300000Y-89300000D03*
X119300000Y-87300000D03*
X118300000Y-88300000D03*
X122300000Y-82300000D03*
X121300000Y-84300000D03*
X118300000Y-81300000D03*
X121300000Y-83300000D03*
X119300000Y-85300000D03*
X118300000Y-84300000D03*
X120300000Y-82300000D03*
X119300000Y-81300000D03*
X119300000Y-83300000D03*
X121300000Y-85300000D03*
X119300000Y-82300000D03*
X120300000Y-84300000D03*
X120300000Y-85300000D03*
X122300000Y-85300000D03*
X119300000Y-84300000D03*
X122300000Y-81300000D03*
X122300000Y-83300000D03*
X118300000Y-83300000D03*
X118300000Y-82300000D03*
X122300000Y-84300000D03*
X121300000Y-82300000D03*
X120300000Y-81300000D03*
X128400000Y-84200000D03*
X125400000Y-82200000D03*
X126400000Y-82200000D03*
X124400000Y-80200000D03*
X125400000Y-83200000D03*
X126400000Y-80200000D03*
X127400000Y-84200000D03*
X126400000Y-84200000D03*
X124400000Y-79200000D03*
X128400000Y-83200000D03*
X127400000Y-80200000D03*
X127400000Y-83200000D03*
X125400000Y-80200000D03*
X126400000Y-79200000D03*
X124400000Y-81200000D03*
X128400000Y-80200000D03*
X126400000Y-83200000D03*
X125400000Y-81200000D03*
X125400000Y-79200000D03*
X128400000Y-81200000D03*
X128400000Y-79200000D03*
X127400000Y-82200000D03*
X126400000Y-81200000D03*
X127400000Y-81200000D03*
X125400000Y-84200000D03*
X124400000Y-83200000D03*
X127400000Y-79200000D03*
X124400000Y-84200000D03*
X124400000Y-82200000D03*
X128400000Y-82200000D03*
X115300000Y-78300000D03*
X115300000Y-78975000D03*
X89775000Y-77575000D03*
X94274994Y-77575000D03*
X107900000Y-64500000D03*
X107800010Y-90000010D03*
X67700000Y-87300000D03*
X66700000Y-87300000D03*
X67700000Y-88300000D03*
X67700000Y-89300000D03*
X68700000Y-87300000D03*
X68700000Y-90300000D03*
X68700000Y-89300000D03*
X65700000Y-89300000D03*
X65700000Y-87300000D03*
X66700000Y-88300000D03*
X69700000Y-88300000D03*
X69700000Y-89300000D03*
X65700000Y-90300000D03*
X69700000Y-90300000D03*
X65700000Y-88300000D03*
X66700000Y-90300000D03*
X69700000Y-87300000D03*
X66700000Y-89300000D03*
X67700000Y-90300000D03*
X68700000Y-88300000D03*
X67700000Y-81300000D03*
X66700000Y-81300000D03*
X67700000Y-82300000D03*
X67700000Y-83300000D03*
X68700000Y-81300000D03*
X68700000Y-84300000D03*
X68700000Y-83300000D03*
X65700000Y-83300000D03*
X65700000Y-81300000D03*
X66700000Y-82300000D03*
X69700000Y-82300000D03*
X69700000Y-83300000D03*
X65700000Y-84300000D03*
X69700000Y-84300000D03*
X65700000Y-82300000D03*
X66700000Y-84300000D03*
X69700000Y-81300000D03*
X65700000Y-85300000D03*
X66700000Y-83300000D03*
X66700000Y-85300000D03*
X67700000Y-84300000D03*
X68700000Y-82300000D03*
X67700000Y-85300000D03*
X68700000Y-85300000D03*
X68700000Y-86300000D03*
X69700000Y-85300000D03*
X67700000Y-86300000D03*
X65700000Y-86300000D03*
X69700000Y-86300000D03*
X66700000Y-86300000D03*
X59600000Y-92500000D03*
X60600000Y-92500000D03*
X61600000Y-92500000D03*
X62600000Y-92500000D03*
X63600000Y-92500000D03*
X63600000Y-91500000D03*
X62600000Y-91500000D03*
X61600000Y-91500000D03*
X60600000Y-91500000D03*
X59600000Y-91500000D03*
X59600000Y-90500000D03*
X60600000Y-90500000D03*
X61600000Y-90500000D03*
X62600000Y-90500000D03*
X63600000Y-90500000D03*
X63600000Y-89500000D03*
X62600000Y-89500000D03*
X61600000Y-89500000D03*
X60600000Y-89500000D03*
X59600000Y-89500000D03*
X63600000Y-88500000D03*
X62600000Y-88500000D03*
X61600000Y-88500000D03*
X60600000Y-88500000D03*
X59600000Y-88500000D03*
X63600000Y-87500000D03*
X62600000Y-87500000D03*
X61600000Y-87500000D03*
X60600000Y-87500000D03*
X59600000Y-87500000D03*
X72725000Y-92700000D03*
X72725000Y-93350000D03*
X57100000Y-92800000D03*
X56800000Y-87800000D03*
X72700000Y-79000000D03*
X72700000Y-78350000D03*
X61600000Y-79200000D03*
X60600000Y-79200000D03*
X61600000Y-80200000D03*
X61600000Y-81200000D03*
X62600000Y-79200000D03*
X62600000Y-82200000D03*
X62600000Y-81200000D03*
X59600000Y-81200000D03*
X59600000Y-79200000D03*
X60600000Y-80200000D03*
X63600000Y-80200000D03*
X63600000Y-81200000D03*
X59600000Y-82200000D03*
X63600000Y-82200000D03*
X59600000Y-80200000D03*
X60600000Y-82200000D03*
X63600000Y-79200000D03*
X59600000Y-83200000D03*
X60600000Y-81200000D03*
X60600000Y-83200000D03*
X61600000Y-82200000D03*
X62600000Y-80200000D03*
X61600000Y-83200000D03*
X62600000Y-83200000D03*
X62600000Y-84200000D03*
X63600000Y-83200000D03*
X61600000Y-84200000D03*
X59600000Y-84200000D03*
X63600000Y-84200000D03*
X60600000Y-84200000D03*
X80700000Y-85175000D03*
D21*
X101980000Y-68950000D02*
X101620000Y-68590000D01*
X105625000Y-78675736D02*
X105625000Y-79100000D01*
X105625000Y-78125000D02*
X105625000Y-78675736D01*
X107200000Y-76550000D02*
X105625000Y-78125000D01*
X100820001Y-69389999D02*
X101620000Y-68590000D01*
X99975000Y-70235000D02*
X100820001Y-69389999D01*
X109000000Y-102420000D02*
X105844998Y-102420000D01*
X105844998Y-102420000D02*
X99975000Y-96550002D01*
X89844999Y-97655001D02*
X99975000Y-87525000D01*
X81875001Y-97655001D02*
X89844999Y-97655001D01*
X79000000Y-94780000D02*
X81875001Y-97655001D01*
X99975000Y-96550002D02*
X99975000Y-87525000D01*
X99975000Y-87525000D02*
X99975000Y-76525000D01*
X99975000Y-76525000D02*
X99975000Y-70235000D01*
X100488630Y-68590000D02*
X101620000Y-68590000D01*
X97834998Y-68590000D02*
X100488630Y-68590000D01*
X83475000Y-77600000D02*
X88824998Y-77600000D01*
X88824998Y-77600000D02*
X97834998Y-68590000D01*
D22*
X104300000Y-74300000D02*
X104300000Y-74300000D01*
X104300000Y-88418626D02*
X104300000Y-74300000D01*
X104300000Y-71900000D02*
X105375001Y-70824999D01*
X105375001Y-70824999D02*
X105675000Y-70525000D01*
X104300000Y-74300000D02*
X104300000Y-71900000D01*
D21*
X102419999Y-82089999D02*
X101620000Y-81290000D01*
X102745001Y-82415001D02*
X102419999Y-82089999D01*
X102745001Y-91085001D02*
X102745001Y-82415001D01*
X109000000Y-97340000D02*
X102745001Y-91085001D01*
X102419999Y-77009999D02*
X101620000Y-76210000D01*
X103195011Y-77785011D02*
X102419999Y-77009999D01*
X109000000Y-94800000D02*
X103195011Y-88995011D01*
X103195011Y-88995011D02*
X103195011Y-77785011D01*
X89775000Y-77575000D02*
X90199264Y-77575000D01*
X90199264Y-77575000D02*
X94274994Y-77575000D01*
X108500034Y-65100034D02*
X108500034Y-89299986D01*
X108100009Y-89700011D02*
X107800010Y-90000010D01*
X107900000Y-64500000D02*
X108500034Y-65100034D01*
X108500034Y-89299986D02*
X108100009Y-89700011D01*
X85580001Y-71929999D02*
X86380000Y-71130000D01*
X81991200Y-75518800D02*
X85580001Y-71929999D01*
X80700000Y-85175000D02*
X81991200Y-83883800D01*
X81991200Y-83883800D02*
X81991200Y-75518800D01*
D23*
G36*
X131116601Y-70256945D02*
G01*
X131754215Y-70996701D01*
X131741833Y-72416004D01*
X129148311Y-74997085D01*
X129132470Y-75016292D01*
X129120681Y-75038220D01*
X129113397Y-75062027D01*
X129110898Y-75086639D01*
X129072797Y-85523000D01*
X123678166Y-85523000D01*
X123702354Y-79350498D01*
X123700011Y-79325712D01*
X123692877Y-79301859D01*
X123681227Y-79279857D01*
X123665509Y-79260550D01*
X123646326Y-79244681D01*
X123624415Y-79232859D01*
X123600619Y-79225538D01*
X123575355Y-79223000D01*
X113177000Y-79223000D01*
X113177000Y-77740069D01*
X123615796Y-70227163D01*
X131116601Y-70256945D01*
X131116601Y-70256945D01*
G37*
X131116601Y-70256945D02*
X131754215Y-70996701D01*
X131741833Y-72416004D01*
X129148311Y-74997085D01*
X129132470Y-75016292D01*
X129120681Y-75038220D01*
X129113397Y-75062027D01*
X129110898Y-75086639D01*
X129072797Y-85523000D01*
X123678166Y-85523000D01*
X123702354Y-79350498D01*
X123700011Y-79325712D01*
X123692877Y-79301859D01*
X123681227Y-79279857D01*
X123665509Y-79260550D01*
X123646326Y-79244681D01*
X123624415Y-79232859D01*
X123600619Y-79225538D01*
X123575355Y-79223000D01*
X113177000Y-79223000D01*
X113177000Y-77740069D01*
X123615796Y-70227163D01*
X131116601Y-70256945D01*
G36*
X136923000Y-68771579D02*
G01*
X136923000Y-84992520D01*
X130635285Y-93648000D01*
X113177000Y-93648000D01*
X113177000Y-92477000D01*
X123575000Y-92477000D01*
X123599776Y-92474560D01*
X123623601Y-92467333D01*
X123645557Y-92455597D01*
X123664803Y-92439803D01*
X123680597Y-92420557D01*
X123692333Y-92398601D01*
X123699560Y-92374776D01*
X123702000Y-92350000D01*
X123702000Y-86152000D01*
X129500000Y-86152000D01*
X129524776Y-86149560D01*
X129548601Y-86142333D01*
X129570557Y-86130597D01*
X129589803Y-86114803D01*
X129605597Y-86095557D01*
X129617333Y-86073601D01*
X129624560Y-86049776D01*
X129627000Y-86025295D01*
X129651879Y-75302376D01*
X132252725Y-72676878D01*
X132268428Y-72657559D01*
X132280061Y-72635547D01*
X132287175Y-72611689D01*
X132289499Y-72587955D01*
X132295749Y-70844205D01*
X132293398Y-70819420D01*
X132286256Y-70795570D01*
X132274599Y-70773572D01*
X132265383Y-70761342D01*
X131399663Y-69746190D01*
X131381729Y-69728921D01*
X131360771Y-69715483D01*
X131337594Y-69706392D01*
X131303167Y-69701598D01*
X126437190Y-69696337D01*
X126416271Y-66726183D01*
X127230517Y-65846695D01*
X134441182Y-65843249D01*
X136923000Y-68771579D01*
X136923000Y-68771579D01*
G37*
X136923000Y-68771579D02*
X136923000Y-84992520D01*
X130635285Y-93648000D01*
X113177000Y-93648000D01*
X113177000Y-92477000D01*
X123575000Y-92477000D01*
X123599776Y-92474560D01*
X123623601Y-92467333D01*
X123645557Y-92455597D01*
X123664803Y-92439803D01*
X123680597Y-92420557D01*
X123692333Y-92398601D01*
X123699560Y-92374776D01*
X123702000Y-92350000D01*
X123702000Y-86152000D01*
X129500000Y-86152000D01*
X129524776Y-86149560D01*
X129548601Y-86142333D01*
X129570557Y-86130597D01*
X129589803Y-86114803D01*
X129605597Y-86095557D01*
X129617333Y-86073601D01*
X129624560Y-86049776D01*
X129627000Y-86025295D01*
X129651879Y-75302376D01*
X132252725Y-72676878D01*
X132268428Y-72657559D01*
X132280061Y-72635547D01*
X132287175Y-72611689D01*
X132289499Y-72587955D01*
X132295749Y-70844205D01*
X132293398Y-70819420D01*
X132286256Y-70795570D01*
X132274599Y-70773572D01*
X132265383Y-70761342D01*
X131399663Y-69746190D01*
X131381729Y-69728921D01*
X131360771Y-69715483D01*
X131337594Y-69706392D01*
X131303167Y-69701598D01*
X126437190Y-69696337D01*
X126416271Y-66726183D01*
X127230517Y-65846695D01*
X134441182Y-65843249D01*
X136923000Y-68771579D01*
G36*
X122998000Y-79782669D02*
G01*
X122998000Y-91928666D01*
X109627000Y-91867331D01*
X109627000Y-79721334D01*
X122998000Y-79782669D01*
X122998000Y-79782669D01*
G37*
X122998000Y-79782669D02*
X122998000Y-91928666D01*
X109627000Y-91867331D01*
X109627000Y-79721334D01*
X122998000Y-79782669D01*
G36*
X60772172Y-65846697D02*
G01*
X61647777Y-66726991D01*
X61623986Y-69749253D01*
X56748730Y-69798006D01*
X56723979Y-69800694D01*
X56700228Y-69808159D01*
X56678390Y-69820114D01*
X56652856Y-69843195D01*
X55852856Y-70793195D01*
X55838763Y-70813718D01*
X55828945Y-70836597D01*
X55823779Y-70860952D01*
X55823000Y-70875000D01*
X55823000Y-72525000D01*
X55825440Y-72549776D01*
X55832667Y-72573601D01*
X55844403Y-72595557D01*
X55859773Y-72614376D01*
X58448000Y-75227253D01*
X58448000Y-85950000D01*
X58450440Y-85974776D01*
X58457667Y-85998601D01*
X58469403Y-86020557D01*
X58485197Y-86039803D01*
X58504443Y-86055597D01*
X58526399Y-86067333D01*
X58550224Y-86074560D01*
X58575000Y-86077000D01*
X64298000Y-86077000D01*
X64298000Y-92350000D01*
X64300440Y-92374776D01*
X64307667Y-92398601D01*
X64319403Y-92420557D01*
X64335197Y-92439803D01*
X64354443Y-92455597D01*
X64376399Y-92467333D01*
X64400224Y-92474560D01*
X64425000Y-92477000D01*
X74823000Y-92477000D01*
X74823000Y-93648000D01*
X57364715Y-93648000D01*
X51077000Y-84992520D01*
X51077000Y-68771579D01*
X53558818Y-65843249D01*
X60772172Y-65846697D01*
X60772172Y-65846697D01*
G37*
X60772172Y-65846697D02*
X61647777Y-66726991D01*
X61623986Y-69749253D01*
X56748730Y-69798006D01*
X56723979Y-69800694D01*
X56700228Y-69808159D01*
X56678390Y-69820114D01*
X56652856Y-69843195D01*
X55852856Y-70793195D01*
X55838763Y-70813718D01*
X55828945Y-70836597D01*
X55823779Y-70860952D01*
X55823000Y-70875000D01*
X55823000Y-72525000D01*
X55825440Y-72549776D01*
X55832667Y-72573601D01*
X55844403Y-72595557D01*
X55859773Y-72614376D01*
X58448000Y-75227253D01*
X58448000Y-85950000D01*
X58450440Y-85974776D01*
X58457667Y-85998601D01*
X58469403Y-86020557D01*
X58485197Y-86039803D01*
X58504443Y-86055597D01*
X58526399Y-86067333D01*
X58550224Y-86074560D01*
X58575000Y-86077000D01*
X64298000Y-86077000D01*
X64298000Y-92350000D01*
X64300440Y-92374776D01*
X64307667Y-92398601D01*
X64319403Y-92420557D01*
X64335197Y-92439803D01*
X64354443Y-92455597D01*
X64376399Y-92467333D01*
X64400224Y-92474560D01*
X64425000Y-92477000D01*
X74823000Y-92477000D01*
X74823000Y-93648000D01*
X57364715Y-93648000D01*
X51077000Y-84992520D01*
X51077000Y-68771579D01*
X53558818Y-65843249D01*
X60772172Y-65846697D01*
G36*
X74823000Y-77740069D02*
G01*
X74823000Y-79223000D01*
X64424645Y-79223000D01*
X64399869Y-79225440D01*
X64376044Y-79232667D01*
X64354088Y-79244403D01*
X64334842Y-79260197D01*
X64319048Y-79279443D01*
X64307312Y-79301399D01*
X64300085Y-79325224D01*
X64297645Y-79349994D01*
X64297339Y-85548000D01*
X59002000Y-85548000D01*
X59002000Y-75000000D01*
X58999560Y-74975224D01*
X58992333Y-74951399D01*
X58980597Y-74929443D01*
X58965231Y-74910628D01*
X56402000Y-72322751D01*
X56402000Y-71021167D01*
X56963419Y-70351018D01*
X64384925Y-70227682D01*
X74823000Y-77740069D01*
X74823000Y-77740069D01*
G37*
X74823000Y-77740069D02*
X74823000Y-79223000D01*
X64424645Y-79223000D01*
X64399869Y-79225440D01*
X64376044Y-79232667D01*
X64354088Y-79244403D01*
X64334842Y-79260197D01*
X64319048Y-79279443D01*
X64307312Y-79301399D01*
X64300085Y-79325224D01*
X64297645Y-79349994D01*
X64297339Y-85548000D01*
X59002000Y-85548000D01*
X59002000Y-75000000D01*
X58999560Y-74975224D01*
X58992333Y-74951399D01*
X58980597Y-74929443D01*
X58965231Y-74910628D01*
X56402000Y-72322751D01*
X56402000Y-71021167D01*
X56963419Y-70351018D01*
X64384925Y-70227682D01*
X74823000Y-77740069D01*
G36*
X78372872Y-91867331D02*
G01*
X65001871Y-91928666D01*
X64989628Y-79807669D01*
X78360629Y-79746334D01*
X78372872Y-91867331D01*
X78372872Y-91867331D01*
G37*
X78372872Y-91867331D02*
X65001871Y-91928666D01*
X64989628Y-79807669D01*
X78360629Y-79746334D01*
X78372872Y-91867331D01*
G36*
X132217246Y-50718456D02*
G01*
X131718456Y-51217246D01*
X131326559Y-51803760D01*
X131056616Y-52455461D01*
X130919000Y-53147302D01*
X130919000Y-53852698D01*
X131056616Y-54544539D01*
X131326559Y-55196240D01*
X131718456Y-55782754D01*
X132217246Y-56281544D01*
X132803760Y-56673441D01*
X133455461Y-56943384D01*
X134147302Y-57081000D01*
X134852698Y-57081000D01*
X135544539Y-56943384D01*
X136196240Y-56673441D01*
X136782754Y-56281544D01*
X137281544Y-55782754D01*
X137594000Y-55315132D01*
X137594001Y-99684870D01*
X137281544Y-99217246D01*
X136782754Y-98718456D01*
X136196240Y-98326559D01*
X135544539Y-98056616D01*
X134852698Y-97919000D01*
X134147302Y-97919000D01*
X133455461Y-98056616D01*
X132803760Y-98326559D01*
X132217246Y-98718456D01*
X131718456Y-99217246D01*
X131326559Y-99803760D01*
X131056616Y-100455461D01*
X130919000Y-101147302D01*
X130919000Y-101852698D01*
X131056616Y-102544539D01*
X131326559Y-103196240D01*
X131718456Y-103782754D01*
X132217246Y-104281544D01*
X132684868Y-104594000D01*
X55315132Y-104594000D01*
X55782754Y-104281544D01*
X56281544Y-103782754D01*
X56673441Y-103196240D01*
X56943384Y-102544539D01*
X57081000Y-101852698D01*
X57081000Y-101646000D01*
X77863157Y-101646000D01*
X77863157Y-103154000D01*
X77870513Y-103228689D01*
X77892299Y-103300508D01*
X77927678Y-103366696D01*
X77975289Y-103424711D01*
X78033304Y-103472322D01*
X78099492Y-103507701D01*
X78171311Y-103529487D01*
X78246000Y-103536843D01*
X79754000Y-103536843D01*
X79828689Y-103529487D01*
X79900508Y-103507701D01*
X79966696Y-103472322D01*
X80024711Y-103424711D01*
X80072322Y-103366696D01*
X80107701Y-103300508D01*
X80129487Y-103228689D01*
X80136843Y-103154000D01*
X80136843Y-101646000D01*
X80129487Y-101571311D01*
X80107701Y-101499492D01*
X80072322Y-101433304D01*
X80024711Y-101375289D01*
X79966696Y-101327678D01*
X79900508Y-101292299D01*
X79828689Y-101270513D01*
X79754000Y-101263157D01*
X78246000Y-101263157D01*
X78171311Y-101270513D01*
X78099492Y-101292299D01*
X78033304Y-101327678D01*
X77975289Y-101375289D01*
X77927678Y-101433304D01*
X77892299Y-101499492D01*
X77870513Y-101571311D01*
X77863157Y-101646000D01*
X57081000Y-101646000D01*
X57081000Y-101147302D01*
X56943384Y-100455461D01*
X56673441Y-99803760D01*
X56636325Y-99748212D01*
X77865000Y-99748212D01*
X77865000Y-99971788D01*
X77908617Y-100191067D01*
X77994176Y-100397624D01*
X78118388Y-100583520D01*
X78276480Y-100741612D01*
X78462376Y-100865824D01*
X78668933Y-100951383D01*
X78888212Y-100995000D01*
X79111788Y-100995000D01*
X79331067Y-100951383D01*
X79537624Y-100865824D01*
X79723520Y-100741612D01*
X79881612Y-100583520D01*
X80005824Y-100397624D01*
X80091383Y-100191067D01*
X80135000Y-99971788D01*
X80135000Y-99748212D01*
X80091383Y-99528933D01*
X80005824Y-99322376D01*
X79881612Y-99136480D01*
X79723520Y-98978388D01*
X79537624Y-98854176D01*
X79331067Y-98768617D01*
X79111788Y-98725000D01*
X78888212Y-98725000D01*
X78668933Y-98768617D01*
X78462376Y-98854176D01*
X78276480Y-98978388D01*
X78118388Y-99136480D01*
X77994176Y-99322376D01*
X77908617Y-99528933D01*
X77865000Y-99748212D01*
X56636325Y-99748212D01*
X56281544Y-99217246D01*
X55782754Y-98718456D01*
X55196240Y-98326559D01*
X55083477Y-98279851D01*
X78219754Y-98279851D01*
X78285765Y-98519127D01*
X78533426Y-98635426D01*
X78799018Y-98701174D01*
X79072334Y-98713845D01*
X79342870Y-98672951D01*
X79600229Y-98580063D01*
X79714235Y-98519127D01*
X79780246Y-98279851D01*
X79000000Y-97499605D01*
X78219754Y-98279851D01*
X55083477Y-98279851D01*
X54544539Y-98056616D01*
X53852698Y-97919000D01*
X53147302Y-97919000D01*
X52455461Y-98056616D01*
X51803760Y-98326559D01*
X51217246Y-98718456D01*
X50718456Y-99217246D01*
X50406000Y-99684868D01*
X50406000Y-97392334D01*
X77606155Y-97392334D01*
X77647049Y-97662870D01*
X77739937Y-97920229D01*
X77800873Y-98034235D01*
X78040149Y-98100246D01*
X78820395Y-97320000D01*
X78040149Y-96539754D01*
X77800873Y-96605765D01*
X77684574Y-96853426D01*
X77618826Y-97119018D01*
X77606155Y-97392334D01*
X50406000Y-97392334D01*
X50406000Y-94668212D01*
X77865000Y-94668212D01*
X77865000Y-94891788D01*
X77908617Y-95111067D01*
X77994176Y-95317624D01*
X78118388Y-95503520D01*
X78276480Y-95661612D01*
X78462376Y-95785824D01*
X78668933Y-95871383D01*
X78888212Y-95915000D01*
X79111788Y-95915000D01*
X79331067Y-95871383D01*
X79362692Y-95858283D01*
X79546528Y-96042120D01*
X79466574Y-96004574D01*
X79200982Y-95938826D01*
X78927666Y-95926155D01*
X78657130Y-95967049D01*
X78399771Y-96059937D01*
X78285765Y-96120873D01*
X78219754Y-96360149D01*
X79000000Y-97140395D01*
X79014143Y-97126253D01*
X79193748Y-97305858D01*
X79179605Y-97320000D01*
X79959851Y-98100246D01*
X80199127Y-98034235D01*
X80315426Y-97786574D01*
X80381174Y-97520982D01*
X80393845Y-97247666D01*
X80352951Y-96977130D01*
X80280329Y-96775920D01*
X81499629Y-97995221D01*
X81515474Y-98014528D01*
X81592522Y-98077760D01*
X81680426Y-98124746D01*
X81753608Y-98146945D01*
X81775807Y-98153679D01*
X81785695Y-98154653D01*
X81850147Y-98161001D01*
X81850154Y-98161001D01*
X81875000Y-98163448D01*
X81899846Y-98161001D01*
X89820153Y-98161001D01*
X89844999Y-98163448D01*
X89869845Y-98161001D01*
X89869853Y-98161001D01*
X89944192Y-98153679D01*
X90039574Y-98124746D01*
X90127478Y-98077760D01*
X90204526Y-98014528D01*
X90220375Y-97995216D01*
X99469001Y-88746591D01*
X99469000Y-96525156D01*
X99466553Y-96550002D01*
X99469000Y-96574848D01*
X99469000Y-96574855D01*
X99476322Y-96649194D01*
X99505255Y-96744576D01*
X99552241Y-96832481D01*
X99615473Y-96909529D01*
X99634785Y-96925378D01*
X105469626Y-102760220D01*
X105485471Y-102779527D01*
X105562519Y-102842759D01*
X105650423Y-102889745D01*
X105745805Y-102918678D01*
X105844998Y-102928448D01*
X105869852Y-102926000D01*
X107981077Y-102926000D01*
X107994176Y-102957624D01*
X108118388Y-103143520D01*
X108276480Y-103301612D01*
X108462376Y-103425824D01*
X108668933Y-103511383D01*
X108888212Y-103555000D01*
X109111788Y-103555000D01*
X109331067Y-103511383D01*
X109537624Y-103425824D01*
X109723520Y-103301612D01*
X109881612Y-103143520D01*
X110005824Y-102957624D01*
X110091383Y-102751067D01*
X110135000Y-102531788D01*
X110135000Y-102308212D01*
X110091383Y-102088933D01*
X110005824Y-101882376D01*
X109881612Y-101696480D01*
X109723520Y-101538388D01*
X109537624Y-101414176D01*
X109331067Y-101328617D01*
X109111788Y-101285000D01*
X108888212Y-101285000D01*
X108668933Y-101328617D01*
X108462376Y-101414176D01*
X108276480Y-101538388D01*
X108118388Y-101696480D01*
X107994176Y-101882376D01*
X107981077Y-101914000D01*
X106054590Y-101914000D01*
X104980441Y-100839851D01*
X108219754Y-100839851D01*
X108285765Y-101079127D01*
X108533426Y-101195426D01*
X108799018Y-101261174D01*
X109072334Y-101273845D01*
X109342870Y-101232951D01*
X109600229Y-101140063D01*
X109714235Y-101079127D01*
X109780246Y-100839851D01*
X109000000Y-100059605D01*
X108219754Y-100839851D01*
X104980441Y-100839851D01*
X104092924Y-99952334D01*
X107606155Y-99952334D01*
X107647049Y-100222870D01*
X107739937Y-100480229D01*
X107800873Y-100594235D01*
X108040149Y-100660246D01*
X108820395Y-99880000D01*
X109179605Y-99880000D01*
X109959851Y-100660246D01*
X110199127Y-100594235D01*
X110315426Y-100346574D01*
X110381174Y-100080982D01*
X110393845Y-99807666D01*
X110352951Y-99537130D01*
X110260063Y-99279771D01*
X110199127Y-99165765D01*
X109959851Y-99099754D01*
X109179605Y-99880000D01*
X108820395Y-99880000D01*
X108040149Y-99099754D01*
X107800873Y-99165765D01*
X107684574Y-99413426D01*
X107618826Y-99679018D01*
X107606155Y-99952334D01*
X104092924Y-99952334D01*
X103060739Y-98920149D01*
X108219754Y-98920149D01*
X109000000Y-99700395D01*
X109780246Y-98920149D01*
X109714235Y-98680873D01*
X109466574Y-98564574D01*
X109200982Y-98498826D01*
X108927666Y-98486155D01*
X108657130Y-98527049D01*
X108399771Y-98619937D01*
X108285765Y-98680873D01*
X108219754Y-98920149D01*
X103060739Y-98920149D01*
X101832464Y-97691875D01*
X101964485Y-97665614D01*
X102179413Y-97576588D01*
X102372843Y-97447342D01*
X102537342Y-97282843D01*
X102666588Y-97089413D01*
X102755614Y-96874485D01*
X102801000Y-96646318D01*
X102801000Y-96413682D01*
X102755614Y-96185515D01*
X102666588Y-95970587D01*
X102537342Y-95777157D01*
X102372843Y-95612658D01*
X102179413Y-95483412D01*
X101964485Y-95394386D01*
X101736318Y-95349000D01*
X101503682Y-95349000D01*
X101275515Y-95394386D01*
X101060587Y-95483412D01*
X100867157Y-95612658D01*
X100702658Y-95777157D01*
X100573412Y-95970587D01*
X100484386Y-96185515D01*
X100481000Y-96202537D01*
X100481000Y-94317463D01*
X100484386Y-94334485D01*
X100573412Y-94549413D01*
X100702658Y-94742843D01*
X100867157Y-94907342D01*
X101060587Y-95036588D01*
X101275515Y-95125614D01*
X101503682Y-95171000D01*
X101736318Y-95171000D01*
X101964485Y-95125614D01*
X102179413Y-95036588D01*
X102372843Y-94907342D01*
X102537342Y-94742843D01*
X102666588Y-94549413D01*
X102755614Y-94334485D01*
X102801000Y-94106318D01*
X102801000Y-93873682D01*
X102755614Y-93645515D01*
X102666588Y-93430587D01*
X102537342Y-93237157D01*
X102372843Y-93072658D01*
X102179413Y-92943412D01*
X101964485Y-92854386D01*
X101736318Y-92809000D01*
X101503682Y-92809000D01*
X101275515Y-92854386D01*
X101060587Y-92943412D01*
X100867157Y-93072658D01*
X100702658Y-93237157D01*
X100573412Y-93430587D01*
X100484386Y-93645515D01*
X100481000Y-93662537D01*
X100481000Y-91777463D01*
X100484386Y-91794485D01*
X100573412Y-92009413D01*
X100702658Y-92202843D01*
X100867157Y-92367342D01*
X101060587Y-92496588D01*
X101275515Y-92585614D01*
X101503682Y-92631000D01*
X101736318Y-92631000D01*
X101964485Y-92585614D01*
X102179413Y-92496588D01*
X102372843Y-92367342D01*
X102537342Y-92202843D01*
X102666588Y-92009413D01*
X102750717Y-91806308D01*
X107921716Y-96977308D01*
X107908617Y-97008933D01*
X107865000Y-97228212D01*
X107865000Y-97451788D01*
X107908617Y-97671067D01*
X107994176Y-97877624D01*
X108118388Y-98063520D01*
X108276480Y-98221612D01*
X108462376Y-98345824D01*
X108668933Y-98431383D01*
X108888212Y-98475000D01*
X109111788Y-98475000D01*
X109331067Y-98431383D01*
X109537624Y-98345824D01*
X109723520Y-98221612D01*
X109881612Y-98063520D01*
X110005824Y-97877624D01*
X110091383Y-97671067D01*
X110135000Y-97451788D01*
X110135000Y-97228212D01*
X110091383Y-97008933D01*
X110005824Y-96802376D01*
X109881612Y-96616480D01*
X109723520Y-96458388D01*
X109537624Y-96334176D01*
X109331067Y-96248617D01*
X109111788Y-96205000D01*
X108888212Y-96205000D01*
X108668933Y-96248617D01*
X108637308Y-96261716D01*
X108312435Y-95936843D01*
X109754000Y-95936843D01*
X109828689Y-95929487D01*
X109900508Y-95907701D01*
X109966696Y-95872322D01*
X110024711Y-95824711D01*
X110072322Y-95766696D01*
X110107701Y-95700508D01*
X110129487Y-95628689D01*
X110136843Y-95554000D01*
X110136843Y-94046000D01*
X110129487Y-93971311D01*
X110107701Y-93899492D01*
X110072322Y-93833304D01*
X110024711Y-93775289D01*
X109966696Y-93727678D01*
X109900508Y-93692299D01*
X109828689Y-93670513D01*
X109754000Y-93663157D01*
X108578749Y-93663157D01*
X104848529Y-89932937D01*
X107119010Y-89932937D01*
X107119010Y-90067083D01*
X107145181Y-90198650D01*
X107196516Y-90322584D01*
X107271043Y-90434122D01*
X107365898Y-90528977D01*
X107477436Y-90603504D01*
X107601370Y-90654839D01*
X107732937Y-90681010D01*
X107867083Y-90681010D01*
X107998650Y-90654839D01*
X108122584Y-90603504D01*
X108234122Y-90528977D01*
X108328977Y-90434122D01*
X108403504Y-90322584D01*
X108454839Y-90198650D01*
X108481010Y-90067083D01*
X108481010Y-90034601D01*
X108840254Y-89675358D01*
X108859561Y-89659513D01*
X108922793Y-89582465D01*
X108969779Y-89494561D01*
X108998712Y-89399179D01*
X109006034Y-89324840D01*
X109008482Y-89299986D01*
X109006034Y-89275132D01*
X109006034Y-79593750D01*
X109119000Y-79593750D01*
X109119000Y-91993750D01*
X109125984Y-92066365D01*
X109147337Y-92137936D01*
X109182242Y-92203967D01*
X109229359Y-92261919D01*
X109286877Y-92309566D01*
X109352584Y-92345076D01*
X109423957Y-92367084D01*
X109498252Y-92374746D01*
X112669000Y-92389291D01*
X112669000Y-93775000D01*
X112676321Y-93849329D01*
X112698002Y-93920802D01*
X112733210Y-93986672D01*
X112780592Y-94044408D01*
X112838328Y-94091790D01*
X112904198Y-94126998D01*
X112975671Y-94148679D01*
X113050000Y-94156000D01*
X130700000Y-94156000D01*
X130759626Y-94151305D01*
X130831894Y-94132442D01*
X130899093Y-94099843D01*
X130958641Y-94054760D01*
X131008250Y-93998926D01*
X137358250Y-85257706D01*
X137401998Y-85179582D01*
X137423679Y-85108109D01*
X137431000Y-85033780D01*
X137431000Y-68725000D01*
X137428527Y-68681659D01*
X137412798Y-68608644D01*
X137383127Y-68540102D01*
X137340654Y-68478665D01*
X134790654Y-65469886D01*
X134711521Y-65399330D01*
X134645634Y-65364153D01*
X134574151Y-65342506D01*
X134499818Y-65335221D01*
X127174818Y-65338722D01*
X127086342Y-65349181D01*
X127015757Y-65373597D01*
X126951291Y-65411314D01*
X126895422Y-65460884D01*
X126009342Y-66417961D01*
X125970647Y-66467363D01*
X125935904Y-66533479D01*
X125914727Y-66605103D01*
X125907929Y-66679482D01*
X125929402Y-69728345D01*
X123576585Y-69719003D01*
X123487792Y-69729132D01*
X123417117Y-69753285D01*
X123352511Y-69790763D01*
X112827439Y-77365763D01*
X112780592Y-77405592D01*
X112733210Y-77463328D01*
X112698002Y-77529198D01*
X112676321Y-77600671D01*
X112669000Y-77675000D01*
X112669000Y-79227283D01*
X109501748Y-79212754D01*
X109425671Y-79220071D01*
X109354198Y-79241752D01*
X109288328Y-79276960D01*
X109230592Y-79324342D01*
X109183210Y-79382078D01*
X109148002Y-79447948D01*
X109126321Y-79519421D01*
X109119000Y-79593750D01*
X109006034Y-79593750D01*
X109006034Y-65124879D01*
X109008481Y-65100033D01*
X109006034Y-65075187D01*
X109006034Y-65075180D01*
X108998712Y-65000841D01*
X108969779Y-64905459D01*
X108922793Y-64817555D01*
X108859561Y-64740507D01*
X108840254Y-64724662D01*
X108581000Y-64465408D01*
X108581000Y-64432927D01*
X108554829Y-64301360D01*
X108503494Y-64177426D01*
X108428967Y-64065888D01*
X108334112Y-63971033D01*
X108222574Y-63896506D01*
X108098640Y-63845171D01*
X107967073Y-63819000D01*
X107832927Y-63819000D01*
X107701360Y-63845171D01*
X107577426Y-63896506D01*
X107465888Y-63971033D01*
X107371033Y-64065888D01*
X107296506Y-64177426D01*
X107245171Y-64301360D01*
X107219000Y-64432927D01*
X107219000Y-64567073D01*
X107245171Y-64698640D01*
X107296506Y-64822574D01*
X107371033Y-64934112D01*
X107465888Y-65028967D01*
X107577426Y-65103494D01*
X107701360Y-65154829D01*
X107832927Y-65181000D01*
X107865408Y-65181000D01*
X107994034Y-65309626D01*
X107994035Y-89090393D01*
X107765419Y-89319010D01*
X107732937Y-89319010D01*
X107601370Y-89345181D01*
X107477436Y-89396516D01*
X107365898Y-89471043D01*
X107271043Y-89565898D01*
X107196516Y-89677436D01*
X107145181Y-89801370D01*
X107119010Y-89932937D01*
X104848529Y-89932937D01*
X103701011Y-88785420D01*
X103701011Y-88747942D01*
X103771033Y-88852738D01*
X103865888Y-88947593D01*
X103977426Y-89022120D01*
X104101360Y-89073455D01*
X104232927Y-89099626D01*
X104367073Y-89099626D01*
X104498640Y-89073455D01*
X104622574Y-89022120D01*
X104734112Y-88947593D01*
X104828967Y-88852738D01*
X104903494Y-88741200D01*
X104954829Y-88617266D01*
X104981000Y-88485699D01*
X104981000Y-88351553D01*
X104954829Y-88219986D01*
X104931000Y-88162458D01*
X104931000Y-79032927D01*
X104944000Y-79032927D01*
X104944000Y-79167073D01*
X104970171Y-79298640D01*
X105021506Y-79422574D01*
X105096033Y-79534112D01*
X105190888Y-79628967D01*
X105302426Y-79703494D01*
X105426360Y-79754829D01*
X105557927Y-79781000D01*
X105692073Y-79781000D01*
X105823640Y-79754829D01*
X105947574Y-79703494D01*
X106059112Y-79628967D01*
X106153967Y-79534112D01*
X106228494Y-79422574D01*
X106279829Y-79298640D01*
X106306000Y-79167073D01*
X106306000Y-79032927D01*
X106279829Y-78901360D01*
X106228494Y-78777426D01*
X106153967Y-78665888D01*
X106131000Y-78642921D01*
X106131000Y-78334591D01*
X107234592Y-77231000D01*
X107267073Y-77231000D01*
X107398640Y-77204829D01*
X107522574Y-77153494D01*
X107634112Y-77078967D01*
X107728967Y-76984112D01*
X107803494Y-76872574D01*
X107854829Y-76748640D01*
X107881000Y-76617073D01*
X107881000Y-76482927D01*
X107854829Y-76351360D01*
X107803494Y-76227426D01*
X107728967Y-76115888D01*
X107634112Y-76021033D01*
X107522574Y-75946506D01*
X107398640Y-75895171D01*
X107267073Y-75869000D01*
X107132927Y-75869000D01*
X107001360Y-75895171D01*
X106877426Y-75946506D01*
X106765888Y-76021033D01*
X106671033Y-76115888D01*
X106596506Y-76227426D01*
X106545171Y-76351360D01*
X106519000Y-76482927D01*
X106519000Y-76515408D01*
X105284785Y-77749624D01*
X105265473Y-77765473D01*
X105202241Y-77842521D01*
X105155255Y-77930426D01*
X105126322Y-78025808D01*
X105119000Y-78100147D01*
X105119000Y-78100154D01*
X105116553Y-78125000D01*
X105119000Y-78149847D01*
X105119001Y-78642920D01*
X105096033Y-78665888D01*
X105021506Y-78777426D01*
X104970171Y-78901360D01*
X104944000Y-79032927D01*
X104931000Y-79032927D01*
X104931000Y-74330997D01*
X104934053Y-74300000D01*
X104931000Y-74269002D01*
X104931000Y-72161368D01*
X105843104Y-71249265D01*
X105843109Y-71249259D01*
X105940045Y-71152323D01*
X105997574Y-71128494D01*
X106109112Y-71053967D01*
X106203967Y-70959112D01*
X106278494Y-70847574D01*
X106329829Y-70723640D01*
X106356000Y-70592073D01*
X106356000Y-70457927D01*
X106329829Y-70326360D01*
X106278494Y-70202426D01*
X106203967Y-70090888D01*
X106109112Y-69996033D01*
X105997574Y-69921506D01*
X105873640Y-69870171D01*
X105742073Y-69844000D01*
X105607927Y-69844000D01*
X105476360Y-69870171D01*
X105352426Y-69921506D01*
X105240888Y-69996033D01*
X105146033Y-70090888D01*
X105071506Y-70202426D01*
X105047677Y-70259955D01*
X104950741Y-70356891D01*
X104950735Y-70356896D01*
X103875733Y-71431899D01*
X103851658Y-71451657D01*
X103831900Y-71475732D01*
X103831897Y-71475735D01*
X103772804Y-71547740D01*
X103714211Y-71657359D01*
X103678130Y-71776303D01*
X103665948Y-71900000D01*
X103669001Y-71931000D01*
X103669000Y-74269002D01*
X103665947Y-74300000D01*
X103669001Y-74331008D01*
X103669001Y-77604430D01*
X103664756Y-77590436D01*
X103617770Y-77502532D01*
X103554538Y-77425484D01*
X103535231Y-77409639D01*
X102795373Y-76669782D01*
X102795369Y-76669777D01*
X102733490Y-76607898D01*
X102755614Y-76554485D01*
X102801000Y-76326318D01*
X102801000Y-76093682D01*
X102755614Y-75865515D01*
X102666588Y-75650587D01*
X102537342Y-75457157D01*
X102372843Y-75292658D01*
X102179413Y-75163412D01*
X101964485Y-75074386D01*
X101736318Y-75029000D01*
X101503682Y-75029000D01*
X101275515Y-75074386D01*
X101060587Y-75163412D01*
X100867157Y-75292658D01*
X100702658Y-75457157D01*
X100573412Y-75650587D01*
X100484386Y-75865515D01*
X100481000Y-75882537D01*
X100481000Y-73997463D01*
X100484386Y-74014485D01*
X100573412Y-74229413D01*
X100702658Y-74422843D01*
X100867157Y-74587342D01*
X101060587Y-74716588D01*
X101275515Y-74805614D01*
X101503682Y-74851000D01*
X101736318Y-74851000D01*
X101964485Y-74805614D01*
X102179413Y-74716588D01*
X102372843Y-74587342D01*
X102537342Y-74422843D01*
X102666588Y-74229413D01*
X102755614Y-74014485D01*
X102801000Y-73786318D01*
X102801000Y-73553682D01*
X102755614Y-73325515D01*
X102666588Y-73110587D01*
X102537342Y-72917157D01*
X102372843Y-72752658D01*
X102179413Y-72623412D01*
X101964485Y-72534386D01*
X101736318Y-72489000D01*
X101503682Y-72489000D01*
X101275515Y-72534386D01*
X101060587Y-72623412D01*
X100867157Y-72752658D01*
X100702658Y-72917157D01*
X100573412Y-73110587D01*
X100484386Y-73325515D01*
X100481000Y-73342537D01*
X100481000Y-71457463D01*
X100484386Y-71474485D01*
X100573412Y-71689413D01*
X100702658Y-71882843D01*
X100867157Y-72047342D01*
X101060587Y-72176588D01*
X101275515Y-72265614D01*
X101503682Y-72311000D01*
X101736318Y-72311000D01*
X101964485Y-72265614D01*
X102179413Y-72176588D01*
X102372843Y-72047342D01*
X102537342Y-71882843D01*
X102666588Y-71689413D01*
X102755614Y-71474485D01*
X102801000Y-71246318D01*
X102801000Y-71013682D01*
X102755614Y-70785515D01*
X102666588Y-70570587D01*
X102537342Y-70377157D01*
X102372843Y-70212658D01*
X102179413Y-70083412D01*
X101964485Y-69994386D01*
X101736318Y-69949000D01*
X101503682Y-69949000D01*
X101275515Y-69994386D01*
X101060587Y-70083412D01*
X100867157Y-70212658D01*
X100702658Y-70377157D01*
X100573412Y-70570587D01*
X100484386Y-70785515D01*
X100481000Y-70802537D01*
X100481000Y-70444591D01*
X101195371Y-69730221D01*
X101195375Y-69730216D01*
X101222102Y-69703489D01*
X101275515Y-69725614D01*
X101503682Y-69771000D01*
X101736318Y-69771000D01*
X101964485Y-69725614D01*
X102179413Y-69636588D01*
X102372843Y-69507342D01*
X102537342Y-69342843D01*
X102666588Y-69149413D01*
X102755614Y-68934485D01*
X102801000Y-68706318D01*
X102801000Y-68473682D01*
X102755614Y-68245515D01*
X102666588Y-68030587D01*
X102537342Y-67837157D01*
X102372843Y-67672658D01*
X102179413Y-67543412D01*
X101964485Y-67454386D01*
X101736318Y-67409000D01*
X101503682Y-67409000D01*
X101275515Y-67454386D01*
X101060587Y-67543412D01*
X100867157Y-67672658D01*
X100702658Y-67837157D01*
X100573412Y-68030587D01*
X100551288Y-68084000D01*
X97859843Y-68084000D01*
X97834997Y-68081553D01*
X97810151Y-68084000D01*
X97810144Y-68084000D01*
X97745692Y-68090348D01*
X97735804Y-68091322D01*
X97694023Y-68103996D01*
X97640423Y-68120255D01*
X97552519Y-68167241D01*
X97475471Y-68230473D01*
X97459626Y-68249780D01*
X88615407Y-77094000D01*
X87166185Y-77094000D01*
X87297342Y-76962843D01*
X87426588Y-76769413D01*
X87515614Y-76554485D01*
X87561000Y-76326318D01*
X87561000Y-76093682D01*
X87515614Y-75865515D01*
X87426588Y-75650587D01*
X87297342Y-75457157D01*
X87132843Y-75292658D01*
X86939413Y-75163412D01*
X86724485Y-75074386D01*
X86496318Y-75029000D01*
X86263682Y-75029000D01*
X86035515Y-75074386D01*
X85820587Y-75163412D01*
X85627157Y-75292658D01*
X85462658Y-75457157D01*
X85333412Y-75650587D01*
X85244386Y-75865515D01*
X85199000Y-76093682D01*
X85199000Y-76326318D01*
X85244386Y-76554485D01*
X85333412Y-76769413D01*
X85462658Y-76962843D01*
X85593815Y-77094000D01*
X83932079Y-77094000D01*
X83909112Y-77071033D01*
X83797574Y-76996506D01*
X83673640Y-76945171D01*
X83542073Y-76919000D01*
X83407927Y-76919000D01*
X83276360Y-76945171D01*
X83152426Y-76996506D01*
X83040888Y-77071033D01*
X82946033Y-77165888D01*
X82871506Y-77277426D01*
X82820171Y-77401360D01*
X82794000Y-77532927D01*
X82794000Y-77667073D01*
X82820171Y-77798640D01*
X82871506Y-77922574D01*
X82946033Y-78034112D01*
X83040888Y-78128967D01*
X83152426Y-78203494D01*
X83276360Y-78254829D01*
X83407927Y-78281000D01*
X83542073Y-78281000D01*
X83673640Y-78254829D01*
X83797574Y-78203494D01*
X83909112Y-78128967D01*
X83932079Y-78106000D01*
X85389931Y-78106000D01*
X85333412Y-78190587D01*
X85244386Y-78405515D01*
X85199000Y-78633682D01*
X85199000Y-78866318D01*
X85244386Y-79094485D01*
X85333412Y-79309413D01*
X85462658Y-79502843D01*
X85627157Y-79667342D01*
X85820587Y-79796588D01*
X86035515Y-79885614D01*
X86263682Y-79931000D01*
X86496318Y-79931000D01*
X86724485Y-79885614D01*
X86939413Y-79796588D01*
X87132843Y-79667342D01*
X87297342Y-79502843D01*
X87426588Y-79309413D01*
X87515614Y-79094485D01*
X87561000Y-78866318D01*
X87561000Y-78633682D01*
X87515614Y-78405515D01*
X87426588Y-78190587D01*
X87370069Y-78106000D01*
X88800152Y-78106000D01*
X88824998Y-78108447D01*
X88849844Y-78106000D01*
X88849852Y-78106000D01*
X88924191Y-78098678D01*
X89019573Y-78069745D01*
X89107477Y-78022759D01*
X89184525Y-77959527D01*
X89200167Y-77940468D01*
X89246033Y-78009112D01*
X89340888Y-78103967D01*
X89452426Y-78178494D01*
X89576360Y-78229829D01*
X89707927Y-78256000D01*
X89842073Y-78256000D01*
X89973640Y-78229829D01*
X90097574Y-78178494D01*
X90209112Y-78103967D01*
X90232079Y-78081000D01*
X93817915Y-78081000D01*
X93840882Y-78103967D01*
X93952420Y-78178494D01*
X94076354Y-78229829D01*
X94207921Y-78256000D01*
X94342067Y-78256000D01*
X94473634Y-78229829D01*
X94597568Y-78178494D01*
X94709106Y-78103967D01*
X94803961Y-78009112D01*
X94878488Y-77897574D01*
X94929823Y-77773640D01*
X94955994Y-77642073D01*
X94955994Y-77507927D01*
X94929823Y-77376360D01*
X94878488Y-77252426D01*
X94803961Y-77140888D01*
X94709106Y-77046033D01*
X94597568Y-76971506D01*
X94473634Y-76920171D01*
X94342067Y-76894000D01*
X94207921Y-76894000D01*
X94076354Y-76920171D01*
X93952420Y-76971506D01*
X93840882Y-77046033D01*
X93817915Y-77069000D01*
X90232079Y-77069000D01*
X90209112Y-77046033D01*
X90140441Y-77000148D01*
X98044590Y-69096000D01*
X100398408Y-69096000D01*
X99634780Y-69859629D01*
X99615474Y-69875473D01*
X99552242Y-69952521D01*
X99537378Y-69980329D01*
X99505255Y-70040426D01*
X99476322Y-70135808D01*
X99466553Y-70235000D01*
X99469001Y-70259856D01*
X99469000Y-76067921D01*
X99446033Y-76090888D01*
X99371506Y-76202426D01*
X99320171Y-76326360D01*
X99294000Y-76457927D01*
X99294000Y-76592073D01*
X99320171Y-76723640D01*
X99371506Y-76847574D01*
X99446033Y-76959112D01*
X99469001Y-76982080D01*
X99469000Y-87315408D01*
X89635408Y-97149001D01*
X87386773Y-97149001D01*
X87426588Y-97089413D01*
X87515614Y-96874485D01*
X87561000Y-96646318D01*
X87561000Y-96413682D01*
X87515614Y-96185515D01*
X87426588Y-95970587D01*
X87297342Y-95777157D01*
X87132843Y-95612658D01*
X86939413Y-95483412D01*
X86724485Y-95394386D01*
X86496318Y-95349000D01*
X86263682Y-95349000D01*
X86035515Y-95394386D01*
X85820587Y-95483412D01*
X85627157Y-95612658D01*
X85462658Y-95777157D01*
X85333412Y-95970587D01*
X85244386Y-96185515D01*
X85199000Y-96413682D01*
X85199000Y-96646318D01*
X85244386Y-96874485D01*
X85333412Y-97089413D01*
X85373227Y-97149001D01*
X82084593Y-97149001D01*
X80078283Y-95142692D01*
X80091383Y-95111067D01*
X80135000Y-94891788D01*
X80135000Y-94668212D01*
X80091383Y-94448933D01*
X80005824Y-94242376D01*
X79881612Y-94056480D01*
X79723520Y-93898388D01*
X79686545Y-93873682D01*
X85199000Y-93873682D01*
X85199000Y-94106318D01*
X85244386Y-94334485D01*
X85333412Y-94549413D01*
X85462658Y-94742843D01*
X85627157Y-94907342D01*
X85820587Y-95036588D01*
X86035515Y-95125614D01*
X86263682Y-95171000D01*
X86496318Y-95171000D01*
X86724485Y-95125614D01*
X86939413Y-95036588D01*
X87132843Y-94907342D01*
X87297342Y-94742843D01*
X87426588Y-94549413D01*
X87515614Y-94334485D01*
X87561000Y-94106318D01*
X87561000Y-93873682D01*
X87515614Y-93645515D01*
X87426588Y-93430587D01*
X87297342Y-93237157D01*
X87132843Y-93072658D01*
X86939413Y-92943412D01*
X86724485Y-92854386D01*
X86496318Y-92809000D01*
X86263682Y-92809000D01*
X86035515Y-92854386D01*
X85820587Y-92943412D01*
X85627157Y-93072658D01*
X85462658Y-93237157D01*
X85333412Y-93430587D01*
X85244386Y-93645515D01*
X85199000Y-93873682D01*
X79686545Y-93873682D01*
X79537624Y-93774176D01*
X79331067Y-93688617D01*
X79111788Y-93645000D01*
X78888212Y-93645000D01*
X78668933Y-93688617D01*
X78462376Y-93774176D01*
X78276480Y-93898388D01*
X78118388Y-94056480D01*
X77994176Y-94242376D01*
X77908617Y-94448933D01*
X77865000Y-94668212D01*
X50406000Y-94668212D01*
X50406000Y-68725000D01*
X50569000Y-68725000D01*
X50569000Y-85033780D01*
X50579521Y-85122699D01*
X50603987Y-85193267D01*
X50641750Y-85257706D01*
X56991750Y-93998926D01*
X57030592Y-94044408D01*
X57088328Y-94091790D01*
X57154198Y-94126998D01*
X57225671Y-94148679D01*
X57300000Y-94156000D01*
X74950000Y-94156000D01*
X75024329Y-94148679D01*
X75095802Y-94126998D01*
X75161672Y-94091790D01*
X75219408Y-94044408D01*
X75266790Y-93986672D01*
X75301998Y-93920802D01*
X75323679Y-93849329D01*
X75331000Y-93775000D01*
X75331000Y-92389291D01*
X78501748Y-92374746D01*
X78574707Y-92367354D01*
X78646158Y-92345601D01*
X78711992Y-92310326D01*
X78769680Y-92262885D01*
X78817004Y-92205102D01*
X78852145Y-92139197D01*
X78873754Y-92067702D01*
X78881000Y-91993365D01*
X78880334Y-91333682D01*
X85199000Y-91333682D01*
X85199000Y-91566318D01*
X85244386Y-91794485D01*
X85333412Y-92009413D01*
X85462658Y-92202843D01*
X85627157Y-92367342D01*
X85820587Y-92496588D01*
X86035515Y-92585614D01*
X86263682Y-92631000D01*
X86496318Y-92631000D01*
X86724485Y-92585614D01*
X86939413Y-92496588D01*
X87132843Y-92367342D01*
X87297342Y-92202843D01*
X87426588Y-92009413D01*
X87515614Y-91794485D01*
X87561000Y-91566318D01*
X87561000Y-91333682D01*
X87515614Y-91105515D01*
X87426588Y-90890587D01*
X87297342Y-90697157D01*
X87132843Y-90532658D01*
X86939413Y-90403412D01*
X86724485Y-90314386D01*
X86496318Y-90269000D01*
X86263682Y-90269000D01*
X86035515Y-90314386D01*
X85820587Y-90403412D01*
X85627157Y-90532658D01*
X85462658Y-90697157D01*
X85333412Y-90890587D01*
X85244386Y-91105515D01*
X85199000Y-91333682D01*
X78880334Y-91333682D01*
X78877769Y-88793682D01*
X85199000Y-88793682D01*
X85199000Y-89026318D01*
X85244386Y-89254485D01*
X85333412Y-89469413D01*
X85462658Y-89662843D01*
X85627157Y-89827342D01*
X85820587Y-89956588D01*
X86035515Y-90045614D01*
X86263682Y-90091000D01*
X86496318Y-90091000D01*
X86724485Y-90045614D01*
X86939413Y-89956588D01*
X87132843Y-89827342D01*
X87297342Y-89662843D01*
X87426588Y-89469413D01*
X87515614Y-89254485D01*
X87561000Y-89026318D01*
X87561000Y-88793682D01*
X87515614Y-88565515D01*
X87426588Y-88350587D01*
X87297342Y-88157157D01*
X87132843Y-87992658D01*
X86939413Y-87863412D01*
X86724485Y-87774386D01*
X86496318Y-87729000D01*
X86263682Y-87729000D01*
X86035515Y-87774386D01*
X85820587Y-87863412D01*
X85627157Y-87992658D01*
X85462658Y-88157157D01*
X85333412Y-88350587D01*
X85244386Y-88565515D01*
X85199000Y-88793682D01*
X78877769Y-88793682D01*
X78875204Y-86253682D01*
X85199000Y-86253682D01*
X85199000Y-86486318D01*
X85244386Y-86714485D01*
X85333412Y-86929413D01*
X85462658Y-87122843D01*
X85627157Y-87287342D01*
X85820587Y-87416588D01*
X86035515Y-87505614D01*
X86263682Y-87551000D01*
X86496318Y-87551000D01*
X86724485Y-87505614D01*
X86939413Y-87416588D01*
X87132843Y-87287342D01*
X87297342Y-87122843D01*
X87426588Y-86929413D01*
X87515614Y-86714485D01*
X87561000Y-86486318D01*
X87561000Y-86253682D01*
X87515614Y-86025515D01*
X87426588Y-85810587D01*
X87297342Y-85617157D01*
X87132843Y-85452658D01*
X86939413Y-85323412D01*
X86724485Y-85234386D01*
X86496318Y-85189000D01*
X86263682Y-85189000D01*
X86035515Y-85234386D01*
X85820587Y-85323412D01*
X85627157Y-85452658D01*
X85462658Y-85617157D01*
X85333412Y-85810587D01*
X85244386Y-86025515D01*
X85199000Y-86253682D01*
X78875204Y-86253682D01*
X78874046Y-85107927D01*
X80019000Y-85107927D01*
X80019000Y-85242073D01*
X80045171Y-85373640D01*
X80096506Y-85497574D01*
X80171033Y-85609112D01*
X80265888Y-85703967D01*
X80377426Y-85778494D01*
X80501360Y-85829829D01*
X80632927Y-85856000D01*
X80767073Y-85856000D01*
X80898640Y-85829829D01*
X81022574Y-85778494D01*
X81134112Y-85703967D01*
X81228967Y-85609112D01*
X81303494Y-85497574D01*
X81354829Y-85373640D01*
X81381000Y-85242073D01*
X81381000Y-85209591D01*
X82331420Y-84259172D01*
X82350727Y-84243327D01*
X82413959Y-84166279D01*
X82460945Y-84078375D01*
X82489878Y-83982993D01*
X82497200Y-83908654D01*
X82497200Y-83908653D01*
X82499648Y-83883800D01*
X82497200Y-83858946D01*
X82497200Y-83713682D01*
X85199000Y-83713682D01*
X85199000Y-83946318D01*
X85244386Y-84174485D01*
X85333412Y-84389413D01*
X85462658Y-84582843D01*
X85627157Y-84747342D01*
X85820587Y-84876588D01*
X86035515Y-84965614D01*
X86263682Y-85011000D01*
X86496318Y-85011000D01*
X86724485Y-84965614D01*
X86939413Y-84876588D01*
X87132843Y-84747342D01*
X87297342Y-84582843D01*
X87426588Y-84389413D01*
X87515614Y-84174485D01*
X87561000Y-83946318D01*
X87561000Y-83713682D01*
X87515614Y-83485515D01*
X87426588Y-83270587D01*
X87297342Y-83077157D01*
X87132843Y-82912658D01*
X86939413Y-82783412D01*
X86724485Y-82694386D01*
X86496318Y-82649000D01*
X86263682Y-82649000D01*
X86035515Y-82694386D01*
X85820587Y-82783412D01*
X85627157Y-82912658D01*
X85462658Y-83077157D01*
X85333412Y-83270587D01*
X85244386Y-83485515D01*
X85199000Y-83713682D01*
X82497200Y-83713682D01*
X82497200Y-81173682D01*
X85199000Y-81173682D01*
X85199000Y-81406318D01*
X85244386Y-81634485D01*
X85333412Y-81849413D01*
X85462658Y-82042843D01*
X85627157Y-82207342D01*
X85820587Y-82336588D01*
X86035515Y-82425614D01*
X86263682Y-82471000D01*
X86496318Y-82471000D01*
X86724485Y-82425614D01*
X86939413Y-82336588D01*
X87132843Y-82207342D01*
X87297342Y-82042843D01*
X87426588Y-81849413D01*
X87515614Y-81634485D01*
X87561000Y-81406318D01*
X87561000Y-81173682D01*
X87515614Y-80945515D01*
X87426588Y-80730587D01*
X87297342Y-80537157D01*
X87132843Y-80372658D01*
X86939413Y-80243412D01*
X86724485Y-80154386D01*
X86496318Y-80109000D01*
X86263682Y-80109000D01*
X86035515Y-80154386D01*
X85820587Y-80243412D01*
X85627157Y-80372658D01*
X85462658Y-80537157D01*
X85333412Y-80730587D01*
X85244386Y-80945515D01*
X85199000Y-81173682D01*
X82497200Y-81173682D01*
X82497200Y-75728391D01*
X84671909Y-73553682D01*
X85199000Y-73553682D01*
X85199000Y-73786318D01*
X85244386Y-74014485D01*
X85333412Y-74229413D01*
X85462658Y-74422843D01*
X85627157Y-74587342D01*
X85820587Y-74716588D01*
X86035515Y-74805614D01*
X86263682Y-74851000D01*
X86496318Y-74851000D01*
X86724485Y-74805614D01*
X86939413Y-74716588D01*
X87132843Y-74587342D01*
X87297342Y-74422843D01*
X87426588Y-74229413D01*
X87515614Y-74014485D01*
X87561000Y-73786318D01*
X87561000Y-73553682D01*
X87515614Y-73325515D01*
X87426588Y-73110587D01*
X87297342Y-72917157D01*
X87132843Y-72752658D01*
X86939413Y-72623412D01*
X86724485Y-72534386D01*
X86496318Y-72489000D01*
X86263682Y-72489000D01*
X86035515Y-72534386D01*
X85820587Y-72623412D01*
X85627157Y-72752658D01*
X85462658Y-72917157D01*
X85333412Y-73110587D01*
X85244386Y-73325515D01*
X85199000Y-73553682D01*
X84671909Y-73553682D01*
X85955371Y-72270221D01*
X85955375Y-72270216D01*
X85982102Y-72243489D01*
X86035515Y-72265614D01*
X86263682Y-72311000D01*
X86496318Y-72311000D01*
X86724485Y-72265614D01*
X86939413Y-72176588D01*
X87132843Y-72047342D01*
X87297342Y-71882843D01*
X87426588Y-71689413D01*
X87515614Y-71474485D01*
X87561000Y-71246318D01*
X87561000Y-71013682D01*
X87515614Y-70785515D01*
X87426588Y-70570587D01*
X87297342Y-70377157D01*
X87132843Y-70212658D01*
X86939413Y-70083412D01*
X86724485Y-69994386D01*
X86710763Y-69991657D01*
X86730130Y-69988787D01*
X86996292Y-69893603D01*
X87121514Y-69826671D01*
X87193097Y-69582702D01*
X86380000Y-68769605D01*
X85566903Y-69582702D01*
X85638486Y-69826671D01*
X85893996Y-69947571D01*
X86060741Y-69989368D01*
X86035515Y-69994386D01*
X85820587Y-70083412D01*
X85627157Y-70212658D01*
X85462658Y-70377157D01*
X85333412Y-70570587D01*
X85244386Y-70785515D01*
X85199000Y-71013682D01*
X85199000Y-71246318D01*
X85244386Y-71474485D01*
X85266511Y-71527898D01*
X85239784Y-71554625D01*
X85239779Y-71554629D01*
X81650981Y-75143428D01*
X81631674Y-75159273D01*
X81568442Y-75236321D01*
X81563252Y-75246031D01*
X81521455Y-75324226D01*
X81492522Y-75419608D01*
X81482753Y-75518800D01*
X81485201Y-75543656D01*
X81485200Y-83674208D01*
X80665409Y-84494000D01*
X80632927Y-84494000D01*
X80501360Y-84520171D01*
X80377426Y-84571506D01*
X80265888Y-84646033D01*
X80171033Y-84740888D01*
X80096506Y-84852426D01*
X80045171Y-84976360D01*
X80019000Y-85107927D01*
X78874046Y-85107927D01*
X78868500Y-79618365D01*
X78860834Y-79542707D01*
X78838826Y-79471334D01*
X78803316Y-79405627D01*
X78755669Y-79348109D01*
X78697717Y-79300992D01*
X78631686Y-79266087D01*
X78560115Y-79244734D01*
X78485752Y-79237754D01*
X75331000Y-79252225D01*
X75331000Y-77675000D01*
X75326038Y-77613711D01*
X75306856Y-77541527D01*
X75273960Y-77474473D01*
X75228614Y-77415124D01*
X75172561Y-77365763D01*
X64647489Y-69790763D01*
X64564861Y-69745628D01*
X64493038Y-69725137D01*
X64418597Y-69719053D01*
X62131940Y-69757054D01*
X62140571Y-68660512D01*
X84939783Y-68660512D01*
X84981213Y-68940130D01*
X85076397Y-69206292D01*
X85143329Y-69331514D01*
X85387298Y-69403097D01*
X86200395Y-68590000D01*
X86559605Y-68590000D01*
X87372702Y-69403097D01*
X87616671Y-69331514D01*
X87737571Y-69076004D01*
X87806300Y-68801816D01*
X87820217Y-68519488D01*
X87778787Y-68239870D01*
X87683603Y-67973708D01*
X87616671Y-67848486D01*
X87372702Y-67776903D01*
X86559605Y-68590000D01*
X86200395Y-68590000D01*
X85387298Y-67776903D01*
X85143329Y-67848486D01*
X85022429Y-68103996D01*
X84953700Y-68378184D01*
X84939783Y-68660512D01*
X62140571Y-68660512D01*
X62156178Y-66677999D01*
X62149066Y-66601669D01*
X62127576Y-66530138D01*
X62092544Y-66464174D01*
X62045316Y-66406313D01*
X61575203Y-65933682D01*
X85199000Y-65933682D01*
X85199000Y-66166318D01*
X85244386Y-66394485D01*
X85333412Y-66609413D01*
X85462658Y-66802843D01*
X85627157Y-66967342D01*
X85820587Y-67096588D01*
X86035515Y-67185614D01*
X86049237Y-67188343D01*
X86029870Y-67191213D01*
X85763708Y-67286397D01*
X85638486Y-67353329D01*
X85566903Y-67597298D01*
X86380000Y-68410395D01*
X87193097Y-67597298D01*
X87121514Y-67353329D01*
X86866004Y-67232429D01*
X86699259Y-67190632D01*
X86724485Y-67185614D01*
X86939413Y-67096588D01*
X87132843Y-66967342D01*
X87297342Y-66802843D01*
X87426588Y-66609413D01*
X87515614Y-66394485D01*
X87561000Y-66166318D01*
X87561000Y-65933682D01*
X100439000Y-65933682D01*
X100439000Y-66166318D01*
X100484386Y-66394485D01*
X100573412Y-66609413D01*
X100702658Y-66802843D01*
X100867157Y-66967342D01*
X101060587Y-67096588D01*
X101275515Y-67185614D01*
X101503682Y-67231000D01*
X101736318Y-67231000D01*
X101964485Y-67185614D01*
X102179413Y-67096588D01*
X102372843Y-66967342D01*
X102537342Y-66802843D01*
X102666588Y-66609413D01*
X102755614Y-66394485D01*
X102801000Y-66166318D01*
X102801000Y-65933682D01*
X102755614Y-65705515D01*
X102666588Y-65490587D01*
X102537342Y-65297157D01*
X102372843Y-65132658D01*
X102179413Y-65003412D01*
X101964485Y-64914386D01*
X101950763Y-64911657D01*
X101970130Y-64908787D01*
X102236292Y-64813603D01*
X102361514Y-64746671D01*
X102433097Y-64502702D01*
X101620000Y-63689605D01*
X100806903Y-64502702D01*
X100878486Y-64746671D01*
X101133996Y-64867571D01*
X101300741Y-64909368D01*
X101275515Y-64914386D01*
X101060587Y-65003412D01*
X100867157Y-65132658D01*
X100702658Y-65297157D01*
X100573412Y-65490587D01*
X100484386Y-65705515D01*
X100439000Y-65933682D01*
X87561000Y-65933682D01*
X87515614Y-65705515D01*
X87426588Y-65490587D01*
X87297342Y-65297157D01*
X87132843Y-65132658D01*
X86939413Y-65003412D01*
X86724485Y-64914386D01*
X86496318Y-64869000D01*
X86263682Y-64869000D01*
X86035515Y-64914386D01*
X85820587Y-65003412D01*
X85627157Y-65132658D01*
X85462658Y-65297157D01*
X85333412Y-65490587D01*
X85244386Y-65705515D01*
X85199000Y-65933682D01*
X61575203Y-65933682D01*
X61095126Y-65451035D01*
X61036824Y-65403033D01*
X60970971Y-65367794D01*
X60899508Y-65346078D01*
X60825182Y-65338722D01*
X53500182Y-65335221D01*
X53395186Y-65349922D01*
X53325739Y-65377408D01*
X53262988Y-65417915D01*
X53209346Y-65469886D01*
X50659346Y-68478665D01*
X50633210Y-68513328D01*
X50598002Y-68579198D01*
X50576321Y-68650671D01*
X50569000Y-68725000D01*
X50406000Y-68725000D01*
X50406000Y-63393682D01*
X85199000Y-63393682D01*
X85199000Y-63626318D01*
X85244386Y-63854485D01*
X85333412Y-64069413D01*
X85462658Y-64262843D01*
X85627157Y-64427342D01*
X85820587Y-64556588D01*
X86035515Y-64645614D01*
X86263682Y-64691000D01*
X86496318Y-64691000D01*
X86724485Y-64645614D01*
X86939413Y-64556588D01*
X87132843Y-64427342D01*
X87297342Y-64262843D01*
X87426588Y-64069413D01*
X87515614Y-63854485D01*
X87561000Y-63626318D01*
X87561000Y-63580512D01*
X100179783Y-63580512D01*
X100221213Y-63860130D01*
X100316397Y-64126292D01*
X100383329Y-64251514D01*
X100627298Y-64323097D01*
X101440395Y-63510000D01*
X101799605Y-63510000D01*
X102612702Y-64323097D01*
X102856671Y-64251514D01*
X102977571Y-63996004D01*
X103046300Y-63721816D01*
X103060217Y-63439488D01*
X103018787Y-63159870D01*
X102923603Y-62893708D01*
X102856671Y-62768486D01*
X102612702Y-62696903D01*
X101799605Y-63510000D01*
X101440395Y-63510000D01*
X100627298Y-62696903D01*
X100383329Y-62768486D01*
X100262429Y-63023996D01*
X100193700Y-63298184D01*
X100179783Y-63580512D01*
X87561000Y-63580512D01*
X87561000Y-63393682D01*
X87515614Y-63165515D01*
X87426588Y-62950587D01*
X87297342Y-62757157D01*
X87132843Y-62592658D01*
X86939413Y-62463412D01*
X86724485Y-62374386D01*
X86496318Y-62329000D01*
X86263682Y-62329000D01*
X86035515Y-62374386D01*
X85820587Y-62463412D01*
X85627157Y-62592658D01*
X85462658Y-62757157D01*
X85333412Y-62950587D01*
X85244386Y-63165515D01*
X85199000Y-63393682D01*
X50406000Y-63393682D01*
X50406000Y-60170000D01*
X85197157Y-60170000D01*
X85197157Y-61770000D01*
X85204513Y-61844689D01*
X85226299Y-61916508D01*
X85261678Y-61982696D01*
X85309289Y-62040711D01*
X85367304Y-62088322D01*
X85433492Y-62123701D01*
X85505311Y-62145487D01*
X85580000Y-62152843D01*
X87180000Y-62152843D01*
X87254689Y-62145487D01*
X87326508Y-62123701D01*
X87392696Y-62088322D01*
X87450711Y-62040711D01*
X87498322Y-61982696D01*
X87533701Y-61916508D01*
X87555487Y-61844689D01*
X87562843Y-61770000D01*
X87562843Y-60170000D01*
X100437157Y-60170000D01*
X100437157Y-61770000D01*
X100444513Y-61844689D01*
X100466299Y-61916508D01*
X100501678Y-61982696D01*
X100549289Y-62040711D01*
X100607304Y-62088322D01*
X100673492Y-62123701D01*
X100745311Y-62145487D01*
X100820000Y-62152843D01*
X101153460Y-62152843D01*
X101003708Y-62206397D01*
X100878486Y-62273329D01*
X100806903Y-62517298D01*
X101620000Y-63330395D01*
X102433097Y-62517298D01*
X102361514Y-62273329D01*
X102106879Y-62152843D01*
X102420000Y-62152843D01*
X102494689Y-62145487D01*
X102566508Y-62123701D01*
X102632696Y-62088322D01*
X102690711Y-62040711D01*
X102738322Y-61982696D01*
X102773701Y-61916508D01*
X102795487Y-61844689D01*
X102802843Y-61770000D01*
X102802843Y-60170000D01*
X102795487Y-60095311D01*
X102773701Y-60023492D01*
X102738322Y-59957304D01*
X102690711Y-59899289D01*
X102632696Y-59851678D01*
X102566508Y-59816299D01*
X102494689Y-59794513D01*
X102420000Y-59787157D01*
X100820000Y-59787157D01*
X100745311Y-59794513D01*
X100673492Y-59816299D01*
X100607304Y-59851678D01*
X100549289Y-59899289D01*
X100501678Y-59957304D01*
X100466299Y-60023492D01*
X100444513Y-60095311D01*
X100437157Y-60170000D01*
X87562843Y-60170000D01*
X87555487Y-60095311D01*
X87533701Y-60023492D01*
X87498322Y-59957304D01*
X87450711Y-59899289D01*
X87392696Y-59851678D01*
X87326508Y-59816299D01*
X87254689Y-59794513D01*
X87180000Y-59787157D01*
X85580000Y-59787157D01*
X85505311Y-59794513D01*
X85433492Y-59816299D01*
X85367304Y-59851678D01*
X85309289Y-59899289D01*
X85261678Y-59957304D01*
X85226299Y-60023492D01*
X85204513Y-60095311D01*
X85197157Y-60170000D01*
X50406000Y-60170000D01*
X50406000Y-59695196D01*
X115574000Y-59695196D01*
X115574000Y-61354803D01*
X115594561Y-61563564D01*
X115675816Y-61831423D01*
X115807765Y-62078284D01*
X115985340Y-62294659D01*
X116201715Y-62472235D01*
X116448576Y-62604184D01*
X116716435Y-62685439D01*
X116995000Y-62712875D01*
X117273564Y-62685439D01*
X117541423Y-62604184D01*
X117788284Y-62472235D01*
X117967689Y-62325000D01*
X120396928Y-62325000D01*
X120409188Y-62449482D01*
X120445498Y-62569180D01*
X120504463Y-62679494D01*
X120583815Y-62776185D01*
X120680506Y-62855537D01*
X120790820Y-62914502D01*
X120910518Y-62950812D01*
X121035000Y-62963072D01*
X121789250Y-62960000D01*
X121948000Y-62801250D01*
X121948000Y-60652000D01*
X122202000Y-60652000D01*
X122202000Y-62801250D01*
X122360750Y-62960000D01*
X123115000Y-62963072D01*
X123239482Y-62950812D01*
X123359180Y-62914502D01*
X123469494Y-62855537D01*
X123566185Y-62776185D01*
X123645537Y-62679494D01*
X123704502Y-62569180D01*
X123740812Y-62449482D01*
X123753072Y-62325000D01*
X123750000Y-60810750D01*
X123591250Y-60652000D01*
X122202000Y-60652000D01*
X121948000Y-60652000D01*
X120558750Y-60652000D01*
X120400000Y-60810750D01*
X120396928Y-62325000D01*
X117967689Y-62325000D01*
X118004659Y-62294660D01*
X118182235Y-62078285D01*
X118314184Y-61831424D01*
X118395439Y-61563565D01*
X118416000Y-61354804D01*
X118416000Y-59695196D01*
X118395439Y-59486435D01*
X118314184Y-59218576D01*
X118182235Y-58971715D01*
X118004660Y-58755340D01*
X117967691Y-58725000D01*
X120396928Y-58725000D01*
X120400000Y-60239250D01*
X120558750Y-60398000D01*
X121948000Y-60398000D01*
X121948000Y-58248750D01*
X122202000Y-58248750D01*
X122202000Y-60398000D01*
X123591250Y-60398000D01*
X123750000Y-60239250D01*
X123753072Y-58725000D01*
X123740812Y-58600518D01*
X123704502Y-58480820D01*
X123645537Y-58370506D01*
X123566185Y-58273815D01*
X123469494Y-58194463D01*
X123359180Y-58135498D01*
X123239482Y-58099188D01*
X123115000Y-58086928D01*
X122360750Y-58090000D01*
X122202000Y-58248750D01*
X121948000Y-58248750D01*
X121789250Y-58090000D01*
X121035000Y-58086928D01*
X120910518Y-58099188D01*
X120790820Y-58135498D01*
X120680506Y-58194463D01*
X120583815Y-58273815D01*
X120504463Y-58370506D01*
X120445498Y-58480820D01*
X120409188Y-58600518D01*
X120396928Y-58725000D01*
X117967691Y-58725000D01*
X117788285Y-58577765D01*
X117541424Y-58445816D01*
X117273565Y-58364561D01*
X116995000Y-58337125D01*
X116716436Y-58364561D01*
X116448577Y-58445816D01*
X116201716Y-58577765D01*
X115985341Y-58755340D01*
X115807766Y-58971715D01*
X115675817Y-59218576D01*
X115594561Y-59486435D01*
X115574000Y-59695196D01*
X50406000Y-59695196D01*
X50406000Y-55315132D01*
X50718456Y-55782754D01*
X51217246Y-56281544D01*
X51803760Y-56673441D01*
X52455461Y-56943384D01*
X53147302Y-57081000D01*
X53852698Y-57081000D01*
X54544539Y-56943384D01*
X55196240Y-56673441D01*
X55782754Y-56281544D01*
X56281544Y-55782754D01*
X56673441Y-55196240D01*
X56943384Y-54544539D01*
X57081000Y-53852698D01*
X57081000Y-53147302D01*
X56943384Y-52455461D01*
X56673441Y-51803760D01*
X56281544Y-51217246D01*
X55782754Y-50718456D01*
X55315132Y-50406000D01*
X132684868Y-50406000D01*
X132217246Y-50718456D01*
X132217246Y-50718456D01*
G37*
X132217246Y-50718456D02*
X131718456Y-51217246D01*
X131326559Y-51803760D01*
X131056616Y-52455461D01*
X130919000Y-53147302D01*
X130919000Y-53852698D01*
X131056616Y-54544539D01*
X131326559Y-55196240D01*
X131718456Y-55782754D01*
X132217246Y-56281544D01*
X132803760Y-56673441D01*
X133455461Y-56943384D01*
X134147302Y-57081000D01*
X134852698Y-57081000D01*
X135544539Y-56943384D01*
X136196240Y-56673441D01*
X136782754Y-56281544D01*
X137281544Y-55782754D01*
X137594000Y-55315132D01*
X137594001Y-99684870D01*
X137281544Y-99217246D01*
X136782754Y-98718456D01*
X136196240Y-98326559D01*
X135544539Y-98056616D01*
X134852698Y-97919000D01*
X134147302Y-97919000D01*
X133455461Y-98056616D01*
X132803760Y-98326559D01*
X132217246Y-98718456D01*
X131718456Y-99217246D01*
X131326559Y-99803760D01*
X131056616Y-100455461D01*
X130919000Y-101147302D01*
X130919000Y-101852698D01*
X131056616Y-102544539D01*
X131326559Y-103196240D01*
X131718456Y-103782754D01*
X132217246Y-104281544D01*
X132684868Y-104594000D01*
X55315132Y-104594000D01*
X55782754Y-104281544D01*
X56281544Y-103782754D01*
X56673441Y-103196240D01*
X56943384Y-102544539D01*
X57081000Y-101852698D01*
X57081000Y-101646000D01*
X77863157Y-101646000D01*
X77863157Y-103154000D01*
X77870513Y-103228689D01*
X77892299Y-103300508D01*
X77927678Y-103366696D01*
X77975289Y-103424711D01*
X78033304Y-103472322D01*
X78099492Y-103507701D01*
X78171311Y-103529487D01*
X78246000Y-103536843D01*
X79754000Y-103536843D01*
X79828689Y-103529487D01*
X79900508Y-103507701D01*
X79966696Y-103472322D01*
X80024711Y-103424711D01*
X80072322Y-103366696D01*
X80107701Y-103300508D01*
X80129487Y-103228689D01*
X80136843Y-103154000D01*
X80136843Y-101646000D01*
X80129487Y-101571311D01*
X80107701Y-101499492D01*
X80072322Y-101433304D01*
X80024711Y-101375289D01*
X79966696Y-101327678D01*
X79900508Y-101292299D01*
X79828689Y-101270513D01*
X79754000Y-101263157D01*
X78246000Y-101263157D01*
X78171311Y-101270513D01*
X78099492Y-101292299D01*
X78033304Y-101327678D01*
X77975289Y-101375289D01*
X77927678Y-101433304D01*
X77892299Y-101499492D01*
X77870513Y-101571311D01*
X77863157Y-101646000D01*
X57081000Y-101646000D01*
X57081000Y-101147302D01*
X56943384Y-100455461D01*
X56673441Y-99803760D01*
X56636325Y-99748212D01*
X77865000Y-99748212D01*
X77865000Y-99971788D01*
X77908617Y-100191067D01*
X77994176Y-100397624D01*
X78118388Y-100583520D01*
X78276480Y-100741612D01*
X78462376Y-100865824D01*
X78668933Y-100951383D01*
X78888212Y-100995000D01*
X79111788Y-100995000D01*
X79331067Y-100951383D01*
X79537624Y-100865824D01*
X79723520Y-100741612D01*
X79881612Y-100583520D01*
X80005824Y-100397624D01*
X80091383Y-100191067D01*
X80135000Y-99971788D01*
X80135000Y-99748212D01*
X80091383Y-99528933D01*
X80005824Y-99322376D01*
X79881612Y-99136480D01*
X79723520Y-98978388D01*
X79537624Y-98854176D01*
X79331067Y-98768617D01*
X79111788Y-98725000D01*
X78888212Y-98725000D01*
X78668933Y-98768617D01*
X78462376Y-98854176D01*
X78276480Y-98978388D01*
X78118388Y-99136480D01*
X77994176Y-99322376D01*
X77908617Y-99528933D01*
X77865000Y-99748212D01*
X56636325Y-99748212D01*
X56281544Y-99217246D01*
X55782754Y-98718456D01*
X55196240Y-98326559D01*
X55083477Y-98279851D01*
X78219754Y-98279851D01*
X78285765Y-98519127D01*
X78533426Y-98635426D01*
X78799018Y-98701174D01*
X79072334Y-98713845D01*
X79342870Y-98672951D01*
X79600229Y-98580063D01*
X79714235Y-98519127D01*
X79780246Y-98279851D01*
X79000000Y-97499605D01*
X78219754Y-98279851D01*
X55083477Y-98279851D01*
X54544539Y-98056616D01*
X53852698Y-97919000D01*
X53147302Y-97919000D01*
X52455461Y-98056616D01*
X51803760Y-98326559D01*
X51217246Y-98718456D01*
X50718456Y-99217246D01*
X50406000Y-99684868D01*
X50406000Y-97392334D01*
X77606155Y-97392334D01*
X77647049Y-97662870D01*
X77739937Y-97920229D01*
X77800873Y-98034235D01*
X78040149Y-98100246D01*
X78820395Y-97320000D01*
X78040149Y-96539754D01*
X77800873Y-96605765D01*
X77684574Y-96853426D01*
X77618826Y-97119018D01*
X77606155Y-97392334D01*
X50406000Y-97392334D01*
X50406000Y-94668212D01*
X77865000Y-94668212D01*
X77865000Y-94891788D01*
X77908617Y-95111067D01*
X77994176Y-95317624D01*
X78118388Y-95503520D01*
X78276480Y-95661612D01*
X78462376Y-95785824D01*
X78668933Y-95871383D01*
X78888212Y-95915000D01*
X79111788Y-95915000D01*
X79331067Y-95871383D01*
X79362692Y-95858283D01*
X79546528Y-96042120D01*
X79466574Y-96004574D01*
X79200982Y-95938826D01*
X78927666Y-95926155D01*
X78657130Y-95967049D01*
X78399771Y-96059937D01*
X78285765Y-96120873D01*
X78219754Y-96360149D01*
X79000000Y-97140395D01*
X79014143Y-97126253D01*
X79193748Y-97305858D01*
X79179605Y-97320000D01*
X79959851Y-98100246D01*
X80199127Y-98034235D01*
X80315426Y-97786574D01*
X80381174Y-97520982D01*
X80393845Y-97247666D01*
X80352951Y-96977130D01*
X80280329Y-96775920D01*
X81499629Y-97995221D01*
X81515474Y-98014528D01*
X81592522Y-98077760D01*
X81680426Y-98124746D01*
X81753608Y-98146945D01*
X81775807Y-98153679D01*
X81785695Y-98154653D01*
X81850147Y-98161001D01*
X81850154Y-98161001D01*
X81875000Y-98163448D01*
X81899846Y-98161001D01*
X89820153Y-98161001D01*
X89844999Y-98163448D01*
X89869845Y-98161001D01*
X89869853Y-98161001D01*
X89944192Y-98153679D01*
X90039574Y-98124746D01*
X90127478Y-98077760D01*
X90204526Y-98014528D01*
X90220375Y-97995216D01*
X99469001Y-88746591D01*
X99469000Y-96525156D01*
X99466553Y-96550002D01*
X99469000Y-96574848D01*
X99469000Y-96574855D01*
X99476322Y-96649194D01*
X99505255Y-96744576D01*
X99552241Y-96832481D01*
X99615473Y-96909529D01*
X99634785Y-96925378D01*
X105469626Y-102760220D01*
X105485471Y-102779527D01*
X105562519Y-102842759D01*
X105650423Y-102889745D01*
X105745805Y-102918678D01*
X105844998Y-102928448D01*
X105869852Y-102926000D01*
X107981077Y-102926000D01*
X107994176Y-102957624D01*
X108118388Y-103143520D01*
X108276480Y-103301612D01*
X108462376Y-103425824D01*
X108668933Y-103511383D01*
X108888212Y-103555000D01*
X109111788Y-103555000D01*
X109331067Y-103511383D01*
X109537624Y-103425824D01*
X109723520Y-103301612D01*
X109881612Y-103143520D01*
X110005824Y-102957624D01*
X110091383Y-102751067D01*
X110135000Y-102531788D01*
X110135000Y-102308212D01*
X110091383Y-102088933D01*
X110005824Y-101882376D01*
X109881612Y-101696480D01*
X109723520Y-101538388D01*
X109537624Y-101414176D01*
X109331067Y-101328617D01*
X109111788Y-101285000D01*
X108888212Y-101285000D01*
X108668933Y-101328617D01*
X108462376Y-101414176D01*
X108276480Y-101538388D01*
X108118388Y-101696480D01*
X107994176Y-101882376D01*
X107981077Y-101914000D01*
X106054590Y-101914000D01*
X104980441Y-100839851D01*
X108219754Y-100839851D01*
X108285765Y-101079127D01*
X108533426Y-101195426D01*
X108799018Y-101261174D01*
X109072334Y-101273845D01*
X109342870Y-101232951D01*
X109600229Y-101140063D01*
X109714235Y-101079127D01*
X109780246Y-100839851D01*
X109000000Y-100059605D01*
X108219754Y-100839851D01*
X104980441Y-100839851D01*
X104092924Y-99952334D01*
X107606155Y-99952334D01*
X107647049Y-100222870D01*
X107739937Y-100480229D01*
X107800873Y-100594235D01*
X108040149Y-100660246D01*
X108820395Y-99880000D01*
X109179605Y-99880000D01*
X109959851Y-100660246D01*
X110199127Y-100594235D01*
X110315426Y-100346574D01*
X110381174Y-100080982D01*
X110393845Y-99807666D01*
X110352951Y-99537130D01*
X110260063Y-99279771D01*
X110199127Y-99165765D01*
X109959851Y-99099754D01*
X109179605Y-99880000D01*
X108820395Y-99880000D01*
X108040149Y-99099754D01*
X107800873Y-99165765D01*
X107684574Y-99413426D01*
X107618826Y-99679018D01*
X107606155Y-99952334D01*
X104092924Y-99952334D01*
X103060739Y-98920149D01*
X108219754Y-98920149D01*
X109000000Y-99700395D01*
X109780246Y-98920149D01*
X109714235Y-98680873D01*
X109466574Y-98564574D01*
X109200982Y-98498826D01*
X108927666Y-98486155D01*
X108657130Y-98527049D01*
X108399771Y-98619937D01*
X108285765Y-98680873D01*
X108219754Y-98920149D01*
X103060739Y-98920149D01*
X101832464Y-97691875D01*
X101964485Y-97665614D01*
X102179413Y-97576588D01*
X102372843Y-97447342D01*
X102537342Y-97282843D01*
X102666588Y-97089413D01*
X102755614Y-96874485D01*
X102801000Y-96646318D01*
X102801000Y-96413682D01*
X102755614Y-96185515D01*
X102666588Y-95970587D01*
X102537342Y-95777157D01*
X102372843Y-95612658D01*
X102179413Y-95483412D01*
X101964485Y-95394386D01*
X101736318Y-95349000D01*
X101503682Y-95349000D01*
X101275515Y-95394386D01*
X101060587Y-95483412D01*
X100867157Y-95612658D01*
X100702658Y-95777157D01*
X100573412Y-95970587D01*
X100484386Y-96185515D01*
X100481000Y-96202537D01*
X100481000Y-94317463D01*
X100484386Y-94334485D01*
X100573412Y-94549413D01*
X100702658Y-94742843D01*
X100867157Y-94907342D01*
X101060587Y-95036588D01*
X101275515Y-95125614D01*
X101503682Y-95171000D01*
X101736318Y-95171000D01*
X101964485Y-95125614D01*
X102179413Y-95036588D01*
X102372843Y-94907342D01*
X102537342Y-94742843D01*
X102666588Y-94549413D01*
X102755614Y-94334485D01*
X102801000Y-94106318D01*
X102801000Y-93873682D01*
X102755614Y-93645515D01*
X102666588Y-93430587D01*
X102537342Y-93237157D01*
X102372843Y-93072658D01*
X102179413Y-92943412D01*
X101964485Y-92854386D01*
X101736318Y-92809000D01*
X101503682Y-92809000D01*
X101275515Y-92854386D01*
X101060587Y-92943412D01*
X100867157Y-93072658D01*
X100702658Y-93237157D01*
X100573412Y-93430587D01*
X100484386Y-93645515D01*
X100481000Y-93662537D01*
X100481000Y-91777463D01*
X100484386Y-91794485D01*
X100573412Y-92009413D01*
X100702658Y-92202843D01*
X100867157Y-92367342D01*
X101060587Y-92496588D01*
X101275515Y-92585614D01*
X101503682Y-92631000D01*
X101736318Y-92631000D01*
X101964485Y-92585614D01*
X102179413Y-92496588D01*
X102372843Y-92367342D01*
X102537342Y-92202843D01*
X102666588Y-92009413D01*
X102750717Y-91806308D01*
X107921716Y-96977308D01*
X107908617Y-97008933D01*
X107865000Y-97228212D01*
X107865000Y-97451788D01*
X107908617Y-97671067D01*
X107994176Y-97877624D01*
X108118388Y-98063520D01*
X108276480Y-98221612D01*
X108462376Y-98345824D01*
X108668933Y-98431383D01*
X108888212Y-98475000D01*
X109111788Y-98475000D01*
X109331067Y-98431383D01*
X109537624Y-98345824D01*
X109723520Y-98221612D01*
X109881612Y-98063520D01*
X110005824Y-97877624D01*
X110091383Y-97671067D01*
X110135000Y-97451788D01*
X110135000Y-97228212D01*
X110091383Y-97008933D01*
X110005824Y-96802376D01*
X109881612Y-96616480D01*
X109723520Y-96458388D01*
X109537624Y-96334176D01*
X109331067Y-96248617D01*
X109111788Y-96205000D01*
X108888212Y-96205000D01*
X108668933Y-96248617D01*
X108637308Y-96261716D01*
X108312435Y-95936843D01*
X109754000Y-95936843D01*
X109828689Y-95929487D01*
X109900508Y-95907701D01*
X109966696Y-95872322D01*
X110024711Y-95824711D01*
X110072322Y-95766696D01*
X110107701Y-95700508D01*
X110129487Y-95628689D01*
X110136843Y-95554000D01*
X110136843Y-94046000D01*
X110129487Y-93971311D01*
X110107701Y-93899492D01*
X110072322Y-93833304D01*
X110024711Y-93775289D01*
X109966696Y-93727678D01*
X109900508Y-93692299D01*
X109828689Y-93670513D01*
X109754000Y-93663157D01*
X108578749Y-93663157D01*
X104848529Y-89932937D01*
X107119010Y-89932937D01*
X107119010Y-90067083D01*
X107145181Y-90198650D01*
X107196516Y-90322584D01*
X107271043Y-90434122D01*
X107365898Y-90528977D01*
X107477436Y-90603504D01*
X107601370Y-90654839D01*
X107732937Y-90681010D01*
X107867083Y-90681010D01*
X107998650Y-90654839D01*
X108122584Y-90603504D01*
X108234122Y-90528977D01*
X108328977Y-90434122D01*
X108403504Y-90322584D01*
X108454839Y-90198650D01*
X108481010Y-90067083D01*
X108481010Y-90034601D01*
X108840254Y-89675358D01*
X108859561Y-89659513D01*
X108922793Y-89582465D01*
X108969779Y-89494561D01*
X108998712Y-89399179D01*
X109006034Y-89324840D01*
X109008482Y-89299986D01*
X109006034Y-89275132D01*
X109006034Y-79593750D01*
X109119000Y-79593750D01*
X109119000Y-91993750D01*
X109125984Y-92066365D01*
X109147337Y-92137936D01*
X109182242Y-92203967D01*
X109229359Y-92261919D01*
X109286877Y-92309566D01*
X109352584Y-92345076D01*
X109423957Y-92367084D01*
X109498252Y-92374746D01*
X112669000Y-92389291D01*
X112669000Y-93775000D01*
X112676321Y-93849329D01*
X112698002Y-93920802D01*
X112733210Y-93986672D01*
X112780592Y-94044408D01*
X112838328Y-94091790D01*
X112904198Y-94126998D01*
X112975671Y-94148679D01*
X113050000Y-94156000D01*
X130700000Y-94156000D01*
X130759626Y-94151305D01*
X130831894Y-94132442D01*
X130899093Y-94099843D01*
X130958641Y-94054760D01*
X131008250Y-93998926D01*
X137358250Y-85257706D01*
X137401998Y-85179582D01*
X137423679Y-85108109D01*
X137431000Y-85033780D01*
X137431000Y-68725000D01*
X137428527Y-68681659D01*
X137412798Y-68608644D01*
X137383127Y-68540102D01*
X137340654Y-68478665D01*
X134790654Y-65469886D01*
X134711521Y-65399330D01*
X134645634Y-65364153D01*
X134574151Y-65342506D01*
X134499818Y-65335221D01*
X127174818Y-65338722D01*
X127086342Y-65349181D01*
X127015757Y-65373597D01*
X126951291Y-65411314D01*
X126895422Y-65460884D01*
X126009342Y-66417961D01*
X125970647Y-66467363D01*
X125935904Y-66533479D01*
X125914727Y-66605103D01*
X125907929Y-66679482D01*
X125929402Y-69728345D01*
X123576585Y-69719003D01*
X123487792Y-69729132D01*
X123417117Y-69753285D01*
X123352511Y-69790763D01*
X112827439Y-77365763D01*
X112780592Y-77405592D01*
X112733210Y-77463328D01*
X112698002Y-77529198D01*
X112676321Y-77600671D01*
X112669000Y-77675000D01*
X112669000Y-79227283D01*
X109501748Y-79212754D01*
X109425671Y-79220071D01*
X109354198Y-79241752D01*
X109288328Y-79276960D01*
X109230592Y-79324342D01*
X109183210Y-79382078D01*
X109148002Y-79447948D01*
X109126321Y-79519421D01*
X109119000Y-79593750D01*
X109006034Y-79593750D01*
X109006034Y-65124879D01*
X109008481Y-65100033D01*
X109006034Y-65075187D01*
X109006034Y-65075180D01*
X108998712Y-65000841D01*
X108969779Y-64905459D01*
X108922793Y-64817555D01*
X108859561Y-64740507D01*
X108840254Y-64724662D01*
X108581000Y-64465408D01*
X108581000Y-64432927D01*
X108554829Y-64301360D01*
X108503494Y-64177426D01*
X108428967Y-64065888D01*
X108334112Y-63971033D01*
X108222574Y-63896506D01*
X108098640Y-63845171D01*
X107967073Y-63819000D01*
X107832927Y-63819000D01*
X107701360Y-63845171D01*
X107577426Y-63896506D01*
X107465888Y-63971033D01*
X107371033Y-64065888D01*
X107296506Y-64177426D01*
X107245171Y-64301360D01*
X107219000Y-64432927D01*
X107219000Y-64567073D01*
X107245171Y-64698640D01*
X107296506Y-64822574D01*
X107371033Y-64934112D01*
X107465888Y-65028967D01*
X107577426Y-65103494D01*
X107701360Y-65154829D01*
X107832927Y-65181000D01*
X107865408Y-65181000D01*
X107994034Y-65309626D01*
X107994035Y-89090393D01*
X107765419Y-89319010D01*
X107732937Y-89319010D01*
X107601370Y-89345181D01*
X107477436Y-89396516D01*
X107365898Y-89471043D01*
X107271043Y-89565898D01*
X107196516Y-89677436D01*
X107145181Y-89801370D01*
X107119010Y-89932937D01*
X104848529Y-89932937D01*
X103701011Y-88785420D01*
X103701011Y-88747942D01*
X103771033Y-88852738D01*
X103865888Y-88947593D01*
X103977426Y-89022120D01*
X104101360Y-89073455D01*
X104232927Y-89099626D01*
X104367073Y-89099626D01*
X104498640Y-89073455D01*
X104622574Y-89022120D01*
X104734112Y-88947593D01*
X104828967Y-88852738D01*
X104903494Y-88741200D01*
X104954829Y-88617266D01*
X104981000Y-88485699D01*
X104981000Y-88351553D01*
X104954829Y-88219986D01*
X104931000Y-88162458D01*
X104931000Y-79032927D01*
X104944000Y-79032927D01*
X104944000Y-79167073D01*
X104970171Y-79298640D01*
X105021506Y-79422574D01*
X105096033Y-79534112D01*
X105190888Y-79628967D01*
X105302426Y-79703494D01*
X105426360Y-79754829D01*
X105557927Y-79781000D01*
X105692073Y-79781000D01*
X105823640Y-79754829D01*
X105947574Y-79703494D01*
X106059112Y-79628967D01*
X106153967Y-79534112D01*
X106228494Y-79422574D01*
X106279829Y-79298640D01*
X106306000Y-79167073D01*
X106306000Y-79032927D01*
X106279829Y-78901360D01*
X106228494Y-78777426D01*
X106153967Y-78665888D01*
X106131000Y-78642921D01*
X106131000Y-78334591D01*
X107234592Y-77231000D01*
X107267073Y-77231000D01*
X107398640Y-77204829D01*
X107522574Y-77153494D01*
X107634112Y-77078967D01*
X107728967Y-76984112D01*
X107803494Y-76872574D01*
X107854829Y-76748640D01*
X107881000Y-76617073D01*
X107881000Y-76482927D01*
X107854829Y-76351360D01*
X107803494Y-76227426D01*
X107728967Y-76115888D01*
X107634112Y-76021033D01*
X107522574Y-75946506D01*
X107398640Y-75895171D01*
X107267073Y-75869000D01*
X107132927Y-75869000D01*
X107001360Y-75895171D01*
X106877426Y-75946506D01*
X106765888Y-76021033D01*
X106671033Y-76115888D01*
X106596506Y-76227426D01*
X106545171Y-76351360D01*
X106519000Y-76482927D01*
X106519000Y-76515408D01*
X105284785Y-77749624D01*
X105265473Y-77765473D01*
X105202241Y-77842521D01*
X105155255Y-77930426D01*
X105126322Y-78025808D01*
X105119000Y-78100147D01*
X105119000Y-78100154D01*
X105116553Y-78125000D01*
X105119000Y-78149847D01*
X105119001Y-78642920D01*
X105096033Y-78665888D01*
X105021506Y-78777426D01*
X104970171Y-78901360D01*
X104944000Y-79032927D01*
X104931000Y-79032927D01*
X104931000Y-74330997D01*
X104934053Y-74300000D01*
X104931000Y-74269002D01*
X104931000Y-72161368D01*
X105843104Y-71249265D01*
X105843109Y-71249259D01*
X105940045Y-71152323D01*
X105997574Y-71128494D01*
X106109112Y-71053967D01*
X106203967Y-70959112D01*
X106278494Y-70847574D01*
X106329829Y-70723640D01*
X106356000Y-70592073D01*
X106356000Y-70457927D01*
X106329829Y-70326360D01*
X106278494Y-70202426D01*
X106203967Y-70090888D01*
X106109112Y-69996033D01*
X105997574Y-69921506D01*
X105873640Y-69870171D01*
X105742073Y-69844000D01*
X105607927Y-69844000D01*
X105476360Y-69870171D01*
X105352426Y-69921506D01*
X105240888Y-69996033D01*
X105146033Y-70090888D01*
X105071506Y-70202426D01*
X105047677Y-70259955D01*
X104950741Y-70356891D01*
X104950735Y-70356896D01*
X103875733Y-71431899D01*
X103851658Y-71451657D01*
X103831900Y-71475732D01*
X103831897Y-71475735D01*
X103772804Y-71547740D01*
X103714211Y-71657359D01*
X103678130Y-71776303D01*
X103665948Y-71900000D01*
X103669001Y-71931000D01*
X103669000Y-74269002D01*
X103665947Y-74300000D01*
X103669001Y-74331008D01*
X103669001Y-77604430D01*
X103664756Y-77590436D01*
X103617770Y-77502532D01*
X103554538Y-77425484D01*
X103535231Y-77409639D01*
X102795373Y-76669782D01*
X102795369Y-76669777D01*
X102733490Y-76607898D01*
X102755614Y-76554485D01*
X102801000Y-76326318D01*
X102801000Y-76093682D01*
X102755614Y-75865515D01*
X102666588Y-75650587D01*
X102537342Y-75457157D01*
X102372843Y-75292658D01*
X102179413Y-75163412D01*
X101964485Y-75074386D01*
X101736318Y-75029000D01*
X101503682Y-75029000D01*
X101275515Y-75074386D01*
X101060587Y-75163412D01*
X100867157Y-75292658D01*
X100702658Y-75457157D01*
X100573412Y-75650587D01*
X100484386Y-75865515D01*
X100481000Y-75882537D01*
X100481000Y-73997463D01*
X100484386Y-74014485D01*
X100573412Y-74229413D01*
X100702658Y-74422843D01*
X100867157Y-74587342D01*
X101060587Y-74716588D01*
X101275515Y-74805614D01*
X101503682Y-74851000D01*
X101736318Y-74851000D01*
X101964485Y-74805614D01*
X102179413Y-74716588D01*
X102372843Y-74587342D01*
X102537342Y-74422843D01*
X102666588Y-74229413D01*
X102755614Y-74014485D01*
X102801000Y-73786318D01*
X102801000Y-73553682D01*
X102755614Y-73325515D01*
X102666588Y-73110587D01*
X102537342Y-72917157D01*
X102372843Y-72752658D01*
X102179413Y-72623412D01*
X101964485Y-72534386D01*
X101736318Y-72489000D01*
X101503682Y-72489000D01*
X101275515Y-72534386D01*
X101060587Y-72623412D01*
X100867157Y-72752658D01*
X100702658Y-72917157D01*
X100573412Y-73110587D01*
X100484386Y-73325515D01*
X100481000Y-73342537D01*
X100481000Y-71457463D01*
X100484386Y-71474485D01*
X100573412Y-71689413D01*
X100702658Y-71882843D01*
X100867157Y-72047342D01*
X101060587Y-72176588D01*
X101275515Y-72265614D01*
X101503682Y-72311000D01*
X101736318Y-72311000D01*
X101964485Y-72265614D01*
X102179413Y-72176588D01*
X102372843Y-72047342D01*
X102537342Y-71882843D01*
X102666588Y-71689413D01*
X102755614Y-71474485D01*
X102801000Y-71246318D01*
X102801000Y-71013682D01*
X102755614Y-70785515D01*
X102666588Y-70570587D01*
X102537342Y-70377157D01*
X102372843Y-70212658D01*
X102179413Y-70083412D01*
X101964485Y-69994386D01*
X101736318Y-69949000D01*
X101503682Y-69949000D01*
X101275515Y-69994386D01*
X101060587Y-70083412D01*
X100867157Y-70212658D01*
X100702658Y-70377157D01*
X100573412Y-70570587D01*
X100484386Y-70785515D01*
X100481000Y-70802537D01*
X100481000Y-70444591D01*
X101195371Y-69730221D01*
X101195375Y-69730216D01*
X101222102Y-69703489D01*
X101275515Y-69725614D01*
X101503682Y-69771000D01*
X101736318Y-69771000D01*
X101964485Y-69725614D01*
X102179413Y-69636588D01*
X102372843Y-69507342D01*
X102537342Y-69342843D01*
X102666588Y-69149413D01*
X102755614Y-68934485D01*
X102801000Y-68706318D01*
X102801000Y-68473682D01*
X102755614Y-68245515D01*
X102666588Y-68030587D01*
X102537342Y-67837157D01*
X102372843Y-67672658D01*
X102179413Y-67543412D01*
X101964485Y-67454386D01*
X101736318Y-67409000D01*
X101503682Y-67409000D01*
X101275515Y-67454386D01*
X101060587Y-67543412D01*
X100867157Y-67672658D01*
X100702658Y-67837157D01*
X100573412Y-68030587D01*
X100551288Y-68084000D01*
X97859843Y-68084000D01*
X97834997Y-68081553D01*
X97810151Y-68084000D01*
X97810144Y-68084000D01*
X97745692Y-68090348D01*
X97735804Y-68091322D01*
X97694023Y-68103996D01*
X97640423Y-68120255D01*
X97552519Y-68167241D01*
X97475471Y-68230473D01*
X97459626Y-68249780D01*
X88615407Y-77094000D01*
X87166185Y-77094000D01*
X87297342Y-76962843D01*
X87426588Y-76769413D01*
X87515614Y-76554485D01*
X87561000Y-76326318D01*
X87561000Y-76093682D01*
X87515614Y-75865515D01*
X87426588Y-75650587D01*
X87297342Y-75457157D01*
X87132843Y-75292658D01*
X86939413Y-75163412D01*
X86724485Y-75074386D01*
X86496318Y-75029000D01*
X86263682Y-75029000D01*
X86035515Y-75074386D01*
X85820587Y-75163412D01*
X85627157Y-75292658D01*
X85462658Y-75457157D01*
X85333412Y-75650587D01*
X85244386Y-75865515D01*
X85199000Y-76093682D01*
X85199000Y-76326318D01*
X85244386Y-76554485D01*
X85333412Y-76769413D01*
X85462658Y-76962843D01*
X85593815Y-77094000D01*
X83932079Y-77094000D01*
X83909112Y-77071033D01*
X83797574Y-76996506D01*
X83673640Y-76945171D01*
X83542073Y-76919000D01*
X83407927Y-76919000D01*
X83276360Y-76945171D01*
X83152426Y-76996506D01*
X83040888Y-77071033D01*
X82946033Y-77165888D01*
X82871506Y-77277426D01*
X82820171Y-77401360D01*
X82794000Y-77532927D01*
X82794000Y-77667073D01*
X82820171Y-77798640D01*
X82871506Y-77922574D01*
X82946033Y-78034112D01*
X83040888Y-78128967D01*
X83152426Y-78203494D01*
X83276360Y-78254829D01*
X83407927Y-78281000D01*
X83542073Y-78281000D01*
X83673640Y-78254829D01*
X83797574Y-78203494D01*
X83909112Y-78128967D01*
X83932079Y-78106000D01*
X85389931Y-78106000D01*
X85333412Y-78190587D01*
X85244386Y-78405515D01*
X85199000Y-78633682D01*
X85199000Y-78866318D01*
X85244386Y-79094485D01*
X85333412Y-79309413D01*
X85462658Y-79502843D01*
X85627157Y-79667342D01*
X85820587Y-79796588D01*
X86035515Y-79885614D01*
X86263682Y-79931000D01*
X86496318Y-79931000D01*
X86724485Y-79885614D01*
X86939413Y-79796588D01*
X87132843Y-79667342D01*
X87297342Y-79502843D01*
X87426588Y-79309413D01*
X87515614Y-79094485D01*
X87561000Y-78866318D01*
X87561000Y-78633682D01*
X87515614Y-78405515D01*
X87426588Y-78190587D01*
X87370069Y-78106000D01*
X88800152Y-78106000D01*
X88824998Y-78108447D01*
X88849844Y-78106000D01*
X88849852Y-78106000D01*
X88924191Y-78098678D01*
X89019573Y-78069745D01*
X89107477Y-78022759D01*
X89184525Y-77959527D01*
X89200167Y-77940468D01*
X89246033Y-78009112D01*
X89340888Y-78103967D01*
X89452426Y-78178494D01*
X89576360Y-78229829D01*
X89707927Y-78256000D01*
X89842073Y-78256000D01*
X89973640Y-78229829D01*
X90097574Y-78178494D01*
X90209112Y-78103967D01*
X90232079Y-78081000D01*
X93817915Y-78081000D01*
X93840882Y-78103967D01*
X93952420Y-78178494D01*
X94076354Y-78229829D01*
X94207921Y-78256000D01*
X94342067Y-78256000D01*
X94473634Y-78229829D01*
X94597568Y-78178494D01*
X94709106Y-78103967D01*
X94803961Y-78009112D01*
X94878488Y-77897574D01*
X94929823Y-77773640D01*
X94955994Y-77642073D01*
X94955994Y-77507927D01*
X94929823Y-77376360D01*
X94878488Y-77252426D01*
X94803961Y-77140888D01*
X94709106Y-77046033D01*
X94597568Y-76971506D01*
X94473634Y-76920171D01*
X94342067Y-76894000D01*
X94207921Y-76894000D01*
X94076354Y-76920171D01*
X93952420Y-76971506D01*
X93840882Y-77046033D01*
X93817915Y-77069000D01*
X90232079Y-77069000D01*
X90209112Y-77046033D01*
X90140441Y-77000148D01*
X98044590Y-69096000D01*
X100398408Y-69096000D01*
X99634780Y-69859629D01*
X99615474Y-69875473D01*
X99552242Y-69952521D01*
X99537378Y-69980329D01*
X99505255Y-70040426D01*
X99476322Y-70135808D01*
X99466553Y-70235000D01*
X99469001Y-70259856D01*
X99469000Y-76067921D01*
X99446033Y-76090888D01*
X99371506Y-76202426D01*
X99320171Y-76326360D01*
X99294000Y-76457927D01*
X99294000Y-76592073D01*
X99320171Y-76723640D01*
X99371506Y-76847574D01*
X99446033Y-76959112D01*
X99469001Y-76982080D01*
X99469000Y-87315408D01*
X89635408Y-97149001D01*
X87386773Y-97149001D01*
X87426588Y-97089413D01*
X87515614Y-96874485D01*
X87561000Y-96646318D01*
X87561000Y-96413682D01*
X87515614Y-96185515D01*
X87426588Y-95970587D01*
X87297342Y-95777157D01*
X87132843Y-95612658D01*
X86939413Y-95483412D01*
X86724485Y-95394386D01*
X86496318Y-95349000D01*
X86263682Y-95349000D01*
X86035515Y-95394386D01*
X85820587Y-95483412D01*
X85627157Y-95612658D01*
X85462658Y-95777157D01*
X85333412Y-95970587D01*
X85244386Y-96185515D01*
X85199000Y-96413682D01*
X85199000Y-96646318D01*
X85244386Y-96874485D01*
X85333412Y-97089413D01*
X85373227Y-97149001D01*
X82084593Y-97149001D01*
X80078283Y-95142692D01*
X80091383Y-95111067D01*
X80135000Y-94891788D01*
X80135000Y-94668212D01*
X80091383Y-94448933D01*
X80005824Y-94242376D01*
X79881612Y-94056480D01*
X79723520Y-93898388D01*
X79686545Y-93873682D01*
X85199000Y-93873682D01*
X85199000Y-94106318D01*
X85244386Y-94334485D01*
X85333412Y-94549413D01*
X85462658Y-94742843D01*
X85627157Y-94907342D01*
X85820587Y-95036588D01*
X86035515Y-95125614D01*
X86263682Y-95171000D01*
X86496318Y-95171000D01*
X86724485Y-95125614D01*
X86939413Y-95036588D01*
X87132843Y-94907342D01*
X87297342Y-94742843D01*
X87426588Y-94549413D01*
X87515614Y-94334485D01*
X87561000Y-94106318D01*
X87561000Y-93873682D01*
X87515614Y-93645515D01*
X87426588Y-93430587D01*
X87297342Y-93237157D01*
X87132843Y-93072658D01*
X86939413Y-92943412D01*
X86724485Y-92854386D01*
X86496318Y-92809000D01*
X86263682Y-92809000D01*
X86035515Y-92854386D01*
X85820587Y-92943412D01*
X85627157Y-93072658D01*
X85462658Y-93237157D01*
X85333412Y-93430587D01*
X85244386Y-93645515D01*
X85199000Y-93873682D01*
X79686545Y-93873682D01*
X79537624Y-93774176D01*
X79331067Y-93688617D01*
X79111788Y-93645000D01*
X78888212Y-93645000D01*
X78668933Y-93688617D01*
X78462376Y-93774176D01*
X78276480Y-93898388D01*
X78118388Y-94056480D01*
X77994176Y-94242376D01*
X77908617Y-94448933D01*
X77865000Y-94668212D01*
X50406000Y-94668212D01*
X50406000Y-68725000D01*
X50569000Y-68725000D01*
X50569000Y-85033780D01*
X50579521Y-85122699D01*
X50603987Y-85193267D01*
X50641750Y-85257706D01*
X56991750Y-93998926D01*
X57030592Y-94044408D01*
X57088328Y-94091790D01*
X57154198Y-94126998D01*
X57225671Y-94148679D01*
X57300000Y-94156000D01*
X74950000Y-94156000D01*
X75024329Y-94148679D01*
X75095802Y-94126998D01*
X75161672Y-94091790D01*
X75219408Y-94044408D01*
X75266790Y-93986672D01*
X75301998Y-93920802D01*
X75323679Y-93849329D01*
X75331000Y-93775000D01*
X75331000Y-92389291D01*
X78501748Y-92374746D01*
X78574707Y-92367354D01*
X78646158Y-92345601D01*
X78711992Y-92310326D01*
X78769680Y-92262885D01*
X78817004Y-92205102D01*
X78852145Y-92139197D01*
X78873754Y-92067702D01*
X78881000Y-91993365D01*
X78880334Y-91333682D01*
X85199000Y-91333682D01*
X85199000Y-91566318D01*
X85244386Y-91794485D01*
X85333412Y-92009413D01*
X85462658Y-92202843D01*
X85627157Y-92367342D01*
X85820587Y-92496588D01*
X86035515Y-92585614D01*
X86263682Y-92631000D01*
X86496318Y-92631000D01*
X86724485Y-92585614D01*
X86939413Y-92496588D01*
X87132843Y-92367342D01*
X87297342Y-92202843D01*
X87426588Y-92009413D01*
X87515614Y-91794485D01*
X87561000Y-91566318D01*
X87561000Y-91333682D01*
X87515614Y-91105515D01*
X87426588Y-90890587D01*
X87297342Y-90697157D01*
X87132843Y-90532658D01*
X86939413Y-90403412D01*
X86724485Y-90314386D01*
X86496318Y-90269000D01*
X86263682Y-90269000D01*
X86035515Y-90314386D01*
X85820587Y-90403412D01*
X85627157Y-90532658D01*
X85462658Y-90697157D01*
X85333412Y-90890587D01*
X85244386Y-91105515D01*
X85199000Y-91333682D01*
X78880334Y-91333682D01*
X78877769Y-88793682D01*
X85199000Y-88793682D01*
X85199000Y-89026318D01*
X85244386Y-89254485D01*
X85333412Y-89469413D01*
X85462658Y-89662843D01*
X85627157Y-89827342D01*
X85820587Y-89956588D01*
X86035515Y-90045614D01*
X86263682Y-90091000D01*
X86496318Y-90091000D01*
X86724485Y-90045614D01*
X86939413Y-89956588D01*
X87132843Y-89827342D01*
X87297342Y-89662843D01*
X87426588Y-89469413D01*
X87515614Y-89254485D01*
X87561000Y-89026318D01*
X87561000Y-88793682D01*
X87515614Y-88565515D01*
X87426588Y-88350587D01*
X87297342Y-88157157D01*
X87132843Y-87992658D01*
X86939413Y-87863412D01*
X86724485Y-87774386D01*
X86496318Y-87729000D01*
X86263682Y-87729000D01*
X86035515Y-87774386D01*
X85820587Y-87863412D01*
X85627157Y-87992658D01*
X85462658Y-88157157D01*
X85333412Y-88350587D01*
X85244386Y-88565515D01*
X85199000Y-88793682D01*
X78877769Y-88793682D01*
X78875204Y-86253682D01*
X85199000Y-86253682D01*
X85199000Y-86486318D01*
X85244386Y-86714485D01*
X85333412Y-86929413D01*
X85462658Y-87122843D01*
X85627157Y-87287342D01*
X85820587Y-87416588D01*
X86035515Y-87505614D01*
X86263682Y-87551000D01*
X86496318Y-87551000D01*
X86724485Y-87505614D01*
X86939413Y-87416588D01*
X87132843Y-87287342D01*
X87297342Y-87122843D01*
X87426588Y-86929413D01*
X87515614Y-86714485D01*
X87561000Y-86486318D01*
X87561000Y-86253682D01*
X87515614Y-86025515D01*
X87426588Y-85810587D01*
X87297342Y-85617157D01*
X87132843Y-85452658D01*
X86939413Y-85323412D01*
X86724485Y-85234386D01*
X86496318Y-85189000D01*
X86263682Y-85189000D01*
X86035515Y-85234386D01*
X85820587Y-85323412D01*
X85627157Y-85452658D01*
X85462658Y-85617157D01*
X85333412Y-85810587D01*
X85244386Y-86025515D01*
X85199000Y-86253682D01*
X78875204Y-86253682D01*
X78874046Y-85107927D01*
X80019000Y-85107927D01*
X80019000Y-85242073D01*
X80045171Y-85373640D01*
X80096506Y-85497574D01*
X80171033Y-85609112D01*
X80265888Y-85703967D01*
X80377426Y-85778494D01*
X80501360Y-85829829D01*
X80632927Y-85856000D01*
X80767073Y-85856000D01*
X80898640Y-85829829D01*
X81022574Y-85778494D01*
X81134112Y-85703967D01*
X81228967Y-85609112D01*
X81303494Y-85497574D01*
X81354829Y-85373640D01*
X81381000Y-85242073D01*
X81381000Y-85209591D01*
X82331420Y-84259172D01*
X82350727Y-84243327D01*
X82413959Y-84166279D01*
X82460945Y-84078375D01*
X82489878Y-83982993D01*
X82497200Y-83908654D01*
X82497200Y-83908653D01*
X82499648Y-83883800D01*
X82497200Y-83858946D01*
X82497200Y-83713682D01*
X85199000Y-83713682D01*
X85199000Y-83946318D01*
X85244386Y-84174485D01*
X85333412Y-84389413D01*
X85462658Y-84582843D01*
X85627157Y-84747342D01*
X85820587Y-84876588D01*
X86035515Y-84965614D01*
X86263682Y-85011000D01*
X86496318Y-85011000D01*
X86724485Y-84965614D01*
X86939413Y-84876588D01*
X87132843Y-84747342D01*
X87297342Y-84582843D01*
X87426588Y-84389413D01*
X87515614Y-84174485D01*
X87561000Y-83946318D01*
X87561000Y-83713682D01*
X87515614Y-83485515D01*
X87426588Y-83270587D01*
X87297342Y-83077157D01*
X87132843Y-82912658D01*
X86939413Y-82783412D01*
X86724485Y-82694386D01*
X86496318Y-82649000D01*
X86263682Y-82649000D01*
X86035515Y-82694386D01*
X85820587Y-82783412D01*
X85627157Y-82912658D01*
X85462658Y-83077157D01*
X85333412Y-83270587D01*
X85244386Y-83485515D01*
X85199000Y-83713682D01*
X82497200Y-83713682D01*
X82497200Y-81173682D01*
X85199000Y-81173682D01*
X85199000Y-81406318D01*
X85244386Y-81634485D01*
X85333412Y-81849413D01*
X85462658Y-82042843D01*
X85627157Y-82207342D01*
X85820587Y-82336588D01*
X86035515Y-82425614D01*
X86263682Y-82471000D01*
X86496318Y-82471000D01*
X86724485Y-82425614D01*
X86939413Y-82336588D01*
X87132843Y-82207342D01*
X87297342Y-82042843D01*
X87426588Y-81849413D01*
X87515614Y-81634485D01*
X87561000Y-81406318D01*
X87561000Y-81173682D01*
X87515614Y-80945515D01*
X87426588Y-80730587D01*
X87297342Y-80537157D01*
X87132843Y-80372658D01*
X86939413Y-80243412D01*
X86724485Y-80154386D01*
X86496318Y-80109000D01*
X86263682Y-80109000D01*
X86035515Y-80154386D01*
X85820587Y-80243412D01*
X85627157Y-80372658D01*
X85462658Y-80537157D01*
X85333412Y-80730587D01*
X85244386Y-80945515D01*
X85199000Y-81173682D01*
X82497200Y-81173682D01*
X82497200Y-75728391D01*
X84671909Y-73553682D01*
X85199000Y-73553682D01*
X85199000Y-73786318D01*
X85244386Y-74014485D01*
X85333412Y-74229413D01*
X85462658Y-74422843D01*
X85627157Y-74587342D01*
X85820587Y-74716588D01*
X86035515Y-74805614D01*
X86263682Y-74851000D01*
X86496318Y-74851000D01*
X86724485Y-74805614D01*
X86939413Y-74716588D01*
X87132843Y-74587342D01*
X87297342Y-74422843D01*
X87426588Y-74229413D01*
X87515614Y-74014485D01*
X87561000Y-73786318D01*
X87561000Y-73553682D01*
X87515614Y-73325515D01*
X87426588Y-73110587D01*
X87297342Y-72917157D01*
X87132843Y-72752658D01*
X86939413Y-72623412D01*
X86724485Y-72534386D01*
X86496318Y-72489000D01*
X86263682Y-72489000D01*
X86035515Y-72534386D01*
X85820587Y-72623412D01*
X85627157Y-72752658D01*
X85462658Y-72917157D01*
X85333412Y-73110587D01*
X85244386Y-73325515D01*
X85199000Y-73553682D01*
X84671909Y-73553682D01*
X85955371Y-72270221D01*
X85955375Y-72270216D01*
X85982102Y-72243489D01*
X86035515Y-72265614D01*
X86263682Y-72311000D01*
X86496318Y-72311000D01*
X86724485Y-72265614D01*
X86939413Y-72176588D01*
X87132843Y-72047342D01*
X87297342Y-71882843D01*
X87426588Y-71689413D01*
X87515614Y-71474485D01*
X87561000Y-71246318D01*
X87561000Y-71013682D01*
X87515614Y-70785515D01*
X87426588Y-70570587D01*
X87297342Y-70377157D01*
X87132843Y-70212658D01*
X86939413Y-70083412D01*
X86724485Y-69994386D01*
X86710763Y-69991657D01*
X86730130Y-69988787D01*
X86996292Y-69893603D01*
X87121514Y-69826671D01*
X87193097Y-69582702D01*
X86380000Y-68769605D01*
X85566903Y-69582702D01*
X85638486Y-69826671D01*
X85893996Y-69947571D01*
X86060741Y-69989368D01*
X86035515Y-69994386D01*
X85820587Y-70083412D01*
X85627157Y-70212658D01*
X85462658Y-70377157D01*
X85333412Y-70570587D01*
X85244386Y-70785515D01*
X85199000Y-71013682D01*
X85199000Y-71246318D01*
X85244386Y-71474485D01*
X85266511Y-71527898D01*
X85239784Y-71554625D01*
X85239779Y-71554629D01*
X81650981Y-75143428D01*
X81631674Y-75159273D01*
X81568442Y-75236321D01*
X81563252Y-75246031D01*
X81521455Y-75324226D01*
X81492522Y-75419608D01*
X81482753Y-75518800D01*
X81485201Y-75543656D01*
X81485200Y-83674208D01*
X80665409Y-84494000D01*
X80632927Y-84494000D01*
X80501360Y-84520171D01*
X80377426Y-84571506D01*
X80265888Y-84646033D01*
X80171033Y-84740888D01*
X80096506Y-84852426D01*
X80045171Y-84976360D01*
X80019000Y-85107927D01*
X78874046Y-85107927D01*
X78868500Y-79618365D01*
X78860834Y-79542707D01*
X78838826Y-79471334D01*
X78803316Y-79405627D01*
X78755669Y-79348109D01*
X78697717Y-79300992D01*
X78631686Y-79266087D01*
X78560115Y-79244734D01*
X78485752Y-79237754D01*
X75331000Y-79252225D01*
X75331000Y-77675000D01*
X75326038Y-77613711D01*
X75306856Y-77541527D01*
X75273960Y-77474473D01*
X75228614Y-77415124D01*
X75172561Y-77365763D01*
X64647489Y-69790763D01*
X64564861Y-69745628D01*
X64493038Y-69725137D01*
X64418597Y-69719053D01*
X62131940Y-69757054D01*
X62140571Y-68660512D01*
X84939783Y-68660512D01*
X84981213Y-68940130D01*
X85076397Y-69206292D01*
X85143329Y-69331514D01*
X85387298Y-69403097D01*
X86200395Y-68590000D01*
X86559605Y-68590000D01*
X87372702Y-69403097D01*
X87616671Y-69331514D01*
X87737571Y-69076004D01*
X87806300Y-68801816D01*
X87820217Y-68519488D01*
X87778787Y-68239870D01*
X87683603Y-67973708D01*
X87616671Y-67848486D01*
X87372702Y-67776903D01*
X86559605Y-68590000D01*
X86200395Y-68590000D01*
X85387298Y-67776903D01*
X85143329Y-67848486D01*
X85022429Y-68103996D01*
X84953700Y-68378184D01*
X84939783Y-68660512D01*
X62140571Y-68660512D01*
X62156178Y-66677999D01*
X62149066Y-66601669D01*
X62127576Y-66530138D01*
X62092544Y-66464174D01*
X62045316Y-66406313D01*
X61575203Y-65933682D01*
X85199000Y-65933682D01*
X85199000Y-66166318D01*
X85244386Y-66394485D01*
X85333412Y-66609413D01*
X85462658Y-66802843D01*
X85627157Y-66967342D01*
X85820587Y-67096588D01*
X86035515Y-67185614D01*
X86049237Y-67188343D01*
X86029870Y-67191213D01*
X85763708Y-67286397D01*
X85638486Y-67353329D01*
X85566903Y-67597298D01*
X86380000Y-68410395D01*
X87193097Y-67597298D01*
X87121514Y-67353329D01*
X86866004Y-67232429D01*
X86699259Y-67190632D01*
X86724485Y-67185614D01*
X86939413Y-67096588D01*
X87132843Y-66967342D01*
X87297342Y-66802843D01*
X87426588Y-66609413D01*
X87515614Y-66394485D01*
X87561000Y-66166318D01*
X87561000Y-65933682D01*
X100439000Y-65933682D01*
X100439000Y-66166318D01*
X100484386Y-66394485D01*
X100573412Y-66609413D01*
X100702658Y-66802843D01*
X100867157Y-66967342D01*
X101060587Y-67096588D01*
X101275515Y-67185614D01*
X101503682Y-67231000D01*
X101736318Y-67231000D01*
X101964485Y-67185614D01*
X102179413Y-67096588D01*
X102372843Y-66967342D01*
X102537342Y-66802843D01*
X102666588Y-66609413D01*
X102755614Y-66394485D01*
X102801000Y-66166318D01*
X102801000Y-65933682D01*
X102755614Y-65705515D01*
X102666588Y-65490587D01*
X102537342Y-65297157D01*
X102372843Y-65132658D01*
X102179413Y-65003412D01*
X101964485Y-64914386D01*
X101950763Y-64911657D01*
X101970130Y-64908787D01*
X102236292Y-64813603D01*
X102361514Y-64746671D01*
X102433097Y-64502702D01*
X101620000Y-63689605D01*
X100806903Y-64502702D01*
X100878486Y-64746671D01*
X101133996Y-64867571D01*
X101300741Y-64909368D01*
X101275515Y-64914386D01*
X101060587Y-65003412D01*
X100867157Y-65132658D01*
X100702658Y-65297157D01*
X100573412Y-65490587D01*
X100484386Y-65705515D01*
X100439000Y-65933682D01*
X87561000Y-65933682D01*
X87515614Y-65705515D01*
X87426588Y-65490587D01*
X87297342Y-65297157D01*
X87132843Y-65132658D01*
X86939413Y-65003412D01*
X86724485Y-64914386D01*
X86496318Y-64869000D01*
X86263682Y-64869000D01*
X86035515Y-64914386D01*
X85820587Y-65003412D01*
X85627157Y-65132658D01*
X85462658Y-65297157D01*
X85333412Y-65490587D01*
X85244386Y-65705515D01*
X85199000Y-65933682D01*
X61575203Y-65933682D01*
X61095126Y-65451035D01*
X61036824Y-65403033D01*
X60970971Y-65367794D01*
X60899508Y-65346078D01*
X60825182Y-65338722D01*
X53500182Y-65335221D01*
X53395186Y-65349922D01*
X53325739Y-65377408D01*
X53262988Y-65417915D01*
X53209346Y-65469886D01*
X50659346Y-68478665D01*
X50633210Y-68513328D01*
X50598002Y-68579198D01*
X50576321Y-68650671D01*
X50569000Y-68725000D01*
X50406000Y-68725000D01*
X50406000Y-63393682D01*
X85199000Y-63393682D01*
X85199000Y-63626318D01*
X85244386Y-63854485D01*
X85333412Y-64069413D01*
X85462658Y-64262843D01*
X85627157Y-64427342D01*
X85820587Y-64556588D01*
X86035515Y-64645614D01*
X86263682Y-64691000D01*
X86496318Y-64691000D01*
X86724485Y-64645614D01*
X86939413Y-64556588D01*
X87132843Y-64427342D01*
X87297342Y-64262843D01*
X87426588Y-64069413D01*
X87515614Y-63854485D01*
X87561000Y-63626318D01*
X87561000Y-63580512D01*
X100179783Y-63580512D01*
X100221213Y-63860130D01*
X100316397Y-64126292D01*
X100383329Y-64251514D01*
X100627298Y-64323097D01*
X101440395Y-63510000D01*
X101799605Y-63510000D01*
X102612702Y-64323097D01*
X102856671Y-64251514D01*
X102977571Y-63996004D01*
X103046300Y-63721816D01*
X103060217Y-63439488D01*
X103018787Y-63159870D01*
X102923603Y-62893708D01*
X102856671Y-62768486D01*
X102612702Y-62696903D01*
X101799605Y-63510000D01*
X101440395Y-63510000D01*
X100627298Y-62696903D01*
X100383329Y-62768486D01*
X100262429Y-63023996D01*
X100193700Y-63298184D01*
X100179783Y-63580512D01*
X87561000Y-63580512D01*
X87561000Y-63393682D01*
X87515614Y-63165515D01*
X87426588Y-62950587D01*
X87297342Y-62757157D01*
X87132843Y-62592658D01*
X86939413Y-62463412D01*
X86724485Y-62374386D01*
X86496318Y-62329000D01*
X86263682Y-62329000D01*
X86035515Y-62374386D01*
X85820587Y-62463412D01*
X85627157Y-62592658D01*
X85462658Y-62757157D01*
X85333412Y-62950587D01*
X85244386Y-63165515D01*
X85199000Y-63393682D01*
X50406000Y-63393682D01*
X50406000Y-60170000D01*
X85197157Y-60170000D01*
X85197157Y-61770000D01*
X85204513Y-61844689D01*
X85226299Y-61916508D01*
X85261678Y-61982696D01*
X85309289Y-62040711D01*
X85367304Y-62088322D01*
X85433492Y-62123701D01*
X85505311Y-62145487D01*
X85580000Y-62152843D01*
X87180000Y-62152843D01*
X87254689Y-62145487D01*
X87326508Y-62123701D01*
X87392696Y-62088322D01*
X87450711Y-62040711D01*
X87498322Y-61982696D01*
X87533701Y-61916508D01*
X87555487Y-61844689D01*
X87562843Y-61770000D01*
X87562843Y-60170000D01*
X100437157Y-60170000D01*
X100437157Y-61770000D01*
X100444513Y-61844689D01*
X100466299Y-61916508D01*
X100501678Y-61982696D01*
X100549289Y-62040711D01*
X100607304Y-62088322D01*
X100673492Y-62123701D01*
X100745311Y-62145487D01*
X100820000Y-62152843D01*
X101153460Y-62152843D01*
X101003708Y-62206397D01*
X100878486Y-62273329D01*
X100806903Y-62517298D01*
X101620000Y-63330395D01*
X102433097Y-62517298D01*
X102361514Y-62273329D01*
X102106879Y-62152843D01*
X102420000Y-62152843D01*
X102494689Y-62145487D01*
X102566508Y-62123701D01*
X102632696Y-62088322D01*
X102690711Y-62040711D01*
X102738322Y-61982696D01*
X102773701Y-61916508D01*
X102795487Y-61844689D01*
X102802843Y-61770000D01*
X102802843Y-60170000D01*
X102795487Y-60095311D01*
X102773701Y-60023492D01*
X102738322Y-59957304D01*
X102690711Y-59899289D01*
X102632696Y-59851678D01*
X102566508Y-59816299D01*
X102494689Y-59794513D01*
X102420000Y-59787157D01*
X100820000Y-59787157D01*
X100745311Y-59794513D01*
X100673492Y-59816299D01*
X100607304Y-59851678D01*
X100549289Y-59899289D01*
X100501678Y-59957304D01*
X100466299Y-60023492D01*
X100444513Y-60095311D01*
X100437157Y-60170000D01*
X87562843Y-60170000D01*
X87555487Y-60095311D01*
X87533701Y-60023492D01*
X87498322Y-59957304D01*
X87450711Y-59899289D01*
X87392696Y-59851678D01*
X87326508Y-59816299D01*
X87254689Y-59794513D01*
X87180000Y-59787157D01*
X85580000Y-59787157D01*
X85505311Y-59794513D01*
X85433492Y-59816299D01*
X85367304Y-59851678D01*
X85309289Y-59899289D01*
X85261678Y-59957304D01*
X85226299Y-60023492D01*
X85204513Y-60095311D01*
X85197157Y-60170000D01*
X50406000Y-60170000D01*
X50406000Y-59695196D01*
X115574000Y-59695196D01*
X115574000Y-61354803D01*
X115594561Y-61563564D01*
X115675816Y-61831423D01*
X115807765Y-62078284D01*
X115985340Y-62294659D01*
X116201715Y-62472235D01*
X116448576Y-62604184D01*
X116716435Y-62685439D01*
X116995000Y-62712875D01*
X117273564Y-62685439D01*
X117541423Y-62604184D01*
X117788284Y-62472235D01*
X117967689Y-62325000D01*
X120396928Y-62325000D01*
X120409188Y-62449482D01*
X120445498Y-62569180D01*
X120504463Y-62679494D01*
X120583815Y-62776185D01*
X120680506Y-62855537D01*
X120790820Y-62914502D01*
X120910518Y-62950812D01*
X121035000Y-62963072D01*
X121789250Y-62960000D01*
X121948000Y-62801250D01*
X121948000Y-60652000D01*
X122202000Y-60652000D01*
X122202000Y-62801250D01*
X122360750Y-62960000D01*
X123115000Y-62963072D01*
X123239482Y-62950812D01*
X123359180Y-62914502D01*
X123469494Y-62855537D01*
X123566185Y-62776185D01*
X123645537Y-62679494D01*
X123704502Y-62569180D01*
X123740812Y-62449482D01*
X123753072Y-62325000D01*
X123750000Y-60810750D01*
X123591250Y-60652000D01*
X122202000Y-60652000D01*
X121948000Y-60652000D01*
X120558750Y-60652000D01*
X120400000Y-60810750D01*
X120396928Y-62325000D01*
X117967689Y-62325000D01*
X118004659Y-62294660D01*
X118182235Y-62078285D01*
X118314184Y-61831424D01*
X118395439Y-61563565D01*
X118416000Y-61354804D01*
X118416000Y-59695196D01*
X118395439Y-59486435D01*
X118314184Y-59218576D01*
X118182235Y-58971715D01*
X118004660Y-58755340D01*
X117967691Y-58725000D01*
X120396928Y-58725000D01*
X120400000Y-60239250D01*
X120558750Y-60398000D01*
X121948000Y-60398000D01*
X121948000Y-58248750D01*
X122202000Y-58248750D01*
X122202000Y-60398000D01*
X123591250Y-60398000D01*
X123750000Y-60239250D01*
X123753072Y-58725000D01*
X123740812Y-58600518D01*
X123704502Y-58480820D01*
X123645537Y-58370506D01*
X123566185Y-58273815D01*
X123469494Y-58194463D01*
X123359180Y-58135498D01*
X123239482Y-58099188D01*
X123115000Y-58086928D01*
X122360750Y-58090000D01*
X122202000Y-58248750D01*
X121948000Y-58248750D01*
X121789250Y-58090000D01*
X121035000Y-58086928D01*
X120910518Y-58099188D01*
X120790820Y-58135498D01*
X120680506Y-58194463D01*
X120583815Y-58273815D01*
X120504463Y-58370506D01*
X120445498Y-58480820D01*
X120409188Y-58600518D01*
X120396928Y-58725000D01*
X117967691Y-58725000D01*
X117788285Y-58577765D01*
X117541424Y-58445816D01*
X117273565Y-58364561D01*
X116995000Y-58337125D01*
X116716436Y-58364561D01*
X116448577Y-58445816D01*
X116201716Y-58577765D01*
X115985341Y-58755340D01*
X115807766Y-58971715D01*
X115675817Y-59218576D01*
X115594561Y-59486435D01*
X115574000Y-59695196D01*
X50406000Y-59695196D01*
X50406000Y-55315132D01*
X50718456Y-55782754D01*
X51217246Y-56281544D01*
X51803760Y-56673441D01*
X52455461Y-56943384D01*
X53147302Y-57081000D01*
X53852698Y-57081000D01*
X54544539Y-56943384D01*
X55196240Y-56673441D01*
X55782754Y-56281544D01*
X56281544Y-55782754D01*
X56673441Y-55196240D01*
X56943384Y-54544539D01*
X57081000Y-53852698D01*
X57081000Y-53147302D01*
X56943384Y-52455461D01*
X56673441Y-51803760D01*
X56281544Y-51217246D01*
X55782754Y-50718456D01*
X55315132Y-50406000D01*
X132684868Y-50406000D01*
X132217246Y-50718456D01*
M02*
