M48
; DRILL file {KiCad (5.1.4)-1} date 06/03/2020 17:00:36
; FORMAT={-:-/ absolute / metric / decimal}
; #@! TF.CreationDate,2020-03-06T17:00:36+01:00
; #@! TF.GenerationSoftware,Kicad,Pcbnew,(5.1.4)-1
; #@! TF.FileFunction,Plated,1,2,PTH
FMAT,2
METRIC
T1C0.300
T2C0.400
T3C0.800
T4C1.000
T5C1.200
T6C1.400
T7C3.200
%
G90
G05
T1
X56.8Y-87.8
X57.1Y-92.8
X59.6Y-79.2
X59.6Y-80.2
X59.6Y-81.2
X59.6Y-82.2
X59.6Y-83.2
X59.6Y-84.2
X59.6Y-87.5
X59.6Y-88.5
X59.6Y-89.5
X59.6Y-90.5
X59.6Y-91.5
X59.6Y-92.5
X60.6Y-79.2
X60.6Y-80.2
X60.6Y-81.2
X60.6Y-82.2
X60.6Y-83.2
X60.6Y-84.2
X60.6Y-87.5
X60.6Y-88.5
X60.6Y-89.5
X60.6Y-90.5
X60.6Y-91.5
X60.6Y-92.5
X61.6Y-79.2
X61.6Y-80.2
X61.6Y-81.2
X61.6Y-82.2
X61.6Y-83.2
X61.6Y-84.2
X61.6Y-87.5
X61.6Y-88.5
X61.6Y-89.5
X61.6Y-90.5
X61.6Y-91.5
X61.6Y-92.5
X62.6Y-79.2
X62.6Y-80.2
X62.6Y-81.2
X62.6Y-82.2
X62.6Y-83.2
X62.6Y-84.2
X62.6Y-87.5
X62.6Y-88.5
X62.6Y-89.5
X62.6Y-90.5
X62.6Y-91.5
X62.6Y-92.5
X63.0Y-67.425
X63.0Y-68.425
X63.0Y-69.425
X63.6Y-79.2
X63.6Y-80.2
X63.6Y-81.2
X63.6Y-82.2
X63.6Y-83.2
X63.6Y-84.2
X63.6Y-87.5
X63.6Y-88.5
X63.6Y-89.5
X63.6Y-90.5
X63.6Y-91.5
X63.6Y-92.5
X64.0Y-67.425
X64.0Y-68.425
X64.0Y-69.425
X65.0Y-67.425
X65.0Y-68.425
X65.0Y-69.425
X65.7Y-81.3
X65.7Y-82.3
X65.7Y-83.3
X65.7Y-84.3
X65.7Y-85.3
X65.7Y-86.3
X65.7Y-87.3
X65.7Y-88.3
X65.7Y-89.3
X65.7Y-90.3
X66.0Y-67.425
X66.0Y-68.425
X66.0Y-69.425
X66.7Y-81.3
X66.7Y-82.3
X66.7Y-83.3
X66.7Y-84.3
X66.7Y-85.3
X66.7Y-86.3
X66.7Y-87.3
X66.7Y-88.3
X66.7Y-89.3
X66.7Y-90.3
X67.0Y-67.425
X67.0Y-68.425
X67.0Y-69.425
X67.7Y-81.3
X67.7Y-82.3
X67.7Y-83.3
X67.7Y-84.3
X67.7Y-85.3
X67.7Y-86.3
X67.7Y-87.3
X67.7Y-88.3
X67.7Y-89.3
X67.7Y-90.3
X68.7Y-81.3
X68.7Y-82.3
X68.7Y-83.3
X68.7Y-84.3
X68.7Y-85.3
X68.7Y-86.3
X68.7Y-87.3
X68.7Y-88.3
X68.7Y-89.3
X68.7Y-90.3
X69.7Y-81.3
X69.7Y-82.3
X69.7Y-83.3
X69.7Y-84.3
X69.7Y-85.3
X69.7Y-86.3
X69.7Y-87.3
X69.7Y-88.3
X69.7Y-89.3
X69.7Y-90.3
X74.875Y-95.35
X74.875Y-96.35
X74.875Y-97.35
X75.875Y-95.35
X75.875Y-96.35
X75.875Y-97.35
X76.875Y-95.35
X76.875Y-96.35
X76.875Y-97.35
X97.275Y-81.0
X97.275Y-82.0
X98.275Y-81.0
X98.275Y-82.0
X111.125Y-95.35
X111.125Y-96.35
X111.125Y-97.35
X112.125Y-95.35
X112.125Y-96.35
X112.125Y-97.35
X113.125Y-95.35
X113.125Y-96.35
X113.125Y-97.35
X118.3Y-81.3
X118.3Y-82.3
X118.3Y-83.3
X118.3Y-84.3
X118.3Y-85.3
X118.3Y-86.3
X118.3Y-87.3
X118.3Y-88.3
X118.3Y-89.3
X118.3Y-90.3
X119.3Y-81.3
X119.3Y-82.3
X119.3Y-83.3
X119.3Y-84.3
X119.3Y-85.3
X119.3Y-86.3
X119.3Y-87.3
X119.3Y-88.3
X119.3Y-89.3
X119.3Y-90.3
X120.3Y-81.3
X120.3Y-82.3
X120.3Y-83.3
X120.3Y-84.3
X120.3Y-85.3
X120.3Y-86.3
X120.3Y-87.3
X120.3Y-88.3
X120.3Y-89.3
X120.3Y-90.3
X121.3Y-81.3
X121.3Y-82.3
X121.3Y-83.3
X121.3Y-84.3
X121.3Y-85.3
X121.3Y-86.3
X121.3Y-87.3
X121.3Y-88.3
X121.3Y-89.3
X121.3Y-90.3
X122.3Y-81.3
X122.3Y-82.3
X122.3Y-83.3
X122.3Y-84.3
X122.3Y-85.3
X122.3Y-86.3
X122.3Y-87.3
X122.3Y-88.3
X122.3Y-89.3
X122.3Y-90.3
X124.4Y-79.2
X124.4Y-80.2
X124.4Y-81.2
X124.4Y-82.2
X124.4Y-83.2
X124.4Y-84.2
X124.4Y-87.5
X124.4Y-88.5
X124.4Y-89.5
X124.4Y-90.5
X124.4Y-91.5
X124.4Y-92.5
X125.4Y-79.2
X125.4Y-80.2
X125.4Y-81.2
X125.4Y-82.2
X125.4Y-83.2
X125.4Y-84.2
X125.4Y-87.5
X125.4Y-88.5
X125.4Y-89.5
X125.4Y-90.5
X125.4Y-91.5
X125.4Y-92.5
X126.4Y-79.2
X126.4Y-80.2
X126.4Y-81.2
X126.4Y-82.2
X126.4Y-83.2
X126.4Y-84.2
X126.4Y-87.5
X126.4Y-88.5
X126.4Y-89.5
X126.4Y-90.5
X126.4Y-91.5
X126.4Y-92.5
X127.4Y-79.2
X127.4Y-80.2
X127.4Y-81.2
X127.4Y-82.2
X127.4Y-83.2
X127.4Y-84.2
X127.4Y-87.5
X127.4Y-88.5
X127.4Y-89.5
X127.4Y-90.5
X127.4Y-91.5
X127.4Y-92.5
X128.4Y-79.2
X128.4Y-80.2
X128.4Y-81.2
X128.4Y-82.2
X128.4Y-83.2
X128.4Y-84.2
X128.4Y-87.5
X128.4Y-88.5
X128.4Y-89.5
X128.4Y-90.5
X128.4Y-91.5
X128.4Y-92.5
X130.9Y-92.8
X131.2Y-87.8
T2
X72.7Y-78.35
X72.7Y-79.0
X72.725Y-92.7
X72.725Y-93.35
X80.7Y-85.175
X80.725Y-79.425
X81.475Y-86.125
X82.616Y-83.312
X83.475Y-77.6
X89.775Y-77.575
X94.275Y-77.575
X99.187Y-83.769
X99.975Y-76.525
X104.3Y-88.419
X105.207Y-79.985
X105.675Y-70.525
X105.969Y-79.096
X106.604Y-80.315
X106.8Y-90.15
X106.85Y-83.25
X107.2Y-76.55
X107.375Y-78.35
X107.8Y-90.0
X107.9Y-64.5
X115.3Y-78.3
X115.3Y-78.975
X115.325Y-92.725
X115.325Y-93.4
T3
X86.38Y-60.97
X86.38Y-63.51
X86.38Y-66.05
X86.38Y-68.59
X86.38Y-71.13
X86.38Y-73.67
X86.38Y-76.21
X86.38Y-78.75
X86.38Y-81.29
X86.38Y-83.83
X86.38Y-86.37
X86.38Y-88.91
X86.38Y-91.45
X86.38Y-93.99
X86.38Y-96.53
X101.62Y-60.97
X101.62Y-63.51
X101.62Y-66.05
X101.62Y-68.59
X101.62Y-71.13
X101.62Y-73.67
X101.62Y-76.21
X101.62Y-78.75
X101.62Y-81.29
X101.62Y-83.83
X101.62Y-86.37
X101.62Y-88.91
X101.62Y-91.45
X101.62Y-93.99
X101.62Y-96.53
T4
X109.0Y-94.8
X109.0Y-97.34
X109.0Y-99.88
X109.0Y-102.42
X79.0Y-94.78
X79.0Y-97.32
X79.0Y-99.86
X79.0Y-102.4
T5
X58.5Y-68.275
X58.5Y-71.775
X129.5Y-68.3
X129.5Y-71.8
T6
X116.995Y-60.525
X122.075Y-60.525
T7
X134.5Y-101.5
X53.5Y-101.5
X53.5Y-53.5
X134.5Y-53.5
T0
M30
