M48
; DRILL file {KiCad (5.1.4)-1} date 20/03/2020 17:20:10
; FORMAT={-:-/ absolute / metric / decimal}
; #@! TF.CreationDate,2020-03-20T17:20:10+01:00
; #@! TF.GenerationSoftware,Kicad,Pcbnew,(5.1.4)-1
; #@! TF.FileFunction,Plated,1,2,PTH
FMAT,2
METRIC
T1C0.400
T2C0.800
T3C0.850
T4C1.000
T5C1.200
T6C1.400
T7C3.200
%
G90
G05
T1
X68.097Y-94.59
X68.492Y-85.35
X68.992Y-84.822
X69.012Y-82.702
X69.018Y-87.401
X69.742Y-91.11
X71.374Y-83.571
X71.73Y-71.247
X72.21Y-88.521
X72.39Y-83.134
X73.111Y-82.974
X73.873Y-82.991
X73.99Y-66.294
X74.651Y-83.008
X75.794Y-74.473
X76.098Y-51.283
X76.632Y-58.395
X76.943Y-73.883
X77.33Y-79.07
X77.36Y-78.23
X77.61Y-73.35
X77.82Y-77.49
X78.18Y-72.85
X78.828Y-72.336
X79.81Y-76.74
X80.449Y-76.215
X81.042Y-80.042
X81.06Y-75.73
X81.54Y-85.05
X81.79Y-75.336
X82.69Y-56.57
X82.728Y-84.455
X83.03Y-60.14
X83.033Y-62.306
X83.363Y-116.103
X83.363Y-117.729
X83.793Y-72.776
X83.81Y-56.07
X84.46Y-76.12
X84.557Y-83.439
X84.908Y-75.44
X84.96Y-69.059
X84.963Y-77.343
X85.09Y-51.435
X85.37Y-90.58
X85.54Y-76.81
X85.65Y-86.96
X87.147Y-75.387
X87.15Y-72.23
X87.165Y-52.09
X87.274Y-61.697
X88.17Y-75.66
X88.702Y-82.956
X88.89Y-90.58
X89.078Y-54.483
X89.513Y-82.906
X89.713Y-74.828
X89.84Y-87.173
X90.094Y-54.407
X90.643Y-75.695
X90.773Y-114.459
X90.878Y-87.269
X90.983Y-51.841
X91.211Y-75.242
X91.618Y-57.683
X91.618Y-59.639
X91.763Y-58.47
X91.785Y-60.421
X91.791Y-86.391
X91.815Y-55.463
X91.872Y-56.261
X92.735Y-70.212
X92.735Y-72.136
X92.888Y-80.442
X93.015Y-55.016
X93.116Y-51.86
X93.16Y-76.396
X94.107Y-64.618
X95.148Y-87.297
X95.78Y-80.844
X95.783Y-57.074
X95.96Y-79.002
X96.063Y-75.743
X96.317Y-55.169
X96.45Y-79.57
X96.669Y-72.711
X96.682Y-73.438
X97.358Y-55.956
X97.59Y-85.64
X97.86Y-84.81
X98.222Y-53.721
X99.263Y-54.534
X99.263Y-87.297
X99.593Y-81.763
X99.797Y-84.811
X99.822Y-76.962
X99.84Y-85.64
X100.127Y-62.357
X100.279Y-86.36
X102.083Y-59.512
X102.137Y-55.957
X103.858Y-95.174
X104.57Y-94.74
X105.275Y-57.285
X105.39Y-94.17
X106.3Y-93.69
X107.216Y-58.344
X121.835Y-85.64
X122.31Y-86.36
X126.39Y-77.11
X127.838Y-97.209
X130.607Y-77.123
T2
X122.045Y-78.386
X123.121Y-92.157
X125.264Y-81.517
X125.806Y-92.157
X126.238Y-84.506
X136.423Y-60.02
X69.113Y-100.508
X69.113Y-103.048
X69.113Y-105.588
X69.113Y-108.128
X69.113Y-110.668
X69.113Y-113.208
X69.113Y-115.748
X69.113Y-118.288
X81.813Y-100.508
X81.813Y-103.048
X81.813Y-105.588
X81.813Y-108.128
X81.813Y-110.668
X81.813Y-113.208
X81.813Y-115.748
X81.813Y-118.288
X100.609Y-100.508
X100.609Y-103.048
X100.609Y-105.588
X100.609Y-108.128
X100.609Y-110.668
X100.609Y-113.208
X100.609Y-115.748
X100.609Y-118.288
X113.309Y-100.508
X113.309Y-103.048
X113.309Y-105.588
X113.309Y-108.128
X113.309Y-110.668
X113.309Y-113.208
X113.309Y-115.748
X113.309Y-118.288
X84.861Y-100.508
X84.861Y-103.048
X84.861Y-105.588
X84.861Y-108.128
X84.861Y-110.668
X84.861Y-113.208
X84.861Y-115.748
X84.861Y-118.288
X97.561Y-100.508
X97.561Y-103.048
X97.561Y-105.588
X97.561Y-108.128
X97.561Y-110.668
X97.561Y-113.208
X97.561Y-115.748
X97.561Y-118.288
X116.357Y-100.508
X116.357Y-103.048
X116.357Y-105.588
X116.357Y-108.128
X116.357Y-110.668
X116.357Y-113.208
X116.357Y-115.748
X116.357Y-118.288
X129.057Y-100.508
X129.057Y-103.048
X129.057Y-105.588
X129.057Y-108.128
X129.057Y-110.668
X129.057Y-113.208
X129.057Y-115.748
X129.057Y-118.288
T3
X79.502Y-90.606
X79.502Y-93.106
X79.502Y-95.606
X73.609Y-90.606
X73.609Y-93.106
X73.609Y-95.606
T4
X55.88Y-75.387
X76.886Y-83.845
X79.604Y-86.639
X80.543Y-72.466
X86.276Y-65.634
X120.462Y-72.832
X130.099Y-56.845
X115.672Y-80.899
X115.672Y-83.439
X136.195Y-88.214
X136.195Y-90.754
X136.195Y-93.294
X118.491Y-80.899
X118.491Y-83.439
X110.033Y-80.899
X110.033Y-83.439
X110.058Y-88.24
X110.058Y-90.78
X110.058Y-93.32
X133.401Y-88.214
X133.401Y-90.754
X133.401Y-93.294
X103.124Y-109.271
X105.664Y-109.271
X108.204Y-109.271
X110.744Y-109.271
X121.336Y-88.24
X121.336Y-90.78
X121.336Y-93.32
X112.878Y-88.24
X112.878Y-90.78
X112.878Y-93.32
X93.834Y-93.434
X96.374Y-93.434
X98.914Y-93.434
X101.454Y-93.434
X130.607Y-88.214
X130.607Y-90.754
X130.607Y-93.294
X93.834Y-90.59
X96.374Y-90.59
X98.914Y-90.59
X101.454Y-90.59
X105.74Y-52.095
X105.74Y-54.635
X93.834Y-96.279
X96.374Y-96.279
X98.914Y-96.279
X101.454Y-96.279
X112.852Y-80.899
X112.852Y-83.439
X71.628Y-109.271
X74.168Y-109.271
X76.708Y-109.271
X79.248Y-109.271
X136.169Y-98.476
X136.169Y-101.016
X136.169Y-103.556
X136.169Y-106.096
X118.872Y-109.271
X121.412Y-109.271
X123.952Y-109.271
X126.492Y-109.271
X87.401Y-109.271
X89.941Y-109.271
X92.481Y-109.271
X95.021Y-109.271
X115.697Y-88.24
X115.697Y-90.78
X115.697Y-93.32
X107.213Y-80.899
X107.213Y-83.439
X136.195Y-79.578
X136.195Y-82.118
X136.195Y-84.658
X118.516Y-88.24
X118.516Y-90.78
X118.516Y-93.32
X130.607Y-79.578
X130.607Y-82.118
X130.607Y-84.658
X133.401Y-79.578
X133.401Y-82.118
X133.401Y-84.658
X127.813Y-88.214
X127.813Y-90.754
X127.813Y-93.294
X100.99Y-65.735
X103.53Y-65.735
X106.07Y-65.735
X108.61Y-65.735
X111.15Y-65.735
X133.375Y-98.476
X133.375Y-101.016
X133.375Y-103.556
X133.375Y-106.096
X121.31Y-80.899
X121.31Y-83.439
X127.813Y-79.578
X127.813Y-82.118
X127.813Y-84.658
T5
X58.496Y-106.985
X58.496Y-110.485
X58.496Y-97.485
X58.496Y-100.985
X58.496Y-78.491
X58.496Y-81.991
X58.496Y-59.492
X58.496Y-62.992
X58.496Y-87.991
X58.496Y-91.491
X58.496Y-68.992
X58.496Y-72.492
T6
X116.995Y-60.525
X122.075Y-60.525
T7
X53.5Y-53.5
X53.5Y-116.5
X134.5Y-116.5
X134.5Y-53.5
T0
M30
