G04 #@! TF.GenerationSoftware,KiCad,Pcbnew,(5.1.4)-1*
G04 #@! TF.CreationDate,2020-03-20T17:35:00+01:00*
G04 #@! TF.ProjectId,stm32f446_actuators,73746d33-3266-4343-9436-5f6163747561,rev?*
G04 #@! TF.SameCoordinates,Original*
G04 #@! TF.FileFunction,Paste,Bot*
G04 #@! TF.FilePolarity,Positive*
%FSLAX46Y46*%
G04 Gerber Fmt 4.6, Leading zero omitted, Abs format (unit mm)*
G04 Created by KiCad (PCBNEW (5.1.4)-1) date 2020-03-20 17:35:00*
%MOMM*%
%LPD*%
G04 APERTURE LIST*
%ADD10C,0.100000*%
%ADD11C,0.975000*%
%ADD12R,2.750000X3.050000*%
%ADD13R,1.200000X2.200000*%
%ADD14R,3.050000X2.750000*%
%ADD15R,2.200000X1.200000*%
%ADD16R,1.800000X2.500000*%
%ADD17R,1.100000X4.600000*%
%ADD18R,5.250000X4.550000*%
%ADD19R,4.500000X2.000000*%
G04 APERTURE END LIST*
D10*
G36*
X60474942Y-102665374D02*
G01*
X60498603Y-102668884D01*
X60521807Y-102674696D01*
X60544329Y-102682754D01*
X60565953Y-102692982D01*
X60586470Y-102705279D01*
X60605683Y-102719529D01*
X60623407Y-102735593D01*
X60639471Y-102753317D01*
X60653721Y-102772530D01*
X60666018Y-102793047D01*
X60676246Y-102814671D01*
X60684304Y-102837193D01*
X60690116Y-102860397D01*
X60693626Y-102884058D01*
X60694800Y-102907950D01*
X60694800Y-103395450D01*
X60693626Y-103419342D01*
X60690116Y-103443003D01*
X60684304Y-103466207D01*
X60676246Y-103488729D01*
X60666018Y-103510353D01*
X60653721Y-103530870D01*
X60639471Y-103550083D01*
X60623407Y-103567807D01*
X60605683Y-103583871D01*
X60586470Y-103598121D01*
X60565953Y-103610418D01*
X60544329Y-103620646D01*
X60521807Y-103628704D01*
X60498603Y-103634516D01*
X60474942Y-103638026D01*
X60451050Y-103639200D01*
X59538550Y-103639200D01*
X59514658Y-103638026D01*
X59490997Y-103634516D01*
X59467793Y-103628704D01*
X59445271Y-103620646D01*
X59423647Y-103610418D01*
X59403130Y-103598121D01*
X59383917Y-103583871D01*
X59366193Y-103567807D01*
X59350129Y-103550083D01*
X59335879Y-103530870D01*
X59323582Y-103510353D01*
X59313354Y-103488729D01*
X59305296Y-103466207D01*
X59299484Y-103443003D01*
X59295974Y-103419342D01*
X59294800Y-103395450D01*
X59294800Y-102907950D01*
X59295974Y-102884058D01*
X59299484Y-102860397D01*
X59305296Y-102837193D01*
X59313354Y-102814671D01*
X59323582Y-102793047D01*
X59335879Y-102772530D01*
X59350129Y-102753317D01*
X59366193Y-102735593D01*
X59383917Y-102719529D01*
X59403130Y-102705279D01*
X59423647Y-102692982D01*
X59445271Y-102682754D01*
X59467793Y-102674696D01*
X59490997Y-102668884D01*
X59514658Y-102665374D01*
X59538550Y-102664200D01*
X60451050Y-102664200D01*
X60474942Y-102665374D01*
X60474942Y-102665374D01*
G37*
D11*
X59994800Y-103151700D03*
D10*
G36*
X60474942Y-104540374D02*
G01*
X60498603Y-104543884D01*
X60521807Y-104549696D01*
X60544329Y-104557754D01*
X60565953Y-104567982D01*
X60586470Y-104580279D01*
X60605683Y-104594529D01*
X60623407Y-104610593D01*
X60639471Y-104628317D01*
X60653721Y-104647530D01*
X60666018Y-104668047D01*
X60676246Y-104689671D01*
X60684304Y-104712193D01*
X60690116Y-104735397D01*
X60693626Y-104759058D01*
X60694800Y-104782950D01*
X60694800Y-105270450D01*
X60693626Y-105294342D01*
X60690116Y-105318003D01*
X60684304Y-105341207D01*
X60676246Y-105363729D01*
X60666018Y-105385353D01*
X60653721Y-105405870D01*
X60639471Y-105425083D01*
X60623407Y-105442807D01*
X60605683Y-105458871D01*
X60586470Y-105473121D01*
X60565953Y-105485418D01*
X60544329Y-105495646D01*
X60521807Y-105503704D01*
X60498603Y-105509516D01*
X60474942Y-105513026D01*
X60451050Y-105514200D01*
X59538550Y-105514200D01*
X59514658Y-105513026D01*
X59490997Y-105509516D01*
X59467793Y-105503704D01*
X59445271Y-105495646D01*
X59423647Y-105485418D01*
X59403130Y-105473121D01*
X59383917Y-105458871D01*
X59366193Y-105442807D01*
X59350129Y-105425083D01*
X59335879Y-105405870D01*
X59323582Y-105385353D01*
X59313354Y-105363729D01*
X59305296Y-105341207D01*
X59299484Y-105318003D01*
X59295974Y-105294342D01*
X59294800Y-105270450D01*
X59294800Y-104782950D01*
X59295974Y-104759058D01*
X59299484Y-104735397D01*
X59305296Y-104712193D01*
X59313354Y-104689671D01*
X59323582Y-104668047D01*
X59335879Y-104647530D01*
X59350129Y-104628317D01*
X59366193Y-104610593D01*
X59383917Y-104594529D01*
X59403130Y-104580279D01*
X59423647Y-104567982D01*
X59445271Y-104557754D01*
X59467793Y-104549696D01*
X59490997Y-104543884D01*
X59514658Y-104540374D01*
X59538550Y-104539200D01*
X60451050Y-104539200D01*
X60474942Y-104540374D01*
X60474942Y-104540374D01*
G37*
D11*
X59994800Y-105026700D03*
D10*
G36*
X60322542Y-93114974D02*
G01*
X60346203Y-93118484D01*
X60369407Y-93124296D01*
X60391929Y-93132354D01*
X60413553Y-93142582D01*
X60434070Y-93154879D01*
X60453283Y-93169129D01*
X60471007Y-93185193D01*
X60487071Y-93202917D01*
X60501321Y-93222130D01*
X60513618Y-93242647D01*
X60523846Y-93264271D01*
X60531904Y-93286793D01*
X60537716Y-93309997D01*
X60541226Y-93333658D01*
X60542400Y-93357550D01*
X60542400Y-93845050D01*
X60541226Y-93868942D01*
X60537716Y-93892603D01*
X60531904Y-93915807D01*
X60523846Y-93938329D01*
X60513618Y-93959953D01*
X60501321Y-93980470D01*
X60487071Y-93999683D01*
X60471007Y-94017407D01*
X60453283Y-94033471D01*
X60434070Y-94047721D01*
X60413553Y-94060018D01*
X60391929Y-94070246D01*
X60369407Y-94078304D01*
X60346203Y-94084116D01*
X60322542Y-94087626D01*
X60298650Y-94088800D01*
X59386150Y-94088800D01*
X59362258Y-94087626D01*
X59338597Y-94084116D01*
X59315393Y-94078304D01*
X59292871Y-94070246D01*
X59271247Y-94060018D01*
X59250730Y-94047721D01*
X59231517Y-94033471D01*
X59213793Y-94017407D01*
X59197729Y-93999683D01*
X59183479Y-93980470D01*
X59171182Y-93959953D01*
X59160954Y-93938329D01*
X59152896Y-93915807D01*
X59147084Y-93892603D01*
X59143574Y-93868942D01*
X59142400Y-93845050D01*
X59142400Y-93357550D01*
X59143574Y-93333658D01*
X59147084Y-93309997D01*
X59152896Y-93286793D01*
X59160954Y-93264271D01*
X59171182Y-93242647D01*
X59183479Y-93222130D01*
X59197729Y-93202917D01*
X59213793Y-93185193D01*
X59231517Y-93169129D01*
X59250730Y-93154879D01*
X59271247Y-93142582D01*
X59292871Y-93132354D01*
X59315393Y-93124296D01*
X59338597Y-93118484D01*
X59362258Y-93114974D01*
X59386150Y-93113800D01*
X60298650Y-93113800D01*
X60322542Y-93114974D01*
X60322542Y-93114974D01*
G37*
D11*
X59842400Y-93601300D03*
D10*
G36*
X60322542Y-94989974D02*
G01*
X60346203Y-94993484D01*
X60369407Y-94999296D01*
X60391929Y-95007354D01*
X60413553Y-95017582D01*
X60434070Y-95029879D01*
X60453283Y-95044129D01*
X60471007Y-95060193D01*
X60487071Y-95077917D01*
X60501321Y-95097130D01*
X60513618Y-95117647D01*
X60523846Y-95139271D01*
X60531904Y-95161793D01*
X60537716Y-95184997D01*
X60541226Y-95208658D01*
X60542400Y-95232550D01*
X60542400Y-95720050D01*
X60541226Y-95743942D01*
X60537716Y-95767603D01*
X60531904Y-95790807D01*
X60523846Y-95813329D01*
X60513618Y-95834953D01*
X60501321Y-95855470D01*
X60487071Y-95874683D01*
X60471007Y-95892407D01*
X60453283Y-95908471D01*
X60434070Y-95922721D01*
X60413553Y-95935018D01*
X60391929Y-95945246D01*
X60369407Y-95953304D01*
X60346203Y-95959116D01*
X60322542Y-95962626D01*
X60298650Y-95963800D01*
X59386150Y-95963800D01*
X59362258Y-95962626D01*
X59338597Y-95959116D01*
X59315393Y-95953304D01*
X59292871Y-95945246D01*
X59271247Y-95935018D01*
X59250730Y-95922721D01*
X59231517Y-95908471D01*
X59213793Y-95892407D01*
X59197729Y-95874683D01*
X59183479Y-95855470D01*
X59171182Y-95834953D01*
X59160954Y-95813329D01*
X59152896Y-95790807D01*
X59147084Y-95767603D01*
X59143574Y-95743942D01*
X59142400Y-95720050D01*
X59142400Y-95232550D01*
X59143574Y-95208658D01*
X59147084Y-95184997D01*
X59152896Y-95161793D01*
X59160954Y-95139271D01*
X59171182Y-95117647D01*
X59183479Y-95097130D01*
X59197729Y-95077917D01*
X59213793Y-95060193D01*
X59231517Y-95044129D01*
X59250730Y-95029879D01*
X59271247Y-95017582D01*
X59292871Y-95007354D01*
X59315393Y-94999296D01*
X59338597Y-94993484D01*
X59362258Y-94989974D01*
X59386150Y-94988800D01*
X60298650Y-94988800D01*
X60322542Y-94989974D01*
X60322542Y-94989974D01*
G37*
D11*
X59842400Y-95476300D03*
D10*
G36*
X69715842Y-84873774D02*
G01*
X69739503Y-84877284D01*
X69762707Y-84883096D01*
X69785229Y-84891154D01*
X69806853Y-84901382D01*
X69827370Y-84913679D01*
X69846583Y-84927929D01*
X69864307Y-84943993D01*
X69880371Y-84961717D01*
X69894621Y-84980930D01*
X69906918Y-85001447D01*
X69917146Y-85023071D01*
X69925204Y-85045593D01*
X69931016Y-85068797D01*
X69934526Y-85092458D01*
X69935700Y-85116350D01*
X69935700Y-86028850D01*
X69934526Y-86052742D01*
X69931016Y-86076403D01*
X69925204Y-86099607D01*
X69917146Y-86122129D01*
X69906918Y-86143753D01*
X69894621Y-86164270D01*
X69880371Y-86183483D01*
X69864307Y-86201207D01*
X69846583Y-86217271D01*
X69827370Y-86231521D01*
X69806853Y-86243818D01*
X69785229Y-86254046D01*
X69762707Y-86262104D01*
X69739503Y-86267916D01*
X69715842Y-86271426D01*
X69691950Y-86272600D01*
X69204450Y-86272600D01*
X69180558Y-86271426D01*
X69156897Y-86267916D01*
X69133693Y-86262104D01*
X69111171Y-86254046D01*
X69089547Y-86243818D01*
X69069030Y-86231521D01*
X69049817Y-86217271D01*
X69032093Y-86201207D01*
X69016029Y-86183483D01*
X69001779Y-86164270D01*
X68989482Y-86143753D01*
X68979254Y-86122129D01*
X68971196Y-86099607D01*
X68965384Y-86076403D01*
X68961874Y-86052742D01*
X68960700Y-86028850D01*
X68960700Y-85116350D01*
X68961874Y-85092458D01*
X68965384Y-85068797D01*
X68971196Y-85045593D01*
X68979254Y-85023071D01*
X68989482Y-85001447D01*
X69001779Y-84980930D01*
X69016029Y-84961717D01*
X69032093Y-84943993D01*
X69049817Y-84927929D01*
X69069030Y-84913679D01*
X69089547Y-84901382D01*
X69111171Y-84891154D01*
X69133693Y-84883096D01*
X69156897Y-84877284D01*
X69180558Y-84873774D01*
X69204450Y-84872600D01*
X69691950Y-84872600D01*
X69715842Y-84873774D01*
X69715842Y-84873774D01*
G37*
D11*
X69448200Y-85572600D03*
D10*
G36*
X71590842Y-84873774D02*
G01*
X71614503Y-84877284D01*
X71637707Y-84883096D01*
X71660229Y-84891154D01*
X71681853Y-84901382D01*
X71702370Y-84913679D01*
X71721583Y-84927929D01*
X71739307Y-84943993D01*
X71755371Y-84961717D01*
X71769621Y-84980930D01*
X71781918Y-85001447D01*
X71792146Y-85023071D01*
X71800204Y-85045593D01*
X71806016Y-85068797D01*
X71809526Y-85092458D01*
X71810700Y-85116350D01*
X71810700Y-86028850D01*
X71809526Y-86052742D01*
X71806016Y-86076403D01*
X71800204Y-86099607D01*
X71792146Y-86122129D01*
X71781918Y-86143753D01*
X71769621Y-86164270D01*
X71755371Y-86183483D01*
X71739307Y-86201207D01*
X71721583Y-86217271D01*
X71702370Y-86231521D01*
X71681853Y-86243818D01*
X71660229Y-86254046D01*
X71637707Y-86262104D01*
X71614503Y-86267916D01*
X71590842Y-86271426D01*
X71566950Y-86272600D01*
X71079450Y-86272600D01*
X71055558Y-86271426D01*
X71031897Y-86267916D01*
X71008693Y-86262104D01*
X70986171Y-86254046D01*
X70964547Y-86243818D01*
X70944030Y-86231521D01*
X70924817Y-86217271D01*
X70907093Y-86201207D01*
X70891029Y-86183483D01*
X70876779Y-86164270D01*
X70864482Y-86143753D01*
X70854254Y-86122129D01*
X70846196Y-86099607D01*
X70840384Y-86076403D01*
X70836874Y-86052742D01*
X70835700Y-86028850D01*
X70835700Y-85116350D01*
X70836874Y-85092458D01*
X70840384Y-85068797D01*
X70846196Y-85045593D01*
X70854254Y-85023071D01*
X70864482Y-85001447D01*
X70876779Y-84980930D01*
X70891029Y-84961717D01*
X70907093Y-84943993D01*
X70924817Y-84927929D01*
X70944030Y-84913679D01*
X70964547Y-84901382D01*
X70986171Y-84891154D01*
X71008693Y-84883096D01*
X71031897Y-84877284D01*
X71055558Y-84873774D01*
X71079450Y-84872600D01*
X71566950Y-84872600D01*
X71590842Y-84873774D01*
X71590842Y-84873774D01*
G37*
D11*
X71323200Y-85572600D03*
D10*
G36*
X69967542Y-75120174D02*
G01*
X69991203Y-75123684D01*
X70014407Y-75129496D01*
X70036929Y-75137554D01*
X70058553Y-75147782D01*
X70079070Y-75160079D01*
X70098283Y-75174329D01*
X70116007Y-75190393D01*
X70132071Y-75208117D01*
X70146321Y-75227330D01*
X70158618Y-75247847D01*
X70168846Y-75269471D01*
X70176904Y-75291993D01*
X70182716Y-75315197D01*
X70186226Y-75338858D01*
X70187400Y-75362750D01*
X70187400Y-76275250D01*
X70186226Y-76299142D01*
X70182716Y-76322803D01*
X70176904Y-76346007D01*
X70168846Y-76368529D01*
X70158618Y-76390153D01*
X70146321Y-76410670D01*
X70132071Y-76429883D01*
X70116007Y-76447607D01*
X70098283Y-76463671D01*
X70079070Y-76477921D01*
X70058553Y-76490218D01*
X70036929Y-76500446D01*
X70014407Y-76508504D01*
X69991203Y-76514316D01*
X69967542Y-76517826D01*
X69943650Y-76519000D01*
X69456150Y-76519000D01*
X69432258Y-76517826D01*
X69408597Y-76514316D01*
X69385393Y-76508504D01*
X69362871Y-76500446D01*
X69341247Y-76490218D01*
X69320730Y-76477921D01*
X69301517Y-76463671D01*
X69283793Y-76447607D01*
X69267729Y-76429883D01*
X69253479Y-76410670D01*
X69241182Y-76390153D01*
X69230954Y-76368529D01*
X69222896Y-76346007D01*
X69217084Y-76322803D01*
X69213574Y-76299142D01*
X69212400Y-76275250D01*
X69212400Y-75362750D01*
X69213574Y-75338858D01*
X69217084Y-75315197D01*
X69222896Y-75291993D01*
X69230954Y-75269471D01*
X69241182Y-75247847D01*
X69253479Y-75227330D01*
X69267729Y-75208117D01*
X69283793Y-75190393D01*
X69301517Y-75174329D01*
X69320730Y-75160079D01*
X69341247Y-75147782D01*
X69362871Y-75137554D01*
X69385393Y-75129496D01*
X69408597Y-75123684D01*
X69432258Y-75120174D01*
X69456150Y-75119000D01*
X69943650Y-75119000D01*
X69967542Y-75120174D01*
X69967542Y-75120174D01*
G37*
D11*
X69699900Y-75819000D03*
D10*
G36*
X71842542Y-75120174D02*
G01*
X71866203Y-75123684D01*
X71889407Y-75129496D01*
X71911929Y-75137554D01*
X71933553Y-75147782D01*
X71954070Y-75160079D01*
X71973283Y-75174329D01*
X71991007Y-75190393D01*
X72007071Y-75208117D01*
X72021321Y-75227330D01*
X72033618Y-75247847D01*
X72043846Y-75269471D01*
X72051904Y-75291993D01*
X72057716Y-75315197D01*
X72061226Y-75338858D01*
X72062400Y-75362750D01*
X72062400Y-76275250D01*
X72061226Y-76299142D01*
X72057716Y-76322803D01*
X72051904Y-76346007D01*
X72043846Y-76368529D01*
X72033618Y-76390153D01*
X72021321Y-76410670D01*
X72007071Y-76429883D01*
X71991007Y-76447607D01*
X71973283Y-76463671D01*
X71954070Y-76477921D01*
X71933553Y-76490218D01*
X71911929Y-76500446D01*
X71889407Y-76508504D01*
X71866203Y-76514316D01*
X71842542Y-76517826D01*
X71818650Y-76519000D01*
X71331150Y-76519000D01*
X71307258Y-76517826D01*
X71283597Y-76514316D01*
X71260393Y-76508504D01*
X71237871Y-76500446D01*
X71216247Y-76490218D01*
X71195730Y-76477921D01*
X71176517Y-76463671D01*
X71158793Y-76447607D01*
X71142729Y-76429883D01*
X71128479Y-76410670D01*
X71116182Y-76390153D01*
X71105954Y-76368529D01*
X71097896Y-76346007D01*
X71092084Y-76322803D01*
X71088574Y-76299142D01*
X71087400Y-76275250D01*
X71087400Y-75362750D01*
X71088574Y-75338858D01*
X71092084Y-75315197D01*
X71097896Y-75291993D01*
X71105954Y-75269471D01*
X71116182Y-75247847D01*
X71128479Y-75227330D01*
X71142729Y-75208117D01*
X71158793Y-75190393D01*
X71176517Y-75174329D01*
X71195730Y-75160079D01*
X71216247Y-75147782D01*
X71237871Y-75137554D01*
X71260393Y-75129496D01*
X71283597Y-75123684D01*
X71307258Y-75120174D01*
X71331150Y-75119000D01*
X71818650Y-75119000D01*
X71842542Y-75120174D01*
X71842542Y-75120174D01*
G37*
D11*
X71574900Y-75819000D03*
D10*
G36*
X69535742Y-65620574D02*
G01*
X69559403Y-65624084D01*
X69582607Y-65629896D01*
X69605129Y-65637954D01*
X69626753Y-65648182D01*
X69647270Y-65660479D01*
X69666483Y-65674729D01*
X69684207Y-65690793D01*
X69700271Y-65708517D01*
X69714521Y-65727730D01*
X69726818Y-65748247D01*
X69737046Y-65769871D01*
X69745104Y-65792393D01*
X69750916Y-65815597D01*
X69754426Y-65839258D01*
X69755600Y-65863150D01*
X69755600Y-66775650D01*
X69754426Y-66799542D01*
X69750916Y-66823203D01*
X69745104Y-66846407D01*
X69737046Y-66868929D01*
X69726818Y-66890553D01*
X69714521Y-66911070D01*
X69700271Y-66930283D01*
X69684207Y-66948007D01*
X69666483Y-66964071D01*
X69647270Y-66978321D01*
X69626753Y-66990618D01*
X69605129Y-67000846D01*
X69582607Y-67008904D01*
X69559403Y-67014716D01*
X69535742Y-67018226D01*
X69511850Y-67019400D01*
X69024350Y-67019400D01*
X69000458Y-67018226D01*
X68976797Y-67014716D01*
X68953593Y-67008904D01*
X68931071Y-67000846D01*
X68909447Y-66990618D01*
X68888930Y-66978321D01*
X68869717Y-66964071D01*
X68851993Y-66948007D01*
X68835929Y-66930283D01*
X68821679Y-66911070D01*
X68809382Y-66890553D01*
X68799154Y-66868929D01*
X68791096Y-66846407D01*
X68785284Y-66823203D01*
X68781774Y-66799542D01*
X68780600Y-66775650D01*
X68780600Y-65863150D01*
X68781774Y-65839258D01*
X68785284Y-65815597D01*
X68791096Y-65792393D01*
X68799154Y-65769871D01*
X68809382Y-65748247D01*
X68821679Y-65727730D01*
X68835929Y-65708517D01*
X68851993Y-65690793D01*
X68869717Y-65674729D01*
X68888930Y-65660479D01*
X68909447Y-65648182D01*
X68931071Y-65637954D01*
X68953593Y-65629896D01*
X68976797Y-65624084D01*
X69000458Y-65620574D01*
X69024350Y-65619400D01*
X69511850Y-65619400D01*
X69535742Y-65620574D01*
X69535742Y-65620574D01*
G37*
D11*
X69268100Y-66319400D03*
D10*
G36*
X71410742Y-65620574D02*
G01*
X71434403Y-65624084D01*
X71457607Y-65629896D01*
X71480129Y-65637954D01*
X71501753Y-65648182D01*
X71522270Y-65660479D01*
X71541483Y-65674729D01*
X71559207Y-65690793D01*
X71575271Y-65708517D01*
X71589521Y-65727730D01*
X71601818Y-65748247D01*
X71612046Y-65769871D01*
X71620104Y-65792393D01*
X71625916Y-65815597D01*
X71629426Y-65839258D01*
X71630600Y-65863150D01*
X71630600Y-66775650D01*
X71629426Y-66799542D01*
X71625916Y-66823203D01*
X71620104Y-66846407D01*
X71612046Y-66868929D01*
X71601818Y-66890553D01*
X71589521Y-66911070D01*
X71575271Y-66930283D01*
X71559207Y-66948007D01*
X71541483Y-66964071D01*
X71522270Y-66978321D01*
X71501753Y-66990618D01*
X71480129Y-67000846D01*
X71457607Y-67008904D01*
X71434403Y-67014716D01*
X71410742Y-67018226D01*
X71386850Y-67019400D01*
X70899350Y-67019400D01*
X70875458Y-67018226D01*
X70851797Y-67014716D01*
X70828593Y-67008904D01*
X70806071Y-67000846D01*
X70784447Y-66990618D01*
X70763930Y-66978321D01*
X70744717Y-66964071D01*
X70726993Y-66948007D01*
X70710929Y-66930283D01*
X70696679Y-66911070D01*
X70684382Y-66890553D01*
X70674154Y-66868929D01*
X70666096Y-66846407D01*
X70660284Y-66823203D01*
X70656774Y-66799542D01*
X70655600Y-66775650D01*
X70655600Y-65863150D01*
X70656774Y-65839258D01*
X70660284Y-65815597D01*
X70666096Y-65792393D01*
X70674154Y-65769871D01*
X70684382Y-65748247D01*
X70696679Y-65727730D01*
X70710929Y-65708517D01*
X70726993Y-65690793D01*
X70744717Y-65674729D01*
X70763930Y-65660479D01*
X70784447Y-65648182D01*
X70806071Y-65637954D01*
X70828593Y-65629896D01*
X70851797Y-65624084D01*
X70875458Y-65620574D01*
X70899350Y-65619400D01*
X71386850Y-65619400D01*
X71410742Y-65620574D01*
X71410742Y-65620574D01*
G37*
D11*
X71143100Y-66319400D03*
D10*
G36*
X69535742Y-56120974D02*
G01*
X69559403Y-56124484D01*
X69582607Y-56130296D01*
X69605129Y-56138354D01*
X69626753Y-56148582D01*
X69647270Y-56160879D01*
X69666483Y-56175129D01*
X69684207Y-56191193D01*
X69700271Y-56208917D01*
X69714521Y-56228130D01*
X69726818Y-56248647D01*
X69737046Y-56270271D01*
X69745104Y-56292793D01*
X69750916Y-56315997D01*
X69754426Y-56339658D01*
X69755600Y-56363550D01*
X69755600Y-57276050D01*
X69754426Y-57299942D01*
X69750916Y-57323603D01*
X69745104Y-57346807D01*
X69737046Y-57369329D01*
X69726818Y-57390953D01*
X69714521Y-57411470D01*
X69700271Y-57430683D01*
X69684207Y-57448407D01*
X69666483Y-57464471D01*
X69647270Y-57478721D01*
X69626753Y-57491018D01*
X69605129Y-57501246D01*
X69582607Y-57509304D01*
X69559403Y-57515116D01*
X69535742Y-57518626D01*
X69511850Y-57519800D01*
X69024350Y-57519800D01*
X69000458Y-57518626D01*
X68976797Y-57515116D01*
X68953593Y-57509304D01*
X68931071Y-57501246D01*
X68909447Y-57491018D01*
X68888930Y-57478721D01*
X68869717Y-57464471D01*
X68851993Y-57448407D01*
X68835929Y-57430683D01*
X68821679Y-57411470D01*
X68809382Y-57390953D01*
X68799154Y-57369329D01*
X68791096Y-57346807D01*
X68785284Y-57323603D01*
X68781774Y-57299942D01*
X68780600Y-57276050D01*
X68780600Y-56363550D01*
X68781774Y-56339658D01*
X68785284Y-56315997D01*
X68791096Y-56292793D01*
X68799154Y-56270271D01*
X68809382Y-56248647D01*
X68821679Y-56228130D01*
X68835929Y-56208917D01*
X68851993Y-56191193D01*
X68869717Y-56175129D01*
X68888930Y-56160879D01*
X68909447Y-56148582D01*
X68931071Y-56138354D01*
X68953593Y-56130296D01*
X68976797Y-56124484D01*
X69000458Y-56120974D01*
X69024350Y-56119800D01*
X69511850Y-56119800D01*
X69535742Y-56120974D01*
X69535742Y-56120974D01*
G37*
D11*
X69268100Y-56819800D03*
D10*
G36*
X71410742Y-56120974D02*
G01*
X71434403Y-56124484D01*
X71457607Y-56130296D01*
X71480129Y-56138354D01*
X71501753Y-56148582D01*
X71522270Y-56160879D01*
X71541483Y-56175129D01*
X71559207Y-56191193D01*
X71575271Y-56208917D01*
X71589521Y-56228130D01*
X71601818Y-56248647D01*
X71612046Y-56270271D01*
X71620104Y-56292793D01*
X71625916Y-56315997D01*
X71629426Y-56339658D01*
X71630600Y-56363550D01*
X71630600Y-57276050D01*
X71629426Y-57299942D01*
X71625916Y-57323603D01*
X71620104Y-57346807D01*
X71612046Y-57369329D01*
X71601818Y-57390953D01*
X71589521Y-57411470D01*
X71575271Y-57430683D01*
X71559207Y-57448407D01*
X71541483Y-57464471D01*
X71522270Y-57478721D01*
X71501753Y-57491018D01*
X71480129Y-57501246D01*
X71457607Y-57509304D01*
X71434403Y-57515116D01*
X71410742Y-57518626D01*
X71386850Y-57519800D01*
X70899350Y-57519800D01*
X70875458Y-57518626D01*
X70851797Y-57515116D01*
X70828593Y-57509304D01*
X70806071Y-57501246D01*
X70784447Y-57491018D01*
X70763930Y-57478721D01*
X70744717Y-57464471D01*
X70726993Y-57448407D01*
X70710929Y-57430683D01*
X70696679Y-57411470D01*
X70684382Y-57390953D01*
X70674154Y-57369329D01*
X70666096Y-57346807D01*
X70660284Y-57323603D01*
X70656774Y-57299942D01*
X70655600Y-57276050D01*
X70655600Y-56363550D01*
X70656774Y-56339658D01*
X70660284Y-56315997D01*
X70666096Y-56292793D01*
X70674154Y-56270271D01*
X70684382Y-56248647D01*
X70696679Y-56228130D01*
X70710929Y-56208917D01*
X70726993Y-56191193D01*
X70744717Y-56175129D01*
X70763930Y-56160879D01*
X70784447Y-56148582D01*
X70806071Y-56138354D01*
X70828593Y-56130296D01*
X70851797Y-56124484D01*
X70875458Y-56120974D01*
X70899350Y-56119800D01*
X71386850Y-56119800D01*
X71410742Y-56120974D01*
X71410742Y-56120974D01*
G37*
D11*
X71143100Y-56819800D03*
D12*
X65863200Y-110305400D03*
X62813200Y-113655400D03*
X62813200Y-110305400D03*
X65863200Y-113655400D03*
D13*
X66618200Y-105680400D03*
X62058200Y-105680400D03*
D12*
X65863200Y-99205600D03*
X62813200Y-102555600D03*
X62813200Y-99205600D03*
X65863200Y-102555600D03*
D13*
X66618200Y-94580600D03*
X62058200Y-94580600D03*
D14*
X65919800Y-91288600D03*
X62569800Y-88238600D03*
X65919800Y-88238600D03*
X62569800Y-91288600D03*
D15*
X70544800Y-92043600D03*
X70544800Y-87483600D03*
D14*
X65919800Y-81789000D03*
X62569800Y-78739000D03*
X65919800Y-78739000D03*
X62569800Y-81789000D03*
D15*
X70544800Y-82544000D03*
X70544800Y-77984000D03*
D14*
X65919800Y-72289400D03*
X62569800Y-69239400D03*
X65919800Y-69239400D03*
X62569800Y-72289400D03*
D15*
X70544800Y-73044400D03*
X70544800Y-68484400D03*
D14*
X65919800Y-62789800D03*
X62569800Y-59739800D03*
X65919800Y-59739800D03*
X62569800Y-62789800D03*
D15*
X70544800Y-63544800D03*
X70544800Y-58984800D03*
D16*
X54737000Y-106737400D03*
X54737000Y-110737400D03*
X54762400Y-97237800D03*
X54762400Y-101237800D03*
X54762400Y-87763600D03*
X54762400Y-91763600D03*
X54762400Y-78264000D03*
X54762400Y-82264000D03*
X54762400Y-68764400D03*
X54762400Y-72764400D03*
X54762400Y-59264800D03*
X54762400Y-63264800D03*
D17*
X128400600Y-59960200D03*
X130100600Y-59960200D03*
X131800600Y-59960200D03*
X133500600Y-59960200D03*
X135200600Y-59960200D03*
D18*
X134575600Y-71535200D03*
X129025600Y-66685200D03*
X129025600Y-71535200D03*
X134575600Y-66685200D03*
D10*
G36*
X92345542Y-81155674D02*
G01*
X92369203Y-81159184D01*
X92392407Y-81164996D01*
X92414929Y-81173054D01*
X92436553Y-81183282D01*
X92457070Y-81195579D01*
X92476283Y-81209829D01*
X92494007Y-81225893D01*
X92510071Y-81243617D01*
X92524321Y-81262830D01*
X92536618Y-81283347D01*
X92546846Y-81304971D01*
X92554904Y-81327493D01*
X92560716Y-81350697D01*
X92564226Y-81374358D01*
X92565400Y-81398250D01*
X92565400Y-81885750D01*
X92564226Y-81909642D01*
X92560716Y-81933303D01*
X92554904Y-81956507D01*
X92546846Y-81979029D01*
X92536618Y-82000653D01*
X92524321Y-82021170D01*
X92510071Y-82040383D01*
X92494007Y-82058107D01*
X92476283Y-82074171D01*
X92457070Y-82088421D01*
X92436553Y-82100718D01*
X92414929Y-82110946D01*
X92392407Y-82119004D01*
X92369203Y-82124816D01*
X92345542Y-82128326D01*
X92321650Y-82129500D01*
X91409150Y-82129500D01*
X91385258Y-82128326D01*
X91361597Y-82124816D01*
X91338393Y-82119004D01*
X91315871Y-82110946D01*
X91294247Y-82100718D01*
X91273730Y-82088421D01*
X91254517Y-82074171D01*
X91236793Y-82058107D01*
X91220729Y-82040383D01*
X91206479Y-82021170D01*
X91194182Y-82000653D01*
X91183954Y-81979029D01*
X91175896Y-81956507D01*
X91170084Y-81933303D01*
X91166574Y-81909642D01*
X91165400Y-81885750D01*
X91165400Y-81398250D01*
X91166574Y-81374358D01*
X91170084Y-81350697D01*
X91175896Y-81327493D01*
X91183954Y-81304971D01*
X91194182Y-81283347D01*
X91206479Y-81262830D01*
X91220729Y-81243617D01*
X91236793Y-81225893D01*
X91254517Y-81209829D01*
X91273730Y-81195579D01*
X91294247Y-81183282D01*
X91315871Y-81173054D01*
X91338393Y-81164996D01*
X91361597Y-81159184D01*
X91385258Y-81155674D01*
X91409150Y-81154500D01*
X92321650Y-81154500D01*
X92345542Y-81155674D01*
X92345542Y-81155674D01*
G37*
D11*
X91865400Y-81642000D03*
D10*
G36*
X92345542Y-79280674D02*
G01*
X92369203Y-79284184D01*
X92392407Y-79289996D01*
X92414929Y-79298054D01*
X92436553Y-79308282D01*
X92457070Y-79320579D01*
X92476283Y-79334829D01*
X92494007Y-79350893D01*
X92510071Y-79368617D01*
X92524321Y-79387830D01*
X92536618Y-79408347D01*
X92546846Y-79429971D01*
X92554904Y-79452493D01*
X92560716Y-79475697D01*
X92564226Y-79499358D01*
X92565400Y-79523250D01*
X92565400Y-80010750D01*
X92564226Y-80034642D01*
X92560716Y-80058303D01*
X92554904Y-80081507D01*
X92546846Y-80104029D01*
X92536618Y-80125653D01*
X92524321Y-80146170D01*
X92510071Y-80165383D01*
X92494007Y-80183107D01*
X92476283Y-80199171D01*
X92457070Y-80213421D01*
X92436553Y-80225718D01*
X92414929Y-80235946D01*
X92392407Y-80244004D01*
X92369203Y-80249816D01*
X92345542Y-80253326D01*
X92321650Y-80254500D01*
X91409150Y-80254500D01*
X91385258Y-80253326D01*
X91361597Y-80249816D01*
X91338393Y-80244004D01*
X91315871Y-80235946D01*
X91294247Y-80225718D01*
X91273730Y-80213421D01*
X91254517Y-80199171D01*
X91236793Y-80183107D01*
X91220729Y-80165383D01*
X91206479Y-80146170D01*
X91194182Y-80125653D01*
X91183954Y-80104029D01*
X91175896Y-80081507D01*
X91170084Y-80058303D01*
X91166574Y-80034642D01*
X91165400Y-80010750D01*
X91165400Y-79523250D01*
X91166574Y-79499358D01*
X91170084Y-79475697D01*
X91175896Y-79452493D01*
X91183954Y-79429971D01*
X91194182Y-79408347D01*
X91206479Y-79387830D01*
X91220729Y-79368617D01*
X91236793Y-79350893D01*
X91254517Y-79334829D01*
X91273730Y-79320579D01*
X91294247Y-79308282D01*
X91315871Y-79298054D01*
X91338393Y-79289996D01*
X91361597Y-79284184D01*
X91385258Y-79280674D01*
X91409150Y-79279500D01*
X92321650Y-79279500D01*
X92345542Y-79280674D01*
X92345542Y-79280674D01*
G37*
D11*
X91865400Y-79767000D03*
D10*
G36*
X88719742Y-79297374D02*
G01*
X88743403Y-79300884D01*
X88766607Y-79306696D01*
X88789129Y-79314754D01*
X88810753Y-79324982D01*
X88831270Y-79337279D01*
X88850483Y-79351529D01*
X88868207Y-79367593D01*
X88884271Y-79385317D01*
X88898521Y-79404530D01*
X88910818Y-79425047D01*
X88921046Y-79446671D01*
X88929104Y-79469193D01*
X88934916Y-79492397D01*
X88938426Y-79516058D01*
X88939600Y-79539950D01*
X88939600Y-80027450D01*
X88938426Y-80051342D01*
X88934916Y-80075003D01*
X88929104Y-80098207D01*
X88921046Y-80120729D01*
X88910818Y-80142353D01*
X88898521Y-80162870D01*
X88884271Y-80182083D01*
X88868207Y-80199807D01*
X88850483Y-80215871D01*
X88831270Y-80230121D01*
X88810753Y-80242418D01*
X88789129Y-80252646D01*
X88766607Y-80260704D01*
X88743403Y-80266516D01*
X88719742Y-80270026D01*
X88695850Y-80271200D01*
X87783350Y-80271200D01*
X87759458Y-80270026D01*
X87735797Y-80266516D01*
X87712593Y-80260704D01*
X87690071Y-80252646D01*
X87668447Y-80242418D01*
X87647930Y-80230121D01*
X87628717Y-80215871D01*
X87610993Y-80199807D01*
X87594929Y-80182083D01*
X87580679Y-80162870D01*
X87568382Y-80142353D01*
X87558154Y-80120729D01*
X87550096Y-80098207D01*
X87544284Y-80075003D01*
X87540774Y-80051342D01*
X87539600Y-80027450D01*
X87539600Y-79539950D01*
X87540774Y-79516058D01*
X87544284Y-79492397D01*
X87550096Y-79469193D01*
X87558154Y-79446671D01*
X87568382Y-79425047D01*
X87580679Y-79404530D01*
X87594929Y-79385317D01*
X87610993Y-79367593D01*
X87628717Y-79351529D01*
X87647930Y-79337279D01*
X87668447Y-79324982D01*
X87690071Y-79314754D01*
X87712593Y-79306696D01*
X87735797Y-79300884D01*
X87759458Y-79297374D01*
X87783350Y-79296200D01*
X88695850Y-79296200D01*
X88719742Y-79297374D01*
X88719742Y-79297374D01*
G37*
D11*
X88239600Y-79783700D03*
D10*
G36*
X88719742Y-81172374D02*
G01*
X88743403Y-81175884D01*
X88766607Y-81181696D01*
X88789129Y-81189754D01*
X88810753Y-81199982D01*
X88831270Y-81212279D01*
X88850483Y-81226529D01*
X88868207Y-81242593D01*
X88884271Y-81260317D01*
X88898521Y-81279530D01*
X88910818Y-81300047D01*
X88921046Y-81321671D01*
X88929104Y-81344193D01*
X88934916Y-81367397D01*
X88938426Y-81391058D01*
X88939600Y-81414950D01*
X88939600Y-81902450D01*
X88938426Y-81926342D01*
X88934916Y-81950003D01*
X88929104Y-81973207D01*
X88921046Y-81995729D01*
X88910818Y-82017353D01*
X88898521Y-82037870D01*
X88884271Y-82057083D01*
X88868207Y-82074807D01*
X88850483Y-82090871D01*
X88831270Y-82105121D01*
X88810753Y-82117418D01*
X88789129Y-82127646D01*
X88766607Y-82135704D01*
X88743403Y-82141516D01*
X88719742Y-82145026D01*
X88695850Y-82146200D01*
X87783350Y-82146200D01*
X87759458Y-82145026D01*
X87735797Y-82141516D01*
X87712593Y-82135704D01*
X87690071Y-82127646D01*
X87668447Y-82117418D01*
X87647930Y-82105121D01*
X87628717Y-82090871D01*
X87610993Y-82074807D01*
X87594929Y-82057083D01*
X87580679Y-82037870D01*
X87568382Y-82017353D01*
X87558154Y-81995729D01*
X87550096Y-81973207D01*
X87544284Y-81950003D01*
X87540774Y-81926342D01*
X87539600Y-81902450D01*
X87539600Y-81414950D01*
X87540774Y-81391058D01*
X87544284Y-81367397D01*
X87550096Y-81344193D01*
X87558154Y-81321671D01*
X87568382Y-81300047D01*
X87580679Y-81279530D01*
X87594929Y-81260317D01*
X87610993Y-81242593D01*
X87628717Y-81226529D01*
X87647930Y-81212279D01*
X87668447Y-81199982D01*
X87690071Y-81189754D01*
X87712593Y-81181696D01*
X87735797Y-81175884D01*
X87759458Y-81172374D01*
X87783350Y-81171200D01*
X88695850Y-81171200D01*
X88719742Y-81172374D01*
X88719742Y-81172374D01*
G37*
D11*
X88239600Y-81658700D03*
D10*
G36*
X90545542Y-79280674D02*
G01*
X90569203Y-79284184D01*
X90592407Y-79289996D01*
X90614929Y-79298054D01*
X90636553Y-79308282D01*
X90657070Y-79320579D01*
X90676283Y-79334829D01*
X90694007Y-79350893D01*
X90710071Y-79368617D01*
X90724321Y-79387830D01*
X90736618Y-79408347D01*
X90746846Y-79429971D01*
X90754904Y-79452493D01*
X90760716Y-79475697D01*
X90764226Y-79499358D01*
X90765400Y-79523250D01*
X90765400Y-80010750D01*
X90764226Y-80034642D01*
X90760716Y-80058303D01*
X90754904Y-80081507D01*
X90746846Y-80104029D01*
X90736618Y-80125653D01*
X90724321Y-80146170D01*
X90710071Y-80165383D01*
X90694007Y-80183107D01*
X90676283Y-80199171D01*
X90657070Y-80213421D01*
X90636553Y-80225718D01*
X90614929Y-80235946D01*
X90592407Y-80244004D01*
X90569203Y-80249816D01*
X90545542Y-80253326D01*
X90521650Y-80254500D01*
X89609150Y-80254500D01*
X89585258Y-80253326D01*
X89561597Y-80249816D01*
X89538393Y-80244004D01*
X89515871Y-80235946D01*
X89494247Y-80225718D01*
X89473730Y-80213421D01*
X89454517Y-80199171D01*
X89436793Y-80183107D01*
X89420729Y-80165383D01*
X89406479Y-80146170D01*
X89394182Y-80125653D01*
X89383954Y-80104029D01*
X89375896Y-80081507D01*
X89370084Y-80058303D01*
X89366574Y-80034642D01*
X89365400Y-80010750D01*
X89365400Y-79523250D01*
X89366574Y-79499358D01*
X89370084Y-79475697D01*
X89375896Y-79452493D01*
X89383954Y-79429971D01*
X89394182Y-79408347D01*
X89406479Y-79387830D01*
X89420729Y-79368617D01*
X89436793Y-79350893D01*
X89454517Y-79334829D01*
X89473730Y-79320579D01*
X89494247Y-79308282D01*
X89515871Y-79298054D01*
X89538393Y-79289996D01*
X89561597Y-79284184D01*
X89585258Y-79280674D01*
X89609150Y-79279500D01*
X90521650Y-79279500D01*
X90545542Y-79280674D01*
X90545542Y-79280674D01*
G37*
D11*
X90065400Y-79767000D03*
D10*
G36*
X90545542Y-81155674D02*
G01*
X90569203Y-81159184D01*
X90592407Y-81164996D01*
X90614929Y-81173054D01*
X90636553Y-81183282D01*
X90657070Y-81195579D01*
X90676283Y-81209829D01*
X90694007Y-81225893D01*
X90710071Y-81243617D01*
X90724321Y-81262830D01*
X90736618Y-81283347D01*
X90746846Y-81304971D01*
X90754904Y-81327493D01*
X90760716Y-81350697D01*
X90764226Y-81374358D01*
X90765400Y-81398250D01*
X90765400Y-81885750D01*
X90764226Y-81909642D01*
X90760716Y-81933303D01*
X90754904Y-81956507D01*
X90746846Y-81979029D01*
X90736618Y-82000653D01*
X90724321Y-82021170D01*
X90710071Y-82040383D01*
X90694007Y-82058107D01*
X90676283Y-82074171D01*
X90657070Y-82088421D01*
X90636553Y-82100718D01*
X90614929Y-82110946D01*
X90592407Y-82119004D01*
X90569203Y-82124816D01*
X90545542Y-82128326D01*
X90521650Y-82129500D01*
X89609150Y-82129500D01*
X89585258Y-82128326D01*
X89561597Y-82124816D01*
X89538393Y-82119004D01*
X89515871Y-82110946D01*
X89494247Y-82100718D01*
X89473730Y-82088421D01*
X89454517Y-82074171D01*
X89436793Y-82058107D01*
X89420729Y-82040383D01*
X89406479Y-82021170D01*
X89394182Y-82000653D01*
X89383954Y-81979029D01*
X89375896Y-81956507D01*
X89370084Y-81933303D01*
X89366574Y-81909642D01*
X89365400Y-81885750D01*
X89365400Y-81398250D01*
X89366574Y-81374358D01*
X89370084Y-81350697D01*
X89375896Y-81327493D01*
X89383954Y-81304971D01*
X89394182Y-81283347D01*
X89406479Y-81262830D01*
X89420729Y-81243617D01*
X89436793Y-81225893D01*
X89454517Y-81209829D01*
X89473730Y-81195579D01*
X89494247Y-81183282D01*
X89515871Y-81173054D01*
X89538393Y-81164996D01*
X89561597Y-81159184D01*
X89585258Y-81155674D01*
X89609150Y-81154500D01*
X90521650Y-81154500D01*
X90545542Y-81155674D01*
X90545542Y-81155674D01*
G37*
D11*
X90065400Y-81642000D03*
D10*
G36*
X99300142Y-80423674D02*
G01*
X99323803Y-80427184D01*
X99347007Y-80432996D01*
X99369529Y-80441054D01*
X99391153Y-80451282D01*
X99411670Y-80463579D01*
X99430883Y-80477829D01*
X99448607Y-80493893D01*
X99464671Y-80511617D01*
X99478921Y-80530830D01*
X99491218Y-80551347D01*
X99501446Y-80572971D01*
X99509504Y-80595493D01*
X99515316Y-80618697D01*
X99518826Y-80642358D01*
X99520000Y-80666250D01*
X99520000Y-81153750D01*
X99518826Y-81177642D01*
X99515316Y-81201303D01*
X99509504Y-81224507D01*
X99501446Y-81247029D01*
X99491218Y-81268653D01*
X99478921Y-81289170D01*
X99464671Y-81308383D01*
X99448607Y-81326107D01*
X99430883Y-81342171D01*
X99411670Y-81356421D01*
X99391153Y-81368718D01*
X99369529Y-81378946D01*
X99347007Y-81387004D01*
X99323803Y-81392816D01*
X99300142Y-81396326D01*
X99276250Y-81397500D01*
X98363750Y-81397500D01*
X98339858Y-81396326D01*
X98316197Y-81392816D01*
X98292993Y-81387004D01*
X98270471Y-81378946D01*
X98248847Y-81368718D01*
X98228330Y-81356421D01*
X98209117Y-81342171D01*
X98191393Y-81326107D01*
X98175329Y-81308383D01*
X98161079Y-81289170D01*
X98148782Y-81268653D01*
X98138554Y-81247029D01*
X98130496Y-81224507D01*
X98124684Y-81201303D01*
X98121174Y-81177642D01*
X98120000Y-81153750D01*
X98120000Y-80666250D01*
X98121174Y-80642358D01*
X98124684Y-80618697D01*
X98130496Y-80595493D01*
X98138554Y-80572971D01*
X98148782Y-80551347D01*
X98161079Y-80530830D01*
X98175329Y-80511617D01*
X98191393Y-80493893D01*
X98209117Y-80477829D01*
X98228330Y-80463579D01*
X98248847Y-80451282D01*
X98270471Y-80441054D01*
X98292993Y-80432996D01*
X98316197Y-80427184D01*
X98339858Y-80423674D01*
X98363750Y-80422500D01*
X99276250Y-80422500D01*
X99300142Y-80423674D01*
X99300142Y-80423674D01*
G37*
D11*
X98820000Y-80910000D03*
D10*
G36*
X99300142Y-82298674D02*
G01*
X99323803Y-82302184D01*
X99347007Y-82307996D01*
X99369529Y-82316054D01*
X99391153Y-82326282D01*
X99411670Y-82338579D01*
X99430883Y-82352829D01*
X99448607Y-82368893D01*
X99464671Y-82386617D01*
X99478921Y-82405830D01*
X99491218Y-82426347D01*
X99501446Y-82447971D01*
X99509504Y-82470493D01*
X99515316Y-82493697D01*
X99518826Y-82517358D01*
X99520000Y-82541250D01*
X99520000Y-83028750D01*
X99518826Y-83052642D01*
X99515316Y-83076303D01*
X99509504Y-83099507D01*
X99501446Y-83122029D01*
X99491218Y-83143653D01*
X99478921Y-83164170D01*
X99464671Y-83183383D01*
X99448607Y-83201107D01*
X99430883Y-83217171D01*
X99411670Y-83231421D01*
X99391153Y-83243718D01*
X99369529Y-83253946D01*
X99347007Y-83262004D01*
X99323803Y-83267816D01*
X99300142Y-83271326D01*
X99276250Y-83272500D01*
X98363750Y-83272500D01*
X98339858Y-83271326D01*
X98316197Y-83267816D01*
X98292993Y-83262004D01*
X98270471Y-83253946D01*
X98248847Y-83243718D01*
X98228330Y-83231421D01*
X98209117Y-83217171D01*
X98191393Y-83201107D01*
X98175329Y-83183383D01*
X98161079Y-83164170D01*
X98148782Y-83143653D01*
X98138554Y-83122029D01*
X98130496Y-83099507D01*
X98124684Y-83076303D01*
X98121174Y-83052642D01*
X98120000Y-83028750D01*
X98120000Y-82541250D01*
X98121174Y-82517358D01*
X98124684Y-82493697D01*
X98130496Y-82470493D01*
X98138554Y-82447971D01*
X98148782Y-82426347D01*
X98161079Y-82405830D01*
X98175329Y-82386617D01*
X98191393Y-82368893D01*
X98209117Y-82352829D01*
X98228330Y-82338579D01*
X98248847Y-82326282D01*
X98270471Y-82316054D01*
X98292993Y-82307996D01*
X98316197Y-82302184D01*
X98339858Y-82298674D01*
X98363750Y-82297500D01*
X99276250Y-82297500D01*
X99300142Y-82298674D01*
X99300142Y-82298674D01*
G37*
D11*
X98820000Y-82785000D03*
D10*
G36*
X97400142Y-82298674D02*
G01*
X97423803Y-82302184D01*
X97447007Y-82307996D01*
X97469529Y-82316054D01*
X97491153Y-82326282D01*
X97511670Y-82338579D01*
X97530883Y-82352829D01*
X97548607Y-82368893D01*
X97564671Y-82386617D01*
X97578921Y-82405830D01*
X97591218Y-82426347D01*
X97601446Y-82447971D01*
X97609504Y-82470493D01*
X97615316Y-82493697D01*
X97618826Y-82517358D01*
X97620000Y-82541250D01*
X97620000Y-83028750D01*
X97618826Y-83052642D01*
X97615316Y-83076303D01*
X97609504Y-83099507D01*
X97601446Y-83122029D01*
X97591218Y-83143653D01*
X97578921Y-83164170D01*
X97564671Y-83183383D01*
X97548607Y-83201107D01*
X97530883Y-83217171D01*
X97511670Y-83231421D01*
X97491153Y-83243718D01*
X97469529Y-83253946D01*
X97447007Y-83262004D01*
X97423803Y-83267816D01*
X97400142Y-83271326D01*
X97376250Y-83272500D01*
X96463750Y-83272500D01*
X96439858Y-83271326D01*
X96416197Y-83267816D01*
X96392993Y-83262004D01*
X96370471Y-83253946D01*
X96348847Y-83243718D01*
X96328330Y-83231421D01*
X96309117Y-83217171D01*
X96291393Y-83201107D01*
X96275329Y-83183383D01*
X96261079Y-83164170D01*
X96248782Y-83143653D01*
X96238554Y-83122029D01*
X96230496Y-83099507D01*
X96224684Y-83076303D01*
X96221174Y-83052642D01*
X96220000Y-83028750D01*
X96220000Y-82541250D01*
X96221174Y-82517358D01*
X96224684Y-82493697D01*
X96230496Y-82470493D01*
X96238554Y-82447971D01*
X96248782Y-82426347D01*
X96261079Y-82405830D01*
X96275329Y-82386617D01*
X96291393Y-82368893D01*
X96309117Y-82352829D01*
X96328330Y-82338579D01*
X96348847Y-82326282D01*
X96370471Y-82316054D01*
X96392993Y-82307996D01*
X96416197Y-82302184D01*
X96439858Y-82298674D01*
X96463750Y-82297500D01*
X97376250Y-82297500D01*
X97400142Y-82298674D01*
X97400142Y-82298674D01*
G37*
D11*
X96920000Y-82785000D03*
D10*
G36*
X97400142Y-80423674D02*
G01*
X97423803Y-80427184D01*
X97447007Y-80432996D01*
X97469529Y-80441054D01*
X97491153Y-80451282D01*
X97511670Y-80463579D01*
X97530883Y-80477829D01*
X97548607Y-80493893D01*
X97564671Y-80511617D01*
X97578921Y-80530830D01*
X97591218Y-80551347D01*
X97601446Y-80572971D01*
X97609504Y-80595493D01*
X97615316Y-80618697D01*
X97618826Y-80642358D01*
X97620000Y-80666250D01*
X97620000Y-81153750D01*
X97618826Y-81177642D01*
X97615316Y-81201303D01*
X97609504Y-81224507D01*
X97601446Y-81247029D01*
X97591218Y-81268653D01*
X97578921Y-81289170D01*
X97564671Y-81308383D01*
X97548607Y-81326107D01*
X97530883Y-81342171D01*
X97511670Y-81356421D01*
X97491153Y-81368718D01*
X97469529Y-81378946D01*
X97447007Y-81387004D01*
X97423803Y-81392816D01*
X97400142Y-81396326D01*
X97376250Y-81397500D01*
X96463750Y-81397500D01*
X96439858Y-81396326D01*
X96416197Y-81392816D01*
X96392993Y-81387004D01*
X96370471Y-81378946D01*
X96348847Y-81368718D01*
X96328330Y-81356421D01*
X96309117Y-81342171D01*
X96291393Y-81326107D01*
X96275329Y-81308383D01*
X96261079Y-81289170D01*
X96248782Y-81268653D01*
X96238554Y-81247029D01*
X96230496Y-81224507D01*
X96224684Y-81201303D01*
X96221174Y-81177642D01*
X96220000Y-81153750D01*
X96220000Y-80666250D01*
X96221174Y-80642358D01*
X96224684Y-80618697D01*
X96230496Y-80595493D01*
X96238554Y-80572971D01*
X96248782Y-80551347D01*
X96261079Y-80530830D01*
X96275329Y-80511617D01*
X96291393Y-80493893D01*
X96309117Y-80477829D01*
X96328330Y-80463579D01*
X96348847Y-80451282D01*
X96370471Y-80441054D01*
X96392993Y-80432996D01*
X96416197Y-80427184D01*
X96439858Y-80423674D01*
X96463750Y-80422500D01*
X97376250Y-80422500D01*
X97400142Y-80423674D01*
X97400142Y-80423674D01*
G37*
D11*
X96920000Y-80910000D03*
D19*
X85810000Y-85060000D03*
X94310000Y-85060000D03*
D10*
G36*
X107788142Y-94601974D02*
G01*
X107811803Y-94605484D01*
X107835007Y-94611296D01*
X107857529Y-94619354D01*
X107879153Y-94629582D01*
X107899670Y-94641879D01*
X107918883Y-94656129D01*
X107936607Y-94672193D01*
X107952671Y-94689917D01*
X107966921Y-94709130D01*
X107979218Y-94729647D01*
X107989446Y-94751271D01*
X107997504Y-94773793D01*
X108003316Y-94796997D01*
X108006826Y-94820658D01*
X108008000Y-94844550D01*
X108008000Y-95757050D01*
X108006826Y-95780942D01*
X108003316Y-95804603D01*
X107997504Y-95827807D01*
X107989446Y-95850329D01*
X107979218Y-95871953D01*
X107966921Y-95892470D01*
X107952671Y-95911683D01*
X107936607Y-95929407D01*
X107918883Y-95945471D01*
X107899670Y-95959721D01*
X107879153Y-95972018D01*
X107857529Y-95982246D01*
X107835007Y-95990304D01*
X107811803Y-95996116D01*
X107788142Y-95999626D01*
X107764250Y-96000800D01*
X107276750Y-96000800D01*
X107252858Y-95999626D01*
X107229197Y-95996116D01*
X107205993Y-95990304D01*
X107183471Y-95982246D01*
X107161847Y-95972018D01*
X107141330Y-95959721D01*
X107122117Y-95945471D01*
X107104393Y-95929407D01*
X107088329Y-95911683D01*
X107074079Y-95892470D01*
X107061782Y-95871953D01*
X107051554Y-95850329D01*
X107043496Y-95827807D01*
X107037684Y-95804603D01*
X107034174Y-95780942D01*
X107033000Y-95757050D01*
X107033000Y-94844550D01*
X107034174Y-94820658D01*
X107037684Y-94796997D01*
X107043496Y-94773793D01*
X107051554Y-94751271D01*
X107061782Y-94729647D01*
X107074079Y-94709130D01*
X107088329Y-94689917D01*
X107104393Y-94672193D01*
X107122117Y-94656129D01*
X107141330Y-94641879D01*
X107161847Y-94629582D01*
X107183471Y-94619354D01*
X107205993Y-94611296D01*
X107229197Y-94605484D01*
X107252858Y-94601974D01*
X107276750Y-94600800D01*
X107764250Y-94600800D01*
X107788142Y-94601974D01*
X107788142Y-94601974D01*
G37*
D11*
X107520500Y-95300800D03*
D10*
G36*
X109663142Y-94601974D02*
G01*
X109686803Y-94605484D01*
X109710007Y-94611296D01*
X109732529Y-94619354D01*
X109754153Y-94629582D01*
X109774670Y-94641879D01*
X109793883Y-94656129D01*
X109811607Y-94672193D01*
X109827671Y-94689917D01*
X109841921Y-94709130D01*
X109854218Y-94729647D01*
X109864446Y-94751271D01*
X109872504Y-94773793D01*
X109878316Y-94796997D01*
X109881826Y-94820658D01*
X109883000Y-94844550D01*
X109883000Y-95757050D01*
X109881826Y-95780942D01*
X109878316Y-95804603D01*
X109872504Y-95827807D01*
X109864446Y-95850329D01*
X109854218Y-95871953D01*
X109841921Y-95892470D01*
X109827671Y-95911683D01*
X109811607Y-95929407D01*
X109793883Y-95945471D01*
X109774670Y-95959721D01*
X109754153Y-95972018D01*
X109732529Y-95982246D01*
X109710007Y-95990304D01*
X109686803Y-95996116D01*
X109663142Y-95999626D01*
X109639250Y-96000800D01*
X109151750Y-96000800D01*
X109127858Y-95999626D01*
X109104197Y-95996116D01*
X109080993Y-95990304D01*
X109058471Y-95982246D01*
X109036847Y-95972018D01*
X109016330Y-95959721D01*
X108997117Y-95945471D01*
X108979393Y-95929407D01*
X108963329Y-95911683D01*
X108949079Y-95892470D01*
X108936782Y-95871953D01*
X108926554Y-95850329D01*
X108918496Y-95827807D01*
X108912684Y-95804603D01*
X108909174Y-95780942D01*
X108908000Y-95757050D01*
X108908000Y-94844550D01*
X108909174Y-94820658D01*
X108912684Y-94796997D01*
X108918496Y-94773793D01*
X108926554Y-94751271D01*
X108936782Y-94729647D01*
X108949079Y-94709130D01*
X108963329Y-94689917D01*
X108979393Y-94672193D01*
X108997117Y-94656129D01*
X109016330Y-94641879D01*
X109036847Y-94629582D01*
X109058471Y-94619354D01*
X109080993Y-94611296D01*
X109104197Y-94605484D01*
X109127858Y-94601974D01*
X109151750Y-94600800D01*
X109639250Y-94600800D01*
X109663142Y-94601974D01*
X109663142Y-94601974D01*
G37*
D11*
X109395500Y-95300800D03*
D10*
G36*
X107788142Y-96506974D02*
G01*
X107811803Y-96510484D01*
X107835007Y-96516296D01*
X107857529Y-96524354D01*
X107879153Y-96534582D01*
X107899670Y-96546879D01*
X107918883Y-96561129D01*
X107936607Y-96577193D01*
X107952671Y-96594917D01*
X107966921Y-96614130D01*
X107979218Y-96634647D01*
X107989446Y-96656271D01*
X107997504Y-96678793D01*
X108003316Y-96701997D01*
X108006826Y-96725658D01*
X108008000Y-96749550D01*
X108008000Y-97662050D01*
X108006826Y-97685942D01*
X108003316Y-97709603D01*
X107997504Y-97732807D01*
X107989446Y-97755329D01*
X107979218Y-97776953D01*
X107966921Y-97797470D01*
X107952671Y-97816683D01*
X107936607Y-97834407D01*
X107918883Y-97850471D01*
X107899670Y-97864721D01*
X107879153Y-97877018D01*
X107857529Y-97887246D01*
X107835007Y-97895304D01*
X107811803Y-97901116D01*
X107788142Y-97904626D01*
X107764250Y-97905800D01*
X107276750Y-97905800D01*
X107252858Y-97904626D01*
X107229197Y-97901116D01*
X107205993Y-97895304D01*
X107183471Y-97887246D01*
X107161847Y-97877018D01*
X107141330Y-97864721D01*
X107122117Y-97850471D01*
X107104393Y-97834407D01*
X107088329Y-97816683D01*
X107074079Y-97797470D01*
X107061782Y-97776953D01*
X107051554Y-97755329D01*
X107043496Y-97732807D01*
X107037684Y-97709603D01*
X107034174Y-97685942D01*
X107033000Y-97662050D01*
X107033000Y-96749550D01*
X107034174Y-96725658D01*
X107037684Y-96701997D01*
X107043496Y-96678793D01*
X107051554Y-96656271D01*
X107061782Y-96634647D01*
X107074079Y-96614130D01*
X107088329Y-96594917D01*
X107104393Y-96577193D01*
X107122117Y-96561129D01*
X107141330Y-96546879D01*
X107161847Y-96534582D01*
X107183471Y-96524354D01*
X107205993Y-96516296D01*
X107229197Y-96510484D01*
X107252858Y-96506974D01*
X107276750Y-96505800D01*
X107764250Y-96505800D01*
X107788142Y-96506974D01*
X107788142Y-96506974D01*
G37*
D11*
X107520500Y-97205800D03*
D10*
G36*
X109663142Y-96506974D02*
G01*
X109686803Y-96510484D01*
X109710007Y-96516296D01*
X109732529Y-96524354D01*
X109754153Y-96534582D01*
X109774670Y-96546879D01*
X109793883Y-96561129D01*
X109811607Y-96577193D01*
X109827671Y-96594917D01*
X109841921Y-96614130D01*
X109854218Y-96634647D01*
X109864446Y-96656271D01*
X109872504Y-96678793D01*
X109878316Y-96701997D01*
X109881826Y-96725658D01*
X109883000Y-96749550D01*
X109883000Y-97662050D01*
X109881826Y-97685942D01*
X109878316Y-97709603D01*
X109872504Y-97732807D01*
X109864446Y-97755329D01*
X109854218Y-97776953D01*
X109841921Y-97797470D01*
X109827671Y-97816683D01*
X109811607Y-97834407D01*
X109793883Y-97850471D01*
X109774670Y-97864721D01*
X109754153Y-97877018D01*
X109732529Y-97887246D01*
X109710007Y-97895304D01*
X109686803Y-97901116D01*
X109663142Y-97904626D01*
X109639250Y-97905800D01*
X109151750Y-97905800D01*
X109127858Y-97904626D01*
X109104197Y-97901116D01*
X109080993Y-97895304D01*
X109058471Y-97887246D01*
X109036847Y-97877018D01*
X109016330Y-97864721D01*
X108997117Y-97850471D01*
X108979393Y-97834407D01*
X108963329Y-97816683D01*
X108949079Y-97797470D01*
X108936782Y-97776953D01*
X108926554Y-97755329D01*
X108918496Y-97732807D01*
X108912684Y-97709603D01*
X108909174Y-97685942D01*
X108908000Y-97662050D01*
X108908000Y-96749550D01*
X108909174Y-96725658D01*
X108912684Y-96701997D01*
X108918496Y-96678793D01*
X108926554Y-96656271D01*
X108936782Y-96634647D01*
X108949079Y-96614130D01*
X108963329Y-96594917D01*
X108979393Y-96577193D01*
X108997117Y-96561129D01*
X109016330Y-96546879D01*
X109036847Y-96534582D01*
X109058471Y-96524354D01*
X109080993Y-96516296D01*
X109104197Y-96510484D01*
X109127858Y-96506974D01*
X109151750Y-96505800D01*
X109639250Y-96505800D01*
X109663142Y-96506974D01*
X109663142Y-96506974D01*
G37*
D11*
X109395500Y-97205800D03*
D10*
G36*
X111166342Y-94601974D02*
G01*
X111190003Y-94605484D01*
X111213207Y-94611296D01*
X111235729Y-94619354D01*
X111257353Y-94629582D01*
X111277870Y-94641879D01*
X111297083Y-94656129D01*
X111314807Y-94672193D01*
X111330871Y-94689917D01*
X111345121Y-94709130D01*
X111357418Y-94729647D01*
X111367646Y-94751271D01*
X111375704Y-94773793D01*
X111381516Y-94796997D01*
X111385026Y-94820658D01*
X111386200Y-94844550D01*
X111386200Y-95757050D01*
X111385026Y-95780942D01*
X111381516Y-95804603D01*
X111375704Y-95827807D01*
X111367646Y-95850329D01*
X111357418Y-95871953D01*
X111345121Y-95892470D01*
X111330871Y-95911683D01*
X111314807Y-95929407D01*
X111297083Y-95945471D01*
X111277870Y-95959721D01*
X111257353Y-95972018D01*
X111235729Y-95982246D01*
X111213207Y-95990304D01*
X111190003Y-95996116D01*
X111166342Y-95999626D01*
X111142450Y-96000800D01*
X110654950Y-96000800D01*
X110631058Y-95999626D01*
X110607397Y-95996116D01*
X110584193Y-95990304D01*
X110561671Y-95982246D01*
X110540047Y-95972018D01*
X110519530Y-95959721D01*
X110500317Y-95945471D01*
X110482593Y-95929407D01*
X110466529Y-95911683D01*
X110452279Y-95892470D01*
X110439982Y-95871953D01*
X110429754Y-95850329D01*
X110421696Y-95827807D01*
X110415884Y-95804603D01*
X110412374Y-95780942D01*
X110411200Y-95757050D01*
X110411200Y-94844550D01*
X110412374Y-94820658D01*
X110415884Y-94796997D01*
X110421696Y-94773793D01*
X110429754Y-94751271D01*
X110439982Y-94729647D01*
X110452279Y-94709130D01*
X110466529Y-94689917D01*
X110482593Y-94672193D01*
X110500317Y-94656129D01*
X110519530Y-94641879D01*
X110540047Y-94629582D01*
X110561671Y-94619354D01*
X110584193Y-94611296D01*
X110607397Y-94605484D01*
X110631058Y-94601974D01*
X110654950Y-94600800D01*
X111142450Y-94600800D01*
X111166342Y-94601974D01*
X111166342Y-94601974D01*
G37*
D11*
X110898700Y-95300800D03*
D10*
G36*
X113041342Y-94601974D02*
G01*
X113065003Y-94605484D01*
X113088207Y-94611296D01*
X113110729Y-94619354D01*
X113132353Y-94629582D01*
X113152870Y-94641879D01*
X113172083Y-94656129D01*
X113189807Y-94672193D01*
X113205871Y-94689917D01*
X113220121Y-94709130D01*
X113232418Y-94729647D01*
X113242646Y-94751271D01*
X113250704Y-94773793D01*
X113256516Y-94796997D01*
X113260026Y-94820658D01*
X113261200Y-94844550D01*
X113261200Y-95757050D01*
X113260026Y-95780942D01*
X113256516Y-95804603D01*
X113250704Y-95827807D01*
X113242646Y-95850329D01*
X113232418Y-95871953D01*
X113220121Y-95892470D01*
X113205871Y-95911683D01*
X113189807Y-95929407D01*
X113172083Y-95945471D01*
X113152870Y-95959721D01*
X113132353Y-95972018D01*
X113110729Y-95982246D01*
X113088207Y-95990304D01*
X113065003Y-95996116D01*
X113041342Y-95999626D01*
X113017450Y-96000800D01*
X112529950Y-96000800D01*
X112506058Y-95999626D01*
X112482397Y-95996116D01*
X112459193Y-95990304D01*
X112436671Y-95982246D01*
X112415047Y-95972018D01*
X112394530Y-95959721D01*
X112375317Y-95945471D01*
X112357593Y-95929407D01*
X112341529Y-95911683D01*
X112327279Y-95892470D01*
X112314982Y-95871953D01*
X112304754Y-95850329D01*
X112296696Y-95827807D01*
X112290884Y-95804603D01*
X112287374Y-95780942D01*
X112286200Y-95757050D01*
X112286200Y-94844550D01*
X112287374Y-94820658D01*
X112290884Y-94796997D01*
X112296696Y-94773793D01*
X112304754Y-94751271D01*
X112314982Y-94729647D01*
X112327279Y-94709130D01*
X112341529Y-94689917D01*
X112357593Y-94672193D01*
X112375317Y-94656129D01*
X112394530Y-94641879D01*
X112415047Y-94629582D01*
X112436671Y-94619354D01*
X112459193Y-94611296D01*
X112482397Y-94605484D01*
X112506058Y-94601974D01*
X112529950Y-94600800D01*
X113017450Y-94600800D01*
X113041342Y-94601974D01*
X113041342Y-94601974D01*
G37*
D11*
X112773700Y-95300800D03*
D10*
G36*
X117922742Y-94601974D02*
G01*
X117946403Y-94605484D01*
X117969607Y-94611296D01*
X117992129Y-94619354D01*
X118013753Y-94629582D01*
X118034270Y-94641879D01*
X118053483Y-94656129D01*
X118071207Y-94672193D01*
X118087271Y-94689917D01*
X118101521Y-94709130D01*
X118113818Y-94729647D01*
X118124046Y-94751271D01*
X118132104Y-94773793D01*
X118137916Y-94796997D01*
X118141426Y-94820658D01*
X118142600Y-94844550D01*
X118142600Y-95757050D01*
X118141426Y-95780942D01*
X118137916Y-95804603D01*
X118132104Y-95827807D01*
X118124046Y-95850329D01*
X118113818Y-95871953D01*
X118101521Y-95892470D01*
X118087271Y-95911683D01*
X118071207Y-95929407D01*
X118053483Y-95945471D01*
X118034270Y-95959721D01*
X118013753Y-95972018D01*
X117992129Y-95982246D01*
X117969607Y-95990304D01*
X117946403Y-95996116D01*
X117922742Y-95999626D01*
X117898850Y-96000800D01*
X117411350Y-96000800D01*
X117387458Y-95999626D01*
X117363797Y-95996116D01*
X117340593Y-95990304D01*
X117318071Y-95982246D01*
X117296447Y-95972018D01*
X117275930Y-95959721D01*
X117256717Y-95945471D01*
X117238993Y-95929407D01*
X117222929Y-95911683D01*
X117208679Y-95892470D01*
X117196382Y-95871953D01*
X117186154Y-95850329D01*
X117178096Y-95827807D01*
X117172284Y-95804603D01*
X117168774Y-95780942D01*
X117167600Y-95757050D01*
X117167600Y-94844550D01*
X117168774Y-94820658D01*
X117172284Y-94796997D01*
X117178096Y-94773793D01*
X117186154Y-94751271D01*
X117196382Y-94729647D01*
X117208679Y-94709130D01*
X117222929Y-94689917D01*
X117238993Y-94672193D01*
X117256717Y-94656129D01*
X117275930Y-94641879D01*
X117296447Y-94629582D01*
X117318071Y-94619354D01*
X117340593Y-94611296D01*
X117363797Y-94605484D01*
X117387458Y-94601974D01*
X117411350Y-94600800D01*
X117898850Y-94600800D01*
X117922742Y-94601974D01*
X117922742Y-94601974D01*
G37*
D11*
X117655100Y-95300800D03*
D10*
G36*
X119797742Y-94601974D02*
G01*
X119821403Y-94605484D01*
X119844607Y-94611296D01*
X119867129Y-94619354D01*
X119888753Y-94629582D01*
X119909270Y-94641879D01*
X119928483Y-94656129D01*
X119946207Y-94672193D01*
X119962271Y-94689917D01*
X119976521Y-94709130D01*
X119988818Y-94729647D01*
X119999046Y-94751271D01*
X120007104Y-94773793D01*
X120012916Y-94796997D01*
X120016426Y-94820658D01*
X120017600Y-94844550D01*
X120017600Y-95757050D01*
X120016426Y-95780942D01*
X120012916Y-95804603D01*
X120007104Y-95827807D01*
X119999046Y-95850329D01*
X119988818Y-95871953D01*
X119976521Y-95892470D01*
X119962271Y-95911683D01*
X119946207Y-95929407D01*
X119928483Y-95945471D01*
X119909270Y-95959721D01*
X119888753Y-95972018D01*
X119867129Y-95982246D01*
X119844607Y-95990304D01*
X119821403Y-95996116D01*
X119797742Y-95999626D01*
X119773850Y-96000800D01*
X119286350Y-96000800D01*
X119262458Y-95999626D01*
X119238797Y-95996116D01*
X119215593Y-95990304D01*
X119193071Y-95982246D01*
X119171447Y-95972018D01*
X119150930Y-95959721D01*
X119131717Y-95945471D01*
X119113993Y-95929407D01*
X119097929Y-95911683D01*
X119083679Y-95892470D01*
X119071382Y-95871953D01*
X119061154Y-95850329D01*
X119053096Y-95827807D01*
X119047284Y-95804603D01*
X119043774Y-95780942D01*
X119042600Y-95757050D01*
X119042600Y-94844550D01*
X119043774Y-94820658D01*
X119047284Y-94796997D01*
X119053096Y-94773793D01*
X119061154Y-94751271D01*
X119071382Y-94729647D01*
X119083679Y-94709130D01*
X119097929Y-94689917D01*
X119113993Y-94672193D01*
X119131717Y-94656129D01*
X119150930Y-94641879D01*
X119171447Y-94629582D01*
X119193071Y-94619354D01*
X119215593Y-94611296D01*
X119238797Y-94605484D01*
X119262458Y-94601974D01*
X119286350Y-94600800D01*
X119773850Y-94600800D01*
X119797742Y-94601974D01*
X119797742Y-94601974D01*
G37*
D11*
X119530100Y-95300800D03*
D10*
G36*
X111166342Y-96506974D02*
G01*
X111190003Y-96510484D01*
X111213207Y-96516296D01*
X111235729Y-96524354D01*
X111257353Y-96534582D01*
X111277870Y-96546879D01*
X111297083Y-96561129D01*
X111314807Y-96577193D01*
X111330871Y-96594917D01*
X111345121Y-96614130D01*
X111357418Y-96634647D01*
X111367646Y-96656271D01*
X111375704Y-96678793D01*
X111381516Y-96701997D01*
X111385026Y-96725658D01*
X111386200Y-96749550D01*
X111386200Y-97662050D01*
X111385026Y-97685942D01*
X111381516Y-97709603D01*
X111375704Y-97732807D01*
X111367646Y-97755329D01*
X111357418Y-97776953D01*
X111345121Y-97797470D01*
X111330871Y-97816683D01*
X111314807Y-97834407D01*
X111297083Y-97850471D01*
X111277870Y-97864721D01*
X111257353Y-97877018D01*
X111235729Y-97887246D01*
X111213207Y-97895304D01*
X111190003Y-97901116D01*
X111166342Y-97904626D01*
X111142450Y-97905800D01*
X110654950Y-97905800D01*
X110631058Y-97904626D01*
X110607397Y-97901116D01*
X110584193Y-97895304D01*
X110561671Y-97887246D01*
X110540047Y-97877018D01*
X110519530Y-97864721D01*
X110500317Y-97850471D01*
X110482593Y-97834407D01*
X110466529Y-97816683D01*
X110452279Y-97797470D01*
X110439982Y-97776953D01*
X110429754Y-97755329D01*
X110421696Y-97732807D01*
X110415884Y-97709603D01*
X110412374Y-97685942D01*
X110411200Y-97662050D01*
X110411200Y-96749550D01*
X110412374Y-96725658D01*
X110415884Y-96701997D01*
X110421696Y-96678793D01*
X110429754Y-96656271D01*
X110439982Y-96634647D01*
X110452279Y-96614130D01*
X110466529Y-96594917D01*
X110482593Y-96577193D01*
X110500317Y-96561129D01*
X110519530Y-96546879D01*
X110540047Y-96534582D01*
X110561671Y-96524354D01*
X110584193Y-96516296D01*
X110607397Y-96510484D01*
X110631058Y-96506974D01*
X110654950Y-96505800D01*
X111142450Y-96505800D01*
X111166342Y-96506974D01*
X111166342Y-96506974D01*
G37*
D11*
X110898700Y-97205800D03*
D10*
G36*
X113041342Y-96506974D02*
G01*
X113065003Y-96510484D01*
X113088207Y-96516296D01*
X113110729Y-96524354D01*
X113132353Y-96534582D01*
X113152870Y-96546879D01*
X113172083Y-96561129D01*
X113189807Y-96577193D01*
X113205871Y-96594917D01*
X113220121Y-96614130D01*
X113232418Y-96634647D01*
X113242646Y-96656271D01*
X113250704Y-96678793D01*
X113256516Y-96701997D01*
X113260026Y-96725658D01*
X113261200Y-96749550D01*
X113261200Y-97662050D01*
X113260026Y-97685942D01*
X113256516Y-97709603D01*
X113250704Y-97732807D01*
X113242646Y-97755329D01*
X113232418Y-97776953D01*
X113220121Y-97797470D01*
X113205871Y-97816683D01*
X113189807Y-97834407D01*
X113172083Y-97850471D01*
X113152870Y-97864721D01*
X113132353Y-97877018D01*
X113110729Y-97887246D01*
X113088207Y-97895304D01*
X113065003Y-97901116D01*
X113041342Y-97904626D01*
X113017450Y-97905800D01*
X112529950Y-97905800D01*
X112506058Y-97904626D01*
X112482397Y-97901116D01*
X112459193Y-97895304D01*
X112436671Y-97887246D01*
X112415047Y-97877018D01*
X112394530Y-97864721D01*
X112375317Y-97850471D01*
X112357593Y-97834407D01*
X112341529Y-97816683D01*
X112327279Y-97797470D01*
X112314982Y-97776953D01*
X112304754Y-97755329D01*
X112296696Y-97732807D01*
X112290884Y-97709603D01*
X112287374Y-97685942D01*
X112286200Y-97662050D01*
X112286200Y-96749550D01*
X112287374Y-96725658D01*
X112290884Y-96701997D01*
X112296696Y-96678793D01*
X112304754Y-96656271D01*
X112314982Y-96634647D01*
X112327279Y-96614130D01*
X112341529Y-96594917D01*
X112357593Y-96577193D01*
X112375317Y-96561129D01*
X112394530Y-96546879D01*
X112415047Y-96534582D01*
X112436671Y-96524354D01*
X112459193Y-96516296D01*
X112482397Y-96510484D01*
X112506058Y-96506974D01*
X112529950Y-96505800D01*
X113017450Y-96505800D01*
X113041342Y-96506974D01*
X113041342Y-96506974D01*
G37*
D11*
X112773700Y-97205800D03*
D10*
G36*
X117922742Y-96506974D02*
G01*
X117946403Y-96510484D01*
X117969607Y-96516296D01*
X117992129Y-96524354D01*
X118013753Y-96534582D01*
X118034270Y-96546879D01*
X118053483Y-96561129D01*
X118071207Y-96577193D01*
X118087271Y-96594917D01*
X118101521Y-96614130D01*
X118113818Y-96634647D01*
X118124046Y-96656271D01*
X118132104Y-96678793D01*
X118137916Y-96701997D01*
X118141426Y-96725658D01*
X118142600Y-96749550D01*
X118142600Y-97662050D01*
X118141426Y-97685942D01*
X118137916Y-97709603D01*
X118132104Y-97732807D01*
X118124046Y-97755329D01*
X118113818Y-97776953D01*
X118101521Y-97797470D01*
X118087271Y-97816683D01*
X118071207Y-97834407D01*
X118053483Y-97850471D01*
X118034270Y-97864721D01*
X118013753Y-97877018D01*
X117992129Y-97887246D01*
X117969607Y-97895304D01*
X117946403Y-97901116D01*
X117922742Y-97904626D01*
X117898850Y-97905800D01*
X117411350Y-97905800D01*
X117387458Y-97904626D01*
X117363797Y-97901116D01*
X117340593Y-97895304D01*
X117318071Y-97887246D01*
X117296447Y-97877018D01*
X117275930Y-97864721D01*
X117256717Y-97850471D01*
X117238993Y-97834407D01*
X117222929Y-97816683D01*
X117208679Y-97797470D01*
X117196382Y-97776953D01*
X117186154Y-97755329D01*
X117178096Y-97732807D01*
X117172284Y-97709603D01*
X117168774Y-97685942D01*
X117167600Y-97662050D01*
X117167600Y-96749550D01*
X117168774Y-96725658D01*
X117172284Y-96701997D01*
X117178096Y-96678793D01*
X117186154Y-96656271D01*
X117196382Y-96634647D01*
X117208679Y-96614130D01*
X117222929Y-96594917D01*
X117238993Y-96577193D01*
X117256717Y-96561129D01*
X117275930Y-96546879D01*
X117296447Y-96534582D01*
X117318071Y-96524354D01*
X117340593Y-96516296D01*
X117363797Y-96510484D01*
X117387458Y-96506974D01*
X117411350Y-96505800D01*
X117898850Y-96505800D01*
X117922742Y-96506974D01*
X117922742Y-96506974D01*
G37*
D11*
X117655100Y-97205800D03*
D10*
G36*
X119797742Y-96506974D02*
G01*
X119821403Y-96510484D01*
X119844607Y-96516296D01*
X119867129Y-96524354D01*
X119888753Y-96534582D01*
X119909270Y-96546879D01*
X119928483Y-96561129D01*
X119946207Y-96577193D01*
X119962271Y-96594917D01*
X119976521Y-96614130D01*
X119988818Y-96634647D01*
X119999046Y-96656271D01*
X120007104Y-96678793D01*
X120012916Y-96701997D01*
X120016426Y-96725658D01*
X120017600Y-96749550D01*
X120017600Y-97662050D01*
X120016426Y-97685942D01*
X120012916Y-97709603D01*
X120007104Y-97732807D01*
X119999046Y-97755329D01*
X119988818Y-97776953D01*
X119976521Y-97797470D01*
X119962271Y-97816683D01*
X119946207Y-97834407D01*
X119928483Y-97850471D01*
X119909270Y-97864721D01*
X119888753Y-97877018D01*
X119867129Y-97887246D01*
X119844607Y-97895304D01*
X119821403Y-97901116D01*
X119797742Y-97904626D01*
X119773850Y-97905800D01*
X119286350Y-97905800D01*
X119262458Y-97904626D01*
X119238797Y-97901116D01*
X119215593Y-97895304D01*
X119193071Y-97887246D01*
X119171447Y-97877018D01*
X119150930Y-97864721D01*
X119131717Y-97850471D01*
X119113993Y-97834407D01*
X119097929Y-97816683D01*
X119083679Y-97797470D01*
X119071382Y-97776953D01*
X119061154Y-97755329D01*
X119053096Y-97732807D01*
X119047284Y-97709603D01*
X119043774Y-97685942D01*
X119042600Y-97662050D01*
X119042600Y-96749550D01*
X119043774Y-96725658D01*
X119047284Y-96701997D01*
X119053096Y-96678793D01*
X119061154Y-96656271D01*
X119071382Y-96634647D01*
X119083679Y-96614130D01*
X119097929Y-96594917D01*
X119113993Y-96577193D01*
X119131717Y-96561129D01*
X119150930Y-96546879D01*
X119171447Y-96534582D01*
X119193071Y-96524354D01*
X119215593Y-96516296D01*
X119238797Y-96510484D01*
X119262458Y-96506974D01*
X119286350Y-96505800D01*
X119773850Y-96505800D01*
X119797742Y-96506974D01*
X119797742Y-96506974D01*
G37*
D11*
X119530100Y-97205800D03*
D10*
G36*
X114544542Y-94601974D02*
G01*
X114568203Y-94605484D01*
X114591407Y-94611296D01*
X114613929Y-94619354D01*
X114635553Y-94629582D01*
X114656070Y-94641879D01*
X114675283Y-94656129D01*
X114693007Y-94672193D01*
X114709071Y-94689917D01*
X114723321Y-94709130D01*
X114735618Y-94729647D01*
X114745846Y-94751271D01*
X114753904Y-94773793D01*
X114759716Y-94796997D01*
X114763226Y-94820658D01*
X114764400Y-94844550D01*
X114764400Y-95757050D01*
X114763226Y-95780942D01*
X114759716Y-95804603D01*
X114753904Y-95827807D01*
X114745846Y-95850329D01*
X114735618Y-95871953D01*
X114723321Y-95892470D01*
X114709071Y-95911683D01*
X114693007Y-95929407D01*
X114675283Y-95945471D01*
X114656070Y-95959721D01*
X114635553Y-95972018D01*
X114613929Y-95982246D01*
X114591407Y-95990304D01*
X114568203Y-95996116D01*
X114544542Y-95999626D01*
X114520650Y-96000800D01*
X114033150Y-96000800D01*
X114009258Y-95999626D01*
X113985597Y-95996116D01*
X113962393Y-95990304D01*
X113939871Y-95982246D01*
X113918247Y-95972018D01*
X113897730Y-95959721D01*
X113878517Y-95945471D01*
X113860793Y-95929407D01*
X113844729Y-95911683D01*
X113830479Y-95892470D01*
X113818182Y-95871953D01*
X113807954Y-95850329D01*
X113799896Y-95827807D01*
X113794084Y-95804603D01*
X113790574Y-95780942D01*
X113789400Y-95757050D01*
X113789400Y-94844550D01*
X113790574Y-94820658D01*
X113794084Y-94796997D01*
X113799896Y-94773793D01*
X113807954Y-94751271D01*
X113818182Y-94729647D01*
X113830479Y-94709130D01*
X113844729Y-94689917D01*
X113860793Y-94672193D01*
X113878517Y-94656129D01*
X113897730Y-94641879D01*
X113918247Y-94629582D01*
X113939871Y-94619354D01*
X113962393Y-94611296D01*
X113985597Y-94605484D01*
X114009258Y-94601974D01*
X114033150Y-94600800D01*
X114520650Y-94600800D01*
X114544542Y-94601974D01*
X114544542Y-94601974D01*
G37*
D11*
X114276900Y-95300800D03*
D10*
G36*
X116419542Y-94601974D02*
G01*
X116443203Y-94605484D01*
X116466407Y-94611296D01*
X116488929Y-94619354D01*
X116510553Y-94629582D01*
X116531070Y-94641879D01*
X116550283Y-94656129D01*
X116568007Y-94672193D01*
X116584071Y-94689917D01*
X116598321Y-94709130D01*
X116610618Y-94729647D01*
X116620846Y-94751271D01*
X116628904Y-94773793D01*
X116634716Y-94796997D01*
X116638226Y-94820658D01*
X116639400Y-94844550D01*
X116639400Y-95757050D01*
X116638226Y-95780942D01*
X116634716Y-95804603D01*
X116628904Y-95827807D01*
X116620846Y-95850329D01*
X116610618Y-95871953D01*
X116598321Y-95892470D01*
X116584071Y-95911683D01*
X116568007Y-95929407D01*
X116550283Y-95945471D01*
X116531070Y-95959721D01*
X116510553Y-95972018D01*
X116488929Y-95982246D01*
X116466407Y-95990304D01*
X116443203Y-95996116D01*
X116419542Y-95999626D01*
X116395650Y-96000800D01*
X115908150Y-96000800D01*
X115884258Y-95999626D01*
X115860597Y-95996116D01*
X115837393Y-95990304D01*
X115814871Y-95982246D01*
X115793247Y-95972018D01*
X115772730Y-95959721D01*
X115753517Y-95945471D01*
X115735793Y-95929407D01*
X115719729Y-95911683D01*
X115705479Y-95892470D01*
X115693182Y-95871953D01*
X115682954Y-95850329D01*
X115674896Y-95827807D01*
X115669084Y-95804603D01*
X115665574Y-95780942D01*
X115664400Y-95757050D01*
X115664400Y-94844550D01*
X115665574Y-94820658D01*
X115669084Y-94796997D01*
X115674896Y-94773793D01*
X115682954Y-94751271D01*
X115693182Y-94729647D01*
X115705479Y-94709130D01*
X115719729Y-94689917D01*
X115735793Y-94672193D01*
X115753517Y-94656129D01*
X115772730Y-94641879D01*
X115793247Y-94629582D01*
X115814871Y-94619354D01*
X115837393Y-94611296D01*
X115860597Y-94605484D01*
X115884258Y-94601974D01*
X115908150Y-94600800D01*
X116395650Y-94600800D01*
X116419542Y-94601974D01*
X116419542Y-94601974D01*
G37*
D11*
X116151900Y-95300800D03*
D10*
G36*
X121300942Y-94601974D02*
G01*
X121324603Y-94605484D01*
X121347807Y-94611296D01*
X121370329Y-94619354D01*
X121391953Y-94629582D01*
X121412470Y-94641879D01*
X121431683Y-94656129D01*
X121449407Y-94672193D01*
X121465471Y-94689917D01*
X121479721Y-94709130D01*
X121492018Y-94729647D01*
X121502246Y-94751271D01*
X121510304Y-94773793D01*
X121516116Y-94796997D01*
X121519626Y-94820658D01*
X121520800Y-94844550D01*
X121520800Y-95757050D01*
X121519626Y-95780942D01*
X121516116Y-95804603D01*
X121510304Y-95827807D01*
X121502246Y-95850329D01*
X121492018Y-95871953D01*
X121479721Y-95892470D01*
X121465471Y-95911683D01*
X121449407Y-95929407D01*
X121431683Y-95945471D01*
X121412470Y-95959721D01*
X121391953Y-95972018D01*
X121370329Y-95982246D01*
X121347807Y-95990304D01*
X121324603Y-95996116D01*
X121300942Y-95999626D01*
X121277050Y-96000800D01*
X120789550Y-96000800D01*
X120765658Y-95999626D01*
X120741997Y-95996116D01*
X120718793Y-95990304D01*
X120696271Y-95982246D01*
X120674647Y-95972018D01*
X120654130Y-95959721D01*
X120634917Y-95945471D01*
X120617193Y-95929407D01*
X120601129Y-95911683D01*
X120586879Y-95892470D01*
X120574582Y-95871953D01*
X120564354Y-95850329D01*
X120556296Y-95827807D01*
X120550484Y-95804603D01*
X120546974Y-95780942D01*
X120545800Y-95757050D01*
X120545800Y-94844550D01*
X120546974Y-94820658D01*
X120550484Y-94796997D01*
X120556296Y-94773793D01*
X120564354Y-94751271D01*
X120574582Y-94729647D01*
X120586879Y-94709130D01*
X120601129Y-94689917D01*
X120617193Y-94672193D01*
X120634917Y-94656129D01*
X120654130Y-94641879D01*
X120674647Y-94629582D01*
X120696271Y-94619354D01*
X120718793Y-94611296D01*
X120741997Y-94605484D01*
X120765658Y-94601974D01*
X120789550Y-94600800D01*
X121277050Y-94600800D01*
X121300942Y-94601974D01*
X121300942Y-94601974D01*
G37*
D11*
X121033300Y-95300800D03*
D10*
G36*
X123175942Y-94601974D02*
G01*
X123199603Y-94605484D01*
X123222807Y-94611296D01*
X123245329Y-94619354D01*
X123266953Y-94629582D01*
X123287470Y-94641879D01*
X123306683Y-94656129D01*
X123324407Y-94672193D01*
X123340471Y-94689917D01*
X123354721Y-94709130D01*
X123367018Y-94729647D01*
X123377246Y-94751271D01*
X123385304Y-94773793D01*
X123391116Y-94796997D01*
X123394626Y-94820658D01*
X123395800Y-94844550D01*
X123395800Y-95757050D01*
X123394626Y-95780942D01*
X123391116Y-95804603D01*
X123385304Y-95827807D01*
X123377246Y-95850329D01*
X123367018Y-95871953D01*
X123354721Y-95892470D01*
X123340471Y-95911683D01*
X123324407Y-95929407D01*
X123306683Y-95945471D01*
X123287470Y-95959721D01*
X123266953Y-95972018D01*
X123245329Y-95982246D01*
X123222807Y-95990304D01*
X123199603Y-95996116D01*
X123175942Y-95999626D01*
X123152050Y-96000800D01*
X122664550Y-96000800D01*
X122640658Y-95999626D01*
X122616997Y-95996116D01*
X122593793Y-95990304D01*
X122571271Y-95982246D01*
X122549647Y-95972018D01*
X122529130Y-95959721D01*
X122509917Y-95945471D01*
X122492193Y-95929407D01*
X122476129Y-95911683D01*
X122461879Y-95892470D01*
X122449582Y-95871953D01*
X122439354Y-95850329D01*
X122431296Y-95827807D01*
X122425484Y-95804603D01*
X122421974Y-95780942D01*
X122420800Y-95757050D01*
X122420800Y-94844550D01*
X122421974Y-94820658D01*
X122425484Y-94796997D01*
X122431296Y-94773793D01*
X122439354Y-94751271D01*
X122449582Y-94729647D01*
X122461879Y-94709130D01*
X122476129Y-94689917D01*
X122492193Y-94672193D01*
X122509917Y-94656129D01*
X122529130Y-94641879D01*
X122549647Y-94629582D01*
X122571271Y-94619354D01*
X122593793Y-94611296D01*
X122616997Y-94605484D01*
X122640658Y-94601974D01*
X122664550Y-94600800D01*
X123152050Y-94600800D01*
X123175942Y-94601974D01*
X123175942Y-94601974D01*
G37*
D11*
X122908300Y-95300800D03*
D10*
G36*
X114544542Y-96506974D02*
G01*
X114568203Y-96510484D01*
X114591407Y-96516296D01*
X114613929Y-96524354D01*
X114635553Y-96534582D01*
X114656070Y-96546879D01*
X114675283Y-96561129D01*
X114693007Y-96577193D01*
X114709071Y-96594917D01*
X114723321Y-96614130D01*
X114735618Y-96634647D01*
X114745846Y-96656271D01*
X114753904Y-96678793D01*
X114759716Y-96701997D01*
X114763226Y-96725658D01*
X114764400Y-96749550D01*
X114764400Y-97662050D01*
X114763226Y-97685942D01*
X114759716Y-97709603D01*
X114753904Y-97732807D01*
X114745846Y-97755329D01*
X114735618Y-97776953D01*
X114723321Y-97797470D01*
X114709071Y-97816683D01*
X114693007Y-97834407D01*
X114675283Y-97850471D01*
X114656070Y-97864721D01*
X114635553Y-97877018D01*
X114613929Y-97887246D01*
X114591407Y-97895304D01*
X114568203Y-97901116D01*
X114544542Y-97904626D01*
X114520650Y-97905800D01*
X114033150Y-97905800D01*
X114009258Y-97904626D01*
X113985597Y-97901116D01*
X113962393Y-97895304D01*
X113939871Y-97887246D01*
X113918247Y-97877018D01*
X113897730Y-97864721D01*
X113878517Y-97850471D01*
X113860793Y-97834407D01*
X113844729Y-97816683D01*
X113830479Y-97797470D01*
X113818182Y-97776953D01*
X113807954Y-97755329D01*
X113799896Y-97732807D01*
X113794084Y-97709603D01*
X113790574Y-97685942D01*
X113789400Y-97662050D01*
X113789400Y-96749550D01*
X113790574Y-96725658D01*
X113794084Y-96701997D01*
X113799896Y-96678793D01*
X113807954Y-96656271D01*
X113818182Y-96634647D01*
X113830479Y-96614130D01*
X113844729Y-96594917D01*
X113860793Y-96577193D01*
X113878517Y-96561129D01*
X113897730Y-96546879D01*
X113918247Y-96534582D01*
X113939871Y-96524354D01*
X113962393Y-96516296D01*
X113985597Y-96510484D01*
X114009258Y-96506974D01*
X114033150Y-96505800D01*
X114520650Y-96505800D01*
X114544542Y-96506974D01*
X114544542Y-96506974D01*
G37*
D11*
X114276900Y-97205800D03*
D10*
G36*
X116419542Y-96506974D02*
G01*
X116443203Y-96510484D01*
X116466407Y-96516296D01*
X116488929Y-96524354D01*
X116510553Y-96534582D01*
X116531070Y-96546879D01*
X116550283Y-96561129D01*
X116568007Y-96577193D01*
X116584071Y-96594917D01*
X116598321Y-96614130D01*
X116610618Y-96634647D01*
X116620846Y-96656271D01*
X116628904Y-96678793D01*
X116634716Y-96701997D01*
X116638226Y-96725658D01*
X116639400Y-96749550D01*
X116639400Y-97662050D01*
X116638226Y-97685942D01*
X116634716Y-97709603D01*
X116628904Y-97732807D01*
X116620846Y-97755329D01*
X116610618Y-97776953D01*
X116598321Y-97797470D01*
X116584071Y-97816683D01*
X116568007Y-97834407D01*
X116550283Y-97850471D01*
X116531070Y-97864721D01*
X116510553Y-97877018D01*
X116488929Y-97887246D01*
X116466407Y-97895304D01*
X116443203Y-97901116D01*
X116419542Y-97904626D01*
X116395650Y-97905800D01*
X115908150Y-97905800D01*
X115884258Y-97904626D01*
X115860597Y-97901116D01*
X115837393Y-97895304D01*
X115814871Y-97887246D01*
X115793247Y-97877018D01*
X115772730Y-97864721D01*
X115753517Y-97850471D01*
X115735793Y-97834407D01*
X115719729Y-97816683D01*
X115705479Y-97797470D01*
X115693182Y-97776953D01*
X115682954Y-97755329D01*
X115674896Y-97732807D01*
X115669084Y-97709603D01*
X115665574Y-97685942D01*
X115664400Y-97662050D01*
X115664400Y-96749550D01*
X115665574Y-96725658D01*
X115669084Y-96701997D01*
X115674896Y-96678793D01*
X115682954Y-96656271D01*
X115693182Y-96634647D01*
X115705479Y-96614130D01*
X115719729Y-96594917D01*
X115735793Y-96577193D01*
X115753517Y-96561129D01*
X115772730Y-96546879D01*
X115793247Y-96534582D01*
X115814871Y-96524354D01*
X115837393Y-96516296D01*
X115860597Y-96510484D01*
X115884258Y-96506974D01*
X115908150Y-96505800D01*
X116395650Y-96505800D01*
X116419542Y-96506974D01*
X116419542Y-96506974D01*
G37*
D11*
X116151900Y-97205800D03*
D10*
G36*
X121300942Y-96506974D02*
G01*
X121324603Y-96510484D01*
X121347807Y-96516296D01*
X121370329Y-96524354D01*
X121391953Y-96534582D01*
X121412470Y-96546879D01*
X121431683Y-96561129D01*
X121449407Y-96577193D01*
X121465471Y-96594917D01*
X121479721Y-96614130D01*
X121492018Y-96634647D01*
X121502246Y-96656271D01*
X121510304Y-96678793D01*
X121516116Y-96701997D01*
X121519626Y-96725658D01*
X121520800Y-96749550D01*
X121520800Y-97662050D01*
X121519626Y-97685942D01*
X121516116Y-97709603D01*
X121510304Y-97732807D01*
X121502246Y-97755329D01*
X121492018Y-97776953D01*
X121479721Y-97797470D01*
X121465471Y-97816683D01*
X121449407Y-97834407D01*
X121431683Y-97850471D01*
X121412470Y-97864721D01*
X121391953Y-97877018D01*
X121370329Y-97887246D01*
X121347807Y-97895304D01*
X121324603Y-97901116D01*
X121300942Y-97904626D01*
X121277050Y-97905800D01*
X120789550Y-97905800D01*
X120765658Y-97904626D01*
X120741997Y-97901116D01*
X120718793Y-97895304D01*
X120696271Y-97887246D01*
X120674647Y-97877018D01*
X120654130Y-97864721D01*
X120634917Y-97850471D01*
X120617193Y-97834407D01*
X120601129Y-97816683D01*
X120586879Y-97797470D01*
X120574582Y-97776953D01*
X120564354Y-97755329D01*
X120556296Y-97732807D01*
X120550484Y-97709603D01*
X120546974Y-97685942D01*
X120545800Y-97662050D01*
X120545800Y-96749550D01*
X120546974Y-96725658D01*
X120550484Y-96701997D01*
X120556296Y-96678793D01*
X120564354Y-96656271D01*
X120574582Y-96634647D01*
X120586879Y-96614130D01*
X120601129Y-96594917D01*
X120617193Y-96577193D01*
X120634917Y-96561129D01*
X120654130Y-96546879D01*
X120674647Y-96534582D01*
X120696271Y-96524354D01*
X120718793Y-96516296D01*
X120741997Y-96510484D01*
X120765658Y-96506974D01*
X120789550Y-96505800D01*
X121277050Y-96505800D01*
X121300942Y-96506974D01*
X121300942Y-96506974D01*
G37*
D11*
X121033300Y-97205800D03*
D10*
G36*
X123175942Y-96506974D02*
G01*
X123199603Y-96510484D01*
X123222807Y-96516296D01*
X123245329Y-96524354D01*
X123266953Y-96534582D01*
X123287470Y-96546879D01*
X123306683Y-96561129D01*
X123324407Y-96577193D01*
X123340471Y-96594917D01*
X123354721Y-96614130D01*
X123367018Y-96634647D01*
X123377246Y-96656271D01*
X123385304Y-96678793D01*
X123391116Y-96701997D01*
X123394626Y-96725658D01*
X123395800Y-96749550D01*
X123395800Y-97662050D01*
X123394626Y-97685942D01*
X123391116Y-97709603D01*
X123385304Y-97732807D01*
X123377246Y-97755329D01*
X123367018Y-97776953D01*
X123354721Y-97797470D01*
X123340471Y-97816683D01*
X123324407Y-97834407D01*
X123306683Y-97850471D01*
X123287470Y-97864721D01*
X123266953Y-97877018D01*
X123245329Y-97887246D01*
X123222807Y-97895304D01*
X123199603Y-97901116D01*
X123175942Y-97904626D01*
X123152050Y-97905800D01*
X122664550Y-97905800D01*
X122640658Y-97904626D01*
X122616997Y-97901116D01*
X122593793Y-97895304D01*
X122571271Y-97887246D01*
X122549647Y-97877018D01*
X122529130Y-97864721D01*
X122509917Y-97850471D01*
X122492193Y-97834407D01*
X122476129Y-97816683D01*
X122461879Y-97797470D01*
X122449582Y-97776953D01*
X122439354Y-97755329D01*
X122431296Y-97732807D01*
X122425484Y-97709603D01*
X122421974Y-97685942D01*
X122420800Y-97662050D01*
X122420800Y-96749550D01*
X122421974Y-96725658D01*
X122425484Y-96701997D01*
X122431296Y-96678793D01*
X122439354Y-96656271D01*
X122449582Y-96634647D01*
X122461879Y-96614130D01*
X122476129Y-96594917D01*
X122492193Y-96577193D01*
X122509917Y-96561129D01*
X122529130Y-96546879D01*
X122549647Y-96534582D01*
X122571271Y-96524354D01*
X122593793Y-96516296D01*
X122616997Y-96510484D01*
X122640658Y-96506974D01*
X122664550Y-96505800D01*
X123152050Y-96505800D01*
X123175942Y-96506974D01*
X123175942Y-96506974D01*
G37*
D11*
X122908300Y-97205800D03*
D10*
G36*
X108430142Y-77921174D02*
G01*
X108453803Y-77924684D01*
X108477007Y-77930496D01*
X108499529Y-77938554D01*
X108521153Y-77948782D01*
X108541670Y-77961079D01*
X108560883Y-77975329D01*
X108578607Y-77991393D01*
X108594671Y-78009117D01*
X108608921Y-78028330D01*
X108621218Y-78048847D01*
X108631446Y-78070471D01*
X108639504Y-78092993D01*
X108645316Y-78116197D01*
X108648826Y-78139858D01*
X108650000Y-78163750D01*
X108650000Y-78651250D01*
X108648826Y-78675142D01*
X108645316Y-78698803D01*
X108639504Y-78722007D01*
X108631446Y-78744529D01*
X108621218Y-78766153D01*
X108608921Y-78786670D01*
X108594671Y-78805883D01*
X108578607Y-78823607D01*
X108560883Y-78839671D01*
X108541670Y-78853921D01*
X108521153Y-78866218D01*
X108499529Y-78876446D01*
X108477007Y-78884504D01*
X108453803Y-78890316D01*
X108430142Y-78893826D01*
X108406250Y-78895000D01*
X107493750Y-78895000D01*
X107469858Y-78893826D01*
X107446197Y-78890316D01*
X107422993Y-78884504D01*
X107400471Y-78876446D01*
X107378847Y-78866218D01*
X107358330Y-78853921D01*
X107339117Y-78839671D01*
X107321393Y-78823607D01*
X107305329Y-78805883D01*
X107291079Y-78786670D01*
X107278782Y-78766153D01*
X107268554Y-78744529D01*
X107260496Y-78722007D01*
X107254684Y-78698803D01*
X107251174Y-78675142D01*
X107250000Y-78651250D01*
X107250000Y-78163750D01*
X107251174Y-78139858D01*
X107254684Y-78116197D01*
X107260496Y-78092993D01*
X107268554Y-78070471D01*
X107278782Y-78048847D01*
X107291079Y-78028330D01*
X107305329Y-78009117D01*
X107321393Y-77991393D01*
X107339117Y-77975329D01*
X107358330Y-77961079D01*
X107378847Y-77948782D01*
X107400471Y-77938554D01*
X107422993Y-77930496D01*
X107446197Y-77924684D01*
X107469858Y-77921174D01*
X107493750Y-77920000D01*
X108406250Y-77920000D01*
X108430142Y-77921174D01*
X108430142Y-77921174D01*
G37*
D11*
X107950000Y-78407500D03*
D10*
G36*
X108430142Y-76046174D02*
G01*
X108453803Y-76049684D01*
X108477007Y-76055496D01*
X108499529Y-76063554D01*
X108521153Y-76073782D01*
X108541670Y-76086079D01*
X108560883Y-76100329D01*
X108578607Y-76116393D01*
X108594671Y-76134117D01*
X108608921Y-76153330D01*
X108621218Y-76173847D01*
X108631446Y-76195471D01*
X108639504Y-76217993D01*
X108645316Y-76241197D01*
X108648826Y-76264858D01*
X108650000Y-76288750D01*
X108650000Y-76776250D01*
X108648826Y-76800142D01*
X108645316Y-76823803D01*
X108639504Y-76847007D01*
X108631446Y-76869529D01*
X108621218Y-76891153D01*
X108608921Y-76911670D01*
X108594671Y-76930883D01*
X108578607Y-76948607D01*
X108560883Y-76964671D01*
X108541670Y-76978921D01*
X108521153Y-76991218D01*
X108499529Y-77001446D01*
X108477007Y-77009504D01*
X108453803Y-77015316D01*
X108430142Y-77018826D01*
X108406250Y-77020000D01*
X107493750Y-77020000D01*
X107469858Y-77018826D01*
X107446197Y-77015316D01*
X107422993Y-77009504D01*
X107400471Y-77001446D01*
X107378847Y-76991218D01*
X107358330Y-76978921D01*
X107339117Y-76964671D01*
X107321393Y-76948607D01*
X107305329Y-76930883D01*
X107291079Y-76911670D01*
X107278782Y-76891153D01*
X107268554Y-76869529D01*
X107260496Y-76847007D01*
X107254684Y-76823803D01*
X107251174Y-76800142D01*
X107250000Y-76776250D01*
X107250000Y-76288750D01*
X107251174Y-76264858D01*
X107254684Y-76241197D01*
X107260496Y-76217993D01*
X107268554Y-76195471D01*
X107278782Y-76173847D01*
X107291079Y-76153330D01*
X107305329Y-76134117D01*
X107321393Y-76116393D01*
X107339117Y-76100329D01*
X107358330Y-76086079D01*
X107378847Y-76073782D01*
X107400471Y-76063554D01*
X107422993Y-76055496D01*
X107446197Y-76049684D01*
X107469858Y-76046174D01*
X107493750Y-76045000D01*
X108406250Y-76045000D01*
X108430142Y-76046174D01*
X108430142Y-76046174D01*
G37*
D11*
X107950000Y-76532500D03*
D10*
G36*
X116050142Y-77921174D02*
G01*
X116073803Y-77924684D01*
X116097007Y-77930496D01*
X116119529Y-77938554D01*
X116141153Y-77948782D01*
X116161670Y-77961079D01*
X116180883Y-77975329D01*
X116198607Y-77991393D01*
X116214671Y-78009117D01*
X116228921Y-78028330D01*
X116241218Y-78048847D01*
X116251446Y-78070471D01*
X116259504Y-78092993D01*
X116265316Y-78116197D01*
X116268826Y-78139858D01*
X116270000Y-78163750D01*
X116270000Y-78651250D01*
X116268826Y-78675142D01*
X116265316Y-78698803D01*
X116259504Y-78722007D01*
X116251446Y-78744529D01*
X116241218Y-78766153D01*
X116228921Y-78786670D01*
X116214671Y-78805883D01*
X116198607Y-78823607D01*
X116180883Y-78839671D01*
X116161670Y-78853921D01*
X116141153Y-78866218D01*
X116119529Y-78876446D01*
X116097007Y-78884504D01*
X116073803Y-78890316D01*
X116050142Y-78893826D01*
X116026250Y-78895000D01*
X115113750Y-78895000D01*
X115089858Y-78893826D01*
X115066197Y-78890316D01*
X115042993Y-78884504D01*
X115020471Y-78876446D01*
X114998847Y-78866218D01*
X114978330Y-78853921D01*
X114959117Y-78839671D01*
X114941393Y-78823607D01*
X114925329Y-78805883D01*
X114911079Y-78786670D01*
X114898782Y-78766153D01*
X114888554Y-78744529D01*
X114880496Y-78722007D01*
X114874684Y-78698803D01*
X114871174Y-78675142D01*
X114870000Y-78651250D01*
X114870000Y-78163750D01*
X114871174Y-78139858D01*
X114874684Y-78116197D01*
X114880496Y-78092993D01*
X114888554Y-78070471D01*
X114898782Y-78048847D01*
X114911079Y-78028330D01*
X114925329Y-78009117D01*
X114941393Y-77991393D01*
X114959117Y-77975329D01*
X114978330Y-77961079D01*
X114998847Y-77948782D01*
X115020471Y-77938554D01*
X115042993Y-77930496D01*
X115066197Y-77924684D01*
X115089858Y-77921174D01*
X115113750Y-77920000D01*
X116026250Y-77920000D01*
X116050142Y-77921174D01*
X116050142Y-77921174D01*
G37*
D11*
X115570000Y-78407500D03*
D10*
G36*
X116050142Y-76046174D02*
G01*
X116073803Y-76049684D01*
X116097007Y-76055496D01*
X116119529Y-76063554D01*
X116141153Y-76073782D01*
X116161670Y-76086079D01*
X116180883Y-76100329D01*
X116198607Y-76116393D01*
X116214671Y-76134117D01*
X116228921Y-76153330D01*
X116241218Y-76173847D01*
X116251446Y-76195471D01*
X116259504Y-76217993D01*
X116265316Y-76241197D01*
X116268826Y-76264858D01*
X116270000Y-76288750D01*
X116270000Y-76776250D01*
X116268826Y-76800142D01*
X116265316Y-76823803D01*
X116259504Y-76847007D01*
X116251446Y-76869529D01*
X116241218Y-76891153D01*
X116228921Y-76911670D01*
X116214671Y-76930883D01*
X116198607Y-76948607D01*
X116180883Y-76964671D01*
X116161670Y-76978921D01*
X116141153Y-76991218D01*
X116119529Y-77001446D01*
X116097007Y-77009504D01*
X116073803Y-77015316D01*
X116050142Y-77018826D01*
X116026250Y-77020000D01*
X115113750Y-77020000D01*
X115089858Y-77018826D01*
X115066197Y-77015316D01*
X115042993Y-77009504D01*
X115020471Y-77001446D01*
X114998847Y-76991218D01*
X114978330Y-76978921D01*
X114959117Y-76964671D01*
X114941393Y-76948607D01*
X114925329Y-76930883D01*
X114911079Y-76911670D01*
X114898782Y-76891153D01*
X114888554Y-76869529D01*
X114880496Y-76847007D01*
X114874684Y-76823803D01*
X114871174Y-76800142D01*
X114870000Y-76776250D01*
X114870000Y-76288750D01*
X114871174Y-76264858D01*
X114874684Y-76241197D01*
X114880496Y-76217993D01*
X114888554Y-76195471D01*
X114898782Y-76173847D01*
X114911079Y-76153330D01*
X114925329Y-76134117D01*
X114941393Y-76116393D01*
X114959117Y-76100329D01*
X114978330Y-76086079D01*
X114998847Y-76073782D01*
X115020471Y-76063554D01*
X115042993Y-76055496D01*
X115066197Y-76049684D01*
X115089858Y-76046174D01*
X115113750Y-76045000D01*
X116026250Y-76045000D01*
X116050142Y-76046174D01*
X116050142Y-76046174D01*
G37*
D11*
X115570000Y-76532500D03*
D10*
G36*
X110970142Y-77921174D02*
G01*
X110993803Y-77924684D01*
X111017007Y-77930496D01*
X111039529Y-77938554D01*
X111061153Y-77948782D01*
X111081670Y-77961079D01*
X111100883Y-77975329D01*
X111118607Y-77991393D01*
X111134671Y-78009117D01*
X111148921Y-78028330D01*
X111161218Y-78048847D01*
X111171446Y-78070471D01*
X111179504Y-78092993D01*
X111185316Y-78116197D01*
X111188826Y-78139858D01*
X111190000Y-78163750D01*
X111190000Y-78651250D01*
X111188826Y-78675142D01*
X111185316Y-78698803D01*
X111179504Y-78722007D01*
X111171446Y-78744529D01*
X111161218Y-78766153D01*
X111148921Y-78786670D01*
X111134671Y-78805883D01*
X111118607Y-78823607D01*
X111100883Y-78839671D01*
X111081670Y-78853921D01*
X111061153Y-78866218D01*
X111039529Y-78876446D01*
X111017007Y-78884504D01*
X110993803Y-78890316D01*
X110970142Y-78893826D01*
X110946250Y-78895000D01*
X110033750Y-78895000D01*
X110009858Y-78893826D01*
X109986197Y-78890316D01*
X109962993Y-78884504D01*
X109940471Y-78876446D01*
X109918847Y-78866218D01*
X109898330Y-78853921D01*
X109879117Y-78839671D01*
X109861393Y-78823607D01*
X109845329Y-78805883D01*
X109831079Y-78786670D01*
X109818782Y-78766153D01*
X109808554Y-78744529D01*
X109800496Y-78722007D01*
X109794684Y-78698803D01*
X109791174Y-78675142D01*
X109790000Y-78651250D01*
X109790000Y-78163750D01*
X109791174Y-78139858D01*
X109794684Y-78116197D01*
X109800496Y-78092993D01*
X109808554Y-78070471D01*
X109818782Y-78048847D01*
X109831079Y-78028330D01*
X109845329Y-78009117D01*
X109861393Y-77991393D01*
X109879117Y-77975329D01*
X109898330Y-77961079D01*
X109918847Y-77948782D01*
X109940471Y-77938554D01*
X109962993Y-77930496D01*
X109986197Y-77924684D01*
X110009858Y-77921174D01*
X110033750Y-77920000D01*
X110946250Y-77920000D01*
X110970142Y-77921174D01*
X110970142Y-77921174D01*
G37*
D11*
X110490000Y-78407500D03*
D10*
G36*
X110970142Y-76046174D02*
G01*
X110993803Y-76049684D01*
X111017007Y-76055496D01*
X111039529Y-76063554D01*
X111061153Y-76073782D01*
X111081670Y-76086079D01*
X111100883Y-76100329D01*
X111118607Y-76116393D01*
X111134671Y-76134117D01*
X111148921Y-76153330D01*
X111161218Y-76173847D01*
X111171446Y-76195471D01*
X111179504Y-76217993D01*
X111185316Y-76241197D01*
X111188826Y-76264858D01*
X111190000Y-76288750D01*
X111190000Y-76776250D01*
X111188826Y-76800142D01*
X111185316Y-76823803D01*
X111179504Y-76847007D01*
X111171446Y-76869529D01*
X111161218Y-76891153D01*
X111148921Y-76911670D01*
X111134671Y-76930883D01*
X111118607Y-76948607D01*
X111100883Y-76964671D01*
X111081670Y-76978921D01*
X111061153Y-76991218D01*
X111039529Y-77001446D01*
X111017007Y-77009504D01*
X110993803Y-77015316D01*
X110970142Y-77018826D01*
X110946250Y-77020000D01*
X110033750Y-77020000D01*
X110009858Y-77018826D01*
X109986197Y-77015316D01*
X109962993Y-77009504D01*
X109940471Y-77001446D01*
X109918847Y-76991218D01*
X109898330Y-76978921D01*
X109879117Y-76964671D01*
X109861393Y-76948607D01*
X109845329Y-76930883D01*
X109831079Y-76911670D01*
X109818782Y-76891153D01*
X109808554Y-76869529D01*
X109800496Y-76847007D01*
X109794684Y-76823803D01*
X109791174Y-76800142D01*
X109790000Y-76776250D01*
X109790000Y-76288750D01*
X109791174Y-76264858D01*
X109794684Y-76241197D01*
X109800496Y-76217993D01*
X109808554Y-76195471D01*
X109818782Y-76173847D01*
X109831079Y-76153330D01*
X109845329Y-76134117D01*
X109861393Y-76116393D01*
X109879117Y-76100329D01*
X109898330Y-76086079D01*
X109918847Y-76073782D01*
X109940471Y-76063554D01*
X109962993Y-76055496D01*
X109986197Y-76049684D01*
X110009858Y-76046174D01*
X110033750Y-76045000D01*
X110946250Y-76045000D01*
X110970142Y-76046174D01*
X110970142Y-76046174D01*
G37*
D11*
X110490000Y-76532500D03*
D10*
G36*
X118590142Y-77895774D02*
G01*
X118613803Y-77899284D01*
X118637007Y-77905096D01*
X118659529Y-77913154D01*
X118681153Y-77923382D01*
X118701670Y-77935679D01*
X118720883Y-77949929D01*
X118738607Y-77965993D01*
X118754671Y-77983717D01*
X118768921Y-78002930D01*
X118781218Y-78023447D01*
X118791446Y-78045071D01*
X118799504Y-78067593D01*
X118805316Y-78090797D01*
X118808826Y-78114458D01*
X118810000Y-78138350D01*
X118810000Y-78625850D01*
X118808826Y-78649742D01*
X118805316Y-78673403D01*
X118799504Y-78696607D01*
X118791446Y-78719129D01*
X118781218Y-78740753D01*
X118768921Y-78761270D01*
X118754671Y-78780483D01*
X118738607Y-78798207D01*
X118720883Y-78814271D01*
X118701670Y-78828521D01*
X118681153Y-78840818D01*
X118659529Y-78851046D01*
X118637007Y-78859104D01*
X118613803Y-78864916D01*
X118590142Y-78868426D01*
X118566250Y-78869600D01*
X117653750Y-78869600D01*
X117629858Y-78868426D01*
X117606197Y-78864916D01*
X117582993Y-78859104D01*
X117560471Y-78851046D01*
X117538847Y-78840818D01*
X117518330Y-78828521D01*
X117499117Y-78814271D01*
X117481393Y-78798207D01*
X117465329Y-78780483D01*
X117451079Y-78761270D01*
X117438782Y-78740753D01*
X117428554Y-78719129D01*
X117420496Y-78696607D01*
X117414684Y-78673403D01*
X117411174Y-78649742D01*
X117410000Y-78625850D01*
X117410000Y-78138350D01*
X117411174Y-78114458D01*
X117414684Y-78090797D01*
X117420496Y-78067593D01*
X117428554Y-78045071D01*
X117438782Y-78023447D01*
X117451079Y-78002930D01*
X117465329Y-77983717D01*
X117481393Y-77965993D01*
X117499117Y-77949929D01*
X117518330Y-77935679D01*
X117538847Y-77923382D01*
X117560471Y-77913154D01*
X117582993Y-77905096D01*
X117606197Y-77899284D01*
X117629858Y-77895774D01*
X117653750Y-77894600D01*
X118566250Y-77894600D01*
X118590142Y-77895774D01*
X118590142Y-77895774D01*
G37*
D11*
X118110000Y-78382100D03*
D10*
G36*
X118590142Y-76020774D02*
G01*
X118613803Y-76024284D01*
X118637007Y-76030096D01*
X118659529Y-76038154D01*
X118681153Y-76048382D01*
X118701670Y-76060679D01*
X118720883Y-76074929D01*
X118738607Y-76090993D01*
X118754671Y-76108717D01*
X118768921Y-76127930D01*
X118781218Y-76148447D01*
X118791446Y-76170071D01*
X118799504Y-76192593D01*
X118805316Y-76215797D01*
X118808826Y-76239458D01*
X118810000Y-76263350D01*
X118810000Y-76750850D01*
X118808826Y-76774742D01*
X118805316Y-76798403D01*
X118799504Y-76821607D01*
X118791446Y-76844129D01*
X118781218Y-76865753D01*
X118768921Y-76886270D01*
X118754671Y-76905483D01*
X118738607Y-76923207D01*
X118720883Y-76939271D01*
X118701670Y-76953521D01*
X118681153Y-76965818D01*
X118659529Y-76976046D01*
X118637007Y-76984104D01*
X118613803Y-76989916D01*
X118590142Y-76993426D01*
X118566250Y-76994600D01*
X117653750Y-76994600D01*
X117629858Y-76993426D01*
X117606197Y-76989916D01*
X117582993Y-76984104D01*
X117560471Y-76976046D01*
X117538847Y-76965818D01*
X117518330Y-76953521D01*
X117499117Y-76939271D01*
X117481393Y-76923207D01*
X117465329Y-76905483D01*
X117451079Y-76886270D01*
X117438782Y-76865753D01*
X117428554Y-76844129D01*
X117420496Y-76821607D01*
X117414684Y-76798403D01*
X117411174Y-76774742D01*
X117410000Y-76750850D01*
X117410000Y-76263350D01*
X117411174Y-76239458D01*
X117414684Y-76215797D01*
X117420496Y-76192593D01*
X117428554Y-76170071D01*
X117438782Y-76148447D01*
X117451079Y-76127930D01*
X117465329Y-76108717D01*
X117481393Y-76090993D01*
X117499117Y-76074929D01*
X117518330Y-76060679D01*
X117538847Y-76048382D01*
X117560471Y-76038154D01*
X117582993Y-76030096D01*
X117606197Y-76024284D01*
X117629858Y-76020774D01*
X117653750Y-76019600D01*
X118566250Y-76019600D01*
X118590142Y-76020774D01*
X118590142Y-76020774D01*
G37*
D11*
X118110000Y-76507100D03*
D10*
G36*
X113510142Y-77921174D02*
G01*
X113533803Y-77924684D01*
X113557007Y-77930496D01*
X113579529Y-77938554D01*
X113601153Y-77948782D01*
X113621670Y-77961079D01*
X113640883Y-77975329D01*
X113658607Y-77991393D01*
X113674671Y-78009117D01*
X113688921Y-78028330D01*
X113701218Y-78048847D01*
X113711446Y-78070471D01*
X113719504Y-78092993D01*
X113725316Y-78116197D01*
X113728826Y-78139858D01*
X113730000Y-78163750D01*
X113730000Y-78651250D01*
X113728826Y-78675142D01*
X113725316Y-78698803D01*
X113719504Y-78722007D01*
X113711446Y-78744529D01*
X113701218Y-78766153D01*
X113688921Y-78786670D01*
X113674671Y-78805883D01*
X113658607Y-78823607D01*
X113640883Y-78839671D01*
X113621670Y-78853921D01*
X113601153Y-78866218D01*
X113579529Y-78876446D01*
X113557007Y-78884504D01*
X113533803Y-78890316D01*
X113510142Y-78893826D01*
X113486250Y-78895000D01*
X112573750Y-78895000D01*
X112549858Y-78893826D01*
X112526197Y-78890316D01*
X112502993Y-78884504D01*
X112480471Y-78876446D01*
X112458847Y-78866218D01*
X112438330Y-78853921D01*
X112419117Y-78839671D01*
X112401393Y-78823607D01*
X112385329Y-78805883D01*
X112371079Y-78786670D01*
X112358782Y-78766153D01*
X112348554Y-78744529D01*
X112340496Y-78722007D01*
X112334684Y-78698803D01*
X112331174Y-78675142D01*
X112330000Y-78651250D01*
X112330000Y-78163750D01*
X112331174Y-78139858D01*
X112334684Y-78116197D01*
X112340496Y-78092993D01*
X112348554Y-78070471D01*
X112358782Y-78048847D01*
X112371079Y-78028330D01*
X112385329Y-78009117D01*
X112401393Y-77991393D01*
X112419117Y-77975329D01*
X112438330Y-77961079D01*
X112458847Y-77948782D01*
X112480471Y-77938554D01*
X112502993Y-77930496D01*
X112526197Y-77924684D01*
X112549858Y-77921174D01*
X112573750Y-77920000D01*
X113486250Y-77920000D01*
X113510142Y-77921174D01*
X113510142Y-77921174D01*
G37*
D11*
X113030000Y-78407500D03*
D10*
G36*
X113510142Y-76046174D02*
G01*
X113533803Y-76049684D01*
X113557007Y-76055496D01*
X113579529Y-76063554D01*
X113601153Y-76073782D01*
X113621670Y-76086079D01*
X113640883Y-76100329D01*
X113658607Y-76116393D01*
X113674671Y-76134117D01*
X113688921Y-76153330D01*
X113701218Y-76173847D01*
X113711446Y-76195471D01*
X113719504Y-76217993D01*
X113725316Y-76241197D01*
X113728826Y-76264858D01*
X113730000Y-76288750D01*
X113730000Y-76776250D01*
X113728826Y-76800142D01*
X113725316Y-76823803D01*
X113719504Y-76847007D01*
X113711446Y-76869529D01*
X113701218Y-76891153D01*
X113688921Y-76911670D01*
X113674671Y-76930883D01*
X113658607Y-76948607D01*
X113640883Y-76964671D01*
X113621670Y-76978921D01*
X113601153Y-76991218D01*
X113579529Y-77001446D01*
X113557007Y-77009504D01*
X113533803Y-77015316D01*
X113510142Y-77018826D01*
X113486250Y-77020000D01*
X112573750Y-77020000D01*
X112549858Y-77018826D01*
X112526197Y-77015316D01*
X112502993Y-77009504D01*
X112480471Y-77001446D01*
X112458847Y-76991218D01*
X112438330Y-76978921D01*
X112419117Y-76964671D01*
X112401393Y-76948607D01*
X112385329Y-76930883D01*
X112371079Y-76911670D01*
X112358782Y-76891153D01*
X112348554Y-76869529D01*
X112340496Y-76847007D01*
X112334684Y-76823803D01*
X112331174Y-76800142D01*
X112330000Y-76776250D01*
X112330000Y-76288750D01*
X112331174Y-76264858D01*
X112334684Y-76241197D01*
X112340496Y-76217993D01*
X112348554Y-76195471D01*
X112358782Y-76173847D01*
X112371079Y-76153330D01*
X112385329Y-76134117D01*
X112401393Y-76116393D01*
X112419117Y-76100329D01*
X112438330Y-76086079D01*
X112458847Y-76073782D01*
X112480471Y-76063554D01*
X112502993Y-76055496D01*
X112526197Y-76049684D01*
X112549858Y-76046174D01*
X112573750Y-76045000D01*
X113486250Y-76045000D01*
X113510142Y-76046174D01*
X113510142Y-76046174D01*
G37*
D11*
X113030000Y-76532500D03*
D10*
G36*
X121130142Y-77895774D02*
G01*
X121153803Y-77899284D01*
X121177007Y-77905096D01*
X121199529Y-77913154D01*
X121221153Y-77923382D01*
X121241670Y-77935679D01*
X121260883Y-77949929D01*
X121278607Y-77965993D01*
X121294671Y-77983717D01*
X121308921Y-78002930D01*
X121321218Y-78023447D01*
X121331446Y-78045071D01*
X121339504Y-78067593D01*
X121345316Y-78090797D01*
X121348826Y-78114458D01*
X121350000Y-78138350D01*
X121350000Y-78625850D01*
X121348826Y-78649742D01*
X121345316Y-78673403D01*
X121339504Y-78696607D01*
X121331446Y-78719129D01*
X121321218Y-78740753D01*
X121308921Y-78761270D01*
X121294671Y-78780483D01*
X121278607Y-78798207D01*
X121260883Y-78814271D01*
X121241670Y-78828521D01*
X121221153Y-78840818D01*
X121199529Y-78851046D01*
X121177007Y-78859104D01*
X121153803Y-78864916D01*
X121130142Y-78868426D01*
X121106250Y-78869600D01*
X120193750Y-78869600D01*
X120169858Y-78868426D01*
X120146197Y-78864916D01*
X120122993Y-78859104D01*
X120100471Y-78851046D01*
X120078847Y-78840818D01*
X120058330Y-78828521D01*
X120039117Y-78814271D01*
X120021393Y-78798207D01*
X120005329Y-78780483D01*
X119991079Y-78761270D01*
X119978782Y-78740753D01*
X119968554Y-78719129D01*
X119960496Y-78696607D01*
X119954684Y-78673403D01*
X119951174Y-78649742D01*
X119950000Y-78625850D01*
X119950000Y-78138350D01*
X119951174Y-78114458D01*
X119954684Y-78090797D01*
X119960496Y-78067593D01*
X119968554Y-78045071D01*
X119978782Y-78023447D01*
X119991079Y-78002930D01*
X120005329Y-77983717D01*
X120021393Y-77965993D01*
X120039117Y-77949929D01*
X120058330Y-77935679D01*
X120078847Y-77923382D01*
X120100471Y-77913154D01*
X120122993Y-77905096D01*
X120146197Y-77899284D01*
X120169858Y-77895774D01*
X120193750Y-77894600D01*
X121106250Y-77894600D01*
X121130142Y-77895774D01*
X121130142Y-77895774D01*
G37*
D11*
X120650000Y-78382100D03*
D10*
G36*
X121130142Y-76020774D02*
G01*
X121153803Y-76024284D01*
X121177007Y-76030096D01*
X121199529Y-76038154D01*
X121221153Y-76048382D01*
X121241670Y-76060679D01*
X121260883Y-76074929D01*
X121278607Y-76090993D01*
X121294671Y-76108717D01*
X121308921Y-76127930D01*
X121321218Y-76148447D01*
X121331446Y-76170071D01*
X121339504Y-76192593D01*
X121345316Y-76215797D01*
X121348826Y-76239458D01*
X121350000Y-76263350D01*
X121350000Y-76750850D01*
X121348826Y-76774742D01*
X121345316Y-76798403D01*
X121339504Y-76821607D01*
X121331446Y-76844129D01*
X121321218Y-76865753D01*
X121308921Y-76886270D01*
X121294671Y-76905483D01*
X121278607Y-76923207D01*
X121260883Y-76939271D01*
X121241670Y-76953521D01*
X121221153Y-76965818D01*
X121199529Y-76976046D01*
X121177007Y-76984104D01*
X121153803Y-76989916D01*
X121130142Y-76993426D01*
X121106250Y-76994600D01*
X120193750Y-76994600D01*
X120169858Y-76993426D01*
X120146197Y-76989916D01*
X120122993Y-76984104D01*
X120100471Y-76976046D01*
X120078847Y-76965818D01*
X120058330Y-76953521D01*
X120039117Y-76939271D01*
X120021393Y-76923207D01*
X120005329Y-76905483D01*
X119991079Y-76886270D01*
X119978782Y-76865753D01*
X119968554Y-76844129D01*
X119960496Y-76821607D01*
X119954684Y-76798403D01*
X119951174Y-76774742D01*
X119950000Y-76750850D01*
X119950000Y-76263350D01*
X119951174Y-76239458D01*
X119954684Y-76215797D01*
X119960496Y-76192593D01*
X119968554Y-76170071D01*
X119978782Y-76148447D01*
X119991079Y-76127930D01*
X120005329Y-76108717D01*
X120021393Y-76090993D01*
X120039117Y-76074929D01*
X120058330Y-76060679D01*
X120078847Y-76048382D01*
X120100471Y-76038154D01*
X120122993Y-76030096D01*
X120146197Y-76024284D01*
X120169858Y-76020774D01*
X120193750Y-76019600D01*
X121106250Y-76019600D01*
X121130142Y-76020774D01*
X121130142Y-76020774D01*
G37*
D11*
X120650000Y-76507100D03*
M02*
