G04 #@! TF.GenerationSoftware,KiCad,Pcbnew,(5.1.4)-1*
G04 #@! TF.CreationDate,2020-03-20T17:35:00+01:00*
G04 #@! TF.ProjectId,stm32f446_actuators,73746d33-3266-4343-9436-5f6163747561,rev?*
G04 #@! TF.SameCoordinates,Original*
G04 #@! TF.FileFunction,Legend,Top*
G04 #@! TF.FilePolarity,Positive*
%FSLAX46Y46*%
G04 Gerber Fmt 4.6, Leading zero omitted, Abs format (unit mm)*
G04 Created by KiCad (PCBNEW (5.1.4)-1) date 2020-03-20 17:35:00*
%MOMM*%
%LPD*%
G04 APERTURE LIST*
%ADD10C,0.100000*%
%ADD11C,0.300000*%
%ADD12C,0.150000*%
%ADD13C,0.120000*%
%ADD14C,0.010000*%
G04 APERTURE END LIST*
D10*
X81849209Y-95844490D02*
X81849209Y-95344490D01*
X81968257Y-95344490D01*
X82039685Y-95368300D01*
X82087304Y-95415919D01*
X82111114Y-95463538D01*
X82134923Y-95558776D01*
X82134923Y-95630204D01*
X82111114Y-95725442D01*
X82087304Y-95773061D01*
X82039685Y-95820680D01*
X81968257Y-95844490D01*
X81849209Y-95844490D01*
X82563495Y-95844490D02*
X82563495Y-95582585D01*
X82539685Y-95534966D01*
X82492066Y-95511157D01*
X82396828Y-95511157D01*
X82349209Y-95534966D01*
X82563495Y-95820680D02*
X82515876Y-95844490D01*
X82396828Y-95844490D01*
X82349209Y-95820680D01*
X82325400Y-95773061D01*
X82325400Y-95725442D01*
X82349209Y-95677823D01*
X82396828Y-95654014D01*
X82515876Y-95654014D01*
X82563495Y-95630204D01*
X82730161Y-95511157D02*
X82920638Y-95511157D01*
X82801590Y-95344490D02*
X82801590Y-95773061D01*
X82825400Y-95820680D01*
X82873019Y-95844490D01*
X82920638Y-95844490D01*
X83301590Y-95844490D02*
X83301590Y-95582585D01*
X83277780Y-95534966D01*
X83230161Y-95511157D01*
X83134923Y-95511157D01*
X83087304Y-95534966D01*
X83301590Y-95820680D02*
X83253971Y-95844490D01*
X83134923Y-95844490D01*
X83087304Y-95820680D01*
X83063495Y-95773061D01*
X83063495Y-95725442D01*
X83087304Y-95677823D01*
X83134923Y-95654014D01*
X83253971Y-95654014D01*
X83301590Y-95630204D01*
X81834147Y-93152114D02*
X82215100Y-93152114D01*
X82024623Y-93342590D02*
X82024623Y-92961638D01*
X82715100Y-93342590D02*
X82429385Y-93342590D01*
X82572242Y-93342590D02*
X82572242Y-92842590D01*
X82524623Y-92914019D01*
X82477004Y-92961638D01*
X82429385Y-92985447D01*
X82905576Y-92890209D02*
X82929385Y-92866400D01*
X82977004Y-92842590D01*
X83096052Y-92842590D01*
X83143671Y-92866400D01*
X83167480Y-92890209D01*
X83191290Y-92937828D01*
X83191290Y-92985447D01*
X83167480Y-93056876D01*
X82881766Y-93342590D01*
X83191290Y-93342590D01*
X83334147Y-92842590D02*
X83500814Y-93342590D01*
X83667480Y-92842590D01*
X82130947Y-90364500D02*
X82083328Y-90340690D01*
X82011900Y-90340690D01*
X81940471Y-90364500D01*
X81892852Y-90412119D01*
X81869042Y-90459738D01*
X81845233Y-90554976D01*
X81845233Y-90626404D01*
X81869042Y-90721642D01*
X81892852Y-90769261D01*
X81940471Y-90816880D01*
X82011900Y-90840690D01*
X82059519Y-90840690D01*
X82130947Y-90816880D01*
X82154757Y-90793071D01*
X82154757Y-90626404D01*
X82059519Y-90626404D01*
X82369042Y-90840690D02*
X82369042Y-90340690D01*
X82654757Y-90840690D01*
X82654757Y-90340690D01*
X82892852Y-90840690D02*
X82892852Y-90340690D01*
X83011900Y-90340690D01*
X83083328Y-90364500D01*
X83130947Y-90412119D01*
X83154757Y-90459738D01*
X83178566Y-90554976D01*
X83178566Y-90626404D01*
X83154757Y-90721642D01*
X83130947Y-90769261D01*
X83083328Y-90816880D01*
X83011900Y-90840690D01*
X82892852Y-90840690D01*
X131158490Y-104222466D02*
X131658490Y-104055800D01*
X131158490Y-103889133D01*
X131610871Y-103436752D02*
X131634680Y-103460561D01*
X131658490Y-103531990D01*
X131658490Y-103579609D01*
X131634680Y-103651038D01*
X131587061Y-103698657D01*
X131539442Y-103722466D01*
X131444204Y-103746276D01*
X131372776Y-103746276D01*
X131277538Y-103722466D01*
X131229919Y-103698657D01*
X131182300Y-103651038D01*
X131158490Y-103579609D01*
X131158490Y-103531990D01*
X131182300Y-103460561D01*
X131206109Y-103436752D01*
X131610871Y-102936752D02*
X131634680Y-102960561D01*
X131658490Y-103031990D01*
X131658490Y-103079609D01*
X131634680Y-103151038D01*
X131587061Y-103198657D01*
X131539442Y-103222466D01*
X131444204Y-103246276D01*
X131372776Y-103246276D01*
X131277538Y-103222466D01*
X131229919Y-103198657D01*
X131182300Y-103151038D01*
X131158490Y-103079609D01*
X131158490Y-103031990D01*
X131182300Y-102960561D01*
X131206109Y-102936752D01*
X131182300Y-106514852D02*
X131158490Y-106562471D01*
X131158490Y-106633900D01*
X131182300Y-106705328D01*
X131229919Y-106752947D01*
X131277538Y-106776757D01*
X131372776Y-106800566D01*
X131444204Y-106800566D01*
X131539442Y-106776757D01*
X131587061Y-106752947D01*
X131634680Y-106705328D01*
X131658490Y-106633900D01*
X131658490Y-106586280D01*
X131634680Y-106514852D01*
X131610871Y-106491042D01*
X131444204Y-106491042D01*
X131444204Y-106586280D01*
X131658490Y-106276757D02*
X131158490Y-106276757D01*
X131658490Y-105991042D01*
X131158490Y-105991042D01*
X131658490Y-105752947D02*
X131158490Y-105752947D01*
X131158490Y-105633900D01*
X131182300Y-105562471D01*
X131229919Y-105514852D01*
X131277538Y-105491042D01*
X131372776Y-105467233D01*
X131444204Y-105467233D01*
X131539442Y-105491042D01*
X131587061Y-105514852D01*
X131634680Y-105562471D01*
X131658490Y-105633900D01*
X131658490Y-105752947D01*
X131634680Y-101635642D02*
X131658490Y-101564214D01*
X131658490Y-101445166D01*
X131634680Y-101397547D01*
X131610871Y-101373738D01*
X131563252Y-101349928D01*
X131515633Y-101349928D01*
X131468014Y-101373738D01*
X131444204Y-101397547D01*
X131420395Y-101445166D01*
X131396585Y-101540404D01*
X131372776Y-101588023D01*
X131348966Y-101611833D01*
X131301347Y-101635642D01*
X131253728Y-101635642D01*
X131206109Y-101611833D01*
X131182300Y-101588023D01*
X131158490Y-101540404D01*
X131158490Y-101421357D01*
X131182300Y-101349928D01*
X131658490Y-101135642D02*
X131158490Y-101135642D01*
X131158490Y-101016595D01*
X131182300Y-100945166D01*
X131229919Y-100897547D01*
X131277538Y-100873738D01*
X131372776Y-100849928D01*
X131444204Y-100849928D01*
X131539442Y-100873738D01*
X131587061Y-100897547D01*
X131634680Y-100945166D01*
X131658490Y-101016595D01*
X131658490Y-101135642D01*
X131515633Y-100659452D02*
X131515633Y-100421357D01*
X131658490Y-100707071D02*
X131158490Y-100540404D01*
X131658490Y-100373738D01*
X131634680Y-99083738D02*
X131658490Y-99012309D01*
X131658490Y-98893261D01*
X131634680Y-98845642D01*
X131610871Y-98821833D01*
X131563252Y-98798023D01*
X131515633Y-98798023D01*
X131468014Y-98821833D01*
X131444204Y-98845642D01*
X131420395Y-98893261D01*
X131396585Y-98988500D01*
X131372776Y-99036119D01*
X131348966Y-99059928D01*
X131301347Y-99083738D01*
X131253728Y-99083738D01*
X131206109Y-99059928D01*
X131182300Y-99036119D01*
X131158490Y-98988500D01*
X131158490Y-98869452D01*
X131182300Y-98798023D01*
X131610871Y-98298023D02*
X131634680Y-98321833D01*
X131658490Y-98393261D01*
X131658490Y-98440880D01*
X131634680Y-98512309D01*
X131587061Y-98559928D01*
X131539442Y-98583738D01*
X131444204Y-98607547D01*
X131372776Y-98607547D01*
X131277538Y-98583738D01*
X131229919Y-98559928D01*
X131182300Y-98512309D01*
X131158490Y-98440880D01*
X131158490Y-98393261D01*
X131182300Y-98321833D01*
X131206109Y-98298023D01*
X131658490Y-97845642D02*
X131658490Y-98083738D01*
X131158490Y-98083738D01*
X125734000Y-80009952D02*
X125710190Y-80057571D01*
X125710190Y-80129000D01*
X125734000Y-80200428D01*
X125781619Y-80248047D01*
X125829238Y-80271857D01*
X125924476Y-80295666D01*
X125995904Y-80295666D01*
X126091142Y-80271857D01*
X126138761Y-80248047D01*
X126186380Y-80200428D01*
X126210190Y-80129000D01*
X126210190Y-80081380D01*
X126186380Y-80009952D01*
X126162571Y-79986142D01*
X125995904Y-79986142D01*
X125995904Y-80081380D01*
X126210190Y-79771857D02*
X125710190Y-79771857D01*
X126210190Y-79486142D01*
X125710190Y-79486142D01*
X126210190Y-79248047D02*
X125710190Y-79248047D01*
X125710190Y-79129000D01*
X125734000Y-79057571D01*
X125781619Y-79009952D01*
X125829238Y-78986142D01*
X125924476Y-78962333D01*
X125995904Y-78962333D01*
X126091142Y-78986142D01*
X126138761Y-79009952D01*
X126186380Y-79057571D01*
X126210190Y-79129000D01*
X126210190Y-79248047D01*
X126186380Y-86250328D02*
X126210190Y-86178900D01*
X126210190Y-86059852D01*
X126186380Y-86012233D01*
X126162571Y-85988423D01*
X126114952Y-85964614D01*
X126067333Y-85964614D01*
X126019714Y-85988423D01*
X125995904Y-86012233D01*
X125972095Y-86059852D01*
X125948285Y-86155090D01*
X125924476Y-86202709D01*
X125900666Y-86226519D01*
X125853047Y-86250328D01*
X125805428Y-86250328D01*
X125757809Y-86226519D01*
X125734000Y-86202709D01*
X125710190Y-86155090D01*
X125710190Y-86036042D01*
X125734000Y-85964614D01*
X126210190Y-85750328D02*
X125876857Y-85750328D01*
X125710190Y-85750328D02*
X125734000Y-85774138D01*
X125757809Y-85750328D01*
X125734000Y-85726519D01*
X125710190Y-85750328D01*
X125757809Y-85750328D01*
X125876857Y-85297947D02*
X126281619Y-85297947D01*
X126329238Y-85321757D01*
X126353047Y-85345566D01*
X126376857Y-85393185D01*
X126376857Y-85464614D01*
X126353047Y-85512233D01*
X126186380Y-85297947D02*
X126210190Y-85345566D01*
X126210190Y-85440804D01*
X126186380Y-85488423D01*
X126162571Y-85512233D01*
X126114952Y-85536042D01*
X125972095Y-85536042D01*
X125924476Y-85512233D01*
X125900666Y-85488423D01*
X125876857Y-85440804D01*
X125876857Y-85345566D01*
X125900666Y-85297947D01*
X125876857Y-85059852D02*
X126210190Y-85059852D01*
X125924476Y-85059852D02*
X125900666Y-85036042D01*
X125876857Y-84988423D01*
X125876857Y-84916995D01*
X125900666Y-84869376D01*
X125948285Y-84845566D01*
X126210190Y-84845566D01*
X126210190Y-84393185D02*
X125948285Y-84393185D01*
X125900666Y-84416995D01*
X125876857Y-84464614D01*
X125876857Y-84559852D01*
X125900666Y-84607471D01*
X126186380Y-84393185D02*
X126210190Y-84440804D01*
X126210190Y-84559852D01*
X126186380Y-84607471D01*
X126138761Y-84631280D01*
X126091142Y-84631280D01*
X126043523Y-84607471D01*
X126019714Y-84559852D01*
X126019714Y-84440804D01*
X125995904Y-84393185D01*
X126210190Y-84083661D02*
X126186380Y-84131280D01*
X126138761Y-84155090D01*
X125710190Y-84155090D01*
X126007014Y-82761057D02*
X126007014Y-82380104D01*
X126197490Y-82570580D02*
X125816538Y-82570580D01*
X125697490Y-81903914D02*
X125697490Y-82142009D01*
X125935585Y-82165819D01*
X125911776Y-82142009D01*
X125887966Y-82094390D01*
X125887966Y-81975342D01*
X125911776Y-81927723D01*
X125935585Y-81903914D01*
X125983204Y-81880104D01*
X126102252Y-81880104D01*
X126149871Y-81903914D01*
X126173680Y-81927723D01*
X126197490Y-81975342D01*
X126197490Y-82094390D01*
X126173680Y-82142009D01*
X126149871Y-82165819D01*
X125697490Y-81737247D02*
X126197490Y-81570580D01*
X125697490Y-81403914D01*
X126173680Y-94873628D02*
X126197490Y-94802200D01*
X126197490Y-94683152D01*
X126173680Y-94635533D01*
X126149871Y-94611723D01*
X126102252Y-94587914D01*
X126054633Y-94587914D01*
X126007014Y-94611723D01*
X125983204Y-94635533D01*
X125959395Y-94683152D01*
X125935585Y-94778390D01*
X125911776Y-94826009D01*
X125887966Y-94849819D01*
X125840347Y-94873628D01*
X125792728Y-94873628D01*
X125745109Y-94849819D01*
X125721300Y-94826009D01*
X125697490Y-94778390D01*
X125697490Y-94659342D01*
X125721300Y-94587914D01*
X126197490Y-94373628D02*
X125864157Y-94373628D01*
X125697490Y-94373628D02*
X125721300Y-94397438D01*
X125745109Y-94373628D01*
X125721300Y-94349819D01*
X125697490Y-94373628D01*
X125745109Y-94373628D01*
X125864157Y-93921247D02*
X126268919Y-93921247D01*
X126316538Y-93945057D01*
X126340347Y-93968866D01*
X126364157Y-94016485D01*
X126364157Y-94087914D01*
X126340347Y-94135533D01*
X126173680Y-93921247D02*
X126197490Y-93968866D01*
X126197490Y-94064104D01*
X126173680Y-94111723D01*
X126149871Y-94135533D01*
X126102252Y-94159342D01*
X125959395Y-94159342D01*
X125911776Y-94135533D01*
X125887966Y-94111723D01*
X125864157Y-94064104D01*
X125864157Y-93968866D01*
X125887966Y-93921247D01*
X125864157Y-93683152D02*
X126197490Y-93683152D01*
X125911776Y-93683152D02*
X125887966Y-93659342D01*
X125864157Y-93611723D01*
X125864157Y-93540295D01*
X125887966Y-93492676D01*
X125935585Y-93468866D01*
X126197490Y-93468866D01*
X126197490Y-93016485D02*
X125935585Y-93016485D01*
X125887966Y-93040295D01*
X125864157Y-93087914D01*
X125864157Y-93183152D01*
X125887966Y-93230771D01*
X126173680Y-93016485D02*
X126197490Y-93064104D01*
X126197490Y-93183152D01*
X126173680Y-93230771D01*
X126126061Y-93254580D01*
X126078442Y-93254580D01*
X126030823Y-93230771D01*
X126007014Y-93183152D01*
X126007014Y-93064104D01*
X125983204Y-93016485D01*
X126197490Y-92706961D02*
X126173680Y-92754580D01*
X126126061Y-92778390D01*
X125697490Y-92778390D01*
X125721300Y-88633252D02*
X125697490Y-88680871D01*
X125697490Y-88752300D01*
X125721300Y-88823728D01*
X125768919Y-88871347D01*
X125816538Y-88895157D01*
X125911776Y-88918966D01*
X125983204Y-88918966D01*
X126078442Y-88895157D01*
X126126061Y-88871347D01*
X126173680Y-88823728D01*
X126197490Y-88752300D01*
X126197490Y-88704680D01*
X126173680Y-88633252D01*
X126149871Y-88609442D01*
X125983204Y-88609442D01*
X125983204Y-88704680D01*
X126197490Y-88395157D02*
X125697490Y-88395157D01*
X126197490Y-88109442D01*
X125697490Y-88109442D01*
X126197490Y-87871347D02*
X125697490Y-87871347D01*
X125697490Y-87752300D01*
X125721300Y-87680871D01*
X125768919Y-87633252D01*
X125816538Y-87609442D01*
X125911776Y-87585633D01*
X125983204Y-87585633D01*
X126078442Y-87609442D01*
X126126061Y-87633252D01*
X126173680Y-87680871D01*
X126197490Y-87752300D01*
X126197490Y-87871347D01*
X125994314Y-91384357D02*
X125994314Y-91003404D01*
X126184790Y-91193880D02*
X125803838Y-91193880D01*
X125684790Y-90527214D02*
X125684790Y-90765309D01*
X125922885Y-90789119D01*
X125899076Y-90765309D01*
X125875266Y-90717690D01*
X125875266Y-90598642D01*
X125899076Y-90551023D01*
X125922885Y-90527214D01*
X125970504Y-90503404D01*
X126089552Y-90503404D01*
X126137171Y-90527214D01*
X126160980Y-90551023D01*
X126184790Y-90598642D01*
X126184790Y-90717690D01*
X126160980Y-90765309D01*
X126137171Y-90789119D01*
X125684790Y-90360547D02*
X126184790Y-90193880D01*
X125684790Y-90027214D01*
X123468580Y-81906928D02*
X123492390Y-81835500D01*
X123492390Y-81716452D01*
X123468580Y-81668833D01*
X123444771Y-81645023D01*
X123397152Y-81621214D01*
X123349533Y-81621214D01*
X123301914Y-81645023D01*
X123278104Y-81668833D01*
X123254295Y-81716452D01*
X123230485Y-81811690D01*
X123206676Y-81859309D01*
X123182866Y-81883119D01*
X123135247Y-81906928D01*
X123087628Y-81906928D01*
X123040009Y-81883119D01*
X123016200Y-81859309D01*
X122992390Y-81811690D01*
X122992390Y-81692642D01*
X123016200Y-81621214D01*
X123492390Y-81406928D02*
X123159057Y-81406928D01*
X122992390Y-81406928D02*
X123016200Y-81430738D01*
X123040009Y-81406928D01*
X123016200Y-81383119D01*
X122992390Y-81406928D01*
X123040009Y-81406928D01*
X123159057Y-80954547D02*
X123563819Y-80954547D01*
X123611438Y-80978357D01*
X123635247Y-81002166D01*
X123659057Y-81049785D01*
X123659057Y-81121214D01*
X123635247Y-81168833D01*
X123468580Y-80954547D02*
X123492390Y-81002166D01*
X123492390Y-81097404D01*
X123468580Y-81145023D01*
X123444771Y-81168833D01*
X123397152Y-81192642D01*
X123254295Y-81192642D01*
X123206676Y-81168833D01*
X123182866Y-81145023D01*
X123159057Y-81097404D01*
X123159057Y-81002166D01*
X123182866Y-80954547D01*
X123159057Y-80716452D02*
X123492390Y-80716452D01*
X123206676Y-80716452D02*
X123182866Y-80692642D01*
X123159057Y-80645023D01*
X123159057Y-80573595D01*
X123182866Y-80525976D01*
X123230485Y-80502166D01*
X123492390Y-80502166D01*
X123492390Y-80049785D02*
X123230485Y-80049785D01*
X123182866Y-80073595D01*
X123159057Y-80121214D01*
X123159057Y-80216452D01*
X123182866Y-80264071D01*
X123468580Y-80049785D02*
X123492390Y-80097404D01*
X123492390Y-80216452D01*
X123468580Y-80264071D01*
X123420961Y-80287880D01*
X123373342Y-80287880D01*
X123325723Y-80264071D01*
X123301914Y-80216452D01*
X123301914Y-80097404D01*
X123278104Y-80049785D01*
X123492390Y-79740261D02*
X123468580Y-79787880D01*
X123420961Y-79811690D01*
X122992390Y-79811690D01*
X123493980Y-94772028D02*
X123517790Y-94700600D01*
X123517790Y-94581552D01*
X123493980Y-94533933D01*
X123470171Y-94510123D01*
X123422552Y-94486314D01*
X123374933Y-94486314D01*
X123327314Y-94510123D01*
X123303504Y-94533933D01*
X123279695Y-94581552D01*
X123255885Y-94676790D01*
X123232076Y-94724409D01*
X123208266Y-94748219D01*
X123160647Y-94772028D01*
X123113028Y-94772028D01*
X123065409Y-94748219D01*
X123041600Y-94724409D01*
X123017790Y-94676790D01*
X123017790Y-94557742D01*
X123041600Y-94486314D01*
X123517790Y-94272028D02*
X123184457Y-94272028D01*
X123017790Y-94272028D02*
X123041600Y-94295838D01*
X123065409Y-94272028D01*
X123041600Y-94248219D01*
X123017790Y-94272028D01*
X123065409Y-94272028D01*
X123184457Y-93819647D02*
X123589219Y-93819647D01*
X123636838Y-93843457D01*
X123660647Y-93867266D01*
X123684457Y-93914885D01*
X123684457Y-93986314D01*
X123660647Y-94033933D01*
X123493980Y-93819647D02*
X123517790Y-93867266D01*
X123517790Y-93962504D01*
X123493980Y-94010123D01*
X123470171Y-94033933D01*
X123422552Y-94057742D01*
X123279695Y-94057742D01*
X123232076Y-94033933D01*
X123208266Y-94010123D01*
X123184457Y-93962504D01*
X123184457Y-93867266D01*
X123208266Y-93819647D01*
X123184457Y-93581552D02*
X123517790Y-93581552D01*
X123232076Y-93581552D02*
X123208266Y-93557742D01*
X123184457Y-93510123D01*
X123184457Y-93438695D01*
X123208266Y-93391076D01*
X123255885Y-93367266D01*
X123517790Y-93367266D01*
X123517790Y-92914885D02*
X123255885Y-92914885D01*
X123208266Y-92938695D01*
X123184457Y-92986314D01*
X123184457Y-93081552D01*
X123208266Y-93129171D01*
X123493980Y-92914885D02*
X123517790Y-92962504D01*
X123517790Y-93081552D01*
X123493980Y-93129171D01*
X123446361Y-93152980D01*
X123398742Y-93152980D01*
X123351123Y-93129171D01*
X123327314Y-93081552D01*
X123327314Y-92962504D01*
X123303504Y-92914885D01*
X123517790Y-92605361D02*
X123493980Y-92652980D01*
X123446361Y-92676790D01*
X123017790Y-92676790D01*
X123301914Y-84281852D02*
X123301914Y-83900900D01*
X123492390Y-84091376D02*
X123111438Y-84091376D01*
X122992390Y-83710423D02*
X122992390Y-83400900D01*
X123182866Y-83567566D01*
X123182866Y-83496138D01*
X123206676Y-83448519D01*
X123230485Y-83424709D01*
X123278104Y-83400900D01*
X123397152Y-83400900D01*
X123444771Y-83424709D01*
X123468580Y-83448519D01*
X123492390Y-83496138D01*
X123492390Y-83638995D01*
X123468580Y-83686614D01*
X123444771Y-83710423D01*
X122992390Y-83258042D02*
X123492390Y-83091376D01*
X122992390Y-82924709D01*
X122992390Y-82805661D02*
X122992390Y-82496138D01*
X123182866Y-82662804D01*
X123182866Y-82591376D01*
X123206676Y-82543757D01*
X123230485Y-82519947D01*
X123278104Y-82496138D01*
X123397152Y-82496138D01*
X123444771Y-82519947D01*
X123468580Y-82543757D01*
X123492390Y-82591376D01*
X123492390Y-82734233D01*
X123468580Y-82781852D01*
X123444771Y-82805661D01*
X123041600Y-88582452D02*
X123017790Y-88630071D01*
X123017790Y-88701500D01*
X123041600Y-88772928D01*
X123089219Y-88820547D01*
X123136838Y-88844357D01*
X123232076Y-88868166D01*
X123303504Y-88868166D01*
X123398742Y-88844357D01*
X123446361Y-88820547D01*
X123493980Y-88772928D01*
X123517790Y-88701500D01*
X123517790Y-88653880D01*
X123493980Y-88582452D01*
X123470171Y-88558642D01*
X123303504Y-88558642D01*
X123303504Y-88653880D01*
X123517790Y-88344357D02*
X123017790Y-88344357D01*
X123517790Y-88058642D01*
X123017790Y-88058642D01*
X123517790Y-87820547D02*
X123017790Y-87820547D01*
X123017790Y-87701500D01*
X123041600Y-87630071D01*
X123089219Y-87582452D01*
X123136838Y-87558642D01*
X123232076Y-87534833D01*
X123303504Y-87534833D01*
X123398742Y-87558642D01*
X123446361Y-87582452D01*
X123493980Y-87630071D01*
X123517790Y-87701500D01*
X123517790Y-87820547D01*
X123340014Y-91397057D02*
X123340014Y-91016104D01*
X123530490Y-91206580D02*
X123149538Y-91206580D01*
X123030490Y-90539914D02*
X123030490Y-90778009D01*
X123268585Y-90801819D01*
X123244776Y-90778009D01*
X123220966Y-90730390D01*
X123220966Y-90611342D01*
X123244776Y-90563723D01*
X123268585Y-90539914D01*
X123316204Y-90516104D01*
X123435252Y-90516104D01*
X123482871Y-90539914D01*
X123506680Y-90563723D01*
X123530490Y-90611342D01*
X123530490Y-90730390D01*
X123506680Y-90778009D01*
X123482871Y-90801819D01*
X123030490Y-90373247D02*
X123530490Y-90206580D01*
X123030490Y-90039914D01*
D11*
X135400171Y-111065285D02*
X133900171Y-111065285D01*
X134043028Y-110422428D02*
X133971600Y-110351000D01*
X133900171Y-110208142D01*
X133900171Y-109851000D01*
X133971600Y-109708142D01*
X134043028Y-109636714D01*
X134185885Y-109565285D01*
X134328742Y-109565285D01*
X134543028Y-109636714D01*
X135400171Y-110493857D01*
X135400171Y-109565285D01*
X135257314Y-108065285D02*
X135328742Y-108136714D01*
X135400171Y-108351000D01*
X135400171Y-108493857D01*
X135328742Y-108708142D01*
X135185885Y-108851000D01*
X135043028Y-108922428D01*
X134757314Y-108993857D01*
X134543028Y-108993857D01*
X134257314Y-108922428D01*
X134114457Y-108851000D01*
X133971600Y-108708142D01*
X133900171Y-108493857D01*
X133900171Y-108351000D01*
X133971600Y-108136714D01*
X134043028Y-108065285D01*
X72415828Y-85949600D02*
X73130114Y-85949600D01*
X72272971Y-86378171D02*
X72772971Y-84878171D01*
X73272971Y-86378171D01*
X73630114Y-84878171D02*
X74630114Y-86378171D01*
X74630114Y-84878171D02*
X73630114Y-86378171D01*
X75201542Y-85806742D02*
X76344400Y-85806742D01*
X77844400Y-86378171D02*
X76987257Y-86378171D01*
X77415828Y-86378171D02*
X77415828Y-84878171D01*
X77272971Y-85092457D01*
X77130114Y-85235314D01*
X76987257Y-85306742D01*
X78415828Y-85021028D02*
X78487257Y-84949600D01*
X78630114Y-84878171D01*
X78987257Y-84878171D01*
X79130114Y-84949600D01*
X79201542Y-85021028D01*
X79272971Y-85163885D01*
X79272971Y-85306742D01*
X79201542Y-85521028D01*
X78344400Y-86378171D01*
X79272971Y-86378171D01*
X104931100Y-94345485D02*
X104931100Y-93631200D01*
X105359671Y-94488342D02*
X103859671Y-93988342D01*
X105359671Y-93488342D01*
X104359671Y-92988342D02*
X105359671Y-92988342D01*
X104502528Y-92988342D02*
X104431100Y-92916914D01*
X104359671Y-92774057D01*
X104359671Y-92559771D01*
X104431100Y-92416914D01*
X104573957Y-92345485D01*
X105359671Y-92345485D01*
X105359671Y-90988342D02*
X104573957Y-90988342D01*
X104431100Y-91059771D01*
X104359671Y-91202628D01*
X104359671Y-91488342D01*
X104431100Y-91631200D01*
X105288242Y-90988342D02*
X105359671Y-91131200D01*
X105359671Y-91488342D01*
X105288242Y-91631200D01*
X105145385Y-91702628D01*
X105002528Y-91702628D01*
X104859671Y-91631200D01*
X104788242Y-91488342D01*
X104788242Y-91131200D01*
X104716814Y-90988342D01*
X105359671Y-90059771D02*
X105288242Y-90202628D01*
X105145385Y-90274057D01*
X103859671Y-90274057D01*
X105359671Y-89274057D02*
X105288242Y-89416914D01*
X105216814Y-89488342D01*
X105073957Y-89559771D01*
X104645385Y-89559771D01*
X104502528Y-89488342D01*
X104431100Y-89416914D01*
X104359671Y-89274057D01*
X104359671Y-89059771D01*
X104431100Y-88916914D01*
X104502528Y-88845485D01*
X104645385Y-88774057D01*
X105073957Y-88774057D01*
X105216814Y-88845485D01*
X105288242Y-88916914D01*
X105359671Y-89059771D01*
X105359671Y-89274057D01*
X104359671Y-87488342D02*
X105573957Y-87488342D01*
X105716814Y-87559771D01*
X105788242Y-87631200D01*
X105859671Y-87774057D01*
X105859671Y-87988342D01*
X105788242Y-88131200D01*
X105288242Y-87488342D02*
X105359671Y-87631200D01*
X105359671Y-87916914D01*
X105288242Y-88059771D01*
X105216814Y-88131200D01*
X105073957Y-88202628D01*
X104645385Y-88202628D01*
X104502528Y-88131200D01*
X104431100Y-88059771D01*
X104359671Y-87916914D01*
X104359671Y-87631200D01*
X104431100Y-87488342D01*
X107909671Y-93952628D02*
X106409671Y-93952628D01*
X106909671Y-93238342D02*
X107909671Y-93238342D01*
X107052528Y-93238342D02*
X106981100Y-93166914D01*
X106909671Y-93024057D01*
X106909671Y-92809771D01*
X106981100Y-92666914D01*
X107123957Y-92595485D01*
X107909671Y-92595485D01*
X106909671Y-91881200D02*
X108409671Y-91881200D01*
X106981100Y-91881200D02*
X106909671Y-91738342D01*
X106909671Y-91452628D01*
X106981100Y-91309771D01*
X107052528Y-91238342D01*
X107195385Y-91166914D01*
X107623957Y-91166914D01*
X107766814Y-91238342D01*
X107838242Y-91309771D01*
X107909671Y-91452628D01*
X107909671Y-91738342D01*
X107838242Y-91881200D01*
X106909671Y-89881200D02*
X107909671Y-89881200D01*
X106909671Y-90524057D02*
X107695385Y-90524057D01*
X107838242Y-90452628D01*
X107909671Y-90309771D01*
X107909671Y-90095485D01*
X107838242Y-89952628D01*
X107766814Y-89881200D01*
X106909671Y-89381200D02*
X106909671Y-88809771D01*
X106409671Y-89166914D02*
X107695385Y-89166914D01*
X107838242Y-89095485D01*
X107909671Y-88952628D01*
X107909671Y-88809771D01*
X107838242Y-88381200D02*
X107909671Y-88238342D01*
X107909671Y-87952628D01*
X107838242Y-87809771D01*
X107695385Y-87738342D01*
X107623957Y-87738342D01*
X107481100Y-87809771D01*
X107409671Y-87952628D01*
X107409671Y-88166914D01*
X107338242Y-88309771D01*
X107195385Y-88381200D01*
X107123957Y-88381200D01*
X106981100Y-88309771D01*
X106909671Y-88166914D01*
X106909671Y-87952628D01*
X106981100Y-87809771D01*
X102540271Y-85442014D02*
X101040271Y-85442014D01*
X101040271Y-85084871D01*
X101111700Y-84870585D01*
X101254557Y-84727728D01*
X101397414Y-84656299D01*
X101683128Y-84584871D01*
X101897414Y-84584871D01*
X102183128Y-84656299D01*
X102325985Y-84727728D01*
X102468842Y-84870585D01*
X102540271Y-85084871D01*
X102540271Y-85442014D01*
X102540271Y-83942014D02*
X101540271Y-83942014D01*
X101040271Y-83942014D02*
X101111700Y-84013442D01*
X101183128Y-83942014D01*
X101111700Y-83870585D01*
X101040271Y-83942014D01*
X101183128Y-83942014D01*
X101540271Y-82584871D02*
X102754557Y-82584871D01*
X102897414Y-82656299D01*
X102968842Y-82727728D01*
X103040271Y-82870585D01*
X103040271Y-83084871D01*
X102968842Y-83227728D01*
X102468842Y-82584871D02*
X102540271Y-82727728D01*
X102540271Y-83013442D01*
X102468842Y-83156299D01*
X102397414Y-83227728D01*
X102254557Y-83299157D01*
X101825985Y-83299157D01*
X101683128Y-83227728D01*
X101611700Y-83156299D01*
X101540271Y-83013442D01*
X101540271Y-82727728D01*
X101611700Y-82584871D01*
X102540271Y-81870585D02*
X101540271Y-81870585D01*
X101040271Y-81870585D02*
X101111700Y-81942014D01*
X101183128Y-81870585D01*
X101111700Y-81799157D01*
X101040271Y-81870585D01*
X101183128Y-81870585D01*
X101540271Y-81370585D02*
X101540271Y-80799157D01*
X101040271Y-81156299D02*
X102325985Y-81156299D01*
X102468842Y-81084871D01*
X102540271Y-80942014D01*
X102540271Y-80799157D01*
X102540271Y-79656299D02*
X101754557Y-79656299D01*
X101611700Y-79727728D01*
X101540271Y-79870585D01*
X101540271Y-80156299D01*
X101611700Y-80299157D01*
X102468842Y-79656299D02*
X102540271Y-79799157D01*
X102540271Y-80156299D01*
X102468842Y-80299157D01*
X102325985Y-80370585D01*
X102183128Y-80370585D01*
X102040271Y-80299157D01*
X101968842Y-80156299D01*
X101968842Y-79799157D01*
X101897414Y-79656299D01*
X102540271Y-78727728D02*
X102468842Y-78870585D01*
X102325985Y-78942014D01*
X101040271Y-78942014D01*
X105090271Y-85227728D02*
X103590271Y-85227728D01*
X104090271Y-84513442D02*
X105090271Y-84513442D01*
X104233128Y-84513442D02*
X104161700Y-84442014D01*
X104090271Y-84299157D01*
X104090271Y-84084871D01*
X104161700Y-83942014D01*
X104304557Y-83870585D01*
X105090271Y-83870585D01*
X104090271Y-83156300D02*
X105590271Y-83156300D01*
X104161700Y-83156300D02*
X104090271Y-83013442D01*
X104090271Y-82727728D01*
X104161700Y-82584871D01*
X104233128Y-82513442D01*
X104375985Y-82442014D01*
X104804557Y-82442014D01*
X104947414Y-82513442D01*
X105018842Y-82584871D01*
X105090271Y-82727728D01*
X105090271Y-83013442D01*
X105018842Y-83156300D01*
X104090271Y-81156300D02*
X105090271Y-81156300D01*
X104090271Y-81799157D02*
X104875985Y-81799157D01*
X105018842Y-81727728D01*
X105090271Y-81584871D01*
X105090271Y-81370585D01*
X105018842Y-81227728D01*
X104947414Y-81156300D01*
X104090271Y-80656300D02*
X104090271Y-80084871D01*
X103590271Y-80442014D02*
X104875985Y-80442014D01*
X105018842Y-80370585D01*
X105090271Y-80227728D01*
X105090271Y-80084871D01*
X105018842Y-79656300D02*
X105090271Y-79513442D01*
X105090271Y-79227728D01*
X105018842Y-79084871D01*
X104875985Y-79013442D01*
X104804557Y-79013442D01*
X104661700Y-79084871D01*
X104590271Y-79227728D01*
X104590271Y-79442014D01*
X104518842Y-79584871D01*
X104375985Y-79656300D01*
X104304557Y-79656300D01*
X104161700Y-79584871D01*
X104090271Y-79442014D01*
X104090271Y-79227728D01*
X104161700Y-79084871D01*
X125397342Y-88942514D02*
X125468771Y-88728228D01*
X125468771Y-88371085D01*
X125397342Y-88228228D01*
X125325914Y-88156800D01*
X125183057Y-88085371D01*
X125040200Y-88085371D01*
X124897342Y-88156800D01*
X124825914Y-88228228D01*
X124754485Y-88371085D01*
X124683057Y-88656800D01*
X124611628Y-88799657D01*
X124540200Y-88871085D01*
X124397342Y-88942514D01*
X124254485Y-88942514D01*
X124111628Y-88871085D01*
X124040200Y-88799657D01*
X123968771Y-88656800D01*
X123968771Y-88299657D01*
X124040200Y-88085371D01*
X125397342Y-86871085D02*
X125468771Y-87013942D01*
X125468771Y-87299657D01*
X125397342Y-87442514D01*
X125254485Y-87513942D01*
X124683057Y-87513942D01*
X124540200Y-87442514D01*
X124468771Y-87299657D01*
X124468771Y-87013942D01*
X124540200Y-86871085D01*
X124683057Y-86799657D01*
X124825914Y-86799657D01*
X124968771Y-87513942D01*
X125468771Y-86156800D02*
X124468771Y-86156800D01*
X124754485Y-86156800D02*
X124611628Y-86085371D01*
X124540200Y-86013942D01*
X124468771Y-85871085D01*
X124468771Y-85728228D01*
X124468771Y-85371085D02*
X125468771Y-85013942D01*
X124468771Y-84656800D01*
X125468771Y-83871085D02*
X125397342Y-84013942D01*
X125325914Y-84085371D01*
X125183057Y-84156800D01*
X124754485Y-84156800D01*
X124611628Y-84085371D01*
X124540200Y-84013942D01*
X124468771Y-83871085D01*
X124468771Y-83656800D01*
X124540200Y-83513942D01*
X124611628Y-83442514D01*
X124754485Y-83371085D01*
X125183057Y-83371085D01*
X125325914Y-83442514D01*
X125397342Y-83513942D01*
X125468771Y-83656800D01*
X125468771Y-83871085D01*
D12*
X110922714Y-63597285D02*
X111351285Y-63597285D01*
X111137000Y-64347285D02*
X111137000Y-63597285D01*
X112029857Y-64275857D02*
X111994142Y-64311571D01*
X111887000Y-64347285D01*
X111815571Y-64347285D01*
X111708428Y-64311571D01*
X111637000Y-64240142D01*
X111601285Y-64168714D01*
X111565571Y-64025857D01*
X111565571Y-63918714D01*
X111601285Y-63775857D01*
X111637000Y-63704428D01*
X111708428Y-63633000D01*
X111815571Y-63597285D01*
X111887000Y-63597285D01*
X111994142Y-63633000D01*
X112029857Y-63668714D01*
X112351285Y-64347285D02*
X112351285Y-63597285D01*
X112779857Y-64347285D02*
X112458428Y-63918714D01*
X112779857Y-63597285D02*
X112351285Y-64025857D01*
X108038971Y-63607600D02*
X107967542Y-63571885D01*
X107860400Y-63571885D01*
X107753257Y-63607600D01*
X107681828Y-63679028D01*
X107646114Y-63750457D01*
X107610400Y-63893314D01*
X107610400Y-64000457D01*
X107646114Y-64143314D01*
X107681828Y-64214742D01*
X107753257Y-64286171D01*
X107860400Y-64321885D01*
X107931828Y-64321885D01*
X108038971Y-64286171D01*
X108074685Y-64250457D01*
X108074685Y-64000457D01*
X107931828Y-64000457D01*
X108396114Y-64321885D02*
X108396114Y-63571885D01*
X108824685Y-64321885D01*
X108824685Y-63571885D01*
X109181828Y-64321885D02*
X109181828Y-63571885D01*
X109360400Y-63571885D01*
X109467542Y-63607600D01*
X109538971Y-63679028D01*
X109574685Y-63750457D01*
X109610400Y-63893314D01*
X109610400Y-64000457D01*
X109574685Y-64143314D01*
X109538971Y-64214742D01*
X109467542Y-64286171D01*
X109360400Y-64321885D01*
X109181828Y-64321885D01*
X105197400Y-63571885D02*
X105625971Y-63571885D01*
X105411685Y-64321885D02*
X105411685Y-63571885D01*
X105875971Y-64321885D02*
X105875971Y-63571885D01*
X106125971Y-64107600D01*
X106375971Y-63571885D01*
X106375971Y-64321885D01*
X106697400Y-64286171D02*
X106804542Y-64321885D01*
X106983114Y-64321885D01*
X107054542Y-64286171D01*
X107090257Y-64250457D01*
X107125971Y-64179028D01*
X107125971Y-64107600D01*
X107090257Y-64036171D01*
X107054542Y-64000457D01*
X106983114Y-63964742D01*
X106840257Y-63929028D01*
X106768828Y-63893314D01*
X106733114Y-63857600D01*
X106697400Y-63786171D01*
X106697400Y-63714742D01*
X106733114Y-63643314D01*
X106768828Y-63607600D01*
X106840257Y-63571885D01*
X107018828Y-63571885D01*
X107125971Y-63607600D01*
X102323657Y-64321885D02*
X102323657Y-63571885D01*
X102752228Y-64321885D01*
X102752228Y-63571885D01*
X103537942Y-64321885D02*
X103287942Y-63964742D01*
X103109371Y-64321885D02*
X103109371Y-63571885D01*
X103395085Y-63571885D01*
X103466514Y-63607600D01*
X103502228Y-63643314D01*
X103537942Y-63714742D01*
X103537942Y-63821885D01*
X103502228Y-63893314D01*
X103466514Y-63929028D01*
X103395085Y-63964742D01*
X103109371Y-63964742D01*
X103823657Y-64286171D02*
X103930800Y-64321885D01*
X104109371Y-64321885D01*
X104180800Y-64286171D01*
X104216514Y-64250457D01*
X104252228Y-64179028D01*
X104252228Y-64107600D01*
X104216514Y-64036171D01*
X104180800Y-64000457D01*
X104109371Y-63964742D01*
X103966514Y-63929028D01*
X103895085Y-63893314D01*
X103859371Y-63857600D01*
X103823657Y-63786171D01*
X103823657Y-63714742D01*
X103859371Y-63643314D01*
X103895085Y-63607600D01*
X103966514Y-63571885D01*
X104145085Y-63571885D01*
X104252228Y-63607600D01*
X104466514Y-63571885D02*
X104895085Y-63571885D01*
X104680800Y-64321885D02*
X104680800Y-63571885D01*
X99776885Y-64286171D02*
X99884028Y-64321885D01*
X100062600Y-64321885D01*
X100134028Y-64286171D01*
X100169742Y-64250457D01*
X100205457Y-64179028D01*
X100205457Y-64107600D01*
X100169742Y-64036171D01*
X100134028Y-64000457D01*
X100062600Y-63964742D01*
X99919742Y-63929028D01*
X99848314Y-63893314D01*
X99812600Y-63857600D01*
X99776885Y-63786171D01*
X99776885Y-63714742D01*
X99812600Y-63643314D01*
X99848314Y-63607600D01*
X99919742Y-63571885D01*
X100098314Y-63571885D01*
X100205457Y-63607600D01*
X100455457Y-63571885D02*
X100634028Y-64321885D01*
X100776885Y-63786171D01*
X100919742Y-64321885D01*
X101098314Y-63571885D01*
X101526885Y-63571885D02*
X101669742Y-63571885D01*
X101741171Y-63607600D01*
X101812600Y-63679028D01*
X101848314Y-63821885D01*
X101848314Y-64071885D01*
X101812600Y-64214742D01*
X101741171Y-64286171D01*
X101669742Y-64321885D01*
X101526885Y-64321885D01*
X101455457Y-64286171D01*
X101384028Y-64214742D01*
X101348314Y-64071885D01*
X101348314Y-63821885D01*
X101384028Y-63679028D01*
X101455457Y-63607600D01*
X101526885Y-63571885D01*
D13*
X98704400Y-66395600D02*
X99644200Y-65963800D01*
D12*
X104377685Y-52195000D02*
X104020542Y-52445000D01*
X104377685Y-52623571D02*
X103627685Y-52623571D01*
X103627685Y-52337857D01*
X103663400Y-52266428D01*
X103699114Y-52230714D01*
X103770542Y-52195000D01*
X103877685Y-52195000D01*
X103949114Y-52230714D01*
X103984828Y-52266428D01*
X104020542Y-52337857D01*
X104020542Y-52623571D01*
X103627685Y-51945000D02*
X104377685Y-51445000D01*
X103627685Y-51445000D02*
X104377685Y-51945000D01*
X103627685Y-55156028D02*
X103627685Y-54727457D01*
X104377685Y-54941742D02*
X103627685Y-54941742D01*
X103627685Y-54548885D02*
X104377685Y-54048885D01*
X103627685Y-54048885D02*
X104377685Y-54548885D01*
D13*
X104597200Y-56591200D02*
X105105200Y-55981600D01*
D12*
X79743847Y-66876561D02*
X79886704Y-66924180D01*
X80124800Y-66924180D01*
X80220038Y-66876561D01*
X80267657Y-66828942D01*
X80315276Y-66733704D01*
X80315276Y-66638466D01*
X80267657Y-66543228D01*
X80220038Y-66495609D01*
X80124800Y-66447990D01*
X79934323Y-66400371D01*
X79839085Y-66352752D01*
X79791466Y-66305133D01*
X79743847Y-66209895D01*
X79743847Y-66114657D01*
X79791466Y-66019419D01*
X79839085Y-65971800D01*
X79934323Y-65924180D01*
X80172419Y-65924180D01*
X80315276Y-65971800D01*
X80600990Y-65924180D02*
X81172419Y-65924180D01*
X80886704Y-66924180D02*
X80886704Y-65924180D01*
X81505752Y-66543228D02*
X82267657Y-66543228D01*
X83220038Y-66924180D02*
X82743847Y-66924180D01*
X82743847Y-65924180D01*
X83553371Y-66924180D02*
X83553371Y-65924180D01*
X84029561Y-66924180D02*
X84029561Y-65924180D01*
X84600990Y-66924180D01*
X84600990Y-65924180D01*
X85077180Y-66924180D02*
X85077180Y-65924180D01*
X85648609Y-66924180D02*
X85220038Y-66352752D01*
X85648609Y-65924180D02*
X85077180Y-66495609D01*
X86791466Y-65876561D02*
X85934323Y-67162276D01*
X86981942Y-65924180D02*
X87315276Y-66924180D01*
X87648609Y-65924180D01*
X87934323Y-66019419D02*
X87981942Y-65971800D01*
X88077180Y-65924180D01*
X88315276Y-65924180D01*
X88410514Y-65971800D01*
X88458133Y-66019419D01*
X88505752Y-66114657D01*
X88505752Y-66209895D01*
X88458133Y-66352752D01*
X87886704Y-66924180D01*
X88505752Y-66924180D01*
D13*
X112928400Y-67513200D02*
X112928400Y-50038000D01*
X75488800Y-67513200D02*
X112928400Y-67513200D01*
X75488800Y-50038000D02*
X75488800Y-67513200D01*
D11*
X125855742Y-56825342D02*
X126998600Y-56825342D01*
X126427171Y-57396771D02*
X126427171Y-56253914D01*
X128498600Y-57396771D02*
X127641457Y-57396771D01*
X128070028Y-57396771D02*
X128070028Y-55896771D01*
X127927171Y-56111057D01*
X127784314Y-56253914D01*
X127641457Y-56325342D01*
X129070028Y-56039628D02*
X129141457Y-55968200D01*
X129284314Y-55896771D01*
X129641457Y-55896771D01*
X129784314Y-55968200D01*
X129855742Y-56039628D01*
X129927171Y-56182485D01*
X129927171Y-56325342D01*
X129855742Y-56539628D01*
X128998600Y-57396771D01*
X129927171Y-57396771D01*
X130355742Y-55896771D02*
X130855742Y-57396771D01*
X131355742Y-55896771D01*
D14*
G36*
X65481619Y-82603730D02*
G01*
X65564734Y-82390374D01*
X65703993Y-82278867D01*
X65881196Y-82278850D01*
X65992948Y-82332907D01*
X66100378Y-82429906D01*
X66146707Y-82564464D01*
X66154300Y-82713073D01*
X66123497Y-82952684D01*
X66032536Y-83097711D01*
X65864075Y-83187248D01*
X65794466Y-83179426D01*
X65794466Y-83070700D01*
X65918915Y-83026060D01*
X65963460Y-82886323D01*
X65963800Y-82867383D01*
X65945679Y-82786825D01*
X65868850Y-82800346D01*
X65836800Y-82816700D01*
X65740610Y-82904493D01*
X65711960Y-83001962D01*
X65758207Y-83064961D01*
X65794466Y-83070700D01*
X65794466Y-83179426D01*
X65703134Y-83169161D01*
X65700928Y-83167381D01*
X65700928Y-82715137D01*
X65808310Y-82649975D01*
X65903403Y-82550328D01*
X65902695Y-82468031D01*
X65817914Y-82439294D01*
X65745818Y-82457026D01*
X65664138Y-82544525D01*
X65646300Y-82625671D01*
X65654259Y-82711407D01*
X65700928Y-82715137D01*
X65700928Y-83167381D01*
X65570541Y-83062126D01*
X65487127Y-82884820D01*
X65473720Y-82655920D01*
X65481619Y-82603730D01*
X65481619Y-82603730D01*
G37*
X65481619Y-82603730D02*
X65564734Y-82390374D01*
X65703993Y-82278867D01*
X65881196Y-82278850D01*
X65992948Y-82332907D01*
X66100378Y-82429906D01*
X66146707Y-82564464D01*
X66154300Y-82713073D01*
X66123497Y-82952684D01*
X66032536Y-83097711D01*
X65864075Y-83187248D01*
X65794466Y-83179426D01*
X65794466Y-83070700D01*
X65918915Y-83026060D01*
X65963460Y-82886323D01*
X65963800Y-82867383D01*
X65945679Y-82786825D01*
X65868850Y-82800346D01*
X65836800Y-82816700D01*
X65740610Y-82904493D01*
X65711960Y-83001962D01*
X65758207Y-83064961D01*
X65794466Y-83070700D01*
X65794466Y-83179426D01*
X65703134Y-83169161D01*
X65700928Y-83167381D01*
X65700928Y-82715137D01*
X65808310Y-82649975D01*
X65903403Y-82550328D01*
X65902695Y-82468031D01*
X65817914Y-82439294D01*
X65745818Y-82457026D01*
X65664138Y-82544525D01*
X65646300Y-82625671D01*
X65654259Y-82711407D01*
X65700928Y-82715137D01*
X65700928Y-83167381D01*
X65570541Y-83062126D01*
X65487127Y-82884820D01*
X65473720Y-82655920D01*
X65481619Y-82603730D01*
G36*
X65517318Y-85973075D02*
G01*
X65620125Y-85831057D01*
X65754586Y-85750540D01*
X65905117Y-85753433D01*
X66049208Y-85853826D01*
X66130166Y-86018440D01*
X66154080Y-86232752D01*
X66121786Y-86441313D01*
X66038174Y-86585109D01*
X65859528Y-86679526D01*
X65809345Y-86673808D01*
X65809345Y-86533831D01*
X65874203Y-86495009D01*
X65945314Y-86396669D01*
X65961088Y-86296346D01*
X65914465Y-86246012D01*
X65908075Y-86245700D01*
X65814343Y-86294118D01*
X65744933Y-86398399D01*
X65740047Y-86497083D01*
X65741736Y-86500002D01*
X65809345Y-86533831D01*
X65809345Y-86673808D01*
X65700928Y-86661453D01*
X65700928Y-86207637D01*
X65808310Y-86142475D01*
X65903403Y-86042828D01*
X65902695Y-85960531D01*
X65817914Y-85931794D01*
X65745818Y-85949526D01*
X65664138Y-86037025D01*
X65646300Y-86118171D01*
X65654259Y-86203907D01*
X65700928Y-86207637D01*
X65700928Y-86661453D01*
X65682600Y-86659364D01*
X65554650Y-86549071D01*
X65468997Y-86353989D01*
X65461748Y-86154688D01*
X65517318Y-85973075D01*
X65517318Y-85973075D01*
G37*
X65517318Y-85973075D02*
X65620125Y-85831057D01*
X65754586Y-85750540D01*
X65905117Y-85753433D01*
X66049208Y-85853826D01*
X66130166Y-86018440D01*
X66154080Y-86232752D01*
X66121786Y-86441313D01*
X66038174Y-86585109D01*
X65859528Y-86679526D01*
X65809345Y-86673808D01*
X65809345Y-86533831D01*
X65874203Y-86495009D01*
X65945314Y-86396669D01*
X65961088Y-86296346D01*
X65914465Y-86246012D01*
X65908075Y-86245700D01*
X65814343Y-86294118D01*
X65744933Y-86398399D01*
X65740047Y-86497083D01*
X65741736Y-86500002D01*
X65809345Y-86533831D01*
X65809345Y-86673808D01*
X65700928Y-86661453D01*
X65700928Y-86207637D01*
X65808310Y-86142475D01*
X65903403Y-86042828D01*
X65902695Y-85960531D01*
X65817914Y-85931794D01*
X65745818Y-85949526D01*
X65664138Y-86037025D01*
X65646300Y-86118171D01*
X65654259Y-86203907D01*
X65700928Y-86207637D01*
X65700928Y-86661453D01*
X65682600Y-86659364D01*
X65554650Y-86549071D01*
X65468997Y-86353989D01*
X65461748Y-86154688D01*
X65517318Y-85973075D01*
G36*
X65378157Y-81558985D02*
G01*
X65509840Y-81454699D01*
X65699267Y-81319800D01*
X65781844Y-81264079D01*
X66234889Y-80962825D01*
X65782913Y-80667388D01*
X65577559Y-80528063D01*
X65420698Y-80411945D01*
X65337194Y-80337835D01*
X65329868Y-80324832D01*
X65378693Y-80270628D01*
X65509799Y-80166876D01*
X65698560Y-80032583D01*
X65777349Y-79979448D01*
X66225898Y-79681182D01*
X65777349Y-79400476D01*
X65571761Y-79266058D01*
X65415764Y-79153096D01*
X65334751Y-79080395D01*
X65328800Y-79068315D01*
X65379004Y-79013384D01*
X65512801Y-78911644D01*
X65704969Y-78781769D01*
X65782569Y-78732357D01*
X66000877Y-78593226D01*
X66125535Y-78503001D01*
X66171326Y-78444475D01*
X66153032Y-78400439D01*
X66100069Y-78362753D01*
X65985059Y-78221270D01*
X65963800Y-78102426D01*
X65984624Y-77973458D01*
X66070241Y-77929559D01*
X66122550Y-77927200D01*
X66250228Y-77960321D01*
X66281300Y-78022450D01*
X66308409Y-78107052D01*
X66331323Y-78117700D01*
X66406781Y-78155120D01*
X66537095Y-78249156D01*
X66593904Y-78295151D01*
X66806461Y-78472602D01*
X66385130Y-78747110D01*
X66187516Y-78881633D01*
X66039589Y-78993327D01*
X65967111Y-79062406D01*
X65963799Y-79070711D01*
X66014484Y-79124415D01*
X66148500Y-79221578D01*
X66338787Y-79342862D01*
X66375440Y-79364878D01*
X66572855Y-79488131D01*
X66718906Y-79590208D01*
X66786462Y-79651903D01*
X66788190Y-79657069D01*
X66739400Y-79711351D01*
X66608431Y-79815052D01*
X66420020Y-79949052D01*
X66344800Y-79999761D01*
X66142447Y-80136736D01*
X65988315Y-80245676D01*
X65907006Y-80309007D01*
X65900300Y-80317261D01*
X65949343Y-80359855D01*
X66080073Y-80454388D01*
X66267888Y-80583287D01*
X66344800Y-80634761D01*
X66547397Y-80773770D01*
X66701435Y-80887634D01*
X66782222Y-80957776D01*
X66788621Y-80968642D01*
X66738603Y-81018143D01*
X66605998Y-81116553D01*
X66415965Y-81245556D01*
X66343414Y-81292700D01*
X65898887Y-81578450D01*
X66058343Y-81707836D01*
X66181835Y-81849803D01*
X66219840Y-81985687D01*
X66172304Y-82085076D01*
X66059050Y-82118200D01*
X65939592Y-82101870D01*
X65900186Y-82070575D01*
X65850865Y-82012802D01*
X65724347Y-81915615D01*
X65614436Y-81842495D01*
X65454561Y-81733151D01*
X65350901Y-81646249D01*
X65328799Y-81613686D01*
X65378157Y-81558985D01*
X65378157Y-81558985D01*
G37*
X65378157Y-81558985D02*
X65509840Y-81454699D01*
X65699267Y-81319800D01*
X65781844Y-81264079D01*
X66234889Y-80962825D01*
X65782913Y-80667388D01*
X65577559Y-80528063D01*
X65420698Y-80411945D01*
X65337194Y-80337835D01*
X65329868Y-80324832D01*
X65378693Y-80270628D01*
X65509799Y-80166876D01*
X65698560Y-80032583D01*
X65777349Y-79979448D01*
X66225898Y-79681182D01*
X65777349Y-79400476D01*
X65571761Y-79266058D01*
X65415764Y-79153096D01*
X65334751Y-79080395D01*
X65328800Y-79068315D01*
X65379004Y-79013384D01*
X65512801Y-78911644D01*
X65704969Y-78781769D01*
X65782569Y-78732357D01*
X66000877Y-78593226D01*
X66125535Y-78503001D01*
X66171326Y-78444475D01*
X66153032Y-78400439D01*
X66100069Y-78362753D01*
X65985059Y-78221270D01*
X65963800Y-78102426D01*
X65984624Y-77973458D01*
X66070241Y-77929559D01*
X66122550Y-77927200D01*
X66250228Y-77960321D01*
X66281300Y-78022450D01*
X66308409Y-78107052D01*
X66331323Y-78117700D01*
X66406781Y-78155120D01*
X66537095Y-78249156D01*
X66593904Y-78295151D01*
X66806461Y-78472602D01*
X66385130Y-78747110D01*
X66187516Y-78881633D01*
X66039589Y-78993327D01*
X65967111Y-79062406D01*
X65963799Y-79070711D01*
X66014484Y-79124415D01*
X66148500Y-79221578D01*
X66338787Y-79342862D01*
X66375440Y-79364878D01*
X66572855Y-79488131D01*
X66718906Y-79590208D01*
X66786462Y-79651903D01*
X66788190Y-79657069D01*
X66739400Y-79711351D01*
X66608431Y-79815052D01*
X66420020Y-79949052D01*
X66344800Y-79999761D01*
X66142447Y-80136736D01*
X65988315Y-80245676D01*
X65907006Y-80309007D01*
X65900300Y-80317261D01*
X65949343Y-80359855D01*
X66080073Y-80454388D01*
X66267888Y-80583287D01*
X66344800Y-80634761D01*
X66547397Y-80773770D01*
X66701435Y-80887634D01*
X66782222Y-80957776D01*
X66788621Y-80968642D01*
X66738603Y-81018143D01*
X66605998Y-81116553D01*
X66415965Y-81245556D01*
X66343414Y-81292700D01*
X65898887Y-81578450D01*
X66058343Y-81707836D01*
X66181835Y-81849803D01*
X66219840Y-81985687D01*
X66172304Y-82085076D01*
X66059050Y-82118200D01*
X65939592Y-82101870D01*
X65900186Y-82070575D01*
X65850865Y-82012802D01*
X65724347Y-81915615D01*
X65614436Y-81842495D01*
X65454561Y-81733151D01*
X65350901Y-81646249D01*
X65328799Y-81613686D01*
X65378157Y-81558985D01*
G36*
X66338410Y-82335977D02*
G01*
X66484431Y-82312986D01*
X66598800Y-82308700D01*
X66779915Y-82320123D01*
X66894873Y-82349327D01*
X66916300Y-82372200D01*
X66863115Y-82423793D01*
X66789300Y-82435700D01*
X66709283Y-82454829D01*
X66671873Y-82533894D01*
X66662312Y-82705412D01*
X66662300Y-82715506D01*
X66668864Y-82887504D01*
X66698536Y-82961831D01*
X66766287Y-82967554D01*
X66789300Y-82962100D01*
X66895053Y-82959103D01*
X66904450Y-83013789D01*
X66817354Y-83100947D01*
X66790161Y-83118926D01*
X66634313Y-83196546D01*
X66537488Y-83185041D01*
X66487441Y-83072783D01*
X66471924Y-82848148D01*
X66471800Y-82816700D01*
X66464484Y-82595471D01*
X66438553Y-82476694D01*
X66388026Y-82436452D01*
X66376550Y-82435700D01*
X66292046Y-82401412D01*
X66281300Y-82372200D01*
X66338410Y-82335977D01*
X66338410Y-82335977D01*
G37*
X66338410Y-82335977D02*
X66484431Y-82312986D01*
X66598800Y-82308700D01*
X66779915Y-82320123D01*
X66894873Y-82349327D01*
X66916300Y-82372200D01*
X66863115Y-82423793D01*
X66789300Y-82435700D01*
X66709283Y-82454829D01*
X66671873Y-82533894D01*
X66662312Y-82705412D01*
X66662300Y-82715506D01*
X66668864Y-82887504D01*
X66698536Y-82961831D01*
X66766287Y-82967554D01*
X66789300Y-82962100D01*
X66895053Y-82959103D01*
X66904450Y-83013789D01*
X66817354Y-83100947D01*
X66790161Y-83118926D01*
X66634313Y-83196546D01*
X66537488Y-83185041D01*
X66487441Y-83072783D01*
X66471924Y-82848148D01*
X66471800Y-82816700D01*
X66464484Y-82595471D01*
X66438553Y-82476694D01*
X66388026Y-82436452D01*
X66376550Y-82435700D01*
X66292046Y-82401412D01*
X66281300Y-82372200D01*
X66338410Y-82335977D01*
G36*
X66329602Y-85915192D02*
G01*
X66443008Y-85829392D01*
X66582925Y-85772943D01*
X66661615Y-85756415D01*
X66704369Y-85785742D01*
X66722117Y-85887044D01*
X66725786Y-86086441D01*
X66725800Y-86114421D01*
X66732972Y-86337056D01*
X66758426Y-86457191D01*
X66808071Y-86498723D01*
X66821050Y-86499700D01*
X66905236Y-86550530D01*
X66916300Y-86594950D01*
X66878903Y-86657731D01*
X66751747Y-86686328D01*
X66630550Y-86690200D01*
X66442208Y-86677735D01*
X66356418Y-86635350D01*
X66344800Y-86594950D01*
X66395629Y-86510764D01*
X66440050Y-86499700D01*
X66505485Y-86458852D01*
X66533135Y-86322592D01*
X66535300Y-86238907D01*
X66525270Y-86072648D01*
X66488824Y-86009243D01*
X66442083Y-86013883D01*
X66342293Y-86017038D01*
X66315782Y-85996122D01*
X66329602Y-85915192D01*
X66329602Y-85915192D01*
G37*
X66329602Y-85915192D02*
X66443008Y-85829392D01*
X66582925Y-85772943D01*
X66661615Y-85756415D01*
X66704369Y-85785742D01*
X66722117Y-85887044D01*
X66725786Y-86086441D01*
X66725800Y-86114421D01*
X66732972Y-86337056D01*
X66758426Y-86457191D01*
X66808071Y-86498723D01*
X66821050Y-86499700D01*
X66905236Y-86550530D01*
X66916300Y-86594950D01*
X66878903Y-86657731D01*
X66751747Y-86686328D01*
X66630550Y-86690200D01*
X66442208Y-86677735D01*
X66356418Y-86635350D01*
X66344800Y-86594950D01*
X66395629Y-86510764D01*
X66440050Y-86499700D01*
X66505485Y-86458852D01*
X66533135Y-86322592D01*
X66535300Y-86238907D01*
X66525270Y-86072648D01*
X66488824Y-86009243D01*
X66442083Y-86013883D01*
X66342293Y-86017038D01*
X66315782Y-85996122D01*
X66329602Y-85915192D01*
G36*
X67056380Y-82604849D02*
G01*
X67128554Y-82422381D01*
X67170300Y-82372200D01*
X67317264Y-82264297D01*
X67459840Y-82265522D01*
X67600670Y-82344051D01*
X67703437Y-82484399D01*
X67746875Y-82686336D01*
X67729261Y-82898264D01*
X67648872Y-83068587D01*
X67625674Y-83092609D01*
X67480158Y-83176205D01*
X67465985Y-83179109D01*
X67465985Y-83048708D01*
X67537868Y-82959996D01*
X67551300Y-82874219D01*
X67534042Y-82788204D01*
X67459416Y-82798886D01*
X67424300Y-82816700D01*
X67312333Y-82911173D01*
X67318514Y-83002839D01*
X67360800Y-83038950D01*
X67465985Y-83048708D01*
X67465985Y-83179109D01*
X67375275Y-83197700D01*
X67288428Y-83166354D01*
X67288428Y-82715137D01*
X67395810Y-82649975D01*
X67490903Y-82550328D01*
X67490195Y-82468031D01*
X67405414Y-82439294D01*
X67333318Y-82457026D01*
X67251638Y-82544525D01*
X67233800Y-82625671D01*
X67241759Y-82711407D01*
X67288428Y-82715137D01*
X67288428Y-83166354D01*
X67222411Y-83142526D01*
X67112308Y-83001164D01*
X67053964Y-82809857D01*
X67056380Y-82604849D01*
X67056380Y-82604849D01*
G37*
X67056380Y-82604849D02*
X67128554Y-82422381D01*
X67170300Y-82372200D01*
X67317264Y-82264297D01*
X67459840Y-82265522D01*
X67600670Y-82344051D01*
X67703437Y-82484399D01*
X67746875Y-82686336D01*
X67729261Y-82898264D01*
X67648872Y-83068587D01*
X67625674Y-83092609D01*
X67480158Y-83176205D01*
X67465985Y-83179109D01*
X67465985Y-83048708D01*
X67537868Y-82959996D01*
X67551300Y-82874219D01*
X67534042Y-82788204D01*
X67459416Y-82798886D01*
X67424300Y-82816700D01*
X67312333Y-82911173D01*
X67318514Y-83002839D01*
X67360800Y-83038950D01*
X67465985Y-83048708D01*
X67465985Y-83179109D01*
X67375275Y-83197700D01*
X67288428Y-83166354D01*
X67288428Y-82715137D01*
X67395810Y-82649975D01*
X67490903Y-82550328D01*
X67490195Y-82468031D01*
X67405414Y-82439294D01*
X67333318Y-82457026D01*
X67251638Y-82544525D01*
X67233800Y-82625671D01*
X67241759Y-82711407D01*
X67288428Y-82715137D01*
X67288428Y-83166354D01*
X67222411Y-83142526D01*
X67112308Y-83001164D01*
X67053964Y-82809857D01*
X67056380Y-82604849D01*
G36*
X67104818Y-85973075D02*
G01*
X67207625Y-85831057D01*
X67342086Y-85750540D01*
X67492617Y-85753433D01*
X67636708Y-85853826D01*
X67717666Y-86018440D01*
X67741580Y-86232752D01*
X67709286Y-86441313D01*
X67625674Y-86585109D01*
X67447028Y-86679526D01*
X67404729Y-86674706D01*
X67404729Y-86535290D01*
X67495410Y-86492033D01*
X67549218Y-86391899D01*
X67551300Y-86365907D01*
X67526754Y-86266417D01*
X67495575Y-86245700D01*
X67403898Y-86292933D01*
X67332655Y-86394378D01*
X67323148Y-86489659D01*
X67325616Y-86494146D01*
X67404729Y-86535290D01*
X67404729Y-86674706D01*
X67288428Y-86661453D01*
X67288428Y-86207637D01*
X67395810Y-86142475D01*
X67490903Y-86042828D01*
X67490195Y-85960531D01*
X67405414Y-85931794D01*
X67333318Y-85949526D01*
X67251638Y-86037025D01*
X67233800Y-86118171D01*
X67241759Y-86203907D01*
X67288428Y-86207637D01*
X67288428Y-86661453D01*
X67270100Y-86659364D01*
X67142150Y-86549071D01*
X67056497Y-86353989D01*
X67049248Y-86154688D01*
X67104818Y-85973075D01*
X67104818Y-85973075D01*
G37*
X67104818Y-85973075D02*
X67207625Y-85831057D01*
X67342086Y-85750540D01*
X67492617Y-85753433D01*
X67636708Y-85853826D01*
X67717666Y-86018440D01*
X67741580Y-86232752D01*
X67709286Y-86441313D01*
X67625674Y-86585109D01*
X67447028Y-86679526D01*
X67404729Y-86674706D01*
X67404729Y-86535290D01*
X67495410Y-86492033D01*
X67549218Y-86391899D01*
X67551300Y-86365907D01*
X67526754Y-86266417D01*
X67495575Y-86245700D01*
X67403898Y-86292933D01*
X67332655Y-86394378D01*
X67323148Y-86489659D01*
X67325616Y-86494146D01*
X67404729Y-86535290D01*
X67404729Y-86674706D01*
X67288428Y-86661453D01*
X67288428Y-86207637D01*
X67395810Y-86142475D01*
X67490903Y-86042828D01*
X67490195Y-85960531D01*
X67405414Y-85931794D01*
X67333318Y-85949526D01*
X67251638Y-86037025D01*
X67233800Y-86118171D01*
X67241759Y-86203907D01*
X67288428Y-86207637D01*
X67288428Y-86661453D01*
X67270100Y-86659364D01*
X67142150Y-86549071D01*
X67056497Y-86353989D01*
X67049248Y-86154688D01*
X67104818Y-85973075D01*
G36*
X67925910Y-82335977D02*
G01*
X68071931Y-82312986D01*
X68186300Y-82308700D01*
X68367415Y-82320123D01*
X68482373Y-82349327D01*
X68503800Y-82372200D01*
X68450615Y-82423793D01*
X68376800Y-82435700D01*
X68296783Y-82454829D01*
X68259373Y-82533894D01*
X68249812Y-82705412D01*
X68249800Y-82715506D01*
X68256364Y-82887504D01*
X68286036Y-82961831D01*
X68353787Y-82967554D01*
X68376800Y-82962100D01*
X68482553Y-82959103D01*
X68491950Y-83013789D01*
X68404854Y-83100947D01*
X68377661Y-83118926D01*
X68221813Y-83196546D01*
X68124988Y-83185041D01*
X68074941Y-83072783D01*
X68059424Y-82848148D01*
X68059300Y-82816700D01*
X68051984Y-82595471D01*
X68026053Y-82476694D01*
X67975526Y-82436452D01*
X67964050Y-82435700D01*
X67879546Y-82401412D01*
X67868800Y-82372200D01*
X67925910Y-82335977D01*
X67925910Y-82335977D01*
G37*
X67925910Y-82335977D02*
X68071931Y-82312986D01*
X68186300Y-82308700D01*
X68367415Y-82320123D01*
X68482373Y-82349327D01*
X68503800Y-82372200D01*
X68450615Y-82423793D01*
X68376800Y-82435700D01*
X68296783Y-82454829D01*
X68259373Y-82533894D01*
X68249812Y-82705412D01*
X68249800Y-82715506D01*
X68256364Y-82887504D01*
X68286036Y-82961831D01*
X68353787Y-82967554D01*
X68376800Y-82962100D01*
X68482553Y-82959103D01*
X68491950Y-83013789D01*
X68404854Y-83100947D01*
X68377661Y-83118926D01*
X68221813Y-83196546D01*
X68124988Y-83185041D01*
X68074941Y-83072783D01*
X68059424Y-82848148D01*
X68059300Y-82816700D01*
X68051984Y-82595471D01*
X68026053Y-82476694D01*
X67975526Y-82436452D01*
X67964050Y-82435700D01*
X67879546Y-82401412D01*
X67868800Y-82372200D01*
X67925910Y-82335977D01*
G36*
X67984477Y-85876255D02*
G01*
X68105584Y-85793967D01*
X68242477Y-85742407D01*
X68285683Y-85737700D01*
X68300251Y-85795409D01*
X68310258Y-85945401D01*
X68313300Y-86118700D01*
X68320615Y-86339930D01*
X68346546Y-86458707D01*
X68397073Y-86498949D01*
X68408550Y-86499700D01*
X68492736Y-86550530D01*
X68503800Y-86594950D01*
X68466403Y-86657731D01*
X68339247Y-86686328D01*
X68218050Y-86690200D01*
X68029708Y-86677735D01*
X67943918Y-86635350D01*
X67932300Y-86594950D01*
X67983129Y-86510764D01*
X68027550Y-86499700D01*
X68092985Y-86458852D01*
X68120635Y-86322592D01*
X68122800Y-86238907D01*
X68113115Y-86073206D01*
X68077319Y-86009686D01*
X68027550Y-86014664D01*
X67945707Y-86004691D01*
X67932300Y-85956386D01*
X67984477Y-85876255D01*
X67984477Y-85876255D01*
G37*
X67984477Y-85876255D02*
X68105584Y-85793967D01*
X68242477Y-85742407D01*
X68285683Y-85737700D01*
X68300251Y-85795409D01*
X68310258Y-85945401D01*
X68313300Y-86118700D01*
X68320615Y-86339930D01*
X68346546Y-86458707D01*
X68397073Y-86498949D01*
X68408550Y-86499700D01*
X68492736Y-86550530D01*
X68503800Y-86594950D01*
X68466403Y-86657731D01*
X68339247Y-86686328D01*
X68218050Y-86690200D01*
X68029708Y-86677735D01*
X67943918Y-86635350D01*
X67932300Y-86594950D01*
X67983129Y-86510764D01*
X68027550Y-86499700D01*
X68092985Y-86458852D01*
X68120635Y-86322592D01*
X68122800Y-86238907D01*
X68113115Y-86073206D01*
X68077319Y-86009686D01*
X68027550Y-86014664D01*
X67945707Y-86004691D01*
X67932300Y-85956386D01*
X67984477Y-85876255D01*
G36*
X68671406Y-82553919D02*
G01*
X68778591Y-82380750D01*
X68930400Y-82290475D01*
X69104881Y-82301425D01*
X69174808Y-82337401D01*
X69278372Y-82434002D01*
X69322686Y-82573217D01*
X69329300Y-82713073D01*
X69295768Y-82960681D01*
X69213174Y-83092609D01*
X69036849Y-83184293D01*
X68969466Y-83178226D01*
X68969466Y-83070700D01*
X69093915Y-83026060D01*
X69138460Y-82886323D01*
X69138800Y-82867383D01*
X69120679Y-82786825D01*
X69043850Y-82800346D01*
X69011800Y-82816700D01*
X68915610Y-82904493D01*
X68886960Y-83001962D01*
X68933207Y-83064961D01*
X68969466Y-83070700D01*
X68969466Y-83178226D01*
X68865890Y-83168899D01*
X68865890Y-82708631D01*
X68973768Y-82656188D01*
X68979504Y-82652468D01*
X69085517Y-82551043D01*
X69088664Y-82470169D01*
X68988516Y-82435746D01*
X68983096Y-82435700D01*
X68891028Y-82490595D01*
X68830088Y-82620864D01*
X68821300Y-82696358D01*
X68865890Y-82708631D01*
X68865890Y-83168899D01*
X68861639Y-83168516D01*
X68718481Y-83061266D01*
X68638313Y-82878530D01*
X68630800Y-82791651D01*
X68671406Y-82553919D01*
X68671406Y-82553919D01*
G37*
X68671406Y-82553919D02*
X68778591Y-82380750D01*
X68930400Y-82290475D01*
X69104881Y-82301425D01*
X69174808Y-82337401D01*
X69278372Y-82434002D01*
X69322686Y-82573217D01*
X69329300Y-82713073D01*
X69295768Y-82960681D01*
X69213174Y-83092609D01*
X69036849Y-83184293D01*
X68969466Y-83178226D01*
X68969466Y-83070700D01*
X69093915Y-83026060D01*
X69138460Y-82886323D01*
X69138800Y-82867383D01*
X69120679Y-82786825D01*
X69043850Y-82800346D01*
X69011800Y-82816700D01*
X68915610Y-82904493D01*
X68886960Y-83001962D01*
X68933207Y-83064961D01*
X68969466Y-83070700D01*
X68969466Y-83178226D01*
X68865890Y-83168899D01*
X68865890Y-82708631D01*
X68973768Y-82656188D01*
X68979504Y-82652468D01*
X69085517Y-82551043D01*
X69088664Y-82470169D01*
X68988516Y-82435746D01*
X68983096Y-82435700D01*
X68891028Y-82490595D01*
X68830088Y-82620864D01*
X68821300Y-82696358D01*
X68865890Y-82708631D01*
X68865890Y-83168899D01*
X68861639Y-83168516D01*
X68718481Y-83061266D01*
X68638313Y-82878530D01*
X68630800Y-82791651D01*
X68671406Y-82553919D01*
G36*
X68673297Y-85995156D02*
G01*
X68782990Y-85836448D01*
X68933183Y-85754030D01*
X69097178Y-85764103D01*
X69224208Y-85853826D01*
X69300303Y-86010726D01*
X69327695Y-86222310D01*
X69305978Y-86432430D01*
X69234748Y-86584942D01*
X69229514Y-86590415D01*
X69069250Y-86679895D01*
X69011800Y-86674482D01*
X69011800Y-86499700D01*
X69117928Y-86454799D01*
X69138800Y-86372700D01*
X69117483Y-86269439D01*
X69088000Y-86245700D01*
X68996327Y-86291443D01*
X68909194Y-86386467D01*
X68884800Y-86448901D01*
X68938090Y-86490205D01*
X69011800Y-86499700D01*
X69011800Y-86674482D01*
X68902243Y-86664159D01*
X68871003Y-86642021D01*
X68871003Y-86209673D01*
X68975057Y-86137540D01*
X69066292Y-86033722D01*
X69063672Y-85954598D01*
X68976925Y-85933888D01*
X68920818Y-85949526D01*
X68839458Y-86036942D01*
X68821300Y-86119672D01*
X68828170Y-86207008D01*
X68871003Y-86209673D01*
X68871003Y-86642021D01*
X68755761Y-86560351D01*
X68657069Y-86385616D01*
X68630800Y-86213950D01*
X68673297Y-85995156D01*
X68673297Y-85995156D01*
G37*
X68673297Y-85995156D02*
X68782990Y-85836448D01*
X68933183Y-85754030D01*
X69097178Y-85764103D01*
X69224208Y-85853826D01*
X69300303Y-86010726D01*
X69327695Y-86222310D01*
X69305978Y-86432430D01*
X69234748Y-86584942D01*
X69229514Y-86590415D01*
X69069250Y-86679895D01*
X69011800Y-86674482D01*
X69011800Y-86499700D01*
X69117928Y-86454799D01*
X69138800Y-86372700D01*
X69117483Y-86269439D01*
X69088000Y-86245700D01*
X68996327Y-86291443D01*
X68909194Y-86386467D01*
X68884800Y-86448901D01*
X68938090Y-86490205D01*
X69011800Y-86499700D01*
X69011800Y-86674482D01*
X68902243Y-86664159D01*
X68871003Y-86642021D01*
X68871003Y-86209673D01*
X68975057Y-86137540D01*
X69066292Y-86033722D01*
X69063672Y-85954598D01*
X68976925Y-85933888D01*
X68920818Y-85949526D01*
X68839458Y-86036942D01*
X68821300Y-86119672D01*
X68828170Y-86207008D01*
X68871003Y-86209673D01*
X68871003Y-86642021D01*
X68755761Y-86560351D01*
X68657069Y-86385616D01*
X68630800Y-86213950D01*
X68673297Y-85995156D01*
G36*
X69513179Y-83280573D02*
G01*
X69578270Y-83138651D01*
X69660547Y-82994665D01*
X69769089Y-82802108D01*
X69805547Y-82687194D01*
X69776731Y-82628040D01*
X69775016Y-82626953D01*
X69725664Y-82546394D01*
X69735690Y-82509490D01*
X69818104Y-82491234D01*
X69982430Y-82563205D01*
X69998029Y-82572282D01*
X70175766Y-82690151D01*
X70262929Y-82777200D01*
X70248472Y-82821838D01*
X70237922Y-82824013D01*
X70132867Y-82826178D01*
X70091300Y-82823822D01*
X70000031Y-82868299D01*
X69887571Y-82988564D01*
X69852591Y-83038759D01*
X69765284Y-83179051D01*
X69745464Y-83242904D01*
X69791491Y-83260417D01*
X69840463Y-83261200D01*
X69928633Y-83285553D01*
X69932550Y-83324700D01*
X69846413Y-83368997D01*
X69700739Y-83387616D01*
X69561110Y-83376655D01*
X69503028Y-83350262D01*
X69513179Y-83280573D01*
X69513179Y-83280573D01*
G37*
X69513179Y-83280573D02*
X69578270Y-83138651D01*
X69660547Y-82994665D01*
X69769089Y-82802108D01*
X69805547Y-82687194D01*
X69776731Y-82628040D01*
X69775016Y-82626953D01*
X69725664Y-82546394D01*
X69735690Y-82509490D01*
X69818104Y-82491234D01*
X69982430Y-82563205D01*
X69998029Y-82572282D01*
X70175766Y-82690151D01*
X70262929Y-82777200D01*
X70248472Y-82821838D01*
X70237922Y-82824013D01*
X70132867Y-82826178D01*
X70091300Y-82823822D01*
X70000031Y-82868299D01*
X69887571Y-82988564D01*
X69852591Y-83038759D01*
X69765284Y-83179051D01*
X69745464Y-83242904D01*
X69791491Y-83260417D01*
X69840463Y-83261200D01*
X69928633Y-83285553D01*
X69932550Y-83324700D01*
X69846413Y-83368997D01*
X69700739Y-83387616D01*
X69561110Y-83376655D01*
X69503028Y-83350262D01*
X69513179Y-83280573D01*
G36*
X69429452Y-85783118D02*
G01*
X69512923Y-85662646D01*
X69603486Y-85569095D01*
X69647723Y-85547200D01*
X69709463Y-85597544D01*
X69805862Y-85726624D01*
X69873575Y-85834944D01*
X69988628Y-86008914D01*
X70079822Y-86084632D01*
X70162002Y-86084665D01*
X70266036Y-86074473D01*
X70284278Y-86124541D01*
X70227413Y-86212542D01*
X70106127Y-86316147D01*
X70027800Y-86365071D01*
X69865150Y-86445887D01*
X69787130Y-86454108D01*
X69773800Y-86421214D01*
X69814945Y-86298093D01*
X69834496Y-86273904D01*
X69844845Y-86177462D01*
X69767286Y-86011398D01*
X69758445Y-85997231D01*
X69669294Y-85880210D01*
X69608008Y-85843147D01*
X69597207Y-85854727D01*
X69534999Y-85913364D01*
X69445006Y-85926363D01*
X69393317Y-85885931D01*
X69392800Y-85878830D01*
X69429452Y-85783118D01*
X69429452Y-85783118D01*
G37*
X69429452Y-85783118D02*
X69512923Y-85662646D01*
X69603486Y-85569095D01*
X69647723Y-85547200D01*
X69709463Y-85597544D01*
X69805862Y-85726624D01*
X69873575Y-85834944D01*
X69988628Y-86008914D01*
X70079822Y-86084632D01*
X70162002Y-86084665D01*
X70266036Y-86074473D01*
X70284278Y-86124541D01*
X70227413Y-86212542D01*
X70106127Y-86316147D01*
X70027800Y-86365071D01*
X69865150Y-86445887D01*
X69787130Y-86454108D01*
X69773800Y-86421214D01*
X69814945Y-86298093D01*
X69834496Y-86273904D01*
X69844845Y-86177462D01*
X69767286Y-86011398D01*
X69758445Y-85997231D01*
X69669294Y-85880210D01*
X69608008Y-85843147D01*
X69597207Y-85854727D01*
X69534999Y-85913364D01*
X69445006Y-85926363D01*
X69393317Y-85885931D01*
X69392800Y-85878830D01*
X69429452Y-85783118D01*
G36*
X66881673Y-59621925D02*
G01*
X66975433Y-59291427D01*
X67146336Y-59009147D01*
X67252893Y-58887511D01*
X67530972Y-58650248D01*
X67845033Y-58494784D01*
X68227918Y-58407348D01*
X68450974Y-58385141D01*
X68948300Y-58351053D01*
X68948300Y-61163200D01*
X69122925Y-61161806D01*
X69337702Y-61122427D01*
X69585951Y-61025044D01*
X69808138Y-60896521D01*
X69914253Y-60804720D01*
X70089896Y-60517902D01*
X70191388Y-60152021D01*
X70216715Y-59732537D01*
X70163864Y-59284909D01*
X70063200Y-58921550D01*
X69910779Y-58489650D01*
X70207414Y-58508800D01*
X70504050Y-58527950D01*
X70619264Y-58875468D01*
X70707184Y-59234762D01*
X70756043Y-59637896D01*
X70763906Y-60039208D01*
X70728840Y-60393040D01*
X70690285Y-60551700D01*
X70484514Y-61009303D01*
X70190580Y-61375798D01*
X69809258Y-61650328D01*
X69615050Y-61741337D01*
X69467306Y-61775912D01*
X69233063Y-61803127D01*
X68952777Y-61818912D01*
X68821300Y-61821207D01*
X68501015Y-61816412D01*
X68440300Y-61810763D01*
X68440300Y-61178013D01*
X68440300Y-60091107D01*
X68439833Y-59696593D01*
X68436926Y-59411359D01*
X68429317Y-59217686D01*
X68414745Y-59097854D01*
X68390949Y-59034143D01*
X68355667Y-59008834D01*
X68306639Y-59004208D01*
X68301598Y-59004200D01*
X68161093Y-59031371D01*
X67970619Y-59099772D01*
X67892665Y-59135017D01*
X67631896Y-59324989D01*
X67458238Y-59584135D01*
X67373864Y-59887212D01*
X67380946Y-60208980D01*
X67481657Y-60524196D01*
X67678169Y-60807617D01*
X67743241Y-60871198D01*
X67899443Y-60999973D01*
X68026652Y-61083243D01*
X68075357Y-61100568D01*
X68197692Y-61116949D01*
X68297425Y-61139724D01*
X68440300Y-61178013D01*
X68440300Y-61810763D01*
X68265975Y-61794540D01*
X68074885Y-61749291D01*
X67900550Y-61680768D01*
X67485484Y-61432784D01*
X67173153Y-61110553D01*
X66965360Y-60716908D01*
X66863905Y-60254683D01*
X66853420Y-60034036D01*
X66881673Y-59621925D01*
X66881673Y-59621925D01*
G37*
X66881673Y-59621925D02*
X66975433Y-59291427D01*
X67146336Y-59009147D01*
X67252893Y-58887511D01*
X67530972Y-58650248D01*
X67845033Y-58494784D01*
X68227918Y-58407348D01*
X68450974Y-58385141D01*
X68948300Y-58351053D01*
X68948300Y-61163200D01*
X69122925Y-61161806D01*
X69337702Y-61122427D01*
X69585951Y-61025044D01*
X69808138Y-60896521D01*
X69914253Y-60804720D01*
X70089896Y-60517902D01*
X70191388Y-60152021D01*
X70216715Y-59732537D01*
X70163864Y-59284909D01*
X70063200Y-58921550D01*
X69910779Y-58489650D01*
X70207414Y-58508800D01*
X70504050Y-58527950D01*
X70619264Y-58875468D01*
X70707184Y-59234762D01*
X70756043Y-59637896D01*
X70763906Y-60039208D01*
X70728840Y-60393040D01*
X70690285Y-60551700D01*
X70484514Y-61009303D01*
X70190580Y-61375798D01*
X69809258Y-61650328D01*
X69615050Y-61741337D01*
X69467306Y-61775912D01*
X69233063Y-61803127D01*
X68952777Y-61818912D01*
X68821300Y-61821207D01*
X68501015Y-61816412D01*
X68440300Y-61810763D01*
X68440300Y-61178013D01*
X68440300Y-60091107D01*
X68439833Y-59696593D01*
X68436926Y-59411359D01*
X68429317Y-59217686D01*
X68414745Y-59097854D01*
X68390949Y-59034143D01*
X68355667Y-59008834D01*
X68306639Y-59004208D01*
X68301598Y-59004200D01*
X68161093Y-59031371D01*
X67970619Y-59099772D01*
X67892665Y-59135017D01*
X67631896Y-59324989D01*
X67458238Y-59584135D01*
X67373864Y-59887212D01*
X67380946Y-60208980D01*
X67481657Y-60524196D01*
X67678169Y-60807617D01*
X67743241Y-60871198D01*
X67899443Y-60999973D01*
X68026652Y-61083243D01*
X68075357Y-61100568D01*
X68197692Y-61116949D01*
X68297425Y-61139724D01*
X68440300Y-61178013D01*
X68440300Y-61810763D01*
X68265975Y-61794540D01*
X68074885Y-61749291D01*
X67900550Y-61680768D01*
X67485484Y-61432784D01*
X67173153Y-61110553D01*
X66965360Y-60716908D01*
X66863905Y-60254683D01*
X66853420Y-60034036D01*
X66881673Y-59621925D01*
G36*
X68138675Y-68719346D02*
G01*
X68537205Y-68715832D01*
X68907350Y-68706274D01*
X69224375Y-68691798D01*
X69463545Y-68673530D01*
X69599070Y-68652890D01*
X69897036Y-68527849D01*
X70089515Y-68340973D01*
X70188293Y-68079175D01*
X70201432Y-67983901D01*
X70184961Y-67612060D01*
X70056598Y-67298937D01*
X69814088Y-67039148D01*
X69801532Y-67029446D01*
X69561789Y-66846450D01*
X68239044Y-66825978D01*
X66916300Y-66805505D01*
X66916300Y-66179700D01*
X70662800Y-66179700D01*
X70662800Y-66814700D01*
X70174464Y-66814700D01*
X70405129Y-67057180D01*
X70641132Y-67392653D01*
X70764711Y-67773674D01*
X70771562Y-68179164D01*
X70697175Y-68487596D01*
X70528152Y-68806211D01*
X70267413Y-69052113D01*
X70027800Y-69187220D01*
X69922621Y-69231223D01*
X69808350Y-69265001D01*
X69665990Y-69290300D01*
X69476544Y-69308869D01*
X69221014Y-69322454D01*
X68880403Y-69332803D01*
X68435714Y-69341663D01*
X68329175Y-69343467D01*
X66916300Y-69366947D01*
X66916300Y-68719700D01*
X68138675Y-68719346D01*
X68138675Y-68719346D01*
G37*
X68138675Y-68719346D02*
X68537205Y-68715832D01*
X68907350Y-68706274D01*
X69224375Y-68691798D01*
X69463545Y-68673530D01*
X69599070Y-68652890D01*
X69897036Y-68527849D01*
X70089515Y-68340973D01*
X70188293Y-68079175D01*
X70201432Y-67983901D01*
X70184961Y-67612060D01*
X70056598Y-67298937D01*
X69814088Y-67039148D01*
X69801532Y-67029446D01*
X69561789Y-66846450D01*
X68239044Y-66825978D01*
X66916300Y-66805505D01*
X66916300Y-66179700D01*
X70662800Y-66179700D01*
X70662800Y-66814700D01*
X70174464Y-66814700D01*
X70405129Y-67057180D01*
X70641132Y-67392653D01*
X70764711Y-67773674D01*
X70771562Y-68179164D01*
X70697175Y-68487596D01*
X70528152Y-68806211D01*
X70267413Y-69052113D01*
X70027800Y-69187220D01*
X69922621Y-69231223D01*
X69808350Y-69265001D01*
X69665990Y-69290300D01*
X69476544Y-69308869D01*
X69221014Y-69322454D01*
X68880403Y-69332803D01*
X68435714Y-69341663D01*
X68329175Y-69343467D01*
X66916300Y-69366947D01*
X66916300Y-68719700D01*
X68138675Y-68719346D01*
G36*
X66870789Y-71322268D02*
G01*
X66931809Y-71026254D01*
X67050952Y-70778646D01*
X67242335Y-70541929D01*
X67321103Y-70462389D01*
X67554853Y-70257368D01*
X67775435Y-70125223D01*
X68033529Y-70033764D01*
X68536297Y-69941711D01*
X69037658Y-69940189D01*
X69512369Y-70024432D01*
X69935187Y-70189675D01*
X70280869Y-70431154D01*
X70315454Y-70464513D01*
X70570418Y-70806107D01*
X70728940Y-71211833D01*
X70784638Y-71656278D01*
X70731131Y-72114030D01*
X70730423Y-72116950D01*
X70572378Y-72512937D01*
X70314945Y-72844527D01*
X69972285Y-73104211D01*
X69558554Y-73284480D01*
X69087913Y-73377826D01*
X68735107Y-73377080D01*
X68735107Y-72711714D01*
X69145354Y-72687232D01*
X69516517Y-72595808D01*
X69825236Y-72444266D01*
X70048147Y-72239433D01*
X70112339Y-72135578D01*
X70203018Y-71837066D01*
X70208188Y-71518246D01*
X70129658Y-71228304D01*
X70075425Y-71131740D01*
X69869250Y-70907939D01*
X69594527Y-70754675D01*
X69233777Y-70664574D01*
X68895684Y-70633987D01*
X68452145Y-70642412D01*
X68100559Y-70714922D01*
X67819523Y-70858339D01*
X67620891Y-71040215D01*
X67437406Y-71330300D01*
X67369203Y-71633018D01*
X67408437Y-71929875D01*
X67547262Y-72202382D01*
X67777834Y-72432046D01*
X68092308Y-72600376D01*
X68309138Y-72662428D01*
X68735107Y-72711714D01*
X68735107Y-73377080D01*
X68574520Y-73376740D01*
X68397294Y-73354247D01*
X67892129Y-73226838D01*
X67484893Y-73020465D01*
X67177180Y-72736833D01*
X66970584Y-72377646D01*
X66866701Y-71944607D01*
X66853774Y-71704200D01*
X66870789Y-71322268D01*
X66870789Y-71322268D01*
G37*
X66870789Y-71322268D02*
X66931809Y-71026254D01*
X67050952Y-70778646D01*
X67242335Y-70541929D01*
X67321103Y-70462389D01*
X67554853Y-70257368D01*
X67775435Y-70125223D01*
X68033529Y-70033764D01*
X68536297Y-69941711D01*
X69037658Y-69940189D01*
X69512369Y-70024432D01*
X69935187Y-70189675D01*
X70280869Y-70431154D01*
X70315454Y-70464513D01*
X70570418Y-70806107D01*
X70728940Y-71211833D01*
X70784638Y-71656278D01*
X70731131Y-72114030D01*
X70730423Y-72116950D01*
X70572378Y-72512937D01*
X70314945Y-72844527D01*
X69972285Y-73104211D01*
X69558554Y-73284480D01*
X69087913Y-73377826D01*
X68735107Y-73377080D01*
X68735107Y-72711714D01*
X69145354Y-72687232D01*
X69516517Y-72595808D01*
X69825236Y-72444266D01*
X70048147Y-72239433D01*
X70112339Y-72135578D01*
X70203018Y-71837066D01*
X70208188Y-71518246D01*
X70129658Y-71228304D01*
X70075425Y-71131740D01*
X69869250Y-70907939D01*
X69594527Y-70754675D01*
X69233777Y-70664574D01*
X68895684Y-70633987D01*
X68452145Y-70642412D01*
X68100559Y-70714922D01*
X67819523Y-70858339D01*
X67620891Y-71040215D01*
X67437406Y-71330300D01*
X67369203Y-71633018D01*
X67408437Y-71929875D01*
X67547262Y-72202382D01*
X67777834Y-72432046D01*
X68092308Y-72600376D01*
X68309138Y-72662428D01*
X68735107Y-72711714D01*
X68735107Y-73377080D01*
X68574520Y-73376740D01*
X68397294Y-73354247D01*
X67892129Y-73226838D01*
X67484893Y-73020465D01*
X67177180Y-72736833D01*
X66970584Y-72377646D01*
X66866701Y-71944607D01*
X66853774Y-71704200D01*
X66870789Y-71322268D01*
G36*
X69927202Y-83595549D02*
G01*
X70022136Y-83465566D01*
X70193435Y-83348558D01*
X70391510Y-83273758D01*
X70494371Y-83261200D01*
X70671798Y-83316325D01*
X70793913Y-83455386D01*
X70835410Y-83638915D01*
X70810799Y-83754662D01*
X70718458Y-83854383D01*
X70600918Y-83920307D01*
X70600918Y-83671094D01*
X70652909Y-83664835D01*
X70662792Y-83586218D01*
X70662800Y-83580331D01*
X70633566Y-83486363D01*
X70523921Y-83453144D01*
X70472300Y-83451700D01*
X70338434Y-83460442D01*
X70281810Y-83481497D01*
X70281800Y-83481820D01*
X70332008Y-83528106D01*
X70454655Y-83601197D01*
X70472300Y-83610450D01*
X70600918Y-83671094D01*
X70600918Y-83920307D01*
X70551636Y-83947948D01*
X70361491Y-84010654D01*
X70281800Y-84020013D01*
X70281800Y-83832700D01*
X70415665Y-83823959D01*
X70472289Y-83802904D01*
X70472300Y-83802581D01*
X70422091Y-83756295D01*
X70299444Y-83683204D01*
X70281800Y-83673950D01*
X70153181Y-83613307D01*
X70101190Y-83619566D01*
X70091307Y-83698183D01*
X70091300Y-83704070D01*
X70120533Y-83798038D01*
X70230178Y-83831257D01*
X70281800Y-83832700D01*
X70281800Y-84020013D01*
X70254667Y-84023200D01*
X70098019Y-83969340D01*
X69974119Y-83838355D01*
X69918109Y-83676139D01*
X69927202Y-83595549D01*
X69927202Y-83595549D01*
G37*
X69927202Y-83595549D02*
X70022136Y-83465566D01*
X70193435Y-83348558D01*
X70391510Y-83273758D01*
X70494371Y-83261200D01*
X70671798Y-83316325D01*
X70793913Y-83455386D01*
X70835410Y-83638915D01*
X70810799Y-83754662D01*
X70718458Y-83854383D01*
X70600918Y-83920307D01*
X70600918Y-83671094D01*
X70652909Y-83664835D01*
X70662792Y-83586218D01*
X70662800Y-83580331D01*
X70633566Y-83486363D01*
X70523921Y-83453144D01*
X70472300Y-83451700D01*
X70338434Y-83460442D01*
X70281810Y-83481497D01*
X70281800Y-83481820D01*
X70332008Y-83528106D01*
X70454655Y-83601197D01*
X70472300Y-83610450D01*
X70600918Y-83671094D01*
X70600918Y-83920307D01*
X70551636Y-83947948D01*
X70361491Y-84010654D01*
X70281800Y-84020013D01*
X70281800Y-83832700D01*
X70415665Y-83823959D01*
X70472289Y-83802904D01*
X70472300Y-83802581D01*
X70422091Y-83756295D01*
X70299444Y-83683204D01*
X70281800Y-83673950D01*
X70153181Y-83613307D01*
X70101190Y-83619566D01*
X70091307Y-83698183D01*
X70091300Y-83704070D01*
X70120533Y-83798038D01*
X70230178Y-83831257D01*
X70281800Y-83832700D01*
X70281800Y-84020013D01*
X70254667Y-84023200D01*
X70098019Y-83969340D01*
X69974119Y-83838355D01*
X69918109Y-83676139D01*
X69927202Y-83595549D01*
G36*
X69961165Y-85123255D02*
G01*
X69997027Y-85060546D01*
X70088792Y-84952750D01*
X70201664Y-84920973D01*
X70335668Y-84934511D01*
X70561753Y-85017471D01*
X70710425Y-85135848D01*
X70812738Y-85263594D01*
X70841720Y-85357022D01*
X70809759Y-85475525D01*
X70791073Y-85522534D01*
X70679315Y-85657289D01*
X70562385Y-85676871D01*
X70562385Y-85517731D01*
X70632580Y-85488293D01*
X70662800Y-85397403D01*
X70621612Y-85286282D01*
X70586600Y-85242400D01*
X70485717Y-85172086D01*
X70435321Y-85194684D01*
X70442542Y-85261450D01*
X70489588Y-85411466D01*
X70503601Y-85455975D01*
X70562385Y-85517731D01*
X70562385Y-85676871D01*
X70495950Y-85687997D01*
X70324159Y-85638116D01*
X70324159Y-85467384D01*
X70337254Y-85431882D01*
X70323178Y-85390644D01*
X70286553Y-85246924D01*
X70281800Y-85192757D01*
X70230857Y-85113104D01*
X70186550Y-85102700D01*
X70107282Y-85146409D01*
X70097195Y-85247366D01*
X70150485Y-85360320D01*
X70227928Y-85425354D01*
X70324159Y-85467384D01*
X70324159Y-85638116D01*
X70242538Y-85614416D01*
X70230402Y-85609047D01*
X70016643Y-85472510D01*
X69926765Y-85310268D01*
X69961165Y-85123255D01*
X69961165Y-85123255D01*
G37*
X69961165Y-85123255D02*
X69997027Y-85060546D01*
X70088792Y-84952750D01*
X70201664Y-84920973D01*
X70335668Y-84934511D01*
X70561753Y-85017471D01*
X70710425Y-85135848D01*
X70812738Y-85263594D01*
X70841720Y-85357022D01*
X70809759Y-85475525D01*
X70791073Y-85522534D01*
X70679315Y-85657289D01*
X70562385Y-85676871D01*
X70562385Y-85517731D01*
X70632580Y-85488293D01*
X70662800Y-85397403D01*
X70621612Y-85286282D01*
X70586600Y-85242400D01*
X70485717Y-85172086D01*
X70435321Y-85194684D01*
X70442542Y-85261450D01*
X70489588Y-85411466D01*
X70503601Y-85455975D01*
X70562385Y-85517731D01*
X70562385Y-85676871D01*
X70495950Y-85687997D01*
X70324159Y-85638116D01*
X70324159Y-85467384D01*
X70337254Y-85431882D01*
X70323178Y-85390644D01*
X70286553Y-85246924D01*
X70281800Y-85192757D01*
X70230857Y-85113104D01*
X70186550Y-85102700D01*
X70107282Y-85146409D01*
X70097195Y-85247366D01*
X70150485Y-85360320D01*
X70227928Y-85425354D01*
X70324159Y-85467384D01*
X70324159Y-85638116D01*
X70242538Y-85614416D01*
X70230402Y-85609047D01*
X70016643Y-85472510D01*
X69926765Y-85310268D01*
X69961165Y-85123255D01*
G36*
X67027934Y-79980601D02*
G01*
X67153739Y-79895604D01*
X67299941Y-79809010D01*
X67518010Y-79680146D01*
X67649090Y-79609445D01*
X67715320Y-79590114D01*
X67738843Y-79615360D01*
X67741800Y-79673450D01*
X67756116Y-79702942D01*
X67808278Y-79725776D01*
X67912108Y-79742766D01*
X68081427Y-79754725D01*
X68330054Y-79762466D01*
X68671812Y-79766802D01*
X69120520Y-79768545D01*
X69361050Y-79768700D01*
X70980300Y-79768700D01*
X70980300Y-80340200D01*
X69361050Y-80340200D01*
X68861067Y-80340982D01*
X68474108Y-80343890D01*
X68186204Y-80349769D01*
X67983383Y-80359464D01*
X67851677Y-80373820D01*
X67777114Y-80393682D01*
X67745727Y-80419894D01*
X67741800Y-80438127D01*
X67719829Y-80482851D01*
X67639736Y-80467166D01*
X67480244Y-80385773D01*
X67440175Y-80362996D01*
X67189117Y-80218850D01*
X67040284Y-80121130D01*
X66988336Y-80048745D01*
X67027934Y-79980601D01*
X67027934Y-79980601D01*
G37*
X67027934Y-79980601D02*
X67153739Y-79895604D01*
X67299941Y-79809010D01*
X67518010Y-79680146D01*
X67649090Y-79609445D01*
X67715320Y-79590114D01*
X67738843Y-79615360D01*
X67741800Y-79673450D01*
X67756116Y-79702942D01*
X67808278Y-79725776D01*
X67912108Y-79742766D01*
X68081427Y-79754725D01*
X68330054Y-79762466D01*
X68671812Y-79766802D01*
X69120520Y-79768545D01*
X69361050Y-79768700D01*
X70980300Y-79768700D01*
X70980300Y-80340200D01*
X69361050Y-80340200D01*
X68861067Y-80340982D01*
X68474108Y-80343890D01*
X68186204Y-80349769D01*
X67983383Y-80359464D01*
X67851677Y-80373820D01*
X67777114Y-80393682D01*
X67745727Y-80419894D01*
X67741800Y-80438127D01*
X67719829Y-80482851D01*
X67639736Y-80467166D01*
X67480244Y-80385773D01*
X67440175Y-80362996D01*
X67189117Y-80218850D01*
X67040284Y-80121130D01*
X66988336Y-80048745D01*
X67027934Y-79980601D01*
G36*
X70105655Y-84404835D02*
G01*
X70218750Y-84355541D01*
X70442428Y-84340806D01*
X70472300Y-84340700D01*
X70693529Y-84333385D01*
X70812306Y-84307454D01*
X70852548Y-84256927D01*
X70853300Y-84245450D01*
X70887588Y-84160947D01*
X70916800Y-84150200D01*
X70953023Y-84207311D01*
X70976014Y-84353332D01*
X70980300Y-84467700D01*
X70968877Y-84648816D01*
X70939673Y-84763774D01*
X70916800Y-84785200D01*
X70865207Y-84732016D01*
X70853300Y-84658200D01*
X70834171Y-84578184D01*
X70755106Y-84540774D01*
X70583588Y-84531213D01*
X70573494Y-84531200D01*
X70401496Y-84537765D01*
X70327169Y-84567437D01*
X70321446Y-84635188D01*
X70326900Y-84658200D01*
X70325037Y-84761713D01*
X70265339Y-84777080D01*
X70182212Y-84703457D01*
X70157034Y-84662375D01*
X70089597Y-84502506D01*
X70105655Y-84404835D01*
X70105655Y-84404835D01*
G37*
X70105655Y-84404835D02*
X70218750Y-84355541D01*
X70442428Y-84340806D01*
X70472300Y-84340700D01*
X70693529Y-84333385D01*
X70812306Y-84307454D01*
X70852548Y-84256927D01*
X70853300Y-84245450D01*
X70887588Y-84160947D01*
X70916800Y-84150200D01*
X70953023Y-84207311D01*
X70976014Y-84353332D01*
X70980300Y-84467700D01*
X70968877Y-84648816D01*
X70939673Y-84763774D01*
X70916800Y-84785200D01*
X70865207Y-84732016D01*
X70853300Y-84658200D01*
X70834171Y-84578184D01*
X70755106Y-84540774D01*
X70583588Y-84531213D01*
X70573494Y-84531200D01*
X70401496Y-84537765D01*
X70327169Y-84567437D01*
X70321446Y-84635188D01*
X70326900Y-84658200D01*
X70325037Y-84761713D01*
X70265339Y-84777080D01*
X70182212Y-84703457D01*
X70157034Y-84662375D01*
X70089597Y-84502506D01*
X70105655Y-84404835D01*
G36*
X65213996Y-75336154D02*
G01*
X65269211Y-75245262D01*
X65390152Y-75187934D01*
X65521187Y-75115884D01*
X65609168Y-74986757D01*
X65665762Y-74826112D01*
X65714025Y-74641080D01*
X65716741Y-74528135D01*
X65670284Y-74439484D01*
X65633114Y-74395616D01*
X65560460Y-74302422D01*
X65547691Y-74218933D01*
X65593771Y-74093298D01*
X65625697Y-74025392D01*
X65708417Y-73875720D01*
X65789060Y-73817718D01*
X65909194Y-73823792D01*
X65924835Y-73826833D01*
X66128011Y-73819373D01*
X66228532Y-73758238D01*
X66322995Y-73687465D01*
X66364129Y-73678381D01*
X66410794Y-73737115D01*
X66515493Y-73866288D01*
X66655725Y-74038142D01*
X66658189Y-74041154D01*
X66933699Y-74377857D01*
X66755666Y-74729733D01*
X66608602Y-75145132D01*
X66576269Y-75558299D01*
X66648350Y-75952213D01*
X66814530Y-76309851D01*
X67064495Y-76614191D01*
X67387929Y-76848210D01*
X67774517Y-76994887D01*
X68154549Y-77038200D01*
X68601743Y-76980704D01*
X68991140Y-76813105D01*
X69313290Y-76542739D01*
X69558744Y-76176940D01*
X69685154Y-75850130D01*
X69741016Y-75437835D01*
X69677866Y-75023060D01*
X69500131Y-74633188D01*
X69484478Y-74608998D01*
X69327064Y-74370545D01*
X69603373Y-73958666D01*
X69879681Y-73546786D01*
X70032836Y-73709812D01*
X70179608Y-73825615D01*
X70331103Y-73843158D01*
X70356123Y-73838811D01*
X70477100Y-73834218D01*
X70569301Y-73897351D01*
X70661916Y-74034714D01*
X70744128Y-74182827D01*
X70762563Y-74269438D01*
X70719299Y-74341634D01*
X70677375Y-74384847D01*
X70607266Y-74472459D01*
X70588136Y-74571994D01*
X70614914Y-74730370D01*
X70632382Y-74801259D01*
X70698767Y-74999793D01*
X70789719Y-75115053D01*
X70907446Y-75179016D01*
X71039616Y-75249561D01*
X71095987Y-75347900D01*
X71107300Y-75509458D01*
X71095596Y-75676297D01*
X71038999Y-75765301D01*
X70905280Y-75825003D01*
X70895624Y-75828210D01*
X70765279Y-75885763D01*
X70686240Y-75975471D01*
X70629883Y-76136808D01*
X70608765Y-76223784D01*
X70569190Y-76426270D01*
X70570191Y-76549975D01*
X70614091Y-76637221D01*
X70632664Y-76658984D01*
X70690877Y-76741972D01*
X70691030Y-76832151D01*
X70631438Y-76978693D01*
X70620949Y-77000814D01*
X70538973Y-77148696D01*
X70458835Y-77204507D01*
X70338814Y-77195473D01*
X70326672Y-77192859D01*
X70129789Y-77208165D01*
X69952719Y-77321759D01*
X69824412Y-77505258D01*
X69773820Y-77730279D01*
X69773800Y-77734890D01*
X69751134Y-77910070D01*
X69659360Y-78025280D01*
X69577020Y-78079559D01*
X69439922Y-78152332D01*
X69346793Y-78155753D01*
X69233569Y-78087232D01*
X69202557Y-78064431D01*
X68990864Y-77964462D01*
X68785051Y-77961500D01*
X68617518Y-78048861D01*
X68524773Y-78204226D01*
X68471251Y-78335760D01*
X68381141Y-78397932D01*
X68213332Y-78422332D01*
X68043567Y-78424180D01*
X67945868Y-78376248D01*
X67866780Y-78248066D01*
X67851271Y-78215957D01*
X67741043Y-78048653D01*
X67614238Y-77990270D01*
X67599952Y-77989728D01*
X67443557Y-77964585D01*
X67366339Y-77931968D01*
X67242689Y-77925678D01*
X67097984Y-78007258D01*
X66975883Y-78089266D01*
X66884044Y-78104254D01*
X66762410Y-78054449D01*
X66701396Y-78021966D01*
X66558704Y-77929752D01*
X66506085Y-77833946D01*
X66511133Y-77709523D01*
X66485418Y-77503148D01*
X66371165Y-77317989D01*
X66200290Y-77187844D01*
X66004703Y-77146507D01*
X65981839Y-77149008D01*
X65834791Y-77147730D01*
X65722874Y-77072400D01*
X65651725Y-76982321D01*
X65513029Y-76787539D01*
X65640539Y-76611245D01*
X65717979Y-76482601D01*
X65735225Y-76360628D01*
X65699521Y-76185202D01*
X65694230Y-76165728D01*
X65625754Y-75980873D01*
X65527329Y-75877927D01*
X65411105Y-75827428D01*
X65274752Y-75768806D01*
X65215391Y-75683281D01*
X65201839Y-75522962D01*
X65201800Y-75505973D01*
X65213996Y-75336154D01*
X65213996Y-75336154D01*
G37*
X65213996Y-75336154D02*
X65269211Y-75245262D01*
X65390152Y-75187934D01*
X65521187Y-75115884D01*
X65609168Y-74986757D01*
X65665762Y-74826112D01*
X65714025Y-74641080D01*
X65716741Y-74528135D01*
X65670284Y-74439484D01*
X65633114Y-74395616D01*
X65560460Y-74302422D01*
X65547691Y-74218933D01*
X65593771Y-74093298D01*
X65625697Y-74025392D01*
X65708417Y-73875720D01*
X65789060Y-73817718D01*
X65909194Y-73823792D01*
X65924835Y-73826833D01*
X66128011Y-73819373D01*
X66228532Y-73758238D01*
X66322995Y-73687465D01*
X66364129Y-73678381D01*
X66410794Y-73737115D01*
X66515493Y-73866288D01*
X66655725Y-74038142D01*
X66658189Y-74041154D01*
X66933699Y-74377857D01*
X66755666Y-74729733D01*
X66608602Y-75145132D01*
X66576269Y-75558299D01*
X66648350Y-75952213D01*
X66814530Y-76309851D01*
X67064495Y-76614191D01*
X67387929Y-76848210D01*
X67774517Y-76994887D01*
X68154549Y-77038200D01*
X68601743Y-76980704D01*
X68991140Y-76813105D01*
X69313290Y-76542739D01*
X69558744Y-76176940D01*
X69685154Y-75850130D01*
X69741016Y-75437835D01*
X69677866Y-75023060D01*
X69500131Y-74633188D01*
X69484478Y-74608998D01*
X69327064Y-74370545D01*
X69603373Y-73958666D01*
X69879681Y-73546786D01*
X70032836Y-73709812D01*
X70179608Y-73825615D01*
X70331103Y-73843158D01*
X70356123Y-73838811D01*
X70477100Y-73834218D01*
X70569301Y-73897351D01*
X70661916Y-74034714D01*
X70744128Y-74182827D01*
X70762563Y-74269438D01*
X70719299Y-74341634D01*
X70677375Y-74384847D01*
X70607266Y-74472459D01*
X70588136Y-74571994D01*
X70614914Y-74730370D01*
X70632382Y-74801259D01*
X70698767Y-74999793D01*
X70789719Y-75115053D01*
X70907446Y-75179016D01*
X71039616Y-75249561D01*
X71095987Y-75347900D01*
X71107300Y-75509458D01*
X71095596Y-75676297D01*
X71038999Y-75765301D01*
X70905280Y-75825003D01*
X70895624Y-75828210D01*
X70765279Y-75885763D01*
X70686240Y-75975471D01*
X70629883Y-76136808D01*
X70608765Y-76223784D01*
X70569190Y-76426270D01*
X70570191Y-76549975D01*
X70614091Y-76637221D01*
X70632664Y-76658984D01*
X70690877Y-76741972D01*
X70691030Y-76832151D01*
X70631438Y-76978693D01*
X70620949Y-77000814D01*
X70538973Y-77148696D01*
X70458835Y-77204507D01*
X70338814Y-77195473D01*
X70326672Y-77192859D01*
X70129789Y-77208165D01*
X69952719Y-77321759D01*
X69824412Y-77505258D01*
X69773820Y-77730279D01*
X69773800Y-77734890D01*
X69751134Y-77910070D01*
X69659360Y-78025280D01*
X69577020Y-78079559D01*
X69439922Y-78152332D01*
X69346793Y-78155753D01*
X69233569Y-78087232D01*
X69202557Y-78064431D01*
X68990864Y-77964462D01*
X68785051Y-77961500D01*
X68617518Y-78048861D01*
X68524773Y-78204226D01*
X68471251Y-78335760D01*
X68381141Y-78397932D01*
X68213332Y-78422332D01*
X68043567Y-78424180D01*
X67945868Y-78376248D01*
X67866780Y-78248066D01*
X67851271Y-78215957D01*
X67741043Y-78048653D01*
X67614238Y-77990270D01*
X67599952Y-77989728D01*
X67443557Y-77964585D01*
X67366339Y-77931968D01*
X67242689Y-77925678D01*
X67097984Y-78007258D01*
X66975883Y-78089266D01*
X66884044Y-78104254D01*
X66762410Y-78054449D01*
X66701396Y-78021966D01*
X66558704Y-77929752D01*
X66506085Y-77833946D01*
X66511133Y-77709523D01*
X66485418Y-77503148D01*
X66371165Y-77317989D01*
X66200290Y-77187844D01*
X66004703Y-77146507D01*
X65981839Y-77149008D01*
X65834791Y-77147730D01*
X65722874Y-77072400D01*
X65651725Y-76982321D01*
X65513029Y-76787539D01*
X65640539Y-76611245D01*
X65717979Y-76482601D01*
X65735225Y-76360628D01*
X65699521Y-76185202D01*
X65694230Y-76165728D01*
X65625754Y-75980873D01*
X65527329Y-75877927D01*
X65411105Y-75827428D01*
X65274752Y-75768806D01*
X65215391Y-75683281D01*
X65201839Y-75522962D01*
X65201800Y-75505973D01*
X65213996Y-75336154D01*
G36*
X66908951Y-63416811D02*
G01*
X67072724Y-63053821D01*
X67350094Y-62742849D01*
X67352432Y-62740845D01*
X67669356Y-62526686D01*
X68041313Y-62387873D01*
X68490325Y-62317887D01*
X68820608Y-62306200D01*
X69381216Y-62349640D01*
X69849402Y-62480032D01*
X70225414Y-62697487D01*
X70509499Y-63002117D01*
X70563783Y-63087795D01*
X70726990Y-63476047D01*
X70777725Y-63874194D01*
X70718209Y-64259467D01*
X70550665Y-64609094D01*
X70397338Y-64794162D01*
X70154800Y-65036700D01*
X72123300Y-65036700D01*
X72123300Y-65671700D01*
X68825318Y-65671700D01*
X68825318Y-65004778D01*
X69214057Y-64971161D01*
X69571122Y-64873176D01*
X69867605Y-64709600D01*
X69965015Y-64623213D01*
X70165838Y-64338239D01*
X70242571Y-64029020D01*
X70194574Y-63701139D01*
X70096351Y-63480950D01*
X69975894Y-63335172D01*
X69794795Y-63186789D01*
X69707053Y-63131700D01*
X69558986Y-63056789D01*
X69414337Y-63009724D01*
X69237081Y-62984274D01*
X68991190Y-62974204D01*
X68789550Y-62972950D01*
X68487986Y-62976123D01*
X68277301Y-62990105D01*
X68121442Y-63021595D01*
X67984356Y-63077289D01*
X67861187Y-63145410D01*
X67581870Y-63368893D01*
X67418800Y-63643229D01*
X67371262Y-63969786D01*
X67378322Y-64068694D01*
X67426311Y-64286926D01*
X67506301Y-64479956D01*
X67531742Y-64520080D01*
X67758115Y-64731679D01*
X68068440Y-64883812D01*
X68433810Y-64975253D01*
X68825318Y-65004778D01*
X68825318Y-65671700D01*
X66916300Y-65671700D01*
X66916300Y-65036700D01*
X67450074Y-65036700D01*
X67218717Y-64798575D01*
X67021865Y-64562076D01*
X66908131Y-64324290D01*
X66859591Y-64038180D01*
X66854194Y-63841942D01*
X66908951Y-63416811D01*
X66908951Y-63416811D01*
G37*
X66908951Y-63416811D02*
X67072724Y-63053821D01*
X67350094Y-62742849D01*
X67352432Y-62740845D01*
X67669356Y-62526686D01*
X68041313Y-62387873D01*
X68490325Y-62317887D01*
X68820608Y-62306200D01*
X69381216Y-62349640D01*
X69849402Y-62480032D01*
X70225414Y-62697487D01*
X70509499Y-63002117D01*
X70563783Y-63087795D01*
X70726990Y-63476047D01*
X70777725Y-63874194D01*
X70718209Y-64259467D01*
X70550665Y-64609094D01*
X70397338Y-64794162D01*
X70154800Y-65036700D01*
X72123300Y-65036700D01*
X72123300Y-65671700D01*
X68825318Y-65671700D01*
X68825318Y-65004778D01*
X69214057Y-64971161D01*
X69571122Y-64873176D01*
X69867605Y-64709600D01*
X69965015Y-64623213D01*
X70165838Y-64338239D01*
X70242571Y-64029020D01*
X70194574Y-63701139D01*
X70096351Y-63480950D01*
X69975894Y-63335172D01*
X69794795Y-63186789D01*
X69707053Y-63131700D01*
X69558986Y-63056789D01*
X69414337Y-63009724D01*
X69237081Y-62984274D01*
X68991190Y-62974204D01*
X68789550Y-62972950D01*
X68487986Y-62976123D01*
X68277301Y-62990105D01*
X68121442Y-63021595D01*
X67984356Y-63077289D01*
X67861187Y-63145410D01*
X67581870Y-63368893D01*
X67418800Y-63643229D01*
X67371262Y-63969786D01*
X67378322Y-64068694D01*
X67426311Y-64286926D01*
X67506301Y-64479956D01*
X67531742Y-64520080D01*
X67758115Y-64731679D01*
X68068440Y-64883812D01*
X68433810Y-64975253D01*
X68825318Y-65004778D01*
X68825318Y-65671700D01*
X66916300Y-65671700D01*
X66916300Y-65036700D01*
X67450074Y-65036700D01*
X67218717Y-64798575D01*
X67021865Y-64562076D01*
X66908131Y-64324290D01*
X66859591Y-64038180D01*
X66854194Y-63841942D01*
X66908951Y-63416811D01*
D13*
X80758578Y-82180000D02*
X80241422Y-82180000D01*
X80758578Y-83600000D02*
X80241422Y-83600000D01*
X72171422Y-70026600D02*
X72688578Y-70026600D01*
X72171422Y-68606600D02*
X72688578Y-68606600D01*
X67713400Y-119687800D02*
X80543400Y-119687800D01*
X67713400Y-99107800D02*
X67713400Y-119687800D01*
X83213400Y-99107800D02*
X67713400Y-99107800D01*
X83213400Y-117017800D02*
X83213400Y-99107800D01*
X80543400Y-117017800D02*
X83213400Y-117017800D01*
X80543400Y-119687800D02*
X80543400Y-117017800D01*
X83213400Y-119687800D02*
X83213400Y-118287800D01*
X81813400Y-119687800D02*
X83213400Y-119687800D01*
X80543400Y-117017800D02*
X80543400Y-99107800D01*
X70383400Y-119687800D02*
X70383400Y-99107800D01*
X94010000Y-83306400D02*
X95350000Y-83306400D01*
X94010000Y-84256400D02*
X94010000Y-83306400D01*
X93060000Y-84256400D02*
X94010000Y-84256400D01*
X83790000Y-84256400D02*
X83790000Y-83306400D01*
X84740000Y-84256400D02*
X83790000Y-84256400D01*
X94010000Y-74036400D02*
X94010000Y-74986400D01*
X93060000Y-74036400D02*
X94010000Y-74036400D01*
X83790000Y-74036400D02*
X83790000Y-74986400D01*
X84740000Y-74036400D02*
X83790000Y-74036400D01*
X127762000Y-108000800D02*
X127762000Y-109270800D01*
X126492000Y-108000800D02*
X127762000Y-108000800D01*
X118492000Y-110313729D02*
X118492000Y-110710800D01*
X119252000Y-110313729D02*
X119252000Y-110710800D01*
X118492000Y-119370800D02*
X118492000Y-113370800D01*
X119252000Y-119370800D02*
X118492000Y-119370800D01*
X119252000Y-113370800D02*
X119252000Y-119370800D01*
X120142000Y-110710800D02*
X120142000Y-113370800D01*
X121032000Y-110313729D02*
X121032000Y-110710800D01*
X121792000Y-110313729D02*
X121792000Y-110710800D01*
X121032000Y-119370800D02*
X121032000Y-113370800D01*
X121792000Y-119370800D02*
X121032000Y-119370800D01*
X121792000Y-113370800D02*
X121792000Y-119370800D01*
X122682000Y-110710800D02*
X122682000Y-113370800D01*
X123572000Y-110313729D02*
X123572000Y-110710800D01*
X124332000Y-110313729D02*
X124332000Y-110710800D01*
X123572000Y-119370800D02*
X123572000Y-113370800D01*
X124332000Y-119370800D02*
X123572000Y-119370800D01*
X124332000Y-113370800D02*
X124332000Y-119370800D01*
X125222000Y-110710800D02*
X125222000Y-113370800D01*
X126112000Y-110380800D02*
X126112000Y-110710800D01*
X126872000Y-110380800D02*
X126872000Y-110710800D01*
X126212000Y-113370800D02*
X126212000Y-119370800D01*
X126332000Y-113370800D02*
X126332000Y-119370800D01*
X126452000Y-113370800D02*
X126452000Y-119370800D01*
X126572000Y-113370800D02*
X126572000Y-119370800D01*
X126692000Y-113370800D02*
X126692000Y-119370800D01*
X126812000Y-113370800D02*
X126812000Y-119370800D01*
X126112000Y-119370800D02*
X126112000Y-113370800D01*
X126872000Y-119370800D02*
X126112000Y-119370800D01*
X126872000Y-113370800D02*
X126872000Y-119370800D01*
X127822000Y-113370800D02*
X127822000Y-110710800D01*
X117542000Y-113370800D02*
X127822000Y-113370800D01*
X117542000Y-110710800D02*
X117542000Y-113370800D01*
X127822000Y-110710800D02*
X117542000Y-110710800D01*
X112014000Y-108000800D02*
X112014000Y-109270800D01*
X110744000Y-108000800D02*
X112014000Y-108000800D01*
X102744000Y-110313729D02*
X102744000Y-110710800D01*
X103504000Y-110313729D02*
X103504000Y-110710800D01*
X102744000Y-119370800D02*
X102744000Y-113370800D01*
X103504000Y-119370800D02*
X102744000Y-119370800D01*
X103504000Y-113370800D02*
X103504000Y-119370800D01*
X104394000Y-110710800D02*
X104394000Y-113370800D01*
X105284000Y-110313729D02*
X105284000Y-110710800D01*
X106044000Y-110313729D02*
X106044000Y-110710800D01*
X105284000Y-119370800D02*
X105284000Y-113370800D01*
X106044000Y-119370800D02*
X105284000Y-119370800D01*
X106044000Y-113370800D02*
X106044000Y-119370800D01*
X106934000Y-110710800D02*
X106934000Y-113370800D01*
X107824000Y-110313729D02*
X107824000Y-110710800D01*
X108584000Y-110313729D02*
X108584000Y-110710800D01*
X107824000Y-119370800D02*
X107824000Y-113370800D01*
X108584000Y-119370800D02*
X107824000Y-119370800D01*
X108584000Y-113370800D02*
X108584000Y-119370800D01*
X109474000Y-110710800D02*
X109474000Y-113370800D01*
X110364000Y-110380800D02*
X110364000Y-110710800D01*
X111124000Y-110380800D02*
X111124000Y-110710800D01*
X110464000Y-113370800D02*
X110464000Y-119370800D01*
X110584000Y-113370800D02*
X110584000Y-119370800D01*
X110704000Y-113370800D02*
X110704000Y-119370800D01*
X110824000Y-113370800D02*
X110824000Y-119370800D01*
X110944000Y-113370800D02*
X110944000Y-119370800D01*
X111064000Y-113370800D02*
X111064000Y-119370800D01*
X110364000Y-119370800D02*
X110364000Y-113370800D01*
X111124000Y-119370800D02*
X110364000Y-119370800D01*
X111124000Y-113370800D02*
X111124000Y-119370800D01*
X112074000Y-113370800D02*
X112074000Y-110710800D01*
X101794000Y-113370800D02*
X112074000Y-113370800D01*
X101794000Y-110710800D02*
X101794000Y-113370800D01*
X112074000Y-110710800D02*
X101794000Y-110710800D01*
X96291400Y-108000800D02*
X96291400Y-109270800D01*
X95021400Y-108000800D02*
X96291400Y-108000800D01*
X87021400Y-110313729D02*
X87021400Y-110710800D01*
X87781400Y-110313729D02*
X87781400Y-110710800D01*
X87021400Y-119370800D02*
X87021400Y-113370800D01*
X87781400Y-119370800D02*
X87021400Y-119370800D01*
X87781400Y-113370800D02*
X87781400Y-119370800D01*
X88671400Y-110710800D02*
X88671400Y-113370800D01*
X89561400Y-110313729D02*
X89561400Y-110710800D01*
X90321400Y-110313729D02*
X90321400Y-110710800D01*
X89561400Y-119370800D02*
X89561400Y-113370800D01*
X90321400Y-119370800D02*
X89561400Y-119370800D01*
X90321400Y-113370800D02*
X90321400Y-119370800D01*
X91211400Y-110710800D02*
X91211400Y-113370800D01*
X92101400Y-110313729D02*
X92101400Y-110710800D01*
X92861400Y-110313729D02*
X92861400Y-110710800D01*
X92101400Y-119370800D02*
X92101400Y-113370800D01*
X92861400Y-119370800D02*
X92101400Y-119370800D01*
X92861400Y-113370800D02*
X92861400Y-119370800D01*
X93751400Y-110710800D02*
X93751400Y-113370800D01*
X94641400Y-110380800D02*
X94641400Y-110710800D01*
X95401400Y-110380800D02*
X95401400Y-110710800D01*
X94741400Y-113370800D02*
X94741400Y-119370800D01*
X94861400Y-113370800D02*
X94861400Y-119370800D01*
X94981400Y-113370800D02*
X94981400Y-119370800D01*
X95101400Y-113370800D02*
X95101400Y-119370800D01*
X95221400Y-113370800D02*
X95221400Y-119370800D01*
X95341400Y-113370800D02*
X95341400Y-119370800D01*
X94641400Y-119370800D02*
X94641400Y-113370800D01*
X95401400Y-119370800D02*
X94641400Y-119370800D01*
X95401400Y-113370800D02*
X95401400Y-119370800D01*
X96351400Y-113370800D02*
X96351400Y-110710800D01*
X86071400Y-113370800D02*
X96351400Y-113370800D01*
X86071400Y-110710800D02*
X86071400Y-113370800D01*
X96351400Y-110710800D02*
X86071400Y-110710800D01*
X80518000Y-108000800D02*
X80518000Y-109270800D01*
X79248000Y-108000800D02*
X80518000Y-108000800D01*
X71248000Y-110313729D02*
X71248000Y-110710800D01*
X72008000Y-110313729D02*
X72008000Y-110710800D01*
X71248000Y-119370800D02*
X71248000Y-113370800D01*
X72008000Y-119370800D02*
X71248000Y-119370800D01*
X72008000Y-113370800D02*
X72008000Y-119370800D01*
X72898000Y-110710800D02*
X72898000Y-113370800D01*
X73788000Y-110313729D02*
X73788000Y-110710800D01*
X74548000Y-110313729D02*
X74548000Y-110710800D01*
X73788000Y-119370800D02*
X73788000Y-113370800D01*
X74548000Y-119370800D02*
X73788000Y-119370800D01*
X74548000Y-113370800D02*
X74548000Y-119370800D01*
X75438000Y-110710800D02*
X75438000Y-113370800D01*
X76328000Y-110313729D02*
X76328000Y-110710800D01*
X77088000Y-110313729D02*
X77088000Y-110710800D01*
X76328000Y-119370800D02*
X76328000Y-113370800D01*
X77088000Y-119370800D02*
X76328000Y-119370800D01*
X77088000Y-113370800D02*
X77088000Y-119370800D01*
X77978000Y-110710800D02*
X77978000Y-113370800D01*
X78868000Y-110380800D02*
X78868000Y-110710800D01*
X79628000Y-110380800D02*
X79628000Y-110710800D01*
X78968000Y-113370800D02*
X78968000Y-119370800D01*
X79088000Y-113370800D02*
X79088000Y-119370800D01*
X79208000Y-113370800D02*
X79208000Y-119370800D01*
X79328000Y-113370800D02*
X79328000Y-119370800D01*
X79448000Y-113370800D02*
X79448000Y-119370800D01*
X79568000Y-113370800D02*
X79568000Y-119370800D01*
X78868000Y-119370800D02*
X78868000Y-113370800D01*
X79628000Y-119370800D02*
X78868000Y-119370800D01*
X79628000Y-113370800D02*
X79628000Y-119370800D01*
X80578000Y-113370800D02*
X80578000Y-110710800D01*
X70298000Y-113370800D02*
X80578000Y-113370800D01*
X70298000Y-110710800D02*
X70298000Y-113370800D01*
X80578000Y-110710800D02*
X70298000Y-110710800D01*
X125715400Y-74590400D02*
X128515400Y-74590400D01*
X128515400Y-74590400D02*
X128515400Y-76590400D01*
X128515400Y-76590400D02*
X125715400Y-76590400D01*
X125715400Y-76590400D02*
X125715400Y-74590400D01*
X129931800Y-74590400D02*
X132731800Y-74590400D01*
X132731800Y-74590400D02*
X132731800Y-76590400D01*
X132731800Y-76590400D02*
X129931800Y-76590400D01*
X129931800Y-76590400D02*
X129931800Y-74590400D01*
X119305000Y-99129800D02*
X119305000Y-101479800D01*
X119305000Y-105949800D02*
X119305000Y-103599800D01*
X125060563Y-105949800D02*
X119305000Y-105949800D01*
X125060563Y-99129800D02*
X119305000Y-99129800D01*
X126125000Y-100194237D02*
X126125000Y-101479800D01*
X126125000Y-104885363D02*
X126125000Y-103599800D01*
X126125000Y-104885363D02*
X125060563Y-105949800D01*
X126125000Y-100194237D02*
X125060563Y-99129800D01*
X127152500Y-104387300D02*
X126365000Y-104387300D01*
X126758750Y-104781050D02*
X126758750Y-103993550D01*
X103582400Y-99129800D02*
X103582400Y-101479800D01*
X103582400Y-105949800D02*
X103582400Y-103599800D01*
X109337963Y-105949800D02*
X103582400Y-105949800D01*
X109337963Y-99129800D02*
X103582400Y-99129800D01*
X110402400Y-100194237D02*
X110402400Y-101479800D01*
X110402400Y-104885363D02*
X110402400Y-103599800D01*
X110402400Y-104885363D02*
X109337963Y-105949800D01*
X110402400Y-100194237D02*
X109337963Y-99129800D01*
X111429900Y-104387300D02*
X110642400Y-104387300D01*
X111036150Y-104781050D02*
X111036150Y-103993550D01*
X87809000Y-99129800D02*
X87809000Y-101479800D01*
X87809000Y-105949800D02*
X87809000Y-103599800D01*
X93564563Y-105949800D02*
X87809000Y-105949800D01*
X93564563Y-99129800D02*
X87809000Y-99129800D01*
X94629000Y-100194237D02*
X94629000Y-101479800D01*
X94629000Y-104885363D02*
X94629000Y-103599800D01*
X94629000Y-104885363D02*
X93564563Y-105949800D01*
X94629000Y-100194237D02*
X93564563Y-99129800D01*
X95656500Y-104387300D02*
X94869000Y-104387300D01*
X95262750Y-104781050D02*
X95262750Y-103993550D01*
X72071200Y-99129800D02*
X72071200Y-101479800D01*
X72071200Y-105949800D02*
X72071200Y-103599800D01*
X77826763Y-105949800D02*
X72071200Y-105949800D01*
X77826763Y-99129800D02*
X72071200Y-99129800D01*
X78891200Y-100194237D02*
X78891200Y-101479800D01*
X78891200Y-104885363D02*
X78891200Y-103599800D01*
X78891200Y-104885363D02*
X77826763Y-105949800D01*
X78891200Y-100194237D02*
X77826763Y-99129800D01*
X79918700Y-104387300D02*
X79131200Y-104387300D01*
X79524950Y-104781050D02*
X79524950Y-103993550D01*
X83461400Y-119687800D02*
X96291400Y-119687800D01*
X83461400Y-99107800D02*
X83461400Y-119687800D01*
X98961400Y-99107800D02*
X83461400Y-99107800D01*
X98961400Y-117017800D02*
X98961400Y-99107800D01*
X96291400Y-117017800D02*
X98961400Y-117017800D01*
X96291400Y-119687800D02*
X96291400Y-117017800D01*
X98961400Y-119687800D02*
X98961400Y-118287800D01*
X97561400Y-119687800D02*
X98961400Y-119687800D01*
X96291400Y-117017800D02*
X96291400Y-99107800D01*
X86131400Y-119687800D02*
X86131400Y-99107800D01*
X99209400Y-119687800D02*
X112039400Y-119687800D01*
X99209400Y-99107800D02*
X99209400Y-119687800D01*
X114709400Y-99107800D02*
X99209400Y-99107800D01*
X114709400Y-117017800D02*
X114709400Y-99107800D01*
X112039400Y-117017800D02*
X114709400Y-117017800D01*
X112039400Y-119687800D02*
X112039400Y-117017800D01*
X114709400Y-119687800D02*
X114709400Y-118287800D01*
X113309400Y-119687800D02*
X114709400Y-119687800D01*
X112039400Y-117017800D02*
X112039400Y-99107800D01*
X101879400Y-119687800D02*
X101879400Y-99107800D01*
X114957400Y-119687800D02*
X127787400Y-119687800D01*
X114957400Y-99107800D02*
X114957400Y-119687800D01*
X130457400Y-99107800D02*
X114957400Y-99107800D01*
X130457400Y-117017800D02*
X130457400Y-99107800D01*
X127787400Y-117017800D02*
X130457400Y-117017800D01*
X127787400Y-119687800D02*
X127787400Y-117017800D01*
X130457400Y-119687800D02*
X130457400Y-118287800D01*
X129057400Y-119687800D02*
X130457400Y-119687800D01*
X127787400Y-117017800D02*
X127787400Y-99107800D01*
X117627400Y-119687800D02*
X117627400Y-99107800D01*
X63052200Y-108988400D02*
X63052200Y-111788400D01*
X63052200Y-111788400D02*
X61052200Y-111788400D01*
X61052200Y-111788400D02*
X61052200Y-108988400D01*
X61052200Y-108988400D02*
X63052200Y-108988400D01*
X63052200Y-105711800D02*
X63052200Y-108511800D01*
X63052200Y-108511800D02*
X61052200Y-108511800D01*
X61052200Y-108511800D02*
X61052200Y-105711800D01*
X61052200Y-105711800D02*
X63052200Y-105711800D01*
X63052200Y-99488800D02*
X63052200Y-102288800D01*
X63052200Y-102288800D02*
X61052200Y-102288800D01*
X61052200Y-102288800D02*
X61052200Y-99488800D01*
X61052200Y-99488800D02*
X63052200Y-99488800D01*
X63052200Y-96198400D02*
X63052200Y-98998400D01*
X63052200Y-98998400D02*
X61052200Y-98998400D01*
X61052200Y-98998400D02*
X61052200Y-96198400D01*
X61052200Y-96198400D02*
X63052200Y-96198400D01*
X63052200Y-90014600D02*
X63052200Y-92814600D01*
X63052200Y-92814600D02*
X61052200Y-92814600D01*
X61052200Y-92814600D02*
X61052200Y-90014600D01*
X61052200Y-90014600D02*
X63052200Y-90014600D01*
X63052200Y-86724200D02*
X63052200Y-89524200D01*
X63052200Y-89524200D02*
X61052200Y-89524200D01*
X61052200Y-89524200D02*
X61052200Y-86724200D01*
X61052200Y-86724200D02*
X63052200Y-86724200D01*
X63052200Y-80489600D02*
X63052200Y-83289600D01*
X63052200Y-83289600D02*
X61052200Y-83289600D01*
X61052200Y-83289600D02*
X61052200Y-80489600D01*
X61052200Y-80489600D02*
X63052200Y-80489600D01*
X63052200Y-77213000D02*
X63052200Y-80013000D01*
X63052200Y-80013000D02*
X61052200Y-80013000D01*
X61052200Y-80013000D02*
X61052200Y-77213000D01*
X61052200Y-77213000D02*
X63052200Y-77213000D01*
X63052200Y-71001600D02*
X63052200Y-73801600D01*
X63052200Y-73801600D02*
X61052200Y-73801600D01*
X61052200Y-73801600D02*
X61052200Y-71001600D01*
X61052200Y-71001600D02*
X63052200Y-71001600D01*
X63052200Y-67725000D02*
X63052200Y-70525000D01*
X63052200Y-70525000D02*
X61052200Y-70525000D01*
X61052200Y-70525000D02*
X61052200Y-67725000D01*
X61052200Y-67725000D02*
X63052200Y-67725000D01*
X63052200Y-61515800D02*
X63052200Y-64315800D01*
X63052200Y-64315800D02*
X61052200Y-64315800D01*
X61052200Y-64315800D02*
X61052200Y-61515800D01*
X61052200Y-61515800D02*
X63052200Y-61515800D01*
X63052200Y-58225400D02*
X63052200Y-61025400D01*
X63052200Y-61025400D02*
X61052200Y-61025400D01*
X61052200Y-61025400D02*
X61052200Y-58225400D01*
X61052200Y-58225400D02*
X63052200Y-58225400D01*
X61096200Y-106684800D02*
X61096200Y-107284800D01*
X60496200Y-106984800D02*
X61096200Y-106684800D01*
X61096200Y-107284800D02*
X60496200Y-106984800D01*
X53696200Y-104424800D02*
X53696200Y-113044800D01*
X59806200Y-108034800D02*
X59806200Y-109434800D01*
X59806200Y-113044800D02*
X59806200Y-111534800D01*
X59806200Y-104424800D02*
X59806200Y-105934800D01*
X50386200Y-113044800D02*
X59806200Y-113044800D01*
X50386200Y-104424800D02*
X50386200Y-113044800D01*
X59806200Y-104424800D02*
X50386200Y-104424800D01*
X61096200Y-97185200D02*
X61096200Y-97785200D01*
X60496200Y-97485200D02*
X61096200Y-97185200D01*
X61096200Y-97785200D02*
X60496200Y-97485200D01*
X53696200Y-94925200D02*
X53696200Y-103545200D01*
X59806200Y-98535200D02*
X59806200Y-99935200D01*
X59806200Y-103545200D02*
X59806200Y-102035200D01*
X59806200Y-94925200D02*
X59806200Y-96435200D01*
X50386200Y-103545200D02*
X59806200Y-103545200D01*
X50386200Y-94925200D02*
X50386200Y-103545200D01*
X59806200Y-94925200D02*
X50386200Y-94925200D01*
X61096200Y-87690800D02*
X61096200Y-88290800D01*
X60496200Y-87990800D02*
X61096200Y-87690800D01*
X61096200Y-88290800D02*
X60496200Y-87990800D01*
X53696200Y-85430800D02*
X53696200Y-94050800D01*
X59806200Y-89040800D02*
X59806200Y-90440800D01*
X59806200Y-94050800D02*
X59806200Y-92540800D01*
X59806200Y-85430800D02*
X59806200Y-86940800D01*
X50386200Y-94050800D02*
X59806200Y-94050800D01*
X50386200Y-85430800D02*
X50386200Y-94050800D01*
X59806200Y-85430800D02*
X50386200Y-85430800D01*
X61096200Y-78191200D02*
X61096200Y-78791200D01*
X60496200Y-78491200D02*
X61096200Y-78191200D01*
X61096200Y-78791200D02*
X60496200Y-78491200D01*
X53696200Y-75931200D02*
X53696200Y-84551200D01*
X59806200Y-79541200D02*
X59806200Y-80941200D01*
X59806200Y-84551200D02*
X59806200Y-83041200D01*
X59806200Y-75931200D02*
X59806200Y-77441200D01*
X50386200Y-84551200D02*
X59806200Y-84551200D01*
X50386200Y-75931200D02*
X50386200Y-84551200D01*
X59806200Y-75931200D02*
X50386200Y-75931200D01*
X61096200Y-68691600D02*
X61096200Y-69291600D01*
X60496200Y-68991600D02*
X61096200Y-68691600D01*
X61096200Y-69291600D02*
X60496200Y-68991600D01*
X53696200Y-66431600D02*
X53696200Y-75051600D01*
X59806200Y-70041600D02*
X59806200Y-71441600D01*
X59806200Y-75051600D02*
X59806200Y-73541600D01*
X59806200Y-66431600D02*
X59806200Y-67941600D01*
X50386200Y-75051600D02*
X59806200Y-75051600D01*
X50386200Y-66431600D02*
X50386200Y-75051600D01*
X59806200Y-66431600D02*
X50386200Y-66431600D01*
X61096200Y-59192000D02*
X61096200Y-59792000D01*
X60496200Y-59492000D02*
X61096200Y-59192000D01*
X61096200Y-59792000D02*
X60496200Y-59492000D01*
X53696200Y-56932000D02*
X53696200Y-65552000D01*
X59806200Y-60542000D02*
X59806200Y-61942000D01*
X59806200Y-65552000D02*
X59806200Y-64042000D01*
X59806200Y-56932000D02*
X59806200Y-58442000D01*
X50386200Y-65552000D02*
X59806200Y-65552000D01*
X50386200Y-56932000D02*
X50386200Y-65552000D01*
X59806200Y-56932000D02*
X50386200Y-56932000D01*
X122665800Y-86909600D02*
X120005800Y-86909600D01*
X122665800Y-92049600D02*
X122665800Y-86909600D01*
X120005800Y-92049600D02*
X120005800Y-86909600D01*
X122665800Y-92049600D02*
X120005800Y-92049600D01*
X122665800Y-93319600D02*
X122665800Y-94649600D01*
X122665800Y-94649600D02*
X121335800Y-94649600D01*
X79940000Y-69041422D02*
X79940000Y-69558578D01*
X78520000Y-69041422D02*
X78520000Y-69558578D01*
X84461422Y-72210000D02*
X84978578Y-72210000D01*
X84461422Y-70790000D02*
X84978578Y-70790000D01*
X82130000Y-70300000D02*
X82130000Y-67615000D01*
X82130000Y-67615000D02*
X80210000Y-67615000D01*
X80210000Y-67615000D02*
X80210000Y-70300000D01*
X92400000Y-70888578D02*
X92400000Y-70371422D01*
X90980000Y-70888578D02*
X90980000Y-70371422D01*
X97041422Y-77606400D02*
X97558578Y-77606400D01*
X97041422Y-76186400D02*
X97558578Y-76186400D01*
X93140000Y-85501422D02*
X93140000Y-86018578D01*
X94560000Y-85501422D02*
X94560000Y-86018578D01*
X77708578Y-65860000D02*
X77191422Y-65860000D01*
X77708578Y-67280000D02*
X77191422Y-67280000D01*
X63800000Y-54466078D02*
X63800000Y-53948922D01*
X62380000Y-54466078D02*
X62380000Y-53948922D01*
X88070000Y-70198578D02*
X88070000Y-69681422D01*
X86650000Y-70198578D02*
X86650000Y-69681422D01*
X95070000Y-84588922D02*
X95070000Y-85106078D01*
X96490000Y-84588922D02*
X96490000Y-85106078D01*
X77227000Y-67706600D02*
X74777000Y-67706600D01*
X75427000Y-70926600D02*
X77227000Y-70926600D01*
X134839400Y-107425800D02*
X137499400Y-107425800D01*
X134839400Y-99745800D02*
X134839400Y-107425800D01*
X137499400Y-99745800D02*
X137499400Y-107425800D01*
X134839400Y-99745800D02*
X137499400Y-99745800D01*
X134839400Y-98475800D02*
X134839400Y-97145800D01*
X134839400Y-97145800D02*
X136169400Y-97145800D01*
X132045400Y-107425800D02*
X134705400Y-107425800D01*
X132045400Y-99745800D02*
X132045400Y-107425800D01*
X134705400Y-99745800D02*
X134705400Y-107425800D01*
X132045400Y-99745800D02*
X134705400Y-99745800D01*
X132045400Y-98475800D02*
X132045400Y-97145800D01*
X132045400Y-97145800D02*
X133375400Y-97145800D01*
X111388200Y-86909600D02*
X108728200Y-86909600D01*
X111388200Y-92049600D02*
X111388200Y-86909600D01*
X108728200Y-92049600D02*
X108728200Y-86909600D01*
X111388200Y-92049600D02*
X108728200Y-92049600D01*
X111388200Y-93319600D02*
X111388200Y-94649600D01*
X111388200Y-94649600D02*
X110058200Y-94649600D01*
X126440600Y-63244600D02*
X126440600Y-64744600D01*
X126440600Y-73864600D02*
X126440600Y-72364600D01*
X126440600Y-63244600D02*
X127940600Y-63244600D01*
X126440600Y-73864600D02*
X127940600Y-73864600D01*
X137160600Y-73864600D02*
X135660600Y-73864600D01*
X137160600Y-73864600D02*
X137160600Y-72364600D01*
X137160600Y-63244600D02*
X137160600Y-64744600D01*
X137160600Y-63244600D02*
X135660600Y-63244600D01*
X114207600Y-86909600D02*
X111547600Y-86909600D01*
X114207600Y-92049600D02*
X114207600Y-86909600D01*
X111547600Y-92049600D02*
X111547600Y-86909600D01*
X114207600Y-92049600D02*
X111547600Y-92049600D01*
X114207600Y-93319600D02*
X114207600Y-94649600D01*
X114207600Y-94649600D02*
X112877600Y-94649600D01*
X119846400Y-86909600D02*
X117186400Y-86909600D01*
X119846400Y-92049600D02*
X119846400Y-86909600D01*
X117186400Y-92049600D02*
X117186400Y-86909600D01*
X119846400Y-92049600D02*
X117186400Y-92049600D01*
X119846400Y-93319600D02*
X119846400Y-94649600D01*
X119846400Y-94649600D02*
X118516400Y-94649600D01*
X117027000Y-86909600D02*
X114367000Y-86909600D01*
X117027000Y-92049600D02*
X117027000Y-86909600D01*
X114367000Y-92049600D02*
X114367000Y-86909600D01*
X117027000Y-92049600D02*
X114367000Y-92049600D01*
X117027000Y-93319600D02*
X117027000Y-94649600D01*
X117027000Y-94649600D02*
X115697000Y-94649600D01*
X102784000Y-89259600D02*
X102784000Y-90589600D01*
X101454000Y-89259600D02*
X102784000Y-89259600D01*
X100184000Y-89259600D02*
X100184000Y-91919600D01*
X100184000Y-91919600D02*
X92504000Y-91919600D01*
X100184000Y-89259600D02*
X92504000Y-89259600D01*
X92504000Y-89259600D02*
X92504000Y-91919600D01*
X129142800Y-78248200D02*
X126482800Y-78248200D01*
X129142800Y-83388200D02*
X129142800Y-78248200D01*
X126482800Y-83388200D02*
X126482800Y-78248200D01*
X129142800Y-83388200D02*
X126482800Y-83388200D01*
X129142800Y-84658200D02*
X129142800Y-85988200D01*
X129142800Y-85988200D02*
X127812800Y-85988200D01*
X129142800Y-94624200D02*
X127812800Y-94624200D01*
X129142800Y-93294200D02*
X129142800Y-94624200D01*
X129142800Y-92024200D02*
X126482800Y-92024200D01*
X126482800Y-92024200D02*
X126482800Y-86884200D01*
X129142800Y-92024200D02*
X129142800Y-86884200D01*
X129142800Y-86884200D02*
X126482800Y-86884200D01*
X92504000Y-92104400D02*
X92504000Y-94764400D01*
X100184000Y-92104400D02*
X92504000Y-92104400D01*
X100184000Y-94764400D02*
X92504000Y-94764400D01*
X100184000Y-92104400D02*
X100184000Y-94764400D01*
X101454000Y-92104400D02*
X102784000Y-92104400D01*
X102784000Y-92104400D02*
X102784000Y-93434400D01*
X108543400Y-84769000D02*
X107213400Y-84769000D01*
X108543400Y-83439000D02*
X108543400Y-84769000D01*
X108543400Y-82169000D02*
X105883400Y-82169000D01*
X105883400Y-82169000D02*
X105883400Y-79569000D01*
X108543400Y-82169000D02*
X108543400Y-79569000D01*
X108543400Y-79569000D02*
X105883400Y-79569000D01*
X117001600Y-84769000D02*
X115671600Y-84769000D01*
X117001600Y-83439000D02*
X117001600Y-84769000D01*
X117001600Y-82169000D02*
X114341600Y-82169000D01*
X114341600Y-82169000D02*
X114341600Y-79569000D01*
X117001600Y-82169000D02*
X117001600Y-79569000D01*
X117001600Y-79569000D02*
X114341600Y-79569000D01*
X131936800Y-78248200D02*
X129276800Y-78248200D01*
X131936800Y-83388200D02*
X131936800Y-78248200D01*
X129276800Y-83388200D02*
X129276800Y-78248200D01*
X131936800Y-83388200D02*
X129276800Y-83388200D01*
X131936800Y-84658200D02*
X131936800Y-85988200D01*
X131936800Y-85988200D02*
X130606800Y-85988200D01*
X131936800Y-94624200D02*
X130606800Y-94624200D01*
X131936800Y-93294200D02*
X131936800Y-94624200D01*
X131936800Y-92024200D02*
X129276800Y-92024200D01*
X129276800Y-92024200D02*
X129276800Y-86884200D01*
X131936800Y-92024200D02*
X131936800Y-86884200D01*
X131936800Y-86884200D02*
X129276800Y-86884200D01*
X92504000Y-94949200D02*
X92504000Y-97609200D01*
X100184000Y-94949200D02*
X92504000Y-94949200D01*
X100184000Y-97609200D02*
X92504000Y-97609200D01*
X100184000Y-94949200D02*
X100184000Y-97609200D01*
X101454000Y-94949200D02*
X102784000Y-94949200D01*
X102784000Y-94949200D02*
X102784000Y-96279200D01*
X111362800Y-84769000D02*
X110032800Y-84769000D01*
X111362800Y-83439000D02*
X111362800Y-84769000D01*
X111362800Y-82169000D02*
X108702800Y-82169000D01*
X108702800Y-82169000D02*
X108702800Y-79569000D01*
X111362800Y-82169000D02*
X111362800Y-79569000D01*
X111362800Y-79569000D02*
X108702800Y-79569000D01*
X119821000Y-84769000D02*
X118491000Y-84769000D01*
X119821000Y-83439000D02*
X119821000Y-84769000D01*
X119821000Y-82169000D02*
X117161000Y-82169000D01*
X117161000Y-82169000D02*
X117161000Y-79569000D01*
X119821000Y-82169000D02*
X119821000Y-79569000D01*
X119821000Y-79569000D02*
X117161000Y-79569000D01*
X134730800Y-85988200D02*
X133400800Y-85988200D01*
X134730800Y-84658200D02*
X134730800Y-85988200D01*
X134730800Y-83388200D02*
X132070800Y-83388200D01*
X132070800Y-83388200D02*
X132070800Y-78248200D01*
X134730800Y-83388200D02*
X134730800Y-78248200D01*
X134730800Y-78248200D02*
X132070800Y-78248200D01*
X134730800Y-86884200D02*
X132070800Y-86884200D01*
X134730800Y-92024200D02*
X134730800Y-86884200D01*
X132070800Y-92024200D02*
X132070800Y-86884200D01*
X134730800Y-92024200D02*
X132070800Y-92024200D01*
X134730800Y-93294200D02*
X134730800Y-94624200D01*
X134730800Y-94624200D02*
X133400800Y-94624200D01*
X114182200Y-84769000D02*
X112852200Y-84769000D01*
X114182200Y-83439000D02*
X114182200Y-84769000D01*
X114182200Y-82169000D02*
X111522200Y-82169000D01*
X111522200Y-82169000D02*
X111522200Y-79569000D01*
X114182200Y-82169000D02*
X114182200Y-79569000D01*
X114182200Y-79569000D02*
X111522200Y-79569000D01*
X122640400Y-84769000D02*
X121310400Y-84769000D01*
X122640400Y-83439000D02*
X122640400Y-84769000D01*
X122640400Y-82169000D02*
X119980400Y-82169000D01*
X119980400Y-82169000D02*
X119980400Y-79569000D01*
X122640400Y-82169000D02*
X122640400Y-79569000D01*
X122640400Y-79569000D02*
X119980400Y-79569000D01*
X137524800Y-85988200D02*
X136194800Y-85988200D01*
X137524800Y-84658200D02*
X137524800Y-85988200D01*
X137524800Y-83388200D02*
X134864800Y-83388200D01*
X134864800Y-83388200D02*
X134864800Y-78248200D01*
X137524800Y-83388200D02*
X137524800Y-78248200D01*
X137524800Y-78248200D02*
X134864800Y-78248200D01*
X137524800Y-86884200D02*
X134864800Y-86884200D01*
X137524800Y-92024200D02*
X137524800Y-86884200D01*
X134864800Y-92024200D02*
X134864800Y-86884200D01*
X137524800Y-92024200D02*
X134864800Y-92024200D01*
X137524800Y-93294200D02*
X137524800Y-94624200D01*
X137524800Y-94624200D02*
X136194800Y-94624200D01*
X76292000Y-98165600D02*
X81412000Y-98165600D01*
X81412000Y-98165600D02*
X81412000Y-89045600D01*
X81412000Y-89045600D02*
X80412000Y-88045600D01*
X80412000Y-88045600D02*
X76292000Y-88045600D01*
X76292000Y-88045600D02*
X76292000Y-98165600D01*
X79302000Y-98465600D02*
X81712000Y-98465600D01*
X81712000Y-98465600D02*
X81712000Y-96055600D01*
X70399200Y-98165600D02*
X75519200Y-98165600D01*
X75519200Y-98165600D02*
X75519200Y-89045600D01*
X75519200Y-89045600D02*
X74519200Y-88045600D01*
X74519200Y-88045600D02*
X70399200Y-88045600D01*
X70399200Y-88045600D02*
X70399200Y-98165600D01*
X73409200Y-98465600D02*
X75819200Y-98465600D01*
X75819200Y-98465600D02*
X75819200Y-96055600D01*
X128476800Y-58395600D02*
X133876800Y-58395600D01*
X128476800Y-61695600D02*
X133876800Y-61695600D01*
X128476800Y-58395600D02*
X128476800Y-61695600D01*
X118058000Y-73553822D02*
X118058000Y-74070978D01*
X116638000Y-73553822D02*
X116638000Y-74070978D01*
X115947200Y-75831800D02*
X115947200Y-74831800D01*
X116447200Y-75331800D02*
X115447200Y-75331800D01*
X115207200Y-69626237D02*
X114142763Y-68561800D01*
X115207200Y-76017363D02*
X114142763Y-77081800D01*
X115207200Y-76017363D02*
X115207200Y-74331800D01*
X115207200Y-69626237D02*
X115207200Y-71311800D01*
X114142763Y-68561800D02*
X106687200Y-68561800D01*
X114142763Y-77081800D02*
X106687200Y-77081800D01*
X106687200Y-77081800D02*
X106687200Y-74331800D01*
X106687200Y-68561800D02*
X106687200Y-71311800D01*
X114812578Y-64972000D02*
X114295422Y-64972000D01*
X114812578Y-63552000D02*
X114295422Y-63552000D01*
X115290000Y-64640000D02*
X115290000Y-65640000D01*
X114790000Y-65140000D02*
X115790000Y-65140000D01*
X116030000Y-70845563D02*
X117094437Y-71910000D01*
X116030000Y-64454437D02*
X117094437Y-63390000D01*
X116030000Y-64454437D02*
X116030000Y-66140000D01*
X116030000Y-70845563D02*
X116030000Y-69160000D01*
X117094437Y-71910000D02*
X124550000Y-71910000D01*
X117094437Y-63390000D02*
X124550000Y-63390000D01*
X124550000Y-63390000D02*
X124550000Y-66140000D01*
X124550000Y-71910000D02*
X124550000Y-69160000D01*
X65471600Y-57003600D02*
X65471600Y-57413600D01*
X65471600Y-57413600D02*
X71891600Y-57413600D01*
X71891600Y-57413600D02*
X71891600Y-57133600D01*
X71891600Y-55403600D02*
X71891600Y-53003600D01*
X71891600Y-51403600D02*
X71891600Y-50993600D01*
X71891600Y-50993600D02*
X65471600Y-50993600D01*
X65471600Y-50993600D02*
X65471600Y-51403600D01*
X65471600Y-53003600D02*
X65471600Y-55403600D01*
X94314778Y-65429200D02*
X93797622Y-65429200D01*
X94314778Y-64009200D02*
X93797622Y-64009200D01*
X99660400Y-64405200D02*
X99660400Y-67065200D01*
X109880400Y-64405200D02*
X99660400Y-64405200D01*
X109880400Y-67065200D02*
X99660400Y-67065200D01*
X109880400Y-64405200D02*
X109880400Y-67065200D01*
X111150400Y-64405200D02*
X112480400Y-64405200D01*
X112480400Y-64405200D02*
X112480400Y-65735200D01*
X104410200Y-55965400D02*
X107070200Y-55965400D01*
X104410200Y-53365400D02*
X104410200Y-55965400D01*
X107070200Y-53365400D02*
X107070200Y-55965400D01*
X104410200Y-53365400D02*
X107070200Y-53365400D01*
X104410200Y-52095400D02*
X104410200Y-50765400D01*
X104410200Y-50765400D02*
X105740200Y-50765400D01*
X112786000Y-62973800D02*
X112786000Y-50373800D01*
X112786000Y-50373800D02*
X107686000Y-50373800D01*
X107686000Y-50373800D02*
X107686000Y-62973800D01*
X91378800Y-54327400D02*
X90928800Y-54327400D01*
X90928800Y-54327400D02*
X90928800Y-54777400D01*
X97698800Y-54327400D02*
X98148800Y-54327400D01*
X98148800Y-54327400D02*
X98148800Y-54777400D01*
X91378800Y-61547400D02*
X90928800Y-61547400D01*
X90928800Y-61547400D02*
X90928800Y-61097400D01*
X97698800Y-61547400D02*
X98148800Y-61547400D01*
X98148800Y-61547400D02*
X98148800Y-61097400D01*
X98148800Y-61097400D02*
X99438800Y-61097400D01*
X78500400Y-63459000D02*
X80300400Y-63459000D01*
X80300400Y-60239000D02*
X77850400Y-60239000D01*
X87355178Y-57049600D02*
X86838022Y-57049600D01*
X87355178Y-58469600D02*
X86838022Y-58469600D01*
X101747822Y-52706200D02*
X102264978Y-52706200D01*
X101747822Y-54126200D02*
X102264978Y-54126200D01*
X102264978Y-52195800D02*
X101747822Y-52195800D01*
X102264978Y-50775800D02*
X101747822Y-50775800D01*
X82748622Y-62637600D02*
X83265778Y-62637600D01*
X82748622Y-64057600D02*
X83265778Y-64057600D01*
X97201222Y-64009200D02*
X97718378Y-64009200D01*
X97201222Y-65429200D02*
X97718378Y-65429200D01*
X90911178Y-65429200D02*
X90394022Y-65429200D01*
X90911178Y-64009200D02*
X90394022Y-64009200D01*
X87355178Y-54966800D02*
X86838022Y-54966800D01*
X87355178Y-56386800D02*
X86838022Y-56386800D01*
X102264978Y-59917400D02*
X101747822Y-59917400D01*
X102264978Y-58497400D02*
X101747822Y-58497400D01*
X77725200Y-58602378D02*
X77725200Y-58085222D01*
X79145200Y-58602378D02*
X79145200Y-58085222D01*
X83265778Y-58317200D02*
X82748622Y-58317200D01*
X83265778Y-56897200D02*
X82748622Y-56897200D01*
X83265778Y-60247600D02*
X82748622Y-60247600D01*
X83265778Y-58827600D02*
X82748622Y-58827600D01*
X81075600Y-58602378D02*
X81075600Y-58085222D01*
X79655600Y-58602378D02*
X79655600Y-58085222D01*
X86838022Y-50979000D02*
X87355178Y-50979000D01*
X86838022Y-52399000D02*
X87355178Y-52399000D01*
X86838022Y-53036400D02*
X87355178Y-53036400D01*
X86838022Y-54456400D02*
X87355178Y-54456400D01*
X76301600Y-55634200D02*
X76681600Y-55634200D01*
X76301600Y-51584200D02*
X76301600Y-51324200D01*
X76301600Y-55634200D02*
X76301600Y-53864200D01*
X83921600Y-55634200D02*
X83541600Y-55634200D01*
X83921600Y-53864200D02*
X83921600Y-55634200D01*
X83921600Y-51324200D02*
X83921600Y-51584200D01*
X86223600Y-64307600D02*
X88908600Y-64307600D01*
X88908600Y-64307600D02*
X88908600Y-62387600D01*
X88908600Y-62387600D02*
X86223600Y-62387600D01*
X92014800Y-52420400D02*
X94699800Y-52420400D01*
X94699800Y-52420400D02*
X94699800Y-50500400D01*
X94699800Y-50500400D02*
X92014800Y-50500400D01*
X97443800Y-50500400D02*
X94758800Y-50500400D01*
X94758800Y-50500400D02*
X94758800Y-52420400D01*
X94758800Y-52420400D02*
X97443800Y-52420400D01*
X87482178Y-61492200D02*
X86965022Y-61492200D01*
X87482178Y-60072200D02*
X86965022Y-60072200D01*
X89053600Y-52684178D02*
X89053600Y-52167022D01*
X90473600Y-52684178D02*
X90473600Y-52167022D01*
X101747822Y-54636600D02*
X102264978Y-54636600D01*
X101747822Y-56056600D02*
X102264978Y-56056600D01*
X101747822Y-61062800D02*
X102264978Y-61062800D01*
X101747822Y-62482800D02*
X102264978Y-62482800D01*
X82748622Y-60707200D02*
X83265778Y-60707200D01*
X82748622Y-62127200D02*
X83265778Y-62127200D01*
X75794800Y-58602378D02*
X75794800Y-58085222D01*
X77214800Y-58602378D02*
X77214800Y-58085222D01*
X101747822Y-56567000D02*
X102264978Y-56567000D01*
X101747822Y-57987000D02*
X102264978Y-57987000D01*
X105843000Y-58424578D02*
X105843000Y-57907422D01*
X107263000Y-58424578D02*
X107263000Y-57907422D01*
X107263000Y-61336422D02*
X107263000Y-61853578D01*
X105843000Y-61336422D02*
X105843000Y-61853578D01*
X128755778Y-51768000D02*
X128238622Y-51768000D01*
X128755778Y-53188000D02*
X128238622Y-53188000D01*
X130182200Y-53518000D02*
X127497200Y-53518000D01*
X130182200Y-55438000D02*
X130182200Y-53518000D01*
X127497200Y-55438000D02*
X130182200Y-55438000D01*
X125725000Y-62635000D02*
X125725000Y-50415000D01*
X125725000Y-50415000D02*
X113345000Y-50415000D01*
X113345000Y-50415000D02*
X113345000Y-62635000D01*
X113345000Y-62635000D02*
X125725000Y-62635000D01*
X125725000Y-51915000D02*
X125725000Y-53715000D01*
X125725000Y-53715000D02*
X113345000Y-53715000D01*
X113345000Y-53715000D02*
X113345000Y-51915000D01*
X113345000Y-51915000D02*
X125725000Y-51915000D01*
X123075000Y-50415000D02*
X121075000Y-50415000D01*
X121075000Y-50415000D02*
X121325000Y-51915000D01*
X121325000Y-51915000D02*
X122825000Y-51915000D01*
X122825000Y-51915000D02*
X123075000Y-50415000D01*
X117995000Y-50415000D02*
X115995000Y-50415000D01*
X115995000Y-50415000D02*
X116245000Y-51915000D01*
X116245000Y-51915000D02*
X117745000Y-51915000D01*
X117745000Y-51915000D02*
X117995000Y-50415000D01*
X121775000Y-63435000D02*
X122075000Y-62835000D01*
X122075000Y-62835000D02*
X122375000Y-63435000D01*
X122375000Y-63435000D02*
X121775000Y-63435000D01*
D12*
X79875142Y-81687942D02*
X79827523Y-81735561D01*
X79684666Y-81783180D01*
X79589428Y-81783180D01*
X79446571Y-81735561D01*
X79351333Y-81640323D01*
X79303714Y-81545085D01*
X79256095Y-81354609D01*
X79256095Y-81211752D01*
X79303714Y-81021276D01*
X79351333Y-80926038D01*
X79446571Y-80830800D01*
X79589428Y-80783180D01*
X79684666Y-80783180D01*
X79827523Y-80830800D01*
X79875142Y-80878419D01*
X80827523Y-81783180D02*
X80256095Y-81783180D01*
X80541809Y-81783180D02*
X80541809Y-80783180D01*
X80446571Y-80926038D01*
X80351333Y-81021276D01*
X80256095Y-81068895D01*
X81160857Y-80783180D02*
X81827523Y-80783180D01*
X81398952Y-81783180D01*
X71848742Y-71324742D02*
X71801123Y-71372361D01*
X71658266Y-71419980D01*
X71563028Y-71419980D01*
X71420171Y-71372361D01*
X71324933Y-71277123D01*
X71277314Y-71181885D01*
X71229695Y-70991409D01*
X71229695Y-70848552D01*
X71277314Y-70658076D01*
X71324933Y-70562838D01*
X71420171Y-70467600D01*
X71563028Y-70419980D01*
X71658266Y-70419980D01*
X71801123Y-70467600D01*
X71848742Y-70515219D01*
X72801123Y-71419980D02*
X72229695Y-71419980D01*
X72515409Y-71419980D02*
X72515409Y-70419980D01*
X72420171Y-70562838D01*
X72324933Y-70658076D01*
X72229695Y-70705695D01*
X73753504Y-71419980D02*
X73182076Y-71419980D01*
X73467790Y-71419980D02*
X73467790Y-70419980D01*
X73372552Y-70562838D01*
X73277314Y-70658076D01*
X73182076Y-70705695D01*
X75390380Y-118400580D02*
X75485619Y-118400580D01*
X75580857Y-118448200D01*
X75628476Y-118495819D01*
X75676095Y-118591057D01*
X75723714Y-118781533D01*
X75723714Y-119019628D01*
X75676095Y-119210104D01*
X75628476Y-119305342D01*
X75580857Y-119352961D01*
X75485619Y-119400580D01*
X75390380Y-119400580D01*
X75295142Y-119352961D01*
X75247523Y-119305342D01*
X75199904Y-119210104D01*
X75152285Y-119019628D01*
X75152285Y-118781533D01*
X75199904Y-118591057D01*
X75247523Y-118495819D01*
X75295142Y-118448200D01*
X75390380Y-118400580D01*
X94030895Y-72705980D02*
X94030895Y-73515504D01*
X94078514Y-73610742D01*
X94126133Y-73658361D01*
X94221371Y-73705980D01*
X94411847Y-73705980D01*
X94507085Y-73658361D01*
X94554704Y-73610742D01*
X94602323Y-73515504D01*
X94602323Y-72705980D01*
X95507085Y-73039314D02*
X95507085Y-73705980D01*
X95268990Y-72658361D02*
X95030895Y-73372647D01*
X95649942Y-73372647D01*
X128214380Y-114465323D02*
X128928666Y-114465323D01*
X129071523Y-114512942D01*
X129166761Y-114608180D01*
X129214380Y-114751038D01*
X129214380Y-114846276D01*
X128547714Y-113560561D02*
X129214380Y-113560561D01*
X128166761Y-113798657D02*
X128881047Y-114036752D01*
X128881047Y-113417704D01*
X128547714Y-112608180D02*
X129214380Y-112608180D01*
X128166761Y-112846276D02*
X128881047Y-113084371D01*
X128881047Y-112465323D01*
X112466380Y-114465323D02*
X113180666Y-114465323D01*
X113323523Y-114512942D01*
X113418761Y-114608180D01*
X113466380Y-114751038D01*
X113466380Y-114846276D01*
X112799714Y-113560561D02*
X113466380Y-113560561D01*
X112418761Y-113798657D02*
X113133047Y-114036752D01*
X113133047Y-113417704D01*
X112466380Y-113131990D02*
X112466380Y-112512942D01*
X112847333Y-112846276D01*
X112847333Y-112703419D01*
X112894952Y-112608180D01*
X112942571Y-112560561D01*
X113037809Y-112512942D01*
X113275904Y-112512942D01*
X113371142Y-112560561D01*
X113418761Y-112608180D01*
X113466380Y-112703419D01*
X113466380Y-112989133D01*
X113418761Y-113084371D01*
X113371142Y-113131990D01*
X96743780Y-114465323D02*
X97458066Y-114465323D01*
X97600923Y-114512942D01*
X97696161Y-114608180D01*
X97743780Y-114751038D01*
X97743780Y-114846276D01*
X96743780Y-114084371D02*
X96743780Y-113465323D01*
X97124733Y-113798657D01*
X97124733Y-113655800D01*
X97172352Y-113560561D01*
X97219971Y-113512942D01*
X97315209Y-113465323D01*
X97553304Y-113465323D01*
X97648542Y-113512942D01*
X97696161Y-113560561D01*
X97743780Y-113655800D01*
X97743780Y-113941514D01*
X97696161Y-114036752D01*
X97648542Y-114084371D01*
X97743780Y-112989133D02*
X97743780Y-112798657D01*
X97696161Y-112703419D01*
X97648542Y-112655800D01*
X97505685Y-112560561D01*
X97315209Y-112512942D01*
X96934257Y-112512942D01*
X96839019Y-112560561D01*
X96791400Y-112608180D01*
X96743780Y-112703419D01*
X96743780Y-112893895D01*
X96791400Y-112989133D01*
X96839019Y-113036752D01*
X96934257Y-113084371D01*
X97172352Y-113084371D01*
X97267590Y-113036752D01*
X97315209Y-112989133D01*
X97362828Y-112893895D01*
X97362828Y-112703419D01*
X97315209Y-112608180D01*
X97267590Y-112560561D01*
X97172352Y-112512942D01*
X80970380Y-114465323D02*
X81684666Y-114465323D01*
X81827523Y-114512942D01*
X81922761Y-114608180D01*
X81970380Y-114751038D01*
X81970380Y-114846276D01*
X80970380Y-114084371D02*
X80970380Y-113465323D01*
X81351333Y-113798657D01*
X81351333Y-113655800D01*
X81398952Y-113560561D01*
X81446571Y-113512942D01*
X81541809Y-113465323D01*
X81779904Y-113465323D01*
X81875142Y-113512942D01*
X81922761Y-113560561D01*
X81970380Y-113655800D01*
X81970380Y-113941514D01*
X81922761Y-114036752D01*
X81875142Y-114084371D01*
X81398952Y-112893895D02*
X81351333Y-112989133D01*
X81303714Y-113036752D01*
X81208476Y-113084371D01*
X81160857Y-113084371D01*
X81065619Y-113036752D01*
X81018000Y-112989133D01*
X80970380Y-112893895D01*
X80970380Y-112703419D01*
X81018000Y-112608180D01*
X81065619Y-112560561D01*
X81160857Y-112512942D01*
X81208476Y-112512942D01*
X81303714Y-112560561D01*
X81351333Y-112608180D01*
X81398952Y-112703419D01*
X81398952Y-112893895D01*
X81446571Y-112989133D01*
X81494190Y-113036752D01*
X81589428Y-113084371D01*
X81779904Y-113084371D01*
X81875142Y-113036752D01*
X81922761Y-112989133D01*
X81970380Y-112893895D01*
X81970380Y-112703419D01*
X81922761Y-112608180D01*
X81875142Y-112560561D01*
X81779904Y-112512942D01*
X81589428Y-112512942D01*
X81494190Y-112560561D01*
X81446571Y-112608180D01*
X81398952Y-112703419D01*
X125459685Y-77001114D02*
X124709685Y-77001114D01*
X124709685Y-76715400D01*
X124745400Y-76643971D01*
X124781114Y-76608257D01*
X124852542Y-76572542D01*
X124959685Y-76572542D01*
X125031114Y-76608257D01*
X125066828Y-76643971D01*
X125102542Y-76715400D01*
X125102542Y-77001114D01*
X124709685Y-76322542D02*
X125459685Y-76143971D01*
X124923971Y-76001114D01*
X125459685Y-75858257D01*
X124709685Y-75679685D01*
X125459685Y-75393971D02*
X124709685Y-75393971D01*
X125245400Y-75143971D01*
X124709685Y-74893971D01*
X125459685Y-74893971D01*
X124709685Y-74608257D02*
X124709685Y-74108257D01*
X125459685Y-74429685D01*
X129664485Y-77001114D02*
X128914485Y-77001114D01*
X128914485Y-76715400D01*
X128950200Y-76643971D01*
X128985914Y-76608257D01*
X129057342Y-76572542D01*
X129164485Y-76572542D01*
X129235914Y-76608257D01*
X129271628Y-76643971D01*
X129307342Y-76715400D01*
X129307342Y-77001114D01*
X128914485Y-76322542D02*
X129664485Y-76143971D01*
X129128771Y-76001114D01*
X129664485Y-75858257D01*
X128914485Y-75679685D01*
X129664485Y-75393971D02*
X128914485Y-75393971D01*
X129450200Y-75143971D01*
X128914485Y-74893971D01*
X129664485Y-74893971D01*
X128914485Y-74215400D02*
X128914485Y-74358257D01*
X128950200Y-74429685D01*
X128985914Y-74465400D01*
X129093057Y-74536828D01*
X129235914Y-74572542D01*
X129521628Y-74572542D01*
X129593057Y-74536828D01*
X129628771Y-74501114D01*
X129664485Y-74429685D01*
X129664485Y-74286828D01*
X129628771Y-74215400D01*
X129593057Y-74179685D01*
X129521628Y-74143971D01*
X129343057Y-74143971D01*
X129271628Y-74179685D01*
X129235914Y-74215400D01*
X129200200Y-74286828D01*
X129200200Y-74429685D01*
X129235914Y-74501114D01*
X129271628Y-74536828D01*
X129343057Y-74572542D01*
X122072142Y-107246942D02*
X122024523Y-107294561D01*
X121881666Y-107342180D01*
X121786428Y-107342180D01*
X121643571Y-107294561D01*
X121548333Y-107199323D01*
X121500714Y-107104085D01*
X121453095Y-106913609D01*
X121453095Y-106770752D01*
X121500714Y-106580276D01*
X121548333Y-106485038D01*
X121643571Y-106389800D01*
X121786428Y-106342180D01*
X121881666Y-106342180D01*
X122024523Y-106389800D01*
X122072142Y-106437419D01*
X122405476Y-106342180D02*
X123024523Y-106342180D01*
X122691190Y-106723133D01*
X122834047Y-106723133D01*
X122929285Y-106770752D01*
X122976904Y-106818371D01*
X123024523Y-106913609D01*
X123024523Y-107151704D01*
X122976904Y-107246942D01*
X122929285Y-107294561D01*
X122834047Y-107342180D01*
X122548333Y-107342180D01*
X122453095Y-107294561D01*
X122405476Y-107246942D01*
X123643571Y-106342180D02*
X123738809Y-106342180D01*
X123834047Y-106389800D01*
X123881666Y-106437419D01*
X123929285Y-106532657D01*
X123976904Y-106723133D01*
X123976904Y-106961228D01*
X123929285Y-107151704D01*
X123881666Y-107246942D01*
X123834047Y-107294561D01*
X123738809Y-107342180D01*
X123643571Y-107342180D01*
X123548333Y-107294561D01*
X123500714Y-107246942D01*
X123453095Y-107151704D01*
X123405476Y-106961228D01*
X123405476Y-106723133D01*
X123453095Y-106532657D01*
X123500714Y-106437419D01*
X123548333Y-106389800D01*
X123643571Y-106342180D01*
X106349542Y-107246942D02*
X106301923Y-107294561D01*
X106159066Y-107342180D01*
X106063828Y-107342180D01*
X105920971Y-107294561D01*
X105825733Y-107199323D01*
X105778114Y-107104085D01*
X105730495Y-106913609D01*
X105730495Y-106770752D01*
X105778114Y-106580276D01*
X105825733Y-106485038D01*
X105920971Y-106389800D01*
X106063828Y-106342180D01*
X106159066Y-106342180D01*
X106301923Y-106389800D01*
X106349542Y-106437419D01*
X106730495Y-106437419D02*
X106778114Y-106389800D01*
X106873352Y-106342180D01*
X107111447Y-106342180D01*
X107206685Y-106389800D01*
X107254304Y-106437419D01*
X107301923Y-106532657D01*
X107301923Y-106627895D01*
X107254304Y-106770752D01*
X106682876Y-107342180D01*
X107301923Y-107342180D01*
X107778114Y-107342180D02*
X107968590Y-107342180D01*
X108063828Y-107294561D01*
X108111447Y-107246942D01*
X108206685Y-107104085D01*
X108254304Y-106913609D01*
X108254304Y-106532657D01*
X108206685Y-106437419D01*
X108159066Y-106389800D01*
X108063828Y-106342180D01*
X107873352Y-106342180D01*
X107778114Y-106389800D01*
X107730495Y-106437419D01*
X107682876Y-106532657D01*
X107682876Y-106770752D01*
X107730495Y-106865990D01*
X107778114Y-106913609D01*
X107873352Y-106961228D01*
X108063828Y-106961228D01*
X108159066Y-106913609D01*
X108206685Y-106865990D01*
X108254304Y-106770752D01*
X90576142Y-107246942D02*
X90528523Y-107294561D01*
X90385666Y-107342180D01*
X90290428Y-107342180D01*
X90147571Y-107294561D01*
X90052333Y-107199323D01*
X90004714Y-107104085D01*
X89957095Y-106913609D01*
X89957095Y-106770752D01*
X90004714Y-106580276D01*
X90052333Y-106485038D01*
X90147571Y-106389800D01*
X90290428Y-106342180D01*
X90385666Y-106342180D01*
X90528523Y-106389800D01*
X90576142Y-106437419D01*
X90957095Y-106437419D02*
X91004714Y-106389800D01*
X91099952Y-106342180D01*
X91338047Y-106342180D01*
X91433285Y-106389800D01*
X91480904Y-106437419D01*
X91528523Y-106532657D01*
X91528523Y-106627895D01*
X91480904Y-106770752D01*
X90909476Y-107342180D01*
X91528523Y-107342180D01*
X92099952Y-106770752D02*
X92004714Y-106723133D01*
X91957095Y-106675514D01*
X91909476Y-106580276D01*
X91909476Y-106532657D01*
X91957095Y-106437419D01*
X92004714Y-106389800D01*
X92099952Y-106342180D01*
X92290428Y-106342180D01*
X92385666Y-106389800D01*
X92433285Y-106437419D01*
X92480904Y-106532657D01*
X92480904Y-106580276D01*
X92433285Y-106675514D01*
X92385666Y-106723133D01*
X92290428Y-106770752D01*
X92099952Y-106770752D01*
X92004714Y-106818371D01*
X91957095Y-106865990D01*
X91909476Y-106961228D01*
X91909476Y-107151704D01*
X91957095Y-107246942D01*
X92004714Y-107294561D01*
X92099952Y-107342180D01*
X92290428Y-107342180D01*
X92385666Y-107294561D01*
X92433285Y-107246942D01*
X92480904Y-107151704D01*
X92480904Y-106961228D01*
X92433285Y-106865990D01*
X92385666Y-106818371D01*
X92290428Y-106770752D01*
X74838342Y-107246942D02*
X74790723Y-107294561D01*
X74647866Y-107342180D01*
X74552628Y-107342180D01*
X74409771Y-107294561D01*
X74314533Y-107199323D01*
X74266914Y-107104085D01*
X74219295Y-106913609D01*
X74219295Y-106770752D01*
X74266914Y-106580276D01*
X74314533Y-106485038D01*
X74409771Y-106389800D01*
X74552628Y-106342180D01*
X74647866Y-106342180D01*
X74790723Y-106389800D01*
X74838342Y-106437419D01*
X75219295Y-106437419D02*
X75266914Y-106389800D01*
X75362152Y-106342180D01*
X75600247Y-106342180D01*
X75695485Y-106389800D01*
X75743104Y-106437419D01*
X75790723Y-106532657D01*
X75790723Y-106627895D01*
X75743104Y-106770752D01*
X75171676Y-107342180D01*
X75790723Y-107342180D01*
X76124057Y-106342180D02*
X76790723Y-106342180D01*
X76362152Y-107342180D01*
X91547914Y-119349780D02*
X90976485Y-119349780D01*
X91262200Y-119349780D02*
X91262200Y-118349780D01*
X91166961Y-118492638D01*
X91071723Y-118587876D01*
X90976485Y-118635495D01*
X106673685Y-118445019D02*
X106721304Y-118397400D01*
X106816542Y-118349780D01*
X107054638Y-118349780D01*
X107149876Y-118397400D01*
X107197495Y-118445019D01*
X107245114Y-118540257D01*
X107245114Y-118635495D01*
X107197495Y-118778352D01*
X106626066Y-119349780D01*
X107245114Y-119349780D01*
X122399466Y-118298980D02*
X123018514Y-118298980D01*
X122685180Y-118679933D01*
X122828038Y-118679933D01*
X122923276Y-118727552D01*
X122970895Y-118775171D01*
X123018514Y-118870409D01*
X123018514Y-119108504D01*
X122970895Y-119203742D01*
X122923276Y-119251361D01*
X122828038Y-119298980D01*
X122542323Y-119298980D01*
X122447085Y-119251361D01*
X122399466Y-119203742D01*
X63888771Y-111352685D02*
X63888771Y-110781257D01*
X64174485Y-111066971D02*
X63603057Y-111066971D01*
X63424485Y-110066971D02*
X63424485Y-110424114D01*
X63781628Y-110459828D01*
X63745914Y-110424114D01*
X63710200Y-110352685D01*
X63710200Y-110174114D01*
X63745914Y-110102685D01*
X63781628Y-110066971D01*
X63853057Y-110031257D01*
X64031628Y-110031257D01*
X64103057Y-110066971D01*
X64138771Y-110102685D01*
X64174485Y-110174114D01*
X64174485Y-110352685D01*
X64138771Y-110424114D01*
X64103057Y-110459828D01*
X63424485Y-109816971D02*
X64174485Y-109566971D01*
X63424485Y-109316971D01*
X63888771Y-108433228D02*
X63888771Y-107861800D01*
X64174485Y-108147514D02*
X63603057Y-108147514D01*
X64174485Y-107111800D02*
X64174485Y-107540371D01*
X64174485Y-107326085D02*
X63424485Y-107326085D01*
X63531628Y-107397514D01*
X63603057Y-107468942D01*
X63638771Y-107540371D01*
X63495914Y-106826085D02*
X63460200Y-106790371D01*
X63424485Y-106718942D01*
X63424485Y-106540371D01*
X63460200Y-106468942D01*
X63495914Y-106433228D01*
X63567342Y-106397514D01*
X63638771Y-106397514D01*
X63745914Y-106433228D01*
X64174485Y-106861800D01*
X64174485Y-106397514D01*
X63424485Y-106183228D02*
X64174485Y-105933228D01*
X63424485Y-105683228D01*
X63888771Y-101853085D02*
X63888771Y-101281657D01*
X64174485Y-101567371D02*
X63603057Y-101567371D01*
X63424485Y-100567371D02*
X63424485Y-100924514D01*
X63781628Y-100960228D01*
X63745914Y-100924514D01*
X63710200Y-100853085D01*
X63710200Y-100674514D01*
X63745914Y-100603085D01*
X63781628Y-100567371D01*
X63853057Y-100531657D01*
X64031628Y-100531657D01*
X64103057Y-100567371D01*
X64138771Y-100603085D01*
X64174485Y-100674514D01*
X64174485Y-100853085D01*
X64138771Y-100924514D01*
X64103057Y-100960228D01*
X63424485Y-100317371D02*
X64174485Y-100067371D01*
X63424485Y-99817371D01*
X63888771Y-98919828D02*
X63888771Y-98348400D01*
X64174485Y-98634114D02*
X63603057Y-98634114D01*
X64174485Y-97598400D02*
X64174485Y-98026971D01*
X64174485Y-97812685D02*
X63424485Y-97812685D01*
X63531628Y-97884114D01*
X63603057Y-97955542D01*
X63638771Y-98026971D01*
X63495914Y-97312685D02*
X63460200Y-97276971D01*
X63424485Y-97205542D01*
X63424485Y-97026971D01*
X63460200Y-96955542D01*
X63495914Y-96919828D01*
X63567342Y-96884114D01*
X63638771Y-96884114D01*
X63745914Y-96919828D01*
X64174485Y-97348400D01*
X64174485Y-96884114D01*
X63424485Y-96669828D02*
X64174485Y-96419828D01*
X63424485Y-96169828D01*
X63888771Y-92378885D02*
X63888771Y-91807457D01*
X64174485Y-92093171D02*
X63603057Y-92093171D01*
X63424485Y-91093171D02*
X63424485Y-91450314D01*
X63781628Y-91486028D01*
X63745914Y-91450314D01*
X63710200Y-91378885D01*
X63710200Y-91200314D01*
X63745914Y-91128885D01*
X63781628Y-91093171D01*
X63853057Y-91057457D01*
X64031628Y-91057457D01*
X64103057Y-91093171D01*
X64138771Y-91128885D01*
X64174485Y-91200314D01*
X64174485Y-91378885D01*
X64138771Y-91450314D01*
X64103057Y-91486028D01*
X63424485Y-90843171D02*
X64174485Y-90593171D01*
X63424485Y-90343171D01*
X63888771Y-89445628D02*
X63888771Y-88874200D01*
X64174485Y-89159914D02*
X63603057Y-89159914D01*
X64174485Y-88124200D02*
X64174485Y-88552771D01*
X64174485Y-88338485D02*
X63424485Y-88338485D01*
X63531628Y-88409914D01*
X63603057Y-88481342D01*
X63638771Y-88552771D01*
X63495914Y-87838485D02*
X63460200Y-87802771D01*
X63424485Y-87731342D01*
X63424485Y-87552771D01*
X63460200Y-87481342D01*
X63495914Y-87445628D01*
X63567342Y-87409914D01*
X63638771Y-87409914D01*
X63745914Y-87445628D01*
X64174485Y-87874200D01*
X64174485Y-87409914D01*
X63424485Y-87195628D02*
X64174485Y-86945628D01*
X63424485Y-86695628D01*
X63888771Y-82853885D02*
X63888771Y-82282457D01*
X64174485Y-82568171D02*
X63603057Y-82568171D01*
X63424485Y-81568171D02*
X63424485Y-81925314D01*
X63781628Y-81961028D01*
X63745914Y-81925314D01*
X63710200Y-81853885D01*
X63710200Y-81675314D01*
X63745914Y-81603885D01*
X63781628Y-81568171D01*
X63853057Y-81532457D01*
X64031628Y-81532457D01*
X64103057Y-81568171D01*
X64138771Y-81603885D01*
X64174485Y-81675314D01*
X64174485Y-81853885D01*
X64138771Y-81925314D01*
X64103057Y-81961028D01*
X63424485Y-81318171D02*
X64174485Y-81068171D01*
X63424485Y-80818171D01*
X63888771Y-79934428D02*
X63888771Y-79363000D01*
X64174485Y-79648714D02*
X63603057Y-79648714D01*
X64174485Y-78613000D02*
X64174485Y-79041571D01*
X64174485Y-78827285D02*
X63424485Y-78827285D01*
X63531628Y-78898714D01*
X63603057Y-78970142D01*
X63638771Y-79041571D01*
X63495914Y-78327285D02*
X63460200Y-78291571D01*
X63424485Y-78220142D01*
X63424485Y-78041571D01*
X63460200Y-77970142D01*
X63495914Y-77934428D01*
X63567342Y-77898714D01*
X63638771Y-77898714D01*
X63745914Y-77934428D01*
X64174485Y-78363000D01*
X64174485Y-77898714D01*
X63424485Y-77684428D02*
X64174485Y-77434428D01*
X63424485Y-77184428D01*
X63888771Y-73365885D02*
X63888771Y-72794457D01*
X64174485Y-73080171D02*
X63603057Y-73080171D01*
X63424485Y-72080171D02*
X63424485Y-72437314D01*
X63781628Y-72473028D01*
X63745914Y-72437314D01*
X63710200Y-72365885D01*
X63710200Y-72187314D01*
X63745914Y-72115885D01*
X63781628Y-72080171D01*
X63853057Y-72044457D01*
X64031628Y-72044457D01*
X64103057Y-72080171D01*
X64138771Y-72115885D01*
X64174485Y-72187314D01*
X64174485Y-72365885D01*
X64138771Y-72437314D01*
X64103057Y-72473028D01*
X63424485Y-71830171D02*
X64174485Y-71580171D01*
X63424485Y-71330171D01*
X63888771Y-70446428D02*
X63888771Y-69875000D01*
X64174485Y-70160714D02*
X63603057Y-70160714D01*
X64174485Y-69125000D02*
X64174485Y-69553571D01*
X64174485Y-69339285D02*
X63424485Y-69339285D01*
X63531628Y-69410714D01*
X63603057Y-69482142D01*
X63638771Y-69553571D01*
X63495914Y-68839285D02*
X63460200Y-68803571D01*
X63424485Y-68732142D01*
X63424485Y-68553571D01*
X63460200Y-68482142D01*
X63495914Y-68446428D01*
X63567342Y-68410714D01*
X63638771Y-68410714D01*
X63745914Y-68446428D01*
X64174485Y-68875000D01*
X64174485Y-68410714D01*
X63424485Y-68196428D02*
X64174485Y-67946428D01*
X63424485Y-67696428D01*
X63888771Y-63880085D02*
X63888771Y-63308657D01*
X64174485Y-63594371D02*
X63603057Y-63594371D01*
X63424485Y-62594371D02*
X63424485Y-62951514D01*
X63781628Y-62987228D01*
X63745914Y-62951514D01*
X63710200Y-62880085D01*
X63710200Y-62701514D01*
X63745914Y-62630085D01*
X63781628Y-62594371D01*
X63853057Y-62558657D01*
X64031628Y-62558657D01*
X64103057Y-62594371D01*
X64138771Y-62630085D01*
X64174485Y-62701514D01*
X64174485Y-62880085D01*
X64138771Y-62951514D01*
X64103057Y-62987228D01*
X63424485Y-62344371D02*
X64174485Y-62094371D01*
X63424485Y-61844371D01*
X63888771Y-60946828D02*
X63888771Y-60375400D01*
X64174485Y-60661114D02*
X63603057Y-60661114D01*
X64174485Y-59625400D02*
X64174485Y-60053971D01*
X64174485Y-59839685D02*
X63424485Y-59839685D01*
X63531628Y-59911114D01*
X63603057Y-59982542D01*
X63638771Y-60053971D01*
X63495914Y-59339685D02*
X63460200Y-59303971D01*
X63424485Y-59232542D01*
X63424485Y-59053971D01*
X63460200Y-58982542D01*
X63495914Y-58946828D01*
X63567342Y-58911114D01*
X63638771Y-58911114D01*
X63745914Y-58946828D01*
X64174485Y-59375400D01*
X64174485Y-58911114D01*
X63424485Y-58696828D02*
X64174485Y-58446828D01*
X63424485Y-58196828D01*
X60894980Y-112563304D02*
X60894980Y-113039495D01*
X61371171Y-113087114D01*
X61323552Y-113039495D01*
X61275933Y-112944257D01*
X61275933Y-112706161D01*
X61323552Y-112610923D01*
X61371171Y-112563304D01*
X61466409Y-112515685D01*
X61704504Y-112515685D01*
X61799742Y-112563304D01*
X61847361Y-112610923D01*
X61894980Y-112706161D01*
X61894980Y-112944257D01*
X61847361Y-113039495D01*
X61799742Y-113087114D01*
X61202914Y-103289123D02*
X61869580Y-103289123D01*
X60821961Y-103527219D02*
X61536247Y-103765314D01*
X61536247Y-103146266D01*
X60894980Y-94287933D02*
X60894980Y-93668885D01*
X61275933Y-94002219D01*
X61275933Y-93859361D01*
X61323552Y-93764123D01*
X61371171Y-93716504D01*
X61466409Y-93668885D01*
X61704504Y-93668885D01*
X61799742Y-93716504D01*
X61847361Y-93764123D01*
X61894980Y-93859361D01*
X61894980Y-94145076D01*
X61847361Y-94240314D01*
X61799742Y-94287933D01*
X60964819Y-84562914D02*
X60917200Y-84515295D01*
X60869580Y-84420057D01*
X60869580Y-84181961D01*
X60917200Y-84086723D01*
X60964819Y-84039104D01*
X61060057Y-83991485D01*
X61155295Y-83991485D01*
X61298152Y-84039104D01*
X61869580Y-84610533D01*
X61869580Y-83991485D01*
X61894980Y-74491885D02*
X61894980Y-75063314D01*
X61894980Y-74777600D02*
X60894980Y-74777600D01*
X61037838Y-74872838D01*
X61133076Y-74968076D01*
X61180695Y-75063314D01*
X60945780Y-65224019D02*
X60945780Y-65128780D01*
X60993400Y-65033542D01*
X61041019Y-64985923D01*
X61136257Y-64938304D01*
X61326733Y-64890685D01*
X61564828Y-64890685D01*
X61755304Y-64938304D01*
X61850542Y-64985923D01*
X61898161Y-65033542D01*
X61945780Y-65128780D01*
X61945780Y-65224019D01*
X61898161Y-65319257D01*
X61850542Y-65366876D01*
X61755304Y-65414495D01*
X61564828Y-65462114D01*
X61326733Y-65462114D01*
X61136257Y-65414495D01*
X61041019Y-65366876D01*
X60993400Y-65319257D01*
X60945780Y-65224019D01*
X120762780Y-95533019D02*
X120762780Y-95437780D01*
X120810400Y-95342542D01*
X120858019Y-95294923D01*
X120953257Y-95247304D01*
X121143733Y-95199685D01*
X121381828Y-95199685D01*
X121572304Y-95247304D01*
X121667542Y-95294923D01*
X121715161Y-95342542D01*
X121762780Y-95437780D01*
X121762780Y-95533019D01*
X121715161Y-95628257D01*
X121667542Y-95675876D01*
X121572304Y-95723495D01*
X121381828Y-95771114D01*
X121143733Y-95771114D01*
X120953257Y-95723495D01*
X120858019Y-95675876D01*
X120810400Y-95628257D01*
X120762780Y-95533019D01*
X78605142Y-71902580D02*
X78271809Y-71426390D01*
X78033714Y-71902580D02*
X78033714Y-70902580D01*
X78414666Y-70902580D01*
X78509904Y-70950200D01*
X78557523Y-70997819D01*
X78605142Y-71093057D01*
X78605142Y-71235914D01*
X78557523Y-71331152D01*
X78509904Y-71378771D01*
X78414666Y-71426390D01*
X78033714Y-71426390D01*
X79557523Y-71902580D02*
X78986095Y-71902580D01*
X79271809Y-71902580D02*
X79271809Y-70902580D01*
X79176571Y-71045438D01*
X79081333Y-71140676D01*
X78986095Y-71188295D01*
X80033714Y-71902580D02*
X80224190Y-71902580D01*
X80319428Y-71854961D01*
X80367047Y-71807342D01*
X80462285Y-71664485D01*
X80509904Y-71474009D01*
X80509904Y-71093057D01*
X80462285Y-70997819D01*
X80414666Y-70950200D01*
X80319428Y-70902580D01*
X80128952Y-70902580D01*
X80033714Y-70950200D01*
X79986095Y-70997819D01*
X79938476Y-71093057D01*
X79938476Y-71331152D01*
X79986095Y-71426390D01*
X80033714Y-71474009D01*
X80128952Y-71521628D01*
X80319428Y-71521628D01*
X80414666Y-71474009D01*
X80462285Y-71426390D01*
X80509904Y-71331152D01*
X82830942Y-72753457D02*
X82878561Y-72801076D01*
X82926180Y-72943933D01*
X82926180Y-73039171D01*
X82878561Y-73182028D01*
X82783323Y-73277266D01*
X82688085Y-73324885D01*
X82497609Y-73372504D01*
X82354752Y-73372504D01*
X82164276Y-73324885D01*
X82069038Y-73277266D01*
X81973800Y-73182028D01*
X81926180Y-73039171D01*
X81926180Y-72943933D01*
X81973800Y-72801076D01*
X82021419Y-72753457D01*
X82021419Y-72372504D02*
X81973800Y-72324885D01*
X81926180Y-72229647D01*
X81926180Y-71991552D01*
X81973800Y-71896314D01*
X82021419Y-71848695D01*
X82116657Y-71801076D01*
X82211895Y-71801076D01*
X82354752Y-71848695D01*
X82926180Y-72420123D01*
X82926180Y-71801076D01*
X82021419Y-71420123D02*
X81973800Y-71372504D01*
X81926180Y-71277266D01*
X81926180Y-71039171D01*
X81973800Y-70943933D01*
X82021419Y-70896314D01*
X82116657Y-70848695D01*
X82211895Y-70848695D01*
X82354752Y-70896314D01*
X82926180Y-71467742D01*
X82926180Y-70848695D01*
X83332580Y-70029295D02*
X82332580Y-70029295D01*
X82332580Y-69791200D01*
X82380200Y-69648342D01*
X82475438Y-69553104D01*
X82570676Y-69505485D01*
X82761152Y-69457866D01*
X82904009Y-69457866D01*
X83094485Y-69505485D01*
X83189723Y-69553104D01*
X83284961Y-69648342D01*
X83332580Y-69791200D01*
X83332580Y-70029295D01*
X82332580Y-68553104D02*
X82332580Y-69029295D01*
X82808771Y-69076914D01*
X82761152Y-69029295D01*
X82713533Y-68934057D01*
X82713533Y-68695961D01*
X82761152Y-68600723D01*
X82808771Y-68553104D01*
X82904009Y-68505485D01*
X83142104Y-68505485D01*
X83237342Y-68553104D01*
X83284961Y-68600723D01*
X83332580Y-68695961D01*
X83332580Y-68934057D01*
X83284961Y-69029295D01*
X83237342Y-69076914D01*
X90397142Y-71272857D02*
X90444761Y-71320476D01*
X90492380Y-71463333D01*
X90492380Y-71558571D01*
X90444761Y-71701428D01*
X90349523Y-71796666D01*
X90254285Y-71844285D01*
X90063809Y-71891904D01*
X89920952Y-71891904D01*
X89730476Y-71844285D01*
X89635238Y-71796666D01*
X89540000Y-71701428D01*
X89492380Y-71558571D01*
X89492380Y-71463333D01*
X89540000Y-71320476D01*
X89587619Y-71272857D01*
X89587619Y-70891904D02*
X89540000Y-70844285D01*
X89492380Y-70749047D01*
X89492380Y-70510952D01*
X89540000Y-70415714D01*
X89587619Y-70368095D01*
X89682857Y-70320476D01*
X89778095Y-70320476D01*
X89920952Y-70368095D01*
X90492380Y-70939523D01*
X90492380Y-70320476D01*
X89492380Y-69701428D02*
X89492380Y-69606190D01*
X89540000Y-69510952D01*
X89587619Y-69463333D01*
X89682857Y-69415714D01*
X89873333Y-69368095D01*
X90111428Y-69368095D01*
X90301904Y-69415714D01*
X90397142Y-69463333D01*
X90444761Y-69510952D01*
X90492380Y-69606190D01*
X90492380Y-69701428D01*
X90444761Y-69796666D01*
X90397142Y-69844285D01*
X90301904Y-69891904D01*
X90111428Y-69939523D01*
X89873333Y-69939523D01*
X89682857Y-69891904D01*
X89587619Y-69844285D01*
X89540000Y-69796666D01*
X89492380Y-69701428D01*
X96657142Y-75603542D02*
X96609523Y-75651161D01*
X96466666Y-75698780D01*
X96371428Y-75698780D01*
X96228571Y-75651161D01*
X96133333Y-75555923D01*
X96085714Y-75460685D01*
X96038095Y-75270209D01*
X96038095Y-75127352D01*
X96085714Y-74936876D01*
X96133333Y-74841638D01*
X96228571Y-74746400D01*
X96371428Y-74698780D01*
X96466666Y-74698780D01*
X96609523Y-74746400D01*
X96657142Y-74794019D01*
X97609523Y-75698780D02*
X97038095Y-75698780D01*
X97323809Y-75698780D02*
X97323809Y-74698780D01*
X97228571Y-74841638D01*
X97133333Y-74936876D01*
X97038095Y-74984495D01*
X98085714Y-75698780D02*
X98276190Y-75698780D01*
X98371428Y-75651161D01*
X98419047Y-75603542D01*
X98514285Y-75460685D01*
X98561904Y-75270209D01*
X98561904Y-74889257D01*
X98514285Y-74794019D01*
X98466666Y-74746400D01*
X98371428Y-74698780D01*
X98180952Y-74698780D01*
X98085714Y-74746400D01*
X98038095Y-74794019D01*
X97990476Y-74889257D01*
X97990476Y-75127352D01*
X98038095Y-75222590D01*
X98085714Y-75270209D01*
X98180952Y-75317828D01*
X98371428Y-75317828D01*
X98466666Y-75270209D01*
X98514285Y-75222590D01*
X98561904Y-75127352D01*
X93184742Y-88393542D02*
X93137123Y-88441161D01*
X92994266Y-88488780D01*
X92899028Y-88488780D01*
X92756171Y-88441161D01*
X92660933Y-88345923D01*
X92613314Y-88250685D01*
X92565695Y-88060209D01*
X92565695Y-87917352D01*
X92613314Y-87726876D01*
X92660933Y-87631638D01*
X92756171Y-87536400D01*
X92899028Y-87488780D01*
X92994266Y-87488780D01*
X93137123Y-87536400D01*
X93184742Y-87584019D01*
X94137123Y-88488780D02*
X93565695Y-88488780D01*
X93851409Y-88488780D02*
X93851409Y-87488780D01*
X93756171Y-87631638D01*
X93660933Y-87726876D01*
X93565695Y-87774495D01*
X94708552Y-87917352D02*
X94613314Y-87869733D01*
X94565695Y-87822114D01*
X94518076Y-87726876D01*
X94518076Y-87679257D01*
X94565695Y-87584019D01*
X94613314Y-87536400D01*
X94708552Y-87488780D01*
X94899028Y-87488780D01*
X94994266Y-87536400D01*
X95041885Y-87584019D01*
X95089504Y-87679257D01*
X95089504Y-87726876D01*
X95041885Y-87822114D01*
X94994266Y-87869733D01*
X94899028Y-87917352D01*
X94708552Y-87917352D01*
X94613314Y-87964971D01*
X94565695Y-88012590D01*
X94518076Y-88107828D01*
X94518076Y-88298304D01*
X94565695Y-88393542D01*
X94613314Y-88441161D01*
X94708552Y-88488780D01*
X94899028Y-88488780D01*
X94994266Y-88441161D01*
X95041885Y-88393542D01*
X95089504Y-88298304D01*
X95089504Y-88107828D01*
X95041885Y-88012590D01*
X94994266Y-87964971D01*
X94899028Y-87917352D01*
X76801742Y-65431942D02*
X76754123Y-65479561D01*
X76611266Y-65527180D01*
X76516028Y-65527180D01*
X76373171Y-65479561D01*
X76277933Y-65384323D01*
X76230314Y-65289085D01*
X76182695Y-65098609D01*
X76182695Y-64955752D01*
X76230314Y-64765276D01*
X76277933Y-64670038D01*
X76373171Y-64574800D01*
X76516028Y-64527180D01*
X76611266Y-64527180D01*
X76754123Y-64574800D01*
X76801742Y-64622419D01*
X77754123Y-65527180D02*
X77182695Y-65527180D01*
X77468409Y-65527180D02*
X77468409Y-64527180D01*
X77373171Y-64670038D01*
X77277933Y-64765276D01*
X77182695Y-64812895D01*
X78658885Y-64527180D02*
X78182695Y-64527180D01*
X78135076Y-65003371D01*
X78182695Y-64955752D01*
X78277933Y-64908133D01*
X78516028Y-64908133D01*
X78611266Y-64955752D01*
X78658885Y-65003371D01*
X78706504Y-65098609D01*
X78706504Y-65336704D01*
X78658885Y-65431942D01*
X78611266Y-65479561D01*
X78516028Y-65527180D01*
X78277933Y-65527180D01*
X78182695Y-65479561D01*
X78135076Y-65431942D01*
X61797142Y-54850357D02*
X61844761Y-54897976D01*
X61892380Y-55040833D01*
X61892380Y-55136071D01*
X61844761Y-55278928D01*
X61749523Y-55374166D01*
X61654285Y-55421785D01*
X61463809Y-55469404D01*
X61320952Y-55469404D01*
X61130476Y-55421785D01*
X61035238Y-55374166D01*
X60940000Y-55278928D01*
X60892380Y-55136071D01*
X60892380Y-55040833D01*
X60940000Y-54897976D01*
X60987619Y-54850357D01*
X61892380Y-53897976D02*
X61892380Y-54469404D01*
X61892380Y-54183690D02*
X60892380Y-54183690D01*
X61035238Y-54278928D01*
X61130476Y-54374166D01*
X61178095Y-54469404D01*
X61225714Y-53040833D02*
X61892380Y-53040833D01*
X60844761Y-53278928D02*
X61559047Y-53517023D01*
X61559047Y-52897976D01*
X86158342Y-69832457D02*
X86205961Y-69880076D01*
X86253580Y-70022933D01*
X86253580Y-70118171D01*
X86205961Y-70261028D01*
X86110723Y-70356266D01*
X86015485Y-70403885D01*
X85825009Y-70451504D01*
X85682152Y-70451504D01*
X85491676Y-70403885D01*
X85396438Y-70356266D01*
X85301200Y-70261028D01*
X85253580Y-70118171D01*
X85253580Y-70022933D01*
X85301200Y-69880076D01*
X85348819Y-69832457D01*
X86253580Y-68880076D02*
X86253580Y-69451504D01*
X86253580Y-69165790D02*
X85253580Y-69165790D01*
X85396438Y-69261028D01*
X85491676Y-69356266D01*
X85539295Y-69451504D01*
X85253580Y-68022933D02*
X85253580Y-68213409D01*
X85301200Y-68308647D01*
X85348819Y-68356266D01*
X85491676Y-68451504D01*
X85682152Y-68499123D01*
X86063104Y-68499123D01*
X86158342Y-68451504D01*
X86205961Y-68403885D01*
X86253580Y-68308647D01*
X86253580Y-68118171D01*
X86205961Y-68022933D01*
X86158342Y-67975314D01*
X86063104Y-67927695D01*
X85825009Y-67927695D01*
X85729771Y-67975314D01*
X85682152Y-68022933D01*
X85634533Y-68118171D01*
X85634533Y-68308647D01*
X85682152Y-68403885D01*
X85729771Y-68451504D01*
X85825009Y-68499123D01*
X97787142Y-85490357D02*
X97834761Y-85537976D01*
X97882380Y-85680833D01*
X97882380Y-85776071D01*
X97834761Y-85918928D01*
X97739523Y-86014166D01*
X97644285Y-86061785D01*
X97453809Y-86109404D01*
X97310952Y-86109404D01*
X97120476Y-86061785D01*
X97025238Y-86014166D01*
X96930000Y-85918928D01*
X96882380Y-85776071D01*
X96882380Y-85680833D01*
X96930000Y-85537976D01*
X96977619Y-85490357D01*
X96977619Y-85109404D02*
X96930000Y-85061785D01*
X96882380Y-84966547D01*
X96882380Y-84728452D01*
X96930000Y-84633214D01*
X96977619Y-84585595D01*
X97072857Y-84537976D01*
X97168095Y-84537976D01*
X97310952Y-84585595D01*
X97882380Y-85157023D01*
X97882380Y-84537976D01*
X97882380Y-83585595D02*
X97882380Y-84157023D01*
X97882380Y-83871309D02*
X96882380Y-83871309D01*
X97025238Y-83966547D01*
X97120476Y-84061785D01*
X97168095Y-84157023D01*
X75412695Y-71308980D02*
X75412695Y-72118504D01*
X75460314Y-72213742D01*
X75507933Y-72261361D01*
X75603171Y-72308980D01*
X75793647Y-72308980D01*
X75888885Y-72261361D01*
X75936504Y-72213742D01*
X75984123Y-72118504D01*
X75984123Y-71308980D01*
X76365076Y-71308980D02*
X76984123Y-71308980D01*
X76650790Y-71689933D01*
X76793647Y-71689933D01*
X76888885Y-71737552D01*
X76936504Y-71785171D01*
X76984123Y-71880409D01*
X76984123Y-72118504D01*
X76936504Y-72213742D01*
X76888885Y-72261361D01*
X76793647Y-72308980D01*
X76507933Y-72308980D01*
X76412695Y-72261361D01*
X76365076Y-72213742D01*
X109818514Y-95294923D02*
X110485180Y-95294923D01*
X109437561Y-95533019D02*
X110151847Y-95771114D01*
X110151847Y-95152066D01*
X136612333Y-75280780D02*
X136136142Y-75280780D01*
X136136142Y-74280780D01*
X137469476Y-75280780D02*
X136898047Y-75280780D01*
X137183761Y-75280780D02*
X137183761Y-74280780D01*
X137088523Y-74423638D01*
X136993285Y-74518876D01*
X136898047Y-74566495D01*
X112304580Y-95818733D02*
X112304580Y-95199685D01*
X112685533Y-95533019D01*
X112685533Y-95390161D01*
X112733152Y-95294923D01*
X112780771Y-95247304D01*
X112876009Y-95199685D01*
X113114104Y-95199685D01*
X113209342Y-95247304D01*
X113256961Y-95294923D01*
X113304580Y-95390161D01*
X113304580Y-95675876D01*
X113256961Y-95771114D01*
X113209342Y-95818733D01*
X118943380Y-95199685D02*
X118943380Y-95771114D01*
X118943380Y-95485400D02*
X117943380Y-95485400D01*
X118086238Y-95580638D01*
X118181476Y-95675876D01*
X118229095Y-95771114D01*
X115219219Y-95771114D02*
X115171600Y-95723495D01*
X115123980Y-95628257D01*
X115123980Y-95390161D01*
X115171600Y-95294923D01*
X115219219Y-95247304D01*
X115314457Y-95199685D01*
X115409695Y-95199685D01*
X115552552Y-95247304D01*
X116123980Y-95818733D01*
X116123980Y-95199685D01*
X89116495Y-90089600D02*
X89021257Y-90041980D01*
X88878400Y-90041980D01*
X88735542Y-90089600D01*
X88640304Y-90184838D01*
X88592685Y-90280076D01*
X88545066Y-90470552D01*
X88545066Y-90613409D01*
X88592685Y-90803885D01*
X88640304Y-90899123D01*
X88735542Y-90994361D01*
X88878400Y-91041980D01*
X88973638Y-91041980D01*
X89116495Y-90994361D01*
X89164114Y-90946742D01*
X89164114Y-90613409D01*
X88973638Y-90613409D01*
X89592685Y-91041980D02*
X89592685Y-90041980D01*
X90164114Y-91041980D01*
X90164114Y-90041980D01*
X90640304Y-91041980D02*
X90640304Y-90041980D01*
X90878400Y-90041980D01*
X91021257Y-90089600D01*
X91116495Y-90184838D01*
X91164114Y-90280076D01*
X91211733Y-90470552D01*
X91211733Y-90613409D01*
X91164114Y-90803885D01*
X91116495Y-90899123D01*
X91021257Y-90994361D01*
X90878400Y-91041980D01*
X90640304Y-91041980D01*
X127265180Y-77581533D02*
X127265180Y-76914866D01*
X128265180Y-77343438D01*
X127265180Y-95920333D02*
X127265180Y-95301285D01*
X127646133Y-95634619D01*
X127646133Y-95491761D01*
X127693752Y-95396523D01*
X127741371Y-95348904D01*
X127836609Y-95301285D01*
X128074704Y-95301285D01*
X128169942Y-95348904D01*
X128217561Y-95396523D01*
X128265180Y-95491761D01*
X128265180Y-95777476D01*
X128217561Y-95872714D01*
X128169942Y-95920333D01*
X88592685Y-93505828D02*
X89354590Y-93505828D01*
X88973638Y-93886780D02*
X88973638Y-93124876D01*
X90306971Y-92886780D02*
X89830780Y-92886780D01*
X89783161Y-93362971D01*
X89830780Y-93315352D01*
X89926019Y-93267733D01*
X90164114Y-93267733D01*
X90259352Y-93315352D01*
X90306971Y-93362971D01*
X90354590Y-93458209D01*
X90354590Y-93696304D01*
X90306971Y-93791542D01*
X90259352Y-93839161D01*
X90164114Y-93886780D01*
X89926019Y-93886780D01*
X89830780Y-93839161D01*
X89783161Y-93791542D01*
X90640304Y-92886780D02*
X90973638Y-93886780D01*
X91306971Y-92886780D01*
X106716580Y-85366704D02*
X106716580Y-85842895D01*
X107192771Y-85890514D01*
X107145152Y-85842895D01*
X107097533Y-85747657D01*
X107097533Y-85509561D01*
X107145152Y-85414323D01*
X107192771Y-85366704D01*
X107288009Y-85319085D01*
X107526104Y-85319085D01*
X107621342Y-85366704D01*
X107668961Y-85414323D01*
X107716580Y-85509561D01*
X107716580Y-85747657D01*
X107668961Y-85842895D01*
X107621342Y-85890514D01*
X115270019Y-85890514D02*
X115222400Y-85842895D01*
X115174780Y-85747657D01*
X115174780Y-85509561D01*
X115222400Y-85414323D01*
X115270019Y-85366704D01*
X115365257Y-85319085D01*
X115460495Y-85319085D01*
X115603352Y-85366704D01*
X116174780Y-85938133D01*
X116174780Y-85319085D01*
X130059180Y-77057723D02*
X130059180Y-77248200D01*
X130106800Y-77343438D01*
X130154419Y-77391057D01*
X130297276Y-77486295D01*
X130487752Y-77533914D01*
X130868704Y-77533914D01*
X130963942Y-77486295D01*
X131011561Y-77438676D01*
X131059180Y-77343438D01*
X131059180Y-77152961D01*
X131011561Y-77057723D01*
X130963942Y-77010104D01*
X130868704Y-76962485D01*
X130630609Y-76962485D01*
X130535371Y-77010104D01*
X130487752Y-77057723D01*
X130440133Y-77152961D01*
X130440133Y-77343438D01*
X130487752Y-77438676D01*
X130535371Y-77486295D01*
X130630609Y-77533914D01*
X130154419Y-95872714D02*
X130106800Y-95825095D01*
X130059180Y-95729857D01*
X130059180Y-95491761D01*
X130106800Y-95396523D01*
X130154419Y-95348904D01*
X130249657Y-95301285D01*
X130344895Y-95301285D01*
X130487752Y-95348904D01*
X131059180Y-95920333D01*
X131059180Y-95301285D01*
X87759352Y-96350628D02*
X88521257Y-96350628D01*
X88140304Y-96731580D02*
X88140304Y-95969676D01*
X88854590Y-95731580D02*
X89187923Y-96731580D01*
X89521257Y-95731580D01*
X90187923Y-96207771D02*
X90330780Y-96255390D01*
X90378400Y-96303009D01*
X90426019Y-96398247D01*
X90426019Y-96541104D01*
X90378400Y-96636342D01*
X90330780Y-96683961D01*
X90235542Y-96731580D01*
X89854590Y-96731580D01*
X89854590Y-95731580D01*
X90187923Y-95731580D01*
X90283161Y-95779200D01*
X90330780Y-95826819D01*
X90378400Y-95922057D01*
X90378400Y-96017295D01*
X90330780Y-96112533D01*
X90283161Y-96160152D01*
X90187923Y-96207771D01*
X89854590Y-96207771D01*
X90806971Y-96445866D02*
X91283161Y-96445866D01*
X90711733Y-96731580D02*
X91045066Y-95731580D01*
X91378400Y-96731580D01*
X91568876Y-95731580D02*
X92140304Y-95731580D01*
X91854590Y-96731580D02*
X91854590Y-95731580D01*
X109869314Y-85414323D02*
X110535980Y-85414323D01*
X109488361Y-85652419D02*
X110202647Y-85890514D01*
X110202647Y-85271466D01*
X118994180Y-85319085D02*
X118994180Y-85890514D01*
X118994180Y-85604800D02*
X117994180Y-85604800D01*
X118137038Y-85700038D01*
X118232276Y-85795276D01*
X118279895Y-85890514D01*
X132853180Y-77010104D02*
X132853180Y-77486295D01*
X133329371Y-77533914D01*
X133281752Y-77486295D01*
X133234133Y-77391057D01*
X133234133Y-77152961D01*
X133281752Y-77057723D01*
X133329371Y-77010104D01*
X133424609Y-76962485D01*
X133662704Y-76962485D01*
X133757942Y-77010104D01*
X133805561Y-77057723D01*
X133853180Y-77152961D01*
X133853180Y-77391057D01*
X133805561Y-77486295D01*
X133757942Y-77533914D01*
X133853180Y-95301285D02*
X133853180Y-95872714D01*
X133853180Y-95587000D02*
X132853180Y-95587000D01*
X132996038Y-95682238D01*
X133091276Y-95777476D01*
X133138895Y-95872714D01*
X112355380Y-85938133D02*
X112355380Y-85319085D01*
X112736333Y-85652419D01*
X112736333Y-85509561D01*
X112783952Y-85414323D01*
X112831571Y-85366704D01*
X112926809Y-85319085D01*
X113164904Y-85319085D01*
X113260142Y-85366704D01*
X113307761Y-85414323D01*
X113355380Y-85509561D01*
X113355380Y-85795276D01*
X113307761Y-85890514D01*
X113260142Y-85938133D01*
X120813580Y-85652419D02*
X120813580Y-85557180D01*
X120861200Y-85461942D01*
X120908819Y-85414323D01*
X121004057Y-85366704D01*
X121194533Y-85319085D01*
X121432628Y-85319085D01*
X121623104Y-85366704D01*
X121718342Y-85414323D01*
X121765961Y-85461942D01*
X121813580Y-85557180D01*
X121813580Y-85652419D01*
X121765961Y-85747657D01*
X121718342Y-85795276D01*
X121623104Y-85842895D01*
X121432628Y-85890514D01*
X121194533Y-85890514D01*
X121004057Y-85842895D01*
X120908819Y-85795276D01*
X120861200Y-85747657D01*
X120813580Y-85652419D01*
X135980514Y-77057723D02*
X136647180Y-77057723D01*
X135599561Y-77295819D02*
X136313847Y-77533914D01*
X136313847Y-76914866D01*
X135647180Y-95634619D02*
X135647180Y-95539380D01*
X135694800Y-95444142D01*
X135742419Y-95396523D01*
X135837657Y-95348904D01*
X136028133Y-95301285D01*
X136266228Y-95301285D01*
X136456704Y-95348904D01*
X136551942Y-95396523D01*
X136599561Y-95444142D01*
X136647180Y-95539380D01*
X136647180Y-95634619D01*
X136599561Y-95729857D01*
X136551942Y-95777476D01*
X136456704Y-95825095D01*
X136266228Y-95872714D01*
X136028133Y-95872714D01*
X135837657Y-95825095D01*
X135742419Y-95777476D01*
X135694800Y-95729857D01*
X135647180Y-95634619D01*
X79076514Y-87802980D02*
X78505085Y-87802980D01*
X78790800Y-87802980D02*
X78790800Y-86802980D01*
X78695561Y-86945838D01*
X78600323Y-87041076D01*
X78505085Y-87088695D01*
X72850380Y-86802980D02*
X72945619Y-86802980D01*
X73040857Y-86850600D01*
X73088476Y-86898219D01*
X73136095Y-86993457D01*
X73183714Y-87183933D01*
X73183714Y-87422028D01*
X73136095Y-87612504D01*
X73088476Y-87707742D01*
X73040857Y-87755361D01*
X72945619Y-87802980D01*
X72850380Y-87802980D01*
X72755142Y-87755361D01*
X72707523Y-87707742D01*
X72659904Y-87612504D01*
X72612285Y-87422028D01*
X72612285Y-87183933D01*
X72659904Y-86993457D01*
X72707523Y-86898219D01*
X72755142Y-86850600D01*
X72850380Y-86802980D01*
X132542114Y-62885580D02*
X132542114Y-61885580D01*
X132780209Y-61885580D01*
X132923066Y-61933200D01*
X133018304Y-62028438D01*
X133065923Y-62123676D01*
X133113542Y-62314152D01*
X133113542Y-62457009D01*
X133065923Y-62647485D01*
X133018304Y-62742723D01*
X132923066Y-62837961D01*
X132780209Y-62885580D01*
X132542114Y-62885580D01*
X134065923Y-62885580D02*
X133494495Y-62885580D01*
X133780209Y-62885580D02*
X133780209Y-61885580D01*
X133684971Y-62028438D01*
X133589733Y-62123676D01*
X133494495Y-62171295D01*
X134684971Y-61885580D02*
X134780209Y-61885580D01*
X134875447Y-61933200D01*
X134923066Y-61980819D01*
X134970685Y-62076057D01*
X135018304Y-62266533D01*
X135018304Y-62504628D01*
X134970685Y-62695104D01*
X134923066Y-62790342D01*
X134875447Y-62837961D01*
X134780209Y-62885580D01*
X134684971Y-62885580D01*
X134589733Y-62837961D01*
X134542114Y-62790342D01*
X134494495Y-62695104D01*
X134446876Y-62504628D01*
X134446876Y-62266533D01*
X134494495Y-62076057D01*
X134542114Y-61980819D01*
X134589733Y-61933200D01*
X134684971Y-61885580D01*
X119355142Y-74455257D02*
X119402761Y-74502876D01*
X119450380Y-74645733D01*
X119450380Y-74740971D01*
X119402761Y-74883828D01*
X119307523Y-74979066D01*
X119212285Y-75026685D01*
X119021809Y-75074304D01*
X118878952Y-75074304D01*
X118688476Y-75026685D01*
X118593238Y-74979066D01*
X118498000Y-74883828D01*
X118450380Y-74740971D01*
X118450380Y-74645733D01*
X118498000Y-74502876D01*
X118545619Y-74455257D01*
X118545619Y-74074304D02*
X118498000Y-74026685D01*
X118450380Y-73931447D01*
X118450380Y-73693352D01*
X118498000Y-73598114D01*
X118545619Y-73550495D01*
X118640857Y-73502876D01*
X118736095Y-73502876D01*
X118878952Y-73550495D01*
X119450380Y-74121923D01*
X119450380Y-73502876D01*
X118450380Y-72645733D02*
X118450380Y-72836209D01*
X118498000Y-72931447D01*
X118545619Y-72979066D01*
X118688476Y-73074304D01*
X118878952Y-73121923D01*
X119259904Y-73121923D01*
X119355142Y-73074304D01*
X119402761Y-73026685D01*
X119450380Y-72931447D01*
X119450380Y-72740971D01*
X119402761Y-72645733D01*
X119355142Y-72598114D01*
X119259904Y-72550495D01*
X119021809Y-72550495D01*
X118926571Y-72598114D01*
X118878952Y-72645733D01*
X118831333Y-72740971D01*
X118831333Y-72931447D01*
X118878952Y-73026685D01*
X118926571Y-73074304D01*
X119021809Y-73121923D01*
X110304342Y-78378942D02*
X110256723Y-78426561D01*
X110113866Y-78474180D01*
X110018628Y-78474180D01*
X109875771Y-78426561D01*
X109780533Y-78331323D01*
X109732914Y-78236085D01*
X109685295Y-78045609D01*
X109685295Y-77902752D01*
X109732914Y-77712276D01*
X109780533Y-77617038D01*
X109875771Y-77521800D01*
X110018628Y-77474180D01*
X110113866Y-77474180D01*
X110256723Y-77521800D01*
X110304342Y-77569419D01*
X110685295Y-77569419D02*
X110732914Y-77521800D01*
X110828152Y-77474180D01*
X111066247Y-77474180D01*
X111161485Y-77521800D01*
X111209104Y-77569419D01*
X111256723Y-77664657D01*
X111256723Y-77759895D01*
X111209104Y-77902752D01*
X110637676Y-78474180D01*
X111256723Y-78474180D01*
X112161485Y-77474180D02*
X111685295Y-77474180D01*
X111637676Y-77950371D01*
X111685295Y-77902752D01*
X111780533Y-77855133D01*
X112018628Y-77855133D01*
X112113866Y-77902752D01*
X112161485Y-77950371D01*
X112209104Y-78045609D01*
X112209104Y-78283704D01*
X112161485Y-78378942D01*
X112113866Y-78426561D01*
X112018628Y-78474180D01*
X111780533Y-78474180D01*
X111685295Y-78426561D01*
X111637676Y-78378942D01*
X114123742Y-67241657D02*
X114171361Y-67289276D01*
X114218980Y-67432133D01*
X114218980Y-67527371D01*
X114171361Y-67670228D01*
X114076123Y-67765466D01*
X113980885Y-67813085D01*
X113790409Y-67860704D01*
X113647552Y-67860704D01*
X113457076Y-67813085D01*
X113361838Y-67765466D01*
X113266600Y-67670228D01*
X113218980Y-67527371D01*
X113218980Y-67432133D01*
X113266600Y-67289276D01*
X113314219Y-67241657D01*
X113314219Y-66860704D02*
X113266600Y-66813085D01*
X113218980Y-66717847D01*
X113218980Y-66479752D01*
X113266600Y-66384514D01*
X113314219Y-66336895D01*
X113409457Y-66289276D01*
X113504695Y-66289276D01*
X113647552Y-66336895D01*
X114218980Y-66908323D01*
X114218980Y-66289276D01*
X113552314Y-65432133D02*
X114218980Y-65432133D01*
X113171361Y-65670228D02*
X113885647Y-65908323D01*
X113885647Y-65289276D01*
X122394742Y-73077342D02*
X122347123Y-73124961D01*
X122204266Y-73172580D01*
X122109028Y-73172580D01*
X121966171Y-73124961D01*
X121870933Y-73029723D01*
X121823314Y-72934485D01*
X121775695Y-72744009D01*
X121775695Y-72601152D01*
X121823314Y-72410676D01*
X121870933Y-72315438D01*
X121966171Y-72220200D01*
X122109028Y-72172580D01*
X122204266Y-72172580D01*
X122347123Y-72220200D01*
X122394742Y-72267819D01*
X122775695Y-72267819D02*
X122823314Y-72220200D01*
X122918552Y-72172580D01*
X123156647Y-72172580D01*
X123251885Y-72220200D01*
X123299504Y-72267819D01*
X123347123Y-72363057D01*
X123347123Y-72458295D01*
X123299504Y-72601152D01*
X122728076Y-73172580D01*
X123347123Y-73172580D01*
X123680457Y-72172580D02*
X124299504Y-72172580D01*
X123966171Y-72553533D01*
X124109028Y-72553533D01*
X124204266Y-72601152D01*
X124251885Y-72648771D01*
X124299504Y-72744009D01*
X124299504Y-72982104D01*
X124251885Y-73077342D01*
X124204266Y-73124961D01*
X124109028Y-73172580D01*
X123823314Y-73172580D01*
X123728076Y-73124961D01*
X123680457Y-73077342D01*
X73912361Y-55460733D02*
X73959980Y-55317876D01*
X73959980Y-55079780D01*
X73912361Y-54984542D01*
X73864742Y-54936923D01*
X73769504Y-54889304D01*
X73674266Y-54889304D01*
X73579028Y-54936923D01*
X73531409Y-54984542D01*
X73483790Y-55079780D01*
X73436171Y-55270257D01*
X73388552Y-55365495D01*
X73340933Y-55413114D01*
X73245695Y-55460733D01*
X73150457Y-55460733D01*
X73055219Y-55413114D01*
X73007600Y-55365495D01*
X72959980Y-55270257D01*
X72959980Y-55032161D01*
X73007600Y-54889304D01*
X72959980Y-54555971D02*
X73959980Y-54317876D01*
X73245695Y-54127400D01*
X73959980Y-53936923D01*
X72959980Y-53698828D01*
X73959980Y-52794066D02*
X73959980Y-53365495D01*
X73959980Y-53079780D02*
X72959980Y-53079780D01*
X73102838Y-53175019D01*
X73198076Y-53270257D01*
X73245695Y-53365495D01*
X93548657Y-66333257D02*
X93512942Y-66368971D01*
X93405800Y-66404685D01*
X93334371Y-66404685D01*
X93227228Y-66368971D01*
X93155800Y-66297542D01*
X93120085Y-66226114D01*
X93084371Y-66083257D01*
X93084371Y-65976114D01*
X93120085Y-65833257D01*
X93155800Y-65761828D01*
X93227228Y-65690400D01*
X93334371Y-65654685D01*
X93405800Y-65654685D01*
X93512942Y-65690400D01*
X93548657Y-65726114D01*
X94262942Y-66404685D02*
X93834371Y-66404685D01*
X94048657Y-66404685D02*
X94048657Y-65654685D01*
X93977228Y-65761828D01*
X93905800Y-65833257D01*
X93834371Y-65868971D01*
X94727228Y-65654685D02*
X94798657Y-65654685D01*
X94870085Y-65690400D01*
X94905800Y-65726114D01*
X94941514Y-65797542D01*
X94977228Y-65940400D01*
X94977228Y-66118971D01*
X94941514Y-66261828D01*
X94905800Y-66333257D01*
X94870085Y-66368971D01*
X94798657Y-66404685D01*
X94727228Y-66404685D01*
X94655800Y-66368971D01*
X94620085Y-66333257D01*
X94584371Y-66261828D01*
X94548657Y-66118971D01*
X94548657Y-65940400D01*
X94584371Y-65797542D01*
X94620085Y-65726114D01*
X94655800Y-65690400D01*
X94727228Y-65654685D01*
X95670857Y-67079761D02*
X95813714Y-67127380D01*
X96051809Y-67127380D01*
X96147047Y-67079761D01*
X96194666Y-67032142D01*
X96242285Y-66936904D01*
X96242285Y-66841666D01*
X96194666Y-66746428D01*
X96147047Y-66698809D01*
X96051809Y-66651190D01*
X95861333Y-66603571D01*
X95766095Y-66555952D01*
X95718476Y-66508333D01*
X95670857Y-66413095D01*
X95670857Y-66317857D01*
X95718476Y-66222619D01*
X95766095Y-66175000D01*
X95861333Y-66127380D01*
X96099428Y-66127380D01*
X96242285Y-66175000D01*
X96575619Y-66127380D02*
X96813714Y-67127380D01*
X97004190Y-66413095D01*
X97194666Y-67127380D01*
X97432761Y-66127380D01*
X97813714Y-67127380D02*
X97813714Y-66127380D01*
X98051809Y-66127380D01*
X98194666Y-66175000D01*
X98289904Y-66270238D01*
X98337523Y-66365476D01*
X98385142Y-66555952D01*
X98385142Y-66698809D01*
X98337523Y-66889285D01*
X98289904Y-66984523D01*
X98194666Y-67079761D01*
X98051809Y-67127380D01*
X97813714Y-67127380D01*
X103897180Y-60897828D02*
X104706704Y-60897828D01*
X104801942Y-60850209D01*
X104849561Y-60802590D01*
X104897180Y-60707352D01*
X104897180Y-60516876D01*
X104849561Y-60421638D01*
X104801942Y-60374019D01*
X104706704Y-60326400D01*
X103897180Y-60326400D01*
X104849561Y-59897828D02*
X104897180Y-59754971D01*
X104897180Y-59516876D01*
X104849561Y-59421638D01*
X104801942Y-59374019D01*
X104706704Y-59326400D01*
X104611466Y-59326400D01*
X104516228Y-59374019D01*
X104468609Y-59421638D01*
X104420990Y-59516876D01*
X104373371Y-59707352D01*
X104325752Y-59802590D01*
X104278133Y-59850209D01*
X104182895Y-59897828D01*
X104087657Y-59897828D01*
X103992419Y-59850209D01*
X103944800Y-59802590D01*
X103897180Y-59707352D01*
X103897180Y-59469257D01*
X103944800Y-59326400D01*
X104611466Y-58945447D02*
X104611466Y-58469257D01*
X104897180Y-59040685D02*
X103897180Y-58707352D01*
X104897180Y-58374019D01*
X104897180Y-57469257D02*
X104420990Y-57802590D01*
X104897180Y-58040685D02*
X103897180Y-58040685D01*
X103897180Y-57659733D01*
X103944800Y-57564495D01*
X103992419Y-57516876D01*
X104087657Y-57469257D01*
X104230514Y-57469257D01*
X104325752Y-57516876D01*
X104373371Y-57564495D01*
X104420990Y-57659733D01*
X104420990Y-58040685D01*
X103897180Y-57183542D02*
X103897180Y-56612114D01*
X104897180Y-56897828D02*
X103897180Y-56897828D01*
X108024657Y-50832942D02*
X108024657Y-51190085D01*
X107774657Y-50440085D02*
X108024657Y-50832942D01*
X108274657Y-50440085D01*
X108917514Y-51190085D02*
X108488942Y-51190085D01*
X108703228Y-51190085D02*
X108703228Y-50440085D01*
X108631800Y-50547228D01*
X108560371Y-50618657D01*
X108488942Y-50654371D01*
X98005971Y-53411885D02*
X98005971Y-54019028D01*
X98041685Y-54090457D01*
X98077400Y-54126171D01*
X98148828Y-54161885D01*
X98291685Y-54161885D01*
X98363114Y-54126171D01*
X98398828Y-54090457D01*
X98434542Y-54019028D01*
X98434542Y-53411885D01*
X98755971Y-53483314D02*
X98791685Y-53447600D01*
X98863114Y-53411885D01*
X99041685Y-53411885D01*
X99113114Y-53447600D01*
X99148828Y-53483314D01*
X99184542Y-53554742D01*
X99184542Y-53626171D01*
X99148828Y-53733314D01*
X98720257Y-54161885D01*
X99184542Y-54161885D01*
X78828971Y-63571885D02*
X78828971Y-64179028D01*
X78864685Y-64250457D01*
X78900400Y-64286171D01*
X78971828Y-64321885D01*
X79114685Y-64321885D01*
X79186114Y-64286171D01*
X79221828Y-64250457D01*
X79257542Y-64179028D01*
X79257542Y-63571885D01*
X80007542Y-64321885D02*
X79578971Y-64321885D01*
X79793257Y-64321885D02*
X79793257Y-63571885D01*
X79721828Y-63679028D01*
X79650400Y-63750457D01*
X79578971Y-63786171D01*
X86614457Y-59343485D02*
X86364457Y-58986342D01*
X86185885Y-59343485D02*
X86185885Y-58593485D01*
X86471600Y-58593485D01*
X86543028Y-58629200D01*
X86578742Y-58664914D01*
X86614457Y-58736342D01*
X86614457Y-58843485D01*
X86578742Y-58914914D01*
X86543028Y-58950628D01*
X86471600Y-58986342D01*
X86185885Y-58986342D01*
X87328742Y-59343485D02*
X86900171Y-59343485D01*
X87114457Y-59343485D02*
X87114457Y-58593485D01*
X87043028Y-58700628D01*
X86971600Y-58772057D01*
X86900171Y-58807771D01*
X87578742Y-58593485D02*
X88043028Y-58593485D01*
X87793028Y-58879200D01*
X87900171Y-58879200D01*
X87971600Y-58914914D01*
X88007314Y-58950628D01*
X88043028Y-59022057D01*
X88043028Y-59200628D01*
X88007314Y-59272057D01*
X87971600Y-59307771D01*
X87900171Y-59343485D01*
X87685885Y-59343485D01*
X87614457Y-59307771D01*
X87578742Y-59272057D01*
X100262885Y-53898342D02*
X99905742Y-54148342D01*
X100262885Y-54326914D02*
X99512885Y-54326914D01*
X99512885Y-54041200D01*
X99548600Y-53969771D01*
X99584314Y-53934057D01*
X99655742Y-53898342D01*
X99762885Y-53898342D01*
X99834314Y-53934057D01*
X99870028Y-53969771D01*
X99905742Y-54041200D01*
X99905742Y-54326914D01*
X100262885Y-53184057D02*
X100262885Y-53612628D01*
X100262885Y-53398342D02*
X99512885Y-53398342D01*
X99620028Y-53469771D01*
X99691457Y-53541200D01*
X99727171Y-53612628D01*
X99512885Y-52505485D02*
X99512885Y-52862628D01*
X99870028Y-52898342D01*
X99834314Y-52862628D01*
X99798600Y-52791200D01*
X99798600Y-52612628D01*
X99834314Y-52541200D01*
X99870028Y-52505485D01*
X99941457Y-52469771D01*
X100120028Y-52469771D01*
X100191457Y-52505485D01*
X100227171Y-52541200D01*
X100262885Y-52612628D01*
X100262885Y-52791200D01*
X100227171Y-52862628D01*
X100191457Y-52898342D01*
X100262885Y-51790142D02*
X99905742Y-52040142D01*
X100262885Y-52218714D02*
X99512885Y-52218714D01*
X99512885Y-51933000D01*
X99548600Y-51861571D01*
X99584314Y-51825857D01*
X99655742Y-51790142D01*
X99762885Y-51790142D01*
X99834314Y-51825857D01*
X99870028Y-51861571D01*
X99905742Y-51933000D01*
X99905742Y-52218714D01*
X100262885Y-51075857D02*
X100262885Y-51504428D01*
X100262885Y-51290142D02*
X99512885Y-51290142D01*
X99620028Y-51361571D01*
X99691457Y-51433000D01*
X99727171Y-51504428D01*
X99762885Y-50433000D02*
X100262885Y-50433000D01*
X99477171Y-50611571D02*
X100012885Y-50790142D01*
X100012885Y-50325857D01*
X82550457Y-64931485D02*
X82300457Y-64574342D01*
X82121885Y-64931485D02*
X82121885Y-64181485D01*
X82407600Y-64181485D01*
X82479028Y-64217200D01*
X82514742Y-64252914D01*
X82550457Y-64324342D01*
X82550457Y-64431485D01*
X82514742Y-64502914D01*
X82479028Y-64538628D01*
X82407600Y-64574342D01*
X82121885Y-64574342D01*
X83264742Y-64931485D02*
X82836171Y-64931485D01*
X83050457Y-64931485D02*
X83050457Y-64181485D01*
X82979028Y-64288628D01*
X82907600Y-64360057D01*
X82836171Y-64395771D01*
X83550457Y-64252914D02*
X83586171Y-64217200D01*
X83657600Y-64181485D01*
X83836171Y-64181485D01*
X83907600Y-64217200D01*
X83943314Y-64252914D01*
X83979028Y-64324342D01*
X83979028Y-64395771D01*
X83943314Y-64502914D01*
X83514742Y-64931485D01*
X83979028Y-64931485D01*
X97917457Y-63661485D02*
X97667457Y-63304342D01*
X97488885Y-63661485D02*
X97488885Y-62911485D01*
X97774600Y-62911485D01*
X97846028Y-62947200D01*
X97881742Y-62982914D01*
X97917457Y-63054342D01*
X97917457Y-63161485D01*
X97881742Y-63232914D01*
X97846028Y-63268628D01*
X97774600Y-63304342D01*
X97488885Y-63304342D01*
X98631742Y-63661485D02*
X98203171Y-63661485D01*
X98417457Y-63661485D02*
X98417457Y-62911485D01*
X98346028Y-63018628D01*
X98274600Y-63090057D01*
X98203171Y-63125771D01*
X99346028Y-63661485D02*
X98917457Y-63661485D01*
X99131742Y-63661485D02*
X99131742Y-62911485D01*
X99060314Y-63018628D01*
X98988885Y-63090057D01*
X98917457Y-63125771D01*
X90170457Y-66430085D02*
X89920457Y-66072942D01*
X89741885Y-66430085D02*
X89741885Y-65680085D01*
X90027600Y-65680085D01*
X90099028Y-65715800D01*
X90134742Y-65751514D01*
X90170457Y-65822942D01*
X90170457Y-65930085D01*
X90134742Y-66001514D01*
X90099028Y-66037228D01*
X90027600Y-66072942D01*
X89741885Y-66072942D01*
X90884742Y-66430085D02*
X90456171Y-66430085D01*
X90670457Y-66430085D02*
X90670457Y-65680085D01*
X90599028Y-65787228D01*
X90527600Y-65858657D01*
X90456171Y-65894371D01*
X91349028Y-65680085D02*
X91420457Y-65680085D01*
X91491885Y-65715800D01*
X91527600Y-65751514D01*
X91563314Y-65822942D01*
X91599028Y-65965800D01*
X91599028Y-66144371D01*
X91563314Y-66287228D01*
X91527600Y-66358657D01*
X91491885Y-66394371D01*
X91420457Y-66430085D01*
X91349028Y-66430085D01*
X91277600Y-66394371D01*
X91241885Y-66358657D01*
X91206171Y-66287228D01*
X91170457Y-66144371D01*
X91170457Y-65965800D01*
X91206171Y-65822942D01*
X91241885Y-65751514D01*
X91277600Y-65715800D01*
X91349028Y-65680085D01*
X85378485Y-55598600D02*
X85021342Y-55848600D01*
X85378485Y-56027171D02*
X84628485Y-56027171D01*
X84628485Y-55741457D01*
X84664200Y-55670028D01*
X84699914Y-55634314D01*
X84771342Y-55598600D01*
X84878485Y-55598600D01*
X84949914Y-55634314D01*
X84985628Y-55670028D01*
X85021342Y-55741457D01*
X85021342Y-56027171D01*
X85378485Y-55241457D02*
X85378485Y-55098600D01*
X85342771Y-55027171D01*
X85307057Y-54991457D01*
X85199914Y-54920028D01*
X85057057Y-54884314D01*
X84771342Y-54884314D01*
X84699914Y-54920028D01*
X84664200Y-54955742D01*
X84628485Y-55027171D01*
X84628485Y-55170028D01*
X84664200Y-55241457D01*
X84699914Y-55277171D01*
X84771342Y-55312885D01*
X84949914Y-55312885D01*
X85021342Y-55277171D01*
X85057057Y-55241457D01*
X85092771Y-55170028D01*
X85092771Y-55027171D01*
X85057057Y-54955742D01*
X85021342Y-54920028D01*
X84949914Y-54884314D01*
X100466085Y-59332400D02*
X100108942Y-59582400D01*
X100466085Y-59760971D02*
X99716085Y-59760971D01*
X99716085Y-59475257D01*
X99751800Y-59403828D01*
X99787514Y-59368114D01*
X99858942Y-59332400D01*
X99966085Y-59332400D01*
X100037514Y-59368114D01*
X100073228Y-59403828D01*
X100108942Y-59475257D01*
X100108942Y-59760971D01*
X100037514Y-58903828D02*
X100001800Y-58975257D01*
X99966085Y-59010971D01*
X99894657Y-59046685D01*
X99858942Y-59046685D01*
X99787514Y-59010971D01*
X99751800Y-58975257D01*
X99716085Y-58903828D01*
X99716085Y-58760971D01*
X99751800Y-58689542D01*
X99787514Y-58653828D01*
X99858942Y-58618114D01*
X99894657Y-58618114D01*
X99966085Y-58653828D01*
X100001800Y-58689542D01*
X100037514Y-58760971D01*
X100037514Y-58903828D01*
X100073228Y-58975257D01*
X100108942Y-59010971D01*
X100180371Y-59046685D01*
X100323228Y-59046685D01*
X100394657Y-59010971D01*
X100430371Y-58975257D01*
X100466085Y-58903828D01*
X100466085Y-58760971D01*
X100430371Y-58689542D01*
X100394657Y-58653828D01*
X100323228Y-58618114D01*
X100180371Y-58618114D01*
X100108942Y-58653828D01*
X100073228Y-58689542D01*
X100037514Y-58760971D01*
X78335600Y-57006685D02*
X78085600Y-56649542D01*
X77907028Y-57006685D02*
X77907028Y-56256685D01*
X78192742Y-56256685D01*
X78264171Y-56292400D01*
X78299885Y-56328114D01*
X78335600Y-56399542D01*
X78335600Y-56506685D01*
X78299885Y-56578114D01*
X78264171Y-56613828D01*
X78192742Y-56649542D01*
X77907028Y-56649542D01*
X78585600Y-56256685D02*
X79085600Y-56256685D01*
X78764171Y-57006685D01*
X83872800Y-56828885D02*
X83622800Y-56471742D01*
X83444228Y-56828885D02*
X83444228Y-56078885D01*
X83729942Y-56078885D01*
X83801371Y-56114600D01*
X83837085Y-56150314D01*
X83872800Y-56221742D01*
X83872800Y-56328885D01*
X83837085Y-56400314D01*
X83801371Y-56436028D01*
X83729942Y-56471742D01*
X83444228Y-56471742D01*
X84515657Y-56078885D02*
X84372800Y-56078885D01*
X84301371Y-56114600D01*
X84265657Y-56150314D01*
X84194228Y-56257457D01*
X84158514Y-56400314D01*
X84158514Y-56686028D01*
X84194228Y-56757457D01*
X84229942Y-56793171D01*
X84301371Y-56828885D01*
X84444228Y-56828885D01*
X84515657Y-56793171D01*
X84551371Y-56757457D01*
X84587085Y-56686028D01*
X84587085Y-56507457D01*
X84551371Y-56436028D01*
X84515657Y-56400314D01*
X84444228Y-56364600D01*
X84301371Y-56364600D01*
X84229942Y-56400314D01*
X84194228Y-56436028D01*
X84158514Y-56507457D01*
X85403885Y-59713400D02*
X85046742Y-59963400D01*
X85403885Y-60141971D02*
X84653885Y-60141971D01*
X84653885Y-59856257D01*
X84689600Y-59784828D01*
X84725314Y-59749114D01*
X84796742Y-59713400D01*
X84903885Y-59713400D01*
X84975314Y-59749114D01*
X85011028Y-59784828D01*
X85046742Y-59856257D01*
X85046742Y-60141971D01*
X84653885Y-59034828D02*
X84653885Y-59391971D01*
X85011028Y-59427685D01*
X84975314Y-59391971D01*
X84939600Y-59320542D01*
X84939600Y-59141971D01*
X84975314Y-59070542D01*
X85011028Y-59034828D01*
X85082457Y-58999114D01*
X85261028Y-58999114D01*
X85332457Y-59034828D01*
X85368171Y-59070542D01*
X85403885Y-59141971D01*
X85403885Y-59320542D01*
X85368171Y-59391971D01*
X85332457Y-59427685D01*
X80266000Y-56955885D02*
X80016000Y-56598742D01*
X79837428Y-56955885D02*
X79837428Y-56205885D01*
X80123142Y-56205885D01*
X80194571Y-56241600D01*
X80230285Y-56277314D01*
X80266000Y-56348742D01*
X80266000Y-56455885D01*
X80230285Y-56527314D01*
X80194571Y-56563028D01*
X80123142Y-56598742D01*
X79837428Y-56598742D01*
X80908857Y-56455885D02*
X80908857Y-56955885D01*
X80730285Y-56170171D02*
X80551714Y-56705885D01*
X81016000Y-56705885D01*
X85454685Y-51661600D02*
X85097542Y-51911600D01*
X85454685Y-52090171D02*
X84704685Y-52090171D01*
X84704685Y-51804457D01*
X84740400Y-51733028D01*
X84776114Y-51697314D01*
X84847542Y-51661600D01*
X84954685Y-51661600D01*
X85026114Y-51697314D01*
X85061828Y-51733028D01*
X85097542Y-51804457D01*
X85097542Y-52090171D01*
X84704685Y-51411600D02*
X84704685Y-50947314D01*
X84990400Y-51197314D01*
X84990400Y-51090171D01*
X85026114Y-51018742D01*
X85061828Y-50983028D01*
X85133257Y-50947314D01*
X85311828Y-50947314D01*
X85383257Y-50983028D01*
X85418971Y-51018742D01*
X85454685Y-51090171D01*
X85454685Y-51304457D01*
X85418971Y-51375885D01*
X85383257Y-51411600D01*
X85353085Y-53846000D02*
X84995942Y-54096000D01*
X85353085Y-54274571D02*
X84603085Y-54274571D01*
X84603085Y-53988857D01*
X84638800Y-53917428D01*
X84674514Y-53881714D01*
X84745942Y-53846000D01*
X84853085Y-53846000D01*
X84924514Y-53881714D01*
X84960228Y-53917428D01*
X84995942Y-53988857D01*
X84995942Y-54274571D01*
X84674514Y-53560285D02*
X84638800Y-53524571D01*
X84603085Y-53453142D01*
X84603085Y-53274571D01*
X84638800Y-53203142D01*
X84674514Y-53167428D01*
X84745942Y-53131714D01*
X84817371Y-53131714D01*
X84924514Y-53167428D01*
X85353085Y-53596000D01*
X85353085Y-53131714D01*
X76026200Y-55774085D02*
X76026200Y-56309800D01*
X75990485Y-56416942D01*
X75919057Y-56488371D01*
X75811914Y-56524085D01*
X75740485Y-56524085D01*
X76347628Y-55845514D02*
X76383342Y-55809800D01*
X76454771Y-55774085D01*
X76633342Y-55774085D01*
X76704771Y-55809800D01*
X76740485Y-55845514D01*
X76776200Y-55916942D01*
X76776200Y-55988371D01*
X76740485Y-56095514D01*
X76311914Y-56524085D01*
X76776200Y-56524085D01*
X86695428Y-65210885D02*
X86695428Y-64460885D01*
X86874000Y-64460885D01*
X86981142Y-64496600D01*
X87052571Y-64568028D01*
X87088285Y-64639457D01*
X87124000Y-64782314D01*
X87124000Y-64889457D01*
X87088285Y-65032314D01*
X87052571Y-65103742D01*
X86981142Y-65175171D01*
X86874000Y-65210885D01*
X86695428Y-65210885D01*
X87766857Y-64710885D02*
X87766857Y-65210885D01*
X87588285Y-64425171D02*
X87409714Y-64960885D01*
X87874000Y-64960885D01*
X91474485Y-51988571D02*
X90724485Y-51988571D01*
X90724485Y-51810000D01*
X90760200Y-51702857D01*
X90831628Y-51631428D01*
X90903057Y-51595714D01*
X91045914Y-51560000D01*
X91153057Y-51560000D01*
X91295914Y-51595714D01*
X91367342Y-51631428D01*
X91438771Y-51702857D01*
X91474485Y-51810000D01*
X91474485Y-51988571D01*
X90724485Y-51310000D02*
X90724485Y-50845714D01*
X91010200Y-51095714D01*
X91010200Y-50988571D01*
X91045914Y-50917142D01*
X91081628Y-50881428D01*
X91153057Y-50845714D01*
X91331628Y-50845714D01*
X91403057Y-50881428D01*
X91438771Y-50917142D01*
X91474485Y-50988571D01*
X91474485Y-51202857D01*
X91438771Y-51274285D01*
X91403057Y-51310000D01*
X98840485Y-51988571D02*
X98090485Y-51988571D01*
X98090485Y-51810000D01*
X98126200Y-51702857D01*
X98197628Y-51631428D01*
X98269057Y-51595714D01*
X98411914Y-51560000D01*
X98519057Y-51560000D01*
X98661914Y-51595714D01*
X98733342Y-51631428D01*
X98804771Y-51702857D01*
X98840485Y-51810000D01*
X98840485Y-51988571D01*
X98161914Y-51274285D02*
X98126200Y-51238571D01*
X98090485Y-51167142D01*
X98090485Y-50988571D01*
X98126200Y-50917142D01*
X98161914Y-50881428D01*
X98233342Y-50845714D01*
X98304771Y-50845714D01*
X98411914Y-50881428D01*
X98840485Y-51310000D01*
X98840485Y-50845714D01*
X86209600Y-62243857D02*
X86173885Y-62279571D01*
X86066742Y-62315285D01*
X85995314Y-62315285D01*
X85888171Y-62279571D01*
X85816742Y-62208142D01*
X85781028Y-62136714D01*
X85745314Y-61993857D01*
X85745314Y-61886714D01*
X85781028Y-61743857D01*
X85816742Y-61672428D01*
X85888171Y-61601000D01*
X85995314Y-61565285D01*
X86066742Y-61565285D01*
X86173885Y-61601000D01*
X86209600Y-61636714D01*
X86566742Y-62315285D02*
X86709600Y-62315285D01*
X86781028Y-62279571D01*
X86816742Y-62243857D01*
X86888171Y-62136714D01*
X86923885Y-61993857D01*
X86923885Y-61708142D01*
X86888171Y-61636714D01*
X86852457Y-61601000D01*
X86781028Y-61565285D01*
X86638171Y-61565285D01*
X86566742Y-61601000D01*
X86531028Y-61636714D01*
X86495314Y-61708142D01*
X86495314Y-61886714D01*
X86531028Y-61958142D01*
X86566742Y-61993857D01*
X86638171Y-62029571D01*
X86781028Y-62029571D01*
X86852457Y-61993857D01*
X86888171Y-61958142D01*
X86923885Y-61886714D01*
X89638600Y-50839257D02*
X89602885Y-50874971D01*
X89495742Y-50910685D01*
X89424314Y-50910685D01*
X89317171Y-50874971D01*
X89245742Y-50803542D01*
X89210028Y-50732114D01*
X89174314Y-50589257D01*
X89174314Y-50482114D01*
X89210028Y-50339257D01*
X89245742Y-50267828D01*
X89317171Y-50196400D01*
X89424314Y-50160685D01*
X89495742Y-50160685D01*
X89602885Y-50196400D01*
X89638600Y-50232114D01*
X90067171Y-50482114D02*
X89995742Y-50446400D01*
X89960028Y-50410685D01*
X89924314Y-50339257D01*
X89924314Y-50303542D01*
X89960028Y-50232114D01*
X89995742Y-50196400D01*
X90067171Y-50160685D01*
X90210028Y-50160685D01*
X90281457Y-50196400D01*
X90317171Y-50232114D01*
X90352885Y-50303542D01*
X90352885Y-50339257D01*
X90317171Y-50410685D01*
X90281457Y-50446400D01*
X90210028Y-50482114D01*
X90067171Y-50482114D01*
X89995742Y-50517828D01*
X89960028Y-50553542D01*
X89924314Y-50624971D01*
X89924314Y-50767828D01*
X89960028Y-50839257D01*
X89995742Y-50874971D01*
X90067171Y-50910685D01*
X90210028Y-50910685D01*
X90281457Y-50874971D01*
X90317171Y-50839257D01*
X90352885Y-50767828D01*
X90352885Y-50624971D01*
X90317171Y-50553542D01*
X90281457Y-50517828D01*
X90210028Y-50482114D01*
X100394657Y-55471600D02*
X100430371Y-55507314D01*
X100466085Y-55614457D01*
X100466085Y-55685885D01*
X100430371Y-55793028D01*
X100358942Y-55864457D01*
X100287514Y-55900171D01*
X100144657Y-55935885D01*
X100037514Y-55935885D01*
X99894657Y-55900171D01*
X99823228Y-55864457D01*
X99751800Y-55793028D01*
X99716085Y-55685885D01*
X99716085Y-55614457D01*
X99751800Y-55507314D01*
X99787514Y-55471600D01*
X99716085Y-55221600D02*
X99716085Y-54721600D01*
X100466085Y-55043028D01*
X100318457Y-61643800D02*
X100354171Y-61679514D01*
X100389885Y-61786657D01*
X100389885Y-61858085D01*
X100354171Y-61965228D01*
X100282742Y-62036657D01*
X100211314Y-62072371D01*
X100068457Y-62108085D01*
X99961314Y-62108085D01*
X99818457Y-62072371D01*
X99747028Y-62036657D01*
X99675600Y-61965228D01*
X99639885Y-61858085D01*
X99639885Y-61786657D01*
X99675600Y-61679514D01*
X99711314Y-61643800D01*
X99639885Y-61000942D02*
X99639885Y-61143800D01*
X99675600Y-61215228D01*
X99711314Y-61250942D01*
X99818457Y-61322371D01*
X99961314Y-61358085D01*
X100247028Y-61358085D01*
X100318457Y-61322371D01*
X100354171Y-61286657D01*
X100389885Y-61215228D01*
X100389885Y-61072371D01*
X100354171Y-61000942D01*
X100318457Y-60965228D01*
X100247028Y-60929514D01*
X100068457Y-60929514D01*
X99997028Y-60965228D01*
X99961314Y-61000942D01*
X99925600Y-61072371D01*
X99925600Y-61215228D01*
X99961314Y-61286657D01*
X99997028Y-61322371D01*
X100068457Y-61358085D01*
X85332457Y-61516800D02*
X85368171Y-61552514D01*
X85403885Y-61659657D01*
X85403885Y-61731085D01*
X85368171Y-61838228D01*
X85296742Y-61909657D01*
X85225314Y-61945371D01*
X85082457Y-61981085D01*
X84975314Y-61981085D01*
X84832457Y-61945371D01*
X84761028Y-61909657D01*
X84689600Y-61838228D01*
X84653885Y-61731085D01*
X84653885Y-61659657D01*
X84689600Y-61552514D01*
X84725314Y-61516800D01*
X84653885Y-60838228D02*
X84653885Y-61195371D01*
X85011028Y-61231085D01*
X84975314Y-61195371D01*
X84939600Y-61123942D01*
X84939600Y-60945371D01*
X84975314Y-60873942D01*
X85011028Y-60838228D01*
X85082457Y-60802514D01*
X85261028Y-60802514D01*
X85332457Y-60838228D01*
X85368171Y-60873942D01*
X85403885Y-60945371D01*
X85403885Y-61123942D01*
X85368171Y-61195371D01*
X85332457Y-61231085D01*
X76354400Y-60643657D02*
X76318685Y-60679371D01*
X76211542Y-60715085D01*
X76140114Y-60715085D01*
X76032971Y-60679371D01*
X75961542Y-60607942D01*
X75925828Y-60536514D01*
X75890114Y-60393657D01*
X75890114Y-60286514D01*
X75925828Y-60143657D01*
X75961542Y-60072228D01*
X76032971Y-60000800D01*
X76140114Y-59965085D01*
X76211542Y-59965085D01*
X76318685Y-60000800D01*
X76354400Y-60036514D01*
X76997257Y-60215085D02*
X76997257Y-60715085D01*
X76818685Y-59929371D02*
X76640114Y-60465085D01*
X77104400Y-60465085D01*
X100445457Y-57402000D02*
X100481171Y-57437714D01*
X100516885Y-57544857D01*
X100516885Y-57616285D01*
X100481171Y-57723428D01*
X100409742Y-57794857D01*
X100338314Y-57830571D01*
X100195457Y-57866285D01*
X100088314Y-57866285D01*
X99945457Y-57830571D01*
X99874028Y-57794857D01*
X99802600Y-57723428D01*
X99766885Y-57616285D01*
X99766885Y-57544857D01*
X99802600Y-57437714D01*
X99838314Y-57402000D01*
X99766885Y-57152000D02*
X99766885Y-56687714D01*
X100052600Y-56937714D01*
X100052600Y-56830571D01*
X100088314Y-56759142D01*
X100124028Y-56723428D01*
X100195457Y-56687714D01*
X100374028Y-56687714D01*
X100445457Y-56723428D01*
X100481171Y-56759142D01*
X100516885Y-56830571D01*
X100516885Y-57044857D01*
X100481171Y-57116285D01*
X100445457Y-57152000D01*
X105906457Y-58316400D02*
X105942171Y-58352114D01*
X105977885Y-58459257D01*
X105977885Y-58530685D01*
X105942171Y-58637828D01*
X105870742Y-58709257D01*
X105799314Y-58744971D01*
X105656457Y-58780685D01*
X105549314Y-58780685D01*
X105406457Y-58744971D01*
X105335028Y-58709257D01*
X105263600Y-58637828D01*
X105227885Y-58530685D01*
X105227885Y-58459257D01*
X105263600Y-58352114D01*
X105299314Y-58316400D01*
X105299314Y-58030685D02*
X105263600Y-57994971D01*
X105227885Y-57923542D01*
X105227885Y-57744971D01*
X105263600Y-57673542D01*
X105299314Y-57637828D01*
X105370742Y-57602114D01*
X105442171Y-57602114D01*
X105549314Y-57637828D01*
X105977885Y-58066400D01*
X105977885Y-57602114D01*
X105754057Y-61745400D02*
X105789771Y-61781114D01*
X105825485Y-61888257D01*
X105825485Y-61959685D01*
X105789771Y-62066828D01*
X105718342Y-62138257D01*
X105646914Y-62173971D01*
X105504057Y-62209685D01*
X105396914Y-62209685D01*
X105254057Y-62173971D01*
X105182628Y-62138257D01*
X105111200Y-62066828D01*
X105075485Y-61959685D01*
X105075485Y-61888257D01*
X105111200Y-61781114D01*
X105146914Y-61745400D01*
X105825485Y-61031114D02*
X105825485Y-61459685D01*
X105825485Y-61245400D02*
X105075485Y-61245400D01*
X105182628Y-61316828D01*
X105254057Y-61388257D01*
X105289771Y-61459685D01*
X130634200Y-51926685D02*
X130384200Y-51569542D01*
X130205628Y-51926685D02*
X130205628Y-51176685D01*
X130491342Y-51176685D01*
X130562771Y-51212400D01*
X130598485Y-51248114D01*
X130634200Y-51319542D01*
X130634200Y-51426685D01*
X130598485Y-51498114D01*
X130562771Y-51533828D01*
X130491342Y-51569542D01*
X130205628Y-51569542D01*
X131348485Y-51926685D02*
X130919914Y-51926685D01*
X131134200Y-51926685D02*
X131134200Y-51176685D01*
X131062771Y-51283828D01*
X130991342Y-51355257D01*
X130919914Y-51390971D01*
X130358028Y-55508085D02*
X130358028Y-54758085D01*
X130536600Y-54758085D01*
X130643742Y-54793800D01*
X130715171Y-54865228D01*
X130750885Y-54936657D01*
X130786600Y-55079514D01*
X130786600Y-55186657D01*
X130750885Y-55329514D01*
X130715171Y-55400942D01*
X130643742Y-55472371D01*
X130536600Y-55508085D01*
X130358028Y-55508085D01*
X131500885Y-55508085D02*
X131072314Y-55508085D01*
X131286600Y-55508085D02*
X131286600Y-54758085D01*
X131215171Y-54865228D01*
X131143742Y-54936657D01*
X131072314Y-54972371D01*
X125302200Y-62936885D02*
X125302200Y-63472600D01*
X125266485Y-63579742D01*
X125195057Y-63651171D01*
X125087914Y-63686885D01*
X125016485Y-63686885D01*
X126052200Y-63686885D02*
X125623628Y-63686885D01*
X125837914Y-63686885D02*
X125837914Y-62936885D01*
X125766485Y-63044028D01*
X125695057Y-63115457D01*
X125623628Y-63151171D01*
M02*
