G04 #@! TF.GenerationSoftware,KiCad,Pcbnew,(5.1.4)-1*
G04 #@! TF.CreationDate,2020-03-23T02:22:33+01:00*
G04 #@! TF.ProjectId,stm32f446_actuators,73746d33-3266-4343-9436-5f6163747561,rev?*
G04 #@! TF.SameCoordinates,Original*
G04 #@! TF.FileFunction,Legend,Bot*
G04 #@! TF.FilePolarity,Positive*
%FSLAX46Y46*%
G04 Gerber Fmt 4.6, Leading zero omitted, Abs format (unit mm)*
G04 Created by KiCad (PCBNEW (5.1.4)-1) date 2020-03-23 02:22:33*
%MOMM*%
%LPD*%
G04 APERTURE LIST*
%ADD10C,0.300000*%
%ADD11C,0.120000*%
%ADD12C,0.150000*%
%ADD13C,0.100000*%
G04 APERTURE END LIST*
D10*
X129427085Y-52675600D02*
X128712800Y-52675600D01*
X129569942Y-53104171D02*
X129069942Y-51604171D01*
X128569942Y-53104171D01*
X127427085Y-53032742D02*
X127569942Y-53104171D01*
X127855657Y-53104171D01*
X127998514Y-53032742D01*
X128069942Y-52961314D01*
X128141371Y-52818457D01*
X128141371Y-52389885D01*
X128069942Y-52247028D01*
X127998514Y-52175600D01*
X127855657Y-52104171D01*
X127569942Y-52104171D01*
X127427085Y-52175600D01*
X126998514Y-52104171D02*
X126427085Y-52104171D01*
X126784228Y-51604171D02*
X126784228Y-52889885D01*
X126712800Y-53032742D01*
X126569942Y-53104171D01*
X126427085Y-53104171D01*
X125284228Y-52104171D02*
X125284228Y-53104171D01*
X125927085Y-52104171D02*
X125927085Y-52889885D01*
X125855657Y-53032742D01*
X125712800Y-53104171D01*
X125498514Y-53104171D01*
X125355657Y-53032742D01*
X125284228Y-52961314D01*
X123927085Y-53104171D02*
X123927085Y-52318457D01*
X123998514Y-52175600D01*
X124141371Y-52104171D01*
X124427085Y-52104171D01*
X124569942Y-52175600D01*
X123927085Y-53032742D02*
X124069942Y-53104171D01*
X124427085Y-53104171D01*
X124569942Y-53032742D01*
X124641371Y-52889885D01*
X124641371Y-52747028D01*
X124569942Y-52604171D01*
X124427085Y-52532742D01*
X124069942Y-52532742D01*
X123927085Y-52461314D01*
X123427085Y-52104171D02*
X122855657Y-52104171D01*
X123212800Y-51604171D02*
X123212800Y-52889885D01*
X123141371Y-53032742D01*
X122998514Y-53104171D01*
X122855657Y-53104171D01*
X122141371Y-53104171D02*
X122284228Y-53032742D01*
X122355657Y-52961314D01*
X122427085Y-52818457D01*
X122427085Y-52389885D01*
X122355657Y-52247028D01*
X122284228Y-52175600D01*
X122141371Y-52104171D01*
X121927085Y-52104171D01*
X121784228Y-52175600D01*
X121712800Y-52247028D01*
X121641371Y-52389885D01*
X121641371Y-52818457D01*
X121712800Y-52961314D01*
X121784228Y-53032742D01*
X121927085Y-53104171D01*
X122141371Y-53104171D01*
X120998514Y-53104171D02*
X120998514Y-52104171D01*
X120998514Y-52389885D02*
X120927085Y-52247028D01*
X120855657Y-52175600D01*
X120712800Y-52104171D01*
X120569942Y-52104171D01*
X120141371Y-53032742D02*
X119998514Y-53104171D01*
X119712800Y-53104171D01*
X119569942Y-53032742D01*
X119498514Y-52889885D01*
X119498514Y-52818457D01*
X119569942Y-52675600D01*
X119712800Y-52604171D01*
X119927085Y-52604171D01*
X120069942Y-52532742D01*
X120141371Y-52389885D01*
X120141371Y-52318457D01*
X120069942Y-52175600D01*
X119927085Y-52104171D01*
X119712800Y-52104171D01*
X119569942Y-52175600D01*
X117927085Y-51604171D02*
X117427085Y-53104171D01*
X116927085Y-51604171D01*
X115641371Y-53104171D02*
X116498514Y-53104171D01*
X116069942Y-53104171D02*
X116069942Y-51604171D01*
X116212800Y-51818457D01*
X116355657Y-51961314D01*
X116498514Y-52032742D01*
X114998514Y-52961314D02*
X114927085Y-53032742D01*
X114998514Y-53104171D01*
X115069942Y-53032742D01*
X114998514Y-52961314D01*
X114998514Y-53104171D01*
X113998514Y-51604171D02*
X113855657Y-51604171D01*
X113712800Y-51675600D01*
X113641371Y-51747028D01*
X113569942Y-51889885D01*
X113498514Y-52175600D01*
X113498514Y-52532742D01*
X113569942Y-52818457D01*
X113641371Y-52961314D01*
X113712800Y-53032742D01*
X113855657Y-53104171D01*
X113998514Y-53104171D01*
X114141371Y-53032742D01*
X114212800Y-52961314D01*
X114284228Y-52818457D01*
X114355657Y-52532742D01*
X114355657Y-52175600D01*
X114284228Y-51889885D01*
X114212800Y-51747028D01*
X114141371Y-51675600D01*
X113998514Y-51604171D01*
X68700885Y-52961314D02*
X68772314Y-53032742D01*
X68986600Y-53104171D01*
X69129457Y-53104171D01*
X69343742Y-53032742D01*
X69486600Y-52889885D01*
X69558028Y-52747028D01*
X69629457Y-52461314D01*
X69629457Y-52247028D01*
X69558028Y-51961314D01*
X69486600Y-51818457D01*
X69343742Y-51675600D01*
X69129457Y-51604171D01*
X68986600Y-51604171D01*
X68772314Y-51675600D01*
X68700885Y-51747028D01*
X68058028Y-53104171D02*
X68058028Y-51604171D01*
X67700885Y-51604171D01*
X67486600Y-51675600D01*
X67343742Y-51818457D01*
X67272314Y-51961314D01*
X67200885Y-52247028D01*
X67200885Y-52461314D01*
X67272314Y-52747028D01*
X67343742Y-52889885D01*
X67486600Y-53032742D01*
X67700885Y-53104171D01*
X68058028Y-53104171D01*
X65700885Y-53104171D02*
X66200885Y-52389885D01*
X66558028Y-53104171D02*
X66558028Y-51604171D01*
X65986600Y-51604171D01*
X65843742Y-51675600D01*
X65772314Y-51747028D01*
X65700885Y-51889885D01*
X65700885Y-52104171D01*
X65772314Y-52247028D01*
X65843742Y-52318457D01*
X65986600Y-52389885D01*
X66558028Y-52389885D01*
X63986600Y-51747028D02*
X63915171Y-51675600D01*
X63772314Y-51604171D01*
X63415171Y-51604171D01*
X63272314Y-51675600D01*
X63200885Y-51747028D01*
X63129457Y-51889885D01*
X63129457Y-52032742D01*
X63200885Y-52247028D01*
X64058028Y-53104171D01*
X63129457Y-53104171D01*
X62200885Y-51604171D02*
X62058028Y-51604171D01*
X61915171Y-51675600D01*
X61843742Y-51747028D01*
X61772314Y-51889885D01*
X61700885Y-52175600D01*
X61700885Y-52532742D01*
X61772314Y-52818457D01*
X61843742Y-52961314D01*
X61915171Y-53032742D01*
X62058028Y-53104171D01*
X62200885Y-53104171D01*
X62343742Y-53032742D01*
X62415171Y-52961314D01*
X62486600Y-52818457D01*
X62558028Y-52532742D01*
X62558028Y-52175600D01*
X62486600Y-51889885D01*
X62415171Y-51747028D01*
X62343742Y-51675600D01*
X62200885Y-51604171D01*
X61129457Y-51747028D02*
X61058028Y-51675600D01*
X60915171Y-51604171D01*
X60558028Y-51604171D01*
X60415171Y-51675600D01*
X60343742Y-51747028D01*
X60272314Y-51889885D01*
X60272314Y-52032742D01*
X60343742Y-52247028D01*
X61200885Y-53104171D01*
X60272314Y-53104171D01*
X59343742Y-51604171D02*
X59200885Y-51604171D01*
X59058028Y-51675600D01*
X58986600Y-51747028D01*
X58915171Y-51889885D01*
X58843742Y-52175600D01*
X58843742Y-52532742D01*
X58915171Y-52818457D01*
X58986600Y-52961314D01*
X59058028Y-53032742D01*
X59200885Y-53104171D01*
X59343742Y-53104171D01*
X59486600Y-53032742D01*
X59558028Y-52961314D01*
X59629457Y-52818457D01*
X59700885Y-52532742D01*
X59700885Y-52175600D01*
X59629457Y-51889885D01*
X59558028Y-51747028D01*
X59486600Y-51675600D01*
X59343742Y-51604171D01*
D11*
X75590400Y-52908200D02*
X75590400Y-51409600D01*
X84632800Y-52908200D02*
X75590400Y-52908200D01*
X84632800Y-51409600D02*
X84632800Y-52908200D01*
D12*
X83041761Y-54110380D02*
X83041761Y-53110380D01*
X82660809Y-53110380D01*
X82565571Y-53158000D01*
X82517952Y-53205619D01*
X82470333Y-53300857D01*
X82470333Y-53443714D01*
X82517952Y-53538952D01*
X82565571Y-53586571D01*
X82660809Y-53634190D01*
X83041761Y-53634190D01*
X82041761Y-54110380D02*
X82041761Y-53443714D01*
X82041761Y-53634190D02*
X81994142Y-53538952D01*
X81946523Y-53491333D01*
X81851285Y-53443714D01*
X81756047Y-53443714D01*
X81279857Y-54110380D02*
X81375095Y-54062761D01*
X81422714Y-54015142D01*
X81470333Y-53919904D01*
X81470333Y-53634190D01*
X81422714Y-53538952D01*
X81375095Y-53491333D01*
X81279857Y-53443714D01*
X81137000Y-53443714D01*
X81041761Y-53491333D01*
X80994142Y-53538952D01*
X80946523Y-53634190D01*
X80946523Y-53919904D01*
X80994142Y-54015142D01*
X81041761Y-54062761D01*
X81137000Y-54110380D01*
X81279857Y-54110380D01*
X80089380Y-53443714D02*
X80089380Y-54253238D01*
X80137000Y-54348476D01*
X80184619Y-54396095D01*
X80279857Y-54443714D01*
X80422714Y-54443714D01*
X80517952Y-54396095D01*
X80089380Y-54062761D02*
X80184619Y-54110380D01*
X80375095Y-54110380D01*
X80470333Y-54062761D01*
X80517952Y-54015142D01*
X80565571Y-53919904D01*
X80565571Y-53634190D01*
X80517952Y-53538952D01*
X80470333Y-53491333D01*
X80375095Y-53443714D01*
X80184619Y-53443714D01*
X80089380Y-53491333D01*
X79613190Y-54110380D02*
X79613190Y-53443714D01*
X79613190Y-53634190D02*
X79565571Y-53538952D01*
X79517952Y-53491333D01*
X79422714Y-53443714D01*
X79327476Y-53443714D01*
X78565571Y-54110380D02*
X78565571Y-53586571D01*
X78613190Y-53491333D01*
X78708428Y-53443714D01*
X78898904Y-53443714D01*
X78994142Y-53491333D01*
X78565571Y-54062761D02*
X78660809Y-54110380D01*
X78898904Y-54110380D01*
X78994142Y-54062761D01*
X79041761Y-53967523D01*
X79041761Y-53872285D01*
X78994142Y-53777047D01*
X78898904Y-53729428D01*
X78660809Y-53729428D01*
X78565571Y-53681809D01*
X78089380Y-54110380D02*
X78089380Y-53443714D01*
X78089380Y-53538952D02*
X78041761Y-53491333D01*
X77946523Y-53443714D01*
X77803666Y-53443714D01*
X77708428Y-53491333D01*
X77660809Y-53586571D01*
X77660809Y-54110380D01*
X77660809Y-53586571D02*
X77613190Y-53491333D01*
X77517952Y-53443714D01*
X77375095Y-53443714D01*
X77279857Y-53491333D01*
X77232238Y-53586571D01*
X77232238Y-54110380D01*
X84517952Y-55712761D02*
X84375095Y-55760380D01*
X84137000Y-55760380D01*
X84041761Y-55712761D01*
X83994142Y-55665142D01*
X83946523Y-55569904D01*
X83946523Y-55474666D01*
X83994142Y-55379428D01*
X84041761Y-55331809D01*
X84137000Y-55284190D01*
X84327476Y-55236571D01*
X84422714Y-55188952D01*
X84470333Y-55141333D01*
X84517952Y-55046095D01*
X84517952Y-54950857D01*
X84470333Y-54855619D01*
X84422714Y-54808000D01*
X84327476Y-54760380D01*
X84089380Y-54760380D01*
X83946523Y-54808000D01*
X83660809Y-54760380D02*
X83089380Y-54760380D01*
X83375095Y-55760380D02*
X83375095Y-54760380D01*
X82756047Y-55379428D02*
X81994142Y-55379428D01*
X81041761Y-55760380D02*
X81517952Y-55760380D01*
X81517952Y-54760380D01*
X80708428Y-55760380D02*
X80708428Y-54760380D01*
X80232238Y-55760380D02*
X80232238Y-54760380D01*
X79660809Y-55760380D01*
X79660809Y-54760380D01*
X79184619Y-55760380D02*
X79184619Y-54760380D01*
X78613190Y-55760380D02*
X79041761Y-55188952D01*
X78613190Y-54760380D02*
X79184619Y-55331809D01*
X77470333Y-54712761D02*
X78327476Y-55998476D01*
X77279857Y-54760380D02*
X76946523Y-55760380D01*
X76613190Y-54760380D01*
X76327476Y-54855619D02*
X76279857Y-54808000D01*
X76184619Y-54760380D01*
X75946523Y-54760380D01*
X75851285Y-54808000D01*
X75803666Y-54855619D01*
X75756047Y-54950857D01*
X75756047Y-55046095D01*
X75803666Y-55188952D01*
X76375095Y-55760380D01*
X75756047Y-55760380D01*
D11*
X89207800Y-114773200D02*
X86407800Y-114773200D01*
X86407800Y-114773200D02*
X86407800Y-116773200D01*
X86407800Y-116773200D02*
X89207800Y-116773200D01*
X89207800Y-116773200D02*
X89207800Y-114773200D01*
X73459800Y-114798600D02*
X70659800Y-114798600D01*
X70659800Y-114798600D02*
X70659800Y-116798600D01*
X70659800Y-116798600D02*
X73459800Y-116798600D01*
X73459800Y-116798600D02*
X73459800Y-114798600D01*
X134927800Y-112448600D02*
X137727800Y-112448600D01*
X137727800Y-112448600D02*
X137727800Y-110448600D01*
X137727800Y-110448600D02*
X134927800Y-110448600D01*
X134927800Y-110448600D02*
X134927800Y-112448600D01*
X134426400Y-112455200D02*
X134426400Y-110455200D01*
X131626400Y-112455200D02*
X134426400Y-112455200D01*
X131626400Y-110455200D02*
X131626400Y-112455200D01*
X134426400Y-110455200D02*
X131626400Y-110455200D01*
X134921800Y-110220000D02*
X137721800Y-110220000D01*
X137721800Y-110220000D02*
X137721800Y-108220000D01*
X137721800Y-108220000D02*
X134921800Y-108220000D01*
X134921800Y-108220000D02*
X134921800Y-110220000D01*
X134419800Y-110220000D02*
X134419800Y-108220000D01*
X131619800Y-110220000D02*
X134419800Y-110220000D01*
X131619800Y-108220000D02*
X131619800Y-110220000D01*
X134419800Y-108220000D02*
X131619800Y-108220000D01*
X59284800Y-104347778D02*
X59284800Y-103830622D01*
X60704800Y-104347778D02*
X60704800Y-103830622D01*
X59132400Y-94797378D02*
X59132400Y-94280222D01*
X60552400Y-94797378D02*
X60552400Y-94280222D01*
X70644278Y-86282600D02*
X70127122Y-86282600D01*
X70644278Y-84862600D02*
X70127122Y-84862600D01*
X70895978Y-76529000D02*
X70378822Y-76529000D01*
X70895978Y-75109000D02*
X70378822Y-75109000D01*
X70464178Y-67029400D02*
X69947022Y-67029400D01*
X70464178Y-65609400D02*
X69947022Y-65609400D01*
X70464178Y-57529800D02*
X69947022Y-57529800D01*
X70464178Y-56109800D02*
X69947022Y-56109800D01*
X67518200Y-107410400D02*
X67518200Y-106310400D01*
X67788200Y-107410400D02*
X67518200Y-107410400D01*
X67788200Y-108910400D02*
X67788200Y-107410400D01*
X61158200Y-107410400D02*
X61158200Y-104580400D01*
X60888200Y-107410400D02*
X61158200Y-107410400D01*
X60888200Y-108910400D02*
X60888200Y-107410400D01*
X67518200Y-96310600D02*
X67518200Y-95210600D01*
X67788200Y-96310600D02*
X67518200Y-96310600D01*
X67788200Y-97810600D02*
X67788200Y-96310600D01*
X61158200Y-96310600D02*
X61158200Y-93480600D01*
X60888200Y-96310600D02*
X61158200Y-96310600D01*
X60888200Y-97810600D02*
X60888200Y-96310600D01*
X68814800Y-92943600D02*
X69914800Y-92943600D01*
X68814800Y-93213600D02*
X68814800Y-92943600D01*
X67314800Y-93213600D02*
X68814800Y-93213600D01*
X68814800Y-86583600D02*
X71644800Y-86583600D01*
X68814800Y-86313600D02*
X68814800Y-86583600D01*
X67314800Y-86313600D02*
X68814800Y-86313600D01*
X68814800Y-83444000D02*
X69914800Y-83444000D01*
X68814800Y-83714000D02*
X68814800Y-83444000D01*
X67314800Y-83714000D02*
X68814800Y-83714000D01*
X68814800Y-77084000D02*
X71644800Y-77084000D01*
X68814800Y-76814000D02*
X68814800Y-77084000D01*
X67314800Y-76814000D02*
X68814800Y-76814000D01*
X68814800Y-73944400D02*
X69914800Y-73944400D01*
X68814800Y-74214400D02*
X68814800Y-73944400D01*
X67314800Y-74214400D02*
X68814800Y-74214400D01*
X68814800Y-67584400D02*
X71644800Y-67584400D01*
X68814800Y-67314400D02*
X68814800Y-67584400D01*
X67314800Y-67314400D02*
X68814800Y-67314400D01*
X68814800Y-64444800D02*
X69914800Y-64444800D01*
X68814800Y-64714800D02*
X68814800Y-64444800D01*
X67314800Y-64714800D02*
X68814800Y-64714800D01*
X68814800Y-58084800D02*
X71644800Y-58084800D01*
X68814800Y-57814800D02*
X68814800Y-58084800D01*
X67314800Y-57814800D02*
X68814800Y-57814800D01*
X56387000Y-112137400D02*
X56387000Y-106737400D01*
X53087000Y-112137400D02*
X53087000Y-106737400D01*
X56387000Y-112137400D02*
X53087000Y-112137400D01*
X56412400Y-102637800D02*
X56412400Y-97237800D01*
X53112400Y-102637800D02*
X53112400Y-97237800D01*
X56412400Y-102637800D02*
X53112400Y-102637800D01*
X56412400Y-93163600D02*
X56412400Y-87763600D01*
X53112400Y-93163600D02*
X53112400Y-87763600D01*
X56412400Y-93163600D02*
X53112400Y-93163600D01*
X56412400Y-83664000D02*
X56412400Y-78264000D01*
X53112400Y-83664000D02*
X53112400Y-78264000D01*
X56412400Y-83664000D02*
X53112400Y-83664000D01*
X56412400Y-74164400D02*
X56412400Y-68764400D01*
X53112400Y-74164400D02*
X53112400Y-68764400D01*
X56412400Y-74164400D02*
X53112400Y-74164400D01*
X56412400Y-64664800D02*
X56412400Y-59264800D01*
X53112400Y-64664800D02*
X53112400Y-59264800D01*
X56412400Y-64664800D02*
X53112400Y-64664800D01*
X126600600Y-64285200D02*
X126600600Y-62785200D01*
X126600600Y-62785200D02*
X127550600Y-62785200D01*
X127550600Y-62785200D02*
X127550600Y-57660200D01*
X137000600Y-64285200D02*
X137000600Y-62785200D01*
X137000600Y-62785200D02*
X136050600Y-62785200D01*
X136050600Y-62785200D02*
X136050600Y-61685200D01*
X92575400Y-80445922D02*
X92575400Y-80963078D01*
X91155400Y-80445922D02*
X91155400Y-80963078D01*
X93080000Y-78765000D02*
X93080000Y-81565000D01*
X93080000Y-81565000D02*
X95080000Y-81565000D01*
X95080000Y-81565000D02*
X95080000Y-78765000D01*
X95080000Y-78765000D02*
X93080000Y-78765000D01*
X87529600Y-80979778D02*
X87529600Y-80462622D01*
X88949600Y-80979778D02*
X88949600Y-80462622D01*
X89355400Y-80963078D02*
X89355400Y-80445922D01*
X90775400Y-80963078D02*
X90775400Y-80445922D01*
X98110000Y-82106078D02*
X98110000Y-81588922D01*
X99530000Y-82106078D02*
X99530000Y-81588922D01*
X97630000Y-81588922D02*
X97630000Y-82106078D01*
X96210000Y-81588922D02*
X96210000Y-82106078D01*
X96760000Y-87610000D02*
X84160000Y-87610000D01*
X96760000Y-82510000D02*
X96760000Y-87610000D01*
X84160000Y-82510000D02*
X96760000Y-82510000D01*
X108199422Y-96010800D02*
X108716578Y-96010800D01*
X108199422Y-94590800D02*
X108716578Y-94590800D01*
X108199422Y-97915800D02*
X108716578Y-97915800D01*
X108199422Y-96495800D02*
X108716578Y-96495800D01*
X111577622Y-96010800D02*
X112094778Y-96010800D01*
X111577622Y-94590800D02*
X112094778Y-94590800D01*
X118334022Y-96010800D02*
X118851178Y-96010800D01*
X118334022Y-94590800D02*
X118851178Y-94590800D01*
X111577622Y-97915800D02*
X112094778Y-97915800D01*
X111577622Y-96495800D02*
X112094778Y-96495800D01*
X118334022Y-97915800D02*
X118851178Y-97915800D01*
X118334022Y-96495800D02*
X118851178Y-96495800D01*
X114955822Y-96010800D02*
X115472978Y-96010800D01*
X114955822Y-94590800D02*
X115472978Y-94590800D01*
X121712222Y-96010800D02*
X122229378Y-96010800D01*
X121712222Y-94590800D02*
X122229378Y-94590800D01*
X114955822Y-97915800D02*
X115472978Y-97915800D01*
X114955822Y-96495800D02*
X115472978Y-96495800D01*
X121712222Y-97915800D02*
X122229378Y-97915800D01*
X121712222Y-96495800D02*
X122229378Y-96495800D01*
X108660000Y-77728578D02*
X108660000Y-77211422D01*
X107240000Y-77728578D02*
X107240000Y-77211422D01*
X116280000Y-77728578D02*
X116280000Y-77211422D01*
X114860000Y-77728578D02*
X114860000Y-77211422D01*
X111200000Y-77728578D02*
X111200000Y-77211422D01*
X109780000Y-77728578D02*
X109780000Y-77211422D01*
X118820000Y-77703178D02*
X118820000Y-77186022D01*
X117400000Y-77703178D02*
X117400000Y-77186022D01*
X113740000Y-77728578D02*
X113740000Y-77211422D01*
X112320000Y-77728578D02*
X112320000Y-77211422D01*
X121360000Y-77703178D02*
X121360000Y-77186022D01*
X119940000Y-77703178D02*
X119940000Y-77186022D01*
X77738200Y-51754000D02*
X77738200Y-50354000D01*
X76338200Y-51754000D02*
X77738200Y-51754000D01*
X76338200Y-50354000D02*
X76338200Y-51754000D01*
X77738200Y-50354000D02*
X76338200Y-50354000D01*
X79795600Y-51754000D02*
X79795600Y-50354000D01*
X78395600Y-51754000D02*
X79795600Y-51754000D01*
X78395600Y-50354000D02*
X78395600Y-51754000D01*
X79795600Y-50354000D02*
X78395600Y-50354000D01*
X81853000Y-50354000D02*
X80453000Y-50354000D01*
X80453000Y-50354000D02*
X80453000Y-51754000D01*
X80453000Y-51754000D02*
X81853000Y-51754000D01*
X81853000Y-51754000D02*
X81853000Y-50354000D01*
X83910400Y-50354000D02*
X82510400Y-50354000D01*
X82510400Y-50354000D02*
X82510400Y-51754000D01*
X82510400Y-51754000D02*
X83910400Y-51754000D01*
X83910400Y-51754000D02*
X83910400Y-50354000D01*
D12*
X89218514Y-118012485D02*
X89218514Y-117262485D01*
X88932800Y-117262485D01*
X88861371Y-117298200D01*
X88825657Y-117333914D01*
X88789942Y-117405342D01*
X88789942Y-117512485D01*
X88825657Y-117583914D01*
X88861371Y-117619628D01*
X88932800Y-117655342D01*
X89218514Y-117655342D01*
X88539942Y-117262485D02*
X88361371Y-118012485D01*
X88218514Y-117476771D01*
X88075657Y-118012485D01*
X87897085Y-117262485D01*
X87611371Y-118012485D02*
X87611371Y-117262485D01*
X87361371Y-117798200D01*
X87111371Y-117262485D01*
X87111371Y-118012485D01*
X86825657Y-117262485D02*
X86325657Y-117262485D01*
X86647085Y-118012485D01*
X73470514Y-118037885D02*
X73470514Y-117287885D01*
X73184800Y-117287885D01*
X73113371Y-117323600D01*
X73077657Y-117359314D01*
X73041942Y-117430742D01*
X73041942Y-117537885D01*
X73077657Y-117609314D01*
X73113371Y-117645028D01*
X73184800Y-117680742D01*
X73470514Y-117680742D01*
X72791942Y-117287885D02*
X72613371Y-118037885D01*
X72470514Y-117502171D01*
X72327657Y-118037885D01*
X72149085Y-117287885D01*
X71863371Y-118037885D02*
X71863371Y-117287885D01*
X71613371Y-117823600D01*
X71363371Y-117287885D01*
X71363371Y-118037885D01*
X70684800Y-117287885D02*
X70827657Y-117287885D01*
X70899085Y-117323600D01*
X70934800Y-117359314D01*
X71006228Y-117466457D01*
X71041942Y-117609314D01*
X71041942Y-117895028D01*
X71006228Y-117966457D01*
X70970514Y-118002171D01*
X70899085Y-118037885D01*
X70756228Y-118037885D01*
X70684800Y-118002171D01*
X70649085Y-117966457D01*
X70613371Y-117895028D01*
X70613371Y-117716457D01*
X70649085Y-117645028D01*
X70684800Y-117609314D01*
X70756228Y-117573600D01*
X70899085Y-117573600D01*
X70970514Y-117609314D01*
X71006228Y-117645028D01*
X71041942Y-117716457D01*
X137870285Y-113108971D02*
X137298857Y-113108971D01*
X137584571Y-113394685D02*
X137584571Y-112823257D01*
X136584571Y-112644685D02*
X136941714Y-112644685D01*
X136977428Y-113001828D01*
X136941714Y-112966114D01*
X136870285Y-112930400D01*
X136691714Y-112930400D01*
X136620285Y-112966114D01*
X136584571Y-113001828D01*
X136548857Y-113073257D01*
X136548857Y-113251828D01*
X136584571Y-113323257D01*
X136620285Y-113358971D01*
X136691714Y-113394685D01*
X136870285Y-113394685D01*
X136941714Y-113358971D01*
X136977428Y-113323257D01*
X136334571Y-112644685D02*
X136084571Y-113394685D01*
X135834571Y-112644685D01*
X132942685Y-113108971D02*
X132371257Y-113108971D01*
X132656971Y-113394685D02*
X132656971Y-112823257D01*
X131656971Y-112644685D02*
X132014114Y-112644685D01*
X132049828Y-113001828D01*
X132014114Y-112966114D01*
X131942685Y-112930400D01*
X131764114Y-112930400D01*
X131692685Y-112966114D01*
X131656971Y-113001828D01*
X131621257Y-113073257D01*
X131621257Y-113251828D01*
X131656971Y-113323257D01*
X131692685Y-113358971D01*
X131764114Y-113394685D01*
X131942685Y-113394685D01*
X132014114Y-113358971D01*
X132049828Y-113323257D01*
X131406971Y-112644685D02*
X131156971Y-113394685D01*
X130906971Y-112644685D01*
X137643228Y-107724171D02*
X137071800Y-107724171D01*
X137357514Y-108009885D02*
X137357514Y-107438457D01*
X136786085Y-107259885D02*
X136321800Y-107259885D01*
X136571800Y-107545600D01*
X136464657Y-107545600D01*
X136393228Y-107581314D01*
X136357514Y-107617028D01*
X136321800Y-107688457D01*
X136321800Y-107867028D01*
X136357514Y-107938457D01*
X136393228Y-107974171D01*
X136464657Y-108009885D01*
X136678942Y-108009885D01*
X136750371Y-107974171D01*
X136786085Y-107938457D01*
X136107514Y-107259885D02*
X135857514Y-108009885D01*
X135607514Y-107259885D01*
X135428942Y-107259885D02*
X134964657Y-107259885D01*
X135214657Y-107545600D01*
X135107514Y-107545600D01*
X135036085Y-107581314D01*
X135000371Y-107617028D01*
X134964657Y-107688457D01*
X134964657Y-107867028D01*
X135000371Y-107938457D01*
X135036085Y-107974171D01*
X135107514Y-108009885D01*
X135321800Y-108009885D01*
X135393228Y-107974171D01*
X135428942Y-107938457D01*
X134519028Y-107724171D02*
X133947600Y-107724171D01*
X134233314Y-108009885D02*
X134233314Y-107438457D01*
X133661885Y-107259885D02*
X133197600Y-107259885D01*
X133447600Y-107545600D01*
X133340457Y-107545600D01*
X133269028Y-107581314D01*
X133233314Y-107617028D01*
X133197600Y-107688457D01*
X133197600Y-107867028D01*
X133233314Y-107938457D01*
X133269028Y-107974171D01*
X133340457Y-108009885D01*
X133554742Y-108009885D01*
X133626171Y-107974171D01*
X133661885Y-107938457D01*
X132983314Y-107259885D02*
X132733314Y-108009885D01*
X132483314Y-107259885D01*
X132304742Y-107259885D02*
X131840457Y-107259885D01*
X132090457Y-107545600D01*
X131983314Y-107545600D01*
X131911885Y-107581314D01*
X131876171Y-107617028D01*
X131840457Y-107688457D01*
X131840457Y-107867028D01*
X131876171Y-107938457D01*
X131911885Y-107974171D01*
X131983314Y-108009885D01*
X132197600Y-108009885D01*
X132269028Y-107974171D01*
X132304742Y-107938457D01*
X58745380Y-103598742D02*
X58269190Y-103265409D01*
X58745380Y-103027314D02*
X57745380Y-103027314D01*
X57745380Y-103408266D01*
X57793000Y-103503504D01*
X57840619Y-103551123D01*
X57935857Y-103598742D01*
X58078714Y-103598742D01*
X58173952Y-103551123D01*
X58221571Y-103503504D01*
X58269190Y-103408266D01*
X58269190Y-103027314D01*
X57745380Y-103932076D02*
X57745380Y-104551123D01*
X58126333Y-104217790D01*
X58126333Y-104360647D01*
X58173952Y-104455885D01*
X58221571Y-104503504D01*
X58316809Y-104551123D01*
X58554904Y-104551123D01*
X58650142Y-104503504D01*
X58697761Y-104455885D01*
X58745380Y-104360647D01*
X58745380Y-104074933D01*
X58697761Y-103979695D01*
X58650142Y-103932076D01*
X57840619Y-104932076D02*
X57793000Y-104979695D01*
X57745380Y-105074933D01*
X57745380Y-105313028D01*
X57793000Y-105408266D01*
X57840619Y-105455885D01*
X57935857Y-105503504D01*
X58031095Y-105503504D01*
X58173952Y-105455885D01*
X58745380Y-104884457D01*
X58745380Y-105503504D01*
X58643780Y-93743542D02*
X58167590Y-93410209D01*
X58643780Y-93172114D02*
X57643780Y-93172114D01*
X57643780Y-93553066D01*
X57691400Y-93648304D01*
X57739019Y-93695923D01*
X57834257Y-93743542D01*
X57977114Y-93743542D01*
X58072352Y-93695923D01*
X58119971Y-93648304D01*
X58167590Y-93553066D01*
X58167590Y-93172114D01*
X57739019Y-94124495D02*
X57691400Y-94172114D01*
X57643780Y-94267352D01*
X57643780Y-94505447D01*
X57691400Y-94600685D01*
X57739019Y-94648304D01*
X57834257Y-94695923D01*
X57929495Y-94695923D01*
X58072352Y-94648304D01*
X58643780Y-94076876D01*
X58643780Y-94695923D01*
X58072352Y-95267352D02*
X58024733Y-95172114D01*
X57977114Y-95124495D01*
X57881876Y-95076876D01*
X57834257Y-95076876D01*
X57739019Y-95124495D01*
X57691400Y-95172114D01*
X57643780Y-95267352D01*
X57643780Y-95457828D01*
X57691400Y-95553066D01*
X57739019Y-95600685D01*
X57834257Y-95648304D01*
X57881876Y-95648304D01*
X57977114Y-95600685D01*
X58024733Y-95553066D01*
X58072352Y-95457828D01*
X58072352Y-95267352D01*
X58119971Y-95172114D01*
X58167590Y-95124495D01*
X58262828Y-95076876D01*
X58453304Y-95076876D01*
X58548542Y-95124495D01*
X58596161Y-95172114D01*
X58643780Y-95267352D01*
X58643780Y-95457828D01*
X58596161Y-95553066D01*
X58548542Y-95600685D01*
X58453304Y-95648304D01*
X58262828Y-95648304D01*
X58167590Y-95600685D01*
X58119971Y-95553066D01*
X58072352Y-95457828D01*
X74099657Y-86050380D02*
X74432990Y-85574190D01*
X74671085Y-86050380D02*
X74671085Y-85050380D01*
X74290133Y-85050380D01*
X74194895Y-85098000D01*
X74147276Y-85145619D01*
X74099657Y-85240857D01*
X74099657Y-85383714D01*
X74147276Y-85478952D01*
X74194895Y-85526571D01*
X74290133Y-85574190D01*
X74671085Y-85574190D01*
X73718704Y-85145619D02*
X73671085Y-85098000D01*
X73575847Y-85050380D01*
X73337752Y-85050380D01*
X73242514Y-85098000D01*
X73194895Y-85145619D01*
X73147276Y-85240857D01*
X73147276Y-85336095D01*
X73194895Y-85478952D01*
X73766323Y-86050380D01*
X73147276Y-86050380D01*
X72290133Y-85050380D02*
X72480609Y-85050380D01*
X72575847Y-85098000D01*
X72623466Y-85145619D01*
X72718704Y-85288476D01*
X72766323Y-85478952D01*
X72766323Y-85859904D01*
X72718704Y-85955142D01*
X72671085Y-86002761D01*
X72575847Y-86050380D01*
X72385371Y-86050380D01*
X72290133Y-86002761D01*
X72242514Y-85955142D01*
X72194895Y-85859904D01*
X72194895Y-85621809D01*
X72242514Y-85526571D01*
X72290133Y-85478952D01*
X72385371Y-85431333D01*
X72575847Y-85431333D01*
X72671085Y-85478952D01*
X72718704Y-85526571D01*
X72766323Y-85621809D01*
X74328257Y-76296780D02*
X74661590Y-75820590D01*
X74899685Y-76296780D02*
X74899685Y-75296780D01*
X74518733Y-75296780D01*
X74423495Y-75344400D01*
X74375876Y-75392019D01*
X74328257Y-75487257D01*
X74328257Y-75630114D01*
X74375876Y-75725352D01*
X74423495Y-75772971D01*
X74518733Y-75820590D01*
X74899685Y-75820590D01*
X73947304Y-75392019D02*
X73899685Y-75344400D01*
X73804447Y-75296780D01*
X73566352Y-75296780D01*
X73471114Y-75344400D01*
X73423495Y-75392019D01*
X73375876Y-75487257D01*
X73375876Y-75582495D01*
X73423495Y-75725352D01*
X73994923Y-76296780D01*
X73375876Y-76296780D01*
X72518733Y-75630114D02*
X72518733Y-76296780D01*
X72756828Y-75249161D02*
X72994923Y-75963447D01*
X72375876Y-75963447D01*
X73998057Y-66847980D02*
X74331390Y-66371790D01*
X74569485Y-66847980D02*
X74569485Y-65847980D01*
X74188533Y-65847980D01*
X74093295Y-65895600D01*
X74045676Y-65943219D01*
X73998057Y-66038457D01*
X73998057Y-66181314D01*
X74045676Y-66276552D01*
X74093295Y-66324171D01*
X74188533Y-66371790D01*
X74569485Y-66371790D01*
X73617104Y-65943219D02*
X73569485Y-65895600D01*
X73474247Y-65847980D01*
X73236152Y-65847980D01*
X73140914Y-65895600D01*
X73093295Y-65943219D01*
X73045676Y-66038457D01*
X73045676Y-66133695D01*
X73093295Y-66276552D01*
X73664723Y-66847980D01*
X73045676Y-66847980D01*
X72664723Y-65943219D02*
X72617104Y-65895600D01*
X72521866Y-65847980D01*
X72283771Y-65847980D01*
X72188533Y-65895600D01*
X72140914Y-65943219D01*
X72093295Y-66038457D01*
X72093295Y-66133695D01*
X72140914Y-66276552D01*
X72712342Y-66847980D01*
X72093295Y-66847980D01*
X70848457Y-55622180D02*
X71181790Y-55145990D01*
X71419885Y-55622180D02*
X71419885Y-54622180D01*
X71038933Y-54622180D01*
X70943695Y-54669800D01*
X70896076Y-54717419D01*
X70848457Y-54812657D01*
X70848457Y-54955514D01*
X70896076Y-55050752D01*
X70943695Y-55098371D01*
X71038933Y-55145990D01*
X71419885Y-55145990D01*
X70467504Y-54717419D02*
X70419885Y-54669800D01*
X70324647Y-54622180D01*
X70086552Y-54622180D01*
X69991314Y-54669800D01*
X69943695Y-54717419D01*
X69896076Y-54812657D01*
X69896076Y-54907895D01*
X69943695Y-55050752D01*
X70515123Y-55622180D01*
X69896076Y-55622180D01*
X69277028Y-54622180D02*
X69181790Y-54622180D01*
X69086552Y-54669800D01*
X69038933Y-54717419D01*
X68991314Y-54812657D01*
X68943695Y-55003133D01*
X68943695Y-55241228D01*
X68991314Y-55431704D01*
X69038933Y-55526942D01*
X69086552Y-55574561D01*
X69181790Y-55622180D01*
X69277028Y-55622180D01*
X69372266Y-55574561D01*
X69419885Y-55526942D01*
X69467504Y-55431704D01*
X69515123Y-55241228D01*
X69515123Y-55003133D01*
X69467504Y-54812657D01*
X69419885Y-54717419D01*
X69372266Y-54669800D01*
X69277028Y-54622180D01*
X60174119Y-113017371D02*
X60126500Y-112922133D01*
X60031261Y-112826895D01*
X59888404Y-112684038D01*
X59840785Y-112588800D01*
X59840785Y-112493561D01*
X60078880Y-112541180D02*
X60031261Y-112445942D01*
X59936023Y-112350704D01*
X59745547Y-112303085D01*
X59412214Y-112303085D01*
X59221738Y-112350704D01*
X59126500Y-112445942D01*
X59078880Y-112541180D01*
X59078880Y-112731657D01*
X59126500Y-112826895D01*
X59221738Y-112922133D01*
X59412214Y-112969752D01*
X59745547Y-112969752D01*
X59936023Y-112922133D01*
X60031261Y-112826895D01*
X60078880Y-112731657D01*
X60078880Y-112541180D01*
X60078880Y-113922133D02*
X60078880Y-113350704D01*
X60078880Y-113636419D02*
X59078880Y-113636419D01*
X59221738Y-113541180D01*
X59316976Y-113445942D01*
X59364595Y-113350704D01*
X60078880Y-114874514D02*
X60078880Y-114303085D01*
X60078880Y-114588800D02*
X59078880Y-114588800D01*
X59221738Y-114493561D01*
X59316976Y-114398323D01*
X59364595Y-114303085D01*
X69229219Y-96488261D02*
X69181600Y-96393023D01*
X69086361Y-96297785D01*
X68943504Y-96154928D01*
X68895885Y-96059690D01*
X68895885Y-95964452D01*
X69133980Y-96012071D02*
X69086361Y-95916833D01*
X68991123Y-95821595D01*
X68800647Y-95773976D01*
X68467314Y-95773976D01*
X68276838Y-95821595D01*
X68181600Y-95916833D01*
X68133980Y-96012071D01*
X68133980Y-96202547D01*
X68181600Y-96297785D01*
X68276838Y-96393023D01*
X68467314Y-96440642D01*
X68800647Y-96440642D01*
X68991123Y-96393023D01*
X69086361Y-96297785D01*
X69133980Y-96202547D01*
X69133980Y-96012071D01*
X69133980Y-96916833D02*
X69133980Y-97107309D01*
X69086361Y-97202547D01*
X69038742Y-97250166D01*
X68895885Y-97345404D01*
X68705409Y-97393023D01*
X68324457Y-97393023D01*
X68229219Y-97345404D01*
X68181600Y-97297785D01*
X68133980Y-97202547D01*
X68133980Y-97012071D01*
X68181600Y-96916833D01*
X68229219Y-96869214D01*
X68324457Y-96821595D01*
X68562552Y-96821595D01*
X68657790Y-96869214D01*
X68705409Y-96916833D01*
X68753028Y-97012071D01*
X68753028Y-97202547D01*
X68705409Y-97297785D01*
X68657790Y-97345404D01*
X68562552Y-97393023D01*
X66440038Y-85811219D02*
X66535276Y-85763600D01*
X66630514Y-85668361D01*
X66773371Y-85525504D01*
X66868609Y-85477885D01*
X66963847Y-85477885D01*
X66916228Y-85715980D02*
X67011466Y-85668361D01*
X67106704Y-85573123D01*
X67154323Y-85382647D01*
X67154323Y-85049314D01*
X67106704Y-84858838D01*
X67011466Y-84763600D01*
X66916228Y-84715980D01*
X66725752Y-84715980D01*
X66630514Y-84763600D01*
X66535276Y-84858838D01*
X66487657Y-85049314D01*
X66487657Y-85382647D01*
X66535276Y-85573123D01*
X66630514Y-85668361D01*
X66725752Y-85715980D01*
X66916228Y-85715980D01*
X66154323Y-84715980D02*
X65487657Y-84715980D01*
X65916228Y-85715980D01*
X66440038Y-76311619D02*
X66535276Y-76264000D01*
X66630514Y-76168761D01*
X66773371Y-76025904D01*
X66868609Y-75978285D01*
X66963847Y-75978285D01*
X66916228Y-76216380D02*
X67011466Y-76168761D01*
X67106704Y-76073523D01*
X67154323Y-75883047D01*
X67154323Y-75549714D01*
X67106704Y-75359238D01*
X67011466Y-75264000D01*
X66916228Y-75216380D01*
X66725752Y-75216380D01*
X66630514Y-75264000D01*
X66535276Y-75359238D01*
X66487657Y-75549714D01*
X66487657Y-75883047D01*
X66535276Y-76073523D01*
X66630514Y-76168761D01*
X66725752Y-76216380D01*
X66916228Y-76216380D01*
X65582895Y-75216380D02*
X66059085Y-75216380D01*
X66106704Y-75692571D01*
X66059085Y-75644952D01*
X65963847Y-75597333D01*
X65725752Y-75597333D01*
X65630514Y-75644952D01*
X65582895Y-75692571D01*
X65535276Y-75787809D01*
X65535276Y-76025904D01*
X65582895Y-76121142D01*
X65630514Y-76168761D01*
X65725752Y-76216380D01*
X65963847Y-76216380D01*
X66059085Y-76168761D01*
X66106704Y-76121142D01*
X66440038Y-66812019D02*
X66535276Y-66764400D01*
X66630514Y-66669161D01*
X66773371Y-66526304D01*
X66868609Y-66478685D01*
X66963847Y-66478685D01*
X66916228Y-66716780D02*
X67011466Y-66669161D01*
X67106704Y-66573923D01*
X67154323Y-66383447D01*
X67154323Y-66050114D01*
X67106704Y-65859638D01*
X67011466Y-65764400D01*
X66916228Y-65716780D01*
X66725752Y-65716780D01*
X66630514Y-65764400D01*
X66535276Y-65859638D01*
X66487657Y-66050114D01*
X66487657Y-66383447D01*
X66535276Y-66573923D01*
X66630514Y-66669161D01*
X66725752Y-66716780D01*
X66916228Y-66716780D01*
X66154323Y-65716780D02*
X65535276Y-65716780D01*
X65868609Y-66097733D01*
X65725752Y-66097733D01*
X65630514Y-66145352D01*
X65582895Y-66192971D01*
X65535276Y-66288209D01*
X65535276Y-66526304D01*
X65582895Y-66621542D01*
X65630514Y-66669161D01*
X65725752Y-66716780D01*
X66011466Y-66716780D01*
X66106704Y-66669161D01*
X66154323Y-66621542D01*
X66440038Y-57312419D02*
X66535276Y-57264800D01*
X66630514Y-57169561D01*
X66773371Y-57026704D01*
X66868609Y-56979085D01*
X66963847Y-56979085D01*
X66916228Y-57217180D02*
X67011466Y-57169561D01*
X67106704Y-57074323D01*
X67154323Y-56883847D01*
X67154323Y-56550514D01*
X67106704Y-56360038D01*
X67011466Y-56264800D01*
X66916228Y-56217180D01*
X66725752Y-56217180D01*
X66630514Y-56264800D01*
X66535276Y-56360038D01*
X66487657Y-56550514D01*
X66487657Y-56883847D01*
X66535276Y-57074323D01*
X66630514Y-57169561D01*
X66725752Y-57217180D01*
X66916228Y-57217180D01*
X65535276Y-57217180D02*
X66106704Y-57217180D01*
X65820990Y-57217180D02*
X65820990Y-56217180D01*
X65916228Y-56360038D01*
X66011466Y-56455276D01*
X66106704Y-56502895D01*
X52585880Y-107497714D02*
X51585880Y-107497714D01*
X51585880Y-107735809D01*
X51633500Y-107878666D01*
X51728738Y-107973904D01*
X51823976Y-108021523D01*
X52014452Y-108069142D01*
X52157309Y-108069142D01*
X52347785Y-108021523D01*
X52443023Y-107973904D01*
X52538261Y-107878666D01*
X52585880Y-107735809D01*
X52585880Y-107497714D01*
X52585880Y-109021523D02*
X52585880Y-108450095D01*
X52585880Y-108735809D02*
X51585880Y-108735809D01*
X51728738Y-108640571D01*
X51823976Y-108545333D01*
X51871595Y-108450095D01*
X51585880Y-109354857D02*
X51585880Y-110021523D01*
X52585880Y-109592952D01*
X52598580Y-97985414D02*
X51598580Y-97985414D01*
X51598580Y-98223509D01*
X51646200Y-98366366D01*
X51741438Y-98461604D01*
X51836676Y-98509223D01*
X52027152Y-98556842D01*
X52170009Y-98556842D01*
X52360485Y-98509223D01*
X52455723Y-98461604D01*
X52550961Y-98366366D01*
X52598580Y-98223509D01*
X52598580Y-97985414D01*
X52598580Y-99509223D02*
X52598580Y-98937795D01*
X52598580Y-99223509D02*
X51598580Y-99223509D01*
X51741438Y-99128271D01*
X51836676Y-99033033D01*
X51884295Y-98937795D01*
X51598580Y-100413985D02*
X51598580Y-99937795D01*
X52074771Y-99890176D01*
X52027152Y-99937795D01*
X51979533Y-100033033D01*
X51979533Y-100271128D01*
X52027152Y-100366366D01*
X52074771Y-100413985D01*
X52170009Y-100461604D01*
X52408104Y-100461604D01*
X52503342Y-100413985D01*
X52550961Y-100366366D01*
X52598580Y-100271128D01*
X52598580Y-100033033D01*
X52550961Y-99937795D01*
X52503342Y-99890176D01*
X52712880Y-88549314D02*
X51712880Y-88549314D01*
X51712880Y-88787409D01*
X51760500Y-88930266D01*
X51855738Y-89025504D01*
X51950976Y-89073123D01*
X52141452Y-89120742D01*
X52284309Y-89120742D01*
X52474785Y-89073123D01*
X52570023Y-89025504D01*
X52665261Y-88930266D01*
X52712880Y-88787409D01*
X52712880Y-88549314D01*
X52712880Y-90073123D02*
X52712880Y-89501695D01*
X52712880Y-89787409D02*
X51712880Y-89787409D01*
X51855738Y-89692171D01*
X51950976Y-89596933D01*
X51998595Y-89501695D01*
X51712880Y-90406457D02*
X51712880Y-91025504D01*
X52093833Y-90692171D01*
X52093833Y-90835028D01*
X52141452Y-90930266D01*
X52189071Y-90977885D01*
X52284309Y-91025504D01*
X52522404Y-91025504D01*
X52617642Y-90977885D01*
X52665261Y-90930266D01*
X52712880Y-90835028D01*
X52712880Y-90549314D01*
X52665261Y-90454076D01*
X52617642Y-90406457D01*
X52738280Y-79062414D02*
X51738280Y-79062414D01*
X51738280Y-79300509D01*
X51785900Y-79443366D01*
X51881138Y-79538604D01*
X51976376Y-79586223D01*
X52166852Y-79633842D01*
X52309709Y-79633842D01*
X52500185Y-79586223D01*
X52595423Y-79538604D01*
X52690661Y-79443366D01*
X52738280Y-79300509D01*
X52738280Y-79062414D01*
X52738280Y-80586223D02*
X52738280Y-80014795D01*
X52738280Y-80300509D02*
X51738280Y-80300509D01*
X51881138Y-80205271D01*
X51976376Y-80110033D01*
X52023995Y-80014795D01*
X52738280Y-81538604D02*
X52738280Y-80967176D01*
X52738280Y-81252890D02*
X51738280Y-81252890D01*
X51881138Y-81157652D01*
X51976376Y-81062414D01*
X52023995Y-80967176D01*
X52776380Y-70000904D02*
X51776380Y-70000904D01*
X51776380Y-70239000D01*
X51824000Y-70381857D01*
X51919238Y-70477095D01*
X52014476Y-70524714D01*
X52204952Y-70572333D01*
X52347809Y-70572333D01*
X52538285Y-70524714D01*
X52633523Y-70477095D01*
X52728761Y-70381857D01*
X52776380Y-70239000D01*
X52776380Y-70000904D01*
X52204952Y-71143761D02*
X52157333Y-71048523D01*
X52109714Y-71000904D01*
X52014476Y-70953285D01*
X51966857Y-70953285D01*
X51871619Y-71000904D01*
X51824000Y-71048523D01*
X51776380Y-71143761D01*
X51776380Y-71334238D01*
X51824000Y-71429476D01*
X51871619Y-71477095D01*
X51966857Y-71524714D01*
X52014476Y-71524714D01*
X52109714Y-71477095D01*
X52157333Y-71429476D01*
X52204952Y-71334238D01*
X52204952Y-71143761D01*
X52252571Y-71048523D01*
X52300190Y-71000904D01*
X52395428Y-70953285D01*
X52585904Y-70953285D01*
X52681142Y-71000904D01*
X52728761Y-71048523D01*
X52776380Y-71143761D01*
X52776380Y-71334238D01*
X52728761Y-71429476D01*
X52681142Y-71477095D01*
X52585904Y-71524714D01*
X52395428Y-71524714D01*
X52300190Y-71477095D01*
X52252571Y-71429476D01*
X52204952Y-71334238D01*
X52776380Y-60552104D02*
X51776380Y-60552104D01*
X51776380Y-60790200D01*
X51824000Y-60933057D01*
X51919238Y-61028295D01*
X52014476Y-61075914D01*
X52204952Y-61123533D01*
X52347809Y-61123533D01*
X52538285Y-61075914D01*
X52633523Y-61028295D01*
X52728761Y-60933057D01*
X52776380Y-60790200D01*
X52776380Y-60552104D01*
X51776380Y-61980676D02*
X51776380Y-61790200D01*
X51824000Y-61694961D01*
X51871619Y-61647342D01*
X52014476Y-61552104D01*
X52204952Y-61504485D01*
X52585904Y-61504485D01*
X52681142Y-61552104D01*
X52728761Y-61599723D01*
X52776380Y-61694961D01*
X52776380Y-61885438D01*
X52728761Y-61980676D01*
X52681142Y-62028295D01*
X52585904Y-62075914D01*
X52347809Y-62075914D01*
X52252571Y-62028295D01*
X52204952Y-61980676D01*
X52157333Y-61885438D01*
X52157333Y-61694961D01*
X52204952Y-61599723D01*
X52252571Y-61552104D01*
X52347809Y-61504485D01*
X125877580Y-64200209D02*
X124877580Y-64200209D01*
X125782342Y-65247828D02*
X125829961Y-65200209D01*
X125877580Y-65057352D01*
X125877580Y-64962114D01*
X125829961Y-64819257D01*
X125734723Y-64724019D01*
X125639485Y-64676400D01*
X125449009Y-64628780D01*
X125306152Y-64628780D01*
X125115676Y-64676400D01*
X125020438Y-64724019D01*
X124925200Y-64819257D01*
X124877580Y-64962114D01*
X124877580Y-65057352D01*
X124925200Y-65200209D01*
X124972819Y-65247828D01*
X125877580Y-66200209D02*
X125877580Y-65628780D01*
X125877580Y-65914495D02*
X124877580Y-65914495D01*
X125020438Y-65819257D01*
X125115676Y-65724019D01*
X125163295Y-65628780D01*
X92400380Y-77004942D02*
X91924190Y-76671609D01*
X92400380Y-76433514D02*
X91400380Y-76433514D01*
X91400380Y-76814466D01*
X91448000Y-76909704D01*
X91495619Y-76957323D01*
X91590857Y-77004942D01*
X91733714Y-77004942D01*
X91828952Y-76957323D01*
X91876571Y-76909704D01*
X91924190Y-76814466D01*
X91924190Y-76433514D01*
X92400380Y-77957323D02*
X92400380Y-77385895D01*
X92400380Y-77671609D02*
X91400380Y-77671609D01*
X91543238Y-77576371D01*
X91638476Y-77481133D01*
X91686095Y-77385895D01*
X91400380Y-78290657D02*
X91400380Y-78957323D01*
X92400380Y-78528752D01*
X95226457Y-78393485D02*
X95226457Y-77643485D01*
X94976457Y-78179200D01*
X94726457Y-77643485D01*
X94726457Y-78393485D01*
X93940742Y-78322057D02*
X93976457Y-78357771D01*
X94083600Y-78393485D01*
X94155028Y-78393485D01*
X94262171Y-78357771D01*
X94333600Y-78286342D01*
X94369314Y-78214914D01*
X94405028Y-78072057D01*
X94405028Y-77964914D01*
X94369314Y-77822057D01*
X94333600Y-77750628D01*
X94262171Y-77679200D01*
X94155028Y-77643485D01*
X94083600Y-77643485D01*
X93976457Y-77679200D01*
X93940742Y-77714914D01*
X93476457Y-77643485D02*
X93333600Y-77643485D01*
X93262171Y-77679200D01*
X93190742Y-77750628D01*
X93155028Y-77893485D01*
X93155028Y-78143485D01*
X93190742Y-78286342D01*
X93262171Y-78357771D01*
X93333600Y-78393485D01*
X93476457Y-78393485D01*
X93547885Y-78357771D01*
X93619314Y-78286342D01*
X93655028Y-78143485D01*
X93655028Y-77893485D01*
X93619314Y-77750628D01*
X93547885Y-77679200D01*
X93476457Y-77643485D01*
X88691980Y-77081142D02*
X88215790Y-76747809D01*
X88691980Y-76509714D02*
X87691980Y-76509714D01*
X87691980Y-76890666D01*
X87739600Y-76985904D01*
X87787219Y-77033523D01*
X87882457Y-77081142D01*
X88025314Y-77081142D01*
X88120552Y-77033523D01*
X88168171Y-76985904D01*
X88215790Y-76890666D01*
X88215790Y-76509714D01*
X88691980Y-78033523D02*
X88691980Y-77462095D01*
X88691980Y-77747809D02*
X87691980Y-77747809D01*
X87834838Y-77652571D01*
X87930076Y-77557333D01*
X87977695Y-77462095D01*
X88120552Y-78604952D02*
X88072933Y-78509714D01*
X88025314Y-78462095D01*
X87930076Y-78414476D01*
X87882457Y-78414476D01*
X87787219Y-78462095D01*
X87739600Y-78509714D01*
X87691980Y-78604952D01*
X87691980Y-78795428D01*
X87739600Y-78890666D01*
X87787219Y-78938285D01*
X87882457Y-78985904D01*
X87930076Y-78985904D01*
X88025314Y-78938285D01*
X88072933Y-78890666D01*
X88120552Y-78795428D01*
X88120552Y-78604952D01*
X88168171Y-78509714D01*
X88215790Y-78462095D01*
X88311028Y-78414476D01*
X88501504Y-78414476D01*
X88596742Y-78462095D01*
X88644361Y-78509714D01*
X88691980Y-78604952D01*
X88691980Y-78795428D01*
X88644361Y-78890666D01*
X88596742Y-78938285D01*
X88501504Y-78985904D01*
X88311028Y-78985904D01*
X88215790Y-78938285D01*
X88168171Y-78890666D01*
X88120552Y-78795428D01*
X90425542Y-77055742D02*
X90473161Y-77008123D01*
X90520780Y-76865266D01*
X90520780Y-76770028D01*
X90473161Y-76627171D01*
X90377923Y-76531933D01*
X90282685Y-76484314D01*
X90092209Y-76436695D01*
X89949352Y-76436695D01*
X89758876Y-76484314D01*
X89663638Y-76531933D01*
X89568400Y-76627171D01*
X89520780Y-76770028D01*
X89520780Y-76865266D01*
X89568400Y-77008123D01*
X89616019Y-77055742D01*
X90520780Y-78008123D02*
X90520780Y-77436695D01*
X90520780Y-77722409D02*
X89520780Y-77722409D01*
X89663638Y-77627171D01*
X89758876Y-77531933D01*
X89806495Y-77436695D01*
X89520780Y-78341457D02*
X89520780Y-78960504D01*
X89901733Y-78627171D01*
X89901733Y-78770028D01*
X89949352Y-78865266D01*
X89996971Y-78912885D01*
X90092209Y-78960504D01*
X90330304Y-78960504D01*
X90425542Y-78912885D01*
X90473161Y-78865266D01*
X90520780Y-78770028D01*
X90520780Y-78484314D01*
X90473161Y-78389076D01*
X90425542Y-78341457D01*
X99112342Y-78097142D02*
X99159961Y-78049523D01*
X99207580Y-77906666D01*
X99207580Y-77811428D01*
X99159961Y-77668571D01*
X99064723Y-77573333D01*
X98969485Y-77525714D01*
X98779009Y-77478095D01*
X98636152Y-77478095D01*
X98445676Y-77525714D01*
X98350438Y-77573333D01*
X98255200Y-77668571D01*
X98207580Y-77811428D01*
X98207580Y-77906666D01*
X98255200Y-78049523D01*
X98302819Y-78097142D01*
X99207580Y-79049523D02*
X99207580Y-78478095D01*
X99207580Y-78763809D02*
X98207580Y-78763809D01*
X98350438Y-78668571D01*
X98445676Y-78573333D01*
X98493295Y-78478095D01*
X98302819Y-79430476D02*
X98255200Y-79478095D01*
X98207580Y-79573333D01*
X98207580Y-79811428D01*
X98255200Y-79906666D01*
X98302819Y-79954285D01*
X98398057Y-80001904D01*
X98493295Y-80001904D01*
X98636152Y-79954285D01*
X99207580Y-79382857D01*
X99207580Y-80001904D01*
X97378780Y-78097142D02*
X96902590Y-77763809D01*
X97378780Y-77525714D02*
X96378780Y-77525714D01*
X96378780Y-77906666D01*
X96426400Y-78001904D01*
X96474019Y-78049523D01*
X96569257Y-78097142D01*
X96712114Y-78097142D01*
X96807352Y-78049523D01*
X96854971Y-78001904D01*
X96902590Y-77906666D01*
X96902590Y-77525714D01*
X97378780Y-79049523D02*
X97378780Y-78478095D01*
X97378780Y-78763809D02*
X96378780Y-78763809D01*
X96521638Y-78668571D01*
X96616876Y-78573333D01*
X96664495Y-78478095D01*
X96378780Y-79906666D02*
X96378780Y-79716190D01*
X96426400Y-79620952D01*
X96474019Y-79573333D01*
X96616876Y-79478095D01*
X96807352Y-79430476D01*
X97188304Y-79430476D01*
X97283542Y-79478095D01*
X97331161Y-79525714D01*
X97378780Y-79620952D01*
X97378780Y-79811428D01*
X97331161Y-79906666D01*
X97283542Y-79954285D01*
X97188304Y-80001904D01*
X96950209Y-80001904D01*
X96854971Y-79954285D01*
X96807352Y-79906666D01*
X96759733Y-79811428D01*
X96759733Y-79620952D01*
X96807352Y-79525714D01*
X96854971Y-79478095D01*
X96950209Y-79430476D01*
X90569990Y-88596790D02*
X90569990Y-89072980D01*
X90903323Y-88072980D02*
X90569990Y-88596790D01*
X90236657Y-88072980D01*
X89950942Y-88168219D02*
X89903323Y-88120600D01*
X89808085Y-88072980D01*
X89569990Y-88072980D01*
X89474752Y-88120600D01*
X89427133Y-88168219D01*
X89379514Y-88263457D01*
X89379514Y-88358695D01*
X89427133Y-88501552D01*
X89998561Y-89072980D01*
X89379514Y-89072980D01*
X108669057Y-99359980D02*
X109002390Y-98883790D01*
X109240485Y-99359980D02*
X109240485Y-98359980D01*
X108859533Y-98359980D01*
X108764295Y-98407600D01*
X108716676Y-98455219D01*
X108669057Y-98550457D01*
X108669057Y-98693314D01*
X108716676Y-98788552D01*
X108764295Y-98836171D01*
X108859533Y-98883790D01*
X109240485Y-98883790D01*
X107811914Y-98693314D02*
X107811914Y-99359980D01*
X108050009Y-98312361D02*
X108288104Y-99026647D01*
X107669057Y-99026647D01*
X107383342Y-98359980D02*
X106764295Y-98359980D01*
X107097628Y-98740933D01*
X106954771Y-98740933D01*
X106859533Y-98788552D01*
X106811914Y-98836171D01*
X106764295Y-98931409D01*
X106764295Y-99169504D01*
X106811914Y-99264742D01*
X106859533Y-99312361D01*
X106954771Y-99359980D01*
X107240485Y-99359980D01*
X107335723Y-99312361D01*
X107383342Y-99264742D01*
X108694457Y-100706180D02*
X109027790Y-100229990D01*
X109265885Y-100706180D02*
X109265885Y-99706180D01*
X108884933Y-99706180D01*
X108789695Y-99753800D01*
X108742076Y-99801419D01*
X108694457Y-99896657D01*
X108694457Y-100039514D01*
X108742076Y-100134752D01*
X108789695Y-100182371D01*
X108884933Y-100229990D01*
X109265885Y-100229990D01*
X107837314Y-100039514D02*
X107837314Y-100706180D01*
X108075409Y-99658561D02*
X108313504Y-100372847D01*
X107694457Y-100372847D01*
X107123028Y-99706180D02*
X107027790Y-99706180D01*
X106932552Y-99753800D01*
X106884933Y-99801419D01*
X106837314Y-99896657D01*
X106789695Y-100087133D01*
X106789695Y-100325228D01*
X106837314Y-100515704D01*
X106884933Y-100610942D01*
X106932552Y-100658561D01*
X107027790Y-100706180D01*
X107123028Y-100706180D01*
X107218266Y-100658561D01*
X107265885Y-100610942D01*
X107313504Y-100515704D01*
X107361123Y-100325228D01*
X107361123Y-100087133D01*
X107313504Y-99896657D01*
X107265885Y-99801419D01*
X107218266Y-99753800D01*
X107123028Y-99706180D01*
X112148857Y-99334580D02*
X112482190Y-98858390D01*
X112720285Y-99334580D02*
X112720285Y-98334580D01*
X112339333Y-98334580D01*
X112244095Y-98382200D01*
X112196476Y-98429819D01*
X112148857Y-98525057D01*
X112148857Y-98667914D01*
X112196476Y-98763152D01*
X112244095Y-98810771D01*
X112339333Y-98858390D01*
X112720285Y-98858390D01*
X111291714Y-98667914D02*
X111291714Y-99334580D01*
X111529809Y-98286961D02*
X111767904Y-99001247D01*
X111148857Y-99001247D01*
X110863142Y-98334580D02*
X110196476Y-98334580D01*
X110625047Y-99334580D01*
X119286257Y-99182180D02*
X119619590Y-98705990D01*
X119857685Y-99182180D02*
X119857685Y-98182180D01*
X119476733Y-98182180D01*
X119381495Y-98229800D01*
X119333876Y-98277419D01*
X119286257Y-98372657D01*
X119286257Y-98515514D01*
X119333876Y-98610752D01*
X119381495Y-98658371D01*
X119476733Y-98705990D01*
X119857685Y-98705990D01*
X118429114Y-98515514D02*
X118429114Y-99182180D01*
X118667209Y-98134561D02*
X118905304Y-98848847D01*
X118286257Y-98848847D01*
X117476733Y-98182180D02*
X117667209Y-98182180D01*
X117762447Y-98229800D01*
X117810066Y-98277419D01*
X117905304Y-98420276D01*
X117952923Y-98610752D01*
X117952923Y-98991704D01*
X117905304Y-99086942D01*
X117857685Y-99134561D01*
X117762447Y-99182180D01*
X117571971Y-99182180D01*
X117476733Y-99134561D01*
X117429114Y-99086942D01*
X117381495Y-98991704D01*
X117381495Y-98753609D01*
X117429114Y-98658371D01*
X117476733Y-98610752D01*
X117571971Y-98563133D01*
X117762447Y-98563133D01*
X117857685Y-98610752D01*
X117905304Y-98658371D01*
X117952923Y-98753609D01*
X111894857Y-100604580D02*
X112228190Y-100128390D01*
X112466285Y-100604580D02*
X112466285Y-99604580D01*
X112085333Y-99604580D01*
X111990095Y-99652200D01*
X111942476Y-99699819D01*
X111894857Y-99795057D01*
X111894857Y-99937914D01*
X111942476Y-100033152D01*
X111990095Y-100080771D01*
X112085333Y-100128390D01*
X112466285Y-100128390D01*
X111037714Y-99937914D02*
X111037714Y-100604580D01*
X111275809Y-99556961D02*
X111513904Y-100271247D01*
X110894857Y-100271247D01*
X110037714Y-99604580D02*
X110513904Y-99604580D01*
X110561523Y-100080771D01*
X110513904Y-100033152D01*
X110418666Y-99985533D01*
X110180571Y-99985533D01*
X110085333Y-100033152D01*
X110037714Y-100080771D01*
X109990095Y-100176009D01*
X109990095Y-100414104D01*
X110037714Y-100509342D01*
X110085333Y-100556961D01*
X110180571Y-100604580D01*
X110418666Y-100604580D01*
X110513904Y-100556961D01*
X110561523Y-100509342D01*
X119337057Y-100452180D02*
X119670390Y-99975990D01*
X119908485Y-100452180D02*
X119908485Y-99452180D01*
X119527533Y-99452180D01*
X119432295Y-99499800D01*
X119384676Y-99547419D01*
X119337057Y-99642657D01*
X119337057Y-99785514D01*
X119384676Y-99880752D01*
X119432295Y-99928371D01*
X119527533Y-99975990D01*
X119908485Y-99975990D01*
X118479914Y-99785514D02*
X118479914Y-100452180D01*
X118718009Y-99404561D02*
X118956104Y-100118847D01*
X118337057Y-100118847D01*
X117527533Y-99785514D02*
X117527533Y-100452180D01*
X117765628Y-99404561D02*
X118003723Y-100118847D01*
X117384676Y-100118847D01*
X115857257Y-99080580D02*
X116190590Y-98604390D01*
X116428685Y-99080580D02*
X116428685Y-98080580D01*
X116047733Y-98080580D01*
X115952495Y-98128200D01*
X115904876Y-98175819D01*
X115857257Y-98271057D01*
X115857257Y-98413914D01*
X115904876Y-98509152D01*
X115952495Y-98556771D01*
X116047733Y-98604390D01*
X116428685Y-98604390D01*
X115000114Y-98413914D02*
X115000114Y-99080580D01*
X115238209Y-98032961D02*
X115476304Y-98747247D01*
X114857257Y-98747247D01*
X114523923Y-98175819D02*
X114476304Y-98128200D01*
X114381066Y-98080580D01*
X114142971Y-98080580D01*
X114047733Y-98128200D01*
X114000114Y-98175819D01*
X113952495Y-98271057D01*
X113952495Y-98366295D01*
X114000114Y-98509152D01*
X114571542Y-99080580D01*
X113952495Y-99080580D01*
X122562857Y-99131380D02*
X122896190Y-98655190D01*
X123134285Y-99131380D02*
X123134285Y-98131380D01*
X122753333Y-98131380D01*
X122658095Y-98179000D01*
X122610476Y-98226619D01*
X122562857Y-98321857D01*
X122562857Y-98464714D01*
X122610476Y-98559952D01*
X122658095Y-98607571D01*
X122753333Y-98655190D01*
X123134285Y-98655190D01*
X121705714Y-98464714D02*
X121705714Y-99131380D01*
X121943809Y-98083761D02*
X122181904Y-98798047D01*
X121562857Y-98798047D01*
X120658095Y-99131380D02*
X121229523Y-99131380D01*
X120943809Y-99131380D02*
X120943809Y-98131380D01*
X121039047Y-98274238D01*
X121134285Y-98369476D01*
X121229523Y-98417095D01*
X115361980Y-100017342D02*
X114885790Y-99684009D01*
X115361980Y-99445914D02*
X114361980Y-99445914D01*
X114361980Y-99826866D01*
X114409600Y-99922104D01*
X114457219Y-99969723D01*
X114552457Y-100017342D01*
X114695314Y-100017342D01*
X114790552Y-99969723D01*
X114838171Y-99922104D01*
X114885790Y-99826866D01*
X114885790Y-99445914D01*
X114361980Y-100350676D02*
X114361980Y-100969723D01*
X114742933Y-100636390D01*
X114742933Y-100779247D01*
X114790552Y-100874485D01*
X114838171Y-100922104D01*
X114933409Y-100969723D01*
X115171504Y-100969723D01*
X115266742Y-100922104D01*
X115314361Y-100874485D01*
X115361980Y-100779247D01*
X115361980Y-100493533D01*
X115314361Y-100398295D01*
X115266742Y-100350676D01*
X115361980Y-101445914D02*
X115361980Y-101636390D01*
X115314361Y-101731628D01*
X115266742Y-101779247D01*
X115123885Y-101874485D01*
X114933409Y-101922104D01*
X114552457Y-101922104D01*
X114457219Y-101874485D01*
X114409600Y-101826866D01*
X114361980Y-101731628D01*
X114361980Y-101541152D01*
X114409600Y-101445914D01*
X114457219Y-101398295D01*
X114552457Y-101350676D01*
X114790552Y-101350676D01*
X114885790Y-101398295D01*
X114933409Y-101445914D01*
X114981028Y-101541152D01*
X114981028Y-101731628D01*
X114933409Y-101826866D01*
X114885790Y-101874485D01*
X114790552Y-101922104D01*
X122588257Y-100452180D02*
X122921590Y-99975990D01*
X123159685Y-100452180D02*
X123159685Y-99452180D01*
X122778733Y-99452180D01*
X122683495Y-99499800D01*
X122635876Y-99547419D01*
X122588257Y-99642657D01*
X122588257Y-99785514D01*
X122635876Y-99880752D01*
X122683495Y-99928371D01*
X122778733Y-99975990D01*
X123159685Y-99975990D01*
X122254923Y-99452180D02*
X121635876Y-99452180D01*
X121969209Y-99833133D01*
X121826352Y-99833133D01*
X121731114Y-99880752D01*
X121683495Y-99928371D01*
X121635876Y-100023609D01*
X121635876Y-100261704D01*
X121683495Y-100356942D01*
X121731114Y-100404561D01*
X121826352Y-100452180D01*
X122112066Y-100452180D01*
X122207304Y-100404561D01*
X122254923Y-100356942D01*
X121064447Y-99880752D02*
X121159685Y-99833133D01*
X121207304Y-99785514D01*
X121254923Y-99690276D01*
X121254923Y-99642657D01*
X121207304Y-99547419D01*
X121159685Y-99499800D01*
X121064447Y-99452180D01*
X120873971Y-99452180D01*
X120778733Y-99499800D01*
X120731114Y-99547419D01*
X120683495Y-99642657D01*
X120683495Y-99690276D01*
X120731114Y-99785514D01*
X120778733Y-99833133D01*
X120873971Y-99880752D01*
X121064447Y-99880752D01*
X121159685Y-99928371D01*
X121207304Y-99975990D01*
X121254923Y-100071228D01*
X121254923Y-100261704D01*
X121207304Y-100356942D01*
X121159685Y-100404561D01*
X121064447Y-100452180D01*
X120873971Y-100452180D01*
X120778733Y-100404561D01*
X120731114Y-100356942D01*
X120683495Y-100261704D01*
X120683495Y-100071228D01*
X120731114Y-99975990D01*
X120778733Y-99928371D01*
X120873971Y-99880752D01*
X108402380Y-73880742D02*
X107926190Y-73547409D01*
X108402380Y-73309314D02*
X107402380Y-73309314D01*
X107402380Y-73690266D01*
X107450000Y-73785504D01*
X107497619Y-73833123D01*
X107592857Y-73880742D01*
X107735714Y-73880742D01*
X107830952Y-73833123D01*
X107878571Y-73785504D01*
X107926190Y-73690266D01*
X107926190Y-73309314D01*
X107402380Y-74214076D02*
X107402380Y-74833123D01*
X107783333Y-74499790D01*
X107783333Y-74642647D01*
X107830952Y-74737885D01*
X107878571Y-74785504D01*
X107973809Y-74833123D01*
X108211904Y-74833123D01*
X108307142Y-74785504D01*
X108354761Y-74737885D01*
X108402380Y-74642647D01*
X108402380Y-74356933D01*
X108354761Y-74261695D01*
X108307142Y-74214076D01*
X107402380Y-75166457D02*
X107402380Y-75833123D01*
X108402380Y-75404552D01*
X116022380Y-73829942D02*
X115546190Y-73496609D01*
X116022380Y-73258514D02*
X115022380Y-73258514D01*
X115022380Y-73639466D01*
X115070000Y-73734704D01*
X115117619Y-73782323D01*
X115212857Y-73829942D01*
X115355714Y-73829942D01*
X115450952Y-73782323D01*
X115498571Y-73734704D01*
X115546190Y-73639466D01*
X115546190Y-73258514D01*
X115022380Y-74163276D02*
X115022380Y-74782323D01*
X115403333Y-74448990D01*
X115403333Y-74591847D01*
X115450952Y-74687085D01*
X115498571Y-74734704D01*
X115593809Y-74782323D01*
X115831904Y-74782323D01*
X115927142Y-74734704D01*
X115974761Y-74687085D01*
X116022380Y-74591847D01*
X116022380Y-74306133D01*
X115974761Y-74210895D01*
X115927142Y-74163276D01*
X115022380Y-75639466D02*
X115022380Y-75448990D01*
X115070000Y-75353752D01*
X115117619Y-75306133D01*
X115260476Y-75210895D01*
X115450952Y-75163276D01*
X115831904Y-75163276D01*
X115927142Y-75210895D01*
X115974761Y-75258514D01*
X116022380Y-75353752D01*
X116022380Y-75544228D01*
X115974761Y-75639466D01*
X115927142Y-75687085D01*
X115831904Y-75734704D01*
X115593809Y-75734704D01*
X115498571Y-75687085D01*
X115450952Y-75639466D01*
X115403333Y-75544228D01*
X115403333Y-75353752D01*
X115450952Y-75258514D01*
X115498571Y-75210895D01*
X115593809Y-75163276D01*
X110942380Y-73855342D02*
X110466190Y-73522009D01*
X110942380Y-73283914D02*
X109942380Y-73283914D01*
X109942380Y-73664866D01*
X109990000Y-73760104D01*
X110037619Y-73807723D01*
X110132857Y-73855342D01*
X110275714Y-73855342D01*
X110370952Y-73807723D01*
X110418571Y-73760104D01*
X110466190Y-73664866D01*
X110466190Y-73283914D01*
X109942380Y-74188676D02*
X109942380Y-74807723D01*
X110323333Y-74474390D01*
X110323333Y-74617247D01*
X110370952Y-74712485D01*
X110418571Y-74760104D01*
X110513809Y-74807723D01*
X110751904Y-74807723D01*
X110847142Y-74760104D01*
X110894761Y-74712485D01*
X110942380Y-74617247D01*
X110942380Y-74331533D01*
X110894761Y-74236295D01*
X110847142Y-74188676D01*
X109942380Y-75712485D02*
X109942380Y-75236295D01*
X110418571Y-75188676D01*
X110370952Y-75236295D01*
X110323333Y-75331533D01*
X110323333Y-75569628D01*
X110370952Y-75664866D01*
X110418571Y-75712485D01*
X110513809Y-75760104D01*
X110751904Y-75760104D01*
X110847142Y-75712485D01*
X110894761Y-75664866D01*
X110942380Y-75569628D01*
X110942380Y-75331533D01*
X110894761Y-75236295D01*
X110847142Y-75188676D01*
X118536980Y-73829942D02*
X118060790Y-73496609D01*
X118536980Y-73258514D02*
X117536980Y-73258514D01*
X117536980Y-73639466D01*
X117584600Y-73734704D01*
X117632219Y-73782323D01*
X117727457Y-73829942D01*
X117870314Y-73829942D01*
X117965552Y-73782323D01*
X118013171Y-73734704D01*
X118060790Y-73639466D01*
X118060790Y-73258514D01*
X117536980Y-74163276D02*
X117536980Y-74782323D01*
X117917933Y-74448990D01*
X117917933Y-74591847D01*
X117965552Y-74687085D01*
X118013171Y-74734704D01*
X118108409Y-74782323D01*
X118346504Y-74782323D01*
X118441742Y-74734704D01*
X118489361Y-74687085D01*
X118536980Y-74591847D01*
X118536980Y-74306133D01*
X118489361Y-74210895D01*
X118441742Y-74163276D01*
X117870314Y-75639466D02*
X118536980Y-75639466D01*
X117489361Y-75401371D02*
X118203647Y-75163276D01*
X118203647Y-75782323D01*
X113533180Y-73880742D02*
X113056990Y-73547409D01*
X113533180Y-73309314D02*
X112533180Y-73309314D01*
X112533180Y-73690266D01*
X112580800Y-73785504D01*
X112628419Y-73833123D01*
X112723657Y-73880742D01*
X112866514Y-73880742D01*
X112961752Y-73833123D01*
X113009371Y-73785504D01*
X113056990Y-73690266D01*
X113056990Y-73309314D01*
X112533180Y-74214076D02*
X112533180Y-74833123D01*
X112914133Y-74499790D01*
X112914133Y-74642647D01*
X112961752Y-74737885D01*
X113009371Y-74785504D01*
X113104609Y-74833123D01*
X113342704Y-74833123D01*
X113437942Y-74785504D01*
X113485561Y-74737885D01*
X113533180Y-74642647D01*
X113533180Y-74356933D01*
X113485561Y-74261695D01*
X113437942Y-74214076D01*
X113533180Y-75785504D02*
X113533180Y-75214076D01*
X113533180Y-75499790D02*
X112533180Y-75499790D01*
X112676038Y-75404552D01*
X112771276Y-75309314D01*
X112818895Y-75214076D01*
X121127780Y-73779142D02*
X120651590Y-73445809D01*
X121127780Y-73207714D02*
X120127780Y-73207714D01*
X120127780Y-73588666D01*
X120175400Y-73683904D01*
X120223019Y-73731523D01*
X120318257Y-73779142D01*
X120461114Y-73779142D01*
X120556352Y-73731523D01*
X120603971Y-73683904D01*
X120651590Y-73588666D01*
X120651590Y-73207714D01*
X120127780Y-74112476D02*
X120127780Y-74731523D01*
X120508733Y-74398190D01*
X120508733Y-74541047D01*
X120556352Y-74636285D01*
X120603971Y-74683904D01*
X120699209Y-74731523D01*
X120937304Y-74731523D01*
X121032542Y-74683904D01*
X121080161Y-74636285D01*
X121127780Y-74541047D01*
X121127780Y-74255333D01*
X121080161Y-74160095D01*
X121032542Y-74112476D01*
X120127780Y-75350571D02*
X120127780Y-75445809D01*
X120175400Y-75541047D01*
X120223019Y-75588666D01*
X120318257Y-75636285D01*
X120508733Y-75683904D01*
X120746828Y-75683904D01*
X120937304Y-75636285D01*
X121032542Y-75588666D01*
X121080161Y-75541047D01*
X121127780Y-75445809D01*
X121127780Y-75350571D01*
X121080161Y-75255333D01*
X121032542Y-75207714D01*
X120937304Y-75160095D01*
X120746828Y-75112476D01*
X120508733Y-75112476D01*
X120318257Y-75160095D01*
X120223019Y-75207714D01*
X120175400Y-75255333D01*
X120127780Y-75350571D01*
D13*
X77419152Y-52150200D02*
X77466771Y-52126390D01*
X77538200Y-52126390D01*
X77609628Y-52150200D01*
X77657247Y-52197819D01*
X77681057Y-52245438D01*
X77704866Y-52340676D01*
X77704866Y-52412104D01*
X77681057Y-52507342D01*
X77657247Y-52554961D01*
X77609628Y-52602580D01*
X77538200Y-52626390D01*
X77490580Y-52626390D01*
X77419152Y-52602580D01*
X77395342Y-52578771D01*
X77395342Y-52412104D01*
X77490580Y-52412104D01*
X77181057Y-52626390D02*
X77181057Y-52126390D01*
X76895342Y-52626390D01*
X76895342Y-52126390D01*
X76657247Y-52626390D02*
X76657247Y-52126390D01*
X76538200Y-52126390D01*
X76466771Y-52150200D01*
X76419152Y-52197819D01*
X76395342Y-52245438D01*
X76371533Y-52340676D01*
X76371533Y-52412104D01*
X76395342Y-52507342D01*
X76419152Y-52554961D01*
X76466771Y-52602580D01*
X76538200Y-52626390D01*
X76657247Y-52626390D01*
X79714647Y-52126390D02*
X79714647Y-52483533D01*
X79738457Y-52554961D01*
X79786076Y-52602580D01*
X79857504Y-52626390D01*
X79905123Y-52626390D01*
X79547980Y-52126390D02*
X79262266Y-52126390D01*
X79405123Y-52626390D02*
X79405123Y-52126390D01*
X78809885Y-52578771D02*
X78833695Y-52602580D01*
X78905123Y-52626390D01*
X78952742Y-52626390D01*
X79024171Y-52602580D01*
X79071790Y-52554961D01*
X79095600Y-52507342D01*
X79119409Y-52412104D01*
X79119409Y-52340676D01*
X79095600Y-52245438D01*
X79071790Y-52197819D01*
X79024171Y-52150200D01*
X78952742Y-52126390D01*
X78905123Y-52126390D01*
X78833695Y-52150200D01*
X78809885Y-52174009D01*
X78595600Y-52626390D02*
X78595600Y-52126390D01*
X78309885Y-52626390D02*
X78524171Y-52340676D01*
X78309885Y-52126390D02*
X78595600Y-52412104D01*
X81795857Y-52126390D02*
X81795857Y-52483533D01*
X81819666Y-52554961D01*
X81867285Y-52602580D01*
X81938714Y-52626390D01*
X81986333Y-52626390D01*
X81629190Y-52126390D02*
X81343476Y-52126390D01*
X81486333Y-52626390D02*
X81486333Y-52126390D01*
X81176809Y-52626390D02*
X81176809Y-52126390D01*
X81010142Y-52483533D01*
X80843476Y-52126390D01*
X80843476Y-52626390D01*
X80629190Y-52602580D02*
X80557761Y-52626390D01*
X80438714Y-52626390D01*
X80391095Y-52602580D01*
X80367285Y-52578771D01*
X80343476Y-52531152D01*
X80343476Y-52483533D01*
X80367285Y-52435914D01*
X80391095Y-52412104D01*
X80438714Y-52388295D01*
X80533952Y-52364485D01*
X80581571Y-52340676D01*
X80605380Y-52316866D01*
X80629190Y-52269247D01*
X80629190Y-52221628D01*
X80605380Y-52174009D01*
X80581571Y-52150200D01*
X80533952Y-52126390D01*
X80414904Y-52126390D01*
X80343476Y-52150200D01*
X84142152Y-52435914D02*
X83761200Y-52435914D01*
X83951676Y-52626390D02*
X83951676Y-52245438D01*
X83570723Y-52126390D02*
X83261200Y-52126390D01*
X83427866Y-52316866D01*
X83356438Y-52316866D01*
X83308819Y-52340676D01*
X83285009Y-52364485D01*
X83261200Y-52412104D01*
X83261200Y-52531152D01*
X83285009Y-52578771D01*
X83308819Y-52602580D01*
X83356438Y-52626390D01*
X83499295Y-52626390D01*
X83546914Y-52602580D01*
X83570723Y-52578771D01*
X83118342Y-52126390D02*
X82951676Y-52626390D01*
X82785009Y-52126390D01*
X82665961Y-52126390D02*
X82356438Y-52126390D01*
X82523104Y-52316866D01*
X82451676Y-52316866D01*
X82404057Y-52340676D01*
X82380247Y-52364485D01*
X82356438Y-52412104D01*
X82356438Y-52531152D01*
X82380247Y-52578771D01*
X82404057Y-52602580D01*
X82451676Y-52626390D01*
X82594533Y-52626390D01*
X82642152Y-52602580D01*
X82665961Y-52578771D01*
M02*
