G04 #@! TF.GenerationSoftware,KiCad,Pcbnew,(5.1.4)-1*
G04 #@! TF.CreationDate,2020-03-17T15:48:54+01:00*
G04 #@! TF.ProjectId,dispatch,64697370-6174-4636-982e-6b696361645f,rev?*
G04 #@! TF.SameCoordinates,Original*
G04 #@! TF.FileFunction,Legend,Bot*
G04 #@! TF.FilePolarity,Positive*
%FSLAX46Y46*%
G04 Gerber Fmt 4.6, Leading zero omitted, Abs format (unit mm)*
G04 Created by KiCad (PCBNEW (5.1.4)-1) date 2020-03-17 15:48:54*
%MOMM*%
%LPD*%
G04 APERTURE LIST*
%ADD10C,0.225000*%
%ADD11C,0.300000*%
G04 APERTURE END LIST*
D10*
X121366385Y-92937671D02*
X121366385Y-91437671D01*
X120794957Y-91437671D01*
X120652100Y-91509100D01*
X120580671Y-91580528D01*
X120509242Y-91723385D01*
X120509242Y-91937671D01*
X120580671Y-92080528D01*
X120652100Y-92151957D01*
X120794957Y-92223385D01*
X121366385Y-92223385D01*
X119652100Y-92937671D02*
X119794957Y-92866242D01*
X119866385Y-92794814D01*
X119937814Y-92651957D01*
X119937814Y-92223385D01*
X119866385Y-92080528D01*
X119794957Y-92009100D01*
X119652100Y-91937671D01*
X119437814Y-91937671D01*
X119294957Y-92009100D01*
X119223528Y-92080528D01*
X119152100Y-92223385D01*
X119152100Y-92651957D01*
X119223528Y-92794814D01*
X119294957Y-92866242D01*
X119437814Y-92937671D01*
X119652100Y-92937671D01*
X118652100Y-91937671D02*
X118366385Y-92937671D01*
X118080671Y-92223385D01*
X117794957Y-92937671D01*
X117509242Y-91937671D01*
X116366385Y-92866242D02*
X116509242Y-92937671D01*
X116794957Y-92937671D01*
X116937814Y-92866242D01*
X117009242Y-92723385D01*
X117009242Y-92151957D01*
X116937814Y-92009100D01*
X116794957Y-91937671D01*
X116509242Y-91937671D01*
X116366385Y-92009100D01*
X116294957Y-92151957D01*
X116294957Y-92294814D01*
X117009242Y-92437671D01*
X115652100Y-92937671D02*
X115652100Y-91937671D01*
X115652100Y-92223385D02*
X115580671Y-92080528D01*
X115509242Y-92009100D01*
X115366385Y-91937671D01*
X115223528Y-91937671D01*
X75716685Y-92937671D02*
X76430971Y-92937671D01*
X76430971Y-91437671D01*
X75002400Y-92937671D02*
X75145257Y-92866242D01*
X75216685Y-92794814D01*
X75288114Y-92651957D01*
X75288114Y-92223385D01*
X75216685Y-92080528D01*
X75145257Y-92009100D01*
X75002400Y-91937671D01*
X74788114Y-91937671D01*
X74645257Y-92009100D01*
X74573828Y-92080528D01*
X74502400Y-92223385D01*
X74502400Y-92651957D01*
X74573828Y-92794814D01*
X74645257Y-92866242D01*
X74788114Y-92937671D01*
X75002400Y-92937671D01*
X73216685Y-91937671D02*
X73216685Y-93151957D01*
X73288114Y-93294814D01*
X73359542Y-93366242D01*
X73502400Y-93437671D01*
X73716685Y-93437671D01*
X73859542Y-93366242D01*
X73216685Y-92866242D02*
X73359542Y-92937671D01*
X73645257Y-92937671D01*
X73788114Y-92866242D01*
X73859542Y-92794814D01*
X73930971Y-92651957D01*
X73930971Y-92223385D01*
X73859542Y-92080528D01*
X73788114Y-92009100D01*
X73645257Y-91937671D01*
X73359542Y-91937671D01*
X73216685Y-92009100D01*
X72502400Y-92937671D02*
X72502400Y-91937671D01*
X72502400Y-91437671D02*
X72573828Y-91509100D01*
X72502400Y-91580528D01*
X72430971Y-91509100D01*
X72502400Y-91437671D01*
X72502400Y-91580528D01*
X71145257Y-92866242D02*
X71288114Y-92937671D01*
X71573828Y-92937671D01*
X71716685Y-92866242D01*
X71788114Y-92794814D01*
X71859542Y-92651957D01*
X71859542Y-92223385D01*
X71788114Y-92080528D01*
X71716685Y-92009100D01*
X71573828Y-91937671D01*
X71288114Y-91937671D01*
X71145257Y-92009100D01*
X69359542Y-91937671D02*
X69359542Y-93437671D01*
X69359542Y-92009100D02*
X69216685Y-91937671D01*
X68930971Y-91937671D01*
X68788114Y-92009100D01*
X68716685Y-92080528D01*
X68645257Y-92223385D01*
X68645257Y-92651957D01*
X68716685Y-92794814D01*
X68788114Y-92866242D01*
X68930971Y-92937671D01*
X69216685Y-92937671D01*
X69359542Y-92866242D01*
X67788114Y-92937671D02*
X67930971Y-92866242D01*
X68002400Y-92794814D01*
X68073828Y-92651957D01*
X68073828Y-92223385D01*
X68002400Y-92080528D01*
X67930971Y-92009100D01*
X67788114Y-91937671D01*
X67573828Y-91937671D01*
X67430971Y-92009100D01*
X67359542Y-92080528D01*
X67288114Y-92223385D01*
X67288114Y-92651957D01*
X67359542Y-92794814D01*
X67430971Y-92866242D01*
X67573828Y-92937671D01*
X67788114Y-92937671D01*
X66788114Y-91937671D02*
X66502400Y-92937671D01*
X66216685Y-92223385D01*
X65930971Y-92937671D01*
X65645257Y-91937671D01*
X64502400Y-92866242D02*
X64645257Y-92937671D01*
X64930971Y-92937671D01*
X65073828Y-92866242D01*
X65145257Y-92723385D01*
X65145257Y-92151957D01*
X65073828Y-92009100D01*
X64930971Y-91937671D01*
X64645257Y-91937671D01*
X64502400Y-92009100D01*
X64430971Y-92151957D01*
X64430971Y-92294814D01*
X65145257Y-92437671D01*
X63788114Y-92937671D02*
X63788114Y-91937671D01*
X63788114Y-92223385D02*
X63716685Y-92080528D01*
X63645257Y-92009100D01*
X63502400Y-91937671D01*
X63359542Y-91937671D01*
D11*
X126925957Y-52926371D02*
X126925957Y-51426371D01*
X126568814Y-51426371D01*
X126354528Y-51497800D01*
X126211671Y-51640657D01*
X126140242Y-51783514D01*
X126068814Y-52069228D01*
X126068814Y-52283514D01*
X126140242Y-52569228D01*
X126211671Y-52712085D01*
X126354528Y-52854942D01*
X126568814Y-52926371D01*
X126925957Y-52926371D01*
X125425957Y-52926371D02*
X125425957Y-51926371D01*
X125425957Y-51426371D02*
X125497385Y-51497800D01*
X125425957Y-51569228D01*
X125354528Y-51497800D01*
X125425957Y-51426371D01*
X125425957Y-51569228D01*
X124783100Y-52854942D02*
X124640242Y-52926371D01*
X124354528Y-52926371D01*
X124211671Y-52854942D01*
X124140242Y-52712085D01*
X124140242Y-52640657D01*
X124211671Y-52497800D01*
X124354528Y-52426371D01*
X124568814Y-52426371D01*
X124711671Y-52354942D01*
X124783100Y-52212085D01*
X124783100Y-52140657D01*
X124711671Y-51997800D01*
X124568814Y-51926371D01*
X124354528Y-51926371D01*
X124211671Y-51997800D01*
X123497385Y-51926371D02*
X123497385Y-53426371D01*
X123497385Y-51997800D02*
X123354528Y-51926371D01*
X123068814Y-51926371D01*
X122925957Y-51997800D01*
X122854528Y-52069228D01*
X122783100Y-52212085D01*
X122783100Y-52640657D01*
X122854528Y-52783514D01*
X122925957Y-52854942D01*
X123068814Y-52926371D01*
X123354528Y-52926371D01*
X123497385Y-52854942D01*
X121497385Y-52926371D02*
X121497385Y-52140657D01*
X121568814Y-51997800D01*
X121711671Y-51926371D01*
X121997385Y-51926371D01*
X122140242Y-51997800D01*
X121497385Y-52854942D02*
X121640242Y-52926371D01*
X121997385Y-52926371D01*
X122140242Y-52854942D01*
X122211671Y-52712085D01*
X122211671Y-52569228D01*
X122140242Y-52426371D01*
X121997385Y-52354942D01*
X121640242Y-52354942D01*
X121497385Y-52283514D01*
X120997385Y-51926371D02*
X120425957Y-51926371D01*
X120783100Y-51426371D02*
X120783100Y-52712085D01*
X120711671Y-52854942D01*
X120568814Y-52926371D01*
X120425957Y-52926371D01*
X119283100Y-52854942D02*
X119425957Y-52926371D01*
X119711671Y-52926371D01*
X119854528Y-52854942D01*
X119925957Y-52783514D01*
X119997385Y-52640657D01*
X119997385Y-52212085D01*
X119925957Y-52069228D01*
X119854528Y-51997800D01*
X119711671Y-51926371D01*
X119425957Y-51926371D01*
X119283100Y-51997800D01*
X118640242Y-52926371D02*
X118640242Y-51426371D01*
X117997385Y-52926371D02*
X117997385Y-52140657D01*
X118068814Y-51997800D01*
X118211671Y-51926371D01*
X118425957Y-51926371D01*
X118568814Y-51997800D01*
X118640242Y-52069228D01*
X116354528Y-51426371D02*
X115854528Y-52926371D01*
X115354528Y-51426371D01*
X114925957Y-51569228D02*
X114854528Y-51497800D01*
X114711671Y-51426371D01*
X114354528Y-51426371D01*
X114211671Y-51497800D01*
X114140242Y-51569228D01*
X114068814Y-51712085D01*
X114068814Y-51854942D01*
X114140242Y-52069228D01*
X114997385Y-52926371D01*
X114068814Y-52926371D01*
X113425957Y-52783514D02*
X113354528Y-52854942D01*
X113425957Y-52926371D01*
X113497385Y-52854942D01*
X113425957Y-52783514D01*
X113425957Y-52926371D01*
X112425957Y-51426371D02*
X112283100Y-51426371D01*
X112140242Y-51497800D01*
X112068814Y-51569228D01*
X111997385Y-51712085D01*
X111925957Y-51997800D01*
X111925957Y-52354942D01*
X111997385Y-52640657D01*
X112068814Y-52783514D01*
X112140242Y-52854942D01*
X112283100Y-52926371D01*
X112425957Y-52926371D01*
X112568814Y-52854942D01*
X112640242Y-52783514D01*
X112711671Y-52640657D01*
X112783100Y-52354942D01*
X112783100Y-51997800D01*
X112711671Y-51712085D01*
X112640242Y-51569228D01*
X112568814Y-51497800D01*
X112425957Y-51426371D01*
X111283100Y-52926371D02*
X111283100Y-51426371D01*
X111283100Y-51997800D02*
X111140242Y-51926371D01*
X110854528Y-51926371D01*
X110711671Y-51997800D01*
X110640242Y-52069228D01*
X110568814Y-52212085D01*
X110568814Y-52640657D01*
X110640242Y-52783514D01*
X110711671Y-52854942D01*
X110854528Y-52926371D01*
X111140242Y-52926371D01*
X111283100Y-52854942D01*
X71647285Y-52961314D02*
X71718714Y-53032742D01*
X71933000Y-53104171D01*
X72075857Y-53104171D01*
X72290142Y-53032742D01*
X72433000Y-52889885D01*
X72504428Y-52747028D01*
X72575857Y-52461314D01*
X72575857Y-52247028D01*
X72504428Y-51961314D01*
X72433000Y-51818457D01*
X72290142Y-51675600D01*
X72075857Y-51604171D01*
X71933000Y-51604171D01*
X71718714Y-51675600D01*
X71647285Y-51747028D01*
X71004428Y-53104171D02*
X71004428Y-51604171D01*
X70647285Y-51604171D01*
X70433000Y-51675600D01*
X70290142Y-51818457D01*
X70218714Y-51961314D01*
X70147285Y-52247028D01*
X70147285Y-52461314D01*
X70218714Y-52747028D01*
X70290142Y-52889885D01*
X70433000Y-53032742D01*
X70647285Y-53104171D01*
X71004428Y-53104171D01*
X68647285Y-53104171D02*
X69147285Y-52389885D01*
X69504428Y-53104171D02*
X69504428Y-51604171D01*
X68933000Y-51604171D01*
X68790142Y-51675600D01*
X68718714Y-51747028D01*
X68647285Y-51889885D01*
X68647285Y-52104171D01*
X68718714Y-52247028D01*
X68790142Y-52318457D01*
X68933000Y-52389885D01*
X69504428Y-52389885D01*
X66933000Y-51747028D02*
X66861571Y-51675600D01*
X66718714Y-51604171D01*
X66361571Y-51604171D01*
X66218714Y-51675600D01*
X66147285Y-51747028D01*
X66075857Y-51889885D01*
X66075857Y-52032742D01*
X66147285Y-52247028D01*
X67004428Y-53104171D01*
X66075857Y-53104171D01*
X65147285Y-51604171D02*
X65004428Y-51604171D01*
X64861571Y-51675600D01*
X64790142Y-51747028D01*
X64718714Y-51889885D01*
X64647285Y-52175600D01*
X64647285Y-52532742D01*
X64718714Y-52818457D01*
X64790142Y-52961314D01*
X64861571Y-53032742D01*
X65004428Y-53104171D01*
X65147285Y-53104171D01*
X65290142Y-53032742D01*
X65361571Y-52961314D01*
X65433000Y-52818457D01*
X65504428Y-52532742D01*
X65504428Y-52175600D01*
X65433000Y-51889885D01*
X65361571Y-51747028D01*
X65290142Y-51675600D01*
X65147285Y-51604171D01*
X64075857Y-51747028D02*
X64004428Y-51675600D01*
X63861571Y-51604171D01*
X63504428Y-51604171D01*
X63361571Y-51675600D01*
X63290142Y-51747028D01*
X63218714Y-51889885D01*
X63218714Y-52032742D01*
X63290142Y-52247028D01*
X64147285Y-53104171D01*
X63218714Y-53104171D01*
X62290142Y-51604171D02*
X62147285Y-51604171D01*
X62004428Y-51675600D01*
X61933000Y-51747028D01*
X61861571Y-51889885D01*
X61790142Y-52175600D01*
X61790142Y-52532742D01*
X61861571Y-52818457D01*
X61933000Y-52961314D01*
X62004428Y-53032742D01*
X62147285Y-53104171D01*
X62290142Y-53104171D01*
X62433000Y-53032742D01*
X62504428Y-52961314D01*
X62575857Y-52818457D01*
X62647285Y-52532742D01*
X62647285Y-52175600D01*
X62575857Y-51889885D01*
X62504428Y-51747028D01*
X62433000Y-51675600D01*
X62290142Y-51604171D01*
M02*
