G04 #@! TF.GenerationSoftware,KiCad,Pcbnew,(5.1.4)-1*
G04 #@! TF.CreationDate,2020-03-17T15:48:53+01:00*
G04 #@! TF.ProjectId,dispatch,64697370-6174-4636-982e-6b696361645f,rev?*
G04 #@! TF.SameCoordinates,Original*
G04 #@! TF.FileFunction,Copper,L1,Top*
G04 #@! TF.FilePolarity,Positive*
%FSLAX46Y46*%
G04 Gerber Fmt 4.6, Leading zero omitted, Abs format (unit mm)*
G04 Created by KiCad (PCBNEW (5.1.4)-1) date 2020-03-17 15:48:53*
%MOMM*%
%LPD*%
G04 APERTURE LIST*
%ADD10C,0.100000*%
%ADD11C,0.975000*%
%ADD12C,6.400000*%
%ADD13O,2.080000X3.600000*%
%ADD14C,2.080000*%
%ADD15O,3.600000X1.800000*%
%ADD16C,1.800000*%
%ADD17C,2.500000*%
%ADD18R,1.275000X1.275000*%
%ADD19C,1.275000*%
%ADD20R,2.500000X1.800000*%
%ADD21R,10.200000X3.500000*%
%ADD22R,1.100000X4.600000*%
%ADD23R,10.800000X9.400000*%
%ADD24C,0.600000*%
%ADD25C,1.200000*%
%ADD26C,1.500000*%
%ADD27C,1.250000*%
%ADD28C,0.500000*%
%ADD29C,2.000000*%
%ADD30C,0.254000*%
G04 APERTURE END LIST*
D10*
G36*
X87246542Y-69842174D02*
G01*
X87270203Y-69845684D01*
X87293407Y-69851496D01*
X87315929Y-69859554D01*
X87337553Y-69869782D01*
X87358070Y-69882079D01*
X87377283Y-69896329D01*
X87395007Y-69912393D01*
X87411071Y-69930117D01*
X87425321Y-69949330D01*
X87437618Y-69969847D01*
X87447846Y-69991471D01*
X87455904Y-70013993D01*
X87461716Y-70037197D01*
X87465226Y-70060858D01*
X87466400Y-70084750D01*
X87466400Y-70572250D01*
X87465226Y-70596142D01*
X87461716Y-70619803D01*
X87455904Y-70643007D01*
X87447846Y-70665529D01*
X87437618Y-70687153D01*
X87425321Y-70707670D01*
X87411071Y-70726883D01*
X87395007Y-70744607D01*
X87377283Y-70760671D01*
X87358070Y-70774921D01*
X87337553Y-70787218D01*
X87315929Y-70797446D01*
X87293407Y-70805504D01*
X87270203Y-70811316D01*
X87246542Y-70814826D01*
X87222650Y-70816000D01*
X86310150Y-70816000D01*
X86286258Y-70814826D01*
X86262597Y-70811316D01*
X86239393Y-70805504D01*
X86216871Y-70797446D01*
X86195247Y-70787218D01*
X86174730Y-70774921D01*
X86155517Y-70760671D01*
X86137793Y-70744607D01*
X86121729Y-70726883D01*
X86107479Y-70707670D01*
X86095182Y-70687153D01*
X86084954Y-70665529D01*
X86076896Y-70643007D01*
X86071084Y-70619803D01*
X86067574Y-70596142D01*
X86066400Y-70572250D01*
X86066400Y-70084750D01*
X86067574Y-70060858D01*
X86071084Y-70037197D01*
X86076896Y-70013993D01*
X86084954Y-69991471D01*
X86095182Y-69969847D01*
X86107479Y-69949330D01*
X86121729Y-69930117D01*
X86137793Y-69912393D01*
X86155517Y-69896329D01*
X86174730Y-69882079D01*
X86195247Y-69869782D01*
X86216871Y-69859554D01*
X86239393Y-69851496D01*
X86262597Y-69845684D01*
X86286258Y-69842174D01*
X86310150Y-69841000D01*
X87222650Y-69841000D01*
X87246542Y-69842174D01*
X87246542Y-69842174D01*
G37*
D11*
X86766400Y-70328500D03*
D10*
G36*
X87246542Y-71717174D02*
G01*
X87270203Y-71720684D01*
X87293407Y-71726496D01*
X87315929Y-71734554D01*
X87337553Y-71744782D01*
X87358070Y-71757079D01*
X87377283Y-71771329D01*
X87395007Y-71787393D01*
X87411071Y-71805117D01*
X87425321Y-71824330D01*
X87437618Y-71844847D01*
X87447846Y-71866471D01*
X87455904Y-71888993D01*
X87461716Y-71912197D01*
X87465226Y-71935858D01*
X87466400Y-71959750D01*
X87466400Y-72447250D01*
X87465226Y-72471142D01*
X87461716Y-72494803D01*
X87455904Y-72518007D01*
X87447846Y-72540529D01*
X87437618Y-72562153D01*
X87425321Y-72582670D01*
X87411071Y-72601883D01*
X87395007Y-72619607D01*
X87377283Y-72635671D01*
X87358070Y-72649921D01*
X87337553Y-72662218D01*
X87315929Y-72672446D01*
X87293407Y-72680504D01*
X87270203Y-72686316D01*
X87246542Y-72689826D01*
X87222650Y-72691000D01*
X86310150Y-72691000D01*
X86286258Y-72689826D01*
X86262597Y-72686316D01*
X86239393Y-72680504D01*
X86216871Y-72672446D01*
X86195247Y-72662218D01*
X86174730Y-72649921D01*
X86155517Y-72635671D01*
X86137793Y-72619607D01*
X86121729Y-72601883D01*
X86107479Y-72582670D01*
X86095182Y-72562153D01*
X86084954Y-72540529D01*
X86076896Y-72518007D01*
X86071084Y-72494803D01*
X86067574Y-72471142D01*
X86066400Y-72447250D01*
X86066400Y-71959750D01*
X86067574Y-71935858D01*
X86071084Y-71912197D01*
X86076896Y-71888993D01*
X86084954Y-71866471D01*
X86095182Y-71844847D01*
X86107479Y-71824330D01*
X86121729Y-71805117D01*
X86137793Y-71787393D01*
X86155517Y-71771329D01*
X86174730Y-71757079D01*
X86195247Y-71744782D01*
X86216871Y-71734554D01*
X86239393Y-71726496D01*
X86262597Y-71720684D01*
X86286258Y-71717174D01*
X86310150Y-71716000D01*
X87222650Y-71716000D01*
X87246542Y-71717174D01*
X87246542Y-71717174D01*
G37*
D11*
X86766400Y-72203500D03*
D12*
X134500000Y-53500000D03*
X53500000Y-91500000D03*
X53500000Y-53500000D03*
X134500000Y-91500000D03*
D13*
X73421240Y-60558680D03*
D10*
G36*
X79315745Y-58759884D02*
G01*
X79340013Y-58763484D01*
X79363812Y-58769445D01*
X79386911Y-58777710D01*
X79409090Y-58788200D01*
X79430133Y-58800812D01*
X79449839Y-58815427D01*
X79468017Y-58831903D01*
X79484493Y-58850081D01*
X79499108Y-58869787D01*
X79511720Y-58890830D01*
X79522210Y-58913009D01*
X79530475Y-58936108D01*
X79536436Y-58959907D01*
X79540036Y-58984175D01*
X79541240Y-59008679D01*
X79541240Y-62108681D01*
X79540036Y-62133185D01*
X79536436Y-62157453D01*
X79530475Y-62181252D01*
X79522210Y-62204351D01*
X79511720Y-62226530D01*
X79499108Y-62247573D01*
X79484493Y-62267279D01*
X79468017Y-62285457D01*
X79449839Y-62301933D01*
X79430133Y-62316548D01*
X79409090Y-62329160D01*
X79386911Y-62339650D01*
X79363812Y-62347915D01*
X79340013Y-62353876D01*
X79315745Y-62357476D01*
X79291241Y-62358680D01*
X77711239Y-62358680D01*
X77686735Y-62357476D01*
X77662467Y-62353876D01*
X77638668Y-62347915D01*
X77615569Y-62339650D01*
X77593390Y-62329160D01*
X77572347Y-62316548D01*
X77552641Y-62301933D01*
X77534463Y-62285457D01*
X77517987Y-62267279D01*
X77503372Y-62247573D01*
X77490760Y-62226530D01*
X77480270Y-62204351D01*
X77472005Y-62181252D01*
X77466044Y-62157453D01*
X77462444Y-62133185D01*
X77461240Y-62108681D01*
X77461240Y-59008679D01*
X77462444Y-58984175D01*
X77466044Y-58959907D01*
X77472005Y-58936108D01*
X77480270Y-58913009D01*
X77490760Y-58890830D01*
X77503372Y-58869787D01*
X77517987Y-58850081D01*
X77534463Y-58831903D01*
X77552641Y-58815427D01*
X77572347Y-58800812D01*
X77593390Y-58788200D01*
X77615569Y-58777710D01*
X77638668Y-58769445D01*
X77662467Y-58763484D01*
X77686735Y-58759884D01*
X77711239Y-58758680D01*
X79291241Y-58758680D01*
X79315745Y-58759884D01*
X79315745Y-58759884D01*
G37*
D14*
X78501240Y-60558680D03*
D13*
X86634320Y-60558680D03*
D10*
G36*
X92528825Y-58759884D02*
G01*
X92553093Y-58763484D01*
X92576892Y-58769445D01*
X92599991Y-58777710D01*
X92622170Y-58788200D01*
X92643213Y-58800812D01*
X92662919Y-58815427D01*
X92681097Y-58831903D01*
X92697573Y-58850081D01*
X92712188Y-58869787D01*
X92724800Y-58890830D01*
X92735290Y-58913009D01*
X92743555Y-58936108D01*
X92749516Y-58959907D01*
X92753116Y-58984175D01*
X92754320Y-59008679D01*
X92754320Y-62108681D01*
X92753116Y-62133185D01*
X92749516Y-62157453D01*
X92743555Y-62181252D01*
X92735290Y-62204351D01*
X92724800Y-62226530D01*
X92712188Y-62247573D01*
X92697573Y-62267279D01*
X92681097Y-62285457D01*
X92662919Y-62301933D01*
X92643213Y-62316548D01*
X92622170Y-62329160D01*
X92599991Y-62339650D01*
X92576892Y-62347915D01*
X92553093Y-62353876D01*
X92528825Y-62357476D01*
X92504321Y-62358680D01*
X90924319Y-62358680D01*
X90899815Y-62357476D01*
X90875547Y-62353876D01*
X90851748Y-62347915D01*
X90828649Y-62339650D01*
X90806470Y-62329160D01*
X90785427Y-62316548D01*
X90765721Y-62301933D01*
X90747543Y-62285457D01*
X90731067Y-62267279D01*
X90716452Y-62247573D01*
X90703840Y-62226530D01*
X90693350Y-62204351D01*
X90685085Y-62181252D01*
X90679124Y-62157453D01*
X90675524Y-62133185D01*
X90674320Y-62108681D01*
X90674320Y-59008679D01*
X90675524Y-58984175D01*
X90679124Y-58959907D01*
X90685085Y-58936108D01*
X90693350Y-58913009D01*
X90703840Y-58890830D01*
X90716452Y-58869787D01*
X90731067Y-58850081D01*
X90747543Y-58831903D01*
X90765721Y-58815427D01*
X90785427Y-58800812D01*
X90806470Y-58788200D01*
X90828649Y-58777710D01*
X90851748Y-58769445D01*
X90875547Y-58763484D01*
X90899815Y-58759884D01*
X90924319Y-58758680D01*
X92504321Y-58758680D01*
X92528825Y-58759884D01*
X92528825Y-58759884D01*
G37*
D14*
X91714320Y-60558680D03*
D13*
X99847400Y-60558680D03*
D10*
G36*
X105741905Y-58759884D02*
G01*
X105766173Y-58763484D01*
X105789972Y-58769445D01*
X105813071Y-58777710D01*
X105835250Y-58788200D01*
X105856293Y-58800812D01*
X105875999Y-58815427D01*
X105894177Y-58831903D01*
X105910653Y-58850081D01*
X105925268Y-58869787D01*
X105937880Y-58890830D01*
X105948370Y-58913009D01*
X105956635Y-58936108D01*
X105962596Y-58959907D01*
X105966196Y-58984175D01*
X105967400Y-59008679D01*
X105967400Y-62108681D01*
X105966196Y-62133185D01*
X105962596Y-62157453D01*
X105956635Y-62181252D01*
X105948370Y-62204351D01*
X105937880Y-62226530D01*
X105925268Y-62247573D01*
X105910653Y-62267279D01*
X105894177Y-62285457D01*
X105875999Y-62301933D01*
X105856293Y-62316548D01*
X105835250Y-62329160D01*
X105813071Y-62339650D01*
X105789972Y-62347915D01*
X105766173Y-62353876D01*
X105741905Y-62357476D01*
X105717401Y-62358680D01*
X104137399Y-62358680D01*
X104112895Y-62357476D01*
X104088627Y-62353876D01*
X104064828Y-62347915D01*
X104041729Y-62339650D01*
X104019550Y-62329160D01*
X103998507Y-62316548D01*
X103978801Y-62301933D01*
X103960623Y-62285457D01*
X103944147Y-62267279D01*
X103929532Y-62247573D01*
X103916920Y-62226530D01*
X103906430Y-62204351D01*
X103898165Y-62181252D01*
X103892204Y-62157453D01*
X103888604Y-62133185D01*
X103887400Y-62108681D01*
X103887400Y-59008679D01*
X103888604Y-58984175D01*
X103892204Y-58959907D01*
X103898165Y-58936108D01*
X103906430Y-58913009D01*
X103916920Y-58890830D01*
X103929532Y-58869787D01*
X103944147Y-58850081D01*
X103960623Y-58831903D01*
X103978801Y-58815427D01*
X103998507Y-58800812D01*
X104019550Y-58788200D01*
X104041729Y-58777710D01*
X104064828Y-58769445D01*
X104088627Y-58763484D01*
X104112895Y-58759884D01*
X104137399Y-58758680D01*
X105717401Y-58758680D01*
X105741905Y-58759884D01*
X105741905Y-58759884D01*
G37*
D14*
X104927400Y-60558680D03*
D13*
X113050320Y-60558680D03*
D10*
G36*
X118944825Y-58759884D02*
G01*
X118969093Y-58763484D01*
X118992892Y-58769445D01*
X119015991Y-58777710D01*
X119038170Y-58788200D01*
X119059213Y-58800812D01*
X119078919Y-58815427D01*
X119097097Y-58831903D01*
X119113573Y-58850081D01*
X119128188Y-58869787D01*
X119140800Y-58890830D01*
X119151290Y-58913009D01*
X119159555Y-58936108D01*
X119165516Y-58959907D01*
X119169116Y-58984175D01*
X119170320Y-59008679D01*
X119170320Y-62108681D01*
X119169116Y-62133185D01*
X119165516Y-62157453D01*
X119159555Y-62181252D01*
X119151290Y-62204351D01*
X119140800Y-62226530D01*
X119128188Y-62247573D01*
X119113573Y-62267279D01*
X119097097Y-62285457D01*
X119078919Y-62301933D01*
X119059213Y-62316548D01*
X119038170Y-62329160D01*
X119015991Y-62339650D01*
X118992892Y-62347915D01*
X118969093Y-62353876D01*
X118944825Y-62357476D01*
X118920321Y-62358680D01*
X117340319Y-62358680D01*
X117315815Y-62357476D01*
X117291547Y-62353876D01*
X117267748Y-62347915D01*
X117244649Y-62339650D01*
X117222470Y-62329160D01*
X117201427Y-62316548D01*
X117181721Y-62301933D01*
X117163543Y-62285457D01*
X117147067Y-62267279D01*
X117132452Y-62247573D01*
X117119840Y-62226530D01*
X117109350Y-62204351D01*
X117101085Y-62181252D01*
X117095124Y-62157453D01*
X117091524Y-62133185D01*
X117090320Y-62108681D01*
X117090320Y-59008679D01*
X117091524Y-58984175D01*
X117095124Y-58959907D01*
X117101085Y-58936108D01*
X117109350Y-58913009D01*
X117119840Y-58890830D01*
X117132452Y-58869787D01*
X117147067Y-58850081D01*
X117163543Y-58831903D01*
X117181721Y-58815427D01*
X117201427Y-58800812D01*
X117222470Y-58788200D01*
X117244649Y-58777710D01*
X117267748Y-58769445D01*
X117291547Y-58763484D01*
X117315815Y-58759884D01*
X117340319Y-58758680D01*
X118920321Y-58758680D01*
X118944825Y-58759884D01*
X118944825Y-58759884D01*
G37*
D14*
X118130320Y-60558680D03*
D15*
X58534300Y-64917200D03*
D10*
G36*
X60108804Y-60518404D02*
G01*
X60133073Y-60522004D01*
X60156871Y-60527965D01*
X60179971Y-60536230D01*
X60202149Y-60546720D01*
X60223193Y-60559333D01*
X60242898Y-60573947D01*
X60261077Y-60590423D01*
X60277553Y-60608602D01*
X60292167Y-60628307D01*
X60304780Y-60649351D01*
X60315270Y-60671529D01*
X60323535Y-60694629D01*
X60329496Y-60718427D01*
X60333096Y-60742696D01*
X60334300Y-60767200D01*
X60334300Y-62067200D01*
X60333096Y-62091704D01*
X60329496Y-62115973D01*
X60323535Y-62139771D01*
X60315270Y-62162871D01*
X60304780Y-62185049D01*
X60292167Y-62206093D01*
X60277553Y-62225798D01*
X60261077Y-62243977D01*
X60242898Y-62260453D01*
X60223193Y-62275067D01*
X60202149Y-62287680D01*
X60179971Y-62298170D01*
X60156871Y-62306435D01*
X60133073Y-62312396D01*
X60108804Y-62315996D01*
X60084300Y-62317200D01*
X56984300Y-62317200D01*
X56959796Y-62315996D01*
X56935527Y-62312396D01*
X56911729Y-62306435D01*
X56888629Y-62298170D01*
X56866451Y-62287680D01*
X56845407Y-62275067D01*
X56825702Y-62260453D01*
X56807523Y-62243977D01*
X56791047Y-62225798D01*
X56776433Y-62206093D01*
X56763820Y-62185049D01*
X56753330Y-62162871D01*
X56745065Y-62139771D01*
X56739104Y-62115973D01*
X56735504Y-62091704D01*
X56734300Y-62067200D01*
X56734300Y-60767200D01*
X56735504Y-60742696D01*
X56739104Y-60718427D01*
X56745065Y-60694629D01*
X56753330Y-60671529D01*
X56763820Y-60649351D01*
X56776433Y-60628307D01*
X56791047Y-60608602D01*
X56807523Y-60590423D01*
X56825702Y-60573947D01*
X56845407Y-60559333D01*
X56866451Y-60546720D01*
X56888629Y-60536230D01*
X56911729Y-60527965D01*
X56935527Y-60522004D01*
X56959796Y-60518404D01*
X56984300Y-60517200D01*
X60084300Y-60517200D01*
X60108804Y-60518404D01*
X60108804Y-60518404D01*
G37*
D16*
X58534300Y-61417200D03*
D10*
G36*
X82253704Y-76983604D02*
G01*
X82277973Y-76987204D01*
X82301771Y-76993165D01*
X82324871Y-77001430D01*
X82347049Y-77011920D01*
X82368093Y-77024533D01*
X82387798Y-77039147D01*
X82405977Y-77055623D01*
X82422453Y-77073802D01*
X82437067Y-77093507D01*
X82449680Y-77114551D01*
X82460170Y-77136729D01*
X82468435Y-77159829D01*
X82474396Y-77183627D01*
X82477996Y-77207896D01*
X82479200Y-77232400D01*
X82479200Y-80232400D01*
X82477996Y-80256904D01*
X82474396Y-80281173D01*
X82468435Y-80304971D01*
X82460170Y-80328071D01*
X82449680Y-80350249D01*
X82437067Y-80371293D01*
X82422453Y-80390998D01*
X82405977Y-80409177D01*
X82387798Y-80425653D01*
X82368093Y-80440267D01*
X82347049Y-80452880D01*
X82324871Y-80463370D01*
X82301771Y-80471635D01*
X82277973Y-80477596D01*
X82253704Y-80481196D01*
X82229200Y-80482400D01*
X80229200Y-80482400D01*
X80204696Y-80481196D01*
X80180427Y-80477596D01*
X80156629Y-80471635D01*
X80133529Y-80463370D01*
X80111351Y-80452880D01*
X80090307Y-80440267D01*
X80070602Y-80425653D01*
X80052423Y-80409177D01*
X80035947Y-80390998D01*
X80021333Y-80371293D01*
X80008720Y-80350249D01*
X79998230Y-80328071D01*
X79989965Y-80304971D01*
X79984004Y-80281173D01*
X79980404Y-80256904D01*
X79979200Y-80232400D01*
X79979200Y-77232400D01*
X79980404Y-77207896D01*
X79984004Y-77183627D01*
X79989965Y-77159829D01*
X79998230Y-77136729D01*
X80008720Y-77114551D01*
X80021333Y-77093507D01*
X80035947Y-77073802D01*
X80052423Y-77055623D01*
X80070602Y-77039147D01*
X80090307Y-77024533D01*
X80111351Y-77011920D01*
X80133529Y-77001430D01*
X80156629Y-76993165D01*
X80180427Y-76987204D01*
X80204696Y-76983604D01*
X80229200Y-76982400D01*
X82229200Y-76982400D01*
X82253704Y-76983604D01*
X82253704Y-76983604D01*
G37*
D17*
X81229200Y-78732400D03*
D10*
G36*
X82253704Y-70483604D02*
G01*
X82277973Y-70487204D01*
X82301771Y-70493165D01*
X82324871Y-70501430D01*
X82347049Y-70511920D01*
X82368093Y-70524533D01*
X82387798Y-70539147D01*
X82405977Y-70555623D01*
X82422453Y-70573802D01*
X82437067Y-70593507D01*
X82449680Y-70614551D01*
X82460170Y-70636729D01*
X82468435Y-70659829D01*
X82474396Y-70683627D01*
X82477996Y-70707896D01*
X82479200Y-70732400D01*
X82479200Y-73732400D01*
X82477996Y-73756904D01*
X82474396Y-73781173D01*
X82468435Y-73804971D01*
X82460170Y-73828071D01*
X82449680Y-73850249D01*
X82437067Y-73871293D01*
X82422453Y-73890998D01*
X82405977Y-73909177D01*
X82387798Y-73925653D01*
X82368093Y-73940267D01*
X82347049Y-73952880D01*
X82324871Y-73963370D01*
X82301771Y-73971635D01*
X82277973Y-73977596D01*
X82253704Y-73981196D01*
X82229200Y-73982400D01*
X80229200Y-73982400D01*
X80204696Y-73981196D01*
X80180427Y-73977596D01*
X80156629Y-73971635D01*
X80133529Y-73963370D01*
X80111351Y-73952880D01*
X80090307Y-73940267D01*
X80070602Y-73925653D01*
X80052423Y-73909177D01*
X80035947Y-73890998D01*
X80021333Y-73871293D01*
X80008720Y-73850249D01*
X79998230Y-73828071D01*
X79989965Y-73804971D01*
X79984004Y-73781173D01*
X79980404Y-73756904D01*
X79979200Y-73732400D01*
X79979200Y-70732400D01*
X79980404Y-70707896D01*
X79984004Y-70683627D01*
X79989965Y-70659829D01*
X79998230Y-70636729D01*
X80008720Y-70614551D01*
X80021333Y-70593507D01*
X80035947Y-70573802D01*
X80052423Y-70555623D01*
X80070602Y-70539147D01*
X80090307Y-70524533D01*
X80111351Y-70511920D01*
X80133529Y-70501430D01*
X80156629Y-70493165D01*
X80180427Y-70487204D01*
X80204696Y-70483604D01*
X80229200Y-70482400D01*
X82229200Y-70482400D01*
X82253704Y-70483604D01*
X82253704Y-70483604D01*
G37*
D17*
X81229200Y-72232400D03*
D10*
G36*
X86571704Y-80948404D02*
G01*
X86595973Y-80952004D01*
X86619771Y-80957965D01*
X86642871Y-80966230D01*
X86665049Y-80976720D01*
X86686093Y-80989333D01*
X86705798Y-81003947D01*
X86723977Y-81020423D01*
X86740453Y-81038602D01*
X86755067Y-81058307D01*
X86767680Y-81079351D01*
X86778170Y-81101529D01*
X86786435Y-81124629D01*
X86792396Y-81148427D01*
X86795996Y-81172696D01*
X86797200Y-81197200D01*
X86797200Y-84197200D01*
X86795996Y-84221704D01*
X86792396Y-84245973D01*
X86786435Y-84269771D01*
X86778170Y-84292871D01*
X86767680Y-84315049D01*
X86755067Y-84336093D01*
X86740453Y-84355798D01*
X86723977Y-84373977D01*
X86705798Y-84390453D01*
X86686093Y-84405067D01*
X86665049Y-84417680D01*
X86642871Y-84428170D01*
X86619771Y-84436435D01*
X86595973Y-84442396D01*
X86571704Y-84445996D01*
X86547200Y-84447200D01*
X84547200Y-84447200D01*
X84522696Y-84445996D01*
X84498427Y-84442396D01*
X84474629Y-84436435D01*
X84451529Y-84428170D01*
X84429351Y-84417680D01*
X84408307Y-84405067D01*
X84388602Y-84390453D01*
X84370423Y-84373977D01*
X84353947Y-84355798D01*
X84339333Y-84336093D01*
X84326720Y-84315049D01*
X84316230Y-84292871D01*
X84307965Y-84269771D01*
X84302004Y-84245973D01*
X84298404Y-84221704D01*
X84297200Y-84197200D01*
X84297200Y-81197200D01*
X84298404Y-81172696D01*
X84302004Y-81148427D01*
X84307965Y-81124629D01*
X84316230Y-81101529D01*
X84326720Y-81079351D01*
X84339333Y-81058307D01*
X84353947Y-81038602D01*
X84370423Y-81020423D01*
X84388602Y-81003947D01*
X84408307Y-80989333D01*
X84429351Y-80976720D01*
X84451529Y-80966230D01*
X84474629Y-80957965D01*
X84498427Y-80952004D01*
X84522696Y-80948404D01*
X84547200Y-80947200D01*
X86547200Y-80947200D01*
X86571704Y-80948404D01*
X86571704Y-80948404D01*
G37*
D17*
X85547200Y-82697200D03*
D10*
G36*
X86571704Y-87448404D02*
G01*
X86595973Y-87452004D01*
X86619771Y-87457965D01*
X86642871Y-87466230D01*
X86665049Y-87476720D01*
X86686093Y-87489333D01*
X86705798Y-87503947D01*
X86723977Y-87520423D01*
X86740453Y-87538602D01*
X86755067Y-87558307D01*
X86767680Y-87579351D01*
X86778170Y-87601529D01*
X86786435Y-87624629D01*
X86792396Y-87648427D01*
X86795996Y-87672696D01*
X86797200Y-87697200D01*
X86797200Y-90697200D01*
X86795996Y-90721704D01*
X86792396Y-90745973D01*
X86786435Y-90769771D01*
X86778170Y-90792871D01*
X86767680Y-90815049D01*
X86755067Y-90836093D01*
X86740453Y-90855798D01*
X86723977Y-90873977D01*
X86705798Y-90890453D01*
X86686093Y-90905067D01*
X86665049Y-90917680D01*
X86642871Y-90928170D01*
X86619771Y-90936435D01*
X86595973Y-90942396D01*
X86571704Y-90945996D01*
X86547200Y-90947200D01*
X84547200Y-90947200D01*
X84522696Y-90945996D01*
X84498427Y-90942396D01*
X84474629Y-90936435D01*
X84451529Y-90928170D01*
X84429351Y-90917680D01*
X84408307Y-90905067D01*
X84388602Y-90890453D01*
X84370423Y-90873977D01*
X84353947Y-90855798D01*
X84339333Y-90836093D01*
X84326720Y-90815049D01*
X84316230Y-90792871D01*
X84307965Y-90769771D01*
X84302004Y-90745973D01*
X84298404Y-90721704D01*
X84297200Y-90697200D01*
X84297200Y-87697200D01*
X84298404Y-87672696D01*
X84302004Y-87648427D01*
X84307965Y-87624629D01*
X84316230Y-87601529D01*
X84326720Y-87579351D01*
X84339333Y-87558307D01*
X84353947Y-87538602D01*
X84370423Y-87520423D01*
X84388602Y-87503947D01*
X84408307Y-87489333D01*
X84429351Y-87476720D01*
X84451529Y-87466230D01*
X84474629Y-87457965D01*
X84498427Y-87452004D01*
X84522696Y-87448404D01*
X84547200Y-87447200D01*
X86547200Y-87447200D01*
X86571704Y-87448404D01*
X86571704Y-87448404D01*
G37*
D17*
X85547200Y-89197200D03*
D10*
G36*
X95205142Y-91014174D02*
G01*
X95228803Y-91017684D01*
X95252007Y-91023496D01*
X95274529Y-91031554D01*
X95296153Y-91041782D01*
X95316670Y-91054079D01*
X95335883Y-91068329D01*
X95353607Y-91084393D01*
X95369671Y-91102117D01*
X95383921Y-91121330D01*
X95396218Y-91141847D01*
X95406446Y-91163471D01*
X95414504Y-91185993D01*
X95420316Y-91209197D01*
X95423826Y-91232858D01*
X95425000Y-91256750D01*
X95425000Y-92169250D01*
X95423826Y-92193142D01*
X95420316Y-92216803D01*
X95414504Y-92240007D01*
X95406446Y-92262529D01*
X95396218Y-92284153D01*
X95383921Y-92304670D01*
X95369671Y-92323883D01*
X95353607Y-92341607D01*
X95335883Y-92357671D01*
X95316670Y-92371921D01*
X95296153Y-92384218D01*
X95274529Y-92394446D01*
X95252007Y-92402504D01*
X95228803Y-92408316D01*
X95205142Y-92411826D01*
X95181250Y-92413000D01*
X94693750Y-92413000D01*
X94669858Y-92411826D01*
X94646197Y-92408316D01*
X94622993Y-92402504D01*
X94600471Y-92394446D01*
X94578847Y-92384218D01*
X94558330Y-92371921D01*
X94539117Y-92357671D01*
X94521393Y-92341607D01*
X94505329Y-92323883D01*
X94491079Y-92304670D01*
X94478782Y-92284153D01*
X94468554Y-92262529D01*
X94460496Y-92240007D01*
X94454684Y-92216803D01*
X94451174Y-92193142D01*
X94450000Y-92169250D01*
X94450000Y-91256750D01*
X94451174Y-91232858D01*
X94454684Y-91209197D01*
X94460496Y-91185993D01*
X94468554Y-91163471D01*
X94478782Y-91141847D01*
X94491079Y-91121330D01*
X94505329Y-91102117D01*
X94521393Y-91084393D01*
X94539117Y-91068329D01*
X94558330Y-91054079D01*
X94578847Y-91041782D01*
X94600471Y-91031554D01*
X94622993Y-91023496D01*
X94646197Y-91017684D01*
X94669858Y-91014174D01*
X94693750Y-91013000D01*
X95181250Y-91013000D01*
X95205142Y-91014174D01*
X95205142Y-91014174D01*
G37*
D11*
X94937500Y-91713000D03*
D10*
G36*
X93330142Y-91014174D02*
G01*
X93353803Y-91017684D01*
X93377007Y-91023496D01*
X93399529Y-91031554D01*
X93421153Y-91041782D01*
X93441670Y-91054079D01*
X93460883Y-91068329D01*
X93478607Y-91084393D01*
X93494671Y-91102117D01*
X93508921Y-91121330D01*
X93521218Y-91141847D01*
X93531446Y-91163471D01*
X93539504Y-91185993D01*
X93545316Y-91209197D01*
X93548826Y-91232858D01*
X93550000Y-91256750D01*
X93550000Y-92169250D01*
X93548826Y-92193142D01*
X93545316Y-92216803D01*
X93539504Y-92240007D01*
X93531446Y-92262529D01*
X93521218Y-92284153D01*
X93508921Y-92304670D01*
X93494671Y-92323883D01*
X93478607Y-92341607D01*
X93460883Y-92357671D01*
X93441670Y-92371921D01*
X93421153Y-92384218D01*
X93399529Y-92394446D01*
X93377007Y-92402504D01*
X93353803Y-92408316D01*
X93330142Y-92411826D01*
X93306250Y-92413000D01*
X92818750Y-92413000D01*
X92794858Y-92411826D01*
X92771197Y-92408316D01*
X92747993Y-92402504D01*
X92725471Y-92394446D01*
X92703847Y-92384218D01*
X92683330Y-92371921D01*
X92664117Y-92357671D01*
X92646393Y-92341607D01*
X92630329Y-92323883D01*
X92616079Y-92304670D01*
X92603782Y-92284153D01*
X92593554Y-92262529D01*
X92585496Y-92240007D01*
X92579684Y-92216803D01*
X92576174Y-92193142D01*
X92575000Y-92169250D01*
X92575000Y-91256750D01*
X92576174Y-91232858D01*
X92579684Y-91209197D01*
X92585496Y-91185993D01*
X92593554Y-91163471D01*
X92603782Y-91141847D01*
X92616079Y-91121330D01*
X92630329Y-91102117D01*
X92646393Y-91084393D01*
X92664117Y-91068329D01*
X92683330Y-91054079D01*
X92703847Y-91041782D01*
X92725471Y-91031554D01*
X92747993Y-91023496D01*
X92771197Y-91017684D01*
X92794858Y-91014174D01*
X92818750Y-91013000D01*
X93306250Y-91013000D01*
X93330142Y-91014174D01*
X93330142Y-91014174D01*
G37*
D11*
X93062500Y-91713000D03*
D10*
G36*
X80810142Y-91014174D02*
G01*
X80833803Y-91017684D01*
X80857007Y-91023496D01*
X80879529Y-91031554D01*
X80901153Y-91041782D01*
X80921670Y-91054079D01*
X80940883Y-91068329D01*
X80958607Y-91084393D01*
X80974671Y-91102117D01*
X80988921Y-91121330D01*
X81001218Y-91141847D01*
X81011446Y-91163471D01*
X81019504Y-91185993D01*
X81025316Y-91209197D01*
X81028826Y-91232858D01*
X81030000Y-91256750D01*
X81030000Y-92169250D01*
X81028826Y-92193142D01*
X81025316Y-92216803D01*
X81019504Y-92240007D01*
X81011446Y-92262529D01*
X81001218Y-92284153D01*
X80988921Y-92304670D01*
X80974671Y-92323883D01*
X80958607Y-92341607D01*
X80940883Y-92357671D01*
X80921670Y-92371921D01*
X80901153Y-92384218D01*
X80879529Y-92394446D01*
X80857007Y-92402504D01*
X80833803Y-92408316D01*
X80810142Y-92411826D01*
X80786250Y-92413000D01*
X80298750Y-92413000D01*
X80274858Y-92411826D01*
X80251197Y-92408316D01*
X80227993Y-92402504D01*
X80205471Y-92394446D01*
X80183847Y-92384218D01*
X80163330Y-92371921D01*
X80144117Y-92357671D01*
X80126393Y-92341607D01*
X80110329Y-92323883D01*
X80096079Y-92304670D01*
X80083782Y-92284153D01*
X80073554Y-92262529D01*
X80065496Y-92240007D01*
X80059684Y-92216803D01*
X80056174Y-92193142D01*
X80055000Y-92169250D01*
X80055000Y-91256750D01*
X80056174Y-91232858D01*
X80059684Y-91209197D01*
X80065496Y-91185993D01*
X80073554Y-91163471D01*
X80083782Y-91141847D01*
X80096079Y-91121330D01*
X80110329Y-91102117D01*
X80126393Y-91084393D01*
X80144117Y-91068329D01*
X80163330Y-91054079D01*
X80183847Y-91041782D01*
X80205471Y-91031554D01*
X80227993Y-91023496D01*
X80251197Y-91017684D01*
X80274858Y-91014174D01*
X80298750Y-91013000D01*
X80786250Y-91013000D01*
X80810142Y-91014174D01*
X80810142Y-91014174D01*
G37*
D11*
X80542500Y-91713000D03*
D10*
G36*
X78935142Y-91014174D02*
G01*
X78958803Y-91017684D01*
X78982007Y-91023496D01*
X79004529Y-91031554D01*
X79026153Y-91041782D01*
X79046670Y-91054079D01*
X79065883Y-91068329D01*
X79083607Y-91084393D01*
X79099671Y-91102117D01*
X79113921Y-91121330D01*
X79126218Y-91141847D01*
X79136446Y-91163471D01*
X79144504Y-91185993D01*
X79150316Y-91209197D01*
X79153826Y-91232858D01*
X79155000Y-91256750D01*
X79155000Y-92169250D01*
X79153826Y-92193142D01*
X79150316Y-92216803D01*
X79144504Y-92240007D01*
X79136446Y-92262529D01*
X79126218Y-92284153D01*
X79113921Y-92304670D01*
X79099671Y-92323883D01*
X79083607Y-92341607D01*
X79065883Y-92357671D01*
X79046670Y-92371921D01*
X79026153Y-92384218D01*
X79004529Y-92394446D01*
X78982007Y-92402504D01*
X78958803Y-92408316D01*
X78935142Y-92411826D01*
X78911250Y-92413000D01*
X78423750Y-92413000D01*
X78399858Y-92411826D01*
X78376197Y-92408316D01*
X78352993Y-92402504D01*
X78330471Y-92394446D01*
X78308847Y-92384218D01*
X78288330Y-92371921D01*
X78269117Y-92357671D01*
X78251393Y-92341607D01*
X78235329Y-92323883D01*
X78221079Y-92304670D01*
X78208782Y-92284153D01*
X78198554Y-92262529D01*
X78190496Y-92240007D01*
X78184684Y-92216803D01*
X78181174Y-92193142D01*
X78180000Y-92169250D01*
X78180000Y-91256750D01*
X78181174Y-91232858D01*
X78184684Y-91209197D01*
X78190496Y-91185993D01*
X78198554Y-91163471D01*
X78208782Y-91141847D01*
X78221079Y-91121330D01*
X78235329Y-91102117D01*
X78251393Y-91084393D01*
X78269117Y-91068329D01*
X78288330Y-91054079D01*
X78308847Y-91041782D01*
X78330471Y-91031554D01*
X78352993Y-91023496D01*
X78376197Y-91017684D01*
X78399858Y-91014174D01*
X78423750Y-91013000D01*
X78911250Y-91013000D01*
X78935142Y-91014174D01*
X78935142Y-91014174D01*
G37*
D11*
X78667500Y-91713000D03*
D10*
G36*
X109690842Y-91014174D02*
G01*
X109714503Y-91017684D01*
X109737707Y-91023496D01*
X109760229Y-91031554D01*
X109781853Y-91041782D01*
X109802370Y-91054079D01*
X109821583Y-91068329D01*
X109839307Y-91084393D01*
X109855371Y-91102117D01*
X109869621Y-91121330D01*
X109881918Y-91141847D01*
X109892146Y-91163471D01*
X109900204Y-91185993D01*
X109906016Y-91209197D01*
X109909526Y-91232858D01*
X109910700Y-91256750D01*
X109910700Y-92169250D01*
X109909526Y-92193142D01*
X109906016Y-92216803D01*
X109900204Y-92240007D01*
X109892146Y-92262529D01*
X109881918Y-92284153D01*
X109869621Y-92304670D01*
X109855371Y-92323883D01*
X109839307Y-92341607D01*
X109821583Y-92357671D01*
X109802370Y-92371921D01*
X109781853Y-92384218D01*
X109760229Y-92394446D01*
X109737707Y-92402504D01*
X109714503Y-92408316D01*
X109690842Y-92411826D01*
X109666950Y-92413000D01*
X109179450Y-92413000D01*
X109155558Y-92411826D01*
X109131897Y-92408316D01*
X109108693Y-92402504D01*
X109086171Y-92394446D01*
X109064547Y-92384218D01*
X109044030Y-92371921D01*
X109024817Y-92357671D01*
X109007093Y-92341607D01*
X108991029Y-92323883D01*
X108976779Y-92304670D01*
X108964482Y-92284153D01*
X108954254Y-92262529D01*
X108946196Y-92240007D01*
X108940384Y-92216803D01*
X108936874Y-92193142D01*
X108935700Y-92169250D01*
X108935700Y-91256750D01*
X108936874Y-91232858D01*
X108940384Y-91209197D01*
X108946196Y-91185993D01*
X108954254Y-91163471D01*
X108964482Y-91141847D01*
X108976779Y-91121330D01*
X108991029Y-91102117D01*
X109007093Y-91084393D01*
X109024817Y-91068329D01*
X109044030Y-91054079D01*
X109064547Y-91041782D01*
X109086171Y-91031554D01*
X109108693Y-91023496D01*
X109131897Y-91017684D01*
X109155558Y-91014174D01*
X109179450Y-91013000D01*
X109666950Y-91013000D01*
X109690842Y-91014174D01*
X109690842Y-91014174D01*
G37*
D11*
X109423200Y-91713000D03*
D10*
G36*
X107815842Y-91014174D02*
G01*
X107839503Y-91017684D01*
X107862707Y-91023496D01*
X107885229Y-91031554D01*
X107906853Y-91041782D01*
X107927370Y-91054079D01*
X107946583Y-91068329D01*
X107964307Y-91084393D01*
X107980371Y-91102117D01*
X107994621Y-91121330D01*
X108006918Y-91141847D01*
X108017146Y-91163471D01*
X108025204Y-91185993D01*
X108031016Y-91209197D01*
X108034526Y-91232858D01*
X108035700Y-91256750D01*
X108035700Y-92169250D01*
X108034526Y-92193142D01*
X108031016Y-92216803D01*
X108025204Y-92240007D01*
X108017146Y-92262529D01*
X108006918Y-92284153D01*
X107994621Y-92304670D01*
X107980371Y-92323883D01*
X107964307Y-92341607D01*
X107946583Y-92357671D01*
X107927370Y-92371921D01*
X107906853Y-92384218D01*
X107885229Y-92394446D01*
X107862707Y-92402504D01*
X107839503Y-92408316D01*
X107815842Y-92411826D01*
X107791950Y-92413000D01*
X107304450Y-92413000D01*
X107280558Y-92411826D01*
X107256897Y-92408316D01*
X107233693Y-92402504D01*
X107211171Y-92394446D01*
X107189547Y-92384218D01*
X107169030Y-92371921D01*
X107149817Y-92357671D01*
X107132093Y-92341607D01*
X107116029Y-92323883D01*
X107101779Y-92304670D01*
X107089482Y-92284153D01*
X107079254Y-92262529D01*
X107071196Y-92240007D01*
X107065384Y-92216803D01*
X107061874Y-92193142D01*
X107060700Y-92169250D01*
X107060700Y-91256750D01*
X107061874Y-91232858D01*
X107065384Y-91209197D01*
X107071196Y-91185993D01*
X107079254Y-91163471D01*
X107089482Y-91141847D01*
X107101779Y-91121330D01*
X107116029Y-91102117D01*
X107132093Y-91084393D01*
X107149817Y-91068329D01*
X107169030Y-91054079D01*
X107189547Y-91041782D01*
X107211171Y-91031554D01*
X107233693Y-91023496D01*
X107256897Y-91017684D01*
X107280558Y-91014174D01*
X107304450Y-91013000D01*
X107791950Y-91013000D01*
X107815842Y-91014174D01*
X107815842Y-91014174D01*
G37*
D11*
X107548200Y-91713000D03*
D10*
G36*
X95205142Y-92944574D02*
G01*
X95228803Y-92948084D01*
X95252007Y-92953896D01*
X95274529Y-92961954D01*
X95296153Y-92972182D01*
X95316670Y-92984479D01*
X95335883Y-92998729D01*
X95353607Y-93014793D01*
X95369671Y-93032517D01*
X95383921Y-93051730D01*
X95396218Y-93072247D01*
X95406446Y-93093871D01*
X95414504Y-93116393D01*
X95420316Y-93139597D01*
X95423826Y-93163258D01*
X95425000Y-93187150D01*
X95425000Y-94099650D01*
X95423826Y-94123542D01*
X95420316Y-94147203D01*
X95414504Y-94170407D01*
X95406446Y-94192929D01*
X95396218Y-94214553D01*
X95383921Y-94235070D01*
X95369671Y-94254283D01*
X95353607Y-94272007D01*
X95335883Y-94288071D01*
X95316670Y-94302321D01*
X95296153Y-94314618D01*
X95274529Y-94324846D01*
X95252007Y-94332904D01*
X95228803Y-94338716D01*
X95205142Y-94342226D01*
X95181250Y-94343400D01*
X94693750Y-94343400D01*
X94669858Y-94342226D01*
X94646197Y-94338716D01*
X94622993Y-94332904D01*
X94600471Y-94324846D01*
X94578847Y-94314618D01*
X94558330Y-94302321D01*
X94539117Y-94288071D01*
X94521393Y-94272007D01*
X94505329Y-94254283D01*
X94491079Y-94235070D01*
X94478782Y-94214553D01*
X94468554Y-94192929D01*
X94460496Y-94170407D01*
X94454684Y-94147203D01*
X94451174Y-94123542D01*
X94450000Y-94099650D01*
X94450000Y-93187150D01*
X94451174Y-93163258D01*
X94454684Y-93139597D01*
X94460496Y-93116393D01*
X94468554Y-93093871D01*
X94478782Y-93072247D01*
X94491079Y-93051730D01*
X94505329Y-93032517D01*
X94521393Y-93014793D01*
X94539117Y-92998729D01*
X94558330Y-92984479D01*
X94578847Y-92972182D01*
X94600471Y-92961954D01*
X94622993Y-92953896D01*
X94646197Y-92948084D01*
X94669858Y-92944574D01*
X94693750Y-92943400D01*
X95181250Y-92943400D01*
X95205142Y-92944574D01*
X95205142Y-92944574D01*
G37*
D11*
X94937500Y-93643400D03*
D10*
G36*
X93330142Y-92944574D02*
G01*
X93353803Y-92948084D01*
X93377007Y-92953896D01*
X93399529Y-92961954D01*
X93421153Y-92972182D01*
X93441670Y-92984479D01*
X93460883Y-92998729D01*
X93478607Y-93014793D01*
X93494671Y-93032517D01*
X93508921Y-93051730D01*
X93521218Y-93072247D01*
X93531446Y-93093871D01*
X93539504Y-93116393D01*
X93545316Y-93139597D01*
X93548826Y-93163258D01*
X93550000Y-93187150D01*
X93550000Y-94099650D01*
X93548826Y-94123542D01*
X93545316Y-94147203D01*
X93539504Y-94170407D01*
X93531446Y-94192929D01*
X93521218Y-94214553D01*
X93508921Y-94235070D01*
X93494671Y-94254283D01*
X93478607Y-94272007D01*
X93460883Y-94288071D01*
X93441670Y-94302321D01*
X93421153Y-94314618D01*
X93399529Y-94324846D01*
X93377007Y-94332904D01*
X93353803Y-94338716D01*
X93330142Y-94342226D01*
X93306250Y-94343400D01*
X92818750Y-94343400D01*
X92794858Y-94342226D01*
X92771197Y-94338716D01*
X92747993Y-94332904D01*
X92725471Y-94324846D01*
X92703847Y-94314618D01*
X92683330Y-94302321D01*
X92664117Y-94288071D01*
X92646393Y-94272007D01*
X92630329Y-94254283D01*
X92616079Y-94235070D01*
X92603782Y-94214553D01*
X92593554Y-94192929D01*
X92585496Y-94170407D01*
X92579684Y-94147203D01*
X92576174Y-94123542D01*
X92575000Y-94099650D01*
X92575000Y-93187150D01*
X92576174Y-93163258D01*
X92579684Y-93139597D01*
X92585496Y-93116393D01*
X92593554Y-93093871D01*
X92603782Y-93072247D01*
X92616079Y-93051730D01*
X92630329Y-93032517D01*
X92646393Y-93014793D01*
X92664117Y-92998729D01*
X92683330Y-92984479D01*
X92703847Y-92972182D01*
X92725471Y-92961954D01*
X92747993Y-92953896D01*
X92771197Y-92948084D01*
X92794858Y-92944574D01*
X92818750Y-92943400D01*
X93306250Y-92943400D01*
X93330142Y-92944574D01*
X93330142Y-92944574D01*
G37*
D11*
X93062500Y-93643400D03*
D10*
G36*
X80810142Y-92944574D02*
G01*
X80833803Y-92948084D01*
X80857007Y-92953896D01*
X80879529Y-92961954D01*
X80901153Y-92972182D01*
X80921670Y-92984479D01*
X80940883Y-92998729D01*
X80958607Y-93014793D01*
X80974671Y-93032517D01*
X80988921Y-93051730D01*
X81001218Y-93072247D01*
X81011446Y-93093871D01*
X81019504Y-93116393D01*
X81025316Y-93139597D01*
X81028826Y-93163258D01*
X81030000Y-93187150D01*
X81030000Y-94099650D01*
X81028826Y-94123542D01*
X81025316Y-94147203D01*
X81019504Y-94170407D01*
X81011446Y-94192929D01*
X81001218Y-94214553D01*
X80988921Y-94235070D01*
X80974671Y-94254283D01*
X80958607Y-94272007D01*
X80940883Y-94288071D01*
X80921670Y-94302321D01*
X80901153Y-94314618D01*
X80879529Y-94324846D01*
X80857007Y-94332904D01*
X80833803Y-94338716D01*
X80810142Y-94342226D01*
X80786250Y-94343400D01*
X80298750Y-94343400D01*
X80274858Y-94342226D01*
X80251197Y-94338716D01*
X80227993Y-94332904D01*
X80205471Y-94324846D01*
X80183847Y-94314618D01*
X80163330Y-94302321D01*
X80144117Y-94288071D01*
X80126393Y-94272007D01*
X80110329Y-94254283D01*
X80096079Y-94235070D01*
X80083782Y-94214553D01*
X80073554Y-94192929D01*
X80065496Y-94170407D01*
X80059684Y-94147203D01*
X80056174Y-94123542D01*
X80055000Y-94099650D01*
X80055000Y-93187150D01*
X80056174Y-93163258D01*
X80059684Y-93139597D01*
X80065496Y-93116393D01*
X80073554Y-93093871D01*
X80083782Y-93072247D01*
X80096079Y-93051730D01*
X80110329Y-93032517D01*
X80126393Y-93014793D01*
X80144117Y-92998729D01*
X80163330Y-92984479D01*
X80183847Y-92972182D01*
X80205471Y-92961954D01*
X80227993Y-92953896D01*
X80251197Y-92948084D01*
X80274858Y-92944574D01*
X80298750Y-92943400D01*
X80786250Y-92943400D01*
X80810142Y-92944574D01*
X80810142Y-92944574D01*
G37*
D11*
X80542500Y-93643400D03*
D10*
G36*
X78935142Y-92944574D02*
G01*
X78958803Y-92948084D01*
X78982007Y-92953896D01*
X79004529Y-92961954D01*
X79026153Y-92972182D01*
X79046670Y-92984479D01*
X79065883Y-92998729D01*
X79083607Y-93014793D01*
X79099671Y-93032517D01*
X79113921Y-93051730D01*
X79126218Y-93072247D01*
X79136446Y-93093871D01*
X79144504Y-93116393D01*
X79150316Y-93139597D01*
X79153826Y-93163258D01*
X79155000Y-93187150D01*
X79155000Y-94099650D01*
X79153826Y-94123542D01*
X79150316Y-94147203D01*
X79144504Y-94170407D01*
X79136446Y-94192929D01*
X79126218Y-94214553D01*
X79113921Y-94235070D01*
X79099671Y-94254283D01*
X79083607Y-94272007D01*
X79065883Y-94288071D01*
X79046670Y-94302321D01*
X79026153Y-94314618D01*
X79004529Y-94324846D01*
X78982007Y-94332904D01*
X78958803Y-94338716D01*
X78935142Y-94342226D01*
X78911250Y-94343400D01*
X78423750Y-94343400D01*
X78399858Y-94342226D01*
X78376197Y-94338716D01*
X78352993Y-94332904D01*
X78330471Y-94324846D01*
X78308847Y-94314618D01*
X78288330Y-94302321D01*
X78269117Y-94288071D01*
X78251393Y-94272007D01*
X78235329Y-94254283D01*
X78221079Y-94235070D01*
X78208782Y-94214553D01*
X78198554Y-94192929D01*
X78190496Y-94170407D01*
X78184684Y-94147203D01*
X78181174Y-94123542D01*
X78180000Y-94099650D01*
X78180000Y-93187150D01*
X78181174Y-93163258D01*
X78184684Y-93139597D01*
X78190496Y-93116393D01*
X78198554Y-93093871D01*
X78208782Y-93072247D01*
X78221079Y-93051730D01*
X78235329Y-93032517D01*
X78251393Y-93014793D01*
X78269117Y-92998729D01*
X78288330Y-92984479D01*
X78308847Y-92972182D01*
X78330471Y-92961954D01*
X78352993Y-92953896D01*
X78376197Y-92948084D01*
X78399858Y-92944574D01*
X78423750Y-92943400D01*
X78911250Y-92943400D01*
X78935142Y-92944574D01*
X78935142Y-92944574D01*
G37*
D11*
X78667500Y-93643400D03*
D10*
G36*
X109688542Y-92944574D02*
G01*
X109712203Y-92948084D01*
X109735407Y-92953896D01*
X109757929Y-92961954D01*
X109779553Y-92972182D01*
X109800070Y-92984479D01*
X109819283Y-92998729D01*
X109837007Y-93014793D01*
X109853071Y-93032517D01*
X109867321Y-93051730D01*
X109879618Y-93072247D01*
X109889846Y-93093871D01*
X109897904Y-93116393D01*
X109903716Y-93139597D01*
X109907226Y-93163258D01*
X109908400Y-93187150D01*
X109908400Y-94099650D01*
X109907226Y-94123542D01*
X109903716Y-94147203D01*
X109897904Y-94170407D01*
X109889846Y-94192929D01*
X109879618Y-94214553D01*
X109867321Y-94235070D01*
X109853071Y-94254283D01*
X109837007Y-94272007D01*
X109819283Y-94288071D01*
X109800070Y-94302321D01*
X109779553Y-94314618D01*
X109757929Y-94324846D01*
X109735407Y-94332904D01*
X109712203Y-94338716D01*
X109688542Y-94342226D01*
X109664650Y-94343400D01*
X109177150Y-94343400D01*
X109153258Y-94342226D01*
X109129597Y-94338716D01*
X109106393Y-94332904D01*
X109083871Y-94324846D01*
X109062247Y-94314618D01*
X109041730Y-94302321D01*
X109022517Y-94288071D01*
X109004793Y-94272007D01*
X108988729Y-94254283D01*
X108974479Y-94235070D01*
X108962182Y-94214553D01*
X108951954Y-94192929D01*
X108943896Y-94170407D01*
X108938084Y-94147203D01*
X108934574Y-94123542D01*
X108933400Y-94099650D01*
X108933400Y-93187150D01*
X108934574Y-93163258D01*
X108938084Y-93139597D01*
X108943896Y-93116393D01*
X108951954Y-93093871D01*
X108962182Y-93072247D01*
X108974479Y-93051730D01*
X108988729Y-93032517D01*
X109004793Y-93014793D01*
X109022517Y-92998729D01*
X109041730Y-92984479D01*
X109062247Y-92972182D01*
X109083871Y-92961954D01*
X109106393Y-92953896D01*
X109129597Y-92948084D01*
X109153258Y-92944574D01*
X109177150Y-92943400D01*
X109664650Y-92943400D01*
X109688542Y-92944574D01*
X109688542Y-92944574D01*
G37*
D11*
X109420900Y-93643400D03*
D10*
G36*
X107813542Y-92944574D02*
G01*
X107837203Y-92948084D01*
X107860407Y-92953896D01*
X107882929Y-92961954D01*
X107904553Y-92972182D01*
X107925070Y-92984479D01*
X107944283Y-92998729D01*
X107962007Y-93014793D01*
X107978071Y-93032517D01*
X107992321Y-93051730D01*
X108004618Y-93072247D01*
X108014846Y-93093871D01*
X108022904Y-93116393D01*
X108028716Y-93139597D01*
X108032226Y-93163258D01*
X108033400Y-93187150D01*
X108033400Y-94099650D01*
X108032226Y-94123542D01*
X108028716Y-94147203D01*
X108022904Y-94170407D01*
X108014846Y-94192929D01*
X108004618Y-94214553D01*
X107992321Y-94235070D01*
X107978071Y-94254283D01*
X107962007Y-94272007D01*
X107944283Y-94288071D01*
X107925070Y-94302321D01*
X107904553Y-94314618D01*
X107882929Y-94324846D01*
X107860407Y-94332904D01*
X107837203Y-94338716D01*
X107813542Y-94342226D01*
X107789650Y-94343400D01*
X107302150Y-94343400D01*
X107278258Y-94342226D01*
X107254597Y-94338716D01*
X107231393Y-94332904D01*
X107208871Y-94324846D01*
X107187247Y-94314618D01*
X107166730Y-94302321D01*
X107147517Y-94288071D01*
X107129793Y-94272007D01*
X107113729Y-94254283D01*
X107099479Y-94235070D01*
X107087182Y-94214553D01*
X107076954Y-94192929D01*
X107068896Y-94170407D01*
X107063084Y-94147203D01*
X107059574Y-94123542D01*
X107058400Y-94099650D01*
X107058400Y-93187150D01*
X107059574Y-93163258D01*
X107063084Y-93139597D01*
X107068896Y-93116393D01*
X107076954Y-93093871D01*
X107087182Y-93072247D01*
X107099479Y-93051730D01*
X107113729Y-93032517D01*
X107129793Y-93014793D01*
X107147517Y-92998729D01*
X107166730Y-92984479D01*
X107187247Y-92972182D01*
X107208871Y-92961954D01*
X107231393Y-92953896D01*
X107254597Y-92948084D01*
X107278258Y-92944574D01*
X107302150Y-92943400D01*
X107789650Y-92943400D01*
X107813542Y-92944574D01*
X107813542Y-92944574D01*
G37*
D11*
X107545900Y-93643400D03*
D18*
X61341000Y-90824000D03*
D19*
X58801000Y-90824000D03*
D18*
X129286000Y-90824000D03*
D19*
X126746000Y-90824000D03*
D13*
X72390000Y-77616000D03*
D10*
G36*
X68124505Y-75817204D02*
G01*
X68148773Y-75820804D01*
X68172572Y-75826765D01*
X68195671Y-75835030D01*
X68217850Y-75845520D01*
X68238893Y-75858132D01*
X68258599Y-75872747D01*
X68276777Y-75889223D01*
X68293253Y-75907401D01*
X68307868Y-75927107D01*
X68320480Y-75948150D01*
X68330970Y-75970329D01*
X68339235Y-75993428D01*
X68345196Y-76017227D01*
X68348796Y-76041495D01*
X68350000Y-76065999D01*
X68350000Y-79166001D01*
X68348796Y-79190505D01*
X68345196Y-79214773D01*
X68339235Y-79238572D01*
X68330970Y-79261671D01*
X68320480Y-79283850D01*
X68307868Y-79304893D01*
X68293253Y-79324599D01*
X68276777Y-79342777D01*
X68258599Y-79359253D01*
X68238893Y-79373868D01*
X68217850Y-79386480D01*
X68195671Y-79396970D01*
X68172572Y-79405235D01*
X68148773Y-79411196D01*
X68124505Y-79414796D01*
X68100001Y-79416000D01*
X66519999Y-79416000D01*
X66495495Y-79414796D01*
X66471227Y-79411196D01*
X66447428Y-79405235D01*
X66424329Y-79396970D01*
X66402150Y-79386480D01*
X66381107Y-79373868D01*
X66361401Y-79359253D01*
X66343223Y-79342777D01*
X66326747Y-79324599D01*
X66312132Y-79304893D01*
X66299520Y-79283850D01*
X66289030Y-79261671D01*
X66280765Y-79238572D01*
X66274804Y-79214773D01*
X66271204Y-79190505D01*
X66270000Y-79166001D01*
X66270000Y-76065999D01*
X66271204Y-76041495D01*
X66274804Y-76017227D01*
X66280765Y-75993428D01*
X66289030Y-75970329D01*
X66299520Y-75948150D01*
X66312132Y-75927107D01*
X66326747Y-75907401D01*
X66343223Y-75889223D01*
X66361401Y-75872747D01*
X66381107Y-75858132D01*
X66402150Y-75845520D01*
X66424329Y-75835030D01*
X66447428Y-75826765D01*
X66471227Y-75820804D01*
X66495495Y-75817204D01*
X66519999Y-75816000D01*
X68100001Y-75816000D01*
X68124505Y-75817204D01*
X68124505Y-75817204D01*
G37*
D14*
X67310000Y-77616000D03*
D13*
X120777000Y-77616000D03*
D10*
G36*
X116511505Y-75817204D02*
G01*
X116535773Y-75820804D01*
X116559572Y-75826765D01*
X116582671Y-75835030D01*
X116604850Y-75845520D01*
X116625893Y-75858132D01*
X116645599Y-75872747D01*
X116663777Y-75889223D01*
X116680253Y-75907401D01*
X116694868Y-75927107D01*
X116707480Y-75948150D01*
X116717970Y-75970329D01*
X116726235Y-75993428D01*
X116732196Y-76017227D01*
X116735796Y-76041495D01*
X116737000Y-76065999D01*
X116737000Y-79166001D01*
X116735796Y-79190505D01*
X116732196Y-79214773D01*
X116726235Y-79238572D01*
X116717970Y-79261671D01*
X116707480Y-79283850D01*
X116694868Y-79304893D01*
X116680253Y-79324599D01*
X116663777Y-79342777D01*
X116645599Y-79359253D01*
X116625893Y-79373868D01*
X116604850Y-79386480D01*
X116582671Y-79396970D01*
X116559572Y-79405235D01*
X116535773Y-79411196D01*
X116511505Y-79414796D01*
X116487001Y-79416000D01*
X114906999Y-79416000D01*
X114882495Y-79414796D01*
X114858227Y-79411196D01*
X114834428Y-79405235D01*
X114811329Y-79396970D01*
X114789150Y-79386480D01*
X114768107Y-79373868D01*
X114748401Y-79359253D01*
X114730223Y-79342777D01*
X114713747Y-79324599D01*
X114699132Y-79304893D01*
X114686520Y-79283850D01*
X114676030Y-79261671D01*
X114667765Y-79238572D01*
X114661804Y-79214773D01*
X114658204Y-79190505D01*
X114657000Y-79166001D01*
X114657000Y-76065999D01*
X114658204Y-76041495D01*
X114661804Y-76017227D01*
X114667765Y-75993428D01*
X114676030Y-75970329D01*
X114686520Y-75948150D01*
X114699132Y-75927107D01*
X114713747Y-75907401D01*
X114730223Y-75889223D01*
X114748401Y-75872747D01*
X114768107Y-75858132D01*
X114789150Y-75845520D01*
X114811329Y-75835030D01*
X114834428Y-75826765D01*
X114858227Y-75820804D01*
X114882495Y-75817204D01*
X114906999Y-75816000D01*
X116487001Y-75816000D01*
X116511505Y-75817204D01*
X116511505Y-75817204D01*
G37*
D14*
X115697000Y-77616000D03*
D13*
X72390000Y-84474000D03*
D10*
G36*
X68124505Y-82675204D02*
G01*
X68148773Y-82678804D01*
X68172572Y-82684765D01*
X68195671Y-82693030D01*
X68217850Y-82703520D01*
X68238893Y-82716132D01*
X68258599Y-82730747D01*
X68276777Y-82747223D01*
X68293253Y-82765401D01*
X68307868Y-82785107D01*
X68320480Y-82806150D01*
X68330970Y-82828329D01*
X68339235Y-82851428D01*
X68345196Y-82875227D01*
X68348796Y-82899495D01*
X68350000Y-82923999D01*
X68350000Y-86024001D01*
X68348796Y-86048505D01*
X68345196Y-86072773D01*
X68339235Y-86096572D01*
X68330970Y-86119671D01*
X68320480Y-86141850D01*
X68307868Y-86162893D01*
X68293253Y-86182599D01*
X68276777Y-86200777D01*
X68258599Y-86217253D01*
X68238893Y-86231868D01*
X68217850Y-86244480D01*
X68195671Y-86254970D01*
X68172572Y-86263235D01*
X68148773Y-86269196D01*
X68124505Y-86272796D01*
X68100001Y-86274000D01*
X66519999Y-86274000D01*
X66495495Y-86272796D01*
X66471227Y-86269196D01*
X66447428Y-86263235D01*
X66424329Y-86254970D01*
X66402150Y-86244480D01*
X66381107Y-86231868D01*
X66361401Y-86217253D01*
X66343223Y-86200777D01*
X66326747Y-86182599D01*
X66312132Y-86162893D01*
X66299520Y-86141850D01*
X66289030Y-86119671D01*
X66280765Y-86096572D01*
X66274804Y-86072773D01*
X66271204Y-86048505D01*
X66270000Y-86024001D01*
X66270000Y-82923999D01*
X66271204Y-82899495D01*
X66274804Y-82875227D01*
X66280765Y-82851428D01*
X66289030Y-82828329D01*
X66299520Y-82806150D01*
X66312132Y-82785107D01*
X66326747Y-82765401D01*
X66343223Y-82747223D01*
X66361401Y-82730747D01*
X66381107Y-82716132D01*
X66402150Y-82703520D01*
X66424329Y-82693030D01*
X66447428Y-82684765D01*
X66471227Y-82678804D01*
X66495495Y-82675204D01*
X66519999Y-82674000D01*
X68100001Y-82674000D01*
X68124505Y-82675204D01*
X68124505Y-82675204D01*
G37*
D14*
X67310000Y-84474000D03*
D13*
X120777000Y-84474000D03*
D10*
G36*
X116511505Y-82675204D02*
G01*
X116535773Y-82678804D01*
X116559572Y-82684765D01*
X116582671Y-82693030D01*
X116604850Y-82703520D01*
X116625893Y-82716132D01*
X116645599Y-82730747D01*
X116663777Y-82747223D01*
X116680253Y-82765401D01*
X116694868Y-82785107D01*
X116707480Y-82806150D01*
X116717970Y-82828329D01*
X116726235Y-82851428D01*
X116732196Y-82875227D01*
X116735796Y-82899495D01*
X116737000Y-82923999D01*
X116737000Y-86024001D01*
X116735796Y-86048505D01*
X116732196Y-86072773D01*
X116726235Y-86096572D01*
X116717970Y-86119671D01*
X116707480Y-86141850D01*
X116694868Y-86162893D01*
X116680253Y-86182599D01*
X116663777Y-86200777D01*
X116645599Y-86217253D01*
X116625893Y-86231868D01*
X116604850Y-86244480D01*
X116582671Y-86254970D01*
X116559572Y-86263235D01*
X116535773Y-86269196D01*
X116511505Y-86272796D01*
X116487001Y-86274000D01*
X114906999Y-86274000D01*
X114882495Y-86272796D01*
X114858227Y-86269196D01*
X114834428Y-86263235D01*
X114811329Y-86254970D01*
X114789150Y-86244480D01*
X114768107Y-86231868D01*
X114748401Y-86217253D01*
X114730223Y-86200777D01*
X114713747Y-86182599D01*
X114699132Y-86162893D01*
X114686520Y-86141850D01*
X114676030Y-86119671D01*
X114667765Y-86096572D01*
X114661804Y-86072773D01*
X114658204Y-86048505D01*
X114657000Y-86024001D01*
X114657000Y-82923999D01*
X114658204Y-82899495D01*
X114661804Y-82875227D01*
X114667765Y-82851428D01*
X114676030Y-82828329D01*
X114686520Y-82806150D01*
X114699132Y-82785107D01*
X114713747Y-82765401D01*
X114730223Y-82747223D01*
X114748401Y-82730747D01*
X114768107Y-82716132D01*
X114789150Y-82703520D01*
X114811329Y-82693030D01*
X114834428Y-82684765D01*
X114858227Y-82678804D01*
X114882495Y-82675204D01*
X114906999Y-82674000D01*
X116487001Y-82674000D01*
X116511505Y-82675204D01*
X116511505Y-82675204D01*
G37*
D14*
X115697000Y-84474000D03*
D20*
X92183200Y-83508800D03*
X96183200Y-83508800D03*
D21*
X93268800Y-72538000D03*
X93268800Y-79138000D03*
D15*
X58527000Y-84101000D03*
D10*
G36*
X60101504Y-79702204D02*
G01*
X60125773Y-79705804D01*
X60149571Y-79711765D01*
X60172671Y-79720030D01*
X60194849Y-79730520D01*
X60215893Y-79743133D01*
X60235598Y-79757747D01*
X60253777Y-79774223D01*
X60270253Y-79792402D01*
X60284867Y-79812107D01*
X60297480Y-79833151D01*
X60307970Y-79855329D01*
X60316235Y-79878429D01*
X60322196Y-79902227D01*
X60325796Y-79926496D01*
X60327000Y-79951000D01*
X60327000Y-81251000D01*
X60325796Y-81275504D01*
X60322196Y-81299773D01*
X60316235Y-81323571D01*
X60307970Y-81346671D01*
X60297480Y-81368849D01*
X60284867Y-81389893D01*
X60270253Y-81409598D01*
X60253777Y-81427777D01*
X60235598Y-81444253D01*
X60215893Y-81458867D01*
X60194849Y-81471480D01*
X60172671Y-81481970D01*
X60149571Y-81490235D01*
X60125773Y-81496196D01*
X60101504Y-81499796D01*
X60077000Y-81501000D01*
X56977000Y-81501000D01*
X56952496Y-81499796D01*
X56928227Y-81496196D01*
X56904429Y-81490235D01*
X56881329Y-81481970D01*
X56859151Y-81471480D01*
X56838107Y-81458867D01*
X56818402Y-81444253D01*
X56800223Y-81427777D01*
X56783747Y-81409598D01*
X56769133Y-81389893D01*
X56756520Y-81368849D01*
X56746030Y-81346671D01*
X56737765Y-81323571D01*
X56731804Y-81299773D01*
X56728204Y-81275504D01*
X56727000Y-81251000D01*
X56727000Y-79951000D01*
X56728204Y-79926496D01*
X56731804Y-79902227D01*
X56737765Y-79878429D01*
X56746030Y-79855329D01*
X56756520Y-79833151D01*
X56769133Y-79812107D01*
X56783747Y-79792402D01*
X56800223Y-79774223D01*
X56818402Y-79757747D01*
X56838107Y-79743133D01*
X56859151Y-79730520D01*
X56881329Y-79720030D01*
X56904429Y-79711765D01*
X56928227Y-79705804D01*
X56952496Y-79702204D01*
X56977000Y-79701000D01*
X60077000Y-79701000D01*
X60101504Y-79702204D01*
X60101504Y-79702204D01*
G37*
D16*
X58527000Y-80601000D03*
D15*
X58527000Y-74501000D03*
D10*
G36*
X60101504Y-70102204D02*
G01*
X60125773Y-70105804D01*
X60149571Y-70111765D01*
X60172671Y-70120030D01*
X60194849Y-70130520D01*
X60215893Y-70143133D01*
X60235598Y-70157747D01*
X60253777Y-70174223D01*
X60270253Y-70192402D01*
X60284867Y-70212107D01*
X60297480Y-70233151D01*
X60307970Y-70255329D01*
X60316235Y-70278429D01*
X60322196Y-70302227D01*
X60325796Y-70326496D01*
X60327000Y-70351000D01*
X60327000Y-71651000D01*
X60325796Y-71675504D01*
X60322196Y-71699773D01*
X60316235Y-71723571D01*
X60307970Y-71746671D01*
X60297480Y-71768849D01*
X60284867Y-71789893D01*
X60270253Y-71809598D01*
X60253777Y-71827777D01*
X60235598Y-71844253D01*
X60215893Y-71858867D01*
X60194849Y-71871480D01*
X60172671Y-71881970D01*
X60149571Y-71890235D01*
X60125773Y-71896196D01*
X60101504Y-71899796D01*
X60077000Y-71901000D01*
X56977000Y-71901000D01*
X56952496Y-71899796D01*
X56928227Y-71896196D01*
X56904429Y-71890235D01*
X56881329Y-71881970D01*
X56859151Y-71871480D01*
X56838107Y-71858867D01*
X56818402Y-71844253D01*
X56800223Y-71827777D01*
X56783747Y-71809598D01*
X56769133Y-71789893D01*
X56756520Y-71768849D01*
X56746030Y-71746671D01*
X56737765Y-71723571D01*
X56731804Y-71699773D01*
X56728204Y-71675504D01*
X56727000Y-71651000D01*
X56727000Y-70351000D01*
X56728204Y-70326496D01*
X56731804Y-70302227D01*
X56737765Y-70278429D01*
X56746030Y-70255329D01*
X56756520Y-70233151D01*
X56769133Y-70212107D01*
X56783747Y-70192402D01*
X56800223Y-70174223D01*
X56818402Y-70157747D01*
X56838107Y-70143133D01*
X56859151Y-70130520D01*
X56881329Y-70120030D01*
X56904429Y-70111765D01*
X56928227Y-70105804D01*
X56952496Y-70102204D01*
X56977000Y-70101000D01*
X60077000Y-70101000D01*
X60101504Y-70102204D01*
X60101504Y-70102204D01*
G37*
D16*
X58527000Y-71001000D03*
D22*
X102276700Y-83949800D03*
X103976700Y-83949800D03*
X105676700Y-83949800D03*
X107376700Y-83949800D03*
X109076700Y-83949800D03*
D23*
X105676700Y-74799800D03*
D10*
G36*
X100759342Y-90208374D02*
G01*
X100783003Y-90211884D01*
X100806207Y-90217696D01*
X100828729Y-90225754D01*
X100850353Y-90235982D01*
X100870870Y-90248279D01*
X100890083Y-90262529D01*
X100907807Y-90278593D01*
X100923871Y-90296317D01*
X100938121Y-90315530D01*
X100950418Y-90336047D01*
X100960646Y-90357671D01*
X100968704Y-90380193D01*
X100974516Y-90403397D01*
X100978026Y-90427058D01*
X100979200Y-90450950D01*
X100979200Y-90938450D01*
X100978026Y-90962342D01*
X100974516Y-90986003D01*
X100968704Y-91009207D01*
X100960646Y-91031729D01*
X100950418Y-91053353D01*
X100938121Y-91073870D01*
X100923871Y-91093083D01*
X100907807Y-91110807D01*
X100890083Y-91126871D01*
X100870870Y-91141121D01*
X100850353Y-91153418D01*
X100828729Y-91163646D01*
X100806207Y-91171704D01*
X100783003Y-91177516D01*
X100759342Y-91181026D01*
X100735450Y-91182200D01*
X99822950Y-91182200D01*
X99799058Y-91181026D01*
X99775397Y-91177516D01*
X99752193Y-91171704D01*
X99729671Y-91163646D01*
X99708047Y-91153418D01*
X99687530Y-91141121D01*
X99668317Y-91126871D01*
X99650593Y-91110807D01*
X99634529Y-91093083D01*
X99620279Y-91073870D01*
X99607982Y-91053353D01*
X99597754Y-91031729D01*
X99589696Y-91009207D01*
X99583884Y-90986003D01*
X99580374Y-90962342D01*
X99579200Y-90938450D01*
X99579200Y-90450950D01*
X99580374Y-90427058D01*
X99583884Y-90403397D01*
X99589696Y-90380193D01*
X99597754Y-90357671D01*
X99607982Y-90336047D01*
X99620279Y-90315530D01*
X99634529Y-90296317D01*
X99650593Y-90278593D01*
X99668317Y-90262529D01*
X99687530Y-90248279D01*
X99708047Y-90235982D01*
X99729671Y-90225754D01*
X99752193Y-90217696D01*
X99775397Y-90211884D01*
X99799058Y-90208374D01*
X99822950Y-90207200D01*
X100735450Y-90207200D01*
X100759342Y-90208374D01*
X100759342Y-90208374D01*
G37*
D11*
X100279200Y-90694700D03*
D10*
G36*
X100759342Y-88333374D02*
G01*
X100783003Y-88336884D01*
X100806207Y-88342696D01*
X100828729Y-88350754D01*
X100850353Y-88360982D01*
X100870870Y-88373279D01*
X100890083Y-88387529D01*
X100907807Y-88403593D01*
X100923871Y-88421317D01*
X100938121Y-88440530D01*
X100950418Y-88461047D01*
X100960646Y-88482671D01*
X100968704Y-88505193D01*
X100974516Y-88528397D01*
X100978026Y-88552058D01*
X100979200Y-88575950D01*
X100979200Y-89063450D01*
X100978026Y-89087342D01*
X100974516Y-89111003D01*
X100968704Y-89134207D01*
X100960646Y-89156729D01*
X100950418Y-89178353D01*
X100938121Y-89198870D01*
X100923871Y-89218083D01*
X100907807Y-89235807D01*
X100890083Y-89251871D01*
X100870870Y-89266121D01*
X100850353Y-89278418D01*
X100828729Y-89288646D01*
X100806207Y-89296704D01*
X100783003Y-89302516D01*
X100759342Y-89306026D01*
X100735450Y-89307200D01*
X99822950Y-89307200D01*
X99799058Y-89306026D01*
X99775397Y-89302516D01*
X99752193Y-89296704D01*
X99729671Y-89288646D01*
X99708047Y-89278418D01*
X99687530Y-89266121D01*
X99668317Y-89251871D01*
X99650593Y-89235807D01*
X99634529Y-89218083D01*
X99620279Y-89198870D01*
X99607982Y-89178353D01*
X99597754Y-89156729D01*
X99589696Y-89134207D01*
X99583884Y-89111003D01*
X99580374Y-89087342D01*
X99579200Y-89063450D01*
X99579200Y-88575950D01*
X99580374Y-88552058D01*
X99583884Y-88528397D01*
X99589696Y-88505193D01*
X99597754Y-88482671D01*
X99607982Y-88461047D01*
X99620279Y-88440530D01*
X99634529Y-88421317D01*
X99650593Y-88403593D01*
X99668317Y-88387529D01*
X99687530Y-88373279D01*
X99708047Y-88360982D01*
X99729671Y-88350754D01*
X99752193Y-88342696D01*
X99775397Y-88336884D01*
X99799058Y-88333374D01*
X99822950Y-88332200D01*
X100735450Y-88332200D01*
X100759342Y-88333374D01*
X100759342Y-88333374D01*
G37*
D11*
X100279200Y-88819700D03*
D24*
X52087268Y-58836500D03*
X52087268Y-65236500D03*
X52087268Y-71636500D03*
X52087268Y-78036500D03*
X52087268Y-84436500D03*
X55287268Y-62036500D03*
X55287268Y-68436500D03*
X55287268Y-74836500D03*
X55287268Y-81236500D03*
X56087268Y-86836500D03*
X56887268Y-57236500D03*
X58487268Y-51636500D03*
X58487268Y-78036500D03*
X58487268Y-93236500D03*
X60887268Y-67636500D03*
X61687268Y-54836500D03*
X61687268Y-62036500D03*
X62487268Y-74836500D03*
X62487268Y-84436500D03*
X63287268Y-90036500D03*
X64887268Y-51636500D03*
X64887268Y-58036500D03*
X64887268Y-70036500D03*
X66487268Y-93236500D03*
X67287268Y-62836500D03*
X68087268Y-54836500D03*
X68087268Y-87636500D03*
X68887268Y-67636500D03*
X70487268Y-58836500D03*
X71287268Y-51636500D03*
X71287268Y-90836500D03*
X72887268Y-70036500D03*
X72887268Y-81236500D03*
X73687268Y-55636500D03*
X74487268Y-87636500D03*
X75287268Y-93236500D03*
X76887268Y-52436500D03*
X76887268Y-76436500D03*
X78487268Y-57236500D03*
X78487268Y-90036500D03*
X80887268Y-63636500D03*
X81687268Y-54036500D03*
X81687268Y-69236500D03*
X82487268Y-74836500D03*
X82487268Y-82036500D03*
X83287268Y-58836500D03*
X84087268Y-93236500D03*
X85687268Y-51636500D03*
X85687268Y-78036500D03*
X86487268Y-86036500D03*
X87287268Y-56436500D03*
X88087268Y-90836500D03*
X88887268Y-69236500D03*
X88887268Y-82036500D03*
X89687268Y-75636500D03*
X90487268Y-53236500D03*
X92087268Y-85236500D03*
X92887268Y-57236500D03*
X94487268Y-62036500D03*
X95287268Y-51636500D03*
X95287268Y-69236500D03*
X95287268Y-76436500D03*
X96887268Y-86836500D03*
X97687268Y-55636500D03*
X98487268Y-91636500D03*
X99287268Y-71636500D03*
X100887268Y-52436500D03*
X103287268Y-69236500D03*
X104087268Y-93236500D03*
X106487268Y-51636500D03*
X107287268Y-57236500D03*
X107287268Y-90036500D03*
X108887268Y-62036500D03*
X109687268Y-80436500D03*
X110487268Y-86036500D03*
X111287268Y-92436500D03*
X112087268Y-72436500D03*
X112887268Y-51636500D03*
X114487268Y-88436500D03*
X116887268Y-64436500D03*
X117687268Y-91636500D03*
X119287268Y-51636500D03*
X120087268Y-67636500D03*
X120887268Y-61236500D03*
X120887268Y-87636500D03*
X123287268Y-79636500D03*
X123287268Y-92436500D03*
X124887268Y-52436500D03*
X126487268Y-82836500D03*
X128087268Y-55636500D03*
X128887268Y-61236500D03*
X128887268Y-67636500D03*
X128887268Y-74036500D03*
X129687268Y-79636500D03*
X129687268Y-86036500D03*
X132087268Y-58036500D03*
X132087268Y-64436500D03*
X132087268Y-70836500D03*
X132887268Y-76436500D03*
X132887268Y-82836500D03*
X135287268Y-61236500D03*
X135287268Y-67636500D03*
X135287268Y-86836500D03*
X136087268Y-73236500D03*
X136087268Y-79636500D03*
D25*
X98348800Y-83515200D03*
X104140000Y-87680800D03*
D26*
X107376700Y-83949800D02*
X107376700Y-81089798D01*
X107376700Y-81089798D02*
X106986701Y-80699799D01*
X99326699Y-76635897D02*
X99326699Y-80022699D01*
X93268800Y-72538000D02*
X95228802Y-72538000D01*
X95228802Y-72538000D02*
X99326699Y-76635897D01*
X100003799Y-80699799D02*
X106986701Y-80699799D01*
X99326699Y-80022699D02*
X100003799Y-80699799D01*
D27*
X59427000Y-74501000D02*
X58527000Y-74501000D01*
X61695600Y-72232400D02*
X59427000Y-74501000D01*
X81229200Y-72232400D02*
X61695600Y-72232400D01*
X81229200Y-72232400D02*
X73914000Y-64917200D01*
X73914000Y-64917200D02*
X58534300Y-64917200D01*
D26*
X92934300Y-72203500D02*
X93268800Y-72538000D01*
X86766400Y-72203500D02*
X92934300Y-72203500D01*
X86737500Y-72232400D02*
X86766400Y-72203500D01*
X81229200Y-72232400D02*
X86737500Y-72232400D01*
D28*
X107376700Y-86749800D02*
X107376700Y-83949800D01*
X107376700Y-87746100D02*
X107376700Y-86749800D01*
X102035637Y-93087163D02*
X107376700Y-87746100D01*
X95493737Y-93087163D02*
X102035637Y-93087163D01*
X94937500Y-93643400D02*
X95493737Y-93087163D01*
D27*
X58747296Y-84101000D02*
X58527000Y-84101000D01*
X59427000Y-84101000D02*
X58527000Y-84101000D01*
X61899800Y-81628200D02*
X59427000Y-84101000D01*
X61899800Y-78994000D02*
X61899800Y-81628200D01*
X66573400Y-74320400D02*
X61899800Y-78994000D01*
X81229200Y-72232400D02*
X79141200Y-74320400D01*
X79141200Y-74320400D02*
X66573400Y-74320400D01*
D29*
X73966000Y-77616000D02*
X85547200Y-89197200D01*
X72390000Y-77616000D02*
X73966000Y-77616000D01*
X85924700Y-88819700D02*
X100279200Y-88819700D01*
X85547200Y-89197200D02*
X85924700Y-88819700D01*
D28*
X81101000Y-93643400D02*
X80542500Y-93643400D01*
X85547200Y-89197200D02*
X81101000Y-93643400D01*
D26*
X102276700Y-86822200D02*
X100279200Y-88819700D01*
X102276700Y-83949800D02*
X102276700Y-86822200D01*
D29*
X120777000Y-77616000D02*
X121520000Y-77616000D01*
X121520000Y-77616000D02*
X123901200Y-75234800D01*
X123901200Y-75234800D02*
X123901200Y-60198000D01*
X113050320Y-59798680D02*
X113050320Y-60558680D01*
X116090320Y-56758680D02*
X113050320Y-59798680D01*
X120461880Y-56758680D02*
X116090320Y-56758680D01*
X123901200Y-60198000D02*
X120461880Y-56758680D01*
X123817000Y-77616000D02*
X123823400Y-77622400D01*
X120777000Y-77616000D02*
X123817000Y-77616000D01*
X123823400Y-77622400D02*
X125222000Y-77622400D01*
X125222000Y-77622400D02*
X126898400Y-75946000D01*
X126898400Y-75946000D02*
X126898400Y-59232800D01*
X126898400Y-59232800D02*
X121716800Y-54051200D01*
X73421240Y-59798680D02*
X73421240Y-60558680D01*
X99847400Y-59798680D02*
X99847400Y-60558680D01*
X105594880Y-54051200D02*
X99847400Y-59798680D01*
X121716800Y-54051200D02*
X105594880Y-54051200D01*
X86634320Y-61318680D02*
X86634320Y-60558680D01*
X89674320Y-64358680D02*
X86634320Y-61318680D01*
X113118026Y-64358680D02*
X89674320Y-64358680D01*
X120777000Y-72017654D02*
X113118026Y-64358680D01*
X120777000Y-77616000D02*
X120777000Y-72017654D01*
X120777000Y-76856000D02*
X110875400Y-66954400D01*
X120777000Y-77616000D02*
X120777000Y-76856000D01*
X73421240Y-61318680D02*
X73421240Y-60558680D01*
X79056960Y-66954400D02*
X73421240Y-61318680D01*
X110875400Y-66954400D02*
X79056960Y-66954400D01*
D28*
X128551602Y-93643400D02*
X130657600Y-91537402D01*
X109420900Y-93643400D02*
X128551602Y-93643400D01*
X120777000Y-79916000D02*
X120777000Y-77616000D01*
X130657600Y-89796600D02*
X120777000Y-79916000D01*
X130657600Y-91537402D02*
X130657600Y-89796600D01*
X78667500Y-91713000D02*
X78667500Y-93643400D01*
X107548200Y-93641100D02*
X107545900Y-93643400D01*
X107548200Y-91713000D02*
X107548200Y-93641100D01*
D26*
X96183200Y-82052400D02*
X93268800Y-79138000D01*
X96183200Y-83508800D02*
X96183200Y-82052400D01*
X96183200Y-83508800D02*
X98342400Y-83508800D01*
X98342400Y-83508800D02*
X98348800Y-83515200D01*
X104140000Y-84113100D02*
X103976700Y-83949800D01*
X104140000Y-87680800D02*
X104140000Y-84113100D01*
D28*
X93062500Y-91713000D02*
X93062500Y-93643400D01*
D29*
X115697000Y-79394000D02*
X120777000Y-84474000D01*
X115697000Y-77616000D02*
X115697000Y-79394000D01*
D28*
X120777000Y-84855000D02*
X120777000Y-84474000D01*
X126746000Y-90824000D02*
X120777000Y-84855000D01*
D29*
X67310000Y-79394000D02*
X72390000Y-84474000D01*
X67310000Y-77616000D02*
X67310000Y-79394000D01*
D28*
X59438499Y-90186501D02*
X58801000Y-90824000D01*
X65455800Y-84169200D02*
X59438499Y-90186501D01*
X67310000Y-77616000D02*
X65455800Y-79470200D01*
X65455800Y-79470200D02*
X65455800Y-84169200D01*
D30*
G36*
X92328836Y-90523542D02*
G01*
X92195208Y-90633208D01*
X92085542Y-90766836D01*
X92004053Y-90919291D01*
X91953872Y-91084715D01*
X91936928Y-91256750D01*
X91936928Y-92169250D01*
X91953872Y-92341285D01*
X92004053Y-92506709D01*
X92085542Y-92659164D01*
X92101164Y-92678200D01*
X92085542Y-92697236D01*
X92004053Y-92849691D01*
X91953872Y-93015115D01*
X91936928Y-93187150D01*
X91936928Y-94099650D01*
X91953872Y-94271685D01*
X91974595Y-94340000D01*
X81647224Y-94340000D01*
X81729817Y-94272217D01*
X81757534Y-94238444D01*
X84422945Y-91573034D01*
X84547200Y-91585272D01*
X86547200Y-91585272D01*
X86720454Y-91568208D01*
X86887050Y-91517672D01*
X87040586Y-91435605D01*
X87175162Y-91325162D01*
X87285605Y-91190586D01*
X87367672Y-91037050D01*
X87418208Y-90870454D01*
X87435272Y-90697200D01*
X87435272Y-90454700D01*
X92457630Y-90454700D01*
X92328836Y-90523542D01*
X92328836Y-90523542D01*
G37*
X92328836Y-90523542D02*
X92195208Y-90633208D01*
X92085542Y-90766836D01*
X92004053Y-90919291D01*
X91953872Y-91084715D01*
X91936928Y-91256750D01*
X91936928Y-92169250D01*
X91953872Y-92341285D01*
X92004053Y-92506709D01*
X92085542Y-92659164D01*
X92101164Y-92678200D01*
X92085542Y-92697236D01*
X92004053Y-92849691D01*
X91953872Y-93015115D01*
X91936928Y-93187150D01*
X91936928Y-94099650D01*
X91953872Y-94271685D01*
X91974595Y-94340000D01*
X81647224Y-94340000D01*
X81729817Y-94272217D01*
X81757534Y-94238444D01*
X84422945Y-91573034D01*
X84547200Y-91585272D01*
X86547200Y-91585272D01*
X86720454Y-91568208D01*
X86887050Y-91517672D01*
X87040586Y-91435605D01*
X87175162Y-91325162D01*
X87285605Y-91190586D01*
X87367672Y-91037050D01*
X87418208Y-90870454D01*
X87435272Y-90697200D01*
X87435272Y-90454700D01*
X92457630Y-90454700D01*
X92328836Y-90523542D01*
G36*
X131521161Y-51055330D02*
G01*
X131101467Y-51683446D01*
X130812377Y-52381372D01*
X130665000Y-53122285D01*
X130665000Y-53877715D01*
X130812377Y-54618628D01*
X131101467Y-55316554D01*
X131521161Y-55944670D01*
X132055330Y-56478839D01*
X132683446Y-56898533D01*
X133381372Y-57187623D01*
X134122285Y-57335000D01*
X134877715Y-57335000D01*
X135618628Y-57187623D01*
X136316554Y-56898533D01*
X136944670Y-56478839D01*
X137340000Y-56083509D01*
X137340001Y-88916492D01*
X136944670Y-88521161D01*
X136316554Y-88101467D01*
X135618628Y-87812377D01*
X134877715Y-87665000D01*
X134122285Y-87665000D01*
X133381372Y-87812377D01*
X132683446Y-88101467D01*
X132055330Y-88521161D01*
X131521161Y-89055330D01*
X131374394Y-89274982D01*
X131314132Y-89201553D01*
X131314130Y-89201551D01*
X131286417Y-89167783D01*
X131252649Y-89140070D01*
X121808720Y-79696142D01*
X121967134Y-79566134D01*
X122176450Y-79311082D01*
X122208564Y-79251000D01*
X123678098Y-79251000D01*
X123743078Y-79257400D01*
X123743081Y-79257400D01*
X123823400Y-79265311D01*
X123903719Y-79257400D01*
X125141681Y-79257400D01*
X125222000Y-79265311D01*
X125302319Y-79257400D01*
X125302322Y-79257400D01*
X125542516Y-79233743D01*
X125850715Y-79140252D01*
X126134752Y-78988431D01*
X126383714Y-78784114D01*
X126434924Y-78721714D01*
X127997725Y-77158915D01*
X128060114Y-77107714D01*
X128264431Y-76858752D01*
X128416252Y-76574715D01*
X128470309Y-76396514D01*
X128509743Y-76266517D01*
X128541311Y-75946000D01*
X128533400Y-75865678D01*
X128533400Y-59313119D01*
X128541311Y-59232800D01*
X128513195Y-58947337D01*
X128509743Y-58912284D01*
X128416252Y-58604085D01*
X128264431Y-58320048D01*
X128060114Y-58071086D01*
X127997719Y-58019880D01*
X122929725Y-52951887D01*
X122878514Y-52889486D01*
X122629552Y-52685169D01*
X122345515Y-52533348D01*
X122037316Y-52439857D01*
X121797122Y-52416200D01*
X121797119Y-52416200D01*
X121716800Y-52408289D01*
X121636481Y-52416200D01*
X105675199Y-52416200D01*
X105594879Y-52408289D01*
X105514560Y-52416200D01*
X105514558Y-52416200D01*
X105274364Y-52439857D01*
X104966165Y-52533348D01*
X104682128Y-52685169D01*
X104433166Y-52889486D01*
X104381960Y-52951881D01*
X98960210Y-58373632D01*
X98912319Y-58399230D01*
X98657267Y-58608546D01*
X98447951Y-58863598D01*
X98292416Y-59154584D01*
X98196636Y-59470323D01*
X98172400Y-59716398D01*
X98172400Y-61400961D01*
X98196636Y-61647036D01*
X98292415Y-61962775D01*
X98447950Y-62253761D01*
X98657266Y-62508814D01*
X98912318Y-62718130D01*
X98922701Y-62723680D01*
X93276235Y-62723680D01*
X93284857Y-62713174D01*
X93343822Y-62602860D01*
X93380132Y-62483162D01*
X93392392Y-62358680D01*
X93389320Y-60844430D01*
X93230570Y-60685680D01*
X91841320Y-60685680D01*
X91841320Y-60705680D01*
X91587320Y-60705680D01*
X91587320Y-60685680D01*
X90198070Y-60685680D01*
X90039320Y-60844430D01*
X90036248Y-62358680D01*
X90041676Y-62413798D01*
X88309320Y-60681442D01*
X88309320Y-59716398D01*
X88285084Y-59470323D01*
X88189305Y-59154584D01*
X88033770Y-58863598D01*
X87947666Y-58758680D01*
X90036248Y-58758680D01*
X90039320Y-60272930D01*
X90198070Y-60431680D01*
X91587320Y-60431680D01*
X91587320Y-58282430D01*
X91841320Y-58282430D01*
X91841320Y-60431680D01*
X93230570Y-60431680D01*
X93389320Y-60272930D01*
X93392392Y-58758680D01*
X93380132Y-58634198D01*
X93343822Y-58514500D01*
X93284857Y-58404186D01*
X93205505Y-58307495D01*
X93108814Y-58228143D01*
X92998500Y-58169178D01*
X92878802Y-58132868D01*
X92754320Y-58120608D01*
X92000070Y-58123680D01*
X91841320Y-58282430D01*
X91587320Y-58282430D01*
X91428570Y-58123680D01*
X90674320Y-58120608D01*
X90549838Y-58132868D01*
X90430140Y-58169178D01*
X90319826Y-58228143D01*
X90223135Y-58307495D01*
X90143783Y-58404186D01*
X90084818Y-58514500D01*
X90048508Y-58634198D01*
X90036248Y-58758680D01*
X87947666Y-58758680D01*
X87824454Y-58608546D01*
X87569402Y-58399230D01*
X87278416Y-58243695D01*
X86962677Y-58147916D01*
X86634320Y-58115576D01*
X86305964Y-58147916D01*
X85990225Y-58243695D01*
X85699239Y-58399230D01*
X85444187Y-58608546D01*
X85234871Y-58863598D01*
X85079336Y-59154584D01*
X84983556Y-59470323D01*
X84959320Y-59716398D01*
X84959320Y-61400961D01*
X84983556Y-61647036D01*
X85079335Y-61962775D01*
X85234870Y-62253761D01*
X85444186Y-62508814D01*
X85699238Y-62718130D01*
X85747131Y-62743730D01*
X88322801Y-65319400D01*
X79734200Y-65319400D01*
X77406123Y-62991324D01*
X77461240Y-62996752D01*
X78215490Y-62993680D01*
X78374240Y-62834930D01*
X78374240Y-60685680D01*
X78628240Y-60685680D01*
X78628240Y-62834930D01*
X78786990Y-62993680D01*
X79541240Y-62996752D01*
X79665722Y-62984492D01*
X79785420Y-62948182D01*
X79895734Y-62889217D01*
X79992425Y-62809865D01*
X80071777Y-62713174D01*
X80130742Y-62602860D01*
X80167052Y-62483162D01*
X80179312Y-62358680D01*
X80176240Y-60844430D01*
X80017490Y-60685680D01*
X78628240Y-60685680D01*
X78374240Y-60685680D01*
X76984990Y-60685680D01*
X76826240Y-60844430D01*
X76823168Y-62358680D01*
X76828596Y-62413798D01*
X75096240Y-60681442D01*
X75096240Y-59716398D01*
X75072004Y-59470323D01*
X74976225Y-59154584D01*
X74820690Y-58863598D01*
X74734586Y-58758680D01*
X76823168Y-58758680D01*
X76826240Y-60272930D01*
X76984990Y-60431680D01*
X78374240Y-60431680D01*
X78374240Y-58282430D01*
X78628240Y-58282430D01*
X78628240Y-60431680D01*
X80017490Y-60431680D01*
X80176240Y-60272930D01*
X80179312Y-58758680D01*
X80167052Y-58634198D01*
X80130742Y-58514500D01*
X80071777Y-58404186D01*
X79992425Y-58307495D01*
X79895734Y-58228143D01*
X79785420Y-58169178D01*
X79665722Y-58132868D01*
X79541240Y-58120608D01*
X78786990Y-58123680D01*
X78628240Y-58282430D01*
X78374240Y-58282430D01*
X78215490Y-58123680D01*
X77461240Y-58120608D01*
X77336758Y-58132868D01*
X77217060Y-58169178D01*
X77106746Y-58228143D01*
X77010055Y-58307495D01*
X76930703Y-58404186D01*
X76871738Y-58514500D01*
X76835428Y-58634198D01*
X76823168Y-58758680D01*
X74734586Y-58758680D01*
X74611374Y-58608546D01*
X74356322Y-58399230D01*
X74065336Y-58243695D01*
X73749597Y-58147916D01*
X73421240Y-58115576D01*
X73092884Y-58147916D01*
X72777145Y-58243695D01*
X72486159Y-58399230D01*
X72231107Y-58608546D01*
X72021791Y-58863598D01*
X71866256Y-59154584D01*
X71770476Y-59470323D01*
X71746240Y-59716398D01*
X71746240Y-61400961D01*
X71770476Y-61647036D01*
X71866255Y-61962775D01*
X72021790Y-62253761D01*
X72231106Y-62508814D01*
X72486158Y-62718130D01*
X72534051Y-62743730D01*
X73447522Y-63657200D01*
X60318620Y-63657200D01*
X60291227Y-63634719D01*
X60024561Y-63492183D01*
X59735213Y-63404410D01*
X59509708Y-63382200D01*
X57558892Y-63382200D01*
X57333387Y-63404410D01*
X57044039Y-63492183D01*
X56777373Y-63634719D01*
X56543639Y-63826539D01*
X56351819Y-64060273D01*
X56209283Y-64326939D01*
X56121510Y-64616287D01*
X56091873Y-64917200D01*
X56121510Y-65218113D01*
X56209283Y-65507461D01*
X56351819Y-65774127D01*
X56543639Y-66007861D01*
X56777373Y-66199681D01*
X57044039Y-66342217D01*
X57333387Y-66429990D01*
X57558892Y-66452200D01*
X59509708Y-66452200D01*
X59735213Y-66429990D01*
X60024561Y-66342217D01*
X60291227Y-66199681D01*
X60318620Y-66177200D01*
X73392092Y-66177200D01*
X78187291Y-70972400D01*
X61757483Y-70972400D01*
X61695600Y-70966305D01*
X61633717Y-70972400D01*
X61633707Y-70972400D01*
X61448597Y-70990632D01*
X61211086Y-71062680D01*
X60992195Y-71179680D01*
X60916803Y-71241553D01*
X60803250Y-71128000D01*
X58654000Y-71128000D01*
X58654000Y-72377250D01*
X58812750Y-72536000D01*
X59608477Y-72537614D01*
X59180092Y-72966000D01*
X57551592Y-72966000D01*
X57326087Y-72988210D01*
X57036739Y-73075983D01*
X56770073Y-73218519D01*
X56536339Y-73410339D01*
X56344519Y-73644073D01*
X56201983Y-73910739D01*
X56114210Y-74200087D01*
X56084573Y-74501000D01*
X56114210Y-74801913D01*
X56201983Y-75091261D01*
X56344519Y-75357927D01*
X56536339Y-75591661D01*
X56770073Y-75783481D01*
X57036739Y-75926017D01*
X57326087Y-76013790D01*
X57551592Y-76036000D01*
X59502408Y-76036000D01*
X59727913Y-76013790D01*
X60017261Y-75926017D01*
X60283927Y-75783481D01*
X60517661Y-75591661D01*
X60709481Y-75357927D01*
X60852017Y-75091261D01*
X60939790Y-74801913D01*
X60943264Y-74766645D01*
X62217509Y-73492400D01*
X65619491Y-73492400D01*
X61052616Y-78059276D01*
X61004535Y-78098735D01*
X60936953Y-78181085D01*
X60847080Y-78290595D01*
X60763667Y-78446650D01*
X60730080Y-78509487D01*
X60658032Y-78746998D01*
X60639800Y-78932108D01*
X60639800Y-78932117D01*
X60633705Y-78994000D01*
X60639800Y-79055883D01*
X60639800Y-79148177D01*
X60571180Y-79111498D01*
X60451482Y-79075188D01*
X60327000Y-79062928D01*
X58812750Y-79066000D01*
X58654000Y-79224750D01*
X58654000Y-80474000D01*
X58674000Y-80474000D01*
X58674000Y-80728000D01*
X58654000Y-80728000D01*
X58654000Y-81977250D01*
X58812750Y-82136000D01*
X59608477Y-82137614D01*
X59180092Y-82566000D01*
X57551592Y-82566000D01*
X57326087Y-82588210D01*
X57036739Y-82675983D01*
X56770073Y-82818519D01*
X56536339Y-83010339D01*
X56344519Y-83244073D01*
X56201983Y-83510739D01*
X56114210Y-83800087D01*
X56084573Y-84101000D01*
X56114210Y-84401913D01*
X56201983Y-84691261D01*
X56344519Y-84957927D01*
X56536339Y-85191661D01*
X56770073Y-85383481D01*
X57036739Y-85526017D01*
X57326087Y-85613790D01*
X57551592Y-85636000D01*
X59502408Y-85636000D01*
X59727913Y-85613790D01*
X60017261Y-85526017D01*
X60283927Y-85383481D01*
X60517661Y-85191661D01*
X60709481Y-84957927D01*
X60852017Y-84691261D01*
X60939790Y-84401913D01*
X60943264Y-84366645D01*
X62746990Y-82562919D01*
X62795065Y-82523465D01*
X62952520Y-82331605D01*
X63069520Y-82112714D01*
X63141568Y-81875203D01*
X63159800Y-81690093D01*
X63159800Y-81690084D01*
X63165895Y-81628201D01*
X63159800Y-81566318D01*
X63159800Y-79515908D01*
X65631928Y-77043781D01*
X65631928Y-78042494D01*
X64860756Y-78813666D01*
X64826983Y-78841383D01*
X64716389Y-78976142D01*
X64634211Y-79129888D01*
X64583605Y-79296711D01*
X64570800Y-79426724D01*
X64570800Y-79426731D01*
X64566519Y-79470200D01*
X64570800Y-79513669D01*
X64570801Y-83802620D01*
X58843458Y-89529964D01*
X58843452Y-89529969D01*
X58821921Y-89551500D01*
X58675670Y-89551500D01*
X58429825Y-89600402D01*
X58198245Y-89696325D01*
X57989829Y-89835585D01*
X57812585Y-90012829D01*
X57673325Y-90221245D01*
X57577402Y-90452825D01*
X57528500Y-90698670D01*
X57528500Y-90949330D01*
X57577402Y-91195175D01*
X57673325Y-91426755D01*
X57812585Y-91635171D01*
X57989829Y-91812415D01*
X58198245Y-91951675D01*
X58429825Y-92047598D01*
X58675670Y-92096500D01*
X58926330Y-92096500D01*
X59172175Y-92047598D01*
X59403755Y-91951675D01*
X59612171Y-91812415D01*
X59789415Y-91635171D01*
X59928675Y-91426755D01*
X60024598Y-91195175D01*
X60073167Y-90951002D01*
X60227248Y-90951002D01*
X60068500Y-91109750D01*
X60065428Y-91461500D01*
X60077688Y-91585982D01*
X60113998Y-91705680D01*
X60172963Y-91815994D01*
X60252315Y-91912685D01*
X60349006Y-91992037D01*
X60459320Y-92051002D01*
X60579018Y-92087312D01*
X60703500Y-92099572D01*
X61055250Y-92096500D01*
X61214000Y-91937750D01*
X61214000Y-90951000D01*
X61468000Y-90951000D01*
X61468000Y-91937750D01*
X61626750Y-92096500D01*
X61978500Y-92099572D01*
X62102982Y-92087312D01*
X62222680Y-92051002D01*
X62332994Y-91992037D01*
X62429685Y-91912685D01*
X62509037Y-91815994D01*
X62568002Y-91705680D01*
X62604312Y-91585982D01*
X62616572Y-91461500D01*
X62613500Y-91109750D01*
X62454750Y-90951000D01*
X61468000Y-90951000D01*
X61214000Y-90951000D01*
X61194000Y-90951000D01*
X61194000Y-90697000D01*
X61214000Y-90697000D01*
X61214000Y-89710250D01*
X61468000Y-89710250D01*
X61468000Y-90697000D01*
X62454750Y-90697000D01*
X62613500Y-90538250D01*
X62616572Y-90186500D01*
X62604312Y-90062018D01*
X62568002Y-89942320D01*
X62509037Y-89832006D01*
X62429685Y-89735315D01*
X62332994Y-89655963D01*
X62222680Y-89596998D01*
X62102982Y-89560688D01*
X61978500Y-89548428D01*
X61626750Y-89551500D01*
X61468000Y-89710250D01*
X61214000Y-89710250D01*
X61190164Y-89686414D01*
X65634021Y-85242558D01*
X65631928Y-86274000D01*
X65644188Y-86398482D01*
X65680498Y-86518180D01*
X65739463Y-86628494D01*
X65818815Y-86725185D01*
X65915506Y-86804537D01*
X66025820Y-86863502D01*
X66145518Y-86899812D01*
X66270000Y-86912072D01*
X67024250Y-86909000D01*
X67183000Y-86750250D01*
X67183000Y-84601000D01*
X67437000Y-84601000D01*
X67437000Y-86750250D01*
X67595750Y-86909000D01*
X68350000Y-86912072D01*
X68474482Y-86899812D01*
X68594180Y-86863502D01*
X68704494Y-86804537D01*
X68801185Y-86725185D01*
X68880537Y-86628494D01*
X68939502Y-86518180D01*
X68975812Y-86398482D01*
X68988072Y-86274000D01*
X68985000Y-84759750D01*
X68826250Y-84601000D01*
X67437000Y-84601000D01*
X67183000Y-84601000D01*
X67163000Y-84601000D01*
X67163000Y-84347000D01*
X67183000Y-84347000D01*
X67183000Y-82197750D01*
X67024250Y-82039000D01*
X66340800Y-82036216D01*
X66340800Y-80737038D01*
X67642571Y-82038809D01*
X67595750Y-82039000D01*
X67437000Y-82197750D01*
X67437000Y-84347000D01*
X68826250Y-84347000D01*
X68985000Y-84188250D01*
X68986634Y-83382872D01*
X70715000Y-85111239D01*
X70715000Y-85316282D01*
X70739236Y-85562357D01*
X70835016Y-85878096D01*
X70990551Y-86169082D01*
X71199867Y-86424134D01*
X71454919Y-86633450D01*
X71745905Y-86788985D01*
X72061644Y-86884764D01*
X72390000Y-86917104D01*
X72718357Y-86884764D01*
X73034096Y-86788985D01*
X73325082Y-86633450D01*
X73580134Y-86424134D01*
X73789450Y-86169082D01*
X73944985Y-85878096D01*
X74040764Y-85562357D01*
X74065000Y-85316282D01*
X74065000Y-83631718D01*
X74040764Y-83385643D01*
X73944985Y-83069904D01*
X73789450Y-82778918D01*
X73580134Y-82523866D01*
X73325081Y-82314550D01*
X73034095Y-82159015D01*
X72718356Y-82063236D01*
X72390000Y-82030896D01*
X72270868Y-82042629D01*
X68988072Y-78759834D01*
X68988072Y-76065999D01*
X68971008Y-75892745D01*
X68920472Y-75726149D01*
X68842567Y-75580400D01*
X71304007Y-75580400D01*
X71199866Y-75665866D01*
X70990550Y-75920919D01*
X70835015Y-76211905D01*
X70739236Y-76527644D01*
X70715000Y-76773719D01*
X70715000Y-78458282D01*
X70739236Y-78704357D01*
X70835016Y-79020096D01*
X70990551Y-79311082D01*
X71199867Y-79566134D01*
X71454919Y-79775450D01*
X71745905Y-79930985D01*
X72061644Y-80026764D01*
X72390000Y-80059104D01*
X72718357Y-80026764D01*
X73034096Y-79930985D01*
X73325082Y-79775450D01*
X73580134Y-79566134D01*
X73590845Y-79553083D01*
X83659128Y-89621367D01*
X83659128Y-89833693D01*
X81579536Y-91913286D01*
X81506250Y-91840000D01*
X80669500Y-91840000D01*
X80669500Y-91860000D01*
X80415500Y-91860000D01*
X80415500Y-91840000D01*
X80395500Y-91840000D01*
X80395500Y-91586000D01*
X80415500Y-91586000D01*
X80415500Y-90536750D01*
X80669500Y-90536750D01*
X80669500Y-91586000D01*
X81506250Y-91586000D01*
X81665000Y-91427250D01*
X81668072Y-91013000D01*
X81655812Y-90888518D01*
X81619502Y-90768820D01*
X81560537Y-90658506D01*
X81481185Y-90561815D01*
X81384494Y-90482463D01*
X81274180Y-90423498D01*
X81154482Y-90387188D01*
X81030000Y-90374928D01*
X80828250Y-90378000D01*
X80669500Y-90536750D01*
X80415500Y-90536750D01*
X80256750Y-90378000D01*
X80055000Y-90374928D01*
X79930518Y-90387188D01*
X79810820Y-90423498D01*
X79700506Y-90482463D01*
X79603815Y-90561815D01*
X79540008Y-90639564D01*
X79534792Y-90633208D01*
X79401164Y-90523542D01*
X79248709Y-90442053D01*
X79083285Y-90391872D01*
X78911250Y-90374928D01*
X78423750Y-90374928D01*
X78251715Y-90391872D01*
X78086291Y-90442053D01*
X77933836Y-90523542D01*
X77800208Y-90633208D01*
X77690542Y-90766836D01*
X77609053Y-90919291D01*
X77558872Y-91084715D01*
X77541928Y-91256750D01*
X77541928Y-92169250D01*
X77558872Y-92341285D01*
X77609053Y-92506709D01*
X77690542Y-92659164D01*
X77706164Y-92678200D01*
X77690542Y-92697236D01*
X77609053Y-92849691D01*
X77558872Y-93015115D01*
X77541928Y-93187150D01*
X77541928Y-94099650D01*
X77558872Y-94271685D01*
X77579595Y-94340000D01*
X56083509Y-94340000D01*
X56478839Y-93944670D01*
X56898533Y-93316554D01*
X57187623Y-92618628D01*
X57335000Y-91877715D01*
X57335000Y-91122285D01*
X57187623Y-90381372D01*
X56898533Y-89683446D01*
X56478839Y-89055330D01*
X55944670Y-88521161D01*
X55316554Y-88101467D01*
X54618628Y-87812377D01*
X53877715Y-87665000D01*
X53122285Y-87665000D01*
X52381372Y-87812377D01*
X51683446Y-88101467D01*
X51055330Y-88521161D01*
X50660000Y-88916491D01*
X50660000Y-81501000D01*
X56088928Y-81501000D01*
X56101188Y-81625482D01*
X56137498Y-81745180D01*
X56196463Y-81855494D01*
X56275815Y-81952185D01*
X56372506Y-82031537D01*
X56482820Y-82090502D01*
X56602518Y-82126812D01*
X56727000Y-82139072D01*
X58241250Y-82136000D01*
X58400000Y-81977250D01*
X58400000Y-80728000D01*
X56250750Y-80728000D01*
X56092000Y-80886750D01*
X56088928Y-81501000D01*
X50660000Y-81501000D01*
X50660000Y-79701000D01*
X56088928Y-79701000D01*
X56092000Y-80315250D01*
X56250750Y-80474000D01*
X58400000Y-80474000D01*
X58400000Y-79224750D01*
X58241250Y-79066000D01*
X56727000Y-79062928D01*
X56602518Y-79075188D01*
X56482820Y-79111498D01*
X56372506Y-79170463D01*
X56275815Y-79249815D01*
X56196463Y-79346506D01*
X56137498Y-79456820D01*
X56101188Y-79576518D01*
X56088928Y-79701000D01*
X50660000Y-79701000D01*
X50660000Y-71901000D01*
X56088928Y-71901000D01*
X56101188Y-72025482D01*
X56137498Y-72145180D01*
X56196463Y-72255494D01*
X56275815Y-72352185D01*
X56372506Y-72431537D01*
X56482820Y-72490502D01*
X56602518Y-72526812D01*
X56727000Y-72539072D01*
X58241250Y-72536000D01*
X58400000Y-72377250D01*
X58400000Y-71128000D01*
X56250750Y-71128000D01*
X56092000Y-71286750D01*
X56088928Y-71901000D01*
X50660000Y-71901000D01*
X50660000Y-70101000D01*
X56088928Y-70101000D01*
X56092000Y-70715250D01*
X56250750Y-70874000D01*
X58400000Y-70874000D01*
X58400000Y-69624750D01*
X58654000Y-69624750D01*
X58654000Y-70874000D01*
X60803250Y-70874000D01*
X60962000Y-70715250D01*
X60965072Y-70101000D01*
X60952812Y-69976518D01*
X60916502Y-69856820D01*
X60857537Y-69746506D01*
X60778185Y-69649815D01*
X60681494Y-69570463D01*
X60571180Y-69511498D01*
X60451482Y-69475188D01*
X60327000Y-69462928D01*
X58812750Y-69466000D01*
X58654000Y-69624750D01*
X58400000Y-69624750D01*
X58241250Y-69466000D01*
X56727000Y-69462928D01*
X56602518Y-69475188D01*
X56482820Y-69511498D01*
X56372506Y-69570463D01*
X56275815Y-69649815D01*
X56196463Y-69746506D01*
X56137498Y-69856820D01*
X56101188Y-69976518D01*
X56088928Y-70101000D01*
X50660000Y-70101000D01*
X50660000Y-62317200D01*
X56096228Y-62317200D01*
X56108488Y-62441682D01*
X56144798Y-62561380D01*
X56203763Y-62671694D01*
X56283115Y-62768385D01*
X56379806Y-62847737D01*
X56490120Y-62906702D01*
X56609818Y-62943012D01*
X56734300Y-62955272D01*
X58248550Y-62952200D01*
X58407300Y-62793450D01*
X58407300Y-61544200D01*
X58661300Y-61544200D01*
X58661300Y-62793450D01*
X58820050Y-62952200D01*
X60334300Y-62955272D01*
X60458782Y-62943012D01*
X60578480Y-62906702D01*
X60688794Y-62847737D01*
X60785485Y-62768385D01*
X60864837Y-62671694D01*
X60923802Y-62561380D01*
X60960112Y-62441682D01*
X60972372Y-62317200D01*
X60969300Y-61702950D01*
X60810550Y-61544200D01*
X58661300Y-61544200D01*
X58407300Y-61544200D01*
X56258050Y-61544200D01*
X56099300Y-61702950D01*
X56096228Y-62317200D01*
X50660000Y-62317200D01*
X50660000Y-60517200D01*
X56096228Y-60517200D01*
X56099300Y-61131450D01*
X56258050Y-61290200D01*
X58407300Y-61290200D01*
X58407300Y-60040950D01*
X58661300Y-60040950D01*
X58661300Y-61290200D01*
X60810550Y-61290200D01*
X60969300Y-61131450D01*
X60972372Y-60517200D01*
X60960112Y-60392718D01*
X60923802Y-60273020D01*
X60864837Y-60162706D01*
X60785485Y-60066015D01*
X60688794Y-59986663D01*
X60578480Y-59927698D01*
X60458782Y-59891388D01*
X60334300Y-59879128D01*
X58820050Y-59882200D01*
X58661300Y-60040950D01*
X58407300Y-60040950D01*
X58248550Y-59882200D01*
X56734300Y-59879128D01*
X56609818Y-59891388D01*
X56490120Y-59927698D01*
X56379806Y-59986663D01*
X56283115Y-60066015D01*
X56203763Y-60162706D01*
X56144798Y-60273020D01*
X56108488Y-60392718D01*
X56096228Y-60517200D01*
X50660000Y-60517200D01*
X50660000Y-56083509D01*
X51055330Y-56478839D01*
X51683446Y-56898533D01*
X52381372Y-57187623D01*
X53122285Y-57335000D01*
X53877715Y-57335000D01*
X54618628Y-57187623D01*
X55316554Y-56898533D01*
X55944670Y-56478839D01*
X56478839Y-55944670D01*
X56898533Y-55316554D01*
X57187623Y-54618628D01*
X57335000Y-53877715D01*
X57335000Y-53122285D01*
X57187623Y-52381372D01*
X56898533Y-51683446D01*
X56478839Y-51055330D01*
X56083509Y-50660000D01*
X131916491Y-50660000D01*
X131521161Y-51055330D01*
X131521161Y-51055330D01*
G37*
X131521161Y-51055330D02*
X131101467Y-51683446D01*
X130812377Y-52381372D01*
X130665000Y-53122285D01*
X130665000Y-53877715D01*
X130812377Y-54618628D01*
X131101467Y-55316554D01*
X131521161Y-55944670D01*
X132055330Y-56478839D01*
X132683446Y-56898533D01*
X133381372Y-57187623D01*
X134122285Y-57335000D01*
X134877715Y-57335000D01*
X135618628Y-57187623D01*
X136316554Y-56898533D01*
X136944670Y-56478839D01*
X137340000Y-56083509D01*
X137340001Y-88916492D01*
X136944670Y-88521161D01*
X136316554Y-88101467D01*
X135618628Y-87812377D01*
X134877715Y-87665000D01*
X134122285Y-87665000D01*
X133381372Y-87812377D01*
X132683446Y-88101467D01*
X132055330Y-88521161D01*
X131521161Y-89055330D01*
X131374394Y-89274982D01*
X131314132Y-89201553D01*
X131314130Y-89201551D01*
X131286417Y-89167783D01*
X131252649Y-89140070D01*
X121808720Y-79696142D01*
X121967134Y-79566134D01*
X122176450Y-79311082D01*
X122208564Y-79251000D01*
X123678098Y-79251000D01*
X123743078Y-79257400D01*
X123743081Y-79257400D01*
X123823400Y-79265311D01*
X123903719Y-79257400D01*
X125141681Y-79257400D01*
X125222000Y-79265311D01*
X125302319Y-79257400D01*
X125302322Y-79257400D01*
X125542516Y-79233743D01*
X125850715Y-79140252D01*
X126134752Y-78988431D01*
X126383714Y-78784114D01*
X126434924Y-78721714D01*
X127997725Y-77158915D01*
X128060114Y-77107714D01*
X128264431Y-76858752D01*
X128416252Y-76574715D01*
X128470309Y-76396514D01*
X128509743Y-76266517D01*
X128541311Y-75946000D01*
X128533400Y-75865678D01*
X128533400Y-59313119D01*
X128541311Y-59232800D01*
X128513195Y-58947337D01*
X128509743Y-58912284D01*
X128416252Y-58604085D01*
X128264431Y-58320048D01*
X128060114Y-58071086D01*
X127997719Y-58019880D01*
X122929725Y-52951887D01*
X122878514Y-52889486D01*
X122629552Y-52685169D01*
X122345515Y-52533348D01*
X122037316Y-52439857D01*
X121797122Y-52416200D01*
X121797119Y-52416200D01*
X121716800Y-52408289D01*
X121636481Y-52416200D01*
X105675199Y-52416200D01*
X105594879Y-52408289D01*
X105514560Y-52416200D01*
X105514558Y-52416200D01*
X105274364Y-52439857D01*
X104966165Y-52533348D01*
X104682128Y-52685169D01*
X104433166Y-52889486D01*
X104381960Y-52951881D01*
X98960210Y-58373632D01*
X98912319Y-58399230D01*
X98657267Y-58608546D01*
X98447951Y-58863598D01*
X98292416Y-59154584D01*
X98196636Y-59470323D01*
X98172400Y-59716398D01*
X98172400Y-61400961D01*
X98196636Y-61647036D01*
X98292415Y-61962775D01*
X98447950Y-62253761D01*
X98657266Y-62508814D01*
X98912318Y-62718130D01*
X98922701Y-62723680D01*
X93276235Y-62723680D01*
X93284857Y-62713174D01*
X93343822Y-62602860D01*
X93380132Y-62483162D01*
X93392392Y-62358680D01*
X93389320Y-60844430D01*
X93230570Y-60685680D01*
X91841320Y-60685680D01*
X91841320Y-60705680D01*
X91587320Y-60705680D01*
X91587320Y-60685680D01*
X90198070Y-60685680D01*
X90039320Y-60844430D01*
X90036248Y-62358680D01*
X90041676Y-62413798D01*
X88309320Y-60681442D01*
X88309320Y-59716398D01*
X88285084Y-59470323D01*
X88189305Y-59154584D01*
X88033770Y-58863598D01*
X87947666Y-58758680D01*
X90036248Y-58758680D01*
X90039320Y-60272930D01*
X90198070Y-60431680D01*
X91587320Y-60431680D01*
X91587320Y-58282430D01*
X91841320Y-58282430D01*
X91841320Y-60431680D01*
X93230570Y-60431680D01*
X93389320Y-60272930D01*
X93392392Y-58758680D01*
X93380132Y-58634198D01*
X93343822Y-58514500D01*
X93284857Y-58404186D01*
X93205505Y-58307495D01*
X93108814Y-58228143D01*
X92998500Y-58169178D01*
X92878802Y-58132868D01*
X92754320Y-58120608D01*
X92000070Y-58123680D01*
X91841320Y-58282430D01*
X91587320Y-58282430D01*
X91428570Y-58123680D01*
X90674320Y-58120608D01*
X90549838Y-58132868D01*
X90430140Y-58169178D01*
X90319826Y-58228143D01*
X90223135Y-58307495D01*
X90143783Y-58404186D01*
X90084818Y-58514500D01*
X90048508Y-58634198D01*
X90036248Y-58758680D01*
X87947666Y-58758680D01*
X87824454Y-58608546D01*
X87569402Y-58399230D01*
X87278416Y-58243695D01*
X86962677Y-58147916D01*
X86634320Y-58115576D01*
X86305964Y-58147916D01*
X85990225Y-58243695D01*
X85699239Y-58399230D01*
X85444187Y-58608546D01*
X85234871Y-58863598D01*
X85079336Y-59154584D01*
X84983556Y-59470323D01*
X84959320Y-59716398D01*
X84959320Y-61400961D01*
X84983556Y-61647036D01*
X85079335Y-61962775D01*
X85234870Y-62253761D01*
X85444186Y-62508814D01*
X85699238Y-62718130D01*
X85747131Y-62743730D01*
X88322801Y-65319400D01*
X79734200Y-65319400D01*
X77406123Y-62991324D01*
X77461240Y-62996752D01*
X78215490Y-62993680D01*
X78374240Y-62834930D01*
X78374240Y-60685680D01*
X78628240Y-60685680D01*
X78628240Y-62834930D01*
X78786990Y-62993680D01*
X79541240Y-62996752D01*
X79665722Y-62984492D01*
X79785420Y-62948182D01*
X79895734Y-62889217D01*
X79992425Y-62809865D01*
X80071777Y-62713174D01*
X80130742Y-62602860D01*
X80167052Y-62483162D01*
X80179312Y-62358680D01*
X80176240Y-60844430D01*
X80017490Y-60685680D01*
X78628240Y-60685680D01*
X78374240Y-60685680D01*
X76984990Y-60685680D01*
X76826240Y-60844430D01*
X76823168Y-62358680D01*
X76828596Y-62413798D01*
X75096240Y-60681442D01*
X75096240Y-59716398D01*
X75072004Y-59470323D01*
X74976225Y-59154584D01*
X74820690Y-58863598D01*
X74734586Y-58758680D01*
X76823168Y-58758680D01*
X76826240Y-60272930D01*
X76984990Y-60431680D01*
X78374240Y-60431680D01*
X78374240Y-58282430D01*
X78628240Y-58282430D01*
X78628240Y-60431680D01*
X80017490Y-60431680D01*
X80176240Y-60272930D01*
X80179312Y-58758680D01*
X80167052Y-58634198D01*
X80130742Y-58514500D01*
X80071777Y-58404186D01*
X79992425Y-58307495D01*
X79895734Y-58228143D01*
X79785420Y-58169178D01*
X79665722Y-58132868D01*
X79541240Y-58120608D01*
X78786990Y-58123680D01*
X78628240Y-58282430D01*
X78374240Y-58282430D01*
X78215490Y-58123680D01*
X77461240Y-58120608D01*
X77336758Y-58132868D01*
X77217060Y-58169178D01*
X77106746Y-58228143D01*
X77010055Y-58307495D01*
X76930703Y-58404186D01*
X76871738Y-58514500D01*
X76835428Y-58634198D01*
X76823168Y-58758680D01*
X74734586Y-58758680D01*
X74611374Y-58608546D01*
X74356322Y-58399230D01*
X74065336Y-58243695D01*
X73749597Y-58147916D01*
X73421240Y-58115576D01*
X73092884Y-58147916D01*
X72777145Y-58243695D01*
X72486159Y-58399230D01*
X72231107Y-58608546D01*
X72021791Y-58863598D01*
X71866256Y-59154584D01*
X71770476Y-59470323D01*
X71746240Y-59716398D01*
X71746240Y-61400961D01*
X71770476Y-61647036D01*
X71866255Y-61962775D01*
X72021790Y-62253761D01*
X72231106Y-62508814D01*
X72486158Y-62718130D01*
X72534051Y-62743730D01*
X73447522Y-63657200D01*
X60318620Y-63657200D01*
X60291227Y-63634719D01*
X60024561Y-63492183D01*
X59735213Y-63404410D01*
X59509708Y-63382200D01*
X57558892Y-63382200D01*
X57333387Y-63404410D01*
X57044039Y-63492183D01*
X56777373Y-63634719D01*
X56543639Y-63826539D01*
X56351819Y-64060273D01*
X56209283Y-64326939D01*
X56121510Y-64616287D01*
X56091873Y-64917200D01*
X56121510Y-65218113D01*
X56209283Y-65507461D01*
X56351819Y-65774127D01*
X56543639Y-66007861D01*
X56777373Y-66199681D01*
X57044039Y-66342217D01*
X57333387Y-66429990D01*
X57558892Y-66452200D01*
X59509708Y-66452200D01*
X59735213Y-66429990D01*
X60024561Y-66342217D01*
X60291227Y-66199681D01*
X60318620Y-66177200D01*
X73392092Y-66177200D01*
X78187291Y-70972400D01*
X61757483Y-70972400D01*
X61695600Y-70966305D01*
X61633717Y-70972400D01*
X61633707Y-70972400D01*
X61448597Y-70990632D01*
X61211086Y-71062680D01*
X60992195Y-71179680D01*
X60916803Y-71241553D01*
X60803250Y-71128000D01*
X58654000Y-71128000D01*
X58654000Y-72377250D01*
X58812750Y-72536000D01*
X59608477Y-72537614D01*
X59180092Y-72966000D01*
X57551592Y-72966000D01*
X57326087Y-72988210D01*
X57036739Y-73075983D01*
X56770073Y-73218519D01*
X56536339Y-73410339D01*
X56344519Y-73644073D01*
X56201983Y-73910739D01*
X56114210Y-74200087D01*
X56084573Y-74501000D01*
X56114210Y-74801913D01*
X56201983Y-75091261D01*
X56344519Y-75357927D01*
X56536339Y-75591661D01*
X56770073Y-75783481D01*
X57036739Y-75926017D01*
X57326087Y-76013790D01*
X57551592Y-76036000D01*
X59502408Y-76036000D01*
X59727913Y-76013790D01*
X60017261Y-75926017D01*
X60283927Y-75783481D01*
X60517661Y-75591661D01*
X60709481Y-75357927D01*
X60852017Y-75091261D01*
X60939790Y-74801913D01*
X60943264Y-74766645D01*
X62217509Y-73492400D01*
X65619491Y-73492400D01*
X61052616Y-78059276D01*
X61004535Y-78098735D01*
X60936953Y-78181085D01*
X60847080Y-78290595D01*
X60763667Y-78446650D01*
X60730080Y-78509487D01*
X60658032Y-78746998D01*
X60639800Y-78932108D01*
X60639800Y-78932117D01*
X60633705Y-78994000D01*
X60639800Y-79055883D01*
X60639800Y-79148177D01*
X60571180Y-79111498D01*
X60451482Y-79075188D01*
X60327000Y-79062928D01*
X58812750Y-79066000D01*
X58654000Y-79224750D01*
X58654000Y-80474000D01*
X58674000Y-80474000D01*
X58674000Y-80728000D01*
X58654000Y-80728000D01*
X58654000Y-81977250D01*
X58812750Y-82136000D01*
X59608477Y-82137614D01*
X59180092Y-82566000D01*
X57551592Y-82566000D01*
X57326087Y-82588210D01*
X57036739Y-82675983D01*
X56770073Y-82818519D01*
X56536339Y-83010339D01*
X56344519Y-83244073D01*
X56201983Y-83510739D01*
X56114210Y-83800087D01*
X56084573Y-84101000D01*
X56114210Y-84401913D01*
X56201983Y-84691261D01*
X56344519Y-84957927D01*
X56536339Y-85191661D01*
X56770073Y-85383481D01*
X57036739Y-85526017D01*
X57326087Y-85613790D01*
X57551592Y-85636000D01*
X59502408Y-85636000D01*
X59727913Y-85613790D01*
X60017261Y-85526017D01*
X60283927Y-85383481D01*
X60517661Y-85191661D01*
X60709481Y-84957927D01*
X60852017Y-84691261D01*
X60939790Y-84401913D01*
X60943264Y-84366645D01*
X62746990Y-82562919D01*
X62795065Y-82523465D01*
X62952520Y-82331605D01*
X63069520Y-82112714D01*
X63141568Y-81875203D01*
X63159800Y-81690093D01*
X63159800Y-81690084D01*
X63165895Y-81628201D01*
X63159800Y-81566318D01*
X63159800Y-79515908D01*
X65631928Y-77043781D01*
X65631928Y-78042494D01*
X64860756Y-78813666D01*
X64826983Y-78841383D01*
X64716389Y-78976142D01*
X64634211Y-79129888D01*
X64583605Y-79296711D01*
X64570800Y-79426724D01*
X64570800Y-79426731D01*
X64566519Y-79470200D01*
X64570800Y-79513669D01*
X64570801Y-83802620D01*
X58843458Y-89529964D01*
X58843452Y-89529969D01*
X58821921Y-89551500D01*
X58675670Y-89551500D01*
X58429825Y-89600402D01*
X58198245Y-89696325D01*
X57989829Y-89835585D01*
X57812585Y-90012829D01*
X57673325Y-90221245D01*
X57577402Y-90452825D01*
X57528500Y-90698670D01*
X57528500Y-90949330D01*
X57577402Y-91195175D01*
X57673325Y-91426755D01*
X57812585Y-91635171D01*
X57989829Y-91812415D01*
X58198245Y-91951675D01*
X58429825Y-92047598D01*
X58675670Y-92096500D01*
X58926330Y-92096500D01*
X59172175Y-92047598D01*
X59403755Y-91951675D01*
X59612171Y-91812415D01*
X59789415Y-91635171D01*
X59928675Y-91426755D01*
X60024598Y-91195175D01*
X60073167Y-90951002D01*
X60227248Y-90951002D01*
X60068500Y-91109750D01*
X60065428Y-91461500D01*
X60077688Y-91585982D01*
X60113998Y-91705680D01*
X60172963Y-91815994D01*
X60252315Y-91912685D01*
X60349006Y-91992037D01*
X60459320Y-92051002D01*
X60579018Y-92087312D01*
X60703500Y-92099572D01*
X61055250Y-92096500D01*
X61214000Y-91937750D01*
X61214000Y-90951000D01*
X61468000Y-90951000D01*
X61468000Y-91937750D01*
X61626750Y-92096500D01*
X61978500Y-92099572D01*
X62102982Y-92087312D01*
X62222680Y-92051002D01*
X62332994Y-91992037D01*
X62429685Y-91912685D01*
X62509037Y-91815994D01*
X62568002Y-91705680D01*
X62604312Y-91585982D01*
X62616572Y-91461500D01*
X62613500Y-91109750D01*
X62454750Y-90951000D01*
X61468000Y-90951000D01*
X61214000Y-90951000D01*
X61194000Y-90951000D01*
X61194000Y-90697000D01*
X61214000Y-90697000D01*
X61214000Y-89710250D01*
X61468000Y-89710250D01*
X61468000Y-90697000D01*
X62454750Y-90697000D01*
X62613500Y-90538250D01*
X62616572Y-90186500D01*
X62604312Y-90062018D01*
X62568002Y-89942320D01*
X62509037Y-89832006D01*
X62429685Y-89735315D01*
X62332994Y-89655963D01*
X62222680Y-89596998D01*
X62102982Y-89560688D01*
X61978500Y-89548428D01*
X61626750Y-89551500D01*
X61468000Y-89710250D01*
X61214000Y-89710250D01*
X61190164Y-89686414D01*
X65634021Y-85242558D01*
X65631928Y-86274000D01*
X65644188Y-86398482D01*
X65680498Y-86518180D01*
X65739463Y-86628494D01*
X65818815Y-86725185D01*
X65915506Y-86804537D01*
X66025820Y-86863502D01*
X66145518Y-86899812D01*
X66270000Y-86912072D01*
X67024250Y-86909000D01*
X67183000Y-86750250D01*
X67183000Y-84601000D01*
X67437000Y-84601000D01*
X67437000Y-86750250D01*
X67595750Y-86909000D01*
X68350000Y-86912072D01*
X68474482Y-86899812D01*
X68594180Y-86863502D01*
X68704494Y-86804537D01*
X68801185Y-86725185D01*
X68880537Y-86628494D01*
X68939502Y-86518180D01*
X68975812Y-86398482D01*
X68988072Y-86274000D01*
X68985000Y-84759750D01*
X68826250Y-84601000D01*
X67437000Y-84601000D01*
X67183000Y-84601000D01*
X67163000Y-84601000D01*
X67163000Y-84347000D01*
X67183000Y-84347000D01*
X67183000Y-82197750D01*
X67024250Y-82039000D01*
X66340800Y-82036216D01*
X66340800Y-80737038D01*
X67642571Y-82038809D01*
X67595750Y-82039000D01*
X67437000Y-82197750D01*
X67437000Y-84347000D01*
X68826250Y-84347000D01*
X68985000Y-84188250D01*
X68986634Y-83382872D01*
X70715000Y-85111239D01*
X70715000Y-85316282D01*
X70739236Y-85562357D01*
X70835016Y-85878096D01*
X70990551Y-86169082D01*
X71199867Y-86424134D01*
X71454919Y-86633450D01*
X71745905Y-86788985D01*
X72061644Y-86884764D01*
X72390000Y-86917104D01*
X72718357Y-86884764D01*
X73034096Y-86788985D01*
X73325082Y-86633450D01*
X73580134Y-86424134D01*
X73789450Y-86169082D01*
X73944985Y-85878096D01*
X74040764Y-85562357D01*
X74065000Y-85316282D01*
X74065000Y-83631718D01*
X74040764Y-83385643D01*
X73944985Y-83069904D01*
X73789450Y-82778918D01*
X73580134Y-82523866D01*
X73325081Y-82314550D01*
X73034095Y-82159015D01*
X72718356Y-82063236D01*
X72390000Y-82030896D01*
X72270868Y-82042629D01*
X68988072Y-78759834D01*
X68988072Y-76065999D01*
X68971008Y-75892745D01*
X68920472Y-75726149D01*
X68842567Y-75580400D01*
X71304007Y-75580400D01*
X71199866Y-75665866D01*
X70990550Y-75920919D01*
X70835015Y-76211905D01*
X70739236Y-76527644D01*
X70715000Y-76773719D01*
X70715000Y-78458282D01*
X70739236Y-78704357D01*
X70835016Y-79020096D01*
X70990551Y-79311082D01*
X71199867Y-79566134D01*
X71454919Y-79775450D01*
X71745905Y-79930985D01*
X72061644Y-80026764D01*
X72390000Y-80059104D01*
X72718357Y-80026764D01*
X73034096Y-79930985D01*
X73325082Y-79775450D01*
X73580134Y-79566134D01*
X73590845Y-79553083D01*
X83659128Y-89621367D01*
X83659128Y-89833693D01*
X81579536Y-91913286D01*
X81506250Y-91840000D01*
X80669500Y-91840000D01*
X80669500Y-91860000D01*
X80415500Y-91860000D01*
X80415500Y-91840000D01*
X80395500Y-91840000D01*
X80395500Y-91586000D01*
X80415500Y-91586000D01*
X80415500Y-90536750D01*
X80669500Y-90536750D01*
X80669500Y-91586000D01*
X81506250Y-91586000D01*
X81665000Y-91427250D01*
X81668072Y-91013000D01*
X81655812Y-90888518D01*
X81619502Y-90768820D01*
X81560537Y-90658506D01*
X81481185Y-90561815D01*
X81384494Y-90482463D01*
X81274180Y-90423498D01*
X81154482Y-90387188D01*
X81030000Y-90374928D01*
X80828250Y-90378000D01*
X80669500Y-90536750D01*
X80415500Y-90536750D01*
X80256750Y-90378000D01*
X80055000Y-90374928D01*
X79930518Y-90387188D01*
X79810820Y-90423498D01*
X79700506Y-90482463D01*
X79603815Y-90561815D01*
X79540008Y-90639564D01*
X79534792Y-90633208D01*
X79401164Y-90523542D01*
X79248709Y-90442053D01*
X79083285Y-90391872D01*
X78911250Y-90374928D01*
X78423750Y-90374928D01*
X78251715Y-90391872D01*
X78086291Y-90442053D01*
X77933836Y-90523542D01*
X77800208Y-90633208D01*
X77690542Y-90766836D01*
X77609053Y-90919291D01*
X77558872Y-91084715D01*
X77541928Y-91256750D01*
X77541928Y-92169250D01*
X77558872Y-92341285D01*
X77609053Y-92506709D01*
X77690542Y-92659164D01*
X77706164Y-92678200D01*
X77690542Y-92697236D01*
X77609053Y-92849691D01*
X77558872Y-93015115D01*
X77541928Y-93187150D01*
X77541928Y-94099650D01*
X77558872Y-94271685D01*
X77579595Y-94340000D01*
X56083509Y-94340000D01*
X56478839Y-93944670D01*
X56898533Y-93316554D01*
X57187623Y-92618628D01*
X57335000Y-91877715D01*
X57335000Y-91122285D01*
X57187623Y-90381372D01*
X56898533Y-89683446D01*
X56478839Y-89055330D01*
X55944670Y-88521161D01*
X55316554Y-88101467D01*
X54618628Y-87812377D01*
X53877715Y-87665000D01*
X53122285Y-87665000D01*
X52381372Y-87812377D01*
X51683446Y-88101467D01*
X51055330Y-88521161D01*
X50660000Y-88916491D01*
X50660000Y-81501000D01*
X56088928Y-81501000D01*
X56101188Y-81625482D01*
X56137498Y-81745180D01*
X56196463Y-81855494D01*
X56275815Y-81952185D01*
X56372506Y-82031537D01*
X56482820Y-82090502D01*
X56602518Y-82126812D01*
X56727000Y-82139072D01*
X58241250Y-82136000D01*
X58400000Y-81977250D01*
X58400000Y-80728000D01*
X56250750Y-80728000D01*
X56092000Y-80886750D01*
X56088928Y-81501000D01*
X50660000Y-81501000D01*
X50660000Y-79701000D01*
X56088928Y-79701000D01*
X56092000Y-80315250D01*
X56250750Y-80474000D01*
X58400000Y-80474000D01*
X58400000Y-79224750D01*
X58241250Y-79066000D01*
X56727000Y-79062928D01*
X56602518Y-79075188D01*
X56482820Y-79111498D01*
X56372506Y-79170463D01*
X56275815Y-79249815D01*
X56196463Y-79346506D01*
X56137498Y-79456820D01*
X56101188Y-79576518D01*
X56088928Y-79701000D01*
X50660000Y-79701000D01*
X50660000Y-71901000D01*
X56088928Y-71901000D01*
X56101188Y-72025482D01*
X56137498Y-72145180D01*
X56196463Y-72255494D01*
X56275815Y-72352185D01*
X56372506Y-72431537D01*
X56482820Y-72490502D01*
X56602518Y-72526812D01*
X56727000Y-72539072D01*
X58241250Y-72536000D01*
X58400000Y-72377250D01*
X58400000Y-71128000D01*
X56250750Y-71128000D01*
X56092000Y-71286750D01*
X56088928Y-71901000D01*
X50660000Y-71901000D01*
X50660000Y-70101000D01*
X56088928Y-70101000D01*
X56092000Y-70715250D01*
X56250750Y-70874000D01*
X58400000Y-70874000D01*
X58400000Y-69624750D01*
X58654000Y-69624750D01*
X58654000Y-70874000D01*
X60803250Y-70874000D01*
X60962000Y-70715250D01*
X60965072Y-70101000D01*
X60952812Y-69976518D01*
X60916502Y-69856820D01*
X60857537Y-69746506D01*
X60778185Y-69649815D01*
X60681494Y-69570463D01*
X60571180Y-69511498D01*
X60451482Y-69475188D01*
X60327000Y-69462928D01*
X58812750Y-69466000D01*
X58654000Y-69624750D01*
X58400000Y-69624750D01*
X58241250Y-69466000D01*
X56727000Y-69462928D01*
X56602518Y-69475188D01*
X56482820Y-69511498D01*
X56372506Y-69570463D01*
X56275815Y-69649815D01*
X56196463Y-69746506D01*
X56137498Y-69856820D01*
X56101188Y-69976518D01*
X56088928Y-70101000D01*
X50660000Y-70101000D01*
X50660000Y-62317200D01*
X56096228Y-62317200D01*
X56108488Y-62441682D01*
X56144798Y-62561380D01*
X56203763Y-62671694D01*
X56283115Y-62768385D01*
X56379806Y-62847737D01*
X56490120Y-62906702D01*
X56609818Y-62943012D01*
X56734300Y-62955272D01*
X58248550Y-62952200D01*
X58407300Y-62793450D01*
X58407300Y-61544200D01*
X58661300Y-61544200D01*
X58661300Y-62793450D01*
X58820050Y-62952200D01*
X60334300Y-62955272D01*
X60458782Y-62943012D01*
X60578480Y-62906702D01*
X60688794Y-62847737D01*
X60785485Y-62768385D01*
X60864837Y-62671694D01*
X60923802Y-62561380D01*
X60960112Y-62441682D01*
X60972372Y-62317200D01*
X60969300Y-61702950D01*
X60810550Y-61544200D01*
X58661300Y-61544200D01*
X58407300Y-61544200D01*
X56258050Y-61544200D01*
X56099300Y-61702950D01*
X56096228Y-62317200D01*
X50660000Y-62317200D01*
X50660000Y-60517200D01*
X56096228Y-60517200D01*
X56099300Y-61131450D01*
X56258050Y-61290200D01*
X58407300Y-61290200D01*
X58407300Y-60040950D01*
X58661300Y-60040950D01*
X58661300Y-61290200D01*
X60810550Y-61290200D01*
X60969300Y-61131450D01*
X60972372Y-60517200D01*
X60960112Y-60392718D01*
X60923802Y-60273020D01*
X60864837Y-60162706D01*
X60785485Y-60066015D01*
X60688794Y-59986663D01*
X60578480Y-59927698D01*
X60458782Y-59891388D01*
X60334300Y-59879128D01*
X58820050Y-59882200D01*
X58661300Y-60040950D01*
X58407300Y-60040950D01*
X58248550Y-59882200D01*
X56734300Y-59879128D01*
X56609818Y-59891388D01*
X56490120Y-59927698D01*
X56379806Y-59986663D01*
X56283115Y-60066015D01*
X56203763Y-60162706D01*
X56144798Y-60273020D01*
X56108488Y-60392718D01*
X56096228Y-60517200D01*
X50660000Y-60517200D01*
X50660000Y-56083509D01*
X51055330Y-56478839D01*
X51683446Y-56898533D01*
X52381372Y-57187623D01*
X53122285Y-57335000D01*
X53877715Y-57335000D01*
X54618628Y-57187623D01*
X55316554Y-56898533D01*
X55944670Y-56478839D01*
X56478839Y-55944670D01*
X56898533Y-55316554D01*
X57187623Y-54618628D01*
X57335000Y-53877715D01*
X57335000Y-53122285D01*
X57187623Y-52381372D01*
X56898533Y-51683446D01*
X56478839Y-51055330D01*
X56083509Y-50660000D01*
X131916491Y-50660000D01*
X131521161Y-51055330D01*
G36*
X111070494Y-69461732D02*
G01*
X105962450Y-69464800D01*
X105803700Y-69623550D01*
X105803700Y-74672800D01*
X111552950Y-74672800D01*
X111711700Y-74514050D01*
X111714768Y-70106006D01*
X116885796Y-75277035D01*
X116826851Y-75245528D01*
X116660255Y-75194992D01*
X116487001Y-75177928D01*
X114906999Y-75177928D01*
X114733745Y-75194992D01*
X114567149Y-75245528D01*
X114413613Y-75327595D01*
X114279038Y-75438038D01*
X114168595Y-75572613D01*
X114086528Y-75726149D01*
X114035992Y-75892745D01*
X114018928Y-76065999D01*
X114018928Y-79166001D01*
X114035992Y-79339255D01*
X114054806Y-79401276D01*
X114062000Y-79474319D01*
X114062000Y-79474322D01*
X114068729Y-79542642D01*
X114085658Y-79714516D01*
X114179148Y-80022714D01*
X114251762Y-80158565D01*
X114330970Y-80306752D01*
X114535287Y-80555714D01*
X114597682Y-80606920D01*
X116029571Y-82038809D01*
X115982750Y-82039000D01*
X115824000Y-82197750D01*
X115824000Y-84347000D01*
X117213250Y-84347000D01*
X117372000Y-84188250D01*
X117373634Y-83382872D01*
X119102000Y-85111239D01*
X119102000Y-85316282D01*
X119126236Y-85562357D01*
X119222016Y-85878096D01*
X119377551Y-86169082D01*
X119586867Y-86424134D01*
X119841919Y-86633450D01*
X120132905Y-86788985D01*
X120448644Y-86884764D01*
X120777000Y-86917104D01*
X121105357Y-86884764D01*
X121421096Y-86788985D01*
X121446062Y-86775640D01*
X125473500Y-90803079D01*
X125473500Y-90949330D01*
X125522402Y-91195175D01*
X125618325Y-91426755D01*
X125757585Y-91635171D01*
X125934829Y-91812415D01*
X126143245Y-91951675D01*
X126374825Y-92047598D01*
X126620670Y-92096500D01*
X126871330Y-92096500D01*
X127117175Y-92047598D01*
X127348755Y-91951675D01*
X127557171Y-91812415D01*
X127734415Y-91635171D01*
X127873675Y-91426755D01*
X127969598Y-91195175D01*
X128018167Y-90951002D01*
X128172248Y-90951002D01*
X128013500Y-91109750D01*
X128010428Y-91461500D01*
X128022688Y-91585982D01*
X128058998Y-91705680D01*
X128117963Y-91815994D01*
X128197315Y-91912685D01*
X128294006Y-91992037D01*
X128404320Y-92051002D01*
X128524018Y-92087312D01*
X128648500Y-92099572D01*
X128845573Y-92097851D01*
X128185024Y-92758400D01*
X110446098Y-92758400D01*
X110500202Y-92657180D01*
X110536512Y-92537482D01*
X110548772Y-92413000D01*
X110545700Y-91998750D01*
X110386950Y-91840000D01*
X109550200Y-91840000D01*
X109550200Y-91860000D01*
X109296200Y-91860000D01*
X109296200Y-91840000D01*
X109276200Y-91840000D01*
X109276200Y-91586000D01*
X109296200Y-91586000D01*
X109296200Y-90536750D01*
X109550200Y-90536750D01*
X109550200Y-91586000D01*
X110386950Y-91586000D01*
X110545700Y-91427250D01*
X110548772Y-91013000D01*
X110536512Y-90888518D01*
X110500202Y-90768820D01*
X110441237Y-90658506D01*
X110361885Y-90561815D01*
X110265194Y-90482463D01*
X110154880Y-90423498D01*
X110035182Y-90387188D01*
X109910700Y-90374928D01*
X109708950Y-90378000D01*
X109550200Y-90536750D01*
X109296200Y-90536750D01*
X109137450Y-90378000D01*
X108935700Y-90374928D01*
X108811218Y-90387188D01*
X108691520Y-90423498D01*
X108581206Y-90482463D01*
X108484515Y-90561815D01*
X108420708Y-90639564D01*
X108415492Y-90633208D01*
X108281864Y-90523542D01*
X108129409Y-90442053D01*
X107963985Y-90391872D01*
X107791950Y-90374928D01*
X107304450Y-90374928D01*
X107132415Y-90391872D01*
X106966991Y-90442053D01*
X106814536Y-90523542D01*
X106680908Y-90633208D01*
X106571242Y-90766836D01*
X106489753Y-90919291D01*
X106439572Y-91084715D01*
X106422628Y-91256750D01*
X106422628Y-92169250D01*
X106439572Y-92341285D01*
X106489753Y-92506709D01*
X106571242Y-92659164D01*
X106585714Y-92676799D01*
X106568942Y-92697236D01*
X106487453Y-92849691D01*
X106437272Y-93015115D01*
X106420328Y-93187150D01*
X106420328Y-94099650D01*
X106437272Y-94271685D01*
X106457995Y-94340000D01*
X96025405Y-94340000D01*
X96046128Y-94271685D01*
X96063072Y-94099650D01*
X96063072Y-93972163D01*
X101992168Y-93972163D01*
X102035637Y-93976444D01*
X102079106Y-93972163D01*
X102079114Y-93972163D01*
X102209127Y-93959358D01*
X102375950Y-93908752D01*
X102529696Y-93826574D01*
X102664454Y-93715980D01*
X102692171Y-93682207D01*
X107971751Y-88402628D01*
X108005517Y-88374917D01*
X108046479Y-88325006D01*
X108116111Y-88240159D01*
X108130424Y-88213381D01*
X108198289Y-88086413D01*
X108248895Y-87919590D01*
X108261700Y-87789577D01*
X108261700Y-87789569D01*
X108265981Y-87746100D01*
X108261700Y-87702631D01*
X108261700Y-86828173D01*
X108282520Y-86839302D01*
X108402218Y-86875612D01*
X108526700Y-86887872D01*
X108790950Y-86884800D01*
X108949700Y-86726050D01*
X108949700Y-84076800D01*
X109203700Y-84076800D01*
X109203700Y-86726050D01*
X109362450Y-86884800D01*
X109626700Y-86887872D01*
X109751182Y-86875612D01*
X109870880Y-86839302D01*
X109981194Y-86780337D01*
X110077885Y-86700985D01*
X110157237Y-86604294D01*
X110216202Y-86493980D01*
X110252512Y-86374282D01*
X110262388Y-86274000D01*
X114018928Y-86274000D01*
X114031188Y-86398482D01*
X114067498Y-86518180D01*
X114126463Y-86628494D01*
X114205815Y-86725185D01*
X114302506Y-86804537D01*
X114412820Y-86863502D01*
X114532518Y-86899812D01*
X114657000Y-86912072D01*
X115411250Y-86909000D01*
X115570000Y-86750250D01*
X115570000Y-84601000D01*
X115824000Y-84601000D01*
X115824000Y-86750250D01*
X115982750Y-86909000D01*
X116737000Y-86912072D01*
X116861482Y-86899812D01*
X116981180Y-86863502D01*
X117091494Y-86804537D01*
X117188185Y-86725185D01*
X117267537Y-86628494D01*
X117326502Y-86518180D01*
X117362812Y-86398482D01*
X117375072Y-86274000D01*
X117372000Y-84759750D01*
X117213250Y-84601000D01*
X115824000Y-84601000D01*
X115570000Y-84601000D01*
X114180750Y-84601000D01*
X114022000Y-84759750D01*
X114018928Y-86274000D01*
X110262388Y-86274000D01*
X110264772Y-86249800D01*
X110261700Y-84235550D01*
X110102950Y-84076800D01*
X109203700Y-84076800D01*
X108949700Y-84076800D01*
X108929700Y-84076800D01*
X108929700Y-83822800D01*
X108949700Y-83822800D01*
X108949700Y-81173550D01*
X109203700Y-81173550D01*
X109203700Y-83822800D01*
X110102950Y-83822800D01*
X110261700Y-83664050D01*
X110263209Y-82674000D01*
X114018928Y-82674000D01*
X114022000Y-84188250D01*
X114180750Y-84347000D01*
X115570000Y-84347000D01*
X115570000Y-82197750D01*
X115411250Y-82039000D01*
X114657000Y-82035928D01*
X114532518Y-82048188D01*
X114412820Y-82084498D01*
X114302506Y-82143463D01*
X114205815Y-82222815D01*
X114126463Y-82319506D01*
X114067498Y-82429820D01*
X114031188Y-82549518D01*
X114018928Y-82674000D01*
X110263209Y-82674000D01*
X110264772Y-81649800D01*
X110252512Y-81525318D01*
X110216202Y-81405620D01*
X110157237Y-81295306D01*
X110077885Y-81198615D01*
X109981194Y-81119263D01*
X109870880Y-81060298D01*
X109751182Y-81023988D01*
X109626700Y-81011728D01*
X109362450Y-81014800D01*
X109203700Y-81173550D01*
X108949700Y-81173550D01*
X108790950Y-81014800D01*
X108760980Y-81014452D01*
X108741660Y-80818291D01*
X108662464Y-80557217D01*
X108533857Y-80316610D01*
X108385844Y-80136256D01*
X111076700Y-80137872D01*
X111201182Y-80125612D01*
X111320880Y-80089302D01*
X111431194Y-80030337D01*
X111527885Y-79950985D01*
X111607237Y-79854294D01*
X111666202Y-79743980D01*
X111702512Y-79624282D01*
X111714772Y-79499800D01*
X111711700Y-75085550D01*
X111552950Y-74926800D01*
X105803700Y-74926800D01*
X105803700Y-74946800D01*
X105549700Y-74946800D01*
X105549700Y-74926800D01*
X99800450Y-74926800D01*
X99688369Y-75038881D01*
X99000651Y-74351163D01*
X99006872Y-74288000D01*
X99006872Y-70788000D01*
X98994612Y-70663518D01*
X98958302Y-70543820D01*
X98899337Y-70433506D01*
X98819985Y-70336815D01*
X98723294Y-70257463D01*
X98612980Y-70198498D01*
X98493282Y-70162188D01*
X98368800Y-70149928D01*
X88168800Y-70149928D01*
X88044318Y-70162188D01*
X87954810Y-70189340D01*
X88044350Y-70099800D01*
X99638628Y-70099800D01*
X99641700Y-74514050D01*
X99800450Y-74672800D01*
X105549700Y-74672800D01*
X105549700Y-69623550D01*
X105390950Y-69464800D01*
X100276700Y-69461728D01*
X100152218Y-69473988D01*
X100032520Y-69510298D01*
X99922206Y-69569263D01*
X99825515Y-69648615D01*
X99746163Y-69745306D01*
X99687198Y-69855620D01*
X99650888Y-69975318D01*
X99638628Y-70099800D01*
X88044350Y-70099800D01*
X88101400Y-70042750D01*
X88104472Y-69841000D01*
X88092212Y-69716518D01*
X88055902Y-69596820D01*
X87996937Y-69486506D01*
X87917585Y-69389815D01*
X87820894Y-69310463D01*
X87710580Y-69251498D01*
X87590882Y-69215188D01*
X87466400Y-69202928D01*
X87052150Y-69206000D01*
X86893400Y-69364750D01*
X86893400Y-70201500D01*
X86913400Y-70201500D01*
X86913400Y-70455500D01*
X86893400Y-70455500D01*
X86893400Y-70475500D01*
X86639400Y-70475500D01*
X86639400Y-70455500D01*
X85590150Y-70455500D01*
X85431400Y-70614250D01*
X85428328Y-70816000D01*
X85431421Y-70847400D01*
X83117272Y-70847400D01*
X83117272Y-70732400D01*
X83100208Y-70559146D01*
X83049672Y-70392550D01*
X82967605Y-70239014D01*
X82857162Y-70104438D01*
X82722586Y-69993995D01*
X82569050Y-69911928D01*
X82402454Y-69861392D01*
X82229200Y-69844328D01*
X80623037Y-69844328D01*
X80619709Y-69841000D01*
X85428328Y-69841000D01*
X85431400Y-70042750D01*
X85590150Y-70201500D01*
X86639400Y-70201500D01*
X86639400Y-69364750D01*
X86480650Y-69206000D01*
X86066400Y-69202928D01*
X85941918Y-69215188D01*
X85822220Y-69251498D01*
X85711906Y-69310463D01*
X85615215Y-69389815D01*
X85535863Y-69486506D01*
X85476898Y-69596820D01*
X85440588Y-69716518D01*
X85428328Y-69841000D01*
X80619709Y-69841000D01*
X79368109Y-68589400D01*
X110198162Y-68589400D01*
X111070494Y-69461732D01*
X111070494Y-69461732D01*
G37*
X111070494Y-69461732D02*
X105962450Y-69464800D01*
X105803700Y-69623550D01*
X105803700Y-74672800D01*
X111552950Y-74672800D01*
X111711700Y-74514050D01*
X111714768Y-70106006D01*
X116885796Y-75277035D01*
X116826851Y-75245528D01*
X116660255Y-75194992D01*
X116487001Y-75177928D01*
X114906999Y-75177928D01*
X114733745Y-75194992D01*
X114567149Y-75245528D01*
X114413613Y-75327595D01*
X114279038Y-75438038D01*
X114168595Y-75572613D01*
X114086528Y-75726149D01*
X114035992Y-75892745D01*
X114018928Y-76065999D01*
X114018928Y-79166001D01*
X114035992Y-79339255D01*
X114054806Y-79401276D01*
X114062000Y-79474319D01*
X114062000Y-79474322D01*
X114068729Y-79542642D01*
X114085658Y-79714516D01*
X114179148Y-80022714D01*
X114251762Y-80158565D01*
X114330970Y-80306752D01*
X114535287Y-80555714D01*
X114597682Y-80606920D01*
X116029571Y-82038809D01*
X115982750Y-82039000D01*
X115824000Y-82197750D01*
X115824000Y-84347000D01*
X117213250Y-84347000D01*
X117372000Y-84188250D01*
X117373634Y-83382872D01*
X119102000Y-85111239D01*
X119102000Y-85316282D01*
X119126236Y-85562357D01*
X119222016Y-85878096D01*
X119377551Y-86169082D01*
X119586867Y-86424134D01*
X119841919Y-86633450D01*
X120132905Y-86788985D01*
X120448644Y-86884764D01*
X120777000Y-86917104D01*
X121105357Y-86884764D01*
X121421096Y-86788985D01*
X121446062Y-86775640D01*
X125473500Y-90803079D01*
X125473500Y-90949330D01*
X125522402Y-91195175D01*
X125618325Y-91426755D01*
X125757585Y-91635171D01*
X125934829Y-91812415D01*
X126143245Y-91951675D01*
X126374825Y-92047598D01*
X126620670Y-92096500D01*
X126871330Y-92096500D01*
X127117175Y-92047598D01*
X127348755Y-91951675D01*
X127557171Y-91812415D01*
X127734415Y-91635171D01*
X127873675Y-91426755D01*
X127969598Y-91195175D01*
X128018167Y-90951002D01*
X128172248Y-90951002D01*
X128013500Y-91109750D01*
X128010428Y-91461500D01*
X128022688Y-91585982D01*
X128058998Y-91705680D01*
X128117963Y-91815994D01*
X128197315Y-91912685D01*
X128294006Y-91992037D01*
X128404320Y-92051002D01*
X128524018Y-92087312D01*
X128648500Y-92099572D01*
X128845573Y-92097851D01*
X128185024Y-92758400D01*
X110446098Y-92758400D01*
X110500202Y-92657180D01*
X110536512Y-92537482D01*
X110548772Y-92413000D01*
X110545700Y-91998750D01*
X110386950Y-91840000D01*
X109550200Y-91840000D01*
X109550200Y-91860000D01*
X109296200Y-91860000D01*
X109296200Y-91840000D01*
X109276200Y-91840000D01*
X109276200Y-91586000D01*
X109296200Y-91586000D01*
X109296200Y-90536750D01*
X109550200Y-90536750D01*
X109550200Y-91586000D01*
X110386950Y-91586000D01*
X110545700Y-91427250D01*
X110548772Y-91013000D01*
X110536512Y-90888518D01*
X110500202Y-90768820D01*
X110441237Y-90658506D01*
X110361885Y-90561815D01*
X110265194Y-90482463D01*
X110154880Y-90423498D01*
X110035182Y-90387188D01*
X109910700Y-90374928D01*
X109708950Y-90378000D01*
X109550200Y-90536750D01*
X109296200Y-90536750D01*
X109137450Y-90378000D01*
X108935700Y-90374928D01*
X108811218Y-90387188D01*
X108691520Y-90423498D01*
X108581206Y-90482463D01*
X108484515Y-90561815D01*
X108420708Y-90639564D01*
X108415492Y-90633208D01*
X108281864Y-90523542D01*
X108129409Y-90442053D01*
X107963985Y-90391872D01*
X107791950Y-90374928D01*
X107304450Y-90374928D01*
X107132415Y-90391872D01*
X106966991Y-90442053D01*
X106814536Y-90523542D01*
X106680908Y-90633208D01*
X106571242Y-90766836D01*
X106489753Y-90919291D01*
X106439572Y-91084715D01*
X106422628Y-91256750D01*
X106422628Y-92169250D01*
X106439572Y-92341285D01*
X106489753Y-92506709D01*
X106571242Y-92659164D01*
X106585714Y-92676799D01*
X106568942Y-92697236D01*
X106487453Y-92849691D01*
X106437272Y-93015115D01*
X106420328Y-93187150D01*
X106420328Y-94099650D01*
X106437272Y-94271685D01*
X106457995Y-94340000D01*
X96025405Y-94340000D01*
X96046128Y-94271685D01*
X96063072Y-94099650D01*
X96063072Y-93972163D01*
X101992168Y-93972163D01*
X102035637Y-93976444D01*
X102079106Y-93972163D01*
X102079114Y-93972163D01*
X102209127Y-93959358D01*
X102375950Y-93908752D01*
X102529696Y-93826574D01*
X102664454Y-93715980D01*
X102692171Y-93682207D01*
X107971751Y-88402628D01*
X108005517Y-88374917D01*
X108046479Y-88325006D01*
X108116111Y-88240159D01*
X108130424Y-88213381D01*
X108198289Y-88086413D01*
X108248895Y-87919590D01*
X108261700Y-87789577D01*
X108261700Y-87789569D01*
X108265981Y-87746100D01*
X108261700Y-87702631D01*
X108261700Y-86828173D01*
X108282520Y-86839302D01*
X108402218Y-86875612D01*
X108526700Y-86887872D01*
X108790950Y-86884800D01*
X108949700Y-86726050D01*
X108949700Y-84076800D01*
X109203700Y-84076800D01*
X109203700Y-86726050D01*
X109362450Y-86884800D01*
X109626700Y-86887872D01*
X109751182Y-86875612D01*
X109870880Y-86839302D01*
X109981194Y-86780337D01*
X110077885Y-86700985D01*
X110157237Y-86604294D01*
X110216202Y-86493980D01*
X110252512Y-86374282D01*
X110262388Y-86274000D01*
X114018928Y-86274000D01*
X114031188Y-86398482D01*
X114067498Y-86518180D01*
X114126463Y-86628494D01*
X114205815Y-86725185D01*
X114302506Y-86804537D01*
X114412820Y-86863502D01*
X114532518Y-86899812D01*
X114657000Y-86912072D01*
X115411250Y-86909000D01*
X115570000Y-86750250D01*
X115570000Y-84601000D01*
X115824000Y-84601000D01*
X115824000Y-86750250D01*
X115982750Y-86909000D01*
X116737000Y-86912072D01*
X116861482Y-86899812D01*
X116981180Y-86863502D01*
X117091494Y-86804537D01*
X117188185Y-86725185D01*
X117267537Y-86628494D01*
X117326502Y-86518180D01*
X117362812Y-86398482D01*
X117375072Y-86274000D01*
X117372000Y-84759750D01*
X117213250Y-84601000D01*
X115824000Y-84601000D01*
X115570000Y-84601000D01*
X114180750Y-84601000D01*
X114022000Y-84759750D01*
X114018928Y-86274000D01*
X110262388Y-86274000D01*
X110264772Y-86249800D01*
X110261700Y-84235550D01*
X110102950Y-84076800D01*
X109203700Y-84076800D01*
X108949700Y-84076800D01*
X108929700Y-84076800D01*
X108929700Y-83822800D01*
X108949700Y-83822800D01*
X108949700Y-81173550D01*
X109203700Y-81173550D01*
X109203700Y-83822800D01*
X110102950Y-83822800D01*
X110261700Y-83664050D01*
X110263209Y-82674000D01*
X114018928Y-82674000D01*
X114022000Y-84188250D01*
X114180750Y-84347000D01*
X115570000Y-84347000D01*
X115570000Y-82197750D01*
X115411250Y-82039000D01*
X114657000Y-82035928D01*
X114532518Y-82048188D01*
X114412820Y-82084498D01*
X114302506Y-82143463D01*
X114205815Y-82222815D01*
X114126463Y-82319506D01*
X114067498Y-82429820D01*
X114031188Y-82549518D01*
X114018928Y-82674000D01*
X110263209Y-82674000D01*
X110264772Y-81649800D01*
X110252512Y-81525318D01*
X110216202Y-81405620D01*
X110157237Y-81295306D01*
X110077885Y-81198615D01*
X109981194Y-81119263D01*
X109870880Y-81060298D01*
X109751182Y-81023988D01*
X109626700Y-81011728D01*
X109362450Y-81014800D01*
X109203700Y-81173550D01*
X108949700Y-81173550D01*
X108790950Y-81014800D01*
X108760980Y-81014452D01*
X108741660Y-80818291D01*
X108662464Y-80557217D01*
X108533857Y-80316610D01*
X108385844Y-80136256D01*
X111076700Y-80137872D01*
X111201182Y-80125612D01*
X111320880Y-80089302D01*
X111431194Y-80030337D01*
X111527885Y-79950985D01*
X111607237Y-79854294D01*
X111666202Y-79743980D01*
X111702512Y-79624282D01*
X111714772Y-79499800D01*
X111711700Y-75085550D01*
X111552950Y-74926800D01*
X105803700Y-74926800D01*
X105803700Y-74946800D01*
X105549700Y-74946800D01*
X105549700Y-74926800D01*
X99800450Y-74926800D01*
X99688369Y-75038881D01*
X99000651Y-74351163D01*
X99006872Y-74288000D01*
X99006872Y-70788000D01*
X98994612Y-70663518D01*
X98958302Y-70543820D01*
X98899337Y-70433506D01*
X98819985Y-70336815D01*
X98723294Y-70257463D01*
X98612980Y-70198498D01*
X98493282Y-70162188D01*
X98368800Y-70149928D01*
X88168800Y-70149928D01*
X88044318Y-70162188D01*
X87954810Y-70189340D01*
X88044350Y-70099800D01*
X99638628Y-70099800D01*
X99641700Y-74514050D01*
X99800450Y-74672800D01*
X105549700Y-74672800D01*
X105549700Y-69623550D01*
X105390950Y-69464800D01*
X100276700Y-69461728D01*
X100152218Y-69473988D01*
X100032520Y-69510298D01*
X99922206Y-69569263D01*
X99825515Y-69648615D01*
X99746163Y-69745306D01*
X99687198Y-69855620D01*
X99650888Y-69975318D01*
X99638628Y-70099800D01*
X88044350Y-70099800D01*
X88101400Y-70042750D01*
X88104472Y-69841000D01*
X88092212Y-69716518D01*
X88055902Y-69596820D01*
X87996937Y-69486506D01*
X87917585Y-69389815D01*
X87820894Y-69310463D01*
X87710580Y-69251498D01*
X87590882Y-69215188D01*
X87466400Y-69202928D01*
X87052150Y-69206000D01*
X86893400Y-69364750D01*
X86893400Y-70201500D01*
X86913400Y-70201500D01*
X86913400Y-70455500D01*
X86893400Y-70455500D01*
X86893400Y-70475500D01*
X86639400Y-70475500D01*
X86639400Y-70455500D01*
X85590150Y-70455500D01*
X85431400Y-70614250D01*
X85428328Y-70816000D01*
X85431421Y-70847400D01*
X83117272Y-70847400D01*
X83117272Y-70732400D01*
X83100208Y-70559146D01*
X83049672Y-70392550D01*
X82967605Y-70239014D01*
X82857162Y-70104438D01*
X82722586Y-69993995D01*
X82569050Y-69911928D01*
X82402454Y-69861392D01*
X82229200Y-69844328D01*
X80623037Y-69844328D01*
X80619709Y-69841000D01*
X85428328Y-69841000D01*
X85431400Y-70042750D01*
X85590150Y-70201500D01*
X86639400Y-70201500D01*
X86639400Y-69364750D01*
X86480650Y-69206000D01*
X86066400Y-69202928D01*
X85941918Y-69215188D01*
X85822220Y-69251498D01*
X85711906Y-69310463D01*
X85615215Y-69389815D01*
X85535863Y-69486506D01*
X85476898Y-69596820D01*
X85440588Y-69716518D01*
X85428328Y-69841000D01*
X80619709Y-69841000D01*
X79368109Y-68589400D01*
X110198162Y-68589400D01*
X111070494Y-69461732D01*
G36*
X105803700Y-83822800D02*
G01*
X105823700Y-83822800D01*
X105823700Y-84076800D01*
X105803700Y-84076800D01*
X105803700Y-86726050D01*
X105962450Y-86884800D01*
X106226700Y-86887872D01*
X106351182Y-86875612D01*
X106470880Y-86839302D01*
X106491701Y-86828173D01*
X106491700Y-87379521D01*
X101669059Y-92202163D01*
X96061508Y-92202163D01*
X96060000Y-91998750D01*
X95901250Y-91840000D01*
X95064500Y-91840000D01*
X95064500Y-91860000D01*
X94810500Y-91860000D01*
X94810500Y-91840000D01*
X94790500Y-91840000D01*
X94790500Y-91586000D01*
X94810500Y-91586000D01*
X94810500Y-91566000D01*
X95064500Y-91566000D01*
X95064500Y-91586000D01*
X95901250Y-91586000D01*
X96060000Y-91427250D01*
X96061817Y-91182200D01*
X98941128Y-91182200D01*
X98953388Y-91306682D01*
X98989698Y-91426380D01*
X99048663Y-91536694D01*
X99128015Y-91633385D01*
X99224706Y-91712737D01*
X99335020Y-91771702D01*
X99454718Y-91808012D01*
X99579200Y-91820272D01*
X99993450Y-91817200D01*
X100152200Y-91658450D01*
X100152200Y-90821700D01*
X100406200Y-90821700D01*
X100406200Y-91658450D01*
X100564950Y-91817200D01*
X100979200Y-91820272D01*
X101103682Y-91808012D01*
X101223380Y-91771702D01*
X101333694Y-91712737D01*
X101430385Y-91633385D01*
X101509737Y-91536694D01*
X101568702Y-91426380D01*
X101605012Y-91306682D01*
X101617272Y-91182200D01*
X101614200Y-90980450D01*
X101455450Y-90821700D01*
X100406200Y-90821700D01*
X100152200Y-90821700D01*
X99102950Y-90821700D01*
X98944200Y-90980450D01*
X98941128Y-91182200D01*
X96061817Y-91182200D01*
X96063072Y-91013000D01*
X96050812Y-90888518D01*
X96014502Y-90768820D01*
X95955537Y-90658506D01*
X95876185Y-90561815D01*
X95779494Y-90482463D01*
X95727554Y-90454700D01*
X98989950Y-90454700D01*
X99102950Y-90567700D01*
X100152200Y-90567700D01*
X100152200Y-90547700D01*
X100406200Y-90547700D01*
X100406200Y-90567700D01*
X101455450Y-90567700D01*
X101614200Y-90408950D01*
X101617272Y-90207200D01*
X101605012Y-90082718D01*
X101568702Y-89963020D01*
X101524254Y-89879864D01*
X101645231Y-89732452D01*
X101797052Y-89448415D01*
X101878862Y-89178723D01*
X102851902Y-88205684D01*
X102854236Y-88213380D01*
X102982843Y-88453987D01*
X103155919Y-88664880D01*
X103366812Y-88837957D01*
X103607419Y-88966564D01*
X103868493Y-89045760D01*
X104140000Y-89072501D01*
X104411506Y-89045760D01*
X104672580Y-88966564D01*
X104913187Y-88837957D01*
X105124080Y-88664881D01*
X105297157Y-88453988D01*
X105425764Y-88213381D01*
X105504960Y-87952307D01*
X105525000Y-87748837D01*
X105525000Y-86750750D01*
X105549700Y-86726050D01*
X105549700Y-84076800D01*
X105529700Y-84076800D01*
X105529700Y-83822800D01*
X105549700Y-83822800D01*
X105549700Y-83802800D01*
X105803700Y-83802800D01*
X105803700Y-83822800D01*
X105803700Y-83822800D01*
G37*
X105803700Y-83822800D02*
X105823700Y-83822800D01*
X105823700Y-84076800D01*
X105803700Y-84076800D01*
X105803700Y-86726050D01*
X105962450Y-86884800D01*
X106226700Y-86887872D01*
X106351182Y-86875612D01*
X106470880Y-86839302D01*
X106491701Y-86828173D01*
X106491700Y-87379521D01*
X101669059Y-92202163D01*
X96061508Y-92202163D01*
X96060000Y-91998750D01*
X95901250Y-91840000D01*
X95064500Y-91840000D01*
X95064500Y-91860000D01*
X94810500Y-91860000D01*
X94810500Y-91840000D01*
X94790500Y-91840000D01*
X94790500Y-91586000D01*
X94810500Y-91586000D01*
X94810500Y-91566000D01*
X95064500Y-91566000D01*
X95064500Y-91586000D01*
X95901250Y-91586000D01*
X96060000Y-91427250D01*
X96061817Y-91182200D01*
X98941128Y-91182200D01*
X98953388Y-91306682D01*
X98989698Y-91426380D01*
X99048663Y-91536694D01*
X99128015Y-91633385D01*
X99224706Y-91712737D01*
X99335020Y-91771702D01*
X99454718Y-91808012D01*
X99579200Y-91820272D01*
X99993450Y-91817200D01*
X100152200Y-91658450D01*
X100152200Y-90821700D01*
X100406200Y-90821700D01*
X100406200Y-91658450D01*
X100564950Y-91817200D01*
X100979200Y-91820272D01*
X101103682Y-91808012D01*
X101223380Y-91771702D01*
X101333694Y-91712737D01*
X101430385Y-91633385D01*
X101509737Y-91536694D01*
X101568702Y-91426380D01*
X101605012Y-91306682D01*
X101617272Y-91182200D01*
X101614200Y-90980450D01*
X101455450Y-90821700D01*
X100406200Y-90821700D01*
X100152200Y-90821700D01*
X99102950Y-90821700D01*
X98944200Y-90980450D01*
X98941128Y-91182200D01*
X96061817Y-91182200D01*
X96063072Y-91013000D01*
X96050812Y-90888518D01*
X96014502Y-90768820D01*
X95955537Y-90658506D01*
X95876185Y-90561815D01*
X95779494Y-90482463D01*
X95727554Y-90454700D01*
X98989950Y-90454700D01*
X99102950Y-90567700D01*
X100152200Y-90567700D01*
X100152200Y-90547700D01*
X100406200Y-90547700D01*
X100406200Y-90567700D01*
X101455450Y-90567700D01*
X101614200Y-90408950D01*
X101617272Y-90207200D01*
X101605012Y-90082718D01*
X101568702Y-89963020D01*
X101524254Y-89879864D01*
X101645231Y-89732452D01*
X101797052Y-89448415D01*
X101878862Y-89178723D01*
X102851902Y-88205684D01*
X102854236Y-88213380D01*
X102982843Y-88453987D01*
X103155919Y-88664880D01*
X103366812Y-88837957D01*
X103607419Y-88966564D01*
X103868493Y-89045760D01*
X104140000Y-89072501D01*
X104411506Y-89045760D01*
X104672580Y-88966564D01*
X104913187Y-88837957D01*
X105124080Y-88664881D01*
X105297157Y-88453988D01*
X105425764Y-88213381D01*
X105504960Y-87952307D01*
X105525000Y-87748837D01*
X105525000Y-86750750D01*
X105549700Y-86726050D01*
X105549700Y-84076800D01*
X105529700Y-84076800D01*
X105529700Y-83822800D01*
X105549700Y-83822800D01*
X105549700Y-83802800D01*
X105803700Y-83802800D01*
X105803700Y-83822800D01*
G36*
X129413000Y-90697000D02*
G01*
X129433000Y-90697000D01*
X129433000Y-90951000D01*
X129413000Y-90951000D01*
X129413000Y-90971000D01*
X129159000Y-90971000D01*
X129159000Y-90951000D01*
X129139000Y-90951000D01*
X129139000Y-90697000D01*
X129159000Y-90697000D01*
X129159000Y-90677000D01*
X129413000Y-90677000D01*
X129413000Y-90697000D01*
X129413000Y-90697000D01*
G37*
X129413000Y-90697000D02*
X129433000Y-90697000D01*
X129433000Y-90951000D01*
X129413000Y-90951000D01*
X129413000Y-90971000D01*
X129159000Y-90971000D01*
X129159000Y-90951000D01*
X129139000Y-90951000D01*
X129139000Y-90697000D01*
X129159000Y-90697000D01*
X129159000Y-90677000D01*
X129413000Y-90677000D01*
X129413000Y-90697000D01*
G36*
X87530728Y-74288000D02*
G01*
X87542988Y-74412482D01*
X87579298Y-74532180D01*
X87638263Y-74642494D01*
X87717615Y-74739185D01*
X87814306Y-74818537D01*
X87924620Y-74877502D01*
X88044318Y-74913812D01*
X88168800Y-74926072D01*
X95658189Y-74926072D01*
X97482044Y-76749928D01*
X88168800Y-76749928D01*
X88044318Y-76762188D01*
X87924620Y-76798498D01*
X87814306Y-76857463D01*
X87717615Y-76936815D01*
X87638263Y-77033506D01*
X87579298Y-77143820D01*
X87542988Y-77263518D01*
X87530728Y-77388000D01*
X87530728Y-80888000D01*
X87542988Y-81012482D01*
X87579298Y-81132180D01*
X87638263Y-81242494D01*
X87717615Y-81339185D01*
X87814306Y-81418537D01*
X87924620Y-81477502D01*
X88044318Y-81513812D01*
X88168800Y-81526072D01*
X93698187Y-81526072D01*
X94413372Y-82241257D01*
X94402663Y-82254306D01*
X94343698Y-82364620D01*
X94307388Y-82484318D01*
X94295128Y-82608800D01*
X94295128Y-84408800D01*
X94307388Y-84533282D01*
X94343698Y-84652980D01*
X94402663Y-84763294D01*
X94482015Y-84859985D01*
X94578706Y-84939337D01*
X94689020Y-84998302D01*
X94808718Y-85034612D01*
X94933200Y-85046872D01*
X97433200Y-85046872D01*
X97557682Y-85034612D01*
X97677380Y-84998302D01*
X97787694Y-84939337D01*
X97843181Y-84893800D01*
X98215788Y-84893800D01*
X98348800Y-84906900D01*
X98620307Y-84880160D01*
X98881380Y-84800964D01*
X99121988Y-84672356D01*
X99332881Y-84499281D01*
X99505956Y-84288388D01*
X99634564Y-84047780D01*
X99713760Y-83786707D01*
X99740500Y-83515200D01*
X99713760Y-83243693D01*
X99634564Y-82982620D01*
X99505956Y-82742012D01*
X99376252Y-82583967D01*
X99369854Y-82577569D01*
X99326481Y-82524719D01*
X99115588Y-82351643D01*
X98874981Y-82223036D01*
X98613907Y-82143840D01*
X98410437Y-82123800D01*
X98410429Y-82123800D01*
X98342400Y-82117100D01*
X98274371Y-82123800D01*
X97843181Y-82123800D01*
X97787694Y-82078263D01*
X97677380Y-82019298D01*
X97568384Y-81986234D01*
X97568200Y-81984370D01*
X97568200Y-81984363D01*
X97548160Y-81780893D01*
X97518732Y-81683880D01*
X97470861Y-81526072D01*
X98368800Y-81526072D01*
X98493282Y-81513812D01*
X98612980Y-81477502D01*
X98723294Y-81418537D01*
X98745570Y-81400255D01*
X98976345Y-81631030D01*
X99019718Y-81683880D01*
X99230611Y-81856956D01*
X99466401Y-81982988D01*
X99471218Y-81985563D01*
X99732291Y-82064759D01*
X99757898Y-82067281D01*
X99935762Y-82084799D01*
X99935769Y-82084799D01*
X100003798Y-82091499D01*
X100071827Y-82084799D01*
X101088628Y-82084799D01*
X101088628Y-83234451D01*
X100990936Y-83417220D01*
X100911740Y-83678294D01*
X100891700Y-83881764D01*
X100891701Y-86248513D01*
X99955515Y-87184700D01*
X87269919Y-87184700D01*
X87175162Y-87069238D01*
X87040586Y-86958795D01*
X86887050Y-86876728D01*
X86720454Y-86826192D01*
X86547200Y-86809128D01*
X85471367Y-86809128D01*
X83109439Y-84447200D01*
X83659128Y-84447200D01*
X83671388Y-84571682D01*
X83707698Y-84691380D01*
X83766663Y-84801694D01*
X83846015Y-84898385D01*
X83942706Y-84977737D01*
X84053020Y-85036702D01*
X84172718Y-85073012D01*
X84297200Y-85085272D01*
X85261450Y-85082200D01*
X85420200Y-84923450D01*
X85420200Y-82824200D01*
X85674200Y-82824200D01*
X85674200Y-84923450D01*
X85832950Y-85082200D01*
X86797200Y-85085272D01*
X86921682Y-85073012D01*
X87041380Y-85036702D01*
X87151694Y-84977737D01*
X87248385Y-84898385D01*
X87327737Y-84801694D01*
X87386702Y-84691380D01*
X87423012Y-84571682D01*
X87435272Y-84447200D01*
X87435192Y-84408800D01*
X90295128Y-84408800D01*
X90307388Y-84533282D01*
X90343698Y-84652980D01*
X90402663Y-84763294D01*
X90482015Y-84859985D01*
X90578706Y-84939337D01*
X90689020Y-84998302D01*
X90808718Y-85034612D01*
X90933200Y-85046872D01*
X91897450Y-85043800D01*
X92056200Y-84885050D01*
X92056200Y-83635800D01*
X92310200Y-83635800D01*
X92310200Y-84885050D01*
X92468950Y-85043800D01*
X93433200Y-85046872D01*
X93557682Y-85034612D01*
X93677380Y-84998302D01*
X93787694Y-84939337D01*
X93884385Y-84859985D01*
X93963737Y-84763294D01*
X94022702Y-84652980D01*
X94059012Y-84533282D01*
X94071272Y-84408800D01*
X94068200Y-83794550D01*
X93909450Y-83635800D01*
X92310200Y-83635800D01*
X92056200Y-83635800D01*
X90456950Y-83635800D01*
X90298200Y-83794550D01*
X90295128Y-84408800D01*
X87435192Y-84408800D01*
X87432200Y-82982950D01*
X87273450Y-82824200D01*
X85674200Y-82824200D01*
X85420200Y-82824200D01*
X83820950Y-82824200D01*
X83662200Y-82982950D01*
X83659128Y-84447200D01*
X83109439Y-84447200D01*
X81271039Y-82608800D01*
X90295128Y-82608800D01*
X90298200Y-83223050D01*
X90456950Y-83381800D01*
X92056200Y-83381800D01*
X92056200Y-82132550D01*
X92310200Y-82132550D01*
X92310200Y-83381800D01*
X93909450Y-83381800D01*
X94068200Y-83223050D01*
X94071272Y-82608800D01*
X94059012Y-82484318D01*
X94022702Y-82364620D01*
X93963737Y-82254306D01*
X93884385Y-82157615D01*
X93787694Y-82078263D01*
X93677380Y-82019298D01*
X93557682Y-81982988D01*
X93433200Y-81970728D01*
X92468950Y-81973800D01*
X92310200Y-82132550D01*
X92056200Y-82132550D01*
X91897450Y-81973800D01*
X90933200Y-81970728D01*
X90808718Y-81982988D01*
X90689020Y-82019298D01*
X90578706Y-82078263D01*
X90482015Y-82157615D01*
X90402663Y-82254306D01*
X90343698Y-82364620D01*
X90307388Y-82484318D01*
X90295128Y-82608800D01*
X81271039Y-82608800D01*
X79733130Y-81070892D01*
X79735020Y-81071902D01*
X79854718Y-81108212D01*
X79979200Y-81120472D01*
X80943450Y-81117400D01*
X81102200Y-80958650D01*
X81102200Y-78859400D01*
X81356200Y-78859400D01*
X81356200Y-80958650D01*
X81514950Y-81117400D01*
X82479200Y-81120472D01*
X82603682Y-81108212D01*
X82723380Y-81071902D01*
X82833694Y-81012937D01*
X82913795Y-80947200D01*
X83659128Y-80947200D01*
X83662200Y-82411450D01*
X83820950Y-82570200D01*
X85420200Y-82570200D01*
X85420200Y-80470950D01*
X85674200Y-80470950D01*
X85674200Y-82570200D01*
X87273450Y-82570200D01*
X87432200Y-82411450D01*
X87435272Y-80947200D01*
X87423012Y-80822718D01*
X87386702Y-80703020D01*
X87327737Y-80592706D01*
X87248385Y-80496015D01*
X87151694Y-80416663D01*
X87041380Y-80357698D01*
X86921682Y-80321388D01*
X86797200Y-80309128D01*
X85832950Y-80312200D01*
X85674200Y-80470950D01*
X85420200Y-80470950D01*
X85261450Y-80312200D01*
X84297200Y-80309128D01*
X84172718Y-80321388D01*
X84053020Y-80357698D01*
X83942706Y-80416663D01*
X83846015Y-80496015D01*
X83766663Y-80592706D01*
X83707698Y-80703020D01*
X83671388Y-80822718D01*
X83659128Y-80947200D01*
X82913795Y-80947200D01*
X82930385Y-80933585D01*
X83009737Y-80836894D01*
X83068702Y-80726580D01*
X83105012Y-80606882D01*
X83117272Y-80482400D01*
X83114200Y-79018150D01*
X82955450Y-78859400D01*
X81356200Y-78859400D01*
X81102200Y-78859400D01*
X79502950Y-78859400D01*
X79344200Y-79018150D01*
X79341128Y-80482400D01*
X79353388Y-80606882D01*
X79389698Y-80726580D01*
X79390708Y-80728470D01*
X75644638Y-76982400D01*
X79341128Y-76982400D01*
X79344200Y-78446650D01*
X79502950Y-78605400D01*
X81102200Y-78605400D01*
X81102200Y-76506150D01*
X81356200Y-76506150D01*
X81356200Y-78605400D01*
X82955450Y-78605400D01*
X83114200Y-78446650D01*
X83117272Y-76982400D01*
X83105012Y-76857918D01*
X83068702Y-76738220D01*
X83009737Y-76627906D01*
X82930385Y-76531215D01*
X82833694Y-76451863D01*
X82723380Y-76392898D01*
X82603682Y-76356588D01*
X82479200Y-76344328D01*
X81514950Y-76347400D01*
X81356200Y-76506150D01*
X81102200Y-76506150D01*
X80943450Y-76347400D01*
X79979200Y-76344328D01*
X79854718Y-76356588D01*
X79735020Y-76392898D01*
X79624706Y-76451863D01*
X79528015Y-76531215D01*
X79448663Y-76627906D01*
X79389698Y-76738220D01*
X79353388Y-76857918D01*
X79341128Y-76982400D01*
X75644638Y-76982400D01*
X75178925Y-76516687D01*
X75127714Y-76454286D01*
X74878752Y-76249969D01*
X74594715Y-76098148D01*
X74286516Y-76004657D01*
X74046322Y-75981000D01*
X74046319Y-75981000D01*
X73966000Y-75973089D01*
X73885681Y-75981000D01*
X73821564Y-75981000D01*
X73789450Y-75920918D01*
X73580134Y-75665866D01*
X73475993Y-75580400D01*
X79079317Y-75580400D01*
X79141200Y-75586495D01*
X79203083Y-75580400D01*
X79203093Y-75580400D01*
X79388203Y-75562168D01*
X79625714Y-75490120D01*
X79844605Y-75373120D01*
X80036465Y-75215665D01*
X80075924Y-75167585D01*
X80623036Y-74620472D01*
X82229200Y-74620472D01*
X82402454Y-74603408D01*
X82569050Y-74552872D01*
X82722586Y-74470805D01*
X82857162Y-74360362D01*
X82967605Y-74225786D01*
X83049672Y-74072250D01*
X83100208Y-73905654D01*
X83117272Y-73732400D01*
X83117272Y-73617400D01*
X86669471Y-73617400D01*
X86737500Y-73624100D01*
X86805529Y-73617400D01*
X86805537Y-73617400D01*
X87009007Y-73597360D01*
X87038214Y-73588500D01*
X87530728Y-73588500D01*
X87530728Y-74288000D01*
X87530728Y-74288000D01*
G37*
X87530728Y-74288000D02*
X87542988Y-74412482D01*
X87579298Y-74532180D01*
X87638263Y-74642494D01*
X87717615Y-74739185D01*
X87814306Y-74818537D01*
X87924620Y-74877502D01*
X88044318Y-74913812D01*
X88168800Y-74926072D01*
X95658189Y-74926072D01*
X97482044Y-76749928D01*
X88168800Y-76749928D01*
X88044318Y-76762188D01*
X87924620Y-76798498D01*
X87814306Y-76857463D01*
X87717615Y-76936815D01*
X87638263Y-77033506D01*
X87579298Y-77143820D01*
X87542988Y-77263518D01*
X87530728Y-77388000D01*
X87530728Y-80888000D01*
X87542988Y-81012482D01*
X87579298Y-81132180D01*
X87638263Y-81242494D01*
X87717615Y-81339185D01*
X87814306Y-81418537D01*
X87924620Y-81477502D01*
X88044318Y-81513812D01*
X88168800Y-81526072D01*
X93698187Y-81526072D01*
X94413372Y-82241257D01*
X94402663Y-82254306D01*
X94343698Y-82364620D01*
X94307388Y-82484318D01*
X94295128Y-82608800D01*
X94295128Y-84408800D01*
X94307388Y-84533282D01*
X94343698Y-84652980D01*
X94402663Y-84763294D01*
X94482015Y-84859985D01*
X94578706Y-84939337D01*
X94689020Y-84998302D01*
X94808718Y-85034612D01*
X94933200Y-85046872D01*
X97433200Y-85046872D01*
X97557682Y-85034612D01*
X97677380Y-84998302D01*
X97787694Y-84939337D01*
X97843181Y-84893800D01*
X98215788Y-84893800D01*
X98348800Y-84906900D01*
X98620307Y-84880160D01*
X98881380Y-84800964D01*
X99121988Y-84672356D01*
X99332881Y-84499281D01*
X99505956Y-84288388D01*
X99634564Y-84047780D01*
X99713760Y-83786707D01*
X99740500Y-83515200D01*
X99713760Y-83243693D01*
X99634564Y-82982620D01*
X99505956Y-82742012D01*
X99376252Y-82583967D01*
X99369854Y-82577569D01*
X99326481Y-82524719D01*
X99115588Y-82351643D01*
X98874981Y-82223036D01*
X98613907Y-82143840D01*
X98410437Y-82123800D01*
X98410429Y-82123800D01*
X98342400Y-82117100D01*
X98274371Y-82123800D01*
X97843181Y-82123800D01*
X97787694Y-82078263D01*
X97677380Y-82019298D01*
X97568384Y-81986234D01*
X97568200Y-81984370D01*
X97568200Y-81984363D01*
X97548160Y-81780893D01*
X97518732Y-81683880D01*
X97470861Y-81526072D01*
X98368800Y-81526072D01*
X98493282Y-81513812D01*
X98612980Y-81477502D01*
X98723294Y-81418537D01*
X98745570Y-81400255D01*
X98976345Y-81631030D01*
X99019718Y-81683880D01*
X99230611Y-81856956D01*
X99466401Y-81982988D01*
X99471218Y-81985563D01*
X99732291Y-82064759D01*
X99757898Y-82067281D01*
X99935762Y-82084799D01*
X99935769Y-82084799D01*
X100003798Y-82091499D01*
X100071827Y-82084799D01*
X101088628Y-82084799D01*
X101088628Y-83234451D01*
X100990936Y-83417220D01*
X100911740Y-83678294D01*
X100891700Y-83881764D01*
X100891701Y-86248513D01*
X99955515Y-87184700D01*
X87269919Y-87184700D01*
X87175162Y-87069238D01*
X87040586Y-86958795D01*
X86887050Y-86876728D01*
X86720454Y-86826192D01*
X86547200Y-86809128D01*
X85471367Y-86809128D01*
X83109439Y-84447200D01*
X83659128Y-84447200D01*
X83671388Y-84571682D01*
X83707698Y-84691380D01*
X83766663Y-84801694D01*
X83846015Y-84898385D01*
X83942706Y-84977737D01*
X84053020Y-85036702D01*
X84172718Y-85073012D01*
X84297200Y-85085272D01*
X85261450Y-85082200D01*
X85420200Y-84923450D01*
X85420200Y-82824200D01*
X85674200Y-82824200D01*
X85674200Y-84923450D01*
X85832950Y-85082200D01*
X86797200Y-85085272D01*
X86921682Y-85073012D01*
X87041380Y-85036702D01*
X87151694Y-84977737D01*
X87248385Y-84898385D01*
X87327737Y-84801694D01*
X87386702Y-84691380D01*
X87423012Y-84571682D01*
X87435272Y-84447200D01*
X87435192Y-84408800D01*
X90295128Y-84408800D01*
X90307388Y-84533282D01*
X90343698Y-84652980D01*
X90402663Y-84763294D01*
X90482015Y-84859985D01*
X90578706Y-84939337D01*
X90689020Y-84998302D01*
X90808718Y-85034612D01*
X90933200Y-85046872D01*
X91897450Y-85043800D01*
X92056200Y-84885050D01*
X92056200Y-83635800D01*
X92310200Y-83635800D01*
X92310200Y-84885050D01*
X92468950Y-85043800D01*
X93433200Y-85046872D01*
X93557682Y-85034612D01*
X93677380Y-84998302D01*
X93787694Y-84939337D01*
X93884385Y-84859985D01*
X93963737Y-84763294D01*
X94022702Y-84652980D01*
X94059012Y-84533282D01*
X94071272Y-84408800D01*
X94068200Y-83794550D01*
X93909450Y-83635800D01*
X92310200Y-83635800D01*
X92056200Y-83635800D01*
X90456950Y-83635800D01*
X90298200Y-83794550D01*
X90295128Y-84408800D01*
X87435192Y-84408800D01*
X87432200Y-82982950D01*
X87273450Y-82824200D01*
X85674200Y-82824200D01*
X85420200Y-82824200D01*
X83820950Y-82824200D01*
X83662200Y-82982950D01*
X83659128Y-84447200D01*
X83109439Y-84447200D01*
X81271039Y-82608800D01*
X90295128Y-82608800D01*
X90298200Y-83223050D01*
X90456950Y-83381800D01*
X92056200Y-83381800D01*
X92056200Y-82132550D01*
X92310200Y-82132550D01*
X92310200Y-83381800D01*
X93909450Y-83381800D01*
X94068200Y-83223050D01*
X94071272Y-82608800D01*
X94059012Y-82484318D01*
X94022702Y-82364620D01*
X93963737Y-82254306D01*
X93884385Y-82157615D01*
X93787694Y-82078263D01*
X93677380Y-82019298D01*
X93557682Y-81982988D01*
X93433200Y-81970728D01*
X92468950Y-81973800D01*
X92310200Y-82132550D01*
X92056200Y-82132550D01*
X91897450Y-81973800D01*
X90933200Y-81970728D01*
X90808718Y-81982988D01*
X90689020Y-82019298D01*
X90578706Y-82078263D01*
X90482015Y-82157615D01*
X90402663Y-82254306D01*
X90343698Y-82364620D01*
X90307388Y-82484318D01*
X90295128Y-82608800D01*
X81271039Y-82608800D01*
X79733130Y-81070892D01*
X79735020Y-81071902D01*
X79854718Y-81108212D01*
X79979200Y-81120472D01*
X80943450Y-81117400D01*
X81102200Y-80958650D01*
X81102200Y-78859400D01*
X81356200Y-78859400D01*
X81356200Y-80958650D01*
X81514950Y-81117400D01*
X82479200Y-81120472D01*
X82603682Y-81108212D01*
X82723380Y-81071902D01*
X82833694Y-81012937D01*
X82913795Y-80947200D01*
X83659128Y-80947200D01*
X83662200Y-82411450D01*
X83820950Y-82570200D01*
X85420200Y-82570200D01*
X85420200Y-80470950D01*
X85674200Y-80470950D01*
X85674200Y-82570200D01*
X87273450Y-82570200D01*
X87432200Y-82411450D01*
X87435272Y-80947200D01*
X87423012Y-80822718D01*
X87386702Y-80703020D01*
X87327737Y-80592706D01*
X87248385Y-80496015D01*
X87151694Y-80416663D01*
X87041380Y-80357698D01*
X86921682Y-80321388D01*
X86797200Y-80309128D01*
X85832950Y-80312200D01*
X85674200Y-80470950D01*
X85420200Y-80470950D01*
X85261450Y-80312200D01*
X84297200Y-80309128D01*
X84172718Y-80321388D01*
X84053020Y-80357698D01*
X83942706Y-80416663D01*
X83846015Y-80496015D01*
X83766663Y-80592706D01*
X83707698Y-80703020D01*
X83671388Y-80822718D01*
X83659128Y-80947200D01*
X82913795Y-80947200D01*
X82930385Y-80933585D01*
X83009737Y-80836894D01*
X83068702Y-80726580D01*
X83105012Y-80606882D01*
X83117272Y-80482400D01*
X83114200Y-79018150D01*
X82955450Y-78859400D01*
X81356200Y-78859400D01*
X81102200Y-78859400D01*
X79502950Y-78859400D01*
X79344200Y-79018150D01*
X79341128Y-80482400D01*
X79353388Y-80606882D01*
X79389698Y-80726580D01*
X79390708Y-80728470D01*
X75644638Y-76982400D01*
X79341128Y-76982400D01*
X79344200Y-78446650D01*
X79502950Y-78605400D01*
X81102200Y-78605400D01*
X81102200Y-76506150D01*
X81356200Y-76506150D01*
X81356200Y-78605400D01*
X82955450Y-78605400D01*
X83114200Y-78446650D01*
X83117272Y-76982400D01*
X83105012Y-76857918D01*
X83068702Y-76738220D01*
X83009737Y-76627906D01*
X82930385Y-76531215D01*
X82833694Y-76451863D01*
X82723380Y-76392898D01*
X82603682Y-76356588D01*
X82479200Y-76344328D01*
X81514950Y-76347400D01*
X81356200Y-76506150D01*
X81102200Y-76506150D01*
X80943450Y-76347400D01*
X79979200Y-76344328D01*
X79854718Y-76356588D01*
X79735020Y-76392898D01*
X79624706Y-76451863D01*
X79528015Y-76531215D01*
X79448663Y-76627906D01*
X79389698Y-76738220D01*
X79353388Y-76857918D01*
X79341128Y-76982400D01*
X75644638Y-76982400D01*
X75178925Y-76516687D01*
X75127714Y-76454286D01*
X74878752Y-76249969D01*
X74594715Y-76098148D01*
X74286516Y-76004657D01*
X74046322Y-75981000D01*
X74046319Y-75981000D01*
X73966000Y-75973089D01*
X73885681Y-75981000D01*
X73821564Y-75981000D01*
X73789450Y-75920918D01*
X73580134Y-75665866D01*
X73475993Y-75580400D01*
X79079317Y-75580400D01*
X79141200Y-75586495D01*
X79203083Y-75580400D01*
X79203093Y-75580400D01*
X79388203Y-75562168D01*
X79625714Y-75490120D01*
X79844605Y-75373120D01*
X80036465Y-75215665D01*
X80075924Y-75167585D01*
X80623036Y-74620472D01*
X82229200Y-74620472D01*
X82402454Y-74603408D01*
X82569050Y-74552872D01*
X82722586Y-74470805D01*
X82857162Y-74360362D01*
X82967605Y-74225786D01*
X83049672Y-74072250D01*
X83100208Y-73905654D01*
X83117272Y-73732400D01*
X83117272Y-73617400D01*
X86669471Y-73617400D01*
X86737500Y-73624100D01*
X86805529Y-73617400D01*
X86805537Y-73617400D01*
X87009007Y-73597360D01*
X87038214Y-73588500D01*
X87530728Y-73588500D01*
X87530728Y-74288000D01*
G36*
X122266201Y-60875240D02*
G01*
X122266200Y-71335335D01*
X122143031Y-71104902D01*
X121938714Y-70855940D01*
X121876319Y-70804734D01*
X114330951Y-63259367D01*
X114279740Y-63196966D01*
X114030778Y-62992649D01*
X113751295Y-62843262D01*
X113985401Y-62718130D01*
X114240454Y-62508814D01*
X114363665Y-62358680D01*
X116452248Y-62358680D01*
X116464508Y-62483162D01*
X116500818Y-62602860D01*
X116559783Y-62713174D01*
X116639135Y-62809865D01*
X116735826Y-62889217D01*
X116846140Y-62948182D01*
X116965838Y-62984492D01*
X117090320Y-62996752D01*
X117844570Y-62993680D01*
X118003320Y-62834930D01*
X118003320Y-60685680D01*
X118257320Y-60685680D01*
X118257320Y-62834930D01*
X118416070Y-62993680D01*
X119170320Y-62996752D01*
X119294802Y-62984492D01*
X119414500Y-62948182D01*
X119524814Y-62889217D01*
X119621505Y-62809865D01*
X119700857Y-62713174D01*
X119759822Y-62602860D01*
X119796132Y-62483162D01*
X119808392Y-62358680D01*
X119805320Y-60844430D01*
X119646570Y-60685680D01*
X118257320Y-60685680D01*
X118003320Y-60685680D01*
X116614070Y-60685680D01*
X116455320Y-60844430D01*
X116452248Y-62358680D01*
X114363665Y-62358680D01*
X114449770Y-62253762D01*
X114605305Y-61962776D01*
X114701084Y-61647037D01*
X114725320Y-61400962D01*
X114725320Y-60435918D01*
X116457676Y-58703562D01*
X116452248Y-58758680D01*
X116455320Y-60272930D01*
X116614070Y-60431680D01*
X118003320Y-60431680D01*
X118003320Y-60411680D01*
X118257320Y-60411680D01*
X118257320Y-60431680D01*
X119646570Y-60431680D01*
X119805320Y-60272930D01*
X119808392Y-58758680D01*
X119796132Y-58634198D01*
X119759822Y-58514500D01*
X119700857Y-58404186D01*
X119692235Y-58393680D01*
X119784642Y-58393680D01*
X122266201Y-60875240D01*
X122266201Y-60875240D01*
G37*
X122266201Y-60875240D02*
X122266200Y-71335335D01*
X122143031Y-71104902D01*
X121938714Y-70855940D01*
X121876319Y-70804734D01*
X114330951Y-63259367D01*
X114279740Y-63196966D01*
X114030778Y-62992649D01*
X113751295Y-62843262D01*
X113985401Y-62718130D01*
X114240454Y-62508814D01*
X114363665Y-62358680D01*
X116452248Y-62358680D01*
X116464508Y-62483162D01*
X116500818Y-62602860D01*
X116559783Y-62713174D01*
X116639135Y-62809865D01*
X116735826Y-62889217D01*
X116846140Y-62948182D01*
X116965838Y-62984492D01*
X117090320Y-62996752D01*
X117844570Y-62993680D01*
X118003320Y-62834930D01*
X118003320Y-60685680D01*
X118257320Y-60685680D01*
X118257320Y-62834930D01*
X118416070Y-62993680D01*
X119170320Y-62996752D01*
X119294802Y-62984492D01*
X119414500Y-62948182D01*
X119524814Y-62889217D01*
X119621505Y-62809865D01*
X119700857Y-62713174D01*
X119759822Y-62602860D01*
X119796132Y-62483162D01*
X119808392Y-62358680D01*
X119805320Y-60844430D01*
X119646570Y-60685680D01*
X118257320Y-60685680D01*
X118003320Y-60685680D01*
X116614070Y-60685680D01*
X116455320Y-60844430D01*
X116452248Y-62358680D01*
X114363665Y-62358680D01*
X114449770Y-62253762D01*
X114605305Y-61962776D01*
X114701084Y-61647037D01*
X114725320Y-61400962D01*
X114725320Y-60435918D01*
X116457676Y-58703562D01*
X116452248Y-58758680D01*
X116455320Y-60272930D01*
X116614070Y-60431680D01*
X118003320Y-60431680D01*
X118003320Y-60411680D01*
X118257320Y-60411680D01*
X118257320Y-60431680D01*
X119646570Y-60431680D01*
X119805320Y-60272930D01*
X119808392Y-58758680D01*
X119796132Y-58634198D01*
X119759822Y-58514500D01*
X119700857Y-58404186D01*
X119692235Y-58393680D01*
X119784642Y-58393680D01*
X122266201Y-60875240D01*
G36*
X112163130Y-58373632D02*
G01*
X112115239Y-58399230D01*
X111860187Y-58608546D01*
X111650871Y-58863598D01*
X111495336Y-59154584D01*
X111399556Y-59470323D01*
X111375320Y-59716398D01*
X111375320Y-61400961D01*
X111399556Y-61647036D01*
X111495335Y-61962775D01*
X111650870Y-62253761D01*
X111860186Y-62508814D01*
X112115238Y-62718130D01*
X112125621Y-62723680D01*
X106489315Y-62723680D01*
X106497937Y-62713174D01*
X106556902Y-62602860D01*
X106593212Y-62483162D01*
X106605472Y-62358680D01*
X106602400Y-60844430D01*
X106443650Y-60685680D01*
X105054400Y-60685680D01*
X105054400Y-60705680D01*
X104800400Y-60705680D01*
X104800400Y-60685680D01*
X103411150Y-60685680D01*
X103252400Y-60844430D01*
X103249328Y-62358680D01*
X103261588Y-62483162D01*
X103297898Y-62602860D01*
X103356863Y-62713174D01*
X103365485Y-62723680D01*
X100772098Y-62723680D01*
X100782481Y-62718130D01*
X101037534Y-62508814D01*
X101246850Y-62253762D01*
X101402385Y-61962776D01*
X101498164Y-61647037D01*
X101522400Y-61400962D01*
X101522400Y-60435918D01*
X103254756Y-58703562D01*
X103249328Y-58758680D01*
X103252400Y-60272930D01*
X103411150Y-60431680D01*
X104800400Y-60431680D01*
X104800400Y-58282430D01*
X105054400Y-58282430D01*
X105054400Y-60431680D01*
X106443650Y-60431680D01*
X106602400Y-60272930D01*
X106605472Y-58758680D01*
X106593212Y-58634198D01*
X106556902Y-58514500D01*
X106497937Y-58404186D01*
X106418585Y-58307495D01*
X106321894Y-58228143D01*
X106211580Y-58169178D01*
X106091882Y-58132868D01*
X105967400Y-58120608D01*
X105213150Y-58123680D01*
X105054400Y-58282430D01*
X104800400Y-58282430D01*
X104641650Y-58123680D01*
X103887400Y-58120608D01*
X103832282Y-58126036D01*
X106272119Y-55686200D01*
X114850561Y-55686200D01*
X112163130Y-58373632D01*
X112163130Y-58373632D01*
G37*
X112163130Y-58373632D02*
X112115239Y-58399230D01*
X111860187Y-58608546D01*
X111650871Y-58863598D01*
X111495336Y-59154584D01*
X111399556Y-59470323D01*
X111375320Y-59716398D01*
X111375320Y-61400961D01*
X111399556Y-61647036D01*
X111495335Y-61962775D01*
X111650870Y-62253761D01*
X111860186Y-62508814D01*
X112115238Y-62718130D01*
X112125621Y-62723680D01*
X106489315Y-62723680D01*
X106497937Y-62713174D01*
X106556902Y-62602860D01*
X106593212Y-62483162D01*
X106605472Y-62358680D01*
X106602400Y-60844430D01*
X106443650Y-60685680D01*
X105054400Y-60685680D01*
X105054400Y-60705680D01*
X104800400Y-60705680D01*
X104800400Y-60685680D01*
X103411150Y-60685680D01*
X103252400Y-60844430D01*
X103249328Y-62358680D01*
X103261588Y-62483162D01*
X103297898Y-62602860D01*
X103356863Y-62713174D01*
X103365485Y-62723680D01*
X100772098Y-62723680D01*
X100782481Y-62718130D01*
X101037534Y-62508814D01*
X101246850Y-62253762D01*
X101402385Y-61962776D01*
X101498164Y-61647037D01*
X101522400Y-61400962D01*
X101522400Y-60435918D01*
X103254756Y-58703562D01*
X103249328Y-58758680D01*
X103252400Y-60272930D01*
X103411150Y-60431680D01*
X104800400Y-60431680D01*
X104800400Y-58282430D01*
X105054400Y-58282430D01*
X105054400Y-60431680D01*
X106443650Y-60431680D01*
X106602400Y-60272930D01*
X106605472Y-58758680D01*
X106593212Y-58634198D01*
X106556902Y-58514500D01*
X106497937Y-58404186D01*
X106418585Y-58307495D01*
X106321894Y-58228143D01*
X106211580Y-58169178D01*
X106091882Y-58132868D01*
X105967400Y-58120608D01*
X105213150Y-58123680D01*
X105054400Y-58282430D01*
X104800400Y-58282430D01*
X104641650Y-58123680D01*
X103887400Y-58120608D01*
X103832282Y-58126036D01*
X106272119Y-55686200D01*
X114850561Y-55686200D01*
X112163130Y-58373632D01*
M02*
