G04 #@! TF.GenerationSoftware,KiCad,Pcbnew,(5.1.4)-1*
G04 #@! TF.CreationDate,2020-03-23T02:46:53+01:00*
G04 #@! TF.ProjectId,dispatch,64697370-6174-4636-982e-6b696361645f,rev?*
G04 #@! TF.SameCoordinates,Original*
G04 #@! TF.FileFunction,Legend,Top*
G04 #@! TF.FilePolarity,Positive*
%FSLAX46Y46*%
G04 Gerber Fmt 4.6, Leading zero omitted, Abs format (unit mm)*
G04 Created by KiCad (PCBNEW (5.1.4)-1) date 2020-03-23 02:46:53*
%MOMM*%
%LPD*%
G04 APERTURE LIST*
%ADD10C,0.300000*%
%ADD11C,0.120000*%
%ADD12C,0.150000*%
%ADD13C,0.125000*%
%ADD14C,0.250000*%
%ADD15C,0.010000*%
%ADD16C,0.200000*%
G04 APERTURE END LIST*
D10*
X113555708Y-64749217D02*
X112412851Y-64749217D01*
X112984280Y-64177788D02*
X112984280Y-65320645D01*
X118635708Y-64749217D02*
X117492851Y-64749217D01*
D11*
X124777500Y-63637160D02*
X122529600Y-65885060D01*
X99898200Y-92424200D02*
X112026700Y-89363500D01*
X88138000Y-92411500D02*
X76022200Y-89401600D01*
X99898200Y-92424200D02*
X99898200Y-94583200D01*
X88138000Y-92411500D02*
X88138000Y-94583200D01*
D12*
X63999290Y-71261180D02*
X63523100Y-71261180D01*
X63523100Y-70261180D01*
X64475480Y-71261180D02*
X64380242Y-71213561D01*
X64332623Y-71165942D01*
X64285004Y-71070704D01*
X64285004Y-70784990D01*
X64332623Y-70689752D01*
X64380242Y-70642133D01*
X64475480Y-70594514D01*
X64618338Y-70594514D01*
X64713576Y-70642133D01*
X64761195Y-70689752D01*
X64808814Y-70784990D01*
X64808814Y-71070704D01*
X64761195Y-71165942D01*
X64713576Y-71213561D01*
X64618338Y-71261180D01*
X64475480Y-71261180D01*
X65665957Y-70594514D02*
X65665957Y-71404038D01*
X65618338Y-71499276D01*
X65570719Y-71546895D01*
X65475480Y-71594514D01*
X65332623Y-71594514D01*
X65237385Y-71546895D01*
X65665957Y-71213561D02*
X65570719Y-71261180D01*
X65380242Y-71261180D01*
X65285004Y-71213561D01*
X65237385Y-71165942D01*
X65189766Y-71070704D01*
X65189766Y-70784990D01*
X65237385Y-70689752D01*
X65285004Y-70642133D01*
X65380242Y-70594514D01*
X65570719Y-70594514D01*
X65665957Y-70642133D01*
X66142147Y-71261180D02*
X66142147Y-70594514D01*
X66142147Y-70261180D02*
X66094528Y-70308800D01*
X66142147Y-70356419D01*
X66189766Y-70308800D01*
X66142147Y-70261180D01*
X66142147Y-70356419D01*
X67046909Y-71213561D02*
X66951671Y-71261180D01*
X66761195Y-71261180D01*
X66665957Y-71213561D01*
X66618338Y-71165942D01*
X66570719Y-71070704D01*
X66570719Y-70784990D01*
X66618338Y-70689752D01*
X66665957Y-70642133D01*
X66761195Y-70594514D01*
X66951671Y-70594514D01*
X67046909Y-70642133D01*
X68237385Y-70594514D02*
X68237385Y-71594514D01*
X68237385Y-70642133D02*
X68332623Y-70594514D01*
X68523100Y-70594514D01*
X68618338Y-70642133D01*
X68665957Y-70689752D01*
X68713576Y-70784990D01*
X68713576Y-71070704D01*
X68665957Y-71165942D01*
X68618338Y-71213561D01*
X68523100Y-71261180D01*
X68332623Y-71261180D01*
X68237385Y-71213561D01*
X69285004Y-71261180D02*
X69189766Y-71213561D01*
X69142147Y-71165942D01*
X69094528Y-71070704D01*
X69094528Y-70784990D01*
X69142147Y-70689752D01*
X69189766Y-70642133D01*
X69285004Y-70594514D01*
X69427861Y-70594514D01*
X69523100Y-70642133D01*
X69570719Y-70689752D01*
X69618338Y-70784990D01*
X69618338Y-71070704D01*
X69570719Y-71165942D01*
X69523100Y-71213561D01*
X69427861Y-71261180D01*
X69285004Y-71261180D01*
X69951671Y-70594514D02*
X70142147Y-71261180D01*
X70332623Y-70784990D01*
X70523100Y-71261180D01*
X70713576Y-70594514D01*
X71475480Y-71213561D02*
X71380242Y-71261180D01*
X71189766Y-71261180D01*
X71094528Y-71213561D01*
X71046909Y-71118323D01*
X71046909Y-70737371D01*
X71094528Y-70642133D01*
X71189766Y-70594514D01*
X71380242Y-70594514D01*
X71475480Y-70642133D01*
X71523100Y-70737371D01*
X71523100Y-70832609D01*
X71046909Y-70927847D01*
X71951671Y-71261180D02*
X71951671Y-70594514D01*
X71951671Y-70784990D02*
X71999290Y-70689752D01*
X72046909Y-70642133D01*
X72142147Y-70594514D01*
X72237385Y-70594514D01*
X73285004Y-71213561D02*
X73380242Y-71261180D01*
X73570719Y-71261180D01*
X73665957Y-71213561D01*
X73713576Y-71118323D01*
X73713576Y-71070704D01*
X73665957Y-70975466D01*
X73570719Y-70927847D01*
X73427861Y-70927847D01*
X73332623Y-70880228D01*
X73285004Y-70784990D01*
X73285004Y-70737371D01*
X73332623Y-70642133D01*
X73427861Y-70594514D01*
X73570719Y-70594514D01*
X73665957Y-70642133D01*
X74046909Y-70594514D02*
X74237385Y-71261180D01*
X74427861Y-70784990D01*
X74618338Y-71261180D01*
X74808814Y-70594514D01*
X75189766Y-71261180D02*
X75189766Y-70594514D01*
X75189766Y-70261180D02*
X75142147Y-70308800D01*
X75189766Y-70356419D01*
X75237385Y-70308800D01*
X75189766Y-70261180D01*
X75189766Y-70356419D01*
X75523100Y-70594514D02*
X75904052Y-70594514D01*
X75665957Y-70261180D02*
X75665957Y-71118323D01*
X75713576Y-71213561D01*
X75808814Y-71261180D01*
X75904052Y-71261180D01*
X76665957Y-71213561D02*
X76570719Y-71261180D01*
X76380242Y-71261180D01*
X76285004Y-71213561D01*
X76237385Y-71165942D01*
X76189766Y-71070704D01*
X76189766Y-70784990D01*
X76237385Y-70689752D01*
X76285004Y-70642133D01*
X76380242Y-70594514D01*
X76570719Y-70594514D01*
X76665957Y-70642133D01*
X77094528Y-71261180D02*
X77094528Y-70261180D01*
X77523100Y-71261180D02*
X77523100Y-70737371D01*
X77475480Y-70642133D01*
X77380242Y-70594514D01*
X77237385Y-70594514D01*
X77142147Y-70642133D01*
X77094528Y-70689752D01*
X113686104Y-71311980D02*
X113686104Y-70311980D01*
X114257533Y-71311980D02*
X113828961Y-70740552D01*
X114257533Y-70311980D02*
X113686104Y-70883409D01*
X114686104Y-71311980D02*
X114686104Y-70645314D01*
X114686104Y-70311980D02*
X114638485Y-70359600D01*
X114686104Y-70407219D01*
X114733723Y-70359600D01*
X114686104Y-70311980D01*
X114686104Y-70407219D01*
X115305152Y-71311980D02*
X115209914Y-71264361D01*
X115162295Y-71169123D01*
X115162295Y-70311980D01*
X115828961Y-71311980D02*
X115733723Y-71264361D01*
X115686104Y-71169123D01*
X115686104Y-70311980D01*
X116924200Y-71264361D02*
X117019438Y-71311980D01*
X117209914Y-71311980D01*
X117305152Y-71264361D01*
X117352771Y-71169123D01*
X117352771Y-71121504D01*
X117305152Y-71026266D01*
X117209914Y-70978647D01*
X117067057Y-70978647D01*
X116971819Y-70931028D01*
X116924200Y-70835790D01*
X116924200Y-70788171D01*
X116971819Y-70692933D01*
X117067057Y-70645314D01*
X117209914Y-70645314D01*
X117305152Y-70692933D01*
X117686104Y-70645314D02*
X117876580Y-71311980D01*
X118067057Y-70835790D01*
X118257533Y-71311980D01*
X118448009Y-70645314D01*
X118828961Y-71311980D02*
X118828961Y-70645314D01*
X118828961Y-70311980D02*
X118781342Y-70359600D01*
X118828961Y-70407219D01*
X118876580Y-70359600D01*
X118828961Y-70311980D01*
X118828961Y-70407219D01*
X119162295Y-70645314D02*
X119543247Y-70645314D01*
X119305152Y-70311980D02*
X119305152Y-71169123D01*
X119352771Y-71264361D01*
X119448009Y-71311980D01*
X119543247Y-71311980D01*
X120305152Y-71264361D02*
X120209914Y-71311980D01*
X120019438Y-71311980D01*
X119924200Y-71264361D01*
X119876580Y-71216742D01*
X119828961Y-71121504D01*
X119828961Y-70835790D01*
X119876580Y-70740552D01*
X119924200Y-70692933D01*
X120019438Y-70645314D01*
X120209914Y-70645314D01*
X120305152Y-70692933D01*
X120733723Y-71311980D02*
X120733723Y-70311980D01*
X121162295Y-71311980D02*
X121162295Y-70788171D01*
X121114676Y-70692933D01*
X121019438Y-70645314D01*
X120876580Y-70645314D01*
X120781342Y-70692933D01*
X120733723Y-70740552D01*
D11*
X62852300Y-85623400D02*
X60718700Y-87757000D01*
X62852300Y-59436000D02*
X62852300Y-85623400D01*
X60744100Y-57340500D02*
X62839600Y-59436000D01*
D10*
X64525542Y-63976571D02*
X64525542Y-65500380D01*
X63763638Y-64738476D02*
X65287447Y-64738476D01*
X65763638Y-67405142D02*
X65763638Y-66452761D01*
X64811257Y-66357523D01*
X64906495Y-66452761D01*
X65001733Y-66643238D01*
X65001733Y-67119428D01*
X64906495Y-67309904D01*
X64811257Y-67405142D01*
X64620780Y-67500380D01*
X64144590Y-67500380D01*
X63954114Y-67405142D01*
X63858876Y-67309904D01*
X63763638Y-67119428D01*
X63763638Y-66643238D01*
X63858876Y-66452761D01*
X63954114Y-66357523D01*
X65763638Y-68071809D02*
X63763638Y-68738476D01*
X65763638Y-69405142D01*
D11*
X69296280Y-65885060D02*
X122529600Y-65885060D01*
X67048380Y-63637160D02*
X69296280Y-65885060D01*
D10*
X99894495Y-67421142D02*
X98370685Y-67421142D01*
X99132590Y-66659238D02*
X99132590Y-68183047D01*
X97704019Y-68659238D02*
X97037352Y-66659238D01*
X96370685Y-68659238D01*
X95037352Y-67706857D02*
X94751638Y-67611619D01*
X94656400Y-67516380D01*
X94561161Y-67325904D01*
X94561161Y-67040190D01*
X94656400Y-66849714D01*
X94751638Y-66754476D01*
X94942114Y-66659238D01*
X95704019Y-66659238D01*
X95704019Y-68659238D01*
X95037352Y-68659238D01*
X94846876Y-68564000D01*
X94751638Y-68468761D01*
X94656400Y-68278285D01*
X94656400Y-68087809D01*
X94751638Y-67897333D01*
X94846876Y-67802095D01*
X95037352Y-67706857D01*
X95704019Y-67706857D01*
X93799257Y-67230666D02*
X92846876Y-67230666D01*
X93989733Y-66659238D02*
X93323066Y-68659238D01*
X92656400Y-66659238D01*
X92275447Y-68659238D02*
X91132590Y-68659238D01*
X91704019Y-66659238D02*
X91704019Y-68659238D01*
D13*
X58610523Y-93806114D02*
X58991476Y-93806114D01*
X58801000Y-93996590D02*
X58801000Y-93615638D01*
X61150523Y-93806114D02*
X61531476Y-93806114D01*
X129095523Y-93806114D02*
X129476476Y-93806114D01*
X126555523Y-93806114D02*
X126936476Y-93806114D01*
X126746000Y-93996590D02*
X126746000Y-93615638D01*
D10*
X78926108Y-64749217D02*
X77783251Y-64749217D01*
X74338108Y-64749217D02*
X73195251Y-64749217D01*
X73766680Y-64177788D02*
X73766680Y-65320645D01*
X92126108Y-64749217D02*
X90983251Y-64749217D01*
X87046108Y-64749217D02*
X85903251Y-64749217D01*
X86474680Y-64177788D02*
X86474680Y-65320645D01*
X105326108Y-64749217D02*
X104183251Y-64749217D01*
X100246108Y-64749217D02*
X99103251Y-64749217D01*
X99674680Y-64177788D02*
X99674680Y-65320645D01*
X61614857Y-70473571D02*
X61614857Y-71616428D01*
X61614857Y-73978771D02*
X61614857Y-75121628D01*
X61043428Y-74550200D02*
X62186285Y-74550200D01*
X61614857Y-80060871D02*
X61614857Y-81203728D01*
X61614857Y-83566071D02*
X61614857Y-84708928D01*
X61043428Y-84137500D02*
X62186285Y-84137500D01*
X110504171Y-94025222D02*
X111647028Y-94025222D01*
X124829771Y-94025222D02*
X125972628Y-94025222D01*
X125401200Y-94596651D02*
X125401200Y-93453794D01*
X76441371Y-94029942D02*
X77584228Y-94029942D01*
X77012800Y-94601371D02*
X77012800Y-93458514D01*
X62115771Y-94029942D02*
X63258628Y-94029942D01*
D14*
X100527228Y-92884657D02*
X100927228Y-94084657D01*
X101327228Y-92884657D01*
X102127228Y-93456085D02*
X102298657Y-93513228D01*
X102355800Y-93570371D01*
X102412942Y-93684657D01*
X102412942Y-93856085D01*
X102355800Y-93970371D01*
X102298657Y-94027514D01*
X102184371Y-94084657D01*
X101727228Y-94084657D01*
X101727228Y-92884657D01*
X102127228Y-92884657D01*
X102241514Y-92941800D01*
X102298657Y-92998942D01*
X102355800Y-93113228D01*
X102355800Y-93227514D01*
X102298657Y-93341800D01*
X102241514Y-93398942D01*
X102127228Y-93456085D01*
X101727228Y-93456085D01*
X102870085Y-93741800D02*
X103441514Y-93741800D01*
X102755800Y-94084657D02*
X103155800Y-92884657D01*
X103555800Y-94084657D01*
X103784371Y-92884657D02*
X104470085Y-92884657D01*
X104127228Y-94084657D02*
X104127228Y-92884657D01*
X104584371Y-94198942D02*
X105498657Y-94198942D01*
X105784371Y-94084657D02*
X105784371Y-92884657D01*
X106241514Y-92884657D01*
X106355800Y-92941800D01*
X106412942Y-92998942D01*
X106470085Y-93113228D01*
X106470085Y-93284657D01*
X106412942Y-93398942D01*
X106355800Y-93456085D01*
X106241514Y-93513228D01*
X105784371Y-93513228D01*
X95993142Y-93678314D02*
X96907428Y-93678314D01*
X96450285Y-94135457D02*
X96450285Y-93221171D01*
X98050285Y-92935457D02*
X97478857Y-92935457D01*
X97421714Y-93506885D01*
X97478857Y-93449742D01*
X97593142Y-93392600D01*
X97878857Y-93392600D01*
X97993142Y-93449742D01*
X98050285Y-93506885D01*
X98107428Y-93621171D01*
X98107428Y-93906885D01*
X98050285Y-94021171D01*
X97993142Y-94078314D01*
X97878857Y-94135457D01*
X97593142Y-94135457D01*
X97478857Y-94078314D01*
X97421714Y-94021171D01*
X98450285Y-92935457D02*
X98850285Y-94135457D01*
X99250285Y-92935457D01*
X81515314Y-92935457D02*
X81915314Y-94135457D01*
X82315314Y-92935457D01*
X83115314Y-93506885D02*
X83286742Y-93564028D01*
X83343885Y-93621171D01*
X83401028Y-93735457D01*
X83401028Y-93906885D01*
X83343885Y-94021171D01*
X83286742Y-94078314D01*
X83172457Y-94135457D01*
X82715314Y-94135457D01*
X82715314Y-92935457D01*
X83115314Y-92935457D01*
X83229600Y-92992600D01*
X83286742Y-93049742D01*
X83343885Y-93164028D01*
X83343885Y-93278314D01*
X83286742Y-93392600D01*
X83229600Y-93449742D01*
X83115314Y-93506885D01*
X82715314Y-93506885D01*
X83858171Y-93792600D02*
X84429600Y-93792600D01*
X83743885Y-94135457D02*
X84143885Y-92935457D01*
X84543885Y-94135457D01*
X84772457Y-92935457D02*
X85458171Y-92935457D01*
X85115314Y-94135457D02*
X85115314Y-92935457D01*
X85572457Y-94249742D02*
X86486742Y-94249742D01*
X87343885Y-94135457D02*
X86772457Y-94135457D01*
X86772457Y-92935457D01*
D11*
X87476400Y-71524578D02*
X87476400Y-71007422D01*
X86056400Y-71524578D02*
X86056400Y-71007422D01*
D15*
G36*
X129286419Y-82603730D02*
G01*
X129369534Y-82390374D01*
X129508793Y-82278867D01*
X129685996Y-82278850D01*
X129797748Y-82332907D01*
X129905178Y-82429906D01*
X129951507Y-82564464D01*
X129959100Y-82713073D01*
X129928297Y-82952684D01*
X129837336Y-83097711D01*
X129668875Y-83187248D01*
X129599266Y-83179426D01*
X129599266Y-83070700D01*
X129723715Y-83026060D01*
X129768260Y-82886323D01*
X129768600Y-82867383D01*
X129750479Y-82786825D01*
X129673650Y-82800346D01*
X129641600Y-82816700D01*
X129545410Y-82904493D01*
X129516760Y-83001962D01*
X129563007Y-83064961D01*
X129599266Y-83070700D01*
X129599266Y-83179426D01*
X129507934Y-83169161D01*
X129505728Y-83167381D01*
X129505728Y-82715137D01*
X129613110Y-82649975D01*
X129708203Y-82550328D01*
X129707495Y-82468031D01*
X129622714Y-82439294D01*
X129550618Y-82457026D01*
X129468938Y-82544525D01*
X129451100Y-82625671D01*
X129459059Y-82711407D01*
X129505728Y-82715137D01*
X129505728Y-83167381D01*
X129375341Y-83062126D01*
X129291927Y-82884820D01*
X129278520Y-82655920D01*
X129286419Y-82603730D01*
X129286419Y-82603730D01*
G37*
X129286419Y-82603730D02*
X129369534Y-82390374D01*
X129508793Y-82278867D01*
X129685996Y-82278850D01*
X129797748Y-82332907D01*
X129905178Y-82429906D01*
X129951507Y-82564464D01*
X129959100Y-82713073D01*
X129928297Y-82952684D01*
X129837336Y-83097711D01*
X129668875Y-83187248D01*
X129599266Y-83179426D01*
X129599266Y-83070700D01*
X129723715Y-83026060D01*
X129768260Y-82886323D01*
X129768600Y-82867383D01*
X129750479Y-82786825D01*
X129673650Y-82800346D01*
X129641600Y-82816700D01*
X129545410Y-82904493D01*
X129516760Y-83001962D01*
X129563007Y-83064961D01*
X129599266Y-83070700D01*
X129599266Y-83179426D01*
X129507934Y-83169161D01*
X129505728Y-83167381D01*
X129505728Y-82715137D01*
X129613110Y-82649975D01*
X129708203Y-82550328D01*
X129707495Y-82468031D01*
X129622714Y-82439294D01*
X129550618Y-82457026D01*
X129468938Y-82544525D01*
X129451100Y-82625671D01*
X129459059Y-82711407D01*
X129505728Y-82715137D01*
X129505728Y-83167381D01*
X129375341Y-83062126D01*
X129291927Y-82884820D01*
X129278520Y-82655920D01*
X129286419Y-82603730D01*
G36*
X129322118Y-85973075D02*
G01*
X129424925Y-85831057D01*
X129559386Y-85750540D01*
X129709917Y-85753433D01*
X129854008Y-85853826D01*
X129934966Y-86018440D01*
X129958880Y-86232752D01*
X129926586Y-86441313D01*
X129842974Y-86585109D01*
X129664328Y-86679526D01*
X129614145Y-86673808D01*
X129614145Y-86533831D01*
X129679003Y-86495009D01*
X129750114Y-86396669D01*
X129765888Y-86296346D01*
X129719265Y-86246012D01*
X129712875Y-86245700D01*
X129619143Y-86294118D01*
X129549733Y-86398399D01*
X129544847Y-86497083D01*
X129546536Y-86500002D01*
X129614145Y-86533831D01*
X129614145Y-86673808D01*
X129505728Y-86661453D01*
X129505728Y-86207637D01*
X129613110Y-86142475D01*
X129708203Y-86042828D01*
X129707495Y-85960531D01*
X129622714Y-85931794D01*
X129550618Y-85949526D01*
X129468938Y-86037025D01*
X129451100Y-86118171D01*
X129459059Y-86203907D01*
X129505728Y-86207637D01*
X129505728Y-86661453D01*
X129487400Y-86659364D01*
X129359450Y-86549071D01*
X129273797Y-86353989D01*
X129266548Y-86154688D01*
X129322118Y-85973075D01*
X129322118Y-85973075D01*
G37*
X129322118Y-85973075D02*
X129424925Y-85831057D01*
X129559386Y-85750540D01*
X129709917Y-85753433D01*
X129854008Y-85853826D01*
X129934966Y-86018440D01*
X129958880Y-86232752D01*
X129926586Y-86441313D01*
X129842974Y-86585109D01*
X129664328Y-86679526D01*
X129614145Y-86673808D01*
X129614145Y-86533831D01*
X129679003Y-86495009D01*
X129750114Y-86396669D01*
X129765888Y-86296346D01*
X129719265Y-86246012D01*
X129712875Y-86245700D01*
X129619143Y-86294118D01*
X129549733Y-86398399D01*
X129544847Y-86497083D01*
X129546536Y-86500002D01*
X129614145Y-86533831D01*
X129614145Y-86673808D01*
X129505728Y-86661453D01*
X129505728Y-86207637D01*
X129613110Y-86142475D01*
X129708203Y-86042828D01*
X129707495Y-85960531D01*
X129622714Y-85931794D01*
X129550618Y-85949526D01*
X129468938Y-86037025D01*
X129451100Y-86118171D01*
X129459059Y-86203907D01*
X129505728Y-86207637D01*
X129505728Y-86661453D01*
X129487400Y-86659364D01*
X129359450Y-86549071D01*
X129273797Y-86353989D01*
X129266548Y-86154688D01*
X129322118Y-85973075D01*
G36*
X129182957Y-81558985D02*
G01*
X129314640Y-81454699D01*
X129504067Y-81319800D01*
X129586644Y-81264079D01*
X130039689Y-80962825D01*
X129587713Y-80667388D01*
X129382359Y-80528063D01*
X129225498Y-80411945D01*
X129141994Y-80337835D01*
X129134668Y-80324832D01*
X129183493Y-80270628D01*
X129314599Y-80166876D01*
X129503360Y-80032583D01*
X129582149Y-79979448D01*
X130030698Y-79681182D01*
X129582149Y-79400476D01*
X129376561Y-79266058D01*
X129220564Y-79153096D01*
X129139551Y-79080395D01*
X129133600Y-79068315D01*
X129183804Y-79013384D01*
X129317601Y-78911644D01*
X129509769Y-78781769D01*
X129587369Y-78732357D01*
X129805677Y-78593226D01*
X129930335Y-78503001D01*
X129976126Y-78444475D01*
X129957832Y-78400439D01*
X129904869Y-78362753D01*
X129789859Y-78221270D01*
X129768600Y-78102426D01*
X129789424Y-77973458D01*
X129875041Y-77929559D01*
X129927350Y-77927200D01*
X130055028Y-77960321D01*
X130086100Y-78022450D01*
X130113209Y-78107052D01*
X130136123Y-78117700D01*
X130211581Y-78155120D01*
X130341895Y-78249156D01*
X130398704Y-78295151D01*
X130611261Y-78472602D01*
X130189930Y-78747110D01*
X129992316Y-78881633D01*
X129844389Y-78993327D01*
X129771911Y-79062406D01*
X129768599Y-79070711D01*
X129819284Y-79124415D01*
X129953300Y-79221578D01*
X130143587Y-79342862D01*
X130180240Y-79364878D01*
X130377655Y-79488131D01*
X130523706Y-79590208D01*
X130591262Y-79651903D01*
X130592990Y-79657069D01*
X130544200Y-79711351D01*
X130413231Y-79815052D01*
X130224820Y-79949052D01*
X130149600Y-79999761D01*
X129947247Y-80136736D01*
X129793115Y-80245676D01*
X129711806Y-80309007D01*
X129705100Y-80317261D01*
X129754143Y-80359855D01*
X129884873Y-80454388D01*
X130072688Y-80583287D01*
X130149600Y-80634761D01*
X130352197Y-80773770D01*
X130506235Y-80887634D01*
X130587022Y-80957776D01*
X130593421Y-80968642D01*
X130543403Y-81018143D01*
X130410798Y-81116553D01*
X130220765Y-81245556D01*
X130148214Y-81292700D01*
X129703687Y-81578450D01*
X129863143Y-81707836D01*
X129986635Y-81849803D01*
X130024640Y-81985687D01*
X129977104Y-82085076D01*
X129863850Y-82118200D01*
X129744392Y-82101870D01*
X129704986Y-82070575D01*
X129655665Y-82012802D01*
X129529147Y-81915615D01*
X129419236Y-81842495D01*
X129259361Y-81733151D01*
X129155701Y-81646249D01*
X129133599Y-81613686D01*
X129182957Y-81558985D01*
X129182957Y-81558985D01*
G37*
X129182957Y-81558985D02*
X129314640Y-81454699D01*
X129504067Y-81319800D01*
X129586644Y-81264079D01*
X130039689Y-80962825D01*
X129587713Y-80667388D01*
X129382359Y-80528063D01*
X129225498Y-80411945D01*
X129141994Y-80337835D01*
X129134668Y-80324832D01*
X129183493Y-80270628D01*
X129314599Y-80166876D01*
X129503360Y-80032583D01*
X129582149Y-79979448D01*
X130030698Y-79681182D01*
X129582149Y-79400476D01*
X129376561Y-79266058D01*
X129220564Y-79153096D01*
X129139551Y-79080395D01*
X129133600Y-79068315D01*
X129183804Y-79013384D01*
X129317601Y-78911644D01*
X129509769Y-78781769D01*
X129587369Y-78732357D01*
X129805677Y-78593226D01*
X129930335Y-78503001D01*
X129976126Y-78444475D01*
X129957832Y-78400439D01*
X129904869Y-78362753D01*
X129789859Y-78221270D01*
X129768600Y-78102426D01*
X129789424Y-77973458D01*
X129875041Y-77929559D01*
X129927350Y-77927200D01*
X130055028Y-77960321D01*
X130086100Y-78022450D01*
X130113209Y-78107052D01*
X130136123Y-78117700D01*
X130211581Y-78155120D01*
X130341895Y-78249156D01*
X130398704Y-78295151D01*
X130611261Y-78472602D01*
X130189930Y-78747110D01*
X129992316Y-78881633D01*
X129844389Y-78993327D01*
X129771911Y-79062406D01*
X129768599Y-79070711D01*
X129819284Y-79124415D01*
X129953300Y-79221578D01*
X130143587Y-79342862D01*
X130180240Y-79364878D01*
X130377655Y-79488131D01*
X130523706Y-79590208D01*
X130591262Y-79651903D01*
X130592990Y-79657069D01*
X130544200Y-79711351D01*
X130413231Y-79815052D01*
X130224820Y-79949052D01*
X130149600Y-79999761D01*
X129947247Y-80136736D01*
X129793115Y-80245676D01*
X129711806Y-80309007D01*
X129705100Y-80317261D01*
X129754143Y-80359855D01*
X129884873Y-80454388D01*
X130072688Y-80583287D01*
X130149600Y-80634761D01*
X130352197Y-80773770D01*
X130506235Y-80887634D01*
X130587022Y-80957776D01*
X130593421Y-80968642D01*
X130543403Y-81018143D01*
X130410798Y-81116553D01*
X130220765Y-81245556D01*
X130148214Y-81292700D01*
X129703687Y-81578450D01*
X129863143Y-81707836D01*
X129986635Y-81849803D01*
X130024640Y-81985687D01*
X129977104Y-82085076D01*
X129863850Y-82118200D01*
X129744392Y-82101870D01*
X129704986Y-82070575D01*
X129655665Y-82012802D01*
X129529147Y-81915615D01*
X129419236Y-81842495D01*
X129259361Y-81733151D01*
X129155701Y-81646249D01*
X129133599Y-81613686D01*
X129182957Y-81558985D01*
G36*
X130143210Y-82335977D02*
G01*
X130289231Y-82312986D01*
X130403600Y-82308700D01*
X130584715Y-82320123D01*
X130699673Y-82349327D01*
X130721100Y-82372200D01*
X130667915Y-82423793D01*
X130594100Y-82435700D01*
X130514083Y-82454829D01*
X130476673Y-82533894D01*
X130467112Y-82705412D01*
X130467100Y-82715506D01*
X130473664Y-82887504D01*
X130503336Y-82961831D01*
X130571087Y-82967554D01*
X130594100Y-82962100D01*
X130699853Y-82959103D01*
X130709250Y-83013789D01*
X130622154Y-83100947D01*
X130594961Y-83118926D01*
X130439113Y-83196546D01*
X130342288Y-83185041D01*
X130292241Y-83072783D01*
X130276724Y-82848148D01*
X130276600Y-82816700D01*
X130269284Y-82595471D01*
X130243353Y-82476694D01*
X130192826Y-82436452D01*
X130181350Y-82435700D01*
X130096846Y-82401412D01*
X130086100Y-82372200D01*
X130143210Y-82335977D01*
X130143210Y-82335977D01*
G37*
X130143210Y-82335977D02*
X130289231Y-82312986D01*
X130403600Y-82308700D01*
X130584715Y-82320123D01*
X130699673Y-82349327D01*
X130721100Y-82372200D01*
X130667915Y-82423793D01*
X130594100Y-82435700D01*
X130514083Y-82454829D01*
X130476673Y-82533894D01*
X130467112Y-82705412D01*
X130467100Y-82715506D01*
X130473664Y-82887504D01*
X130503336Y-82961831D01*
X130571087Y-82967554D01*
X130594100Y-82962100D01*
X130699853Y-82959103D01*
X130709250Y-83013789D01*
X130622154Y-83100947D01*
X130594961Y-83118926D01*
X130439113Y-83196546D01*
X130342288Y-83185041D01*
X130292241Y-83072783D01*
X130276724Y-82848148D01*
X130276600Y-82816700D01*
X130269284Y-82595471D01*
X130243353Y-82476694D01*
X130192826Y-82436452D01*
X130181350Y-82435700D01*
X130096846Y-82401412D01*
X130086100Y-82372200D01*
X130143210Y-82335977D01*
G36*
X130134402Y-85915192D02*
G01*
X130247808Y-85829392D01*
X130387725Y-85772943D01*
X130466415Y-85756415D01*
X130509169Y-85785742D01*
X130526917Y-85887044D01*
X130530586Y-86086441D01*
X130530600Y-86114421D01*
X130537772Y-86337056D01*
X130563226Y-86457191D01*
X130612871Y-86498723D01*
X130625850Y-86499700D01*
X130710036Y-86550530D01*
X130721100Y-86594950D01*
X130683703Y-86657731D01*
X130556547Y-86686328D01*
X130435350Y-86690200D01*
X130247008Y-86677735D01*
X130161218Y-86635350D01*
X130149600Y-86594950D01*
X130200429Y-86510764D01*
X130244850Y-86499700D01*
X130310285Y-86458852D01*
X130337935Y-86322592D01*
X130340100Y-86238907D01*
X130330070Y-86072648D01*
X130293624Y-86009243D01*
X130246883Y-86013883D01*
X130147093Y-86017038D01*
X130120582Y-85996122D01*
X130134402Y-85915192D01*
X130134402Y-85915192D01*
G37*
X130134402Y-85915192D02*
X130247808Y-85829392D01*
X130387725Y-85772943D01*
X130466415Y-85756415D01*
X130509169Y-85785742D01*
X130526917Y-85887044D01*
X130530586Y-86086441D01*
X130530600Y-86114421D01*
X130537772Y-86337056D01*
X130563226Y-86457191D01*
X130612871Y-86498723D01*
X130625850Y-86499700D01*
X130710036Y-86550530D01*
X130721100Y-86594950D01*
X130683703Y-86657731D01*
X130556547Y-86686328D01*
X130435350Y-86690200D01*
X130247008Y-86677735D01*
X130161218Y-86635350D01*
X130149600Y-86594950D01*
X130200429Y-86510764D01*
X130244850Y-86499700D01*
X130310285Y-86458852D01*
X130337935Y-86322592D01*
X130340100Y-86238907D01*
X130330070Y-86072648D01*
X130293624Y-86009243D01*
X130246883Y-86013883D01*
X130147093Y-86017038D01*
X130120582Y-85996122D01*
X130134402Y-85915192D01*
G36*
X130861180Y-82604849D02*
G01*
X130933354Y-82422381D01*
X130975100Y-82372200D01*
X131122064Y-82264297D01*
X131264640Y-82265522D01*
X131405470Y-82344051D01*
X131508237Y-82484399D01*
X131551675Y-82686336D01*
X131534061Y-82898264D01*
X131453672Y-83068587D01*
X131430474Y-83092609D01*
X131284958Y-83176205D01*
X131270785Y-83179109D01*
X131270785Y-83048708D01*
X131342668Y-82959996D01*
X131356100Y-82874219D01*
X131338842Y-82788204D01*
X131264216Y-82798886D01*
X131229100Y-82816700D01*
X131117133Y-82911173D01*
X131123314Y-83002839D01*
X131165600Y-83038950D01*
X131270785Y-83048708D01*
X131270785Y-83179109D01*
X131180075Y-83197700D01*
X131093228Y-83166354D01*
X131093228Y-82715137D01*
X131200610Y-82649975D01*
X131295703Y-82550328D01*
X131294995Y-82468031D01*
X131210214Y-82439294D01*
X131138118Y-82457026D01*
X131056438Y-82544525D01*
X131038600Y-82625671D01*
X131046559Y-82711407D01*
X131093228Y-82715137D01*
X131093228Y-83166354D01*
X131027211Y-83142526D01*
X130917108Y-83001164D01*
X130858764Y-82809857D01*
X130861180Y-82604849D01*
X130861180Y-82604849D01*
G37*
X130861180Y-82604849D02*
X130933354Y-82422381D01*
X130975100Y-82372200D01*
X131122064Y-82264297D01*
X131264640Y-82265522D01*
X131405470Y-82344051D01*
X131508237Y-82484399D01*
X131551675Y-82686336D01*
X131534061Y-82898264D01*
X131453672Y-83068587D01*
X131430474Y-83092609D01*
X131284958Y-83176205D01*
X131270785Y-83179109D01*
X131270785Y-83048708D01*
X131342668Y-82959996D01*
X131356100Y-82874219D01*
X131338842Y-82788204D01*
X131264216Y-82798886D01*
X131229100Y-82816700D01*
X131117133Y-82911173D01*
X131123314Y-83002839D01*
X131165600Y-83038950D01*
X131270785Y-83048708D01*
X131270785Y-83179109D01*
X131180075Y-83197700D01*
X131093228Y-83166354D01*
X131093228Y-82715137D01*
X131200610Y-82649975D01*
X131295703Y-82550328D01*
X131294995Y-82468031D01*
X131210214Y-82439294D01*
X131138118Y-82457026D01*
X131056438Y-82544525D01*
X131038600Y-82625671D01*
X131046559Y-82711407D01*
X131093228Y-82715137D01*
X131093228Y-83166354D01*
X131027211Y-83142526D01*
X130917108Y-83001164D01*
X130858764Y-82809857D01*
X130861180Y-82604849D01*
G36*
X130909618Y-85973075D02*
G01*
X131012425Y-85831057D01*
X131146886Y-85750540D01*
X131297417Y-85753433D01*
X131441508Y-85853826D01*
X131522466Y-86018440D01*
X131546380Y-86232752D01*
X131514086Y-86441313D01*
X131430474Y-86585109D01*
X131251828Y-86679526D01*
X131209529Y-86674706D01*
X131209529Y-86535290D01*
X131300210Y-86492033D01*
X131354018Y-86391899D01*
X131356100Y-86365907D01*
X131331554Y-86266417D01*
X131300375Y-86245700D01*
X131208698Y-86292933D01*
X131137455Y-86394378D01*
X131127948Y-86489659D01*
X131130416Y-86494146D01*
X131209529Y-86535290D01*
X131209529Y-86674706D01*
X131093228Y-86661453D01*
X131093228Y-86207637D01*
X131200610Y-86142475D01*
X131295703Y-86042828D01*
X131294995Y-85960531D01*
X131210214Y-85931794D01*
X131138118Y-85949526D01*
X131056438Y-86037025D01*
X131038600Y-86118171D01*
X131046559Y-86203907D01*
X131093228Y-86207637D01*
X131093228Y-86661453D01*
X131074900Y-86659364D01*
X130946950Y-86549071D01*
X130861297Y-86353989D01*
X130854048Y-86154688D01*
X130909618Y-85973075D01*
X130909618Y-85973075D01*
G37*
X130909618Y-85973075D02*
X131012425Y-85831057D01*
X131146886Y-85750540D01*
X131297417Y-85753433D01*
X131441508Y-85853826D01*
X131522466Y-86018440D01*
X131546380Y-86232752D01*
X131514086Y-86441313D01*
X131430474Y-86585109D01*
X131251828Y-86679526D01*
X131209529Y-86674706D01*
X131209529Y-86535290D01*
X131300210Y-86492033D01*
X131354018Y-86391899D01*
X131356100Y-86365907D01*
X131331554Y-86266417D01*
X131300375Y-86245700D01*
X131208698Y-86292933D01*
X131137455Y-86394378D01*
X131127948Y-86489659D01*
X131130416Y-86494146D01*
X131209529Y-86535290D01*
X131209529Y-86674706D01*
X131093228Y-86661453D01*
X131093228Y-86207637D01*
X131200610Y-86142475D01*
X131295703Y-86042828D01*
X131294995Y-85960531D01*
X131210214Y-85931794D01*
X131138118Y-85949526D01*
X131056438Y-86037025D01*
X131038600Y-86118171D01*
X131046559Y-86203907D01*
X131093228Y-86207637D01*
X131093228Y-86661453D01*
X131074900Y-86659364D01*
X130946950Y-86549071D01*
X130861297Y-86353989D01*
X130854048Y-86154688D01*
X130909618Y-85973075D01*
G36*
X131730710Y-82335977D02*
G01*
X131876731Y-82312986D01*
X131991100Y-82308700D01*
X132172215Y-82320123D01*
X132287173Y-82349327D01*
X132308600Y-82372200D01*
X132255415Y-82423793D01*
X132181600Y-82435700D01*
X132101583Y-82454829D01*
X132064173Y-82533894D01*
X132054612Y-82705412D01*
X132054600Y-82715506D01*
X132061164Y-82887504D01*
X132090836Y-82961831D01*
X132158587Y-82967554D01*
X132181600Y-82962100D01*
X132287353Y-82959103D01*
X132296750Y-83013789D01*
X132209654Y-83100947D01*
X132182461Y-83118926D01*
X132026613Y-83196546D01*
X131929788Y-83185041D01*
X131879741Y-83072783D01*
X131864224Y-82848148D01*
X131864100Y-82816700D01*
X131856784Y-82595471D01*
X131830853Y-82476694D01*
X131780326Y-82436452D01*
X131768850Y-82435700D01*
X131684346Y-82401412D01*
X131673600Y-82372200D01*
X131730710Y-82335977D01*
X131730710Y-82335977D01*
G37*
X131730710Y-82335977D02*
X131876731Y-82312986D01*
X131991100Y-82308700D01*
X132172215Y-82320123D01*
X132287173Y-82349327D01*
X132308600Y-82372200D01*
X132255415Y-82423793D01*
X132181600Y-82435700D01*
X132101583Y-82454829D01*
X132064173Y-82533894D01*
X132054612Y-82705412D01*
X132054600Y-82715506D01*
X132061164Y-82887504D01*
X132090836Y-82961831D01*
X132158587Y-82967554D01*
X132181600Y-82962100D01*
X132287353Y-82959103D01*
X132296750Y-83013789D01*
X132209654Y-83100947D01*
X132182461Y-83118926D01*
X132026613Y-83196546D01*
X131929788Y-83185041D01*
X131879741Y-83072783D01*
X131864224Y-82848148D01*
X131864100Y-82816700D01*
X131856784Y-82595471D01*
X131830853Y-82476694D01*
X131780326Y-82436452D01*
X131768850Y-82435700D01*
X131684346Y-82401412D01*
X131673600Y-82372200D01*
X131730710Y-82335977D01*
G36*
X131789277Y-85876255D02*
G01*
X131910384Y-85793967D01*
X132047277Y-85742407D01*
X132090483Y-85737700D01*
X132105051Y-85795409D01*
X132115058Y-85945401D01*
X132118100Y-86118700D01*
X132125415Y-86339930D01*
X132151346Y-86458707D01*
X132201873Y-86498949D01*
X132213350Y-86499700D01*
X132297536Y-86550530D01*
X132308600Y-86594950D01*
X132271203Y-86657731D01*
X132144047Y-86686328D01*
X132022850Y-86690200D01*
X131834508Y-86677735D01*
X131748718Y-86635350D01*
X131737100Y-86594950D01*
X131787929Y-86510764D01*
X131832350Y-86499700D01*
X131897785Y-86458852D01*
X131925435Y-86322592D01*
X131927600Y-86238907D01*
X131917915Y-86073206D01*
X131882119Y-86009686D01*
X131832350Y-86014664D01*
X131750507Y-86004691D01*
X131737100Y-85956386D01*
X131789277Y-85876255D01*
X131789277Y-85876255D01*
G37*
X131789277Y-85876255D02*
X131910384Y-85793967D01*
X132047277Y-85742407D01*
X132090483Y-85737700D01*
X132105051Y-85795409D01*
X132115058Y-85945401D01*
X132118100Y-86118700D01*
X132125415Y-86339930D01*
X132151346Y-86458707D01*
X132201873Y-86498949D01*
X132213350Y-86499700D01*
X132297536Y-86550530D01*
X132308600Y-86594950D01*
X132271203Y-86657731D01*
X132144047Y-86686328D01*
X132022850Y-86690200D01*
X131834508Y-86677735D01*
X131748718Y-86635350D01*
X131737100Y-86594950D01*
X131787929Y-86510764D01*
X131832350Y-86499700D01*
X131897785Y-86458852D01*
X131925435Y-86322592D01*
X131927600Y-86238907D01*
X131917915Y-86073206D01*
X131882119Y-86009686D01*
X131832350Y-86014664D01*
X131750507Y-86004691D01*
X131737100Y-85956386D01*
X131789277Y-85876255D01*
G36*
X132476206Y-82553919D02*
G01*
X132583391Y-82380750D01*
X132735200Y-82290475D01*
X132909681Y-82301425D01*
X132979608Y-82337401D01*
X133083172Y-82434002D01*
X133127486Y-82573217D01*
X133134100Y-82713073D01*
X133100568Y-82960681D01*
X133017974Y-83092609D01*
X132841649Y-83184293D01*
X132774266Y-83178226D01*
X132774266Y-83070700D01*
X132898715Y-83026060D01*
X132943260Y-82886323D01*
X132943600Y-82867383D01*
X132925479Y-82786825D01*
X132848650Y-82800346D01*
X132816600Y-82816700D01*
X132720410Y-82904493D01*
X132691760Y-83001962D01*
X132738007Y-83064961D01*
X132774266Y-83070700D01*
X132774266Y-83178226D01*
X132670690Y-83168899D01*
X132670690Y-82708631D01*
X132778568Y-82656188D01*
X132784304Y-82652468D01*
X132890317Y-82551043D01*
X132893464Y-82470169D01*
X132793316Y-82435746D01*
X132787896Y-82435700D01*
X132695828Y-82490595D01*
X132634888Y-82620864D01*
X132626100Y-82696358D01*
X132670690Y-82708631D01*
X132670690Y-83168899D01*
X132666439Y-83168516D01*
X132523281Y-83061266D01*
X132443113Y-82878530D01*
X132435600Y-82791651D01*
X132476206Y-82553919D01*
X132476206Y-82553919D01*
G37*
X132476206Y-82553919D02*
X132583391Y-82380750D01*
X132735200Y-82290475D01*
X132909681Y-82301425D01*
X132979608Y-82337401D01*
X133083172Y-82434002D01*
X133127486Y-82573217D01*
X133134100Y-82713073D01*
X133100568Y-82960681D01*
X133017974Y-83092609D01*
X132841649Y-83184293D01*
X132774266Y-83178226D01*
X132774266Y-83070700D01*
X132898715Y-83026060D01*
X132943260Y-82886323D01*
X132943600Y-82867383D01*
X132925479Y-82786825D01*
X132848650Y-82800346D01*
X132816600Y-82816700D01*
X132720410Y-82904493D01*
X132691760Y-83001962D01*
X132738007Y-83064961D01*
X132774266Y-83070700D01*
X132774266Y-83178226D01*
X132670690Y-83168899D01*
X132670690Y-82708631D01*
X132778568Y-82656188D01*
X132784304Y-82652468D01*
X132890317Y-82551043D01*
X132893464Y-82470169D01*
X132793316Y-82435746D01*
X132787896Y-82435700D01*
X132695828Y-82490595D01*
X132634888Y-82620864D01*
X132626100Y-82696358D01*
X132670690Y-82708631D01*
X132670690Y-83168899D01*
X132666439Y-83168516D01*
X132523281Y-83061266D01*
X132443113Y-82878530D01*
X132435600Y-82791651D01*
X132476206Y-82553919D01*
G36*
X132478097Y-85995156D02*
G01*
X132587790Y-85836448D01*
X132737983Y-85754030D01*
X132901978Y-85764103D01*
X133029008Y-85853826D01*
X133105103Y-86010726D01*
X133132495Y-86222310D01*
X133110778Y-86432430D01*
X133039548Y-86584942D01*
X133034314Y-86590415D01*
X132874050Y-86679895D01*
X132816600Y-86674482D01*
X132816600Y-86499700D01*
X132922728Y-86454799D01*
X132943600Y-86372700D01*
X132922283Y-86269439D01*
X132892800Y-86245700D01*
X132801127Y-86291443D01*
X132713994Y-86386467D01*
X132689600Y-86448901D01*
X132742890Y-86490205D01*
X132816600Y-86499700D01*
X132816600Y-86674482D01*
X132707043Y-86664159D01*
X132675803Y-86642021D01*
X132675803Y-86209673D01*
X132779857Y-86137540D01*
X132871092Y-86033722D01*
X132868472Y-85954598D01*
X132781725Y-85933888D01*
X132725618Y-85949526D01*
X132644258Y-86036942D01*
X132626100Y-86119672D01*
X132632970Y-86207008D01*
X132675803Y-86209673D01*
X132675803Y-86642021D01*
X132560561Y-86560351D01*
X132461869Y-86385616D01*
X132435600Y-86213950D01*
X132478097Y-85995156D01*
X132478097Y-85995156D01*
G37*
X132478097Y-85995156D02*
X132587790Y-85836448D01*
X132737983Y-85754030D01*
X132901978Y-85764103D01*
X133029008Y-85853826D01*
X133105103Y-86010726D01*
X133132495Y-86222310D01*
X133110778Y-86432430D01*
X133039548Y-86584942D01*
X133034314Y-86590415D01*
X132874050Y-86679895D01*
X132816600Y-86674482D01*
X132816600Y-86499700D01*
X132922728Y-86454799D01*
X132943600Y-86372700D01*
X132922283Y-86269439D01*
X132892800Y-86245700D01*
X132801127Y-86291443D01*
X132713994Y-86386467D01*
X132689600Y-86448901D01*
X132742890Y-86490205D01*
X132816600Y-86499700D01*
X132816600Y-86674482D01*
X132707043Y-86664159D01*
X132675803Y-86642021D01*
X132675803Y-86209673D01*
X132779857Y-86137540D01*
X132871092Y-86033722D01*
X132868472Y-85954598D01*
X132781725Y-85933888D01*
X132725618Y-85949526D01*
X132644258Y-86036942D01*
X132626100Y-86119672D01*
X132632970Y-86207008D01*
X132675803Y-86209673D01*
X132675803Y-86642021D01*
X132560561Y-86560351D01*
X132461869Y-86385616D01*
X132435600Y-86213950D01*
X132478097Y-85995156D01*
G36*
X133317979Y-83280573D02*
G01*
X133383070Y-83138651D01*
X133465347Y-82994665D01*
X133573889Y-82802108D01*
X133610347Y-82687194D01*
X133581531Y-82628040D01*
X133579816Y-82626953D01*
X133530464Y-82546394D01*
X133540490Y-82509490D01*
X133622904Y-82491234D01*
X133787230Y-82563205D01*
X133802829Y-82572282D01*
X133980566Y-82690151D01*
X134067729Y-82777200D01*
X134053272Y-82821838D01*
X134042722Y-82824013D01*
X133937667Y-82826178D01*
X133896100Y-82823822D01*
X133804831Y-82868299D01*
X133692371Y-82988564D01*
X133657391Y-83038759D01*
X133570084Y-83179051D01*
X133550264Y-83242904D01*
X133596291Y-83260417D01*
X133645263Y-83261200D01*
X133733433Y-83285553D01*
X133737350Y-83324700D01*
X133651213Y-83368997D01*
X133505539Y-83387616D01*
X133365910Y-83376655D01*
X133307828Y-83350262D01*
X133317979Y-83280573D01*
X133317979Y-83280573D01*
G37*
X133317979Y-83280573D02*
X133383070Y-83138651D01*
X133465347Y-82994665D01*
X133573889Y-82802108D01*
X133610347Y-82687194D01*
X133581531Y-82628040D01*
X133579816Y-82626953D01*
X133530464Y-82546394D01*
X133540490Y-82509490D01*
X133622904Y-82491234D01*
X133787230Y-82563205D01*
X133802829Y-82572282D01*
X133980566Y-82690151D01*
X134067729Y-82777200D01*
X134053272Y-82821838D01*
X134042722Y-82824013D01*
X133937667Y-82826178D01*
X133896100Y-82823822D01*
X133804831Y-82868299D01*
X133692371Y-82988564D01*
X133657391Y-83038759D01*
X133570084Y-83179051D01*
X133550264Y-83242904D01*
X133596291Y-83260417D01*
X133645263Y-83261200D01*
X133733433Y-83285553D01*
X133737350Y-83324700D01*
X133651213Y-83368997D01*
X133505539Y-83387616D01*
X133365910Y-83376655D01*
X133307828Y-83350262D01*
X133317979Y-83280573D01*
G36*
X133234252Y-85783118D02*
G01*
X133317723Y-85662646D01*
X133408286Y-85569095D01*
X133452523Y-85547200D01*
X133514263Y-85597544D01*
X133610662Y-85726624D01*
X133678375Y-85834944D01*
X133793428Y-86008914D01*
X133884622Y-86084632D01*
X133966802Y-86084665D01*
X134070836Y-86074473D01*
X134089078Y-86124541D01*
X134032213Y-86212542D01*
X133910927Y-86316147D01*
X133832600Y-86365071D01*
X133669950Y-86445887D01*
X133591930Y-86454108D01*
X133578600Y-86421214D01*
X133619745Y-86298093D01*
X133639296Y-86273904D01*
X133649645Y-86177462D01*
X133572086Y-86011398D01*
X133563245Y-85997231D01*
X133474094Y-85880210D01*
X133412808Y-85843147D01*
X133402007Y-85854727D01*
X133339799Y-85913364D01*
X133249806Y-85926363D01*
X133198117Y-85885931D01*
X133197600Y-85878830D01*
X133234252Y-85783118D01*
X133234252Y-85783118D01*
G37*
X133234252Y-85783118D02*
X133317723Y-85662646D01*
X133408286Y-85569095D01*
X133452523Y-85547200D01*
X133514263Y-85597544D01*
X133610662Y-85726624D01*
X133678375Y-85834944D01*
X133793428Y-86008914D01*
X133884622Y-86084632D01*
X133966802Y-86084665D01*
X134070836Y-86074473D01*
X134089078Y-86124541D01*
X134032213Y-86212542D01*
X133910927Y-86316147D01*
X133832600Y-86365071D01*
X133669950Y-86445887D01*
X133591930Y-86454108D01*
X133578600Y-86421214D01*
X133619745Y-86298093D01*
X133639296Y-86273904D01*
X133649645Y-86177462D01*
X133572086Y-86011398D01*
X133563245Y-85997231D01*
X133474094Y-85880210D01*
X133412808Y-85843147D01*
X133402007Y-85854727D01*
X133339799Y-85913364D01*
X133249806Y-85926363D01*
X133198117Y-85885931D01*
X133197600Y-85878830D01*
X133234252Y-85783118D01*
G36*
X130686473Y-59621925D02*
G01*
X130780233Y-59291427D01*
X130951136Y-59009147D01*
X131057693Y-58887511D01*
X131335772Y-58650248D01*
X131649833Y-58494784D01*
X132032718Y-58407348D01*
X132255774Y-58385141D01*
X132753100Y-58351053D01*
X132753100Y-61163200D01*
X132927725Y-61161806D01*
X133142502Y-61122427D01*
X133390751Y-61025044D01*
X133612938Y-60896521D01*
X133719053Y-60804720D01*
X133894696Y-60517902D01*
X133996188Y-60152021D01*
X134021515Y-59732537D01*
X133968664Y-59284909D01*
X133868000Y-58921550D01*
X133715579Y-58489650D01*
X134012214Y-58508800D01*
X134308850Y-58527950D01*
X134424064Y-58875468D01*
X134511984Y-59234762D01*
X134560843Y-59637896D01*
X134568706Y-60039208D01*
X134533640Y-60393040D01*
X134495085Y-60551700D01*
X134289314Y-61009303D01*
X133995380Y-61375798D01*
X133614058Y-61650328D01*
X133419850Y-61741337D01*
X133272106Y-61775912D01*
X133037863Y-61803127D01*
X132757577Y-61818912D01*
X132626100Y-61821207D01*
X132305815Y-61816412D01*
X132245100Y-61810763D01*
X132245100Y-61178013D01*
X132245100Y-60091107D01*
X132244633Y-59696593D01*
X132241726Y-59411359D01*
X132234117Y-59217686D01*
X132219545Y-59097854D01*
X132195749Y-59034143D01*
X132160467Y-59008834D01*
X132111439Y-59004208D01*
X132106398Y-59004200D01*
X131965893Y-59031371D01*
X131775419Y-59099772D01*
X131697465Y-59135017D01*
X131436696Y-59324989D01*
X131263038Y-59584135D01*
X131178664Y-59887212D01*
X131185746Y-60208980D01*
X131286457Y-60524196D01*
X131482969Y-60807617D01*
X131548041Y-60871198D01*
X131704243Y-60999973D01*
X131831452Y-61083243D01*
X131880157Y-61100568D01*
X132002492Y-61116949D01*
X132102225Y-61139724D01*
X132245100Y-61178013D01*
X132245100Y-61810763D01*
X132070775Y-61794540D01*
X131879685Y-61749291D01*
X131705350Y-61680768D01*
X131290284Y-61432784D01*
X130977953Y-61110553D01*
X130770160Y-60716908D01*
X130668705Y-60254683D01*
X130658220Y-60034036D01*
X130686473Y-59621925D01*
X130686473Y-59621925D01*
G37*
X130686473Y-59621925D02*
X130780233Y-59291427D01*
X130951136Y-59009147D01*
X131057693Y-58887511D01*
X131335772Y-58650248D01*
X131649833Y-58494784D01*
X132032718Y-58407348D01*
X132255774Y-58385141D01*
X132753100Y-58351053D01*
X132753100Y-61163200D01*
X132927725Y-61161806D01*
X133142502Y-61122427D01*
X133390751Y-61025044D01*
X133612938Y-60896521D01*
X133719053Y-60804720D01*
X133894696Y-60517902D01*
X133996188Y-60152021D01*
X134021515Y-59732537D01*
X133968664Y-59284909D01*
X133868000Y-58921550D01*
X133715579Y-58489650D01*
X134012214Y-58508800D01*
X134308850Y-58527950D01*
X134424064Y-58875468D01*
X134511984Y-59234762D01*
X134560843Y-59637896D01*
X134568706Y-60039208D01*
X134533640Y-60393040D01*
X134495085Y-60551700D01*
X134289314Y-61009303D01*
X133995380Y-61375798D01*
X133614058Y-61650328D01*
X133419850Y-61741337D01*
X133272106Y-61775912D01*
X133037863Y-61803127D01*
X132757577Y-61818912D01*
X132626100Y-61821207D01*
X132305815Y-61816412D01*
X132245100Y-61810763D01*
X132245100Y-61178013D01*
X132245100Y-60091107D01*
X132244633Y-59696593D01*
X132241726Y-59411359D01*
X132234117Y-59217686D01*
X132219545Y-59097854D01*
X132195749Y-59034143D01*
X132160467Y-59008834D01*
X132111439Y-59004208D01*
X132106398Y-59004200D01*
X131965893Y-59031371D01*
X131775419Y-59099772D01*
X131697465Y-59135017D01*
X131436696Y-59324989D01*
X131263038Y-59584135D01*
X131178664Y-59887212D01*
X131185746Y-60208980D01*
X131286457Y-60524196D01*
X131482969Y-60807617D01*
X131548041Y-60871198D01*
X131704243Y-60999973D01*
X131831452Y-61083243D01*
X131880157Y-61100568D01*
X132002492Y-61116949D01*
X132102225Y-61139724D01*
X132245100Y-61178013D01*
X132245100Y-61810763D01*
X132070775Y-61794540D01*
X131879685Y-61749291D01*
X131705350Y-61680768D01*
X131290284Y-61432784D01*
X130977953Y-61110553D01*
X130770160Y-60716908D01*
X130668705Y-60254683D01*
X130658220Y-60034036D01*
X130686473Y-59621925D01*
G36*
X131943475Y-68719346D02*
G01*
X132342005Y-68715832D01*
X132712150Y-68706274D01*
X133029175Y-68691798D01*
X133268345Y-68673530D01*
X133403870Y-68652890D01*
X133701836Y-68527849D01*
X133894315Y-68340973D01*
X133993093Y-68079175D01*
X134006232Y-67983901D01*
X133989761Y-67612060D01*
X133861398Y-67298937D01*
X133618888Y-67039148D01*
X133606332Y-67029446D01*
X133366589Y-66846450D01*
X132043844Y-66825978D01*
X130721100Y-66805505D01*
X130721100Y-66179700D01*
X134467600Y-66179700D01*
X134467600Y-66814700D01*
X133979264Y-66814700D01*
X134209929Y-67057180D01*
X134445932Y-67392653D01*
X134569511Y-67773674D01*
X134576362Y-68179164D01*
X134501975Y-68487596D01*
X134332952Y-68806211D01*
X134072213Y-69052113D01*
X133832600Y-69187220D01*
X133727421Y-69231223D01*
X133613150Y-69265001D01*
X133470790Y-69290300D01*
X133281344Y-69308869D01*
X133025814Y-69322454D01*
X132685203Y-69332803D01*
X132240514Y-69341663D01*
X132133975Y-69343467D01*
X130721100Y-69366947D01*
X130721100Y-68719700D01*
X131943475Y-68719346D01*
X131943475Y-68719346D01*
G37*
X131943475Y-68719346D02*
X132342005Y-68715832D01*
X132712150Y-68706274D01*
X133029175Y-68691798D01*
X133268345Y-68673530D01*
X133403870Y-68652890D01*
X133701836Y-68527849D01*
X133894315Y-68340973D01*
X133993093Y-68079175D01*
X134006232Y-67983901D01*
X133989761Y-67612060D01*
X133861398Y-67298937D01*
X133618888Y-67039148D01*
X133606332Y-67029446D01*
X133366589Y-66846450D01*
X132043844Y-66825978D01*
X130721100Y-66805505D01*
X130721100Y-66179700D01*
X134467600Y-66179700D01*
X134467600Y-66814700D01*
X133979264Y-66814700D01*
X134209929Y-67057180D01*
X134445932Y-67392653D01*
X134569511Y-67773674D01*
X134576362Y-68179164D01*
X134501975Y-68487596D01*
X134332952Y-68806211D01*
X134072213Y-69052113D01*
X133832600Y-69187220D01*
X133727421Y-69231223D01*
X133613150Y-69265001D01*
X133470790Y-69290300D01*
X133281344Y-69308869D01*
X133025814Y-69322454D01*
X132685203Y-69332803D01*
X132240514Y-69341663D01*
X132133975Y-69343467D01*
X130721100Y-69366947D01*
X130721100Y-68719700D01*
X131943475Y-68719346D01*
G36*
X130675589Y-71322268D02*
G01*
X130736609Y-71026254D01*
X130855752Y-70778646D01*
X131047135Y-70541929D01*
X131125903Y-70462389D01*
X131359653Y-70257368D01*
X131580235Y-70125223D01*
X131838329Y-70033764D01*
X132341097Y-69941711D01*
X132842458Y-69940189D01*
X133317169Y-70024432D01*
X133739987Y-70189675D01*
X134085669Y-70431154D01*
X134120254Y-70464513D01*
X134375218Y-70806107D01*
X134533740Y-71211833D01*
X134589438Y-71656278D01*
X134535931Y-72114030D01*
X134535223Y-72116950D01*
X134377178Y-72512937D01*
X134119745Y-72844527D01*
X133777085Y-73104211D01*
X133363354Y-73284480D01*
X132892713Y-73377826D01*
X132539907Y-73377080D01*
X132539907Y-72711714D01*
X132950154Y-72687232D01*
X133321317Y-72595808D01*
X133630036Y-72444266D01*
X133852947Y-72239433D01*
X133917139Y-72135578D01*
X134007818Y-71837066D01*
X134012988Y-71518246D01*
X133934458Y-71228304D01*
X133880225Y-71131740D01*
X133674050Y-70907939D01*
X133399327Y-70754675D01*
X133038577Y-70664574D01*
X132700484Y-70633987D01*
X132256945Y-70642412D01*
X131905359Y-70714922D01*
X131624323Y-70858339D01*
X131425691Y-71040215D01*
X131242206Y-71330300D01*
X131174003Y-71633018D01*
X131213237Y-71929875D01*
X131352062Y-72202382D01*
X131582634Y-72432046D01*
X131897108Y-72600376D01*
X132113938Y-72662428D01*
X132539907Y-72711714D01*
X132539907Y-73377080D01*
X132379320Y-73376740D01*
X132202094Y-73354247D01*
X131696929Y-73226838D01*
X131289693Y-73020465D01*
X130981980Y-72736833D01*
X130775384Y-72377646D01*
X130671501Y-71944607D01*
X130658574Y-71704200D01*
X130675589Y-71322268D01*
X130675589Y-71322268D01*
G37*
X130675589Y-71322268D02*
X130736609Y-71026254D01*
X130855752Y-70778646D01*
X131047135Y-70541929D01*
X131125903Y-70462389D01*
X131359653Y-70257368D01*
X131580235Y-70125223D01*
X131838329Y-70033764D01*
X132341097Y-69941711D01*
X132842458Y-69940189D01*
X133317169Y-70024432D01*
X133739987Y-70189675D01*
X134085669Y-70431154D01*
X134120254Y-70464513D01*
X134375218Y-70806107D01*
X134533740Y-71211833D01*
X134589438Y-71656278D01*
X134535931Y-72114030D01*
X134535223Y-72116950D01*
X134377178Y-72512937D01*
X134119745Y-72844527D01*
X133777085Y-73104211D01*
X133363354Y-73284480D01*
X132892713Y-73377826D01*
X132539907Y-73377080D01*
X132539907Y-72711714D01*
X132950154Y-72687232D01*
X133321317Y-72595808D01*
X133630036Y-72444266D01*
X133852947Y-72239433D01*
X133917139Y-72135578D01*
X134007818Y-71837066D01*
X134012988Y-71518246D01*
X133934458Y-71228304D01*
X133880225Y-71131740D01*
X133674050Y-70907939D01*
X133399327Y-70754675D01*
X133038577Y-70664574D01*
X132700484Y-70633987D01*
X132256945Y-70642412D01*
X131905359Y-70714922D01*
X131624323Y-70858339D01*
X131425691Y-71040215D01*
X131242206Y-71330300D01*
X131174003Y-71633018D01*
X131213237Y-71929875D01*
X131352062Y-72202382D01*
X131582634Y-72432046D01*
X131897108Y-72600376D01*
X132113938Y-72662428D01*
X132539907Y-72711714D01*
X132539907Y-73377080D01*
X132379320Y-73376740D01*
X132202094Y-73354247D01*
X131696929Y-73226838D01*
X131289693Y-73020465D01*
X130981980Y-72736833D01*
X130775384Y-72377646D01*
X130671501Y-71944607D01*
X130658574Y-71704200D01*
X130675589Y-71322268D01*
G36*
X133732002Y-83595549D02*
G01*
X133826936Y-83465566D01*
X133998235Y-83348558D01*
X134196310Y-83273758D01*
X134299171Y-83261200D01*
X134476598Y-83316325D01*
X134598713Y-83455386D01*
X134640210Y-83638915D01*
X134615599Y-83754662D01*
X134523258Y-83854383D01*
X134405718Y-83920307D01*
X134405718Y-83671094D01*
X134457709Y-83664835D01*
X134467592Y-83586218D01*
X134467600Y-83580331D01*
X134438366Y-83486363D01*
X134328721Y-83453144D01*
X134277100Y-83451700D01*
X134143234Y-83460442D01*
X134086610Y-83481497D01*
X134086600Y-83481820D01*
X134136808Y-83528106D01*
X134259455Y-83601197D01*
X134277100Y-83610450D01*
X134405718Y-83671094D01*
X134405718Y-83920307D01*
X134356436Y-83947948D01*
X134166291Y-84010654D01*
X134086600Y-84020013D01*
X134086600Y-83832700D01*
X134220465Y-83823959D01*
X134277089Y-83802904D01*
X134277100Y-83802581D01*
X134226891Y-83756295D01*
X134104244Y-83683204D01*
X134086600Y-83673950D01*
X133957981Y-83613307D01*
X133905990Y-83619566D01*
X133896107Y-83698183D01*
X133896100Y-83704070D01*
X133925333Y-83798038D01*
X134034978Y-83831257D01*
X134086600Y-83832700D01*
X134086600Y-84020013D01*
X134059467Y-84023200D01*
X133902819Y-83969340D01*
X133778919Y-83838355D01*
X133722909Y-83676139D01*
X133732002Y-83595549D01*
X133732002Y-83595549D01*
G37*
X133732002Y-83595549D02*
X133826936Y-83465566D01*
X133998235Y-83348558D01*
X134196310Y-83273758D01*
X134299171Y-83261200D01*
X134476598Y-83316325D01*
X134598713Y-83455386D01*
X134640210Y-83638915D01*
X134615599Y-83754662D01*
X134523258Y-83854383D01*
X134405718Y-83920307D01*
X134405718Y-83671094D01*
X134457709Y-83664835D01*
X134467592Y-83586218D01*
X134467600Y-83580331D01*
X134438366Y-83486363D01*
X134328721Y-83453144D01*
X134277100Y-83451700D01*
X134143234Y-83460442D01*
X134086610Y-83481497D01*
X134086600Y-83481820D01*
X134136808Y-83528106D01*
X134259455Y-83601197D01*
X134277100Y-83610450D01*
X134405718Y-83671094D01*
X134405718Y-83920307D01*
X134356436Y-83947948D01*
X134166291Y-84010654D01*
X134086600Y-84020013D01*
X134086600Y-83832700D01*
X134220465Y-83823959D01*
X134277089Y-83802904D01*
X134277100Y-83802581D01*
X134226891Y-83756295D01*
X134104244Y-83683204D01*
X134086600Y-83673950D01*
X133957981Y-83613307D01*
X133905990Y-83619566D01*
X133896107Y-83698183D01*
X133896100Y-83704070D01*
X133925333Y-83798038D01*
X134034978Y-83831257D01*
X134086600Y-83832700D01*
X134086600Y-84020013D01*
X134059467Y-84023200D01*
X133902819Y-83969340D01*
X133778919Y-83838355D01*
X133722909Y-83676139D01*
X133732002Y-83595549D01*
G36*
X133765965Y-85123255D02*
G01*
X133801827Y-85060546D01*
X133893592Y-84952750D01*
X134006464Y-84920973D01*
X134140468Y-84934511D01*
X134366553Y-85017471D01*
X134515225Y-85135848D01*
X134617538Y-85263594D01*
X134646520Y-85357022D01*
X134614559Y-85475525D01*
X134595873Y-85522534D01*
X134484115Y-85657289D01*
X134367185Y-85676871D01*
X134367185Y-85517731D01*
X134437380Y-85488293D01*
X134467600Y-85397403D01*
X134426412Y-85286282D01*
X134391400Y-85242400D01*
X134290517Y-85172086D01*
X134240121Y-85194684D01*
X134247342Y-85261450D01*
X134294388Y-85411466D01*
X134308401Y-85455975D01*
X134367185Y-85517731D01*
X134367185Y-85676871D01*
X134300750Y-85687997D01*
X134128959Y-85638116D01*
X134128959Y-85467384D01*
X134142054Y-85431882D01*
X134127978Y-85390644D01*
X134091353Y-85246924D01*
X134086600Y-85192757D01*
X134035657Y-85113104D01*
X133991350Y-85102700D01*
X133912082Y-85146409D01*
X133901995Y-85247366D01*
X133955285Y-85360320D01*
X134032728Y-85425354D01*
X134128959Y-85467384D01*
X134128959Y-85638116D01*
X134047338Y-85614416D01*
X134035202Y-85609047D01*
X133821443Y-85472510D01*
X133731565Y-85310268D01*
X133765965Y-85123255D01*
X133765965Y-85123255D01*
G37*
X133765965Y-85123255D02*
X133801827Y-85060546D01*
X133893592Y-84952750D01*
X134006464Y-84920973D01*
X134140468Y-84934511D01*
X134366553Y-85017471D01*
X134515225Y-85135848D01*
X134617538Y-85263594D01*
X134646520Y-85357022D01*
X134614559Y-85475525D01*
X134595873Y-85522534D01*
X134484115Y-85657289D01*
X134367185Y-85676871D01*
X134367185Y-85517731D01*
X134437380Y-85488293D01*
X134467600Y-85397403D01*
X134426412Y-85286282D01*
X134391400Y-85242400D01*
X134290517Y-85172086D01*
X134240121Y-85194684D01*
X134247342Y-85261450D01*
X134294388Y-85411466D01*
X134308401Y-85455975D01*
X134367185Y-85517731D01*
X134367185Y-85676871D01*
X134300750Y-85687997D01*
X134128959Y-85638116D01*
X134128959Y-85467384D01*
X134142054Y-85431882D01*
X134127978Y-85390644D01*
X134091353Y-85246924D01*
X134086600Y-85192757D01*
X134035657Y-85113104D01*
X133991350Y-85102700D01*
X133912082Y-85146409D01*
X133901995Y-85247366D01*
X133955285Y-85360320D01*
X134032728Y-85425354D01*
X134128959Y-85467384D01*
X134128959Y-85638116D01*
X134047338Y-85614416D01*
X134035202Y-85609047D01*
X133821443Y-85472510D01*
X133731565Y-85310268D01*
X133765965Y-85123255D01*
G36*
X130832734Y-79980601D02*
G01*
X130958539Y-79895604D01*
X131104741Y-79809010D01*
X131322810Y-79680146D01*
X131453890Y-79609445D01*
X131520120Y-79590114D01*
X131543643Y-79615360D01*
X131546600Y-79673450D01*
X131560916Y-79702942D01*
X131613078Y-79725776D01*
X131716908Y-79742766D01*
X131886227Y-79754725D01*
X132134854Y-79762466D01*
X132476612Y-79766802D01*
X132925320Y-79768545D01*
X133165850Y-79768700D01*
X134785100Y-79768700D01*
X134785100Y-80340200D01*
X133165850Y-80340200D01*
X132665867Y-80340982D01*
X132278908Y-80343890D01*
X131991004Y-80349769D01*
X131788183Y-80359464D01*
X131656477Y-80373820D01*
X131581914Y-80393682D01*
X131550527Y-80419894D01*
X131546600Y-80438127D01*
X131524629Y-80482851D01*
X131444536Y-80467166D01*
X131285044Y-80385773D01*
X131244975Y-80362996D01*
X130993917Y-80218850D01*
X130845084Y-80121130D01*
X130793136Y-80048745D01*
X130832734Y-79980601D01*
X130832734Y-79980601D01*
G37*
X130832734Y-79980601D02*
X130958539Y-79895604D01*
X131104741Y-79809010D01*
X131322810Y-79680146D01*
X131453890Y-79609445D01*
X131520120Y-79590114D01*
X131543643Y-79615360D01*
X131546600Y-79673450D01*
X131560916Y-79702942D01*
X131613078Y-79725776D01*
X131716908Y-79742766D01*
X131886227Y-79754725D01*
X132134854Y-79762466D01*
X132476612Y-79766802D01*
X132925320Y-79768545D01*
X133165850Y-79768700D01*
X134785100Y-79768700D01*
X134785100Y-80340200D01*
X133165850Y-80340200D01*
X132665867Y-80340982D01*
X132278908Y-80343890D01*
X131991004Y-80349769D01*
X131788183Y-80359464D01*
X131656477Y-80373820D01*
X131581914Y-80393682D01*
X131550527Y-80419894D01*
X131546600Y-80438127D01*
X131524629Y-80482851D01*
X131444536Y-80467166D01*
X131285044Y-80385773D01*
X131244975Y-80362996D01*
X130993917Y-80218850D01*
X130845084Y-80121130D01*
X130793136Y-80048745D01*
X130832734Y-79980601D01*
G36*
X133910455Y-84404835D02*
G01*
X134023550Y-84355541D01*
X134247228Y-84340806D01*
X134277100Y-84340700D01*
X134498329Y-84333385D01*
X134617106Y-84307454D01*
X134657348Y-84256927D01*
X134658100Y-84245450D01*
X134692388Y-84160947D01*
X134721600Y-84150200D01*
X134757823Y-84207311D01*
X134780814Y-84353332D01*
X134785100Y-84467700D01*
X134773677Y-84648816D01*
X134744473Y-84763774D01*
X134721600Y-84785200D01*
X134670007Y-84732016D01*
X134658100Y-84658200D01*
X134638971Y-84578184D01*
X134559906Y-84540774D01*
X134388388Y-84531213D01*
X134378294Y-84531200D01*
X134206296Y-84537765D01*
X134131969Y-84567437D01*
X134126246Y-84635188D01*
X134131700Y-84658200D01*
X134129837Y-84761713D01*
X134070139Y-84777080D01*
X133987012Y-84703457D01*
X133961834Y-84662375D01*
X133894397Y-84502506D01*
X133910455Y-84404835D01*
X133910455Y-84404835D01*
G37*
X133910455Y-84404835D02*
X134023550Y-84355541D01*
X134247228Y-84340806D01*
X134277100Y-84340700D01*
X134498329Y-84333385D01*
X134617106Y-84307454D01*
X134657348Y-84256927D01*
X134658100Y-84245450D01*
X134692388Y-84160947D01*
X134721600Y-84150200D01*
X134757823Y-84207311D01*
X134780814Y-84353332D01*
X134785100Y-84467700D01*
X134773677Y-84648816D01*
X134744473Y-84763774D01*
X134721600Y-84785200D01*
X134670007Y-84732016D01*
X134658100Y-84658200D01*
X134638971Y-84578184D01*
X134559906Y-84540774D01*
X134388388Y-84531213D01*
X134378294Y-84531200D01*
X134206296Y-84537765D01*
X134131969Y-84567437D01*
X134126246Y-84635188D01*
X134131700Y-84658200D01*
X134129837Y-84761713D01*
X134070139Y-84777080D01*
X133987012Y-84703457D01*
X133961834Y-84662375D01*
X133894397Y-84502506D01*
X133910455Y-84404835D01*
G36*
X129018796Y-75336154D02*
G01*
X129074011Y-75245262D01*
X129194952Y-75187934D01*
X129325987Y-75115884D01*
X129413968Y-74986757D01*
X129470562Y-74826112D01*
X129518825Y-74641080D01*
X129521541Y-74528135D01*
X129475084Y-74439484D01*
X129437914Y-74395616D01*
X129365260Y-74302422D01*
X129352491Y-74218933D01*
X129398571Y-74093298D01*
X129430497Y-74025392D01*
X129513217Y-73875720D01*
X129593860Y-73817718D01*
X129713994Y-73823792D01*
X129729635Y-73826833D01*
X129932811Y-73819373D01*
X130033332Y-73758238D01*
X130127795Y-73687465D01*
X130168929Y-73678381D01*
X130215594Y-73737115D01*
X130320293Y-73866288D01*
X130460525Y-74038142D01*
X130462989Y-74041154D01*
X130738499Y-74377857D01*
X130560466Y-74729733D01*
X130413402Y-75145132D01*
X130381069Y-75558299D01*
X130453150Y-75952213D01*
X130619330Y-76309851D01*
X130869295Y-76614191D01*
X131192729Y-76848210D01*
X131579317Y-76994887D01*
X131959349Y-77038200D01*
X132406543Y-76980704D01*
X132795940Y-76813105D01*
X133118090Y-76542739D01*
X133363544Y-76176940D01*
X133489954Y-75850130D01*
X133545816Y-75437835D01*
X133482666Y-75023060D01*
X133304931Y-74633188D01*
X133289278Y-74608998D01*
X133131864Y-74370545D01*
X133408173Y-73958666D01*
X133684481Y-73546786D01*
X133837636Y-73709812D01*
X133984408Y-73825615D01*
X134135903Y-73843158D01*
X134160923Y-73838811D01*
X134281900Y-73834218D01*
X134374101Y-73897351D01*
X134466716Y-74034714D01*
X134548928Y-74182827D01*
X134567363Y-74269438D01*
X134524099Y-74341634D01*
X134482175Y-74384847D01*
X134412066Y-74472459D01*
X134392936Y-74571994D01*
X134419714Y-74730370D01*
X134437182Y-74801259D01*
X134503567Y-74999793D01*
X134594519Y-75115053D01*
X134712246Y-75179016D01*
X134844416Y-75249561D01*
X134900787Y-75347900D01*
X134912100Y-75509458D01*
X134900396Y-75676297D01*
X134843799Y-75765301D01*
X134710080Y-75825003D01*
X134700424Y-75828210D01*
X134570079Y-75885763D01*
X134491040Y-75975471D01*
X134434683Y-76136808D01*
X134413565Y-76223784D01*
X134373990Y-76426270D01*
X134374991Y-76549975D01*
X134418891Y-76637221D01*
X134437464Y-76658984D01*
X134495677Y-76741972D01*
X134495830Y-76832151D01*
X134436238Y-76978693D01*
X134425749Y-77000814D01*
X134343773Y-77148696D01*
X134263635Y-77204507D01*
X134143614Y-77195473D01*
X134131472Y-77192859D01*
X133934589Y-77208165D01*
X133757519Y-77321759D01*
X133629212Y-77505258D01*
X133578620Y-77730279D01*
X133578600Y-77734890D01*
X133555934Y-77910070D01*
X133464160Y-78025280D01*
X133381820Y-78079559D01*
X133244722Y-78152332D01*
X133151593Y-78155753D01*
X133038369Y-78087232D01*
X133007357Y-78064431D01*
X132795664Y-77964462D01*
X132589851Y-77961500D01*
X132422318Y-78048861D01*
X132329573Y-78204226D01*
X132276051Y-78335760D01*
X132185941Y-78397932D01*
X132018132Y-78422332D01*
X131848367Y-78424180D01*
X131750668Y-78376248D01*
X131671580Y-78248066D01*
X131656071Y-78215957D01*
X131545843Y-78048653D01*
X131419038Y-77990270D01*
X131404752Y-77989728D01*
X131248357Y-77964585D01*
X131171139Y-77931968D01*
X131047489Y-77925678D01*
X130902784Y-78007258D01*
X130780683Y-78089266D01*
X130688844Y-78104254D01*
X130567210Y-78054449D01*
X130506196Y-78021966D01*
X130363504Y-77929752D01*
X130310885Y-77833946D01*
X130315933Y-77709523D01*
X130290218Y-77503148D01*
X130175965Y-77317989D01*
X130005090Y-77187844D01*
X129809503Y-77146507D01*
X129786639Y-77149008D01*
X129639591Y-77147730D01*
X129527674Y-77072400D01*
X129456525Y-76982321D01*
X129317829Y-76787539D01*
X129445339Y-76611245D01*
X129522779Y-76482601D01*
X129540025Y-76360628D01*
X129504321Y-76185202D01*
X129499030Y-76165728D01*
X129430554Y-75980873D01*
X129332129Y-75877927D01*
X129215905Y-75827428D01*
X129079552Y-75768806D01*
X129020191Y-75683281D01*
X129006639Y-75522962D01*
X129006600Y-75505973D01*
X129018796Y-75336154D01*
X129018796Y-75336154D01*
G37*
X129018796Y-75336154D02*
X129074011Y-75245262D01*
X129194952Y-75187934D01*
X129325987Y-75115884D01*
X129413968Y-74986757D01*
X129470562Y-74826112D01*
X129518825Y-74641080D01*
X129521541Y-74528135D01*
X129475084Y-74439484D01*
X129437914Y-74395616D01*
X129365260Y-74302422D01*
X129352491Y-74218933D01*
X129398571Y-74093298D01*
X129430497Y-74025392D01*
X129513217Y-73875720D01*
X129593860Y-73817718D01*
X129713994Y-73823792D01*
X129729635Y-73826833D01*
X129932811Y-73819373D01*
X130033332Y-73758238D01*
X130127795Y-73687465D01*
X130168929Y-73678381D01*
X130215594Y-73737115D01*
X130320293Y-73866288D01*
X130460525Y-74038142D01*
X130462989Y-74041154D01*
X130738499Y-74377857D01*
X130560466Y-74729733D01*
X130413402Y-75145132D01*
X130381069Y-75558299D01*
X130453150Y-75952213D01*
X130619330Y-76309851D01*
X130869295Y-76614191D01*
X131192729Y-76848210D01*
X131579317Y-76994887D01*
X131959349Y-77038200D01*
X132406543Y-76980704D01*
X132795940Y-76813105D01*
X133118090Y-76542739D01*
X133363544Y-76176940D01*
X133489954Y-75850130D01*
X133545816Y-75437835D01*
X133482666Y-75023060D01*
X133304931Y-74633188D01*
X133289278Y-74608998D01*
X133131864Y-74370545D01*
X133408173Y-73958666D01*
X133684481Y-73546786D01*
X133837636Y-73709812D01*
X133984408Y-73825615D01*
X134135903Y-73843158D01*
X134160923Y-73838811D01*
X134281900Y-73834218D01*
X134374101Y-73897351D01*
X134466716Y-74034714D01*
X134548928Y-74182827D01*
X134567363Y-74269438D01*
X134524099Y-74341634D01*
X134482175Y-74384847D01*
X134412066Y-74472459D01*
X134392936Y-74571994D01*
X134419714Y-74730370D01*
X134437182Y-74801259D01*
X134503567Y-74999793D01*
X134594519Y-75115053D01*
X134712246Y-75179016D01*
X134844416Y-75249561D01*
X134900787Y-75347900D01*
X134912100Y-75509458D01*
X134900396Y-75676297D01*
X134843799Y-75765301D01*
X134710080Y-75825003D01*
X134700424Y-75828210D01*
X134570079Y-75885763D01*
X134491040Y-75975471D01*
X134434683Y-76136808D01*
X134413565Y-76223784D01*
X134373990Y-76426270D01*
X134374991Y-76549975D01*
X134418891Y-76637221D01*
X134437464Y-76658984D01*
X134495677Y-76741972D01*
X134495830Y-76832151D01*
X134436238Y-76978693D01*
X134425749Y-77000814D01*
X134343773Y-77148696D01*
X134263635Y-77204507D01*
X134143614Y-77195473D01*
X134131472Y-77192859D01*
X133934589Y-77208165D01*
X133757519Y-77321759D01*
X133629212Y-77505258D01*
X133578620Y-77730279D01*
X133578600Y-77734890D01*
X133555934Y-77910070D01*
X133464160Y-78025280D01*
X133381820Y-78079559D01*
X133244722Y-78152332D01*
X133151593Y-78155753D01*
X133038369Y-78087232D01*
X133007357Y-78064431D01*
X132795664Y-77964462D01*
X132589851Y-77961500D01*
X132422318Y-78048861D01*
X132329573Y-78204226D01*
X132276051Y-78335760D01*
X132185941Y-78397932D01*
X132018132Y-78422332D01*
X131848367Y-78424180D01*
X131750668Y-78376248D01*
X131671580Y-78248066D01*
X131656071Y-78215957D01*
X131545843Y-78048653D01*
X131419038Y-77990270D01*
X131404752Y-77989728D01*
X131248357Y-77964585D01*
X131171139Y-77931968D01*
X131047489Y-77925678D01*
X130902784Y-78007258D01*
X130780683Y-78089266D01*
X130688844Y-78104254D01*
X130567210Y-78054449D01*
X130506196Y-78021966D01*
X130363504Y-77929752D01*
X130310885Y-77833946D01*
X130315933Y-77709523D01*
X130290218Y-77503148D01*
X130175965Y-77317989D01*
X130005090Y-77187844D01*
X129809503Y-77146507D01*
X129786639Y-77149008D01*
X129639591Y-77147730D01*
X129527674Y-77072400D01*
X129456525Y-76982321D01*
X129317829Y-76787539D01*
X129445339Y-76611245D01*
X129522779Y-76482601D01*
X129540025Y-76360628D01*
X129504321Y-76185202D01*
X129499030Y-76165728D01*
X129430554Y-75980873D01*
X129332129Y-75877927D01*
X129215905Y-75827428D01*
X129079552Y-75768806D01*
X129020191Y-75683281D01*
X129006639Y-75522962D01*
X129006600Y-75505973D01*
X129018796Y-75336154D01*
G36*
X130713751Y-63416811D02*
G01*
X130877524Y-63053821D01*
X131154894Y-62742849D01*
X131157232Y-62740845D01*
X131474156Y-62526686D01*
X131846113Y-62387873D01*
X132295125Y-62317887D01*
X132625408Y-62306200D01*
X133186016Y-62349640D01*
X133654202Y-62480032D01*
X134030214Y-62697487D01*
X134314299Y-63002117D01*
X134368583Y-63087795D01*
X134531790Y-63476047D01*
X134582525Y-63874194D01*
X134523009Y-64259467D01*
X134355465Y-64609094D01*
X134202138Y-64794162D01*
X133959600Y-65036700D01*
X135928100Y-65036700D01*
X135928100Y-65671700D01*
X132630118Y-65671700D01*
X132630118Y-65004778D01*
X133018857Y-64971161D01*
X133375922Y-64873176D01*
X133672405Y-64709600D01*
X133769815Y-64623213D01*
X133970638Y-64338239D01*
X134047371Y-64029020D01*
X133999374Y-63701139D01*
X133901151Y-63480950D01*
X133780694Y-63335172D01*
X133599595Y-63186789D01*
X133511853Y-63131700D01*
X133363786Y-63056789D01*
X133219137Y-63009724D01*
X133041881Y-62984274D01*
X132795990Y-62974204D01*
X132594350Y-62972950D01*
X132292786Y-62976123D01*
X132082101Y-62990105D01*
X131926242Y-63021595D01*
X131789156Y-63077289D01*
X131665987Y-63145410D01*
X131386670Y-63368893D01*
X131223600Y-63643229D01*
X131176062Y-63969786D01*
X131183122Y-64068694D01*
X131231111Y-64286926D01*
X131311101Y-64479956D01*
X131336542Y-64520080D01*
X131562915Y-64731679D01*
X131873240Y-64883812D01*
X132238610Y-64975253D01*
X132630118Y-65004778D01*
X132630118Y-65671700D01*
X130721100Y-65671700D01*
X130721100Y-65036700D01*
X131254874Y-65036700D01*
X131023517Y-64798575D01*
X130826665Y-64562076D01*
X130712931Y-64324290D01*
X130664391Y-64038180D01*
X130658994Y-63841942D01*
X130713751Y-63416811D01*
X130713751Y-63416811D01*
G37*
X130713751Y-63416811D02*
X130877524Y-63053821D01*
X131154894Y-62742849D01*
X131157232Y-62740845D01*
X131474156Y-62526686D01*
X131846113Y-62387873D01*
X132295125Y-62317887D01*
X132625408Y-62306200D01*
X133186016Y-62349640D01*
X133654202Y-62480032D01*
X134030214Y-62697487D01*
X134314299Y-63002117D01*
X134368583Y-63087795D01*
X134531790Y-63476047D01*
X134582525Y-63874194D01*
X134523009Y-64259467D01*
X134355465Y-64609094D01*
X134202138Y-64794162D01*
X133959600Y-65036700D01*
X135928100Y-65036700D01*
X135928100Y-65671700D01*
X132630118Y-65671700D01*
X132630118Y-65004778D01*
X133018857Y-64971161D01*
X133375922Y-64873176D01*
X133672405Y-64709600D01*
X133769815Y-64623213D01*
X133970638Y-64338239D01*
X134047371Y-64029020D01*
X133999374Y-63701139D01*
X133901151Y-63480950D01*
X133780694Y-63335172D01*
X133599595Y-63186789D01*
X133511853Y-63131700D01*
X133363786Y-63056789D01*
X133219137Y-63009724D01*
X133041881Y-62984274D01*
X132795990Y-62974204D01*
X132594350Y-62972950D01*
X132292786Y-62976123D01*
X132082101Y-62990105D01*
X131926242Y-63021595D01*
X131789156Y-63077289D01*
X131665987Y-63145410D01*
X131386670Y-63368893D01*
X131223600Y-63643229D01*
X131176062Y-63969786D01*
X131183122Y-64068694D01*
X131231111Y-64286926D01*
X131311101Y-64479956D01*
X131336542Y-64520080D01*
X131562915Y-64731679D01*
X131873240Y-64883812D01*
X132238610Y-64975253D01*
X132630118Y-65004778D01*
X132630118Y-65671700D01*
X130721100Y-65671700D01*
X130721100Y-65036700D01*
X131254874Y-65036700D01*
X131023517Y-64798575D01*
X130826665Y-64562076D01*
X130712931Y-64324290D01*
X130664391Y-64038180D01*
X130658994Y-63841942D01*
X130713751Y-63416811D01*
D11*
X78801240Y-63468680D02*
X78201240Y-63468680D01*
X78501240Y-62868680D02*
X78801240Y-63468680D01*
X78201240Y-63468680D02*
X78501240Y-62868680D01*
X74171240Y-51948680D02*
X74421240Y-50448680D01*
X72671240Y-51948680D02*
X74171240Y-51948680D01*
X72421240Y-50448680D02*
X72671240Y-51948680D01*
X74421240Y-50448680D02*
X72421240Y-50448680D01*
X79251240Y-51948680D02*
X79501240Y-50448680D01*
X77751240Y-51948680D02*
X79251240Y-51948680D01*
X77501240Y-50448680D02*
X77751240Y-51948680D01*
X79501240Y-50448680D02*
X77501240Y-50448680D01*
X69771240Y-51948680D02*
X82151240Y-51948680D01*
X69771240Y-53748680D02*
X69771240Y-51948680D01*
X82151240Y-53748680D02*
X69771240Y-53748680D01*
X82151240Y-51948680D02*
X82151240Y-53748680D01*
X69771240Y-62668680D02*
X82151240Y-62668680D01*
X69771240Y-50448680D02*
X69771240Y-62668680D01*
X82151240Y-50448680D02*
X69771240Y-50448680D01*
X82151240Y-62668680D02*
X82151240Y-50448680D01*
X92014320Y-63468680D02*
X91414320Y-63468680D01*
X91714320Y-62868680D02*
X92014320Y-63468680D01*
X91414320Y-63468680D02*
X91714320Y-62868680D01*
X87384320Y-51948680D02*
X87634320Y-50448680D01*
X85884320Y-51948680D02*
X87384320Y-51948680D01*
X85634320Y-50448680D02*
X85884320Y-51948680D01*
X87634320Y-50448680D02*
X85634320Y-50448680D01*
X92464320Y-51948680D02*
X92714320Y-50448680D01*
X90964320Y-51948680D02*
X92464320Y-51948680D01*
X90714320Y-50448680D02*
X90964320Y-51948680D01*
X92714320Y-50448680D02*
X90714320Y-50448680D01*
X82984320Y-51948680D02*
X95364320Y-51948680D01*
X82984320Y-53748680D02*
X82984320Y-51948680D01*
X95364320Y-53748680D02*
X82984320Y-53748680D01*
X95364320Y-51948680D02*
X95364320Y-53748680D01*
X82984320Y-62668680D02*
X95364320Y-62668680D01*
X82984320Y-50448680D02*
X82984320Y-62668680D01*
X95364320Y-50448680D02*
X82984320Y-50448680D01*
X95364320Y-62668680D02*
X95364320Y-50448680D01*
X105227400Y-63468680D02*
X104627400Y-63468680D01*
X104927400Y-62868680D02*
X105227400Y-63468680D01*
X104627400Y-63468680D02*
X104927400Y-62868680D01*
X100597400Y-51948680D02*
X100847400Y-50448680D01*
X99097400Y-51948680D02*
X100597400Y-51948680D01*
X98847400Y-50448680D02*
X99097400Y-51948680D01*
X100847400Y-50448680D02*
X98847400Y-50448680D01*
X105677400Y-51948680D02*
X105927400Y-50448680D01*
X104177400Y-51948680D02*
X105677400Y-51948680D01*
X103927400Y-50448680D02*
X104177400Y-51948680D01*
X105927400Y-50448680D02*
X103927400Y-50448680D01*
X96197400Y-51948680D02*
X108577400Y-51948680D01*
X96197400Y-53748680D02*
X96197400Y-51948680D01*
X108577400Y-53748680D02*
X96197400Y-53748680D01*
X108577400Y-51948680D02*
X108577400Y-53748680D01*
X96197400Y-62668680D02*
X108577400Y-62668680D01*
X96197400Y-50448680D02*
X96197400Y-62668680D01*
X108577400Y-50448680D02*
X96197400Y-50448680D01*
X108577400Y-62668680D02*
X108577400Y-50448680D01*
X118430320Y-63468680D02*
X117830320Y-63468680D01*
X118130320Y-62868680D02*
X118430320Y-63468680D01*
X117830320Y-63468680D02*
X118130320Y-62868680D01*
X113800320Y-51948680D02*
X114050320Y-50448680D01*
X112300320Y-51948680D02*
X113800320Y-51948680D01*
X112050320Y-50448680D02*
X112300320Y-51948680D01*
X114050320Y-50448680D02*
X112050320Y-50448680D01*
X118880320Y-51948680D02*
X119130320Y-50448680D01*
X117380320Y-51948680D02*
X118880320Y-51948680D01*
X117130320Y-50448680D02*
X117380320Y-51948680D01*
X119130320Y-50448680D02*
X117130320Y-50448680D01*
X109400320Y-51948680D02*
X121780320Y-51948680D01*
X109400320Y-53748680D02*
X109400320Y-51948680D01*
X121780320Y-53748680D02*
X109400320Y-53748680D01*
X121780320Y-51948680D02*
X121780320Y-53748680D01*
X109400320Y-62668680D02*
X121780320Y-62668680D01*
X109400320Y-50448680D02*
X109400320Y-62668680D01*
X121780320Y-50448680D02*
X109400320Y-50448680D01*
X121780320Y-62668680D02*
X121780320Y-50448680D01*
X61134300Y-61117200D02*
X61134300Y-61717200D01*
X60534300Y-61417200D02*
X61134300Y-61117200D01*
X61134300Y-61717200D02*
X60534300Y-61417200D01*
X53734300Y-58857200D02*
X53734300Y-67477200D01*
X59844300Y-62467200D02*
X59844300Y-63867200D01*
X59844300Y-67477200D02*
X59844300Y-65967200D01*
X59844300Y-58857200D02*
X59844300Y-60367200D01*
X50424300Y-67477200D02*
X59844300Y-67477200D01*
X50424300Y-58857200D02*
X50424300Y-67477200D01*
X59844300Y-58857200D02*
X50424300Y-58857200D01*
X84239200Y-70482400D02*
X83239200Y-70482400D01*
X83739200Y-69982400D02*
X83739200Y-70982400D01*
X78033637Y-71222400D02*
X76969200Y-72286837D01*
X84424763Y-71222400D02*
X85489200Y-72286837D01*
X84424763Y-71222400D02*
X82739200Y-71222400D01*
X78033637Y-71222400D02*
X79719200Y-71222400D01*
X76969200Y-72286837D02*
X76969200Y-79742400D01*
X85489200Y-72286837D02*
X85489200Y-79742400D01*
X85489200Y-79742400D02*
X82739200Y-79742400D01*
X76969200Y-79742400D02*
X79719200Y-79742400D01*
X82537200Y-90947200D02*
X83537200Y-90947200D01*
X83037200Y-91447200D02*
X83037200Y-90447200D01*
X88742763Y-90207200D02*
X89807200Y-89142763D01*
X82351637Y-90207200D02*
X81287200Y-89142763D01*
X82351637Y-90207200D02*
X84037200Y-90207200D01*
X88742763Y-90207200D02*
X87057200Y-90207200D01*
X89807200Y-89142763D02*
X89807200Y-81687200D01*
X81287200Y-89142763D02*
X81287200Y-81687200D01*
X81287200Y-81687200D02*
X84037200Y-81687200D01*
X89807200Y-81687200D02*
X87057200Y-81687200D01*
X93741422Y-92423000D02*
X94258578Y-92423000D01*
X93741422Y-91003000D02*
X94258578Y-91003000D01*
X79346422Y-92423000D02*
X79863578Y-92423000D01*
X79346422Y-91003000D02*
X79863578Y-91003000D01*
X108227122Y-92423000D02*
X108744278Y-92423000D01*
X108227122Y-91003000D02*
X108744278Y-91003000D01*
X92315000Y-94603400D02*
X95000000Y-94603400D01*
X92315000Y-92683400D02*
X92315000Y-94603400D01*
X95000000Y-92683400D02*
X92315000Y-92683400D01*
X77920000Y-94603400D02*
X80605000Y-94603400D01*
X77920000Y-92683400D02*
X77920000Y-94603400D01*
X80605000Y-92683400D02*
X77920000Y-92683400D01*
X106798400Y-94603400D02*
X109483400Y-94603400D01*
X106798400Y-92683400D02*
X106798400Y-94603400D01*
X109483400Y-92683400D02*
X106798400Y-92683400D01*
D16*
X61341000Y-88284000D02*
X57531000Y-88284000D01*
X57531000Y-88284000D02*
X57531000Y-93364000D01*
X57531000Y-93364000D02*
X62611000Y-93364000D01*
X62611000Y-93364000D02*
X62611000Y-90824000D01*
X129286000Y-88284000D02*
X125476000Y-88284000D01*
X125476000Y-88284000D02*
X125476000Y-93364000D01*
X125476000Y-93364000D02*
X130556000Y-93364000D01*
X130556000Y-93364000D02*
X130556000Y-90824000D01*
D11*
X67010000Y-71906000D02*
X67610000Y-71906000D01*
X67310000Y-72506000D02*
X67010000Y-71906000D01*
X67610000Y-71906000D02*
X67310000Y-72506000D01*
X75130000Y-79816000D02*
X74390000Y-79816000D01*
X75130000Y-74516000D02*
X75130000Y-79816000D01*
X64570000Y-74516000D02*
X75130000Y-74516000D01*
X64570000Y-79816000D02*
X64570000Y-74516000D01*
X65310000Y-79816000D02*
X64570000Y-79816000D01*
X69310000Y-79816000D02*
X70390000Y-79816000D01*
X73390000Y-74516000D02*
X71390000Y-74516000D01*
X73390000Y-72706000D02*
X73390000Y-74516000D01*
X71390000Y-72706000D02*
X73390000Y-72706000D01*
X71390000Y-74516000D02*
X71390000Y-72706000D01*
X68310000Y-74516000D02*
X66310000Y-74516000D01*
X68310000Y-72706000D02*
X68310000Y-74516000D01*
X66310000Y-72706000D02*
X68310000Y-72706000D01*
X66310000Y-74516000D02*
X66310000Y-72706000D01*
X68310000Y-73516000D02*
X71390000Y-73516000D01*
X76040000Y-73516000D02*
X73500000Y-73516000D01*
X63660000Y-73516000D02*
X66200000Y-73516000D01*
X76040000Y-72706000D02*
X63660000Y-72706000D01*
X76040000Y-81526000D02*
X76040000Y-72706000D01*
X63660000Y-81526000D02*
X76040000Y-81526000D01*
X63660000Y-72706000D02*
X63660000Y-81526000D01*
X74376841Y-79831821D02*
G75*
G02X70390000Y-79816000I-1986841J1665821D01*
G01*
X69296841Y-79831821D02*
G75*
G02X65310000Y-79816000I-1986841J1665821D01*
G01*
X115397000Y-71906000D02*
X115997000Y-71906000D01*
X115697000Y-72506000D02*
X115397000Y-71906000D01*
X115997000Y-71906000D02*
X115697000Y-72506000D01*
X123517000Y-79816000D02*
X122777000Y-79816000D01*
X123517000Y-74516000D02*
X123517000Y-79816000D01*
X112957000Y-74516000D02*
X123517000Y-74516000D01*
X112957000Y-79816000D02*
X112957000Y-74516000D01*
X113697000Y-79816000D02*
X112957000Y-79816000D01*
X117697000Y-79816000D02*
X118777000Y-79816000D01*
X121777000Y-74516000D02*
X119777000Y-74516000D01*
X121777000Y-72706000D02*
X121777000Y-74516000D01*
X119777000Y-72706000D02*
X121777000Y-72706000D01*
X119777000Y-74516000D02*
X119777000Y-72706000D01*
X116697000Y-74516000D02*
X114697000Y-74516000D01*
X116697000Y-72706000D02*
X116697000Y-74516000D01*
X114697000Y-72706000D02*
X116697000Y-72706000D01*
X114697000Y-74516000D02*
X114697000Y-72706000D01*
X116697000Y-73516000D02*
X119777000Y-73516000D01*
X124427000Y-73516000D02*
X121887000Y-73516000D01*
X112047000Y-73516000D02*
X114587000Y-73516000D01*
X124427000Y-72706000D02*
X112047000Y-72706000D01*
X124427000Y-81526000D02*
X124427000Y-72706000D01*
X112047000Y-81526000D02*
X124427000Y-81526000D01*
X112047000Y-72706000D02*
X112047000Y-81526000D01*
X122763841Y-79831821D02*
G75*
G02X118777000Y-79816000I-1986841J1665821D01*
G01*
X117683841Y-79831821D02*
G75*
G02X113697000Y-79816000I-1986841J1665821D01*
G01*
X67010000Y-81564000D02*
X67610000Y-81564000D01*
X67310000Y-82164000D02*
X67010000Y-81564000D01*
X67610000Y-81564000D02*
X67310000Y-82164000D01*
X71640000Y-93084000D02*
X71390000Y-94584000D01*
X73140000Y-93084000D02*
X71640000Y-93084000D01*
X73390000Y-94584000D02*
X73140000Y-93084000D01*
X71390000Y-94584000D02*
X73390000Y-94584000D01*
X66560000Y-93084000D02*
X66310000Y-94584000D01*
X68060000Y-93084000D02*
X66560000Y-93084000D01*
X68310000Y-94584000D02*
X68060000Y-93084000D01*
X66310000Y-94584000D02*
X68310000Y-94584000D01*
X76040000Y-93084000D02*
X63660000Y-93084000D01*
X76040000Y-91284000D02*
X76040000Y-93084000D01*
X63660000Y-91284000D02*
X76040000Y-91284000D01*
X63660000Y-93084000D02*
X63660000Y-91284000D01*
X76040000Y-82364000D02*
X63660000Y-82364000D01*
X76040000Y-94584000D02*
X76040000Y-82364000D01*
X63660000Y-94584000D02*
X76040000Y-94584000D01*
X63660000Y-82364000D02*
X63660000Y-94584000D01*
X115397000Y-81564000D02*
X115997000Y-81564000D01*
X115697000Y-82164000D02*
X115397000Y-81564000D01*
X115997000Y-81564000D02*
X115697000Y-82164000D01*
X120027000Y-93084000D02*
X119777000Y-94584000D01*
X121527000Y-93084000D02*
X120027000Y-93084000D01*
X121777000Y-94584000D02*
X121527000Y-93084000D01*
X119777000Y-94584000D02*
X121777000Y-94584000D01*
X114947000Y-93084000D02*
X114697000Y-94584000D01*
X116447000Y-93084000D02*
X114947000Y-93084000D01*
X116697000Y-94584000D02*
X116447000Y-93084000D01*
X114697000Y-94584000D02*
X116697000Y-94584000D01*
X124427000Y-93084000D02*
X112047000Y-93084000D01*
X124427000Y-91284000D02*
X124427000Y-93084000D01*
X112047000Y-91284000D02*
X124427000Y-91284000D01*
X112047000Y-93084000D02*
X112047000Y-91284000D01*
X124427000Y-82364000D02*
X112047000Y-82364000D01*
X124427000Y-94584000D02*
X124427000Y-82364000D01*
X112047000Y-94584000D02*
X124427000Y-94584000D01*
X112047000Y-82364000D02*
X112047000Y-94584000D01*
X97583200Y-85158800D02*
X92183200Y-85158800D01*
X97583200Y-81858800D02*
X92183200Y-81858800D01*
X97583200Y-85158800D02*
X97583200Y-81858800D01*
X98628800Y-81148000D02*
X98628800Y-79648000D01*
X98628800Y-70528000D02*
X98628800Y-72028000D01*
X98628800Y-81148000D02*
X97128800Y-81148000D01*
X98628800Y-70528000D02*
X97128800Y-70528000D01*
X87908800Y-70528000D02*
X89408800Y-70528000D01*
X87908800Y-70528000D02*
X87908800Y-72028000D01*
X87908800Y-81148000D02*
X87908800Y-79648000D01*
X87908800Y-81148000D02*
X89408800Y-81148000D01*
X61127000Y-80301000D02*
X61127000Y-80901000D01*
X60527000Y-80601000D02*
X61127000Y-80301000D01*
X61127000Y-80901000D02*
X60527000Y-80601000D01*
X53727000Y-78041000D02*
X53727000Y-86661000D01*
X59837000Y-81651000D02*
X59837000Y-83051000D01*
X59837000Y-86661000D02*
X59837000Y-85151000D01*
X59837000Y-78041000D02*
X59837000Y-79551000D01*
X50417000Y-86661000D02*
X59837000Y-86661000D01*
X50417000Y-78041000D02*
X50417000Y-86661000D01*
X59837000Y-78041000D02*
X50417000Y-78041000D01*
X61127000Y-70701000D02*
X61127000Y-71301000D01*
X60527000Y-71001000D02*
X61127000Y-70701000D01*
X61127000Y-71301000D02*
X60527000Y-71001000D01*
X53727000Y-68441000D02*
X53727000Y-77061000D01*
X59837000Y-72051000D02*
X59837000Y-73451000D01*
X59837000Y-77061000D02*
X59837000Y-75551000D01*
X59837000Y-68441000D02*
X59837000Y-69951000D01*
X50417000Y-77061000D02*
X59837000Y-77061000D01*
X50417000Y-68441000D02*
X50417000Y-77061000D01*
X59837000Y-68441000D02*
X50417000Y-68441000D01*
X100476700Y-79624800D02*
X100476700Y-81124800D01*
X100476700Y-81124800D02*
X101426700Y-81124800D01*
X101426700Y-81124800D02*
X101426700Y-86249800D01*
X110876700Y-79624800D02*
X110876700Y-81124800D01*
X110876700Y-81124800D02*
X109926700Y-81124800D01*
X109926700Y-81124800D02*
X109926700Y-82224800D01*
X99569200Y-89498622D02*
X99569200Y-90015778D01*
X100989200Y-89498622D02*
X100989200Y-90015778D01*
D12*
X85548742Y-70162666D02*
X85596361Y-70210285D01*
X85643980Y-70353142D01*
X85643980Y-70448380D01*
X85596361Y-70591238D01*
X85501123Y-70686476D01*
X85405885Y-70734095D01*
X85215409Y-70781714D01*
X85072552Y-70781714D01*
X84882076Y-70734095D01*
X84786838Y-70686476D01*
X84691600Y-70591238D01*
X84643980Y-70448380D01*
X84643980Y-70353142D01*
X84691600Y-70210285D01*
X84739219Y-70162666D01*
X84977314Y-69305523D02*
X85643980Y-69305523D01*
X84596361Y-69543619D02*
X85310647Y-69781714D01*
X85310647Y-69162666D01*
X75151716Y-63211060D02*
X75151716Y-63925346D01*
X75104097Y-64068203D01*
X75008859Y-64163441D01*
X74866001Y-64211060D01*
X74770763Y-64211060D01*
X76151716Y-64211060D02*
X75580287Y-64211060D01*
X75866001Y-64211060D02*
X75866001Y-63211060D01*
X75770763Y-63353918D01*
X75675525Y-63449156D01*
X75580287Y-63496775D01*
X76770763Y-63211060D02*
X76866001Y-63211060D01*
X76961240Y-63258680D01*
X77008859Y-63306299D01*
X77056478Y-63401537D01*
X77104097Y-63592013D01*
X77104097Y-63830108D01*
X77056478Y-64020584D01*
X77008859Y-64115822D01*
X76961240Y-64163441D01*
X76866001Y-64211060D01*
X76770763Y-64211060D01*
X76675525Y-64163441D01*
X76627906Y-64115822D01*
X76580287Y-64020584D01*
X76532668Y-63830108D01*
X76532668Y-63592013D01*
X76580287Y-63401537D01*
X76627906Y-63306299D01*
X76675525Y-63258680D01*
X76770763Y-63211060D01*
X88840986Y-63211060D02*
X88840986Y-63925346D01*
X88793367Y-64068203D01*
X88698129Y-64163441D01*
X88555272Y-64211060D01*
X88460034Y-64211060D01*
X89364796Y-64211060D02*
X89555272Y-64211060D01*
X89650510Y-64163441D01*
X89698129Y-64115822D01*
X89793367Y-63972965D01*
X89840986Y-63782489D01*
X89840986Y-63401537D01*
X89793367Y-63306299D01*
X89745748Y-63258680D01*
X89650510Y-63211060D01*
X89460034Y-63211060D01*
X89364796Y-63258680D01*
X89317177Y-63306299D01*
X89269558Y-63401537D01*
X89269558Y-63639632D01*
X89317177Y-63734870D01*
X89364796Y-63782489D01*
X89460034Y-63830108D01*
X89650510Y-63830108D01*
X89745748Y-63782489D01*
X89793367Y-63734870D01*
X89840986Y-63639632D01*
X102054066Y-63211060D02*
X102054066Y-63925346D01*
X102006447Y-64068203D01*
X101911209Y-64163441D01*
X101768352Y-64211060D01*
X101673114Y-64211060D01*
X102673114Y-63639632D02*
X102577876Y-63592013D01*
X102530257Y-63544394D01*
X102482638Y-63449156D01*
X102482638Y-63401537D01*
X102530257Y-63306299D01*
X102577876Y-63258680D01*
X102673114Y-63211060D01*
X102863590Y-63211060D01*
X102958828Y-63258680D01*
X103006447Y-63306299D01*
X103054066Y-63401537D01*
X103054066Y-63449156D01*
X103006447Y-63544394D01*
X102958828Y-63592013D01*
X102863590Y-63639632D01*
X102673114Y-63639632D01*
X102577876Y-63687251D01*
X102530257Y-63734870D01*
X102482638Y-63830108D01*
X102482638Y-64020584D01*
X102530257Y-64115822D01*
X102577876Y-64163441D01*
X102673114Y-64211060D01*
X102863590Y-64211060D01*
X102958828Y-64163441D01*
X103006447Y-64115822D01*
X103054066Y-64020584D01*
X103054066Y-63830108D01*
X103006447Y-63734870D01*
X102958828Y-63687251D01*
X102863590Y-63639632D01*
X115256986Y-63211060D02*
X115256986Y-63925346D01*
X115209367Y-64068203D01*
X115114129Y-64163441D01*
X114971272Y-64211060D01*
X114876034Y-64211060D01*
X115637939Y-63211060D02*
X116304605Y-63211060D01*
X115876034Y-64211060D01*
X60986680Y-63976723D02*
X61700966Y-63976723D01*
X61843823Y-64024342D01*
X61939061Y-64119580D01*
X61986680Y-64262438D01*
X61986680Y-64357676D01*
X61986680Y-62976723D02*
X61986680Y-63548152D01*
X61986680Y-63262438D02*
X60986680Y-63262438D01*
X61129538Y-63357676D01*
X61224776Y-63452914D01*
X61272395Y-63548152D01*
X61986680Y-62024342D02*
X61986680Y-62595771D01*
X61986680Y-62310057D02*
X60986680Y-62310057D01*
X61129538Y-62405295D01*
X61224776Y-62500533D01*
X61272395Y-62595771D01*
X86786342Y-75649066D02*
X86833961Y-75696685D01*
X86881580Y-75839542D01*
X86881580Y-75934780D01*
X86833961Y-76077638D01*
X86738723Y-76172876D01*
X86643485Y-76220495D01*
X86453009Y-76268114D01*
X86310152Y-76268114D01*
X86119676Y-76220495D01*
X86024438Y-76172876D01*
X85929200Y-76077638D01*
X85881580Y-75934780D01*
X85881580Y-75839542D01*
X85929200Y-75696685D01*
X85976819Y-75649066D01*
X85881580Y-75315733D02*
X85881580Y-74696685D01*
X86262533Y-75030019D01*
X86262533Y-74887161D01*
X86310152Y-74791923D01*
X86357771Y-74744304D01*
X86453009Y-74696685D01*
X86691104Y-74696685D01*
X86786342Y-74744304D01*
X86833961Y-74791923D01*
X86881580Y-74887161D01*
X86881580Y-75172876D01*
X86833961Y-75268114D01*
X86786342Y-75315733D01*
X80704342Y-86113866D02*
X80751961Y-86161485D01*
X80799580Y-86304342D01*
X80799580Y-86399580D01*
X80751961Y-86542438D01*
X80656723Y-86637676D01*
X80561485Y-86685295D01*
X80371009Y-86732914D01*
X80228152Y-86732914D01*
X80037676Y-86685295D01*
X79942438Y-86637676D01*
X79847200Y-86542438D01*
X79799580Y-86399580D01*
X79799580Y-86304342D01*
X79847200Y-86161485D01*
X79894819Y-86113866D01*
X80799580Y-85161485D02*
X80799580Y-85732914D01*
X80799580Y-85447200D02*
X79799580Y-85447200D01*
X79942438Y-85542438D01*
X80037676Y-85637676D01*
X80085295Y-85732914D01*
X93775233Y-90552480D02*
X93441900Y-90076290D01*
X93203804Y-90552480D02*
X93203804Y-89552480D01*
X93584757Y-89552480D01*
X93679995Y-89600100D01*
X93727614Y-89647719D01*
X93775233Y-89742957D01*
X93775233Y-89885814D01*
X93727614Y-89981052D01*
X93679995Y-90028671D01*
X93584757Y-90076290D01*
X93203804Y-90076290D01*
X94108566Y-89552480D02*
X94727614Y-89552480D01*
X94394280Y-89933433D01*
X94537138Y-89933433D01*
X94632376Y-89981052D01*
X94679995Y-90028671D01*
X94727614Y-90123909D01*
X94727614Y-90362004D01*
X94679995Y-90457242D01*
X94632376Y-90504861D01*
X94537138Y-90552480D01*
X94251423Y-90552480D01*
X94156185Y-90504861D01*
X94108566Y-90457242D01*
X79627433Y-89815880D02*
X79294100Y-89339690D01*
X79056004Y-89815880D02*
X79056004Y-88815880D01*
X79436957Y-88815880D01*
X79532195Y-88863500D01*
X79579814Y-88911119D01*
X79627433Y-89006357D01*
X79627433Y-89149214D01*
X79579814Y-89244452D01*
X79532195Y-89292071D01*
X79436957Y-89339690D01*
X79056004Y-89339690D01*
X80008385Y-88911119D02*
X80056004Y-88863500D01*
X80151242Y-88815880D01*
X80389338Y-88815880D01*
X80484576Y-88863500D01*
X80532195Y-88911119D01*
X80579814Y-89006357D01*
X80579814Y-89101595D01*
X80532195Y-89244452D01*
X79960766Y-89815880D01*
X80579814Y-89815880D01*
X107846833Y-89917480D02*
X107513500Y-89441290D01*
X107275404Y-89917480D02*
X107275404Y-88917480D01*
X107656357Y-88917480D01*
X107751595Y-88965100D01*
X107799214Y-89012719D01*
X107846833Y-89107957D01*
X107846833Y-89250814D01*
X107799214Y-89346052D01*
X107751595Y-89393671D01*
X107656357Y-89441290D01*
X107275404Y-89441290D01*
X108799214Y-89917480D02*
X108227785Y-89917480D01*
X108513500Y-89917480D02*
X108513500Y-88917480D01*
X108418261Y-89060338D01*
X108323023Y-89155576D01*
X108227785Y-89203195D01*
X91943180Y-94254495D02*
X90943180Y-94254495D01*
X90943180Y-94016400D01*
X90990800Y-93873542D01*
X91086038Y-93778304D01*
X91181276Y-93730685D01*
X91371752Y-93683066D01*
X91514609Y-93683066D01*
X91705085Y-93730685D01*
X91800323Y-93778304D01*
X91895561Y-93873542D01*
X91943180Y-94016400D01*
X91943180Y-94254495D01*
X91276514Y-92825923D02*
X91943180Y-92825923D01*
X90895561Y-93064019D02*
X91609847Y-93302114D01*
X91609847Y-92683066D01*
X77617580Y-92146295D02*
X76617580Y-92146295D01*
X76617580Y-91908200D01*
X76665200Y-91765342D01*
X76760438Y-91670104D01*
X76855676Y-91622485D01*
X77046152Y-91574866D01*
X77189009Y-91574866D01*
X77379485Y-91622485D01*
X77474723Y-91670104D01*
X77569961Y-91765342D01*
X77617580Y-91908200D01*
X77617580Y-92146295D01*
X76617580Y-91241533D02*
X76617580Y-90622485D01*
X76998533Y-90955819D01*
X76998533Y-90812961D01*
X77046152Y-90717723D01*
X77093771Y-90670104D01*
X77189009Y-90622485D01*
X77427104Y-90622485D01*
X77522342Y-90670104D01*
X77569961Y-90717723D01*
X77617580Y-90812961D01*
X77617580Y-91098676D01*
X77569961Y-91193914D01*
X77522342Y-91241533D01*
X111501180Y-92349495D02*
X110501180Y-92349495D01*
X110501180Y-92111400D01*
X110548800Y-91968542D01*
X110644038Y-91873304D01*
X110739276Y-91825685D01*
X110929752Y-91778066D01*
X111072609Y-91778066D01*
X111263085Y-91825685D01*
X111358323Y-91873304D01*
X111453561Y-91968542D01*
X111501180Y-92111400D01*
X111501180Y-92349495D01*
X111501180Y-90825685D02*
X111501180Y-91397114D01*
X111501180Y-91111400D02*
X110501180Y-91111400D01*
X110644038Y-91206638D01*
X110739276Y-91301876D01*
X110786895Y-91397114D01*
X61947466Y-86828380D02*
X61947466Y-87542666D01*
X61899847Y-87685523D01*
X61804609Y-87780761D01*
X61661752Y-87828380D01*
X61566514Y-87828380D01*
X62852228Y-87161714D02*
X62852228Y-87828380D01*
X62614133Y-86780761D02*
X62376038Y-87495047D01*
X62995085Y-87495047D01*
X127733466Y-86821980D02*
X127733466Y-87536266D01*
X127685847Y-87679123D01*
X127590609Y-87774361D01*
X127447752Y-87821980D01*
X127352514Y-87821980D01*
X128162038Y-86917219D02*
X128209657Y-86869600D01*
X128304895Y-86821980D01*
X128542990Y-86821980D01*
X128638228Y-86869600D01*
X128685847Y-86917219D01*
X128733466Y-87012457D01*
X128733466Y-87107695D01*
X128685847Y-87250552D01*
X128114419Y-87821980D01*
X128733466Y-87821980D01*
X76984266Y-80446580D02*
X76984266Y-81160866D01*
X76936647Y-81303723D01*
X76841409Y-81398961D01*
X76698552Y-81446580D01*
X76603314Y-81446580D01*
X77889028Y-80446580D02*
X77698552Y-80446580D01*
X77603314Y-80494200D01*
X77555695Y-80541819D01*
X77460457Y-80684676D01*
X77412838Y-80875152D01*
X77412838Y-81256104D01*
X77460457Y-81351342D01*
X77508076Y-81398961D01*
X77603314Y-81446580D01*
X77793790Y-81446580D01*
X77889028Y-81398961D01*
X77936647Y-81351342D01*
X77984266Y-81256104D01*
X77984266Y-81018009D01*
X77936647Y-80922771D01*
X77889028Y-80875152D01*
X77793790Y-80827533D01*
X77603314Y-80827533D01*
X77508076Y-80875152D01*
X77460457Y-80922771D01*
X77412838Y-81018009D01*
X110664666Y-81424480D02*
X110664666Y-82138766D01*
X110617047Y-82281623D01*
X110521809Y-82376861D01*
X110378952Y-82424480D01*
X110283714Y-82424480D01*
X111617047Y-81424480D02*
X111140857Y-81424480D01*
X111093238Y-81900671D01*
X111140857Y-81853052D01*
X111236095Y-81805433D01*
X111474190Y-81805433D01*
X111569428Y-81853052D01*
X111617047Y-81900671D01*
X111664666Y-81995909D01*
X111664666Y-82234004D01*
X111617047Y-82329242D01*
X111569428Y-82376861D01*
X111474190Y-82424480D01*
X111236095Y-82424480D01*
X111140857Y-82376861D01*
X111093238Y-82329242D01*
X77009666Y-83291380D02*
X77009666Y-84005666D01*
X76962047Y-84148523D01*
X76866809Y-84243761D01*
X76723952Y-84291380D01*
X76628714Y-84291380D01*
X77390619Y-83291380D02*
X78009666Y-83291380D01*
X77676333Y-83672333D01*
X77819190Y-83672333D01*
X77914428Y-83719952D01*
X77962047Y-83767571D01*
X78009666Y-83862809D01*
X78009666Y-84100904D01*
X77962047Y-84196142D01*
X77914428Y-84243761D01*
X77819190Y-84291380D01*
X77533476Y-84291380D01*
X77438238Y-84243761D01*
X77390619Y-84196142D01*
X110410666Y-83291380D02*
X110410666Y-84005666D01*
X110363047Y-84148523D01*
X110267809Y-84243761D01*
X110124952Y-84291380D01*
X110029714Y-84291380D01*
X111410666Y-84291380D02*
X110839238Y-84291380D01*
X111124952Y-84291380D02*
X111124952Y-83291380D01*
X111029714Y-83434238D01*
X110934476Y-83529476D01*
X110839238Y-83577095D01*
X93445104Y-86461180D02*
X93445104Y-85461180D01*
X93683200Y-85461180D01*
X93826057Y-85508800D01*
X93921295Y-85604038D01*
X93968914Y-85699276D01*
X94016533Y-85889752D01*
X94016533Y-86032609D01*
X93968914Y-86223085D01*
X93921295Y-86318323D01*
X93826057Y-86413561D01*
X93683200Y-86461180D01*
X93445104Y-86461180D01*
X94397485Y-85556419D02*
X94445104Y-85508800D01*
X94540342Y-85461180D01*
X94778438Y-85461180D01*
X94873676Y-85508800D01*
X94921295Y-85556419D01*
X94968914Y-85651657D01*
X94968914Y-85746895D01*
X94921295Y-85889752D01*
X94349866Y-86461180D01*
X94968914Y-86461180D01*
X87675980Y-78341466D02*
X87675980Y-78817657D01*
X86675980Y-78817657D01*
X87675980Y-77484323D02*
X87675980Y-78055752D01*
X87675980Y-77770038D02*
X86675980Y-77770038D01*
X86818838Y-77865276D01*
X86914076Y-77960514D01*
X86961695Y-78055752D01*
X55992780Y-88998323D02*
X56707066Y-88998323D01*
X56849923Y-89045942D01*
X56945161Y-89141180D01*
X56992780Y-89284038D01*
X56992780Y-89379276D01*
X56992780Y-87998323D02*
X56992780Y-88569752D01*
X56992780Y-88284038D02*
X55992780Y-88284038D01*
X56135638Y-88379276D01*
X56230876Y-88474514D01*
X56278495Y-88569752D01*
X55992780Y-87664990D02*
X55992780Y-87045942D01*
X56373733Y-87379276D01*
X56373733Y-87236419D01*
X56421352Y-87141180D01*
X56468971Y-87093561D01*
X56564209Y-87045942D01*
X56802304Y-87045942D01*
X56897542Y-87093561D01*
X56945161Y-87141180D01*
X56992780Y-87236419D01*
X56992780Y-87522133D01*
X56945161Y-87617371D01*
X56897542Y-87664990D01*
X57681880Y-67789323D02*
X58396166Y-67789323D01*
X58539023Y-67836942D01*
X58634261Y-67932180D01*
X58681880Y-68075038D01*
X58681880Y-68170276D01*
X58681880Y-66789323D02*
X58681880Y-67360752D01*
X58681880Y-67075038D02*
X57681880Y-67075038D01*
X57824738Y-67170276D01*
X57919976Y-67265514D01*
X57967595Y-67360752D01*
X57777119Y-66408371D02*
X57729500Y-66360752D01*
X57681880Y-66265514D01*
X57681880Y-66027419D01*
X57729500Y-65932180D01*
X57777119Y-65884561D01*
X57872357Y-65836942D01*
X57967595Y-65836942D01*
X58110452Y-65884561D01*
X58681880Y-66455990D01*
X58681880Y-65836942D01*
X104764009Y-69457780D02*
X104764009Y-68457780D01*
X105811628Y-69362542D02*
X105764009Y-69410161D01*
X105621152Y-69457780D01*
X105525914Y-69457780D01*
X105383057Y-69410161D01*
X105287819Y-69314923D01*
X105240200Y-69219685D01*
X105192580Y-69029209D01*
X105192580Y-68886352D01*
X105240200Y-68695876D01*
X105287819Y-68600638D01*
X105383057Y-68505400D01*
X105525914Y-68457780D01*
X105621152Y-68457780D01*
X105764009Y-68505400D01*
X105811628Y-68553019D01*
X106764009Y-69457780D02*
X106192580Y-69457780D01*
X106478295Y-69457780D02*
X106478295Y-68457780D01*
X106383057Y-68600638D01*
X106287819Y-68695876D01*
X106192580Y-68743495D01*
X102286342Y-89923866D02*
X102333961Y-89971485D01*
X102381580Y-90114342D01*
X102381580Y-90209580D01*
X102333961Y-90352438D01*
X102238723Y-90447676D01*
X102143485Y-90495295D01*
X101953009Y-90542914D01*
X101810152Y-90542914D01*
X101619676Y-90495295D01*
X101524438Y-90447676D01*
X101429200Y-90352438D01*
X101381580Y-90209580D01*
X101381580Y-90114342D01*
X101429200Y-89971485D01*
X101476819Y-89923866D01*
X101476819Y-89542914D02*
X101429200Y-89495295D01*
X101381580Y-89400057D01*
X101381580Y-89161961D01*
X101429200Y-89066723D01*
X101476819Y-89019104D01*
X101572057Y-88971485D01*
X101667295Y-88971485D01*
X101810152Y-89019104D01*
X102381580Y-89590533D01*
X102381580Y-88971485D01*
M02*
