M48
; DRILL file {KiCad (5.1.4)-1} date 23/03/2020 02:46:55
; FORMAT={-:-/ absolute / metric / decimal}
; #@! TF.CreationDate,2020-03-23T02:46:55+01:00
; #@! TF.GenerationSoftware,Kicad,Pcbnew,(5.1.4)-1
; #@! TF.FileFunction,Plated,1,2,PTH
FMAT,2
METRIC
T1C0.400
T2C0.850
T3C1.000
T4C1.200
T5C1.400
T6C3.200
%
G90
G05
T1
X52.087Y-58.836
X52.087Y-65.236
X52.087Y-71.636
X52.087Y-78.036
X52.087Y-84.436
X55.287Y-62.036
X55.287Y-68.436
X55.287Y-74.837
X55.287Y-81.236
X56.087Y-86.837
X56.887Y-57.236
X58.487Y-51.636
X58.487Y-78.036
X58.487Y-93.236
X60.887Y-67.636
X61.687Y-54.837
X61.687Y-62.036
X62.487Y-74.837
X62.487Y-84.436
X63.287Y-90.036
X64.887Y-51.636
X64.887Y-58.036
X64.887Y-70.037
X66.487Y-93.236
X67.287Y-62.836
X68.087Y-54.837
X68.087Y-87.636
X68.887Y-67.636
X70.487Y-58.836
X71.287Y-51.636
X71.287Y-90.837
X72.887Y-70.037
X72.887Y-81.236
X73.687Y-55.636
X74.487Y-87.636
X75.287Y-93.236
X76.887Y-52.436
X76.887Y-76.436
X78.487Y-57.236
X78.487Y-90.036
X80.887Y-63.636
X81.687Y-54.036
X81.687Y-69.236
X82.487Y-74.837
X82.487Y-82.036
X83.287Y-58.836
X84.087Y-93.236
X85.687Y-51.636
X85.687Y-78.036
X86.487Y-86.036
X87.287Y-56.436
X88.087Y-90.837
X88.887Y-69.236
X88.887Y-82.036
X89.687Y-75.636
X90.487Y-53.236
X92.087Y-85.236
X92.887Y-57.236
X94.487Y-62.036
X95.287Y-51.636
X95.287Y-69.236
X95.287Y-76.436
X96.887Y-86.837
X97.687Y-55.636
X98.487Y-91.636
X99.287Y-71.636
X100.887Y-52.436
X103.287Y-69.236
X104.087Y-93.236
X106.487Y-51.636
X107.287Y-57.236
X107.287Y-90.036
X108.887Y-62.036
X109.687Y-80.436
X110.487Y-86.036
X111.287Y-92.436
X112.087Y-72.436
X112.887Y-51.636
X114.487Y-88.436
X116.887Y-64.436
X117.687Y-91.636
X119.287Y-51.636
X120.087Y-67.636
X120.887Y-61.236
X120.887Y-87.636
X123.287Y-79.636
X123.287Y-92.436
X124.887Y-52.436
X126.487Y-82.837
X128.087Y-55.636
X128.887Y-61.236
X128.887Y-67.636
X128.887Y-74.037
X129.687Y-79.636
X129.687Y-86.036
X132.087Y-58.036
X132.087Y-64.436
X132.087Y-70.837
X132.887Y-76.436
X132.887Y-82.837
X135.287Y-61.236
X135.287Y-67.636
X135.287Y-86.837
X136.087Y-73.236
X136.087Y-79.636
T2
X58.801Y-90.824
X61.341Y-90.824
X126.746Y-90.824
X129.286Y-90.824
T3
X98.349Y-83.515
X104.14Y-87.681
T4
X58.534Y-61.417
X58.534Y-64.917
X58.527Y-80.601
X58.527Y-84.101
X58.527Y-71.001
X58.527Y-74.501
T5
X67.31Y-84.474
X72.39Y-84.474
X115.697Y-84.474
X120.777Y-84.474
X73.421Y-60.559
X78.501Y-60.559
X99.847Y-60.559
X104.927Y-60.559
X67.31Y-77.616
X72.39Y-77.616
X86.634Y-60.559
X91.714Y-60.559
X115.697Y-77.616
X120.777Y-77.616
X113.05Y-60.559
X118.13Y-60.559
T6
X134.5Y-53.5
X53.5Y-91.5
X134.5Y-91.5
X53.5Y-53.5
T0
M30
