G04 #@! TF.GenerationSoftware,KiCad,Pcbnew,5.1.5-52549c5~84~ubuntu18.04.1*
G04 #@! TF.CreationDate,2020-03-04T17:14:33+01:00*
G04 #@! TF.ProjectId,hub_usb_dispatch,6875625f-7573-4625-9f64-697370617463,rev?*
G04 #@! TF.SameCoordinates,Original*
G04 #@! TF.FileFunction,Soldermask,Bot*
G04 #@! TF.FilePolarity,Negative*
%FSLAX46Y46*%
G04 Gerber Fmt 4.6, Leading zero omitted, Abs format (unit mm)*
G04 Created by KiCad (PCBNEW 5.1.5-52549c5~84~ubuntu18.04.1) date 2020-03-04 17:14:33*
%MOMM*%
%LPD*%
G04 APERTURE LIST*
%ADD10C,0.100000*%
G04 APERTURE END LIST*
D10*
G36*
X135134239Y-88311467D02*
G01*
X135448282Y-88373934D01*
X136039926Y-88619001D01*
X136572392Y-88974784D01*
X137025216Y-89427608D01*
X137380999Y-89960074D01*
X137626066Y-90551718D01*
X137626066Y-90551719D01*
X137745098Y-91150130D01*
X137751000Y-91179804D01*
X137751000Y-91820196D01*
X137626066Y-92448282D01*
X137380999Y-93039926D01*
X137025216Y-93572392D01*
X136572392Y-94025216D01*
X136039926Y-94380999D01*
X135448282Y-94626066D01*
X135134239Y-94688533D01*
X134820197Y-94751000D01*
X134179803Y-94751000D01*
X133865761Y-94688533D01*
X133551718Y-94626066D01*
X132960074Y-94380999D01*
X132427608Y-94025216D01*
X131974784Y-93572392D01*
X131619001Y-93039926D01*
X131373934Y-92448282D01*
X131249000Y-91820196D01*
X131249000Y-91179804D01*
X131254903Y-91150130D01*
X131373934Y-90551719D01*
X131373934Y-90551718D01*
X131619001Y-89960074D01*
X131974784Y-89427608D01*
X132427608Y-88974784D01*
X132960074Y-88619001D01*
X133551718Y-88373934D01*
X133865761Y-88311467D01*
X134179803Y-88249000D01*
X134820197Y-88249000D01*
X135134239Y-88311467D01*
G37*
G36*
X54134239Y-88311467D02*
G01*
X54448282Y-88373934D01*
X55039926Y-88619001D01*
X55572392Y-88974784D01*
X56025216Y-89427608D01*
X56380999Y-89960074D01*
X56626066Y-90551718D01*
X56626066Y-90551719D01*
X56745098Y-91150130D01*
X56751000Y-91179804D01*
X56751000Y-91820196D01*
X56626066Y-92448282D01*
X56380999Y-93039926D01*
X56025216Y-93572392D01*
X55572392Y-94025216D01*
X55039926Y-94380999D01*
X54448282Y-94626066D01*
X54134239Y-94688533D01*
X53820197Y-94751000D01*
X53179803Y-94751000D01*
X52865761Y-94688533D01*
X52551718Y-94626066D01*
X51960074Y-94380999D01*
X51427608Y-94025216D01*
X50974784Y-93572392D01*
X50619001Y-93039926D01*
X50373934Y-92448282D01*
X50249000Y-91820196D01*
X50249000Y-91179804D01*
X50254903Y-91150130D01*
X50373934Y-90551719D01*
X50373934Y-90551718D01*
X50619001Y-89960074D01*
X50974784Y-89427608D01*
X51427608Y-88974784D01*
X51960074Y-88619001D01*
X52551718Y-88373934D01*
X52865761Y-88311467D01*
X53179803Y-88249000D01*
X53820197Y-88249000D01*
X54134239Y-88311467D01*
G37*
G36*
X59001825Y-90161958D02*
G01*
X59001827Y-90161959D01*
X59001828Y-90161959D01*
X59064478Y-90187910D01*
X59127130Y-90213861D01*
X59239386Y-90288868D01*
X59239893Y-90289207D01*
X59335793Y-90385107D01*
X59335795Y-90385110D01*
X59411139Y-90497870D01*
X59463042Y-90623175D01*
X59489500Y-90756187D01*
X59489500Y-90891813D01*
X59463042Y-91024825D01*
X59411139Y-91150130D01*
X59391311Y-91179804D01*
X59335793Y-91262893D01*
X59239893Y-91358793D01*
X59239890Y-91358795D01*
X59127130Y-91434139D01*
X59064477Y-91460091D01*
X59001828Y-91486041D01*
X59001827Y-91486041D01*
X59001825Y-91486042D01*
X58868813Y-91512500D01*
X58733187Y-91512500D01*
X58600175Y-91486042D01*
X58600173Y-91486041D01*
X58600172Y-91486041D01*
X58537523Y-91460091D01*
X58474870Y-91434139D01*
X58362110Y-91358795D01*
X58362107Y-91358793D01*
X58266207Y-91262893D01*
X58210689Y-91179804D01*
X58190861Y-91150130D01*
X58138958Y-91024825D01*
X58112500Y-90891813D01*
X58112500Y-90756187D01*
X58138958Y-90623175D01*
X58190861Y-90497870D01*
X58266205Y-90385110D01*
X58266207Y-90385107D01*
X58362107Y-90289207D01*
X58362614Y-90288868D01*
X58474870Y-90213861D01*
X58537522Y-90187910D01*
X58600172Y-90161959D01*
X58600173Y-90161959D01*
X58600175Y-90161958D01*
X58733187Y-90135500D01*
X58868813Y-90135500D01*
X59001825Y-90161958D01*
G37*
G36*
X62029500Y-91512500D02*
G01*
X60652500Y-91512500D01*
X60652500Y-90135500D01*
X62029500Y-90135500D01*
X62029500Y-91512500D01*
G37*
G36*
X129974500Y-91512500D02*
G01*
X128597500Y-91512500D01*
X128597500Y-90135500D01*
X129974500Y-90135500D01*
X129974500Y-91512500D01*
G37*
G36*
X126946825Y-90161958D02*
G01*
X126946827Y-90161959D01*
X126946828Y-90161959D01*
X127009478Y-90187910D01*
X127072130Y-90213861D01*
X127184386Y-90288868D01*
X127184893Y-90289207D01*
X127280793Y-90385107D01*
X127280795Y-90385110D01*
X127356139Y-90497870D01*
X127408042Y-90623175D01*
X127434500Y-90756187D01*
X127434500Y-90891813D01*
X127408042Y-91024825D01*
X127356139Y-91150130D01*
X127336311Y-91179804D01*
X127280793Y-91262893D01*
X127184893Y-91358793D01*
X127184890Y-91358795D01*
X127072130Y-91434139D01*
X127009477Y-91460091D01*
X126946828Y-91486041D01*
X126946827Y-91486041D01*
X126946825Y-91486042D01*
X126813813Y-91512500D01*
X126678187Y-91512500D01*
X126545175Y-91486042D01*
X126545173Y-91486041D01*
X126545172Y-91486041D01*
X126482523Y-91460091D01*
X126419870Y-91434139D01*
X126307110Y-91358795D01*
X126307107Y-91358793D01*
X126211207Y-91262893D01*
X126155689Y-91179804D01*
X126135861Y-91150130D01*
X126083958Y-91024825D01*
X126057500Y-90891813D01*
X126057500Y-90756187D01*
X126083958Y-90623175D01*
X126135861Y-90497870D01*
X126211205Y-90385110D01*
X126211207Y-90385107D01*
X126307107Y-90289207D01*
X126307614Y-90288868D01*
X126419870Y-90213861D01*
X126482522Y-90187910D01*
X126545172Y-90161959D01*
X126545173Y-90161959D01*
X126545175Y-90161958D01*
X126678187Y-90135500D01*
X126813813Y-90135500D01*
X126946825Y-90161958D01*
G37*
G36*
X72603870Y-82638786D02*
G01*
X72714779Y-82672430D01*
X72805053Y-82699814D01*
X72809529Y-82701172D01*
X72966165Y-82784896D01*
X72999059Y-82802478D01*
X73165186Y-82938814D01*
X73301522Y-83104941D01*
X73301525Y-83104945D01*
X73402828Y-83294470D01*
X73465214Y-83500129D01*
X73481000Y-83660409D01*
X73481000Y-85287591D01*
X73465214Y-85447871D01*
X73402828Y-85653530D01*
X73301525Y-85843055D01*
X73301523Y-85843058D01*
X73301522Y-85843059D01*
X73165186Y-86009186D01*
X73037583Y-86113906D01*
X72999055Y-86145525D01*
X72809530Y-86246828D01*
X72809527Y-86246829D01*
X72798058Y-86250308D01*
X72603871Y-86309214D01*
X72390000Y-86330278D01*
X72176130Y-86309214D01*
X71981943Y-86250308D01*
X71970474Y-86246829D01*
X71970471Y-86246828D01*
X71780946Y-86145525D01*
X71742418Y-86113906D01*
X71614815Y-86009186D01*
X71478479Y-85843059D01*
X71478478Y-85843058D01*
X71478476Y-85843055D01*
X71377171Y-85653527D01*
X71314786Y-85447874D01*
X71299000Y-85287591D01*
X71299000Y-83660410D01*
X71314786Y-83500130D01*
X71377172Y-83294471D01*
X71478477Y-83104943D01*
X71478478Y-83104941D01*
X71614814Y-82938814D01*
X71780941Y-82802478D01*
X71780942Y-82802477D01*
X71780945Y-82802475D01*
X71970470Y-82701172D01*
X71974947Y-82699814D01*
X72065220Y-82672430D01*
X72176129Y-82638786D01*
X72390000Y-82617722D01*
X72603870Y-82638786D01*
G37*
G36*
X120990870Y-82638786D02*
G01*
X121101779Y-82672430D01*
X121192053Y-82699814D01*
X121196529Y-82701172D01*
X121353165Y-82784896D01*
X121386059Y-82802478D01*
X121552186Y-82938814D01*
X121688522Y-83104941D01*
X121688525Y-83104945D01*
X121789828Y-83294470D01*
X121852214Y-83500129D01*
X121868000Y-83660409D01*
X121868000Y-85287591D01*
X121852214Y-85447871D01*
X121789828Y-85653530D01*
X121688525Y-85843055D01*
X121688523Y-85843058D01*
X121688522Y-85843059D01*
X121552186Y-86009186D01*
X121424583Y-86113906D01*
X121386055Y-86145525D01*
X121196530Y-86246828D01*
X121196527Y-86246829D01*
X121185058Y-86250308D01*
X120990871Y-86309214D01*
X120777000Y-86330278D01*
X120563130Y-86309214D01*
X120368943Y-86250308D01*
X120357474Y-86246829D01*
X120357471Y-86246828D01*
X120167946Y-86145525D01*
X120129418Y-86113906D01*
X120001815Y-86009186D01*
X119865479Y-85843059D01*
X119865478Y-85843058D01*
X119865476Y-85843055D01*
X119764171Y-85653527D01*
X119701786Y-85447874D01*
X119686000Y-85287591D01*
X119686000Y-83660410D01*
X119701786Y-83500130D01*
X119764172Y-83294471D01*
X119865477Y-83104943D01*
X119865478Y-83104941D01*
X120001814Y-82938814D01*
X120167941Y-82802478D01*
X120167942Y-82802477D01*
X120167945Y-82802475D01*
X120357470Y-82701172D01*
X120361947Y-82699814D01*
X120452220Y-82672430D01*
X120563129Y-82638786D01*
X120777000Y-82617722D01*
X120990870Y-82638786D01*
G37*
G36*
X68266217Y-82626808D02*
G01*
X68297489Y-82636294D01*
X68326308Y-82651698D01*
X68351570Y-82672430D01*
X68372302Y-82697692D01*
X68387706Y-82726511D01*
X68397192Y-82757783D01*
X68401000Y-82796448D01*
X68401000Y-86151552D01*
X68397192Y-86190217D01*
X68387706Y-86221489D01*
X68372302Y-86250308D01*
X68351570Y-86275570D01*
X68326308Y-86296302D01*
X68297489Y-86311706D01*
X68266217Y-86321192D01*
X68227552Y-86325000D01*
X66392448Y-86325000D01*
X66353783Y-86321192D01*
X66322511Y-86311706D01*
X66293692Y-86296302D01*
X66268430Y-86275570D01*
X66247698Y-86250308D01*
X66232294Y-86221489D01*
X66222808Y-86190217D01*
X66219000Y-86151552D01*
X66219000Y-82796448D01*
X66222808Y-82757783D01*
X66232294Y-82726511D01*
X66247698Y-82697692D01*
X66268430Y-82672430D01*
X66293692Y-82651698D01*
X66322511Y-82636294D01*
X66353783Y-82626808D01*
X66392448Y-82623000D01*
X68227552Y-82623000D01*
X68266217Y-82626808D01*
G37*
G36*
X116653217Y-82626808D02*
G01*
X116684489Y-82636294D01*
X116713308Y-82651698D01*
X116738570Y-82672430D01*
X116759302Y-82697692D01*
X116774706Y-82726511D01*
X116784192Y-82757783D01*
X116788000Y-82796448D01*
X116788000Y-86151552D01*
X116784192Y-86190217D01*
X116774706Y-86221489D01*
X116759302Y-86250308D01*
X116738570Y-86275570D01*
X116713308Y-86296302D01*
X116684489Y-86311706D01*
X116653217Y-86321192D01*
X116614552Y-86325000D01*
X114779448Y-86325000D01*
X114740783Y-86321192D01*
X114709511Y-86311706D01*
X114680692Y-86296302D01*
X114655430Y-86275570D01*
X114634698Y-86250308D01*
X114619294Y-86221489D01*
X114609808Y-86190217D01*
X114606000Y-86151552D01*
X114606000Y-82796448D01*
X114609808Y-82757783D01*
X114619294Y-82726511D01*
X114634698Y-82697692D01*
X114655430Y-82672430D01*
X114680692Y-82651698D01*
X114709511Y-82636294D01*
X114740783Y-82626808D01*
X114779448Y-82623000D01*
X116614552Y-82623000D01*
X116653217Y-82626808D01*
G37*
G36*
X59613425Y-83163760D02*
G01*
X59613428Y-83163761D01*
X59613429Y-83163761D01*
X59792693Y-83218140D01*
X59792696Y-83218142D01*
X59792697Y-83218142D01*
X59957903Y-83306446D01*
X60102712Y-83425288D01*
X60221554Y-83570097D01*
X60309858Y-83735303D01*
X60309860Y-83735307D01*
X60364239Y-83914571D01*
X60364240Y-83914575D01*
X60382601Y-84101000D01*
X60364240Y-84287425D01*
X60364239Y-84287428D01*
X60364239Y-84287429D01*
X60309860Y-84466693D01*
X60309858Y-84466696D01*
X60309858Y-84466697D01*
X60221554Y-84631903D01*
X60102712Y-84776712D01*
X59957903Y-84895554D01*
X59792697Y-84983858D01*
X59792693Y-84983860D01*
X59613429Y-85038239D01*
X59613428Y-85038239D01*
X59613425Y-85038240D01*
X59473718Y-85052000D01*
X57580282Y-85052000D01*
X57440575Y-85038240D01*
X57440572Y-85038239D01*
X57440571Y-85038239D01*
X57261307Y-84983860D01*
X57261303Y-84983858D01*
X57096097Y-84895554D01*
X56951288Y-84776712D01*
X56832446Y-84631903D01*
X56744142Y-84466697D01*
X56744142Y-84466696D01*
X56744140Y-84466693D01*
X56689761Y-84287429D01*
X56689761Y-84287428D01*
X56689760Y-84287425D01*
X56671399Y-84101000D01*
X56689760Y-83914575D01*
X56689761Y-83914571D01*
X56744140Y-83735307D01*
X56744142Y-83735303D01*
X56832446Y-83570097D01*
X56951288Y-83425288D01*
X57096097Y-83306446D01*
X57261303Y-83218142D01*
X57261304Y-83218142D01*
X57261307Y-83218140D01*
X57440571Y-83163761D01*
X57440572Y-83163761D01*
X57440575Y-83163760D01*
X57580282Y-83150000D01*
X59473718Y-83150000D01*
X59613425Y-83163760D01*
G37*
G36*
X60237915Y-79653934D02*
G01*
X60270424Y-79663795D01*
X60300382Y-79679809D01*
X60326641Y-79701359D01*
X60348191Y-79727618D01*
X60364205Y-79757576D01*
X60374066Y-79790085D01*
X60378000Y-79830029D01*
X60378000Y-81371971D01*
X60374066Y-81411915D01*
X60364205Y-81444424D01*
X60348191Y-81474382D01*
X60326641Y-81500641D01*
X60300382Y-81522191D01*
X60270424Y-81538205D01*
X60237915Y-81548066D01*
X60197971Y-81552000D01*
X56856029Y-81552000D01*
X56816085Y-81548066D01*
X56783576Y-81538205D01*
X56753618Y-81522191D01*
X56727359Y-81500641D01*
X56705809Y-81474382D01*
X56689795Y-81444424D01*
X56679934Y-81411915D01*
X56676000Y-81371971D01*
X56676000Y-79830029D01*
X56679934Y-79790085D01*
X56689795Y-79757576D01*
X56705809Y-79727618D01*
X56727359Y-79701359D01*
X56753618Y-79679809D01*
X56783576Y-79663795D01*
X56816085Y-79653934D01*
X56856029Y-79650000D01*
X60197971Y-79650000D01*
X60237915Y-79653934D01*
G37*
G36*
X120990870Y-75780786D02*
G01*
X121101779Y-75814430D01*
X121192053Y-75841814D01*
X121196529Y-75843172D01*
X121353165Y-75926896D01*
X121386059Y-75944478D01*
X121552186Y-76080814D01*
X121688522Y-76246941D01*
X121688525Y-76246945D01*
X121789828Y-76436470D01*
X121852214Y-76642129D01*
X121868000Y-76802409D01*
X121868000Y-78429591D01*
X121852214Y-78589871D01*
X121789828Y-78795530D01*
X121688525Y-78985055D01*
X121688523Y-78985058D01*
X121688522Y-78985059D01*
X121552186Y-79151186D01*
X121424583Y-79255906D01*
X121386055Y-79287525D01*
X121196530Y-79388828D01*
X121196527Y-79388829D01*
X121185058Y-79392308D01*
X120990871Y-79451214D01*
X120777000Y-79472278D01*
X120563130Y-79451214D01*
X120368943Y-79392308D01*
X120357474Y-79388829D01*
X120357471Y-79388828D01*
X120167946Y-79287525D01*
X120129418Y-79255906D01*
X120001815Y-79151186D01*
X119865479Y-78985059D01*
X119865478Y-78985058D01*
X119865476Y-78985055D01*
X119764171Y-78795527D01*
X119701786Y-78589874D01*
X119686000Y-78429591D01*
X119686000Y-76802410D01*
X119701786Y-76642130D01*
X119764172Y-76436471D01*
X119865477Y-76246943D01*
X119865478Y-76246941D01*
X120001814Y-76080814D01*
X120167941Y-75944478D01*
X120167942Y-75944477D01*
X120167945Y-75944475D01*
X120357470Y-75843172D01*
X120361947Y-75841814D01*
X120452220Y-75814430D01*
X120563129Y-75780786D01*
X120777000Y-75759722D01*
X120990870Y-75780786D01*
G37*
G36*
X72603870Y-75780786D02*
G01*
X72714779Y-75814430D01*
X72805053Y-75841814D01*
X72809529Y-75843172D01*
X72966165Y-75926896D01*
X72999059Y-75944478D01*
X73165186Y-76080814D01*
X73301522Y-76246941D01*
X73301525Y-76246945D01*
X73402828Y-76436470D01*
X73465214Y-76642129D01*
X73481000Y-76802409D01*
X73481000Y-78429591D01*
X73465214Y-78589871D01*
X73402828Y-78795530D01*
X73301525Y-78985055D01*
X73301523Y-78985058D01*
X73301522Y-78985059D01*
X73165186Y-79151186D01*
X73037583Y-79255906D01*
X72999055Y-79287525D01*
X72809530Y-79388828D01*
X72809527Y-79388829D01*
X72798058Y-79392308D01*
X72603871Y-79451214D01*
X72390000Y-79472278D01*
X72176130Y-79451214D01*
X71981943Y-79392308D01*
X71970474Y-79388829D01*
X71970471Y-79388828D01*
X71780946Y-79287525D01*
X71742418Y-79255906D01*
X71614815Y-79151186D01*
X71478479Y-78985059D01*
X71478478Y-78985058D01*
X71478476Y-78985055D01*
X71377171Y-78795527D01*
X71314786Y-78589874D01*
X71299000Y-78429591D01*
X71299000Y-76802410D01*
X71314786Y-76642130D01*
X71377172Y-76436471D01*
X71478477Y-76246943D01*
X71478478Y-76246941D01*
X71614814Y-76080814D01*
X71780941Y-75944478D01*
X71780942Y-75944477D01*
X71780945Y-75944475D01*
X71970470Y-75843172D01*
X71974947Y-75841814D01*
X72065220Y-75814430D01*
X72176129Y-75780786D01*
X72390000Y-75759722D01*
X72603870Y-75780786D01*
G37*
G36*
X68266217Y-75768808D02*
G01*
X68297489Y-75778294D01*
X68326308Y-75793698D01*
X68351570Y-75814430D01*
X68372302Y-75839692D01*
X68387706Y-75868511D01*
X68397192Y-75899783D01*
X68401000Y-75938448D01*
X68401000Y-79293552D01*
X68397192Y-79332217D01*
X68387706Y-79363489D01*
X68372302Y-79392308D01*
X68351570Y-79417570D01*
X68326308Y-79438302D01*
X68297489Y-79453706D01*
X68266217Y-79463192D01*
X68227552Y-79467000D01*
X66392448Y-79467000D01*
X66353783Y-79463192D01*
X66322511Y-79453706D01*
X66293692Y-79438302D01*
X66268430Y-79417570D01*
X66247698Y-79392308D01*
X66232294Y-79363489D01*
X66222808Y-79332217D01*
X66219000Y-79293552D01*
X66219000Y-75938448D01*
X66222808Y-75899783D01*
X66232294Y-75868511D01*
X66247698Y-75839692D01*
X66268430Y-75814430D01*
X66293692Y-75793698D01*
X66322511Y-75778294D01*
X66353783Y-75768808D01*
X66392448Y-75765000D01*
X68227552Y-75765000D01*
X68266217Y-75768808D01*
G37*
G36*
X116653217Y-75768808D02*
G01*
X116684489Y-75778294D01*
X116713308Y-75793698D01*
X116738570Y-75814430D01*
X116759302Y-75839692D01*
X116774706Y-75868511D01*
X116784192Y-75899783D01*
X116788000Y-75938448D01*
X116788000Y-79293552D01*
X116784192Y-79332217D01*
X116774706Y-79363489D01*
X116759302Y-79392308D01*
X116738570Y-79417570D01*
X116713308Y-79438302D01*
X116684489Y-79453706D01*
X116653217Y-79463192D01*
X116614552Y-79467000D01*
X114779448Y-79467000D01*
X114740783Y-79463192D01*
X114709511Y-79453706D01*
X114680692Y-79438302D01*
X114655430Y-79417570D01*
X114634698Y-79392308D01*
X114619294Y-79363489D01*
X114609808Y-79332217D01*
X114606000Y-79293552D01*
X114606000Y-75938448D01*
X114609808Y-75899783D01*
X114619294Y-75868511D01*
X114634698Y-75839692D01*
X114655430Y-75814430D01*
X114680692Y-75793698D01*
X114709511Y-75778294D01*
X114740783Y-75768808D01*
X114779448Y-75765000D01*
X116614552Y-75765000D01*
X116653217Y-75768808D01*
G37*
G36*
X59613425Y-73563760D02*
G01*
X59613428Y-73563761D01*
X59613429Y-73563761D01*
X59792693Y-73618140D01*
X59792696Y-73618142D01*
X59792697Y-73618142D01*
X59957903Y-73706446D01*
X60102712Y-73825288D01*
X60221554Y-73970097D01*
X60309858Y-74135303D01*
X60309860Y-74135307D01*
X60364239Y-74314571D01*
X60364240Y-74314575D01*
X60382601Y-74501000D01*
X60364240Y-74687425D01*
X60364239Y-74687428D01*
X60364239Y-74687429D01*
X60309860Y-74866693D01*
X60309858Y-74866696D01*
X60309858Y-74866697D01*
X60221554Y-75031903D01*
X60102712Y-75176712D01*
X59957903Y-75295554D01*
X59792697Y-75383858D01*
X59792693Y-75383860D01*
X59613429Y-75438239D01*
X59613428Y-75438239D01*
X59613425Y-75438240D01*
X59473718Y-75452000D01*
X57580282Y-75452000D01*
X57440575Y-75438240D01*
X57440572Y-75438239D01*
X57440571Y-75438239D01*
X57261307Y-75383860D01*
X57261303Y-75383858D01*
X57096097Y-75295554D01*
X56951288Y-75176712D01*
X56832446Y-75031903D01*
X56744142Y-74866697D01*
X56744142Y-74866696D01*
X56744140Y-74866693D01*
X56689761Y-74687429D01*
X56689761Y-74687428D01*
X56689760Y-74687425D01*
X56671399Y-74501000D01*
X56689760Y-74314575D01*
X56689761Y-74314571D01*
X56744140Y-74135307D01*
X56744142Y-74135303D01*
X56832446Y-73970097D01*
X56951288Y-73825288D01*
X57096097Y-73706446D01*
X57261303Y-73618142D01*
X57261304Y-73618142D01*
X57261307Y-73618140D01*
X57440571Y-73563761D01*
X57440572Y-73563761D01*
X57440575Y-73563760D01*
X57580282Y-73550000D01*
X59473718Y-73550000D01*
X59613425Y-73563760D01*
G37*
G36*
X60237915Y-70053934D02*
G01*
X60270424Y-70063795D01*
X60300382Y-70079809D01*
X60326641Y-70101359D01*
X60348191Y-70127618D01*
X60364205Y-70157576D01*
X60374066Y-70190085D01*
X60378000Y-70230029D01*
X60378000Y-71771971D01*
X60374066Y-71811915D01*
X60364205Y-71844424D01*
X60348191Y-71874382D01*
X60326641Y-71900641D01*
X60300382Y-71922191D01*
X60270424Y-71938205D01*
X60237915Y-71948066D01*
X60197971Y-71952000D01*
X56856029Y-71952000D01*
X56816085Y-71948066D01*
X56783576Y-71938205D01*
X56753618Y-71922191D01*
X56727359Y-71900641D01*
X56705809Y-71874382D01*
X56689795Y-71844424D01*
X56679934Y-71811915D01*
X56676000Y-71771971D01*
X56676000Y-70230029D01*
X56679934Y-70190085D01*
X56689795Y-70157576D01*
X56705809Y-70127618D01*
X56727359Y-70101359D01*
X56753618Y-70079809D01*
X56783576Y-70063795D01*
X56816085Y-70053934D01*
X56856029Y-70050000D01*
X60197971Y-70050000D01*
X60237915Y-70053934D01*
G37*
G36*
X59620725Y-63979960D02*
G01*
X59620728Y-63979961D01*
X59620729Y-63979961D01*
X59799993Y-64034340D01*
X59799996Y-64034342D01*
X59799997Y-64034342D01*
X59965203Y-64122646D01*
X60110012Y-64241488D01*
X60228854Y-64386297D01*
X60317158Y-64551503D01*
X60317160Y-64551507D01*
X60371539Y-64730771D01*
X60371540Y-64730775D01*
X60389901Y-64917200D01*
X60371540Y-65103625D01*
X60371539Y-65103628D01*
X60371539Y-65103629D01*
X60317160Y-65282893D01*
X60317158Y-65282896D01*
X60317158Y-65282897D01*
X60228854Y-65448103D01*
X60110012Y-65592912D01*
X59965203Y-65711754D01*
X59799997Y-65800058D01*
X59799993Y-65800060D01*
X59620729Y-65854439D01*
X59620728Y-65854439D01*
X59620725Y-65854440D01*
X59481018Y-65868200D01*
X57587582Y-65868200D01*
X57447875Y-65854440D01*
X57447872Y-65854439D01*
X57447871Y-65854439D01*
X57268607Y-65800060D01*
X57268603Y-65800058D01*
X57103397Y-65711754D01*
X56958588Y-65592912D01*
X56839746Y-65448103D01*
X56751442Y-65282897D01*
X56751442Y-65282896D01*
X56751440Y-65282893D01*
X56697061Y-65103629D01*
X56697061Y-65103628D01*
X56697060Y-65103625D01*
X56678699Y-64917200D01*
X56697060Y-64730775D01*
X56697061Y-64730771D01*
X56751440Y-64551507D01*
X56751442Y-64551503D01*
X56839746Y-64386297D01*
X56958588Y-64241488D01*
X57103397Y-64122646D01*
X57268603Y-64034342D01*
X57268604Y-64034342D01*
X57268607Y-64034340D01*
X57447871Y-63979961D01*
X57447872Y-63979961D01*
X57447875Y-63979960D01*
X57587582Y-63966200D01*
X59481018Y-63966200D01*
X59620725Y-63979960D01*
G37*
G36*
X86848191Y-58723466D02*
G01*
X86959100Y-58757110D01*
X87049374Y-58784494D01*
X87053850Y-58785852D01*
X87243375Y-58887155D01*
X87243378Y-58887157D01*
X87243379Y-58887158D01*
X87409506Y-59023494D01*
X87545842Y-59189621D01*
X87545845Y-59189625D01*
X87647148Y-59379150D01*
X87709534Y-59584809D01*
X87725320Y-59745089D01*
X87725320Y-61372271D01*
X87709534Y-61532551D01*
X87647148Y-61738210D01*
X87545845Y-61927735D01*
X87545843Y-61927737D01*
X87545842Y-61927739D01*
X87409506Y-62093866D01*
X87243379Y-62230202D01*
X87243377Y-62230203D01*
X87053849Y-62331508D01*
X87053846Y-62331509D01*
X87042377Y-62334988D01*
X86848190Y-62393894D01*
X86634320Y-62414958D01*
X86420449Y-62393894D01*
X86226262Y-62334988D01*
X86214793Y-62331509D01*
X86214790Y-62331508D01*
X86025265Y-62230205D01*
X85974046Y-62188171D01*
X85859134Y-62093866D01*
X85722798Y-61927739D01*
X85621493Y-61738210D01*
X85621492Y-61738209D01*
X85559106Y-61532550D01*
X85543320Y-61372270D01*
X85543320Y-59745089D01*
X85559106Y-59584806D01*
X85621491Y-59379153D01*
X85722796Y-59189625D01*
X85722799Y-59189621D01*
X85859135Y-59023494D01*
X86025262Y-58887158D01*
X86025263Y-58887157D01*
X86025266Y-58887155D01*
X86214791Y-58785852D01*
X86219268Y-58784494D01*
X86309541Y-58757110D01*
X86420450Y-58723466D01*
X86634320Y-58702402D01*
X86848191Y-58723466D01*
G37*
G36*
X73635111Y-58723466D02*
G01*
X73746020Y-58757110D01*
X73836294Y-58784494D01*
X73840770Y-58785852D01*
X74030295Y-58887155D01*
X74030298Y-58887157D01*
X74030299Y-58887158D01*
X74196426Y-59023494D01*
X74332762Y-59189621D01*
X74332765Y-59189625D01*
X74434068Y-59379150D01*
X74496454Y-59584809D01*
X74512240Y-59745089D01*
X74512240Y-61372271D01*
X74496454Y-61532551D01*
X74434068Y-61738210D01*
X74332765Y-61927735D01*
X74332763Y-61927737D01*
X74332762Y-61927739D01*
X74196426Y-62093866D01*
X74030299Y-62230202D01*
X74030297Y-62230203D01*
X73840769Y-62331508D01*
X73840766Y-62331509D01*
X73829297Y-62334988D01*
X73635110Y-62393894D01*
X73421240Y-62414958D01*
X73207369Y-62393894D01*
X73013182Y-62334988D01*
X73001713Y-62331509D01*
X73001710Y-62331508D01*
X72812185Y-62230205D01*
X72760966Y-62188171D01*
X72646054Y-62093866D01*
X72509718Y-61927739D01*
X72408413Y-61738210D01*
X72408412Y-61738209D01*
X72346026Y-61532550D01*
X72330240Y-61372270D01*
X72330240Y-59745089D01*
X72346026Y-59584806D01*
X72408411Y-59379153D01*
X72509716Y-59189625D01*
X72509719Y-59189621D01*
X72646055Y-59023494D01*
X72812182Y-58887158D01*
X72812183Y-58887157D01*
X72812186Y-58887155D01*
X73001711Y-58785852D01*
X73006188Y-58784494D01*
X73096461Y-58757110D01*
X73207370Y-58723466D01*
X73421240Y-58702402D01*
X73635111Y-58723466D01*
G37*
G36*
X100061271Y-58723466D02*
G01*
X100172180Y-58757110D01*
X100262454Y-58784494D01*
X100266930Y-58785852D01*
X100456455Y-58887155D01*
X100456458Y-58887157D01*
X100456459Y-58887158D01*
X100622586Y-59023494D01*
X100758922Y-59189621D01*
X100758925Y-59189625D01*
X100860228Y-59379150D01*
X100922614Y-59584809D01*
X100938400Y-59745089D01*
X100938400Y-61372271D01*
X100922614Y-61532551D01*
X100860228Y-61738210D01*
X100758925Y-61927735D01*
X100758923Y-61927737D01*
X100758922Y-61927739D01*
X100622586Y-62093866D01*
X100456459Y-62230202D01*
X100456457Y-62230203D01*
X100266929Y-62331508D01*
X100266926Y-62331509D01*
X100255457Y-62334988D01*
X100061270Y-62393894D01*
X99847400Y-62414958D01*
X99633529Y-62393894D01*
X99439342Y-62334988D01*
X99427873Y-62331509D01*
X99427870Y-62331508D01*
X99238345Y-62230205D01*
X99187126Y-62188171D01*
X99072214Y-62093866D01*
X98935878Y-61927739D01*
X98834573Y-61738210D01*
X98834572Y-61738209D01*
X98772186Y-61532550D01*
X98756400Y-61372270D01*
X98756400Y-59745089D01*
X98772186Y-59584806D01*
X98834571Y-59379153D01*
X98935876Y-59189625D01*
X98935879Y-59189621D01*
X99072215Y-59023494D01*
X99238342Y-58887158D01*
X99238343Y-58887157D01*
X99238346Y-58887155D01*
X99427871Y-58785852D01*
X99432348Y-58784494D01*
X99522621Y-58757110D01*
X99633530Y-58723466D01*
X99847400Y-58702402D01*
X100061271Y-58723466D01*
G37*
G36*
X113264191Y-58723466D02*
G01*
X113375100Y-58757110D01*
X113465374Y-58784494D01*
X113469850Y-58785852D01*
X113659375Y-58887155D01*
X113659378Y-58887157D01*
X113659379Y-58887158D01*
X113825506Y-59023494D01*
X113961842Y-59189621D01*
X113961845Y-59189625D01*
X114063148Y-59379150D01*
X114125534Y-59584809D01*
X114141320Y-59745089D01*
X114141320Y-61372271D01*
X114125534Y-61532551D01*
X114063148Y-61738210D01*
X113961845Y-61927735D01*
X113961843Y-61927737D01*
X113961842Y-61927739D01*
X113825506Y-62093866D01*
X113659379Y-62230202D01*
X113659377Y-62230203D01*
X113469849Y-62331508D01*
X113469846Y-62331509D01*
X113458377Y-62334988D01*
X113264190Y-62393894D01*
X113050320Y-62414958D01*
X112836449Y-62393894D01*
X112642262Y-62334988D01*
X112630793Y-62331509D01*
X112630790Y-62331508D01*
X112441265Y-62230205D01*
X112390046Y-62188171D01*
X112275134Y-62093866D01*
X112138798Y-61927739D01*
X112037493Y-61738210D01*
X112037492Y-61738209D01*
X111975106Y-61532550D01*
X111959320Y-61372270D01*
X111959320Y-59745089D01*
X111975106Y-59584806D01*
X112037491Y-59379153D01*
X112138796Y-59189625D01*
X112138799Y-59189621D01*
X112275135Y-59023494D01*
X112441262Y-58887158D01*
X112441263Y-58887157D01*
X112441266Y-58887155D01*
X112630791Y-58785852D01*
X112635268Y-58784494D01*
X112725541Y-58757110D01*
X112836450Y-58723466D01*
X113050320Y-58702402D01*
X113264191Y-58723466D01*
G37*
G36*
X79457457Y-58711488D02*
G01*
X79488729Y-58720974D01*
X79517548Y-58736378D01*
X79542810Y-58757110D01*
X79563542Y-58782372D01*
X79578946Y-58811191D01*
X79588432Y-58842463D01*
X79592240Y-58881128D01*
X79592240Y-62236232D01*
X79588432Y-62274897D01*
X79578946Y-62306169D01*
X79563542Y-62334988D01*
X79542810Y-62360250D01*
X79517548Y-62380982D01*
X79488729Y-62396386D01*
X79457457Y-62405872D01*
X79418792Y-62409680D01*
X77583688Y-62409680D01*
X77545023Y-62405872D01*
X77513751Y-62396386D01*
X77484932Y-62380982D01*
X77459670Y-62360250D01*
X77438938Y-62334988D01*
X77423534Y-62306169D01*
X77414048Y-62274897D01*
X77410240Y-62236232D01*
X77410240Y-58881128D01*
X77414048Y-58842463D01*
X77423534Y-58811191D01*
X77438938Y-58782372D01*
X77459670Y-58757110D01*
X77484932Y-58736378D01*
X77513751Y-58720974D01*
X77545023Y-58711488D01*
X77583688Y-58707680D01*
X79418792Y-58707680D01*
X79457457Y-58711488D01*
G37*
G36*
X92670537Y-58711488D02*
G01*
X92701809Y-58720974D01*
X92730628Y-58736378D01*
X92755890Y-58757110D01*
X92776622Y-58782372D01*
X92792026Y-58811191D01*
X92801512Y-58842463D01*
X92805320Y-58881128D01*
X92805320Y-62236232D01*
X92801512Y-62274897D01*
X92792026Y-62306169D01*
X92776622Y-62334988D01*
X92755890Y-62360250D01*
X92730628Y-62380982D01*
X92701809Y-62396386D01*
X92670537Y-62405872D01*
X92631872Y-62409680D01*
X90796768Y-62409680D01*
X90758103Y-62405872D01*
X90726831Y-62396386D01*
X90698012Y-62380982D01*
X90672750Y-62360250D01*
X90652018Y-62334988D01*
X90636614Y-62306169D01*
X90627128Y-62274897D01*
X90623320Y-62236232D01*
X90623320Y-58881128D01*
X90627128Y-58842463D01*
X90636614Y-58811191D01*
X90652018Y-58782372D01*
X90672750Y-58757110D01*
X90698012Y-58736378D01*
X90726831Y-58720974D01*
X90758103Y-58711488D01*
X90796768Y-58707680D01*
X92631872Y-58707680D01*
X92670537Y-58711488D01*
G37*
G36*
X105883617Y-58711488D02*
G01*
X105914889Y-58720974D01*
X105943708Y-58736378D01*
X105968970Y-58757110D01*
X105989702Y-58782372D01*
X106005106Y-58811191D01*
X106014592Y-58842463D01*
X106018400Y-58881128D01*
X106018400Y-62236232D01*
X106014592Y-62274897D01*
X106005106Y-62306169D01*
X105989702Y-62334988D01*
X105968970Y-62360250D01*
X105943708Y-62380982D01*
X105914889Y-62396386D01*
X105883617Y-62405872D01*
X105844952Y-62409680D01*
X104009848Y-62409680D01*
X103971183Y-62405872D01*
X103939911Y-62396386D01*
X103911092Y-62380982D01*
X103885830Y-62360250D01*
X103865098Y-62334988D01*
X103849694Y-62306169D01*
X103840208Y-62274897D01*
X103836400Y-62236232D01*
X103836400Y-58881128D01*
X103840208Y-58842463D01*
X103849694Y-58811191D01*
X103865098Y-58782372D01*
X103885830Y-58757110D01*
X103911092Y-58736378D01*
X103939911Y-58720974D01*
X103971183Y-58711488D01*
X104009848Y-58707680D01*
X105844952Y-58707680D01*
X105883617Y-58711488D01*
G37*
G36*
X119086537Y-58711488D02*
G01*
X119117809Y-58720974D01*
X119146628Y-58736378D01*
X119171890Y-58757110D01*
X119192622Y-58782372D01*
X119208026Y-58811191D01*
X119217512Y-58842463D01*
X119221320Y-58881128D01*
X119221320Y-62236232D01*
X119217512Y-62274897D01*
X119208026Y-62306169D01*
X119192622Y-62334988D01*
X119171890Y-62360250D01*
X119146628Y-62380982D01*
X119117809Y-62396386D01*
X119086537Y-62405872D01*
X119047872Y-62409680D01*
X117212768Y-62409680D01*
X117174103Y-62405872D01*
X117142831Y-62396386D01*
X117114012Y-62380982D01*
X117088750Y-62360250D01*
X117068018Y-62334988D01*
X117052614Y-62306169D01*
X117043128Y-62274897D01*
X117039320Y-62236232D01*
X117039320Y-58881128D01*
X117043128Y-58842463D01*
X117052614Y-58811191D01*
X117068018Y-58782372D01*
X117088750Y-58757110D01*
X117114012Y-58736378D01*
X117142831Y-58720974D01*
X117174103Y-58711488D01*
X117212768Y-58707680D01*
X119047872Y-58707680D01*
X119086537Y-58711488D01*
G37*
G36*
X60245215Y-60470134D02*
G01*
X60277724Y-60479995D01*
X60307682Y-60496009D01*
X60333941Y-60517559D01*
X60355491Y-60543818D01*
X60371505Y-60573776D01*
X60381366Y-60606285D01*
X60385300Y-60646229D01*
X60385300Y-62188171D01*
X60381366Y-62228115D01*
X60371505Y-62260624D01*
X60355491Y-62290582D01*
X60333941Y-62316841D01*
X60307682Y-62338391D01*
X60277724Y-62354405D01*
X60245215Y-62364266D01*
X60205271Y-62368200D01*
X56863329Y-62368200D01*
X56823385Y-62364266D01*
X56790876Y-62354405D01*
X56760918Y-62338391D01*
X56734659Y-62316841D01*
X56713109Y-62290582D01*
X56697095Y-62260624D01*
X56687234Y-62228115D01*
X56683300Y-62188171D01*
X56683300Y-60646229D01*
X56687234Y-60606285D01*
X56697095Y-60573776D01*
X56713109Y-60543818D01*
X56734659Y-60517559D01*
X56760918Y-60496009D01*
X56790876Y-60479995D01*
X56823385Y-60470134D01*
X56863329Y-60466200D01*
X60205271Y-60466200D01*
X60245215Y-60470134D01*
G37*
G36*
X54134239Y-50311467D02*
G01*
X54448282Y-50373934D01*
X55039926Y-50619001D01*
X55572392Y-50974784D01*
X56025216Y-51427608D01*
X56380999Y-51960074D01*
X56626066Y-52551718D01*
X56751000Y-53179804D01*
X56751000Y-53820196D01*
X56626066Y-54448282D01*
X56380999Y-55039926D01*
X56025216Y-55572392D01*
X55572392Y-56025216D01*
X55039926Y-56380999D01*
X54448282Y-56626066D01*
X54134239Y-56688533D01*
X53820197Y-56751000D01*
X53179803Y-56751000D01*
X52865761Y-56688533D01*
X52551718Y-56626066D01*
X51960074Y-56380999D01*
X51427608Y-56025216D01*
X50974784Y-55572392D01*
X50619001Y-55039926D01*
X50373934Y-54448282D01*
X50249000Y-53820196D01*
X50249000Y-53179804D01*
X50373934Y-52551718D01*
X50619001Y-51960074D01*
X50974784Y-51427608D01*
X51427608Y-50974784D01*
X51960074Y-50619001D01*
X52551718Y-50373934D01*
X52865761Y-50311467D01*
X53179803Y-50249000D01*
X53820197Y-50249000D01*
X54134239Y-50311467D01*
G37*
G36*
X135134239Y-50311467D02*
G01*
X135448282Y-50373934D01*
X136039926Y-50619001D01*
X136572392Y-50974784D01*
X137025216Y-51427608D01*
X137380999Y-51960074D01*
X137626066Y-52551718D01*
X137751000Y-53179804D01*
X137751000Y-53820196D01*
X137626066Y-54448282D01*
X137380999Y-55039926D01*
X137025216Y-55572392D01*
X136572392Y-56025216D01*
X136039926Y-56380999D01*
X135448282Y-56626066D01*
X135134239Y-56688533D01*
X134820197Y-56751000D01*
X134179803Y-56751000D01*
X133865761Y-56688533D01*
X133551718Y-56626066D01*
X132960074Y-56380999D01*
X132427608Y-56025216D01*
X131974784Y-55572392D01*
X131619001Y-55039926D01*
X131373934Y-54448282D01*
X131249000Y-53820196D01*
X131249000Y-53179804D01*
X131373934Y-52551718D01*
X131619001Y-51960074D01*
X131974784Y-51427608D01*
X132427608Y-50974784D01*
X132960074Y-50619001D01*
X133551718Y-50373934D01*
X133865761Y-50311467D01*
X134179803Y-50249000D01*
X134820197Y-50249000D01*
X135134239Y-50311467D01*
G37*
M02*
