G04 #@! TF.GenerationSoftware,KiCad,Pcbnew,5.1.5-52549c5~84~ubuntu18.04.1*
G04 #@! TF.CreationDate,2020-03-04T17:14:33+01:00*
G04 #@! TF.ProjectId,hub_usb_dispatch,6875625f-7573-4625-9f64-697370617463,rev?*
G04 #@! TF.SameCoordinates,Original*
G04 #@! TF.FileFunction,Paste,Top*
G04 #@! TF.FilePolarity,Positive*
%FSLAX46Y46*%
G04 Gerber Fmt 4.6, Leading zero omitted, Abs format (unit mm)*
G04 Created by KiCad (PCBNEW 5.1.5-52549c5~84~ubuntu18.04.1) date 2020-03-04 17:14:33*
%MOMM*%
%LPD*%
G04 APERTURE LIST*
%ADD10C,0.100000*%
%ADD11R,2.500000X1.800000*%
%ADD12R,10.200000X3.500000*%
%ADD13R,1.100000X4.600000*%
%ADD14R,5.250000X4.550000*%
G04 APERTURE END LIST*
D10*
G36*
X87246542Y-69842174D02*
G01*
X87270203Y-69845684D01*
X87293407Y-69851496D01*
X87315929Y-69859554D01*
X87337553Y-69869782D01*
X87358070Y-69882079D01*
X87377283Y-69896329D01*
X87395007Y-69912393D01*
X87411071Y-69930117D01*
X87425321Y-69949330D01*
X87437618Y-69969847D01*
X87447846Y-69991471D01*
X87455904Y-70013993D01*
X87461716Y-70037197D01*
X87465226Y-70060858D01*
X87466400Y-70084750D01*
X87466400Y-70572250D01*
X87465226Y-70596142D01*
X87461716Y-70619803D01*
X87455904Y-70643007D01*
X87447846Y-70665529D01*
X87437618Y-70687153D01*
X87425321Y-70707670D01*
X87411071Y-70726883D01*
X87395007Y-70744607D01*
X87377283Y-70760671D01*
X87358070Y-70774921D01*
X87337553Y-70787218D01*
X87315929Y-70797446D01*
X87293407Y-70805504D01*
X87270203Y-70811316D01*
X87246542Y-70814826D01*
X87222650Y-70816000D01*
X86310150Y-70816000D01*
X86286258Y-70814826D01*
X86262597Y-70811316D01*
X86239393Y-70805504D01*
X86216871Y-70797446D01*
X86195247Y-70787218D01*
X86174730Y-70774921D01*
X86155517Y-70760671D01*
X86137793Y-70744607D01*
X86121729Y-70726883D01*
X86107479Y-70707670D01*
X86095182Y-70687153D01*
X86084954Y-70665529D01*
X86076896Y-70643007D01*
X86071084Y-70619803D01*
X86067574Y-70596142D01*
X86066400Y-70572250D01*
X86066400Y-70084750D01*
X86067574Y-70060858D01*
X86071084Y-70037197D01*
X86076896Y-70013993D01*
X86084954Y-69991471D01*
X86095182Y-69969847D01*
X86107479Y-69949330D01*
X86121729Y-69930117D01*
X86137793Y-69912393D01*
X86155517Y-69896329D01*
X86174730Y-69882079D01*
X86195247Y-69869782D01*
X86216871Y-69859554D01*
X86239393Y-69851496D01*
X86262597Y-69845684D01*
X86286258Y-69842174D01*
X86310150Y-69841000D01*
X87222650Y-69841000D01*
X87246542Y-69842174D01*
G37*
G36*
X87246542Y-71717174D02*
G01*
X87270203Y-71720684D01*
X87293407Y-71726496D01*
X87315929Y-71734554D01*
X87337553Y-71744782D01*
X87358070Y-71757079D01*
X87377283Y-71771329D01*
X87395007Y-71787393D01*
X87411071Y-71805117D01*
X87425321Y-71824330D01*
X87437618Y-71844847D01*
X87447846Y-71866471D01*
X87455904Y-71888993D01*
X87461716Y-71912197D01*
X87465226Y-71935858D01*
X87466400Y-71959750D01*
X87466400Y-72447250D01*
X87465226Y-72471142D01*
X87461716Y-72494803D01*
X87455904Y-72518007D01*
X87447846Y-72540529D01*
X87437618Y-72562153D01*
X87425321Y-72582670D01*
X87411071Y-72601883D01*
X87395007Y-72619607D01*
X87377283Y-72635671D01*
X87358070Y-72649921D01*
X87337553Y-72662218D01*
X87315929Y-72672446D01*
X87293407Y-72680504D01*
X87270203Y-72686316D01*
X87246542Y-72689826D01*
X87222650Y-72691000D01*
X86310150Y-72691000D01*
X86286258Y-72689826D01*
X86262597Y-72686316D01*
X86239393Y-72680504D01*
X86216871Y-72672446D01*
X86195247Y-72662218D01*
X86174730Y-72649921D01*
X86155517Y-72635671D01*
X86137793Y-72619607D01*
X86121729Y-72601883D01*
X86107479Y-72582670D01*
X86095182Y-72562153D01*
X86084954Y-72540529D01*
X86076896Y-72518007D01*
X86071084Y-72494803D01*
X86067574Y-72471142D01*
X86066400Y-72447250D01*
X86066400Y-71959750D01*
X86067574Y-71935858D01*
X86071084Y-71912197D01*
X86076896Y-71888993D01*
X86084954Y-71866471D01*
X86095182Y-71844847D01*
X86107479Y-71824330D01*
X86121729Y-71805117D01*
X86137793Y-71787393D01*
X86155517Y-71771329D01*
X86174730Y-71757079D01*
X86195247Y-71744782D01*
X86216871Y-71734554D01*
X86239393Y-71726496D01*
X86262597Y-71720684D01*
X86286258Y-71717174D01*
X86310150Y-71716000D01*
X87222650Y-71716000D01*
X87246542Y-71717174D01*
G37*
G36*
X82253704Y-76983604D02*
G01*
X82277973Y-76987204D01*
X82301771Y-76993165D01*
X82324871Y-77001430D01*
X82347049Y-77011920D01*
X82368093Y-77024533D01*
X82387798Y-77039147D01*
X82405977Y-77055623D01*
X82422453Y-77073802D01*
X82437067Y-77093507D01*
X82449680Y-77114551D01*
X82460170Y-77136729D01*
X82468435Y-77159829D01*
X82474396Y-77183627D01*
X82477996Y-77207896D01*
X82479200Y-77232400D01*
X82479200Y-80232400D01*
X82477996Y-80256904D01*
X82474396Y-80281173D01*
X82468435Y-80304971D01*
X82460170Y-80328071D01*
X82449680Y-80350249D01*
X82437067Y-80371293D01*
X82422453Y-80390998D01*
X82405977Y-80409177D01*
X82387798Y-80425653D01*
X82368093Y-80440267D01*
X82347049Y-80452880D01*
X82324871Y-80463370D01*
X82301771Y-80471635D01*
X82277973Y-80477596D01*
X82253704Y-80481196D01*
X82229200Y-80482400D01*
X80229200Y-80482400D01*
X80204696Y-80481196D01*
X80180427Y-80477596D01*
X80156629Y-80471635D01*
X80133529Y-80463370D01*
X80111351Y-80452880D01*
X80090307Y-80440267D01*
X80070602Y-80425653D01*
X80052423Y-80409177D01*
X80035947Y-80390998D01*
X80021333Y-80371293D01*
X80008720Y-80350249D01*
X79998230Y-80328071D01*
X79989965Y-80304971D01*
X79984004Y-80281173D01*
X79980404Y-80256904D01*
X79979200Y-80232400D01*
X79979200Y-77232400D01*
X79980404Y-77207896D01*
X79984004Y-77183627D01*
X79989965Y-77159829D01*
X79998230Y-77136729D01*
X80008720Y-77114551D01*
X80021333Y-77093507D01*
X80035947Y-77073802D01*
X80052423Y-77055623D01*
X80070602Y-77039147D01*
X80090307Y-77024533D01*
X80111351Y-77011920D01*
X80133529Y-77001430D01*
X80156629Y-76993165D01*
X80180427Y-76987204D01*
X80204696Y-76983604D01*
X80229200Y-76982400D01*
X82229200Y-76982400D01*
X82253704Y-76983604D01*
G37*
G36*
X82253704Y-70483604D02*
G01*
X82277973Y-70487204D01*
X82301771Y-70493165D01*
X82324871Y-70501430D01*
X82347049Y-70511920D01*
X82368093Y-70524533D01*
X82387798Y-70539147D01*
X82405977Y-70555623D01*
X82422453Y-70573802D01*
X82437067Y-70593507D01*
X82449680Y-70614551D01*
X82460170Y-70636729D01*
X82468435Y-70659829D01*
X82474396Y-70683627D01*
X82477996Y-70707896D01*
X82479200Y-70732400D01*
X82479200Y-73732400D01*
X82477996Y-73756904D01*
X82474396Y-73781173D01*
X82468435Y-73804971D01*
X82460170Y-73828071D01*
X82449680Y-73850249D01*
X82437067Y-73871293D01*
X82422453Y-73890998D01*
X82405977Y-73909177D01*
X82387798Y-73925653D01*
X82368093Y-73940267D01*
X82347049Y-73952880D01*
X82324871Y-73963370D01*
X82301771Y-73971635D01*
X82277973Y-73977596D01*
X82253704Y-73981196D01*
X82229200Y-73982400D01*
X80229200Y-73982400D01*
X80204696Y-73981196D01*
X80180427Y-73977596D01*
X80156629Y-73971635D01*
X80133529Y-73963370D01*
X80111351Y-73952880D01*
X80090307Y-73940267D01*
X80070602Y-73925653D01*
X80052423Y-73909177D01*
X80035947Y-73890998D01*
X80021333Y-73871293D01*
X80008720Y-73850249D01*
X79998230Y-73828071D01*
X79989965Y-73804971D01*
X79984004Y-73781173D01*
X79980404Y-73756904D01*
X79979200Y-73732400D01*
X79979200Y-70732400D01*
X79980404Y-70707896D01*
X79984004Y-70683627D01*
X79989965Y-70659829D01*
X79998230Y-70636729D01*
X80008720Y-70614551D01*
X80021333Y-70593507D01*
X80035947Y-70573802D01*
X80052423Y-70555623D01*
X80070602Y-70539147D01*
X80090307Y-70524533D01*
X80111351Y-70511920D01*
X80133529Y-70501430D01*
X80156629Y-70493165D01*
X80180427Y-70487204D01*
X80204696Y-70483604D01*
X80229200Y-70482400D01*
X82229200Y-70482400D01*
X82253704Y-70483604D01*
G37*
G36*
X86571704Y-80948404D02*
G01*
X86595973Y-80952004D01*
X86619771Y-80957965D01*
X86642871Y-80966230D01*
X86665049Y-80976720D01*
X86686093Y-80989333D01*
X86705798Y-81003947D01*
X86723977Y-81020423D01*
X86740453Y-81038602D01*
X86755067Y-81058307D01*
X86767680Y-81079351D01*
X86778170Y-81101529D01*
X86786435Y-81124629D01*
X86792396Y-81148427D01*
X86795996Y-81172696D01*
X86797200Y-81197200D01*
X86797200Y-84197200D01*
X86795996Y-84221704D01*
X86792396Y-84245973D01*
X86786435Y-84269771D01*
X86778170Y-84292871D01*
X86767680Y-84315049D01*
X86755067Y-84336093D01*
X86740453Y-84355798D01*
X86723977Y-84373977D01*
X86705798Y-84390453D01*
X86686093Y-84405067D01*
X86665049Y-84417680D01*
X86642871Y-84428170D01*
X86619771Y-84436435D01*
X86595973Y-84442396D01*
X86571704Y-84445996D01*
X86547200Y-84447200D01*
X84547200Y-84447200D01*
X84522696Y-84445996D01*
X84498427Y-84442396D01*
X84474629Y-84436435D01*
X84451529Y-84428170D01*
X84429351Y-84417680D01*
X84408307Y-84405067D01*
X84388602Y-84390453D01*
X84370423Y-84373977D01*
X84353947Y-84355798D01*
X84339333Y-84336093D01*
X84326720Y-84315049D01*
X84316230Y-84292871D01*
X84307965Y-84269771D01*
X84302004Y-84245973D01*
X84298404Y-84221704D01*
X84297200Y-84197200D01*
X84297200Y-81197200D01*
X84298404Y-81172696D01*
X84302004Y-81148427D01*
X84307965Y-81124629D01*
X84316230Y-81101529D01*
X84326720Y-81079351D01*
X84339333Y-81058307D01*
X84353947Y-81038602D01*
X84370423Y-81020423D01*
X84388602Y-81003947D01*
X84408307Y-80989333D01*
X84429351Y-80976720D01*
X84451529Y-80966230D01*
X84474629Y-80957965D01*
X84498427Y-80952004D01*
X84522696Y-80948404D01*
X84547200Y-80947200D01*
X86547200Y-80947200D01*
X86571704Y-80948404D01*
G37*
G36*
X86571704Y-87448404D02*
G01*
X86595973Y-87452004D01*
X86619771Y-87457965D01*
X86642871Y-87466230D01*
X86665049Y-87476720D01*
X86686093Y-87489333D01*
X86705798Y-87503947D01*
X86723977Y-87520423D01*
X86740453Y-87538602D01*
X86755067Y-87558307D01*
X86767680Y-87579351D01*
X86778170Y-87601529D01*
X86786435Y-87624629D01*
X86792396Y-87648427D01*
X86795996Y-87672696D01*
X86797200Y-87697200D01*
X86797200Y-90697200D01*
X86795996Y-90721704D01*
X86792396Y-90745973D01*
X86786435Y-90769771D01*
X86778170Y-90792871D01*
X86767680Y-90815049D01*
X86755067Y-90836093D01*
X86740453Y-90855798D01*
X86723977Y-90873977D01*
X86705798Y-90890453D01*
X86686093Y-90905067D01*
X86665049Y-90917680D01*
X86642871Y-90928170D01*
X86619771Y-90936435D01*
X86595973Y-90942396D01*
X86571704Y-90945996D01*
X86547200Y-90947200D01*
X84547200Y-90947200D01*
X84522696Y-90945996D01*
X84498427Y-90942396D01*
X84474629Y-90936435D01*
X84451529Y-90928170D01*
X84429351Y-90917680D01*
X84408307Y-90905067D01*
X84388602Y-90890453D01*
X84370423Y-90873977D01*
X84353947Y-90855798D01*
X84339333Y-90836093D01*
X84326720Y-90815049D01*
X84316230Y-90792871D01*
X84307965Y-90769771D01*
X84302004Y-90745973D01*
X84298404Y-90721704D01*
X84297200Y-90697200D01*
X84297200Y-87697200D01*
X84298404Y-87672696D01*
X84302004Y-87648427D01*
X84307965Y-87624629D01*
X84316230Y-87601529D01*
X84326720Y-87579351D01*
X84339333Y-87558307D01*
X84353947Y-87538602D01*
X84370423Y-87520423D01*
X84388602Y-87503947D01*
X84408307Y-87489333D01*
X84429351Y-87476720D01*
X84451529Y-87466230D01*
X84474629Y-87457965D01*
X84498427Y-87452004D01*
X84522696Y-87448404D01*
X84547200Y-87447200D01*
X86547200Y-87447200D01*
X86571704Y-87448404D01*
G37*
G36*
X95205142Y-91014174D02*
G01*
X95228803Y-91017684D01*
X95252007Y-91023496D01*
X95274529Y-91031554D01*
X95296153Y-91041782D01*
X95316670Y-91054079D01*
X95335883Y-91068329D01*
X95353607Y-91084393D01*
X95369671Y-91102117D01*
X95383921Y-91121330D01*
X95396218Y-91141847D01*
X95406446Y-91163471D01*
X95414504Y-91185993D01*
X95420316Y-91209197D01*
X95423826Y-91232858D01*
X95425000Y-91256750D01*
X95425000Y-92169250D01*
X95423826Y-92193142D01*
X95420316Y-92216803D01*
X95414504Y-92240007D01*
X95406446Y-92262529D01*
X95396218Y-92284153D01*
X95383921Y-92304670D01*
X95369671Y-92323883D01*
X95353607Y-92341607D01*
X95335883Y-92357671D01*
X95316670Y-92371921D01*
X95296153Y-92384218D01*
X95274529Y-92394446D01*
X95252007Y-92402504D01*
X95228803Y-92408316D01*
X95205142Y-92411826D01*
X95181250Y-92413000D01*
X94693750Y-92413000D01*
X94669858Y-92411826D01*
X94646197Y-92408316D01*
X94622993Y-92402504D01*
X94600471Y-92394446D01*
X94578847Y-92384218D01*
X94558330Y-92371921D01*
X94539117Y-92357671D01*
X94521393Y-92341607D01*
X94505329Y-92323883D01*
X94491079Y-92304670D01*
X94478782Y-92284153D01*
X94468554Y-92262529D01*
X94460496Y-92240007D01*
X94454684Y-92216803D01*
X94451174Y-92193142D01*
X94450000Y-92169250D01*
X94450000Y-91256750D01*
X94451174Y-91232858D01*
X94454684Y-91209197D01*
X94460496Y-91185993D01*
X94468554Y-91163471D01*
X94478782Y-91141847D01*
X94491079Y-91121330D01*
X94505329Y-91102117D01*
X94521393Y-91084393D01*
X94539117Y-91068329D01*
X94558330Y-91054079D01*
X94578847Y-91041782D01*
X94600471Y-91031554D01*
X94622993Y-91023496D01*
X94646197Y-91017684D01*
X94669858Y-91014174D01*
X94693750Y-91013000D01*
X95181250Y-91013000D01*
X95205142Y-91014174D01*
G37*
G36*
X93330142Y-91014174D02*
G01*
X93353803Y-91017684D01*
X93377007Y-91023496D01*
X93399529Y-91031554D01*
X93421153Y-91041782D01*
X93441670Y-91054079D01*
X93460883Y-91068329D01*
X93478607Y-91084393D01*
X93494671Y-91102117D01*
X93508921Y-91121330D01*
X93521218Y-91141847D01*
X93531446Y-91163471D01*
X93539504Y-91185993D01*
X93545316Y-91209197D01*
X93548826Y-91232858D01*
X93550000Y-91256750D01*
X93550000Y-92169250D01*
X93548826Y-92193142D01*
X93545316Y-92216803D01*
X93539504Y-92240007D01*
X93531446Y-92262529D01*
X93521218Y-92284153D01*
X93508921Y-92304670D01*
X93494671Y-92323883D01*
X93478607Y-92341607D01*
X93460883Y-92357671D01*
X93441670Y-92371921D01*
X93421153Y-92384218D01*
X93399529Y-92394446D01*
X93377007Y-92402504D01*
X93353803Y-92408316D01*
X93330142Y-92411826D01*
X93306250Y-92413000D01*
X92818750Y-92413000D01*
X92794858Y-92411826D01*
X92771197Y-92408316D01*
X92747993Y-92402504D01*
X92725471Y-92394446D01*
X92703847Y-92384218D01*
X92683330Y-92371921D01*
X92664117Y-92357671D01*
X92646393Y-92341607D01*
X92630329Y-92323883D01*
X92616079Y-92304670D01*
X92603782Y-92284153D01*
X92593554Y-92262529D01*
X92585496Y-92240007D01*
X92579684Y-92216803D01*
X92576174Y-92193142D01*
X92575000Y-92169250D01*
X92575000Y-91256750D01*
X92576174Y-91232858D01*
X92579684Y-91209197D01*
X92585496Y-91185993D01*
X92593554Y-91163471D01*
X92603782Y-91141847D01*
X92616079Y-91121330D01*
X92630329Y-91102117D01*
X92646393Y-91084393D01*
X92664117Y-91068329D01*
X92683330Y-91054079D01*
X92703847Y-91041782D01*
X92725471Y-91031554D01*
X92747993Y-91023496D01*
X92771197Y-91017684D01*
X92794858Y-91014174D01*
X92818750Y-91013000D01*
X93306250Y-91013000D01*
X93330142Y-91014174D01*
G37*
G36*
X80810142Y-91014174D02*
G01*
X80833803Y-91017684D01*
X80857007Y-91023496D01*
X80879529Y-91031554D01*
X80901153Y-91041782D01*
X80921670Y-91054079D01*
X80940883Y-91068329D01*
X80958607Y-91084393D01*
X80974671Y-91102117D01*
X80988921Y-91121330D01*
X81001218Y-91141847D01*
X81011446Y-91163471D01*
X81019504Y-91185993D01*
X81025316Y-91209197D01*
X81028826Y-91232858D01*
X81030000Y-91256750D01*
X81030000Y-92169250D01*
X81028826Y-92193142D01*
X81025316Y-92216803D01*
X81019504Y-92240007D01*
X81011446Y-92262529D01*
X81001218Y-92284153D01*
X80988921Y-92304670D01*
X80974671Y-92323883D01*
X80958607Y-92341607D01*
X80940883Y-92357671D01*
X80921670Y-92371921D01*
X80901153Y-92384218D01*
X80879529Y-92394446D01*
X80857007Y-92402504D01*
X80833803Y-92408316D01*
X80810142Y-92411826D01*
X80786250Y-92413000D01*
X80298750Y-92413000D01*
X80274858Y-92411826D01*
X80251197Y-92408316D01*
X80227993Y-92402504D01*
X80205471Y-92394446D01*
X80183847Y-92384218D01*
X80163330Y-92371921D01*
X80144117Y-92357671D01*
X80126393Y-92341607D01*
X80110329Y-92323883D01*
X80096079Y-92304670D01*
X80083782Y-92284153D01*
X80073554Y-92262529D01*
X80065496Y-92240007D01*
X80059684Y-92216803D01*
X80056174Y-92193142D01*
X80055000Y-92169250D01*
X80055000Y-91256750D01*
X80056174Y-91232858D01*
X80059684Y-91209197D01*
X80065496Y-91185993D01*
X80073554Y-91163471D01*
X80083782Y-91141847D01*
X80096079Y-91121330D01*
X80110329Y-91102117D01*
X80126393Y-91084393D01*
X80144117Y-91068329D01*
X80163330Y-91054079D01*
X80183847Y-91041782D01*
X80205471Y-91031554D01*
X80227993Y-91023496D01*
X80251197Y-91017684D01*
X80274858Y-91014174D01*
X80298750Y-91013000D01*
X80786250Y-91013000D01*
X80810142Y-91014174D01*
G37*
G36*
X78935142Y-91014174D02*
G01*
X78958803Y-91017684D01*
X78982007Y-91023496D01*
X79004529Y-91031554D01*
X79026153Y-91041782D01*
X79046670Y-91054079D01*
X79065883Y-91068329D01*
X79083607Y-91084393D01*
X79099671Y-91102117D01*
X79113921Y-91121330D01*
X79126218Y-91141847D01*
X79136446Y-91163471D01*
X79144504Y-91185993D01*
X79150316Y-91209197D01*
X79153826Y-91232858D01*
X79155000Y-91256750D01*
X79155000Y-92169250D01*
X79153826Y-92193142D01*
X79150316Y-92216803D01*
X79144504Y-92240007D01*
X79136446Y-92262529D01*
X79126218Y-92284153D01*
X79113921Y-92304670D01*
X79099671Y-92323883D01*
X79083607Y-92341607D01*
X79065883Y-92357671D01*
X79046670Y-92371921D01*
X79026153Y-92384218D01*
X79004529Y-92394446D01*
X78982007Y-92402504D01*
X78958803Y-92408316D01*
X78935142Y-92411826D01*
X78911250Y-92413000D01*
X78423750Y-92413000D01*
X78399858Y-92411826D01*
X78376197Y-92408316D01*
X78352993Y-92402504D01*
X78330471Y-92394446D01*
X78308847Y-92384218D01*
X78288330Y-92371921D01*
X78269117Y-92357671D01*
X78251393Y-92341607D01*
X78235329Y-92323883D01*
X78221079Y-92304670D01*
X78208782Y-92284153D01*
X78198554Y-92262529D01*
X78190496Y-92240007D01*
X78184684Y-92216803D01*
X78181174Y-92193142D01*
X78180000Y-92169250D01*
X78180000Y-91256750D01*
X78181174Y-91232858D01*
X78184684Y-91209197D01*
X78190496Y-91185993D01*
X78198554Y-91163471D01*
X78208782Y-91141847D01*
X78221079Y-91121330D01*
X78235329Y-91102117D01*
X78251393Y-91084393D01*
X78269117Y-91068329D01*
X78288330Y-91054079D01*
X78308847Y-91041782D01*
X78330471Y-91031554D01*
X78352993Y-91023496D01*
X78376197Y-91017684D01*
X78399858Y-91014174D01*
X78423750Y-91013000D01*
X78911250Y-91013000D01*
X78935142Y-91014174D01*
G37*
G36*
X109690842Y-91014174D02*
G01*
X109714503Y-91017684D01*
X109737707Y-91023496D01*
X109760229Y-91031554D01*
X109781853Y-91041782D01*
X109802370Y-91054079D01*
X109821583Y-91068329D01*
X109839307Y-91084393D01*
X109855371Y-91102117D01*
X109869621Y-91121330D01*
X109881918Y-91141847D01*
X109892146Y-91163471D01*
X109900204Y-91185993D01*
X109906016Y-91209197D01*
X109909526Y-91232858D01*
X109910700Y-91256750D01*
X109910700Y-92169250D01*
X109909526Y-92193142D01*
X109906016Y-92216803D01*
X109900204Y-92240007D01*
X109892146Y-92262529D01*
X109881918Y-92284153D01*
X109869621Y-92304670D01*
X109855371Y-92323883D01*
X109839307Y-92341607D01*
X109821583Y-92357671D01*
X109802370Y-92371921D01*
X109781853Y-92384218D01*
X109760229Y-92394446D01*
X109737707Y-92402504D01*
X109714503Y-92408316D01*
X109690842Y-92411826D01*
X109666950Y-92413000D01*
X109179450Y-92413000D01*
X109155558Y-92411826D01*
X109131897Y-92408316D01*
X109108693Y-92402504D01*
X109086171Y-92394446D01*
X109064547Y-92384218D01*
X109044030Y-92371921D01*
X109024817Y-92357671D01*
X109007093Y-92341607D01*
X108991029Y-92323883D01*
X108976779Y-92304670D01*
X108964482Y-92284153D01*
X108954254Y-92262529D01*
X108946196Y-92240007D01*
X108940384Y-92216803D01*
X108936874Y-92193142D01*
X108935700Y-92169250D01*
X108935700Y-91256750D01*
X108936874Y-91232858D01*
X108940384Y-91209197D01*
X108946196Y-91185993D01*
X108954254Y-91163471D01*
X108964482Y-91141847D01*
X108976779Y-91121330D01*
X108991029Y-91102117D01*
X109007093Y-91084393D01*
X109024817Y-91068329D01*
X109044030Y-91054079D01*
X109064547Y-91041782D01*
X109086171Y-91031554D01*
X109108693Y-91023496D01*
X109131897Y-91017684D01*
X109155558Y-91014174D01*
X109179450Y-91013000D01*
X109666950Y-91013000D01*
X109690842Y-91014174D01*
G37*
G36*
X107815842Y-91014174D02*
G01*
X107839503Y-91017684D01*
X107862707Y-91023496D01*
X107885229Y-91031554D01*
X107906853Y-91041782D01*
X107927370Y-91054079D01*
X107946583Y-91068329D01*
X107964307Y-91084393D01*
X107980371Y-91102117D01*
X107994621Y-91121330D01*
X108006918Y-91141847D01*
X108017146Y-91163471D01*
X108025204Y-91185993D01*
X108031016Y-91209197D01*
X108034526Y-91232858D01*
X108035700Y-91256750D01*
X108035700Y-92169250D01*
X108034526Y-92193142D01*
X108031016Y-92216803D01*
X108025204Y-92240007D01*
X108017146Y-92262529D01*
X108006918Y-92284153D01*
X107994621Y-92304670D01*
X107980371Y-92323883D01*
X107964307Y-92341607D01*
X107946583Y-92357671D01*
X107927370Y-92371921D01*
X107906853Y-92384218D01*
X107885229Y-92394446D01*
X107862707Y-92402504D01*
X107839503Y-92408316D01*
X107815842Y-92411826D01*
X107791950Y-92413000D01*
X107304450Y-92413000D01*
X107280558Y-92411826D01*
X107256897Y-92408316D01*
X107233693Y-92402504D01*
X107211171Y-92394446D01*
X107189547Y-92384218D01*
X107169030Y-92371921D01*
X107149817Y-92357671D01*
X107132093Y-92341607D01*
X107116029Y-92323883D01*
X107101779Y-92304670D01*
X107089482Y-92284153D01*
X107079254Y-92262529D01*
X107071196Y-92240007D01*
X107065384Y-92216803D01*
X107061874Y-92193142D01*
X107060700Y-92169250D01*
X107060700Y-91256750D01*
X107061874Y-91232858D01*
X107065384Y-91209197D01*
X107071196Y-91185993D01*
X107079254Y-91163471D01*
X107089482Y-91141847D01*
X107101779Y-91121330D01*
X107116029Y-91102117D01*
X107132093Y-91084393D01*
X107149817Y-91068329D01*
X107169030Y-91054079D01*
X107189547Y-91041782D01*
X107211171Y-91031554D01*
X107233693Y-91023496D01*
X107256897Y-91017684D01*
X107280558Y-91014174D01*
X107304450Y-91013000D01*
X107791950Y-91013000D01*
X107815842Y-91014174D01*
G37*
G36*
X95205142Y-92944574D02*
G01*
X95228803Y-92948084D01*
X95252007Y-92953896D01*
X95274529Y-92961954D01*
X95296153Y-92972182D01*
X95316670Y-92984479D01*
X95335883Y-92998729D01*
X95353607Y-93014793D01*
X95369671Y-93032517D01*
X95383921Y-93051730D01*
X95396218Y-93072247D01*
X95406446Y-93093871D01*
X95414504Y-93116393D01*
X95420316Y-93139597D01*
X95423826Y-93163258D01*
X95425000Y-93187150D01*
X95425000Y-94099650D01*
X95423826Y-94123542D01*
X95420316Y-94147203D01*
X95414504Y-94170407D01*
X95406446Y-94192929D01*
X95396218Y-94214553D01*
X95383921Y-94235070D01*
X95369671Y-94254283D01*
X95353607Y-94272007D01*
X95335883Y-94288071D01*
X95316670Y-94302321D01*
X95296153Y-94314618D01*
X95274529Y-94324846D01*
X95252007Y-94332904D01*
X95228803Y-94338716D01*
X95205142Y-94342226D01*
X95181250Y-94343400D01*
X94693750Y-94343400D01*
X94669858Y-94342226D01*
X94646197Y-94338716D01*
X94622993Y-94332904D01*
X94600471Y-94324846D01*
X94578847Y-94314618D01*
X94558330Y-94302321D01*
X94539117Y-94288071D01*
X94521393Y-94272007D01*
X94505329Y-94254283D01*
X94491079Y-94235070D01*
X94478782Y-94214553D01*
X94468554Y-94192929D01*
X94460496Y-94170407D01*
X94454684Y-94147203D01*
X94451174Y-94123542D01*
X94450000Y-94099650D01*
X94450000Y-93187150D01*
X94451174Y-93163258D01*
X94454684Y-93139597D01*
X94460496Y-93116393D01*
X94468554Y-93093871D01*
X94478782Y-93072247D01*
X94491079Y-93051730D01*
X94505329Y-93032517D01*
X94521393Y-93014793D01*
X94539117Y-92998729D01*
X94558330Y-92984479D01*
X94578847Y-92972182D01*
X94600471Y-92961954D01*
X94622993Y-92953896D01*
X94646197Y-92948084D01*
X94669858Y-92944574D01*
X94693750Y-92943400D01*
X95181250Y-92943400D01*
X95205142Y-92944574D01*
G37*
G36*
X93330142Y-92944574D02*
G01*
X93353803Y-92948084D01*
X93377007Y-92953896D01*
X93399529Y-92961954D01*
X93421153Y-92972182D01*
X93441670Y-92984479D01*
X93460883Y-92998729D01*
X93478607Y-93014793D01*
X93494671Y-93032517D01*
X93508921Y-93051730D01*
X93521218Y-93072247D01*
X93531446Y-93093871D01*
X93539504Y-93116393D01*
X93545316Y-93139597D01*
X93548826Y-93163258D01*
X93550000Y-93187150D01*
X93550000Y-94099650D01*
X93548826Y-94123542D01*
X93545316Y-94147203D01*
X93539504Y-94170407D01*
X93531446Y-94192929D01*
X93521218Y-94214553D01*
X93508921Y-94235070D01*
X93494671Y-94254283D01*
X93478607Y-94272007D01*
X93460883Y-94288071D01*
X93441670Y-94302321D01*
X93421153Y-94314618D01*
X93399529Y-94324846D01*
X93377007Y-94332904D01*
X93353803Y-94338716D01*
X93330142Y-94342226D01*
X93306250Y-94343400D01*
X92818750Y-94343400D01*
X92794858Y-94342226D01*
X92771197Y-94338716D01*
X92747993Y-94332904D01*
X92725471Y-94324846D01*
X92703847Y-94314618D01*
X92683330Y-94302321D01*
X92664117Y-94288071D01*
X92646393Y-94272007D01*
X92630329Y-94254283D01*
X92616079Y-94235070D01*
X92603782Y-94214553D01*
X92593554Y-94192929D01*
X92585496Y-94170407D01*
X92579684Y-94147203D01*
X92576174Y-94123542D01*
X92575000Y-94099650D01*
X92575000Y-93187150D01*
X92576174Y-93163258D01*
X92579684Y-93139597D01*
X92585496Y-93116393D01*
X92593554Y-93093871D01*
X92603782Y-93072247D01*
X92616079Y-93051730D01*
X92630329Y-93032517D01*
X92646393Y-93014793D01*
X92664117Y-92998729D01*
X92683330Y-92984479D01*
X92703847Y-92972182D01*
X92725471Y-92961954D01*
X92747993Y-92953896D01*
X92771197Y-92948084D01*
X92794858Y-92944574D01*
X92818750Y-92943400D01*
X93306250Y-92943400D01*
X93330142Y-92944574D01*
G37*
G36*
X80810142Y-92944574D02*
G01*
X80833803Y-92948084D01*
X80857007Y-92953896D01*
X80879529Y-92961954D01*
X80901153Y-92972182D01*
X80921670Y-92984479D01*
X80940883Y-92998729D01*
X80958607Y-93014793D01*
X80974671Y-93032517D01*
X80988921Y-93051730D01*
X81001218Y-93072247D01*
X81011446Y-93093871D01*
X81019504Y-93116393D01*
X81025316Y-93139597D01*
X81028826Y-93163258D01*
X81030000Y-93187150D01*
X81030000Y-94099650D01*
X81028826Y-94123542D01*
X81025316Y-94147203D01*
X81019504Y-94170407D01*
X81011446Y-94192929D01*
X81001218Y-94214553D01*
X80988921Y-94235070D01*
X80974671Y-94254283D01*
X80958607Y-94272007D01*
X80940883Y-94288071D01*
X80921670Y-94302321D01*
X80901153Y-94314618D01*
X80879529Y-94324846D01*
X80857007Y-94332904D01*
X80833803Y-94338716D01*
X80810142Y-94342226D01*
X80786250Y-94343400D01*
X80298750Y-94343400D01*
X80274858Y-94342226D01*
X80251197Y-94338716D01*
X80227993Y-94332904D01*
X80205471Y-94324846D01*
X80183847Y-94314618D01*
X80163330Y-94302321D01*
X80144117Y-94288071D01*
X80126393Y-94272007D01*
X80110329Y-94254283D01*
X80096079Y-94235070D01*
X80083782Y-94214553D01*
X80073554Y-94192929D01*
X80065496Y-94170407D01*
X80059684Y-94147203D01*
X80056174Y-94123542D01*
X80055000Y-94099650D01*
X80055000Y-93187150D01*
X80056174Y-93163258D01*
X80059684Y-93139597D01*
X80065496Y-93116393D01*
X80073554Y-93093871D01*
X80083782Y-93072247D01*
X80096079Y-93051730D01*
X80110329Y-93032517D01*
X80126393Y-93014793D01*
X80144117Y-92998729D01*
X80163330Y-92984479D01*
X80183847Y-92972182D01*
X80205471Y-92961954D01*
X80227993Y-92953896D01*
X80251197Y-92948084D01*
X80274858Y-92944574D01*
X80298750Y-92943400D01*
X80786250Y-92943400D01*
X80810142Y-92944574D01*
G37*
G36*
X78935142Y-92944574D02*
G01*
X78958803Y-92948084D01*
X78982007Y-92953896D01*
X79004529Y-92961954D01*
X79026153Y-92972182D01*
X79046670Y-92984479D01*
X79065883Y-92998729D01*
X79083607Y-93014793D01*
X79099671Y-93032517D01*
X79113921Y-93051730D01*
X79126218Y-93072247D01*
X79136446Y-93093871D01*
X79144504Y-93116393D01*
X79150316Y-93139597D01*
X79153826Y-93163258D01*
X79155000Y-93187150D01*
X79155000Y-94099650D01*
X79153826Y-94123542D01*
X79150316Y-94147203D01*
X79144504Y-94170407D01*
X79136446Y-94192929D01*
X79126218Y-94214553D01*
X79113921Y-94235070D01*
X79099671Y-94254283D01*
X79083607Y-94272007D01*
X79065883Y-94288071D01*
X79046670Y-94302321D01*
X79026153Y-94314618D01*
X79004529Y-94324846D01*
X78982007Y-94332904D01*
X78958803Y-94338716D01*
X78935142Y-94342226D01*
X78911250Y-94343400D01*
X78423750Y-94343400D01*
X78399858Y-94342226D01*
X78376197Y-94338716D01*
X78352993Y-94332904D01*
X78330471Y-94324846D01*
X78308847Y-94314618D01*
X78288330Y-94302321D01*
X78269117Y-94288071D01*
X78251393Y-94272007D01*
X78235329Y-94254283D01*
X78221079Y-94235070D01*
X78208782Y-94214553D01*
X78198554Y-94192929D01*
X78190496Y-94170407D01*
X78184684Y-94147203D01*
X78181174Y-94123542D01*
X78180000Y-94099650D01*
X78180000Y-93187150D01*
X78181174Y-93163258D01*
X78184684Y-93139597D01*
X78190496Y-93116393D01*
X78198554Y-93093871D01*
X78208782Y-93072247D01*
X78221079Y-93051730D01*
X78235329Y-93032517D01*
X78251393Y-93014793D01*
X78269117Y-92998729D01*
X78288330Y-92984479D01*
X78308847Y-92972182D01*
X78330471Y-92961954D01*
X78352993Y-92953896D01*
X78376197Y-92948084D01*
X78399858Y-92944574D01*
X78423750Y-92943400D01*
X78911250Y-92943400D01*
X78935142Y-92944574D01*
G37*
G36*
X109688542Y-92944574D02*
G01*
X109712203Y-92948084D01*
X109735407Y-92953896D01*
X109757929Y-92961954D01*
X109779553Y-92972182D01*
X109800070Y-92984479D01*
X109819283Y-92998729D01*
X109837007Y-93014793D01*
X109853071Y-93032517D01*
X109867321Y-93051730D01*
X109879618Y-93072247D01*
X109889846Y-93093871D01*
X109897904Y-93116393D01*
X109903716Y-93139597D01*
X109907226Y-93163258D01*
X109908400Y-93187150D01*
X109908400Y-94099650D01*
X109907226Y-94123542D01*
X109903716Y-94147203D01*
X109897904Y-94170407D01*
X109889846Y-94192929D01*
X109879618Y-94214553D01*
X109867321Y-94235070D01*
X109853071Y-94254283D01*
X109837007Y-94272007D01*
X109819283Y-94288071D01*
X109800070Y-94302321D01*
X109779553Y-94314618D01*
X109757929Y-94324846D01*
X109735407Y-94332904D01*
X109712203Y-94338716D01*
X109688542Y-94342226D01*
X109664650Y-94343400D01*
X109177150Y-94343400D01*
X109153258Y-94342226D01*
X109129597Y-94338716D01*
X109106393Y-94332904D01*
X109083871Y-94324846D01*
X109062247Y-94314618D01*
X109041730Y-94302321D01*
X109022517Y-94288071D01*
X109004793Y-94272007D01*
X108988729Y-94254283D01*
X108974479Y-94235070D01*
X108962182Y-94214553D01*
X108951954Y-94192929D01*
X108943896Y-94170407D01*
X108938084Y-94147203D01*
X108934574Y-94123542D01*
X108933400Y-94099650D01*
X108933400Y-93187150D01*
X108934574Y-93163258D01*
X108938084Y-93139597D01*
X108943896Y-93116393D01*
X108951954Y-93093871D01*
X108962182Y-93072247D01*
X108974479Y-93051730D01*
X108988729Y-93032517D01*
X109004793Y-93014793D01*
X109022517Y-92998729D01*
X109041730Y-92984479D01*
X109062247Y-92972182D01*
X109083871Y-92961954D01*
X109106393Y-92953896D01*
X109129597Y-92948084D01*
X109153258Y-92944574D01*
X109177150Y-92943400D01*
X109664650Y-92943400D01*
X109688542Y-92944574D01*
G37*
G36*
X107813542Y-92944574D02*
G01*
X107837203Y-92948084D01*
X107860407Y-92953896D01*
X107882929Y-92961954D01*
X107904553Y-92972182D01*
X107925070Y-92984479D01*
X107944283Y-92998729D01*
X107962007Y-93014793D01*
X107978071Y-93032517D01*
X107992321Y-93051730D01*
X108004618Y-93072247D01*
X108014846Y-93093871D01*
X108022904Y-93116393D01*
X108028716Y-93139597D01*
X108032226Y-93163258D01*
X108033400Y-93187150D01*
X108033400Y-94099650D01*
X108032226Y-94123542D01*
X108028716Y-94147203D01*
X108022904Y-94170407D01*
X108014846Y-94192929D01*
X108004618Y-94214553D01*
X107992321Y-94235070D01*
X107978071Y-94254283D01*
X107962007Y-94272007D01*
X107944283Y-94288071D01*
X107925070Y-94302321D01*
X107904553Y-94314618D01*
X107882929Y-94324846D01*
X107860407Y-94332904D01*
X107837203Y-94338716D01*
X107813542Y-94342226D01*
X107789650Y-94343400D01*
X107302150Y-94343400D01*
X107278258Y-94342226D01*
X107254597Y-94338716D01*
X107231393Y-94332904D01*
X107208871Y-94324846D01*
X107187247Y-94314618D01*
X107166730Y-94302321D01*
X107147517Y-94288071D01*
X107129793Y-94272007D01*
X107113729Y-94254283D01*
X107099479Y-94235070D01*
X107087182Y-94214553D01*
X107076954Y-94192929D01*
X107068896Y-94170407D01*
X107063084Y-94147203D01*
X107059574Y-94123542D01*
X107058400Y-94099650D01*
X107058400Y-93187150D01*
X107059574Y-93163258D01*
X107063084Y-93139597D01*
X107068896Y-93116393D01*
X107076954Y-93093871D01*
X107087182Y-93072247D01*
X107099479Y-93051730D01*
X107113729Y-93032517D01*
X107129793Y-93014793D01*
X107147517Y-92998729D01*
X107166730Y-92984479D01*
X107187247Y-92972182D01*
X107208871Y-92961954D01*
X107231393Y-92953896D01*
X107254597Y-92948084D01*
X107278258Y-92944574D01*
X107302150Y-92943400D01*
X107789650Y-92943400D01*
X107813542Y-92944574D01*
G37*
D11*
X92183200Y-83508800D03*
X96183200Y-83508800D03*
D12*
X93268800Y-72538000D03*
X93268800Y-79138000D03*
D13*
X102276700Y-83949800D03*
X103976700Y-83949800D03*
X105676700Y-83949800D03*
X107376700Y-83949800D03*
X109076700Y-83949800D03*
D14*
X108451700Y-72374800D03*
X102901700Y-77224800D03*
X102901700Y-72374800D03*
X108451700Y-77224800D03*
D10*
G36*
X100759342Y-90208374D02*
G01*
X100783003Y-90211884D01*
X100806207Y-90217696D01*
X100828729Y-90225754D01*
X100850353Y-90235982D01*
X100870870Y-90248279D01*
X100890083Y-90262529D01*
X100907807Y-90278593D01*
X100923871Y-90296317D01*
X100938121Y-90315530D01*
X100950418Y-90336047D01*
X100960646Y-90357671D01*
X100968704Y-90380193D01*
X100974516Y-90403397D01*
X100978026Y-90427058D01*
X100979200Y-90450950D01*
X100979200Y-90938450D01*
X100978026Y-90962342D01*
X100974516Y-90986003D01*
X100968704Y-91009207D01*
X100960646Y-91031729D01*
X100950418Y-91053353D01*
X100938121Y-91073870D01*
X100923871Y-91093083D01*
X100907807Y-91110807D01*
X100890083Y-91126871D01*
X100870870Y-91141121D01*
X100850353Y-91153418D01*
X100828729Y-91163646D01*
X100806207Y-91171704D01*
X100783003Y-91177516D01*
X100759342Y-91181026D01*
X100735450Y-91182200D01*
X99822950Y-91182200D01*
X99799058Y-91181026D01*
X99775397Y-91177516D01*
X99752193Y-91171704D01*
X99729671Y-91163646D01*
X99708047Y-91153418D01*
X99687530Y-91141121D01*
X99668317Y-91126871D01*
X99650593Y-91110807D01*
X99634529Y-91093083D01*
X99620279Y-91073870D01*
X99607982Y-91053353D01*
X99597754Y-91031729D01*
X99589696Y-91009207D01*
X99583884Y-90986003D01*
X99580374Y-90962342D01*
X99579200Y-90938450D01*
X99579200Y-90450950D01*
X99580374Y-90427058D01*
X99583884Y-90403397D01*
X99589696Y-90380193D01*
X99597754Y-90357671D01*
X99607982Y-90336047D01*
X99620279Y-90315530D01*
X99634529Y-90296317D01*
X99650593Y-90278593D01*
X99668317Y-90262529D01*
X99687530Y-90248279D01*
X99708047Y-90235982D01*
X99729671Y-90225754D01*
X99752193Y-90217696D01*
X99775397Y-90211884D01*
X99799058Y-90208374D01*
X99822950Y-90207200D01*
X100735450Y-90207200D01*
X100759342Y-90208374D01*
G37*
G36*
X100759342Y-88333374D02*
G01*
X100783003Y-88336884D01*
X100806207Y-88342696D01*
X100828729Y-88350754D01*
X100850353Y-88360982D01*
X100870870Y-88373279D01*
X100890083Y-88387529D01*
X100907807Y-88403593D01*
X100923871Y-88421317D01*
X100938121Y-88440530D01*
X100950418Y-88461047D01*
X100960646Y-88482671D01*
X100968704Y-88505193D01*
X100974516Y-88528397D01*
X100978026Y-88552058D01*
X100979200Y-88575950D01*
X100979200Y-89063450D01*
X100978026Y-89087342D01*
X100974516Y-89111003D01*
X100968704Y-89134207D01*
X100960646Y-89156729D01*
X100950418Y-89178353D01*
X100938121Y-89198870D01*
X100923871Y-89218083D01*
X100907807Y-89235807D01*
X100890083Y-89251871D01*
X100870870Y-89266121D01*
X100850353Y-89278418D01*
X100828729Y-89288646D01*
X100806207Y-89296704D01*
X100783003Y-89302516D01*
X100759342Y-89306026D01*
X100735450Y-89307200D01*
X99822950Y-89307200D01*
X99799058Y-89306026D01*
X99775397Y-89302516D01*
X99752193Y-89296704D01*
X99729671Y-89288646D01*
X99708047Y-89278418D01*
X99687530Y-89266121D01*
X99668317Y-89251871D01*
X99650593Y-89235807D01*
X99634529Y-89218083D01*
X99620279Y-89198870D01*
X99607982Y-89178353D01*
X99597754Y-89156729D01*
X99589696Y-89134207D01*
X99583884Y-89111003D01*
X99580374Y-89087342D01*
X99579200Y-89063450D01*
X99579200Y-88575950D01*
X99580374Y-88552058D01*
X99583884Y-88528397D01*
X99589696Y-88505193D01*
X99597754Y-88482671D01*
X99607982Y-88461047D01*
X99620279Y-88440530D01*
X99634529Y-88421317D01*
X99650593Y-88403593D01*
X99668317Y-88387529D01*
X99687530Y-88373279D01*
X99708047Y-88360982D01*
X99729671Y-88350754D01*
X99752193Y-88342696D01*
X99775397Y-88336884D01*
X99799058Y-88333374D01*
X99822950Y-88332200D01*
X100735450Y-88332200D01*
X100759342Y-88333374D01*
G37*
M02*
