M48
; DRILL file {KiCad 5.1.5-52549c5~84~ubuntu18.04.1} date mer. 04 mars 2020 17:14:36 CET
; FORMAT={-:-/ absolute / inch / decimal}
; #@! TF.CreationDate,2020-03-04T17:14:36+01:00
; #@! TF.GenerationSoftware,Kicad,Pcbnew,5.1.5-52549c5~84~ubuntu18.04.1
; #@! TF.FileFunction,Plated,1,2,PTH
FMAT,2
INCH
T1C0.0157
T2C0.0335
T3C0.0394
T4C0.0472
T5C0.0551
T6C0.1260
%
G90
G05
T1
X2.0507Y-2.3164
X2.0507Y-2.5684
X2.0507Y-2.8203
X2.0507Y-3.0723
X2.0507Y-3.3243
X2.1767Y-2.4424
X2.1767Y-2.6944
X2.1767Y-2.9463
X2.1767Y-3.1983
X2.2082Y-3.4188
X2.2397Y-2.2534
X2.3026Y-2.0329
X2.3026Y-3.0723
X2.3026Y-3.6707
X2.3971Y-2.6629
X2.4286Y-2.1589
X2.4286Y-2.4424
X2.4601Y-2.9463
X2.4601Y-3.3243
X2.4916Y-3.5447
X2.5546Y-2.0329
X2.5546Y-2.2849
X2.5546Y-2.7573
X2.6176Y-3.6707
X2.6491Y-2.4739
X2.6806Y-2.1589
X2.6806Y-3.4503
X2.7121Y-2.6629
X2.7751Y-2.3164
X2.8066Y-2.0329
X2.8066Y-3.5762
X2.8696Y-2.7573
X2.8696Y-3.1983
X2.9011Y-2.1904
X2.9326Y-3.4503
X2.9641Y-3.6707
X3.0271Y-2.0644
X3.0271Y-3.0093
X3.09Y-2.2534
X3.09Y-3.5447
X3.1845Y-2.5054
X3.216Y-2.1274
X3.216Y-2.7258
X3.2475Y-2.9463
X3.2475Y-3.2298
X3.279Y-2.3164
X3.3105Y-3.6707
X3.3735Y-2.0329
X3.3735Y-3.0723
X3.405Y-3.3873
X3.4365Y-2.2219
X3.468Y-3.5762
X3.4995Y-2.7258
X3.4995Y-3.2298
X3.531Y-2.9778
X3.5625Y-2.0959
X3.6255Y-3.3558
X3.657Y-2.2534
X3.72Y-2.4424
X3.7515Y-2.0329
X3.7515Y-2.7258
X3.7515Y-3.0093
X3.8145Y-3.4188
X3.846Y-2.1904
X3.8775Y-3.6077
X3.9089Y-2.8203
X3.9719Y-2.0644
X4.0664Y-2.7258
X4.0979Y-3.6707
X4.1924Y-2.0329
X4.2239Y-2.2534
X4.2239Y-3.5447
X4.2869Y-2.4424
X4.3184Y-3.1668
X4.3499Y-3.3873
X4.3814Y-3.6392
X4.4129Y-2.8518
X4.4444Y-2.0329
X4.5074Y-3.4818
X4.6019Y-2.5369
X4.6334Y-3.6077
X4.6963Y-2.0329
X4.7278Y-2.6629
X4.7593Y-2.4109
X4.7593Y-3.4503
X4.8538Y-3.1353
X4.8538Y-3.6392
X4.9168Y-2.0644
X4.9798Y-3.2613
X5.0428Y-2.1904
X5.0743Y-2.4109
X5.0743Y-2.6629
X5.0743Y-2.9148
X5.1058Y-3.1353
X5.1058Y-3.3873
X5.2003Y-2.2849
X5.2003Y-2.5369
X5.2003Y-2.7888
X5.2318Y-3.0093
X5.2318Y-3.2613
X5.3263Y-2.4109
X5.3263Y-2.6629
X5.3263Y-3.4188
X5.3578Y-2.8833
X5.3578Y-3.1353
T2
X4.99Y-3.5757
X5.09Y-3.5757
X2.315Y-3.5757
X2.415Y-3.5757
T3
X3.872Y-3.288
X4.1Y-3.452
T4
X2.3045Y-2.418
X2.3045Y-2.5558
X2.3042Y-3.1733
X2.3042Y-3.3111
X2.3042Y-2.7953
X2.3042Y-2.9331
T5
X2.65Y-3.0557
X2.85Y-3.0557
X2.8906Y-2.3842
X3.0906Y-2.3842
X3.4108Y-2.3842
X3.6108Y-2.3842
X3.931Y-2.3842
X4.131Y-2.3842
X4.555Y-3.3257
X4.755Y-3.3257
X4.555Y-3.0557
X4.755Y-3.0557
X2.65Y-3.3257
X2.85Y-3.3257
X4.4508Y-2.3842
X4.6508Y-2.3842
T6
X2.1063Y-2.1063
X2.1063Y-3.6024
X5.2953Y-3.6024
X5.2953Y-2.1063
T0
M30
