M48
; DRILL file {KiCad (5.1.4)-1} date 21/11/2019 21:18:32
; FORMAT={-:-/ absolute / metric / decimal}
; #@! TF.CreationDate,2019-11-21T21:18:32+01:00
; #@! TF.GenerationSoftware,Kicad,Pcbnew,(5.1.4)-1
; #@! TF.FileFunction,Plated,1,2,PTH
FMAT,2
METRIC
T1C0.400
T2C0.800
T3C1.000
T4C1.400
T5C3.200
%
G90
G05
T1
X57.075Y-72.475
X57.1Y-75.5
X57.125Y-73.475
X60.093Y-74.018
X60.513Y-80.887
X63.25Y-79.225
X64.69Y-81.985
X68.1Y-79.35
X68.4Y-74.975
X68.795Y-76.905
X69.425Y-82.0
X69.494Y-83.794
X70.1Y-80.0
X73.617Y-61.875
X74.032Y-83.807
X75.4Y-83.475
X76.9Y-61.75
X77.646Y-71.029
X77.755Y-79.445
X78.075Y-69.65
X81.25Y-77.0
X81.263Y-78.862
X82.35Y-81.55
X82.35Y-74.809
X82.575Y-71.325
X92.0Y-73.0
X92.0Y-74.0
X92.0Y-81.89
X92.0Y-82.89
X93.0Y-73.0
X93.0Y-74.0
X93.0Y-81.89
X93.0Y-82.89
X94.0Y-73.0
X94.0Y-74.0
X94.0Y-81.89
X94.0Y-82.89
X95.0Y-73.0
X95.0Y-74.0
X95.0Y-81.89
X95.0Y-82.89
X96.0Y-73.0
X96.0Y-74.0
X96.0Y-81.89
X96.0Y-82.89
X105.65Y-79.75
X106.737Y-76.138
X106.75Y-78.0
X109.925Y-85.35
X110.245Y-75.555
X110.354Y-83.971
X111.1Y-93.25
X113.968Y-71.193
X114.382Y-93.125
X117.9Y-75.0
X118.506Y-71.206
X118.575Y-73.0
X119.6Y-80.025
X119.9Y-75.65
X123.31Y-73.015
X124.725Y-75.8
X127.487Y-74.113
X127.907Y-80.982
X130.875Y-81.525
X130.9Y-79.5
X130.925Y-82.525
T2
X58.9Y-71.0
X62.5Y-75.075
X64.15Y-70.5
X64.315Y-73.765
X111.925Y-71.367
X123.685Y-81.235
X123.85Y-84.5
X125.5Y-79.925
X129.1Y-84.0
X86.38Y-60.97
X86.38Y-63.51
X86.38Y-66.05
X86.38Y-68.59
X86.38Y-71.13
X86.38Y-73.67
X86.38Y-76.21
X86.38Y-78.75
X86.38Y-81.29
X86.38Y-83.83
X86.38Y-86.37
X86.38Y-88.91
X86.38Y-91.45
X86.38Y-93.99
X86.38Y-96.53
X101.62Y-60.97
X101.62Y-63.51
X101.62Y-66.05
X101.62Y-68.59
X101.62Y-71.13
X101.62Y-73.67
X101.62Y-76.21
X101.62Y-78.75
X101.62Y-81.29
X101.62Y-83.83
X101.62Y-86.37
X101.62Y-88.91
X101.62Y-91.45
X101.62Y-93.99
X101.62Y-96.53
T3
X79.0Y-94.78
X79.0Y-97.32
X79.0Y-99.86
X79.0Y-102.4
X109.0Y-94.8
X109.0Y-97.34
X109.0Y-99.88
X109.0Y-102.42
T4
X116.995Y-60.525
X122.075Y-60.525
T5
X134.5Y-101.5
X134.5Y-53.5
X53.5Y-101.5
X53.5Y-53.5
T0
M30
