G04 #@! TF.GenerationSoftware,KiCad,Pcbnew,(5.1.4)-1*
G04 #@! TF.CreationDate,2020-03-06T17:17:20+01:00*
G04 #@! TF.ProjectId,asserv_brushless,61737365-7276-45f6-9272-7573686c6573,rev?*
G04 #@! TF.SameCoordinates,Original*
G04 #@! TF.FileFunction,Legend,Bot*
G04 #@! TF.FilePolarity,Positive*
%FSLAX46Y46*%
G04 Gerber Fmt 4.6, Leading zero omitted, Abs format (unit mm)*
G04 Created by KiCad (PCBNEW (5.1.4)-1) date 2020-03-06 17:17:20*
%MOMM*%
%LPD*%
G04 APERTURE LIST*
%ADD10C,0.010000*%
G04 APERTURE END LIST*
D10*
G36*
X114021059Y-72451639D02*
G01*
X113594347Y-72617869D01*
X113371334Y-72896387D01*
X113371299Y-73250793D01*
X113479413Y-73474297D01*
X113673411Y-73689156D01*
X113942528Y-73781814D01*
X114239745Y-73797000D01*
X114718967Y-73735395D01*
X115009022Y-73553473D01*
X115188096Y-73216551D01*
X115172450Y-73077333D01*
X114955000Y-73077333D01*
X114865719Y-73326231D01*
X114586246Y-73415320D01*
X114548365Y-73416000D01*
X114387250Y-73379759D01*
X114414292Y-73226101D01*
X114447000Y-73162000D01*
X114622586Y-72969621D01*
X114817524Y-72912321D01*
X114943521Y-73004814D01*
X114955000Y-73077333D01*
X115172450Y-73077333D01*
X115151921Y-72894668D01*
X115148360Y-72890256D01*
X114243874Y-72890256D01*
X114113549Y-73105021D01*
X113914255Y-73295206D01*
X113749662Y-73293790D01*
X113692187Y-73124228D01*
X113727651Y-72980036D01*
X113902650Y-72816676D01*
X114064942Y-72781000D01*
X114236414Y-72796919D01*
X114243874Y-72890256D01*
X115148360Y-72890256D01*
X114937851Y-72629483D01*
X114583240Y-72462654D01*
X114125440Y-72435840D01*
X114021059Y-72451639D01*
X114021059Y-72451639D01*
G37*
X114021059Y-72451639D02*
X113594347Y-72617869D01*
X113371334Y-72896387D01*
X113371299Y-73250793D01*
X113479413Y-73474297D01*
X113673411Y-73689156D01*
X113942528Y-73781814D01*
X114239745Y-73797000D01*
X114718967Y-73735395D01*
X115009022Y-73553473D01*
X115188096Y-73216551D01*
X115172450Y-73077333D01*
X114955000Y-73077333D01*
X114865719Y-73326231D01*
X114586246Y-73415320D01*
X114548365Y-73416000D01*
X114387250Y-73379759D01*
X114414292Y-73226101D01*
X114447000Y-73162000D01*
X114622586Y-72969621D01*
X114817524Y-72912321D01*
X114943521Y-73004814D01*
X114955000Y-73077333D01*
X115172450Y-73077333D01*
X115151921Y-72894668D01*
X115148360Y-72890256D01*
X114243874Y-72890256D01*
X114113549Y-73105021D01*
X113914255Y-73295206D01*
X113749662Y-73293790D01*
X113692187Y-73124228D01*
X113727651Y-72980036D01*
X113902650Y-72816676D01*
X114064942Y-72781000D01*
X114236414Y-72796919D01*
X114243874Y-72890256D01*
X115148360Y-72890256D01*
X114937851Y-72629483D01*
X114583240Y-72462654D01*
X114125440Y-72435840D01*
X114021059Y-72451639D01*
G36*
X120759749Y-72523037D02*
G01*
X120475713Y-72728651D01*
X120314680Y-72997573D01*
X120320465Y-73298635D01*
X120521251Y-73586816D01*
X120850479Y-73748732D01*
X121279104Y-73796560D01*
X121696226Y-73731972D01*
X121983817Y-73564749D01*
X122172652Y-73207457D01*
X122161215Y-73107090D01*
X121881262Y-73107090D01*
X121803617Y-73236806D01*
X121606937Y-73379028D01*
X121406292Y-73410576D01*
X121305623Y-73317330D01*
X121305000Y-73304550D01*
X121401836Y-73117086D01*
X121610397Y-72978267D01*
X121807765Y-72968494D01*
X121813604Y-72971873D01*
X121881262Y-73107090D01*
X122161215Y-73107090D01*
X122136506Y-72890256D01*
X121228874Y-72890256D01*
X121098549Y-73105021D01*
X120899255Y-73295206D01*
X120734662Y-73293790D01*
X120677187Y-73124228D01*
X120712651Y-72980036D01*
X120887650Y-72816676D01*
X121049942Y-72781000D01*
X121221414Y-72796919D01*
X121228874Y-72890256D01*
X122136506Y-72890256D01*
X122132328Y-72853601D01*
X121911742Y-72597701D01*
X121521577Y-72426395D01*
X121122975Y-72411896D01*
X120759749Y-72523037D01*
X120759749Y-72523037D01*
G37*
X120759749Y-72523037D02*
X120475713Y-72728651D01*
X120314680Y-72997573D01*
X120320465Y-73298635D01*
X120521251Y-73586816D01*
X120850479Y-73748732D01*
X121279104Y-73796560D01*
X121696226Y-73731972D01*
X121983817Y-73564749D01*
X122172652Y-73207457D01*
X122161215Y-73107090D01*
X121881262Y-73107090D01*
X121803617Y-73236806D01*
X121606937Y-73379028D01*
X121406292Y-73410576D01*
X121305623Y-73317330D01*
X121305000Y-73304550D01*
X121401836Y-73117086D01*
X121610397Y-72978267D01*
X121807765Y-72968494D01*
X121813604Y-72971873D01*
X121881262Y-73107090D01*
X122161215Y-73107090D01*
X122136506Y-72890256D01*
X121228874Y-72890256D01*
X121098549Y-73105021D01*
X120899255Y-73295206D01*
X120734662Y-73293790D01*
X120677187Y-73124228D01*
X120712651Y-72980036D01*
X120887650Y-72816676D01*
X121049942Y-72781000D01*
X121221414Y-72796919D01*
X121228874Y-72890256D01*
X122136506Y-72890256D01*
X122132328Y-72853601D01*
X121911742Y-72597701D01*
X121521577Y-72426395D01*
X121122975Y-72411896D01*
X120759749Y-72523037D01*
G36*
X111931569Y-72244714D02*
G01*
X111722998Y-72508080D01*
X111453199Y-72886935D01*
X111341758Y-73052089D01*
X110739249Y-73958178D01*
X110148375Y-73054226D01*
X109869725Y-72643519D01*
X109637490Y-72329797D01*
X109489270Y-72162789D01*
X109463263Y-72148137D01*
X109354856Y-72245787D01*
X109147352Y-72507999D01*
X108878765Y-72885520D01*
X108772495Y-73043098D01*
X108175964Y-73940196D01*
X107614552Y-73043098D01*
X107345715Y-72631922D01*
X107119791Y-72319928D01*
X106974390Y-72157903D01*
X106950230Y-72146000D01*
X106840367Y-72246408D01*
X106636887Y-72514003D01*
X106377138Y-72898338D01*
X106278314Y-73053539D01*
X106000051Y-73490155D01*
X105819602Y-73739471D01*
X105702550Y-73831053D01*
X105614478Y-73794464D01*
X105539105Y-73688539D01*
X105256140Y-73458519D01*
X105018451Y-73416000D01*
X104760516Y-73457648D01*
X104672718Y-73628882D01*
X104668000Y-73733500D01*
X104734241Y-73988857D01*
X104858500Y-74051000D01*
X105027703Y-74105219D01*
X105049000Y-74151047D01*
X105123839Y-74301963D01*
X105311912Y-74562590D01*
X105403902Y-74676209D01*
X105758803Y-75101323D01*
X106307819Y-74258661D01*
X106576865Y-73863433D01*
X106800253Y-73567579D01*
X106938411Y-73422623D01*
X106955022Y-73415999D01*
X107062430Y-73517369D01*
X107256755Y-73785400D01*
X107499324Y-74165975D01*
X107543355Y-74239281D01*
X107789861Y-74634111D01*
X107994015Y-74926213D01*
X108117406Y-75061324D01*
X108127738Y-75064781D01*
X108236302Y-74967201D01*
X108443703Y-74705263D01*
X108711703Y-74328441D01*
X108813121Y-74178000D01*
X109087071Y-73773294D01*
X109304951Y-73465030D01*
X109431614Y-73302412D01*
X109448121Y-73289000D01*
X109533309Y-73387087D01*
X109722376Y-73648547D01*
X109980174Y-74024177D01*
X110083121Y-74178000D01*
X110361139Y-74583194D01*
X110588867Y-74891271D01*
X110729151Y-75052844D01*
X110750883Y-75065642D01*
X110849886Y-74965607D01*
X111046705Y-74700396D01*
X111304712Y-74320330D01*
X111399000Y-74175229D01*
X111970500Y-73286175D01*
X112229271Y-73605087D01*
X112513206Y-73852071D01*
X112784973Y-73928080D01*
X112983751Y-73833008D01*
X113050000Y-73606500D01*
X113017339Y-73367585D01*
X112954750Y-73288772D01*
X112839204Y-73190131D01*
X112644829Y-72937095D01*
X112498589Y-72717272D01*
X112279902Y-72397523D01*
X112106098Y-72190203D01*
X112040972Y-72145999D01*
X111931569Y-72244714D01*
X111931569Y-72244714D01*
G37*
X111931569Y-72244714D02*
X111722998Y-72508080D01*
X111453199Y-72886935D01*
X111341758Y-73052089D01*
X110739249Y-73958178D01*
X110148375Y-73054226D01*
X109869725Y-72643519D01*
X109637490Y-72329797D01*
X109489270Y-72162789D01*
X109463263Y-72148137D01*
X109354856Y-72245787D01*
X109147352Y-72507999D01*
X108878765Y-72885520D01*
X108772495Y-73043098D01*
X108175964Y-73940196D01*
X107614552Y-73043098D01*
X107345715Y-72631922D01*
X107119791Y-72319928D01*
X106974390Y-72157903D01*
X106950230Y-72146000D01*
X106840367Y-72246408D01*
X106636887Y-72514003D01*
X106377138Y-72898338D01*
X106278314Y-73053539D01*
X106000051Y-73490155D01*
X105819602Y-73739471D01*
X105702550Y-73831053D01*
X105614478Y-73794464D01*
X105539105Y-73688539D01*
X105256140Y-73458519D01*
X105018451Y-73416000D01*
X104760516Y-73457648D01*
X104672718Y-73628882D01*
X104668000Y-73733500D01*
X104734241Y-73988857D01*
X104858500Y-74051000D01*
X105027703Y-74105219D01*
X105049000Y-74151047D01*
X105123839Y-74301963D01*
X105311912Y-74562590D01*
X105403902Y-74676209D01*
X105758803Y-75101323D01*
X106307819Y-74258661D01*
X106576865Y-73863433D01*
X106800253Y-73567579D01*
X106938411Y-73422623D01*
X106955022Y-73415999D01*
X107062430Y-73517369D01*
X107256755Y-73785400D01*
X107499324Y-74165975D01*
X107543355Y-74239281D01*
X107789861Y-74634111D01*
X107994015Y-74926213D01*
X108117406Y-75061324D01*
X108127738Y-75064781D01*
X108236302Y-74967201D01*
X108443703Y-74705263D01*
X108711703Y-74328441D01*
X108813121Y-74178000D01*
X109087071Y-73773294D01*
X109304951Y-73465030D01*
X109431614Y-73302412D01*
X109448121Y-73289000D01*
X109533309Y-73387087D01*
X109722376Y-73648547D01*
X109980174Y-74024177D01*
X110083121Y-74178000D01*
X110361139Y-74583194D01*
X110588867Y-74891271D01*
X110729151Y-75052844D01*
X110750883Y-75065642D01*
X110849886Y-74965607D01*
X111046705Y-74700396D01*
X111304712Y-74320330D01*
X111399000Y-74175229D01*
X111970500Y-73286175D01*
X112229271Y-73605087D01*
X112513206Y-73852071D01*
X112784973Y-73928080D01*
X112983751Y-73833008D01*
X113050000Y-73606500D01*
X113017339Y-73367585D01*
X112954750Y-73288772D01*
X112839204Y-73190131D01*
X112644829Y-72937095D01*
X112498589Y-72717272D01*
X112279902Y-72397523D01*
X112106098Y-72190203D01*
X112040972Y-72145999D01*
X111931569Y-72244714D01*
G36*
X113485554Y-74165220D02*
G01*
X113439571Y-74457263D01*
X113431000Y-74686000D01*
X113453845Y-75048231D01*
X113512253Y-75278147D01*
X113558000Y-75321000D01*
X113661186Y-75214631D01*
X113685000Y-75067000D01*
X113723258Y-74906966D01*
X113881388Y-74832147D01*
X114224423Y-74813024D01*
X114244611Y-74813000D01*
X114588607Y-74826128D01*
X114737261Y-74885472D01*
X114748707Y-75020974D01*
X114737799Y-75067000D01*
X114731805Y-75278506D01*
X114841177Y-75297301D01*
X115015494Y-75123108D01*
X115051451Y-75068723D01*
X115206692Y-74757026D01*
X115183681Y-74563377D01*
X114959166Y-74463282D01*
X114509896Y-74432249D01*
X114447000Y-74432000D01*
X114004542Y-74417369D01*
X113766988Y-74365507D01*
X113686503Y-74264453D01*
X113685000Y-74241500D01*
X113616424Y-74072492D01*
X113558000Y-74051000D01*
X113485554Y-74165220D01*
X113485554Y-74165220D01*
G37*
X113485554Y-74165220D02*
X113439571Y-74457263D01*
X113431000Y-74686000D01*
X113453845Y-75048231D01*
X113512253Y-75278147D01*
X113558000Y-75321000D01*
X113661186Y-75214631D01*
X113685000Y-75067000D01*
X113723258Y-74906966D01*
X113881388Y-74832147D01*
X114224423Y-74813024D01*
X114244611Y-74813000D01*
X114588607Y-74826128D01*
X114737261Y-74885472D01*
X114748707Y-75020974D01*
X114737799Y-75067000D01*
X114731805Y-75278506D01*
X114841177Y-75297301D01*
X115015494Y-75123108D01*
X115051451Y-75068723D01*
X115206692Y-74757026D01*
X115183681Y-74563377D01*
X114959166Y-74463282D01*
X114509896Y-74432249D01*
X114447000Y-74432000D01*
X114004542Y-74417369D01*
X113766988Y-74365507D01*
X113686503Y-74264453D01*
X113685000Y-74241500D01*
X113616424Y-74072492D01*
X113558000Y-74051000D01*
X113485554Y-74165220D01*
G36*
X120643984Y-74147604D02*
G01*
X120472384Y-74374416D01*
X120359486Y-74654250D01*
X120326430Y-74811630D01*
X120385084Y-74897139D01*
X120587688Y-74932635D01*
X120986481Y-74939973D01*
X121042442Y-74940000D01*
X121487711Y-74954344D01*
X121727981Y-75005253D01*
X121811045Y-75104542D01*
X121813000Y-75130500D01*
X121914660Y-75298872D01*
X122003500Y-75321000D01*
X122129062Y-75246207D01*
X122186255Y-74991895D01*
X122194000Y-74749500D01*
X122169070Y-74372816D01*
X122084299Y-74201237D01*
X122003500Y-74178000D01*
X121835128Y-74279659D01*
X121813000Y-74368500D01*
X121731303Y-74499370D01*
X121458784Y-74554671D01*
X121291413Y-74559000D01*
X120958896Y-74538940D01*
X120832085Y-74466048D01*
X120841366Y-74372567D01*
X120847675Y-74172987D01*
X120805844Y-74119965D01*
X120643984Y-74147604D01*
X120643984Y-74147604D01*
G37*
X120643984Y-74147604D02*
X120472384Y-74374416D01*
X120359486Y-74654250D01*
X120326430Y-74811630D01*
X120385084Y-74897139D01*
X120587688Y-74932635D01*
X120986481Y-74939973D01*
X121042442Y-74940000D01*
X121487711Y-74954344D01*
X121727981Y-75005253D01*
X121811045Y-75104542D01*
X121813000Y-75130500D01*
X121914660Y-75298872D01*
X122003500Y-75321000D01*
X122129062Y-75246207D01*
X122186255Y-74991895D01*
X122194000Y-74749500D01*
X122169070Y-74372816D01*
X122084299Y-74201237D01*
X122003500Y-74178000D01*
X121835128Y-74279659D01*
X121813000Y-74368500D01*
X121731303Y-74499370D01*
X121458784Y-74554671D01*
X121291413Y-74559000D01*
X120958896Y-74538940D01*
X120832085Y-74466048D01*
X120841366Y-74372567D01*
X120847675Y-74172987D01*
X120805844Y-74119965D01*
X120643984Y-74147604D01*
G36*
X114023297Y-75601161D02*
G01*
X113658362Y-75745509D01*
X113558000Y-75829000D01*
X113342194Y-76122928D01*
X113344644Y-76408080D01*
X113501702Y-76689741D01*
X113782398Y-76895274D01*
X114186271Y-76982150D01*
X114610127Y-76946922D01*
X114950773Y-76786145D01*
X114998817Y-76739749D01*
X115166010Y-76448716D01*
X115171819Y-76420371D01*
X114911016Y-76420371D01*
X114733592Y-76564136D01*
X114562037Y-76591000D01*
X114390008Y-76556484D01*
X114411371Y-76407233D01*
X114447000Y-76337000D01*
X114635946Y-76113066D01*
X114819278Y-76125428D01*
X114891500Y-76210000D01*
X114911016Y-76420371D01*
X115171819Y-76420371D01*
X115209000Y-76238951D01*
X115146307Y-76065256D01*
X114243874Y-76065256D01*
X114113549Y-76280021D01*
X113914255Y-76470206D01*
X113749662Y-76468790D01*
X113692187Y-76299228D01*
X113727651Y-76155036D01*
X113902650Y-75991676D01*
X114064942Y-75956000D01*
X114236414Y-75971919D01*
X114243874Y-76065256D01*
X115146307Y-76065256D01*
X115098651Y-75933223D01*
X114815927Y-75713016D01*
X114433314Y-75596329D01*
X114023297Y-75601161D01*
X114023297Y-75601161D01*
G37*
X114023297Y-75601161D02*
X113658362Y-75745509D01*
X113558000Y-75829000D01*
X113342194Y-76122928D01*
X113344644Y-76408080D01*
X113501702Y-76689741D01*
X113782398Y-76895274D01*
X114186271Y-76982150D01*
X114610127Y-76946922D01*
X114950773Y-76786145D01*
X114998817Y-76739749D01*
X115166010Y-76448716D01*
X115171819Y-76420371D01*
X114911016Y-76420371D01*
X114733592Y-76564136D01*
X114562037Y-76591000D01*
X114390008Y-76556484D01*
X114411371Y-76407233D01*
X114447000Y-76337000D01*
X114635946Y-76113066D01*
X114819278Y-76125428D01*
X114891500Y-76210000D01*
X114911016Y-76420371D01*
X115171819Y-76420371D01*
X115209000Y-76238951D01*
X115146307Y-76065256D01*
X114243874Y-76065256D01*
X114113549Y-76280021D01*
X113914255Y-76470206D01*
X113749662Y-76468790D01*
X113692187Y-76299228D01*
X113727651Y-76155036D01*
X113902650Y-75991676D01*
X114064942Y-75956000D01*
X114236414Y-75971919D01*
X114243874Y-76065256D01*
X115146307Y-76065256D01*
X115098651Y-75933223D01*
X114815927Y-75713016D01*
X114433314Y-75596329D01*
X114023297Y-75601161D01*
G36*
X120759749Y-75698037D02*
G01*
X120475713Y-75903651D01*
X120314680Y-76172573D01*
X120320465Y-76473635D01*
X120521251Y-76761816D01*
X120850479Y-76923732D01*
X121279104Y-76971560D01*
X121696226Y-76906972D01*
X121983817Y-76739749D01*
X122172652Y-76382457D01*
X122163012Y-76297858D01*
X121884180Y-76297858D01*
X121797665Y-76479220D01*
X121597398Y-76586836D01*
X121545413Y-76591000D01*
X121346434Y-76541908D01*
X121305000Y-76479550D01*
X121399465Y-76296197D01*
X121602356Y-76153710D01*
X121792918Y-76134696D01*
X121801891Y-76139633D01*
X121884180Y-76297858D01*
X122163012Y-76297858D01*
X122136506Y-76065256D01*
X121228874Y-76065256D01*
X121098549Y-76280021D01*
X120899255Y-76470206D01*
X120734662Y-76468790D01*
X120677187Y-76299228D01*
X120712651Y-76155036D01*
X120887650Y-75991676D01*
X121049942Y-75956000D01*
X121221414Y-75971919D01*
X121228874Y-76065256D01*
X122136506Y-76065256D01*
X122132328Y-76028601D01*
X121911742Y-75772701D01*
X121521577Y-75601395D01*
X121122975Y-75586896D01*
X120759749Y-75698037D01*
X120759749Y-75698037D01*
G37*
X120759749Y-75698037D02*
X120475713Y-75903651D01*
X120314680Y-76172573D01*
X120320465Y-76473635D01*
X120521251Y-76761816D01*
X120850479Y-76923732D01*
X121279104Y-76971560D01*
X121696226Y-76906972D01*
X121983817Y-76739749D01*
X122172652Y-76382457D01*
X122163012Y-76297858D01*
X121884180Y-76297858D01*
X121797665Y-76479220D01*
X121597398Y-76586836D01*
X121545413Y-76591000D01*
X121346434Y-76541908D01*
X121305000Y-76479550D01*
X121399465Y-76296197D01*
X121602356Y-76153710D01*
X121792918Y-76134696D01*
X121801891Y-76139633D01*
X121884180Y-76297858D01*
X122163012Y-76297858D01*
X122136506Y-76065256D01*
X121228874Y-76065256D01*
X121098549Y-76280021D01*
X120899255Y-76470206D01*
X120734662Y-76468790D01*
X120677187Y-76299228D01*
X120712651Y-76155036D01*
X120887650Y-75991676D01*
X121049942Y-75956000D01*
X121221414Y-75971919D01*
X121228874Y-76065256D01*
X122136506Y-76065256D01*
X122132328Y-76028601D01*
X121911742Y-75772701D01*
X121521577Y-75601395D01*
X121122975Y-75586896D01*
X120759749Y-75698037D01*
G36*
X113485554Y-77340220D02*
G01*
X113439571Y-77632263D01*
X113431000Y-77861000D01*
X113453845Y-78223231D01*
X113512253Y-78453147D01*
X113558000Y-78496000D01*
X113661186Y-78389631D01*
X113685000Y-78242000D01*
X113723258Y-78081966D01*
X113881388Y-78007147D01*
X114224423Y-77988024D01*
X114244611Y-77988000D01*
X114588607Y-78001128D01*
X114737261Y-78060472D01*
X114748707Y-78195974D01*
X114737799Y-78242000D01*
X114731805Y-78453506D01*
X114841177Y-78472301D01*
X115015494Y-78298108D01*
X115051451Y-78243723D01*
X115206692Y-77932026D01*
X115183681Y-77738377D01*
X114959166Y-77638282D01*
X114509896Y-77607249D01*
X114447000Y-77607000D01*
X114004542Y-77592369D01*
X113766988Y-77540507D01*
X113686503Y-77439453D01*
X113685000Y-77416500D01*
X113616424Y-77247492D01*
X113558000Y-77226000D01*
X113485554Y-77340220D01*
X113485554Y-77340220D01*
G37*
X113485554Y-77340220D02*
X113439571Y-77632263D01*
X113431000Y-77861000D01*
X113453845Y-78223231D01*
X113512253Y-78453147D01*
X113558000Y-78496000D01*
X113661186Y-78389631D01*
X113685000Y-78242000D01*
X113723258Y-78081966D01*
X113881388Y-78007147D01*
X114224423Y-77988024D01*
X114244611Y-77988000D01*
X114588607Y-78001128D01*
X114737261Y-78060472D01*
X114748707Y-78195974D01*
X114737799Y-78242000D01*
X114731805Y-78453506D01*
X114841177Y-78472301D01*
X115015494Y-78298108D01*
X115051451Y-78243723D01*
X115206692Y-77932026D01*
X115183681Y-77738377D01*
X114959166Y-77638282D01*
X114509896Y-77607249D01*
X114447000Y-77607000D01*
X114004542Y-77592369D01*
X113766988Y-77540507D01*
X113686503Y-77439453D01*
X113685000Y-77416500D01*
X113616424Y-77247492D01*
X113558000Y-77226000D01*
X113485554Y-77340220D01*
G36*
X120566109Y-77457355D02*
G01*
X120401533Y-77699568D01*
X120298413Y-77973355D01*
X120289000Y-78059767D01*
X120404417Y-78088902D01*
X120704401Y-78108916D01*
X121051000Y-78115000D01*
X121493459Y-78129630D01*
X121731013Y-78181492D01*
X121811498Y-78282546D01*
X121813000Y-78305500D01*
X121914660Y-78473872D01*
X122003500Y-78496000D01*
X122129062Y-78421207D01*
X122186255Y-78166895D01*
X122194000Y-77924500D01*
X122169070Y-77547816D01*
X122084299Y-77376237D01*
X122003500Y-77353000D01*
X121835128Y-77454659D01*
X121813000Y-77543500D01*
X121731303Y-77674370D01*
X121458784Y-77729671D01*
X121291413Y-77734000D01*
X120960012Y-77714630D01*
X120832971Y-77643038D01*
X120842927Y-77543500D01*
X120822982Y-77379814D01*
X120726371Y-77353000D01*
X120566109Y-77457355D01*
X120566109Y-77457355D01*
G37*
X120566109Y-77457355D02*
X120401533Y-77699568D01*
X120298413Y-77973355D01*
X120289000Y-78059767D01*
X120404417Y-78088902D01*
X120704401Y-78108916D01*
X121051000Y-78115000D01*
X121493459Y-78129630D01*
X121731013Y-78181492D01*
X121811498Y-78282546D01*
X121813000Y-78305500D01*
X121914660Y-78473872D01*
X122003500Y-78496000D01*
X122129062Y-78421207D01*
X122186255Y-78166895D01*
X122194000Y-77924500D01*
X122169070Y-77547816D01*
X122084299Y-77376237D01*
X122003500Y-77353000D01*
X121835128Y-77454659D01*
X121813000Y-77543500D01*
X121731303Y-77674370D01*
X121458784Y-77729671D01*
X121291413Y-77734000D01*
X120960012Y-77714630D01*
X120832971Y-77643038D01*
X120842927Y-77543500D01*
X120822982Y-77379814D01*
X120726371Y-77353000D01*
X120566109Y-77457355D01*
G36*
X113921437Y-78831213D02*
G01*
X113575099Y-79045582D01*
X113394550Y-79349200D01*
X113416450Y-79698162D01*
X113488402Y-79838016D01*
X113681604Y-80045144D01*
X113960033Y-80133773D01*
X114239745Y-80147000D01*
X114734961Y-80079936D01*
X114998817Y-79914749D01*
X115182185Y-79562099D01*
X115170050Y-79427333D01*
X114955000Y-79427333D01*
X114865719Y-79676231D01*
X114586246Y-79765320D01*
X114548365Y-79766000D01*
X114387250Y-79729759D01*
X114414292Y-79576101D01*
X114447000Y-79512000D01*
X114622586Y-79319621D01*
X114817524Y-79262321D01*
X114943521Y-79354814D01*
X114955000Y-79427333D01*
X115170050Y-79427333D01*
X115151397Y-79220181D01*
X114230861Y-79220181D01*
X114125975Y-79435937D01*
X114118536Y-79447409D01*
X113915685Y-79659435D01*
X113753938Y-79665729D01*
X113685091Y-79465432D01*
X113685000Y-79454592D01*
X113794790Y-79270456D01*
X114055327Y-79148576D01*
X114206315Y-79131000D01*
X114230861Y-79220181D01*
X115151397Y-79220181D01*
X115150631Y-79211679D01*
X114936131Y-78925363D01*
X114570659Y-78765026D01*
X114396901Y-78750000D01*
X113921437Y-78831213D01*
X113921437Y-78831213D01*
G37*
X113921437Y-78831213D02*
X113575099Y-79045582D01*
X113394550Y-79349200D01*
X113416450Y-79698162D01*
X113488402Y-79838016D01*
X113681604Y-80045144D01*
X113960033Y-80133773D01*
X114239745Y-80147000D01*
X114734961Y-80079936D01*
X114998817Y-79914749D01*
X115182185Y-79562099D01*
X115170050Y-79427333D01*
X114955000Y-79427333D01*
X114865719Y-79676231D01*
X114586246Y-79765320D01*
X114548365Y-79766000D01*
X114387250Y-79729759D01*
X114414292Y-79576101D01*
X114447000Y-79512000D01*
X114622586Y-79319621D01*
X114817524Y-79262321D01*
X114943521Y-79354814D01*
X114955000Y-79427333D01*
X115170050Y-79427333D01*
X115151397Y-79220181D01*
X114230861Y-79220181D01*
X114125975Y-79435937D01*
X114118536Y-79447409D01*
X113915685Y-79659435D01*
X113753938Y-79665729D01*
X113685091Y-79465432D01*
X113685000Y-79454592D01*
X113794790Y-79270456D01*
X114055327Y-79148576D01*
X114206315Y-79131000D01*
X114230861Y-79220181D01*
X115151397Y-79220181D01*
X115150631Y-79211679D01*
X114936131Y-78925363D01*
X114570659Y-78765026D01*
X114396901Y-78750000D01*
X113921437Y-78831213D01*
G36*
X120803911Y-78834994D02*
G01*
X120486496Y-79054381D01*
X120321660Y-79354766D01*
X120341806Y-79682756D01*
X120521251Y-79936816D01*
X120835052Y-80089007D01*
X121258219Y-80143790D01*
X121678460Y-80100356D01*
X121983484Y-79957896D01*
X121994429Y-79947428D01*
X122173390Y-79626900D01*
X122162564Y-79512000D01*
X121813000Y-79512000D01*
X121723198Y-79724256D01*
X121559000Y-79766000D01*
X121352477Y-79723367D01*
X121305000Y-79664400D01*
X121396485Y-79481054D01*
X121586533Y-79306789D01*
X121711401Y-79258000D01*
X121794010Y-79364581D01*
X121813000Y-79512000D01*
X122162564Y-79512000D01*
X122141918Y-79292887D01*
X122097641Y-79230407D01*
X121232946Y-79230407D01*
X121088679Y-79438515D01*
X120881044Y-79620985D01*
X120722795Y-79615745D01*
X120681375Y-79442251D01*
X120712651Y-79330036D01*
X120887484Y-79167317D01*
X121052944Y-79131000D01*
X121227616Y-79144740D01*
X121232946Y-79230407D01*
X122097641Y-79230407D01*
X121934302Y-78999922D01*
X121584832Y-78802538D01*
X121241500Y-78750000D01*
X120803911Y-78834994D01*
X120803911Y-78834994D01*
G37*
X120803911Y-78834994D02*
X120486496Y-79054381D01*
X120321660Y-79354766D01*
X120341806Y-79682756D01*
X120521251Y-79936816D01*
X120835052Y-80089007D01*
X121258219Y-80143790D01*
X121678460Y-80100356D01*
X121983484Y-79957896D01*
X121994429Y-79947428D01*
X122173390Y-79626900D01*
X122162564Y-79512000D01*
X121813000Y-79512000D01*
X121723198Y-79724256D01*
X121559000Y-79766000D01*
X121352477Y-79723367D01*
X121305000Y-79664400D01*
X121396485Y-79481054D01*
X121586533Y-79306789D01*
X121711401Y-79258000D01*
X121794010Y-79364581D01*
X121813000Y-79512000D01*
X122162564Y-79512000D01*
X122141918Y-79292887D01*
X122097641Y-79230407D01*
X121232946Y-79230407D01*
X121088679Y-79438515D01*
X120881044Y-79620985D01*
X120722795Y-79615745D01*
X120681375Y-79442251D01*
X120712651Y-79330036D01*
X120887484Y-79167317D01*
X121052944Y-79131000D01*
X121227616Y-79144740D01*
X121232946Y-79230407D01*
X122097641Y-79230407D01*
X121934302Y-78999922D01*
X121584832Y-78802538D01*
X121241500Y-78750000D01*
X120803911Y-78834994D01*
G36*
X115374746Y-80514759D02*
G01*
X115090902Y-80644941D01*
X114802929Y-80809494D01*
X114417816Y-81026578D01*
X114187987Y-81099494D01*
X114069680Y-81041862D01*
X114067505Y-81038433D01*
X113906388Y-80939729D01*
X113832579Y-80959781D01*
X113796068Y-81124608D01*
X113940009Y-81453260D01*
X113958164Y-81484458D01*
X114193901Y-81839932D01*
X114367999Y-82014259D01*
X114457275Y-81985345D01*
X114461625Y-81964245D01*
X114465955Y-81754134D01*
X114461243Y-81671000D01*
X114550198Y-81488462D01*
X114790727Y-81263542D01*
X114891118Y-81193582D01*
X115171702Y-81018968D01*
X115299408Y-80979329D01*
X115334433Y-81071383D01*
X115336000Y-81169327D01*
X115384706Y-81345666D01*
X115463000Y-81353500D01*
X115551593Y-81181227D01*
X115588831Y-80889879D01*
X115566909Y-80610620D01*
X115514123Y-80494456D01*
X115374746Y-80514759D01*
X115374746Y-80514759D01*
G37*
X115374746Y-80514759D02*
X115090902Y-80644941D01*
X114802929Y-80809494D01*
X114417816Y-81026578D01*
X114187987Y-81099494D01*
X114069680Y-81041862D01*
X114067505Y-81038433D01*
X113906388Y-80939729D01*
X113832579Y-80959781D01*
X113796068Y-81124608D01*
X113940009Y-81453260D01*
X113958164Y-81484458D01*
X114193901Y-81839932D01*
X114367999Y-82014259D01*
X114457275Y-81985345D01*
X114461625Y-81964245D01*
X114465955Y-81754134D01*
X114461243Y-81671000D01*
X114550198Y-81488462D01*
X114790727Y-81263542D01*
X114891118Y-81193582D01*
X115171702Y-81018968D01*
X115299408Y-80979329D01*
X115334433Y-81071383D01*
X115336000Y-81169327D01*
X115384706Y-81345666D01*
X115463000Y-81353500D01*
X115551593Y-81181227D01*
X115588831Y-80889879D01*
X115566909Y-80610620D01*
X115514123Y-80494456D01*
X115374746Y-80514759D01*
G36*
X120379836Y-80347304D02*
G01*
X120138892Y-80514246D01*
X119951789Y-80695372D01*
X119908000Y-80783847D01*
X120008687Y-80907326D01*
X120266847Y-81100125D01*
X120483487Y-81235550D01*
X120831428Y-81465657D01*
X120982864Y-81648045D01*
X120982929Y-81812404D01*
X120962545Y-82020473D01*
X121062682Y-82056957D01*
X121238683Y-81943227D01*
X121445894Y-81700655D01*
X121543741Y-81544000D01*
X121705374Y-81218700D01*
X121721816Y-81062660D01*
X121656027Y-81036000D01*
X121409786Y-81118290D01*
X121361408Y-81157392D01*
X121168524Y-81178091D01*
X120836396Y-81022972D01*
X120808061Y-81005291D01*
X120574019Y-80826989D01*
X120499893Y-80704417D01*
X120523054Y-80682815D01*
X120640328Y-80558398D01*
X120666326Y-80378412D01*
X120585462Y-80275035D01*
X120571259Y-80274000D01*
X120379836Y-80347304D01*
X120379836Y-80347304D01*
G37*
X120379836Y-80347304D02*
X120138892Y-80514246D01*
X119951789Y-80695372D01*
X119908000Y-80783847D01*
X120008687Y-80907326D01*
X120266847Y-81100125D01*
X120483487Y-81235550D01*
X120831428Y-81465657D01*
X120982864Y-81648045D01*
X120982929Y-81812404D01*
X120962545Y-82020473D01*
X121062682Y-82056957D01*
X121238683Y-81943227D01*
X121445894Y-81700655D01*
X121543741Y-81544000D01*
X121705374Y-81218700D01*
X121721816Y-81062660D01*
X121656027Y-81036000D01*
X121409786Y-81118290D01*
X121361408Y-81157392D01*
X121168524Y-81178091D01*
X120836396Y-81022972D01*
X120808061Y-81005291D01*
X120574019Y-80826989D01*
X120499893Y-80704417D01*
X120523054Y-80682815D01*
X120640328Y-80558398D01*
X120666326Y-80378412D01*
X120585462Y-80275035D01*
X120571259Y-80274000D01*
X120379836Y-80347304D01*
G36*
X68057450Y-75251746D02*
G01*
X67396454Y-75439266D01*
X66831893Y-75781073D01*
X66588622Y-75994186D01*
X66114096Y-76550344D01*
X65803168Y-77178466D01*
X65628296Y-77944236D01*
X65583881Y-78390348D01*
X65515706Y-79385000D01*
X71140000Y-79385000D01*
X71137211Y-79734250D01*
X71058453Y-80163805D01*
X70863687Y-80660302D01*
X70606641Y-81104677D01*
X70423039Y-81316906D01*
X69849404Y-81668192D01*
X69117642Y-81871176D01*
X68278673Y-81921831D01*
X67383418Y-81816129D01*
X66656700Y-81614801D01*
X65792899Y-81309959D01*
X65831200Y-81903229D01*
X65869500Y-82496500D01*
X66564535Y-82726928D01*
X67283124Y-82902768D01*
X68089391Y-83000486D01*
X68892015Y-83016213D01*
X69599679Y-82946080D01*
X69917000Y-82868971D01*
X70832206Y-82457429D01*
X71565196Y-81869561D01*
X72114256Y-81106917D01*
X72296274Y-80718500D01*
X72365423Y-80423013D01*
X72419854Y-79954526D01*
X72451424Y-79393954D01*
X72456013Y-79131000D01*
X72446424Y-78490430D01*
X72435125Y-78369000D01*
X71169625Y-78369000D01*
X68995813Y-78369000D01*
X68206785Y-78368066D01*
X67636317Y-78362252D01*
X67248971Y-78347034D01*
X67009307Y-78317890D01*
X66881886Y-78270298D01*
X66831268Y-78199735D01*
X66822015Y-78101678D01*
X66822000Y-78091596D01*
X66876342Y-77810587D01*
X67013143Y-77429639D01*
X67083634Y-77273730D01*
X67463577Y-76752192D01*
X67981869Y-76404876D01*
X68588024Y-76236128D01*
X69231559Y-76250292D01*
X69861991Y-76451714D01*
X70428834Y-76844738D01*
X70555996Y-76974882D01*
X70813546Y-77287286D01*
X70980086Y-77541704D01*
X71014735Y-77639115D01*
X71047498Y-77883784D01*
X71093047Y-78083250D01*
X71169625Y-78369000D01*
X72435125Y-78369000D01*
X72402680Y-78020351D01*
X72312181Y-77638170D01*
X72175136Y-77289500D01*
X71679168Y-76459368D01*
X71034705Y-75834707D01*
X70247415Y-75419120D01*
X69322966Y-75216211D01*
X68881671Y-75195240D01*
X68057450Y-75251746D01*
X68057450Y-75251746D01*
G37*
X68057450Y-75251746D02*
X67396454Y-75439266D01*
X66831893Y-75781073D01*
X66588622Y-75994186D01*
X66114096Y-76550344D01*
X65803168Y-77178466D01*
X65628296Y-77944236D01*
X65583881Y-78390348D01*
X65515706Y-79385000D01*
X71140000Y-79385000D01*
X71137211Y-79734250D01*
X71058453Y-80163805D01*
X70863687Y-80660302D01*
X70606641Y-81104677D01*
X70423039Y-81316906D01*
X69849404Y-81668192D01*
X69117642Y-81871176D01*
X68278673Y-81921831D01*
X67383418Y-81816129D01*
X66656700Y-81614801D01*
X65792899Y-81309959D01*
X65831200Y-81903229D01*
X65869500Y-82496500D01*
X66564535Y-82726928D01*
X67283124Y-82902768D01*
X68089391Y-83000486D01*
X68892015Y-83016213D01*
X69599679Y-82946080D01*
X69917000Y-82868971D01*
X70832206Y-82457429D01*
X71565196Y-81869561D01*
X72114256Y-81106917D01*
X72296274Y-80718500D01*
X72365423Y-80423013D01*
X72419854Y-79954526D01*
X72451424Y-79393954D01*
X72456013Y-79131000D01*
X72446424Y-78490430D01*
X72435125Y-78369000D01*
X71169625Y-78369000D01*
X68995813Y-78369000D01*
X68206785Y-78368066D01*
X67636317Y-78362252D01*
X67248971Y-78347034D01*
X67009307Y-78317890D01*
X66881886Y-78270298D01*
X66831268Y-78199735D01*
X66822015Y-78101678D01*
X66822000Y-78091596D01*
X66876342Y-77810587D01*
X67013143Y-77429639D01*
X67083634Y-77273730D01*
X67463577Y-76752192D01*
X67981869Y-76404876D01*
X68588024Y-76236128D01*
X69231559Y-76250292D01*
X69861991Y-76451714D01*
X70428834Y-76844738D01*
X70555996Y-76974882D01*
X70813546Y-77287286D01*
X70980086Y-77541704D01*
X71014735Y-77639115D01*
X71047498Y-77883784D01*
X71093047Y-78083250D01*
X71169625Y-78369000D01*
X72435125Y-78369000D01*
X72402680Y-78020351D01*
X72312181Y-77638170D01*
X72175136Y-77289500D01*
X71679168Y-76459368D01*
X71034705Y-75834707D01*
X70247415Y-75419120D01*
X69322966Y-75216211D01*
X68881671Y-75195240D01*
X68057450Y-75251746D01*
G36*
X86252292Y-77765750D02*
G01*
X86245264Y-78562811D01*
X86226148Y-79303101D01*
X86197196Y-79937151D01*
X86160659Y-80415490D01*
X86119380Y-80686540D01*
X85869297Y-81282472D01*
X85495546Y-81667430D01*
X84971949Y-81864986D01*
X84781402Y-81891265D01*
X84037720Y-81858323D01*
X83411474Y-81601597D01*
X82891895Y-81116577D01*
X82872492Y-81091465D01*
X82506500Y-80611979D01*
X82465555Y-77966489D01*
X82424610Y-75321000D01*
X81173000Y-75321000D01*
X81173000Y-82814000D01*
X82443000Y-82814000D01*
X82443000Y-81837328D01*
X82927959Y-82298658D01*
X83598906Y-82770664D01*
X84360948Y-83017822D01*
X85171927Y-83031525D01*
X85788792Y-82882751D01*
X86426022Y-82544705D01*
X86917825Y-82023226D01*
X87188039Y-81544000D01*
X87276046Y-81333642D01*
X87343601Y-81105101D01*
X87394200Y-80820381D01*
X87431337Y-80441489D01*
X87458507Y-79930428D01*
X87479205Y-79249206D01*
X87496926Y-78359828D01*
X87500534Y-78146750D01*
X87547494Y-75321000D01*
X86253000Y-75321000D01*
X86252292Y-77765750D01*
X86252292Y-77765750D01*
G37*
X86252292Y-77765750D02*
X86245264Y-78562811D01*
X86226148Y-79303101D01*
X86197196Y-79937151D01*
X86160659Y-80415490D01*
X86119380Y-80686540D01*
X85869297Y-81282472D01*
X85495546Y-81667430D01*
X84971949Y-81864986D01*
X84781402Y-81891265D01*
X84037720Y-81858323D01*
X83411474Y-81601597D01*
X82891895Y-81116577D01*
X82872492Y-81091465D01*
X82506500Y-80611979D01*
X82465555Y-77966489D01*
X82424610Y-75321000D01*
X81173000Y-75321000D01*
X81173000Y-82814000D01*
X82443000Y-82814000D01*
X82443000Y-81837328D01*
X82927959Y-82298658D01*
X83598906Y-82770664D01*
X84360948Y-83017822D01*
X85171927Y-83031525D01*
X85788792Y-82882751D01*
X86426022Y-82544705D01*
X86917825Y-82023226D01*
X87188039Y-81544000D01*
X87276046Y-81333642D01*
X87343601Y-81105101D01*
X87394200Y-80820381D01*
X87431337Y-80441489D01*
X87458507Y-79930428D01*
X87479205Y-79249206D01*
X87496926Y-78359828D01*
X87500534Y-78146750D01*
X87547494Y-75321000D01*
X86253000Y-75321000D01*
X86252292Y-77765750D01*
G36*
X91458135Y-75229978D02*
G01*
X90866108Y-75352018D01*
X90370891Y-75590304D01*
X89897457Y-75973070D01*
X89738377Y-76130607D01*
X89328336Y-76598106D01*
X89064046Y-77039270D01*
X88881127Y-77555458D01*
X88697022Y-78560995D01*
X88693977Y-79563716D01*
X88862463Y-80513138D01*
X89192950Y-81358774D01*
X89675907Y-82050139D01*
X89742625Y-82119309D01*
X90425814Y-82629236D01*
X91237266Y-82946280D01*
X92126156Y-83057677D01*
X93041660Y-82950663D01*
X93047500Y-82949246D01*
X93839474Y-82633156D01*
X94502653Y-82118291D01*
X95022021Y-81432970D01*
X95382559Y-80605509D01*
X95569251Y-79664227D01*
X95567759Y-78958614D01*
X94237028Y-78958614D01*
X94188064Y-79779108D01*
X94005215Y-80521435D01*
X93702132Y-81138872D01*
X93292466Y-81584694D01*
X93084756Y-81713079D01*
X92487732Y-81894437D01*
X91850091Y-81904777D01*
X91270208Y-81747717D01*
X91077079Y-81639250D01*
X90629477Y-81226900D01*
X90322950Y-80677454D01*
X90142747Y-79955954D01*
X90081573Y-79279768D01*
X90098424Y-78392690D01*
X90243444Y-77689518D01*
X90530277Y-77127447D01*
X90894029Y-76730182D01*
X91474200Y-76363212D01*
X92079635Y-76226806D01*
X92673350Y-76305274D01*
X93218363Y-76582925D01*
X93677691Y-77044069D01*
X94014351Y-77673016D01*
X94138455Y-78106677D01*
X94237028Y-78958614D01*
X95567759Y-78958614D01*
X95567079Y-78637440D01*
X95522093Y-78282989D01*
X95267276Y-77272658D01*
X94854530Y-76458186D01*
X94287266Y-75842760D01*
X93568891Y-75429569D01*
X92702813Y-75221802D01*
X92222000Y-75195948D01*
X91458135Y-75229978D01*
X91458135Y-75229978D01*
G37*
X91458135Y-75229978D02*
X90866108Y-75352018D01*
X90370891Y-75590304D01*
X89897457Y-75973070D01*
X89738377Y-76130607D01*
X89328336Y-76598106D01*
X89064046Y-77039270D01*
X88881127Y-77555458D01*
X88697022Y-78560995D01*
X88693977Y-79563716D01*
X88862463Y-80513138D01*
X89192950Y-81358774D01*
X89675907Y-82050139D01*
X89742625Y-82119309D01*
X90425814Y-82629236D01*
X91237266Y-82946280D01*
X92126156Y-83057677D01*
X93041660Y-82950663D01*
X93047500Y-82949246D01*
X93839474Y-82633156D01*
X94502653Y-82118291D01*
X95022021Y-81432970D01*
X95382559Y-80605509D01*
X95569251Y-79664227D01*
X95567759Y-78958614D01*
X94237028Y-78958614D01*
X94188064Y-79779108D01*
X94005215Y-80521435D01*
X93702132Y-81138872D01*
X93292466Y-81584694D01*
X93084756Y-81713079D01*
X92487732Y-81894437D01*
X91850091Y-81904777D01*
X91270208Y-81747717D01*
X91077079Y-81639250D01*
X90629477Y-81226900D01*
X90322950Y-80677454D01*
X90142747Y-79955954D01*
X90081573Y-79279768D01*
X90098424Y-78392690D01*
X90243444Y-77689518D01*
X90530277Y-77127447D01*
X90894029Y-76730182D01*
X91474200Y-76363212D01*
X92079635Y-76226806D01*
X92673350Y-76305274D01*
X93218363Y-76582925D01*
X93677691Y-77044069D01*
X94014351Y-77673016D01*
X94138455Y-78106677D01*
X94237028Y-78958614D01*
X95567759Y-78958614D01*
X95567079Y-78637440D01*
X95522093Y-78282989D01*
X95267276Y-77272658D01*
X94854530Y-76458186D01*
X94287266Y-75842760D01*
X93568891Y-75429569D01*
X92702813Y-75221802D01*
X92222000Y-75195948D01*
X91458135Y-75229978D01*
G36*
X116004697Y-81342805D02*
G01*
X115744732Y-81532672D01*
X115510716Y-81875271D01*
X115361116Y-82271421D01*
X115336000Y-82477143D01*
X115446250Y-82831996D01*
X115724372Y-83076227D01*
X116091430Y-83159220D01*
X116322923Y-83109999D01*
X116522366Y-82925317D01*
X116654214Y-82690237D01*
X116155787Y-82690237D01*
X116143270Y-82794219D01*
X115986035Y-82813984D01*
X115974262Y-82814000D01*
X115786325Y-82755532D01*
X115719887Y-82536243D01*
X115717000Y-82433000D01*
X115734483Y-82165268D01*
X115776594Y-82052021D01*
X115777239Y-82052000D01*
X115869811Y-82152416D01*
X116015994Y-82397710D01*
X116034500Y-82433000D01*
X116155787Y-82690237D01*
X116654214Y-82690237D01*
X116709496Y-82591673D01*
X116834908Y-82211382D01*
X116853626Y-82052000D01*
X116479000Y-82052000D01*
X116461518Y-82319731D01*
X116419407Y-82432978D01*
X116418762Y-82433000D01*
X116326190Y-82332583D01*
X116180007Y-82087289D01*
X116161500Y-82052000D01*
X116040214Y-81794762D01*
X116052731Y-81690780D01*
X116209966Y-81671015D01*
X116221739Y-81671000D01*
X116409676Y-81729467D01*
X116476114Y-81948756D01*
X116479000Y-82052000D01*
X116853626Y-82052000D01*
X116860000Y-81997734D01*
X116752280Y-81684438D01*
X116490310Y-81436638D01*
X116165877Y-81324619D01*
X116004697Y-81342805D01*
X116004697Y-81342805D01*
G37*
X116004697Y-81342805D02*
X115744732Y-81532672D01*
X115510716Y-81875271D01*
X115361116Y-82271421D01*
X115336000Y-82477143D01*
X115446250Y-82831996D01*
X115724372Y-83076227D01*
X116091430Y-83159220D01*
X116322923Y-83109999D01*
X116522366Y-82925317D01*
X116654214Y-82690237D01*
X116155787Y-82690237D01*
X116143270Y-82794219D01*
X115986035Y-82813984D01*
X115974262Y-82814000D01*
X115786325Y-82755532D01*
X115719887Y-82536243D01*
X115717000Y-82433000D01*
X115734483Y-82165268D01*
X115776594Y-82052021D01*
X115777239Y-82052000D01*
X115869811Y-82152416D01*
X116015994Y-82397710D01*
X116034500Y-82433000D01*
X116155787Y-82690237D01*
X116654214Y-82690237D01*
X116709496Y-82591673D01*
X116834908Y-82211382D01*
X116853626Y-82052000D01*
X116479000Y-82052000D01*
X116461518Y-82319731D01*
X116419407Y-82432978D01*
X116418762Y-82433000D01*
X116326190Y-82332583D01*
X116180007Y-82087289D01*
X116161500Y-82052000D01*
X116040214Y-81794762D01*
X116052731Y-81690780D01*
X116209966Y-81671015D01*
X116221739Y-81671000D01*
X116409676Y-81729467D01*
X116476114Y-81948756D01*
X116479000Y-82052000D01*
X116853626Y-82052000D01*
X116860000Y-81997734D01*
X116752280Y-81684438D01*
X116490310Y-81436638D01*
X116165877Y-81324619D01*
X116004697Y-81342805D01*
G36*
X119060110Y-81410730D02*
G01*
X118934692Y-81482455D01*
X118719100Y-81665985D01*
X118655545Y-81891728D01*
X118682622Y-82159737D01*
X118848541Y-82611906D01*
X119085295Y-82909250D01*
X119340787Y-83113876D01*
X119527644Y-83171841D01*
X119764650Y-83107919D01*
X119858667Y-83070546D01*
X120128178Y-82847030D01*
X120167341Y-82613170D01*
X119849062Y-82613170D01*
X119790185Y-82753560D01*
X119608405Y-82814000D01*
X119386163Y-82731625D01*
X119298400Y-82661600D01*
X119157772Y-82459834D01*
X119202967Y-82359043D01*
X119336500Y-82373485D01*
X119636531Y-82467576D01*
X119725550Y-82495603D01*
X119849062Y-82613170D01*
X120167341Y-82613170D01*
X120189593Y-82480301D01*
X120089831Y-82136719D01*
X119748367Y-82136719D01*
X119677363Y-82162908D01*
X119594888Y-82134757D01*
X119307447Y-82061506D01*
X119199113Y-82052000D01*
X119039808Y-81950114D01*
X119019000Y-81861500D01*
X119106417Y-81702965D01*
X119308332Y-81682791D01*
X119534240Y-81789371D01*
X119664307Y-81944257D01*
X119748367Y-82136719D01*
X120089831Y-82136719D01*
X120042431Y-81973476D01*
X120031694Y-81949205D01*
X119758619Y-81521686D01*
X119434136Y-81341930D01*
X119060110Y-81410730D01*
X119060110Y-81410730D01*
G37*
X119060110Y-81410730D02*
X118934692Y-81482455D01*
X118719100Y-81665985D01*
X118655545Y-81891728D01*
X118682622Y-82159737D01*
X118848541Y-82611906D01*
X119085295Y-82909250D01*
X119340787Y-83113876D01*
X119527644Y-83171841D01*
X119764650Y-83107919D01*
X119858667Y-83070546D01*
X120128178Y-82847030D01*
X120167341Y-82613170D01*
X119849062Y-82613170D01*
X119790185Y-82753560D01*
X119608405Y-82814000D01*
X119386163Y-82731625D01*
X119298400Y-82661600D01*
X119157772Y-82459834D01*
X119202967Y-82359043D01*
X119336500Y-82373485D01*
X119636531Y-82467576D01*
X119725550Y-82495603D01*
X119849062Y-82613170D01*
X120167341Y-82613170D01*
X120189593Y-82480301D01*
X120089831Y-82136719D01*
X119748367Y-82136719D01*
X119677363Y-82162908D01*
X119594888Y-82134757D01*
X119307447Y-82061506D01*
X119199113Y-82052000D01*
X119039808Y-81950114D01*
X119019000Y-81861500D01*
X119106417Y-81702965D01*
X119308332Y-81682791D01*
X119534240Y-81789371D01*
X119664307Y-81944257D01*
X119748367Y-82136719D01*
X120089831Y-82136719D01*
X120042431Y-81973476D01*
X120031694Y-81949205D01*
X119758619Y-81521686D01*
X119434136Y-81341930D01*
X119060110Y-81410730D01*
G36*
X108774801Y-75544269D02*
G01*
X108604808Y-75795878D01*
X108431619Y-76088283D01*
X108173891Y-76524421D01*
X108032489Y-76786580D01*
X107993827Y-76919040D01*
X108044320Y-76966087D01*
X108160500Y-76972000D01*
X108219483Y-77000632D01*
X108265152Y-77104957D01*
X108299132Y-77312617D01*
X108323050Y-77651254D01*
X108338531Y-78148509D01*
X108347203Y-78832024D01*
X108350690Y-79729441D01*
X108351000Y-80210500D01*
X108351000Y-83449000D01*
X109494000Y-83449000D01*
X109494000Y-80210500D01*
X109495564Y-79210535D01*
X109501379Y-78436617D01*
X109513137Y-77860808D01*
X109532528Y-77455166D01*
X109561239Y-77191754D01*
X109600963Y-77042629D01*
X109653387Y-76979854D01*
X109689854Y-76972000D01*
X109779302Y-76928059D01*
X109747931Y-76767872D01*
X109585145Y-76448889D01*
X109539592Y-76368750D01*
X109251299Y-75866635D01*
X109055860Y-75568969D01*
X108911089Y-75465073D01*
X108774801Y-75544269D01*
X108774801Y-75544269D01*
G37*
X108774801Y-75544269D02*
X108604808Y-75795878D01*
X108431619Y-76088283D01*
X108173891Y-76524421D01*
X108032489Y-76786580D01*
X107993827Y-76919040D01*
X108044320Y-76966087D01*
X108160500Y-76972000D01*
X108219483Y-77000632D01*
X108265152Y-77104957D01*
X108299132Y-77312617D01*
X108323050Y-77651254D01*
X108338531Y-78148509D01*
X108347203Y-78832024D01*
X108350690Y-79729441D01*
X108351000Y-80210500D01*
X108351000Y-83449000D01*
X109494000Y-83449000D01*
X109494000Y-80210500D01*
X109495564Y-79210535D01*
X109501379Y-78436617D01*
X109513137Y-77860808D01*
X109532528Y-77455166D01*
X109561239Y-77191754D01*
X109600963Y-77042629D01*
X109653387Y-76979854D01*
X109689854Y-76972000D01*
X109779302Y-76928059D01*
X109747931Y-76767872D01*
X109585145Y-76448889D01*
X109539592Y-76368750D01*
X109251299Y-75866635D01*
X109055860Y-75568969D01*
X108911089Y-75465073D01*
X108774801Y-75544269D01*
G36*
X117623269Y-81699710D02*
G01*
X117524682Y-81925901D01*
X117495211Y-82373256D01*
X117495000Y-82433000D01*
X117480370Y-82875458D01*
X117428508Y-83113012D01*
X117327454Y-83193497D01*
X117304500Y-83195000D01*
X117135493Y-83263576D01*
X117114000Y-83322000D01*
X117228221Y-83394446D01*
X117520264Y-83440429D01*
X117749000Y-83449000D01*
X118111232Y-83426155D01*
X118341148Y-83367747D01*
X118384000Y-83322000D01*
X118277632Y-83218814D01*
X118130000Y-83195000D01*
X117969967Y-83156742D01*
X117895148Y-82998612D01*
X117876025Y-82655577D01*
X117876000Y-82635389D01*
X117889129Y-82291393D01*
X117948473Y-82142739D01*
X118083975Y-82131293D01*
X118130000Y-82142201D01*
X118337026Y-82138474D01*
X118367760Y-82019079D01*
X118220513Y-81852824D01*
X118138350Y-81802468D01*
X117818612Y-81667595D01*
X117623269Y-81699710D01*
X117623269Y-81699710D01*
G37*
X117623269Y-81699710D02*
X117524682Y-81925901D01*
X117495211Y-82373256D01*
X117495000Y-82433000D01*
X117480370Y-82875458D01*
X117428508Y-83113012D01*
X117327454Y-83193497D01*
X117304500Y-83195000D01*
X117135493Y-83263576D01*
X117114000Y-83322000D01*
X117228221Y-83394446D01*
X117520264Y-83440429D01*
X117749000Y-83449000D01*
X118111232Y-83426155D01*
X118341148Y-83367747D01*
X118384000Y-83322000D01*
X118277632Y-83218814D01*
X118130000Y-83195000D01*
X117969967Y-83156742D01*
X117895148Y-82998612D01*
X117876025Y-82655577D01*
X117876000Y-82635389D01*
X117889129Y-82291393D01*
X117948473Y-82142739D01*
X118083975Y-82131293D01*
X118130000Y-82142201D01*
X118337026Y-82138474D01*
X118367760Y-82019079D01*
X118220513Y-81852824D01*
X118138350Y-81802468D01*
X117818612Y-81667595D01*
X117623269Y-81699710D01*
G36*
X99485908Y-71916392D02*
G01*
X99304123Y-72026823D01*
X99189468Y-72268704D01*
X99045367Y-72530775D01*
X98787113Y-72706736D01*
X98465824Y-72819924D01*
X98095760Y-72916451D01*
X97869870Y-72921882D01*
X97692567Y-72828968D01*
X97604832Y-72754629D01*
X97418443Y-72609320D01*
X97251466Y-72583783D01*
X97000195Y-72675942D01*
X96864384Y-72739794D01*
X96565040Y-72905235D01*
X96449035Y-73066520D01*
X96461184Y-73306788D01*
X96467265Y-73338071D01*
X96452346Y-73744423D01*
X96330075Y-73945465D01*
X96188530Y-74134390D01*
X96170362Y-74216658D01*
X96287829Y-74309988D01*
X96546175Y-74519386D01*
X96889884Y-74799851D01*
X96895907Y-74804779D01*
X97569313Y-75355798D01*
X98273065Y-74999732D01*
X99103863Y-74705605D01*
X99930198Y-74640938D01*
X100718026Y-74785100D01*
X101433301Y-75117460D01*
X102041981Y-75617390D01*
X102510019Y-76264258D01*
X102803373Y-77037435D01*
X102890000Y-77797499D01*
X102775008Y-78691887D01*
X102439810Y-79470680D01*
X101899078Y-80114981D01*
X101167480Y-80605889D01*
X100513860Y-80858708D01*
X99689270Y-80970432D01*
X98859720Y-80844132D01*
X98079976Y-80488663D01*
X98031595Y-80457357D01*
X97554690Y-80142528D01*
X96730931Y-80695146D01*
X95907172Y-81247763D01*
X96233223Y-81554073D01*
X96464830Y-81847616D01*
X96499916Y-82150607D01*
X96491221Y-82200646D01*
X96482035Y-82442601D01*
X96608302Y-82627002D01*
X96883028Y-82812233D01*
X97179254Y-82976657D01*
X97352475Y-83013526D01*
X97496868Y-82926998D01*
X97583294Y-82843150D01*
X97758517Y-82702932D01*
X97957587Y-82664672D01*
X98274340Y-82718229D01*
X98416117Y-82753164D01*
X98813185Y-82885934D01*
X99043705Y-83067838D01*
X99171631Y-83303292D01*
X99312722Y-83567633D01*
X99509399Y-83680374D01*
X99832516Y-83703000D01*
X100166194Y-83679592D01*
X100344202Y-83566398D01*
X100463606Y-83298960D01*
X100470020Y-83279649D01*
X100585126Y-83018958D01*
X100764541Y-82860881D01*
X101087216Y-82748167D01*
X101261168Y-82705931D01*
X101666140Y-82626781D01*
X101913550Y-82628783D01*
X102088042Y-82716583D01*
X102131568Y-82753728D01*
X102297544Y-82870154D01*
X102477902Y-82870461D01*
X102770986Y-82751277D01*
X102815227Y-82730299D01*
X103110991Y-82566347D01*
X103222613Y-82406070D01*
X103204545Y-82166028D01*
X103199318Y-82141745D01*
X103229930Y-81747979D01*
X103457118Y-81393839D01*
X103824116Y-81137225D01*
X104274158Y-81036040D01*
X104283379Y-81036000D01*
X104633740Y-80990668D01*
X104864160Y-80807121D01*
X104972717Y-80642441D01*
X105118264Y-80368244D01*
X105125105Y-80181986D01*
X104988063Y-79955539D01*
X104942462Y-79893514D01*
X104742524Y-79470129D01*
X104736599Y-79058502D01*
X104911322Y-78723436D01*
X105222052Y-78537946D01*
X105485120Y-78430903D01*
X105609463Y-78250683D01*
X105658263Y-77915065D01*
X105661959Y-77575534D01*
X105566095Y-77380137D01*
X105309732Y-77221961D01*
X105245513Y-77190943D01*
X104910906Y-76970486D01*
X104794139Y-76716877D01*
X104793056Y-76688304D01*
X104742770Y-76375515D01*
X104677536Y-76221079D01*
X104664955Y-75973778D01*
X104828116Y-75684369D01*
X104992132Y-75440167D01*
X105022107Y-75256488D01*
X104922497Y-75013221D01*
X104857532Y-74891192D01*
X104673103Y-74605809D01*
X104481491Y-74500571D01*
X104232646Y-74510666D01*
X103819895Y-74459236D01*
X103449578Y-74230731D01*
X103189287Y-73888980D01*
X103106613Y-73497807D01*
X103111615Y-73452079D01*
X103109059Y-73157982D01*
X102958399Y-72934148D01*
X102778241Y-72791851D01*
X102388678Y-72514458D01*
X102036089Y-72769479D01*
X101778802Y-72924359D01*
X101534855Y-72958850D01*
X101184004Y-72887443D01*
X101145056Y-72876861D01*
X100775345Y-72739909D01*
X100569453Y-72543058D01*
X100468456Y-72310611D01*
X100351211Y-72037904D01*
X100180162Y-71919183D01*
X99859523Y-71892078D01*
X99825545Y-71892000D01*
X99485908Y-71916392D01*
X99485908Y-71916392D01*
G37*
X99485908Y-71916392D02*
X99304123Y-72026823D01*
X99189468Y-72268704D01*
X99045367Y-72530775D01*
X98787113Y-72706736D01*
X98465824Y-72819924D01*
X98095760Y-72916451D01*
X97869870Y-72921882D01*
X97692567Y-72828968D01*
X97604832Y-72754629D01*
X97418443Y-72609320D01*
X97251466Y-72583783D01*
X97000195Y-72675942D01*
X96864384Y-72739794D01*
X96565040Y-72905235D01*
X96449035Y-73066520D01*
X96461184Y-73306788D01*
X96467265Y-73338071D01*
X96452346Y-73744423D01*
X96330075Y-73945465D01*
X96188530Y-74134390D01*
X96170362Y-74216658D01*
X96287829Y-74309988D01*
X96546175Y-74519386D01*
X96889884Y-74799851D01*
X96895907Y-74804779D01*
X97569313Y-75355798D01*
X98273065Y-74999732D01*
X99103863Y-74705605D01*
X99930198Y-74640938D01*
X100718026Y-74785100D01*
X101433301Y-75117460D01*
X102041981Y-75617390D01*
X102510019Y-76264258D01*
X102803373Y-77037435D01*
X102890000Y-77797499D01*
X102775008Y-78691887D01*
X102439810Y-79470680D01*
X101899078Y-80114981D01*
X101167480Y-80605889D01*
X100513860Y-80858708D01*
X99689270Y-80970432D01*
X98859720Y-80844132D01*
X98079976Y-80488663D01*
X98031595Y-80457357D01*
X97554690Y-80142528D01*
X96730931Y-80695146D01*
X95907172Y-81247763D01*
X96233223Y-81554073D01*
X96464830Y-81847616D01*
X96499916Y-82150607D01*
X96491221Y-82200646D01*
X96482035Y-82442601D01*
X96608302Y-82627002D01*
X96883028Y-82812233D01*
X97179254Y-82976657D01*
X97352475Y-83013526D01*
X97496868Y-82926998D01*
X97583294Y-82843150D01*
X97758517Y-82702932D01*
X97957587Y-82664672D01*
X98274340Y-82718229D01*
X98416117Y-82753164D01*
X98813185Y-82885934D01*
X99043705Y-83067838D01*
X99171631Y-83303292D01*
X99312722Y-83567633D01*
X99509399Y-83680374D01*
X99832516Y-83703000D01*
X100166194Y-83679592D01*
X100344202Y-83566398D01*
X100463606Y-83298960D01*
X100470020Y-83279649D01*
X100585126Y-83018958D01*
X100764541Y-82860881D01*
X101087216Y-82748167D01*
X101261168Y-82705931D01*
X101666140Y-82626781D01*
X101913550Y-82628783D01*
X102088042Y-82716583D01*
X102131568Y-82753728D01*
X102297544Y-82870154D01*
X102477902Y-82870461D01*
X102770986Y-82751277D01*
X102815227Y-82730299D01*
X103110991Y-82566347D01*
X103222613Y-82406070D01*
X103204545Y-82166028D01*
X103199318Y-82141745D01*
X103229930Y-81747979D01*
X103457118Y-81393839D01*
X103824116Y-81137225D01*
X104274158Y-81036040D01*
X104283379Y-81036000D01*
X104633740Y-80990668D01*
X104864160Y-80807121D01*
X104972717Y-80642441D01*
X105118264Y-80368244D01*
X105125105Y-80181986D01*
X104988063Y-79955539D01*
X104942462Y-79893514D01*
X104742524Y-79470129D01*
X104736599Y-79058502D01*
X104911322Y-78723436D01*
X105222052Y-78537946D01*
X105485120Y-78430903D01*
X105609463Y-78250683D01*
X105658263Y-77915065D01*
X105661959Y-77575534D01*
X105566095Y-77380137D01*
X105309732Y-77221961D01*
X105245513Y-77190943D01*
X104910906Y-76970486D01*
X104794139Y-76716877D01*
X104793056Y-76688304D01*
X104742770Y-76375515D01*
X104677536Y-76221079D01*
X104664955Y-75973778D01*
X104828116Y-75684369D01*
X104992132Y-75440167D01*
X105022107Y-75256488D01*
X104922497Y-75013221D01*
X104857532Y-74891192D01*
X104673103Y-74605809D01*
X104481491Y-74500571D01*
X104232646Y-74510666D01*
X103819895Y-74459236D01*
X103449578Y-74230731D01*
X103189287Y-73888980D01*
X103106613Y-73497807D01*
X103111615Y-73452079D01*
X103109059Y-73157982D01*
X102958399Y-72934148D01*
X102778241Y-72791851D01*
X102388678Y-72514458D01*
X102036089Y-72769479D01*
X101778802Y-72924359D01*
X101534855Y-72958850D01*
X101184004Y-72887443D01*
X101145056Y-72876861D01*
X100775345Y-72739909D01*
X100569453Y-72543058D01*
X100468456Y-72310611D01*
X100351211Y-72037904D01*
X100180162Y-71919183D01*
X99859523Y-71892078D01*
X99825545Y-71892000D01*
X99485908Y-71916392D01*
G36*
X75647221Y-75306302D02*
G01*
X74921242Y-75633848D01*
X74299298Y-76188588D01*
X74295289Y-76193264D01*
X73866972Y-76827112D01*
X73589346Y-77571026D01*
X73449374Y-78469050D01*
X73426000Y-79129616D01*
X73512879Y-80250832D01*
X73773663Y-81187204D01*
X74208574Y-81939228D01*
X74817834Y-82507398D01*
X74989190Y-82615967D01*
X75765693Y-82942380D01*
X76561988Y-83043850D01*
X77332533Y-82924819D01*
X78031788Y-82589730D01*
X78401924Y-82283076D01*
X78887000Y-81798000D01*
X78887000Y-85735000D01*
X80157000Y-85735000D01*
X80157000Y-79139036D01*
X78823155Y-79139036D01*
X78755921Y-79916515D01*
X78559952Y-80630644D01*
X78232799Y-81223611D01*
X78060025Y-81418430D01*
X77490078Y-81820076D01*
X76871639Y-81973543D01*
X76215877Y-81877548D01*
X75775500Y-81681102D01*
X75483944Y-81440189D01*
X75187177Y-81077990D01*
X75077000Y-80902507D01*
X74927177Y-80606373D01*
X74833048Y-80317075D01*
X74782147Y-79962562D01*
X74762007Y-79470780D01*
X74759500Y-79067500D01*
X74765845Y-78464372D01*
X74793809Y-78043003D01*
X74856789Y-77731285D01*
X74968178Y-77457112D01*
X75104419Y-77210775D01*
X75551385Y-76652141D01*
X76100057Y-76326000D01*
X76753171Y-76230924D01*
X76950988Y-76245044D01*
X77387451Y-76341022D01*
X77773511Y-76501003D01*
X77853759Y-76551885D01*
X78276957Y-77004631D01*
X78581223Y-77625280D01*
X78764106Y-78356020D01*
X78823155Y-79139036D01*
X80157000Y-79139036D01*
X80157000Y-75321000D01*
X78887000Y-75321000D01*
X78887000Y-76388548D01*
X78410750Y-75925835D01*
X77937752Y-75532131D01*
X77462179Y-75304663D01*
X76889959Y-75207583D01*
X76497483Y-75196789D01*
X75647221Y-75306302D01*
X75647221Y-75306302D01*
G37*
X75647221Y-75306302D02*
X74921242Y-75633848D01*
X74299298Y-76188588D01*
X74295289Y-76193264D01*
X73866972Y-76827112D01*
X73589346Y-77571026D01*
X73449374Y-78469050D01*
X73426000Y-79129616D01*
X73512879Y-80250832D01*
X73773663Y-81187204D01*
X74208574Y-81939228D01*
X74817834Y-82507398D01*
X74989190Y-82615967D01*
X75765693Y-82942380D01*
X76561988Y-83043850D01*
X77332533Y-82924819D01*
X78031788Y-82589730D01*
X78401924Y-82283076D01*
X78887000Y-81798000D01*
X78887000Y-85735000D01*
X80157000Y-85735000D01*
X80157000Y-79139036D01*
X78823155Y-79139036D01*
X78755921Y-79916515D01*
X78559952Y-80630644D01*
X78232799Y-81223611D01*
X78060025Y-81418430D01*
X77490078Y-81820076D01*
X76871639Y-81973543D01*
X76215877Y-81877548D01*
X75775500Y-81681102D01*
X75483944Y-81440189D01*
X75187177Y-81077990D01*
X75077000Y-80902507D01*
X74927177Y-80606373D01*
X74833048Y-80317075D01*
X74782147Y-79962562D01*
X74762007Y-79470780D01*
X74759500Y-79067500D01*
X74765845Y-78464372D01*
X74793809Y-78043003D01*
X74856789Y-77731285D01*
X74968178Y-77457112D01*
X75104419Y-77210775D01*
X75551385Y-76652141D01*
X76100057Y-76326000D01*
X76753171Y-76230924D01*
X76950988Y-76245044D01*
X77387451Y-76341022D01*
X77773511Y-76501003D01*
X77853759Y-76551885D01*
X78276957Y-77004631D01*
X78581223Y-77625280D01*
X78764106Y-78356020D01*
X78823155Y-79139036D01*
X80157000Y-79139036D01*
X80157000Y-75321000D01*
X78887000Y-75321000D01*
X78887000Y-76388548D01*
X78410750Y-75925835D01*
X77937752Y-75532131D01*
X77462179Y-75304663D01*
X76889959Y-75207583D01*
X76497483Y-75196789D01*
X75647221Y-75306302D01*
M02*
