G04 #@! TF.GenerationSoftware,KiCad,Pcbnew,(5.1.4)-1*
G04 #@! TF.CreationDate,2019-11-21T21:18:29+01:00*
G04 #@! TF.ProjectId,asserv_brushless,61737365-7276-45f6-9272-7573686c6573,rev?*
G04 #@! TF.SameCoordinates,Original*
G04 #@! TF.FileFunction,Soldermask,Bot*
G04 #@! TF.FilePolarity,Negative*
%FSLAX46Y46*%
G04 Gerber Fmt 4.6, Leading zero omitted, Abs format (unit mm)*
G04 Created by KiCad (PCBNEW (5.1.4)-1) date 2019-11-21 21:18:29*
%MOMM*%
%LPD*%
G04 APERTURE LIST*
%ADD10C,0.100000*%
G04 APERTURE END LIST*
D10*
G36*
X135134239Y-98311467D02*
G01*
X135448282Y-98373934D01*
X136039926Y-98619001D01*
X136572392Y-98974784D01*
X137025216Y-99427608D01*
X137380999Y-99960074D01*
X137626066Y-100551718D01*
X137751000Y-101179804D01*
X137751000Y-101820196D01*
X137626066Y-102448282D01*
X137380999Y-103039926D01*
X137025216Y-103572392D01*
X136572392Y-104025216D01*
X136039926Y-104380999D01*
X135448282Y-104626066D01*
X135134239Y-104688533D01*
X134820197Y-104751000D01*
X134179803Y-104751000D01*
X133865761Y-104688533D01*
X133551718Y-104626066D01*
X132960074Y-104380999D01*
X132427608Y-104025216D01*
X131974784Y-103572392D01*
X131619001Y-103039926D01*
X131373934Y-102448282D01*
X131249000Y-101820196D01*
X131249000Y-101179804D01*
X131373934Y-100551718D01*
X131619001Y-99960074D01*
X131974784Y-99427608D01*
X132427608Y-98974784D01*
X132960074Y-98619001D01*
X133551718Y-98373934D01*
X133865761Y-98311467D01*
X134179803Y-98249000D01*
X134820197Y-98249000D01*
X135134239Y-98311467D01*
X135134239Y-98311467D01*
G37*
G36*
X54134239Y-98311467D02*
G01*
X54448282Y-98373934D01*
X55039926Y-98619001D01*
X55572392Y-98974784D01*
X56025216Y-99427608D01*
X56380999Y-99960074D01*
X56626066Y-100551718D01*
X56751000Y-101179804D01*
X56751000Y-101820196D01*
X56626066Y-102448282D01*
X56380999Y-103039926D01*
X56025216Y-103572392D01*
X55572392Y-104025216D01*
X55039926Y-104380999D01*
X54448282Y-104626066D01*
X54134239Y-104688533D01*
X53820197Y-104751000D01*
X53179803Y-104751000D01*
X52865761Y-104688533D01*
X52551718Y-104626066D01*
X51960074Y-104380999D01*
X51427608Y-104025216D01*
X50974784Y-103572392D01*
X50619001Y-103039926D01*
X50373934Y-102448282D01*
X50249000Y-101820196D01*
X50249000Y-101179804D01*
X50373934Y-100551718D01*
X50619001Y-99960074D01*
X50974784Y-99427608D01*
X51427608Y-98974784D01*
X51960074Y-98619001D01*
X52551718Y-98373934D01*
X52865761Y-98311467D01*
X53179803Y-98249000D01*
X53820197Y-98249000D01*
X54134239Y-98311467D01*
X54134239Y-98311467D01*
G37*
G36*
X109234810Y-101645935D02*
G01*
X109381309Y-101706617D01*
X109381310Y-101706618D01*
X109513158Y-101794716D01*
X109625284Y-101906842D01*
X109625285Y-101906844D01*
X109713383Y-102038691D01*
X109774065Y-102185190D01*
X109805000Y-102340713D01*
X109805000Y-102499287D01*
X109774065Y-102654810D01*
X109713383Y-102801309D01*
X109713382Y-102801310D01*
X109625284Y-102933158D01*
X109513158Y-103045284D01*
X109446785Y-103089633D01*
X109381309Y-103133383D01*
X109234810Y-103194065D01*
X109079287Y-103225000D01*
X108920713Y-103225000D01*
X108765190Y-103194065D01*
X108618691Y-103133383D01*
X108553215Y-103089633D01*
X108486842Y-103045284D01*
X108374716Y-102933158D01*
X108286618Y-102801310D01*
X108286617Y-102801309D01*
X108225935Y-102654810D01*
X108195000Y-102499287D01*
X108195000Y-102340713D01*
X108225935Y-102185190D01*
X108286617Y-102038691D01*
X108374715Y-101906844D01*
X108374716Y-101906842D01*
X108486842Y-101794716D01*
X108618690Y-101706618D01*
X108618691Y-101706617D01*
X108765190Y-101645935D01*
X108920713Y-101615000D01*
X109079287Y-101615000D01*
X109234810Y-101645935D01*
X109234810Y-101645935D01*
G37*
G36*
X79805000Y-103205000D02*
G01*
X78195000Y-103205000D01*
X78195000Y-101595000D01*
X79805000Y-101595000D01*
X79805000Y-103205000D01*
X79805000Y-103205000D01*
G37*
G36*
X109234810Y-99105935D02*
G01*
X109381309Y-99166617D01*
X109381310Y-99166618D01*
X109513158Y-99254716D01*
X109625284Y-99366842D01*
X109625285Y-99366844D01*
X109713383Y-99498691D01*
X109774065Y-99645190D01*
X109805000Y-99800713D01*
X109805000Y-99959287D01*
X109774065Y-100114810D01*
X109713383Y-100261309D01*
X109713382Y-100261310D01*
X109625284Y-100393158D01*
X109513158Y-100505284D01*
X109446785Y-100549633D01*
X109381309Y-100593383D01*
X109234810Y-100654065D01*
X109079287Y-100685000D01*
X108920713Y-100685000D01*
X108765190Y-100654065D01*
X108618691Y-100593383D01*
X108553215Y-100549633D01*
X108486842Y-100505284D01*
X108374716Y-100393158D01*
X108286618Y-100261310D01*
X108286617Y-100261309D01*
X108225935Y-100114810D01*
X108195000Y-99959287D01*
X108195000Y-99800713D01*
X108225935Y-99645190D01*
X108286617Y-99498691D01*
X108374715Y-99366844D01*
X108374716Y-99366842D01*
X108486842Y-99254716D01*
X108618690Y-99166618D01*
X108618691Y-99166617D01*
X108765190Y-99105935D01*
X108920713Y-99075000D01*
X109079287Y-99075000D01*
X109234810Y-99105935D01*
X109234810Y-99105935D01*
G37*
G36*
X79234810Y-99085935D02*
G01*
X79381309Y-99146617D01*
X79381310Y-99146618D01*
X79513158Y-99234716D01*
X79625284Y-99346842D01*
X79638649Y-99366844D01*
X79713383Y-99478691D01*
X79774065Y-99625190D01*
X79805000Y-99780713D01*
X79805000Y-99939287D01*
X79774065Y-100094810D01*
X79713383Y-100241309D01*
X79669633Y-100306785D01*
X79625284Y-100373158D01*
X79513158Y-100485284D01*
X79483226Y-100505284D01*
X79381309Y-100573383D01*
X79234810Y-100634065D01*
X79079287Y-100665000D01*
X78920713Y-100665000D01*
X78765190Y-100634065D01*
X78618691Y-100573383D01*
X78516774Y-100505284D01*
X78486842Y-100485284D01*
X78374716Y-100373158D01*
X78330367Y-100306785D01*
X78286617Y-100241309D01*
X78225935Y-100094810D01*
X78195000Y-99939287D01*
X78195000Y-99780713D01*
X78225935Y-99625190D01*
X78286617Y-99478691D01*
X78361351Y-99366844D01*
X78374716Y-99346842D01*
X78486842Y-99234716D01*
X78618690Y-99146618D01*
X78618691Y-99146617D01*
X78765190Y-99085935D01*
X78920713Y-99055000D01*
X79079287Y-99055000D01*
X79234810Y-99085935D01*
X79234810Y-99085935D01*
G37*
G36*
X109234810Y-96565935D02*
G01*
X109381309Y-96626617D01*
X109381310Y-96626618D01*
X109513158Y-96714716D01*
X109625284Y-96826842D01*
X109625285Y-96826844D01*
X109713383Y-96958691D01*
X109774065Y-97105190D01*
X109805000Y-97260713D01*
X109805000Y-97419287D01*
X109774065Y-97574810D01*
X109713383Y-97721309D01*
X109713382Y-97721310D01*
X109625284Y-97853158D01*
X109513158Y-97965284D01*
X109446785Y-98009633D01*
X109381309Y-98053383D01*
X109234810Y-98114065D01*
X109079287Y-98145000D01*
X108920713Y-98145000D01*
X108765190Y-98114065D01*
X108618691Y-98053383D01*
X108553215Y-98009633D01*
X108486842Y-97965284D01*
X108374716Y-97853158D01*
X108286618Y-97721310D01*
X108286617Y-97721309D01*
X108225935Y-97574810D01*
X108195000Y-97419287D01*
X108195000Y-97260713D01*
X108225935Y-97105190D01*
X108286617Y-96958691D01*
X108374715Y-96826844D01*
X108374716Y-96826842D01*
X108486842Y-96714716D01*
X108618690Y-96626618D01*
X108618691Y-96626617D01*
X108765190Y-96565935D01*
X108920713Y-96535000D01*
X109079287Y-96535000D01*
X109234810Y-96565935D01*
X109234810Y-96565935D01*
G37*
G36*
X79234810Y-96545935D02*
G01*
X79381309Y-96606617D01*
X79381310Y-96606618D01*
X79513158Y-96694716D01*
X79625284Y-96806842D01*
X79638649Y-96826844D01*
X79713383Y-96938691D01*
X79774065Y-97085190D01*
X79805000Y-97240713D01*
X79805000Y-97399287D01*
X79774065Y-97554810D01*
X79713383Y-97701309D01*
X79669633Y-97766785D01*
X79625284Y-97833158D01*
X79513158Y-97945284D01*
X79483226Y-97965284D01*
X79381309Y-98033383D01*
X79234810Y-98094065D01*
X79079287Y-98125000D01*
X78920713Y-98125000D01*
X78765190Y-98094065D01*
X78618691Y-98033383D01*
X78516774Y-97965284D01*
X78486842Y-97945284D01*
X78374716Y-97833158D01*
X78330367Y-97766785D01*
X78286617Y-97701309D01*
X78225935Y-97554810D01*
X78195000Y-97399287D01*
X78195000Y-97240713D01*
X78225935Y-97085190D01*
X78286617Y-96938691D01*
X78361351Y-96826844D01*
X78374716Y-96806842D01*
X78486842Y-96694716D01*
X78618690Y-96606618D01*
X78618691Y-96606617D01*
X78765190Y-96545935D01*
X78920713Y-96515000D01*
X79079287Y-96515000D01*
X79234810Y-96545935D01*
X79234810Y-96545935D01*
G37*
G36*
X86628228Y-95711703D02*
G01*
X86783100Y-95775853D01*
X86922481Y-95868985D01*
X87041015Y-95987519D01*
X87134147Y-96126900D01*
X87198297Y-96281772D01*
X87231000Y-96446184D01*
X87231000Y-96613816D01*
X87198297Y-96778228D01*
X87134147Y-96933100D01*
X87041015Y-97072481D01*
X86922481Y-97191015D01*
X86783100Y-97284147D01*
X86628228Y-97348297D01*
X86463816Y-97381000D01*
X86296184Y-97381000D01*
X86131772Y-97348297D01*
X85976900Y-97284147D01*
X85837519Y-97191015D01*
X85718985Y-97072481D01*
X85625853Y-96933100D01*
X85561703Y-96778228D01*
X85529000Y-96613816D01*
X85529000Y-96446184D01*
X85561703Y-96281772D01*
X85625853Y-96126900D01*
X85718985Y-95987519D01*
X85837519Y-95868985D01*
X85976900Y-95775853D01*
X86131772Y-95711703D01*
X86296184Y-95679000D01*
X86463816Y-95679000D01*
X86628228Y-95711703D01*
X86628228Y-95711703D01*
G37*
G36*
X101868228Y-95711703D02*
G01*
X102023100Y-95775853D01*
X102162481Y-95868985D01*
X102281015Y-95987519D01*
X102374147Y-96126900D01*
X102438297Y-96281772D01*
X102471000Y-96446184D01*
X102471000Y-96613816D01*
X102438297Y-96778228D01*
X102374147Y-96933100D01*
X102281015Y-97072481D01*
X102162481Y-97191015D01*
X102023100Y-97284147D01*
X101868228Y-97348297D01*
X101703816Y-97381000D01*
X101536184Y-97381000D01*
X101371772Y-97348297D01*
X101216900Y-97284147D01*
X101077519Y-97191015D01*
X100958985Y-97072481D01*
X100865853Y-96933100D01*
X100801703Y-96778228D01*
X100769000Y-96613816D01*
X100769000Y-96446184D01*
X100801703Y-96281772D01*
X100865853Y-96126900D01*
X100958985Y-95987519D01*
X101077519Y-95868985D01*
X101216900Y-95775853D01*
X101371772Y-95711703D01*
X101536184Y-95679000D01*
X101703816Y-95679000D01*
X101868228Y-95711703D01*
X101868228Y-95711703D01*
G37*
G36*
X109805000Y-95605000D02*
G01*
X108195000Y-95605000D01*
X108195000Y-93995000D01*
X109805000Y-93995000D01*
X109805000Y-95605000D01*
X109805000Y-95605000D01*
G37*
G36*
X79234810Y-94005935D02*
G01*
X79381309Y-94066617D01*
X79381310Y-94066618D01*
X79513158Y-94154716D01*
X79625284Y-94266842D01*
X79625285Y-94266844D01*
X79713383Y-94398691D01*
X79774065Y-94545190D01*
X79805000Y-94700713D01*
X79805000Y-94859287D01*
X79774065Y-95014810D01*
X79713383Y-95161309D01*
X79713382Y-95161310D01*
X79625284Y-95293158D01*
X79513158Y-95405284D01*
X79446785Y-95449633D01*
X79381309Y-95493383D01*
X79234810Y-95554065D01*
X79079287Y-95585000D01*
X78920713Y-95585000D01*
X78765190Y-95554065D01*
X78618691Y-95493383D01*
X78553215Y-95449633D01*
X78486842Y-95405284D01*
X78374716Y-95293158D01*
X78286618Y-95161310D01*
X78286617Y-95161309D01*
X78225935Y-95014810D01*
X78195000Y-94859287D01*
X78195000Y-94700713D01*
X78225935Y-94545190D01*
X78286617Y-94398691D01*
X78374715Y-94266844D01*
X78374716Y-94266842D01*
X78486842Y-94154716D01*
X78618690Y-94066618D01*
X78618691Y-94066617D01*
X78765190Y-94005935D01*
X78920713Y-93975000D01*
X79079287Y-93975000D01*
X79234810Y-94005935D01*
X79234810Y-94005935D01*
G37*
G36*
X86628228Y-93171703D02*
G01*
X86783100Y-93235853D01*
X86922481Y-93328985D01*
X87041015Y-93447519D01*
X87134147Y-93586900D01*
X87198297Y-93741772D01*
X87231000Y-93906184D01*
X87231000Y-94073816D01*
X87198297Y-94238228D01*
X87134147Y-94393100D01*
X87041015Y-94532481D01*
X86922481Y-94651015D01*
X86783100Y-94744147D01*
X86628228Y-94808297D01*
X86463816Y-94841000D01*
X86296184Y-94841000D01*
X86131772Y-94808297D01*
X85976900Y-94744147D01*
X85837519Y-94651015D01*
X85718985Y-94532481D01*
X85625853Y-94393100D01*
X85561703Y-94238228D01*
X85529000Y-94073816D01*
X85529000Y-93906184D01*
X85561703Y-93741772D01*
X85625853Y-93586900D01*
X85718985Y-93447519D01*
X85837519Y-93328985D01*
X85976900Y-93235853D01*
X86131772Y-93171703D01*
X86296184Y-93139000D01*
X86463816Y-93139000D01*
X86628228Y-93171703D01*
X86628228Y-93171703D01*
G37*
G36*
X101868228Y-93171703D02*
G01*
X102023100Y-93235853D01*
X102162481Y-93328985D01*
X102281015Y-93447519D01*
X102374147Y-93586900D01*
X102438297Y-93741772D01*
X102471000Y-93906184D01*
X102471000Y-94073816D01*
X102438297Y-94238228D01*
X102374147Y-94393100D01*
X102281015Y-94532481D01*
X102162481Y-94651015D01*
X102023100Y-94744147D01*
X101868228Y-94808297D01*
X101703816Y-94841000D01*
X101536184Y-94841000D01*
X101371772Y-94808297D01*
X101216900Y-94744147D01*
X101077519Y-94651015D01*
X100958985Y-94532481D01*
X100865853Y-94393100D01*
X100801703Y-94238228D01*
X100769000Y-94073816D01*
X100769000Y-93906184D01*
X100801703Y-93741772D01*
X100865853Y-93586900D01*
X100958985Y-93447519D01*
X101077519Y-93328985D01*
X101216900Y-93235853D01*
X101371772Y-93171703D01*
X101536184Y-93139000D01*
X101703816Y-93139000D01*
X101868228Y-93171703D01*
X101868228Y-93171703D01*
G37*
G36*
X101868228Y-90631703D02*
G01*
X102023100Y-90695853D01*
X102162481Y-90788985D01*
X102281015Y-90907519D01*
X102374147Y-91046900D01*
X102438297Y-91201772D01*
X102471000Y-91366184D01*
X102471000Y-91533816D01*
X102438297Y-91698228D01*
X102374147Y-91853100D01*
X102281015Y-91992481D01*
X102162481Y-92111015D01*
X102023100Y-92204147D01*
X101868228Y-92268297D01*
X101703816Y-92301000D01*
X101536184Y-92301000D01*
X101371772Y-92268297D01*
X101216900Y-92204147D01*
X101077519Y-92111015D01*
X100958985Y-91992481D01*
X100865853Y-91853100D01*
X100801703Y-91698228D01*
X100769000Y-91533816D01*
X100769000Y-91366184D01*
X100801703Y-91201772D01*
X100865853Y-91046900D01*
X100958985Y-90907519D01*
X101077519Y-90788985D01*
X101216900Y-90695853D01*
X101371772Y-90631703D01*
X101536184Y-90599000D01*
X101703816Y-90599000D01*
X101868228Y-90631703D01*
X101868228Y-90631703D01*
G37*
G36*
X86628228Y-90631703D02*
G01*
X86783100Y-90695853D01*
X86922481Y-90788985D01*
X87041015Y-90907519D01*
X87134147Y-91046900D01*
X87198297Y-91201772D01*
X87231000Y-91366184D01*
X87231000Y-91533816D01*
X87198297Y-91698228D01*
X87134147Y-91853100D01*
X87041015Y-91992481D01*
X86922481Y-92111015D01*
X86783100Y-92204147D01*
X86628228Y-92268297D01*
X86463816Y-92301000D01*
X86296184Y-92301000D01*
X86131772Y-92268297D01*
X85976900Y-92204147D01*
X85837519Y-92111015D01*
X85718985Y-91992481D01*
X85625853Y-91853100D01*
X85561703Y-91698228D01*
X85529000Y-91533816D01*
X85529000Y-91366184D01*
X85561703Y-91201772D01*
X85625853Y-91046900D01*
X85718985Y-90907519D01*
X85837519Y-90788985D01*
X85976900Y-90695853D01*
X86131772Y-90631703D01*
X86296184Y-90599000D01*
X86463816Y-90599000D01*
X86628228Y-90631703D01*
X86628228Y-90631703D01*
G37*
G36*
X86628228Y-88091703D02*
G01*
X86783100Y-88155853D01*
X86922481Y-88248985D01*
X87041015Y-88367519D01*
X87134147Y-88506900D01*
X87198297Y-88661772D01*
X87231000Y-88826184D01*
X87231000Y-88993816D01*
X87198297Y-89158228D01*
X87134147Y-89313100D01*
X87041015Y-89452481D01*
X86922481Y-89571015D01*
X86783100Y-89664147D01*
X86628228Y-89728297D01*
X86463816Y-89761000D01*
X86296184Y-89761000D01*
X86131772Y-89728297D01*
X85976900Y-89664147D01*
X85837519Y-89571015D01*
X85718985Y-89452481D01*
X85625853Y-89313100D01*
X85561703Y-89158228D01*
X85529000Y-88993816D01*
X85529000Y-88826184D01*
X85561703Y-88661772D01*
X85625853Y-88506900D01*
X85718985Y-88367519D01*
X85837519Y-88248985D01*
X85976900Y-88155853D01*
X86131772Y-88091703D01*
X86296184Y-88059000D01*
X86463816Y-88059000D01*
X86628228Y-88091703D01*
X86628228Y-88091703D01*
G37*
G36*
X101868228Y-88091703D02*
G01*
X102023100Y-88155853D01*
X102162481Y-88248985D01*
X102281015Y-88367519D01*
X102374147Y-88506900D01*
X102438297Y-88661772D01*
X102471000Y-88826184D01*
X102471000Y-88993816D01*
X102438297Y-89158228D01*
X102374147Y-89313100D01*
X102281015Y-89452481D01*
X102162481Y-89571015D01*
X102023100Y-89664147D01*
X101868228Y-89728297D01*
X101703816Y-89761000D01*
X101536184Y-89761000D01*
X101371772Y-89728297D01*
X101216900Y-89664147D01*
X101077519Y-89571015D01*
X100958985Y-89452481D01*
X100865853Y-89313100D01*
X100801703Y-89158228D01*
X100769000Y-88993816D01*
X100769000Y-88826184D01*
X100801703Y-88661772D01*
X100865853Y-88506900D01*
X100958985Y-88367519D01*
X101077519Y-88248985D01*
X101216900Y-88155853D01*
X101371772Y-88091703D01*
X101536184Y-88059000D01*
X101703816Y-88059000D01*
X101868228Y-88091703D01*
X101868228Y-88091703D01*
G37*
G36*
X101868228Y-85551703D02*
G01*
X102023100Y-85615853D01*
X102162481Y-85708985D01*
X102281015Y-85827519D01*
X102374147Y-85966900D01*
X102438297Y-86121772D01*
X102471000Y-86286184D01*
X102471000Y-86453816D01*
X102438297Y-86618228D01*
X102374147Y-86773100D01*
X102281015Y-86912481D01*
X102162481Y-87031015D01*
X102023100Y-87124147D01*
X101868228Y-87188297D01*
X101703816Y-87221000D01*
X101536184Y-87221000D01*
X101371772Y-87188297D01*
X101216900Y-87124147D01*
X101077519Y-87031015D01*
X100958985Y-86912481D01*
X100865853Y-86773100D01*
X100801703Y-86618228D01*
X100769000Y-86453816D01*
X100769000Y-86286184D01*
X100801703Y-86121772D01*
X100865853Y-85966900D01*
X100958985Y-85827519D01*
X101077519Y-85708985D01*
X101216900Y-85615853D01*
X101371772Y-85551703D01*
X101536184Y-85519000D01*
X101703816Y-85519000D01*
X101868228Y-85551703D01*
X101868228Y-85551703D01*
G37*
G36*
X86628228Y-85551703D02*
G01*
X86783100Y-85615853D01*
X86922481Y-85708985D01*
X87041015Y-85827519D01*
X87134147Y-85966900D01*
X87198297Y-86121772D01*
X87231000Y-86286184D01*
X87231000Y-86453816D01*
X87198297Y-86618228D01*
X87134147Y-86773100D01*
X87041015Y-86912481D01*
X86922481Y-87031015D01*
X86783100Y-87124147D01*
X86628228Y-87188297D01*
X86463816Y-87221000D01*
X86296184Y-87221000D01*
X86131772Y-87188297D01*
X85976900Y-87124147D01*
X85837519Y-87031015D01*
X85718985Y-86912481D01*
X85625853Y-86773100D01*
X85561703Y-86618228D01*
X85529000Y-86453816D01*
X85529000Y-86286184D01*
X85561703Y-86121772D01*
X85625853Y-85966900D01*
X85718985Y-85827519D01*
X85837519Y-85708985D01*
X85976900Y-85615853D01*
X86131772Y-85551703D01*
X86296184Y-85519000D01*
X86463816Y-85519000D01*
X86628228Y-85551703D01*
X86628228Y-85551703D01*
G37*
G36*
X101868228Y-83011703D02*
G01*
X102023100Y-83075853D01*
X102162481Y-83168985D01*
X102281015Y-83287519D01*
X102374147Y-83426900D01*
X102438297Y-83581772D01*
X102471000Y-83746184D01*
X102471000Y-83913816D01*
X102438297Y-84078228D01*
X102374147Y-84233100D01*
X102281015Y-84372481D01*
X102162481Y-84491015D01*
X102023100Y-84584147D01*
X101868228Y-84648297D01*
X101703816Y-84681000D01*
X101536184Y-84681000D01*
X101371772Y-84648297D01*
X101216900Y-84584147D01*
X101077519Y-84491015D01*
X100958985Y-84372481D01*
X100865853Y-84233100D01*
X100801703Y-84078228D01*
X100769000Y-83913816D01*
X100769000Y-83746184D01*
X100801703Y-83581772D01*
X100865853Y-83426900D01*
X100958985Y-83287519D01*
X101077519Y-83168985D01*
X101216900Y-83075853D01*
X101371772Y-83011703D01*
X101536184Y-82979000D01*
X101703816Y-82979000D01*
X101868228Y-83011703D01*
X101868228Y-83011703D01*
G37*
G36*
X86628228Y-83011703D02*
G01*
X86783100Y-83075853D01*
X86922481Y-83168985D01*
X87041015Y-83287519D01*
X87134147Y-83426900D01*
X87198297Y-83581772D01*
X87231000Y-83746184D01*
X87231000Y-83913816D01*
X87198297Y-84078228D01*
X87134147Y-84233100D01*
X87041015Y-84372481D01*
X86922481Y-84491015D01*
X86783100Y-84584147D01*
X86628228Y-84648297D01*
X86463816Y-84681000D01*
X86296184Y-84681000D01*
X86131772Y-84648297D01*
X85976900Y-84584147D01*
X85837519Y-84491015D01*
X85718985Y-84372481D01*
X85625853Y-84233100D01*
X85561703Y-84078228D01*
X85529000Y-83913816D01*
X85529000Y-83746184D01*
X85561703Y-83581772D01*
X85625853Y-83426900D01*
X85718985Y-83287519D01*
X85837519Y-83168985D01*
X85976900Y-83075853D01*
X86131772Y-83011703D01*
X86296184Y-82979000D01*
X86463816Y-82979000D01*
X86628228Y-83011703D01*
X86628228Y-83011703D01*
G37*
G36*
X86628228Y-80471703D02*
G01*
X86783100Y-80535853D01*
X86922481Y-80628985D01*
X87041015Y-80747519D01*
X87134147Y-80886900D01*
X87198297Y-81041772D01*
X87231000Y-81206184D01*
X87231000Y-81373816D01*
X87198297Y-81538228D01*
X87134147Y-81693100D01*
X87041015Y-81832481D01*
X86922481Y-81951015D01*
X86783100Y-82044147D01*
X86628228Y-82108297D01*
X86463816Y-82141000D01*
X86296184Y-82141000D01*
X86131772Y-82108297D01*
X85976900Y-82044147D01*
X85837519Y-81951015D01*
X85718985Y-81832481D01*
X85625853Y-81693100D01*
X85561703Y-81538228D01*
X85529000Y-81373816D01*
X85529000Y-81206184D01*
X85561703Y-81041772D01*
X85625853Y-80886900D01*
X85718985Y-80747519D01*
X85837519Y-80628985D01*
X85976900Y-80535853D01*
X86131772Y-80471703D01*
X86296184Y-80439000D01*
X86463816Y-80439000D01*
X86628228Y-80471703D01*
X86628228Y-80471703D01*
G37*
G36*
X101868228Y-80471703D02*
G01*
X102023100Y-80535853D01*
X102162481Y-80628985D01*
X102281015Y-80747519D01*
X102374147Y-80886900D01*
X102438297Y-81041772D01*
X102471000Y-81206184D01*
X102471000Y-81373816D01*
X102438297Y-81538228D01*
X102374147Y-81693100D01*
X102281015Y-81832481D01*
X102162481Y-81951015D01*
X102023100Y-82044147D01*
X101868228Y-82108297D01*
X101703816Y-82141000D01*
X101536184Y-82141000D01*
X101371772Y-82108297D01*
X101216900Y-82044147D01*
X101077519Y-81951015D01*
X100958985Y-81832481D01*
X100865853Y-81693100D01*
X100801703Y-81538228D01*
X100769000Y-81373816D01*
X100769000Y-81206184D01*
X100801703Y-81041772D01*
X100865853Y-80886900D01*
X100958985Y-80747519D01*
X101077519Y-80628985D01*
X101216900Y-80535853D01*
X101371772Y-80471703D01*
X101536184Y-80439000D01*
X101703816Y-80439000D01*
X101868228Y-80471703D01*
X101868228Y-80471703D01*
G37*
G36*
X86628228Y-77931703D02*
G01*
X86783100Y-77995853D01*
X86922481Y-78088985D01*
X87041015Y-78207519D01*
X87134147Y-78346900D01*
X87198297Y-78501772D01*
X87231000Y-78666184D01*
X87231000Y-78833816D01*
X87198297Y-78998228D01*
X87134147Y-79153100D01*
X87041015Y-79292481D01*
X86922481Y-79411015D01*
X86783100Y-79504147D01*
X86628228Y-79568297D01*
X86463816Y-79601000D01*
X86296184Y-79601000D01*
X86131772Y-79568297D01*
X85976900Y-79504147D01*
X85837519Y-79411015D01*
X85718985Y-79292481D01*
X85625853Y-79153100D01*
X85561703Y-78998228D01*
X85529000Y-78833816D01*
X85529000Y-78666184D01*
X85561703Y-78501772D01*
X85625853Y-78346900D01*
X85718985Y-78207519D01*
X85837519Y-78088985D01*
X85976900Y-77995853D01*
X86131772Y-77931703D01*
X86296184Y-77899000D01*
X86463816Y-77899000D01*
X86628228Y-77931703D01*
X86628228Y-77931703D01*
G37*
G36*
X101868228Y-77931703D02*
G01*
X102023100Y-77995853D01*
X102162481Y-78088985D01*
X102281015Y-78207519D01*
X102374147Y-78346900D01*
X102438297Y-78501772D01*
X102471000Y-78666184D01*
X102471000Y-78833816D01*
X102438297Y-78998228D01*
X102374147Y-79153100D01*
X102281015Y-79292481D01*
X102162481Y-79411015D01*
X102023100Y-79504147D01*
X101868228Y-79568297D01*
X101703816Y-79601000D01*
X101536184Y-79601000D01*
X101371772Y-79568297D01*
X101216900Y-79504147D01*
X101077519Y-79411015D01*
X100958985Y-79292481D01*
X100865853Y-79153100D01*
X100801703Y-78998228D01*
X100769000Y-78833816D01*
X100769000Y-78666184D01*
X100801703Y-78501772D01*
X100865853Y-78346900D01*
X100958985Y-78207519D01*
X101077519Y-78088985D01*
X101216900Y-77995853D01*
X101371772Y-77931703D01*
X101536184Y-77899000D01*
X101703816Y-77899000D01*
X101868228Y-77931703D01*
X101868228Y-77931703D01*
G37*
G36*
X101868228Y-75391703D02*
G01*
X102023100Y-75455853D01*
X102162481Y-75548985D01*
X102281015Y-75667519D01*
X102374147Y-75806900D01*
X102438297Y-75961772D01*
X102471000Y-76126184D01*
X102471000Y-76293816D01*
X102438297Y-76458228D01*
X102374147Y-76613100D01*
X102281015Y-76752481D01*
X102162481Y-76871015D01*
X102023100Y-76964147D01*
X101868228Y-77028297D01*
X101703816Y-77061000D01*
X101536184Y-77061000D01*
X101371772Y-77028297D01*
X101216900Y-76964147D01*
X101077519Y-76871015D01*
X100958985Y-76752481D01*
X100865853Y-76613100D01*
X100801703Y-76458228D01*
X100769000Y-76293816D01*
X100769000Y-76126184D01*
X100801703Y-75961772D01*
X100865853Y-75806900D01*
X100958985Y-75667519D01*
X101077519Y-75548985D01*
X101216900Y-75455853D01*
X101371772Y-75391703D01*
X101536184Y-75359000D01*
X101703816Y-75359000D01*
X101868228Y-75391703D01*
X101868228Y-75391703D01*
G37*
G36*
X86628228Y-75391703D02*
G01*
X86783100Y-75455853D01*
X86922481Y-75548985D01*
X87041015Y-75667519D01*
X87134147Y-75806900D01*
X87198297Y-75961772D01*
X87231000Y-76126184D01*
X87231000Y-76293816D01*
X87198297Y-76458228D01*
X87134147Y-76613100D01*
X87041015Y-76752481D01*
X86922481Y-76871015D01*
X86783100Y-76964147D01*
X86628228Y-77028297D01*
X86463816Y-77061000D01*
X86296184Y-77061000D01*
X86131772Y-77028297D01*
X85976900Y-76964147D01*
X85837519Y-76871015D01*
X85718985Y-76752481D01*
X85625853Y-76613100D01*
X85561703Y-76458228D01*
X85529000Y-76293816D01*
X85529000Y-76126184D01*
X85561703Y-75961772D01*
X85625853Y-75806900D01*
X85718985Y-75667519D01*
X85837519Y-75548985D01*
X85976900Y-75455853D01*
X86131772Y-75391703D01*
X86296184Y-75359000D01*
X86463816Y-75359000D01*
X86628228Y-75391703D01*
X86628228Y-75391703D01*
G37*
G36*
X86628228Y-72851703D02*
G01*
X86783100Y-72915853D01*
X86922481Y-73008985D01*
X87041015Y-73127519D01*
X87134147Y-73266900D01*
X87198297Y-73421772D01*
X87231000Y-73586184D01*
X87231000Y-73753816D01*
X87198297Y-73918228D01*
X87134147Y-74073100D01*
X87041015Y-74212481D01*
X86922481Y-74331015D01*
X86783100Y-74424147D01*
X86628228Y-74488297D01*
X86463816Y-74521000D01*
X86296184Y-74521000D01*
X86131772Y-74488297D01*
X85976900Y-74424147D01*
X85837519Y-74331015D01*
X85718985Y-74212481D01*
X85625853Y-74073100D01*
X85561703Y-73918228D01*
X85529000Y-73753816D01*
X85529000Y-73586184D01*
X85561703Y-73421772D01*
X85625853Y-73266900D01*
X85718985Y-73127519D01*
X85837519Y-73008985D01*
X85976900Y-72915853D01*
X86131772Y-72851703D01*
X86296184Y-72819000D01*
X86463816Y-72819000D01*
X86628228Y-72851703D01*
X86628228Y-72851703D01*
G37*
G36*
X101868228Y-72851703D02*
G01*
X102023100Y-72915853D01*
X102162481Y-73008985D01*
X102281015Y-73127519D01*
X102374147Y-73266900D01*
X102438297Y-73421772D01*
X102471000Y-73586184D01*
X102471000Y-73753816D01*
X102438297Y-73918228D01*
X102374147Y-74073100D01*
X102281015Y-74212481D01*
X102162481Y-74331015D01*
X102023100Y-74424147D01*
X101868228Y-74488297D01*
X101703816Y-74521000D01*
X101536184Y-74521000D01*
X101371772Y-74488297D01*
X101216900Y-74424147D01*
X101077519Y-74331015D01*
X100958985Y-74212481D01*
X100865853Y-74073100D01*
X100801703Y-73918228D01*
X100769000Y-73753816D01*
X100769000Y-73586184D01*
X100801703Y-73421772D01*
X100865853Y-73266900D01*
X100958985Y-73127519D01*
X101077519Y-73008985D01*
X101216900Y-72915853D01*
X101371772Y-72851703D01*
X101536184Y-72819000D01*
X101703816Y-72819000D01*
X101868228Y-72851703D01*
X101868228Y-72851703D01*
G37*
G36*
X101868228Y-70311703D02*
G01*
X102023100Y-70375853D01*
X102162481Y-70468985D01*
X102281015Y-70587519D01*
X102374147Y-70726900D01*
X102438297Y-70881772D01*
X102471000Y-71046184D01*
X102471000Y-71213816D01*
X102438297Y-71378228D01*
X102374147Y-71533100D01*
X102281015Y-71672481D01*
X102162481Y-71791015D01*
X102023100Y-71884147D01*
X101868228Y-71948297D01*
X101703816Y-71981000D01*
X101536184Y-71981000D01*
X101371772Y-71948297D01*
X101216900Y-71884147D01*
X101077519Y-71791015D01*
X100958985Y-71672481D01*
X100865853Y-71533100D01*
X100801703Y-71378228D01*
X100769000Y-71213816D01*
X100769000Y-71046184D01*
X100801703Y-70881772D01*
X100865853Y-70726900D01*
X100958985Y-70587519D01*
X101077519Y-70468985D01*
X101216900Y-70375853D01*
X101371772Y-70311703D01*
X101536184Y-70279000D01*
X101703816Y-70279000D01*
X101868228Y-70311703D01*
X101868228Y-70311703D01*
G37*
G36*
X86628228Y-70311703D02*
G01*
X86783100Y-70375853D01*
X86922481Y-70468985D01*
X87041015Y-70587519D01*
X87134147Y-70726900D01*
X87198297Y-70881772D01*
X87231000Y-71046184D01*
X87231000Y-71213816D01*
X87198297Y-71378228D01*
X87134147Y-71533100D01*
X87041015Y-71672481D01*
X86922481Y-71791015D01*
X86783100Y-71884147D01*
X86628228Y-71948297D01*
X86463816Y-71981000D01*
X86296184Y-71981000D01*
X86131772Y-71948297D01*
X85976900Y-71884147D01*
X85837519Y-71791015D01*
X85718985Y-71672481D01*
X85625853Y-71533100D01*
X85561703Y-71378228D01*
X85529000Y-71213816D01*
X85529000Y-71046184D01*
X85561703Y-70881772D01*
X85625853Y-70726900D01*
X85718985Y-70587519D01*
X85837519Y-70468985D01*
X85976900Y-70375853D01*
X86131772Y-70311703D01*
X86296184Y-70279000D01*
X86463816Y-70279000D01*
X86628228Y-70311703D01*
X86628228Y-70311703D01*
G37*
G36*
X86628228Y-67771703D02*
G01*
X86783100Y-67835853D01*
X86922481Y-67928985D01*
X87041015Y-68047519D01*
X87134147Y-68186900D01*
X87198297Y-68341772D01*
X87231000Y-68506184D01*
X87231000Y-68673816D01*
X87198297Y-68838228D01*
X87134147Y-68993100D01*
X87041015Y-69132481D01*
X86922481Y-69251015D01*
X86783100Y-69344147D01*
X86628228Y-69408297D01*
X86463816Y-69441000D01*
X86296184Y-69441000D01*
X86131772Y-69408297D01*
X85976900Y-69344147D01*
X85837519Y-69251015D01*
X85718985Y-69132481D01*
X85625853Y-68993100D01*
X85561703Y-68838228D01*
X85529000Y-68673816D01*
X85529000Y-68506184D01*
X85561703Y-68341772D01*
X85625853Y-68186900D01*
X85718985Y-68047519D01*
X85837519Y-67928985D01*
X85976900Y-67835853D01*
X86131772Y-67771703D01*
X86296184Y-67739000D01*
X86463816Y-67739000D01*
X86628228Y-67771703D01*
X86628228Y-67771703D01*
G37*
G36*
X101868228Y-67771703D02*
G01*
X102023100Y-67835853D01*
X102162481Y-67928985D01*
X102281015Y-68047519D01*
X102374147Y-68186900D01*
X102438297Y-68341772D01*
X102471000Y-68506184D01*
X102471000Y-68673816D01*
X102438297Y-68838228D01*
X102374147Y-68993100D01*
X102281015Y-69132481D01*
X102162481Y-69251015D01*
X102023100Y-69344147D01*
X101868228Y-69408297D01*
X101703816Y-69441000D01*
X101536184Y-69441000D01*
X101371772Y-69408297D01*
X101216900Y-69344147D01*
X101077519Y-69251015D01*
X100958985Y-69132481D01*
X100865853Y-68993100D01*
X100801703Y-68838228D01*
X100769000Y-68673816D01*
X100769000Y-68506184D01*
X100801703Y-68341772D01*
X100865853Y-68186900D01*
X100958985Y-68047519D01*
X101077519Y-67928985D01*
X101216900Y-67835853D01*
X101371772Y-67771703D01*
X101536184Y-67739000D01*
X101703816Y-67739000D01*
X101868228Y-67771703D01*
X101868228Y-67771703D01*
G37*
G36*
X86628228Y-65231703D02*
G01*
X86783100Y-65295853D01*
X86922481Y-65388985D01*
X87041015Y-65507519D01*
X87134147Y-65646900D01*
X87198297Y-65801772D01*
X87231000Y-65966184D01*
X87231000Y-66133816D01*
X87198297Y-66298228D01*
X87134147Y-66453100D01*
X87041015Y-66592481D01*
X86922481Y-66711015D01*
X86783100Y-66804147D01*
X86628228Y-66868297D01*
X86463816Y-66901000D01*
X86296184Y-66901000D01*
X86131772Y-66868297D01*
X85976900Y-66804147D01*
X85837519Y-66711015D01*
X85718985Y-66592481D01*
X85625853Y-66453100D01*
X85561703Y-66298228D01*
X85529000Y-66133816D01*
X85529000Y-65966184D01*
X85561703Y-65801772D01*
X85625853Y-65646900D01*
X85718985Y-65507519D01*
X85837519Y-65388985D01*
X85976900Y-65295853D01*
X86131772Y-65231703D01*
X86296184Y-65199000D01*
X86463816Y-65199000D01*
X86628228Y-65231703D01*
X86628228Y-65231703D01*
G37*
G36*
X101868228Y-65231703D02*
G01*
X102023100Y-65295853D01*
X102162481Y-65388985D01*
X102281015Y-65507519D01*
X102374147Y-65646900D01*
X102438297Y-65801772D01*
X102471000Y-65966184D01*
X102471000Y-66133816D01*
X102438297Y-66298228D01*
X102374147Y-66453100D01*
X102281015Y-66592481D01*
X102162481Y-66711015D01*
X102023100Y-66804147D01*
X101868228Y-66868297D01*
X101703816Y-66901000D01*
X101536184Y-66901000D01*
X101371772Y-66868297D01*
X101216900Y-66804147D01*
X101077519Y-66711015D01*
X100958985Y-66592481D01*
X100865853Y-66453100D01*
X100801703Y-66298228D01*
X100769000Y-66133816D01*
X100769000Y-65966184D01*
X100801703Y-65801772D01*
X100865853Y-65646900D01*
X100958985Y-65507519D01*
X101077519Y-65388985D01*
X101216900Y-65295853D01*
X101371772Y-65231703D01*
X101536184Y-65199000D01*
X101703816Y-65199000D01*
X101868228Y-65231703D01*
X101868228Y-65231703D01*
G37*
G36*
X86628228Y-62691703D02*
G01*
X86783100Y-62755853D01*
X86922481Y-62848985D01*
X87041015Y-62967519D01*
X87134147Y-63106900D01*
X87198297Y-63261772D01*
X87231000Y-63426184D01*
X87231000Y-63593816D01*
X87198297Y-63758228D01*
X87134147Y-63913100D01*
X87041015Y-64052481D01*
X86922481Y-64171015D01*
X86783100Y-64264147D01*
X86628228Y-64328297D01*
X86463816Y-64361000D01*
X86296184Y-64361000D01*
X86131772Y-64328297D01*
X85976900Y-64264147D01*
X85837519Y-64171015D01*
X85718985Y-64052481D01*
X85625853Y-63913100D01*
X85561703Y-63758228D01*
X85529000Y-63593816D01*
X85529000Y-63426184D01*
X85561703Y-63261772D01*
X85625853Y-63106900D01*
X85718985Y-62967519D01*
X85837519Y-62848985D01*
X85976900Y-62755853D01*
X86131772Y-62691703D01*
X86296184Y-62659000D01*
X86463816Y-62659000D01*
X86628228Y-62691703D01*
X86628228Y-62691703D01*
G37*
G36*
X101868228Y-62691703D02*
G01*
X102023100Y-62755853D01*
X102162481Y-62848985D01*
X102281015Y-62967519D01*
X102374147Y-63106900D01*
X102438297Y-63261772D01*
X102471000Y-63426184D01*
X102471000Y-63593816D01*
X102438297Y-63758228D01*
X102374147Y-63913100D01*
X102281015Y-64052481D01*
X102162481Y-64171015D01*
X102023100Y-64264147D01*
X101868228Y-64328297D01*
X101703816Y-64361000D01*
X101536184Y-64361000D01*
X101371772Y-64328297D01*
X101216900Y-64264147D01*
X101077519Y-64171015D01*
X100958985Y-64052481D01*
X100865853Y-63913100D01*
X100801703Y-63758228D01*
X100769000Y-63593816D01*
X100769000Y-63426184D01*
X100801703Y-63261772D01*
X100865853Y-63106900D01*
X100958985Y-62967519D01*
X101077519Y-62848985D01*
X101216900Y-62755853D01*
X101371772Y-62691703D01*
X101536184Y-62659000D01*
X101703816Y-62659000D01*
X101868228Y-62691703D01*
X101868228Y-62691703D01*
G37*
G36*
X117208871Y-58689786D02*
G01*
X117319780Y-58723430D01*
X117410054Y-58750814D01*
X117414530Y-58752172D01*
X117604055Y-58853475D01*
X117604058Y-58853477D01*
X117604059Y-58853478D01*
X117770186Y-58989814D01*
X117906522Y-59155941D01*
X117906525Y-59155945D01*
X118007828Y-59345470D01*
X118070214Y-59551129D01*
X118086000Y-59711409D01*
X118086000Y-61338591D01*
X118070214Y-61498871D01*
X118007828Y-61704530D01*
X117906525Y-61894055D01*
X117906523Y-61894057D01*
X117906522Y-61894059D01*
X117770186Y-62060186D01*
X117604059Y-62196522D01*
X117604057Y-62196523D01*
X117414529Y-62297828D01*
X117414526Y-62297829D01*
X117403057Y-62301308D01*
X117208870Y-62360214D01*
X116995000Y-62381278D01*
X116781129Y-62360214D01*
X116586942Y-62301308D01*
X116575473Y-62297829D01*
X116575470Y-62297828D01*
X116385945Y-62196525D01*
X116347417Y-62164906D01*
X116219814Y-62060186D01*
X116083478Y-61894059D01*
X115982173Y-61704530D01*
X115982172Y-61704529D01*
X115919786Y-61498870D01*
X115904000Y-61338590D01*
X115904000Y-59711409D01*
X115919786Y-59551126D01*
X115982171Y-59345473D01*
X116083476Y-59155945D01*
X116083479Y-59155941D01*
X116219815Y-58989814D01*
X116385942Y-58853478D01*
X116385943Y-58853477D01*
X116385946Y-58853475D01*
X116575471Y-58752172D01*
X116579948Y-58750814D01*
X116670221Y-58723430D01*
X116781130Y-58689786D01*
X116995000Y-58668722D01*
X117208871Y-58689786D01*
X117208871Y-58689786D01*
G37*
G36*
X123031217Y-58677808D02*
G01*
X123062489Y-58687294D01*
X123091308Y-58702698D01*
X123116570Y-58723430D01*
X123137302Y-58748692D01*
X123152706Y-58777511D01*
X123162192Y-58808783D01*
X123166000Y-58847448D01*
X123166000Y-62202552D01*
X123162192Y-62241217D01*
X123152706Y-62272489D01*
X123137302Y-62301308D01*
X123116570Y-62326570D01*
X123091308Y-62347302D01*
X123062489Y-62362706D01*
X123031217Y-62372192D01*
X122992552Y-62376000D01*
X121157448Y-62376000D01*
X121118783Y-62372192D01*
X121087511Y-62362706D01*
X121058692Y-62347302D01*
X121033430Y-62326570D01*
X121012698Y-62301308D01*
X120997294Y-62272489D01*
X120987808Y-62241217D01*
X120984000Y-62202552D01*
X120984000Y-58847448D01*
X120987808Y-58808783D01*
X120997294Y-58777511D01*
X121012698Y-58748692D01*
X121033430Y-58723430D01*
X121058692Y-58702698D01*
X121087511Y-58687294D01*
X121118783Y-58677808D01*
X121157448Y-58674000D01*
X122992552Y-58674000D01*
X123031217Y-58677808D01*
X123031217Y-58677808D01*
G37*
G36*
X102471000Y-61821000D02*
G01*
X100769000Y-61821000D01*
X100769000Y-60119000D01*
X102471000Y-60119000D01*
X102471000Y-61821000D01*
X102471000Y-61821000D01*
G37*
G36*
X87231000Y-61821000D02*
G01*
X85529000Y-61821000D01*
X85529000Y-60119000D01*
X87231000Y-60119000D01*
X87231000Y-61821000D01*
X87231000Y-61821000D01*
G37*
G36*
X135134239Y-50311467D02*
G01*
X135448282Y-50373934D01*
X136039926Y-50619001D01*
X136572392Y-50974784D01*
X137025216Y-51427608D01*
X137380999Y-51960074D01*
X137626066Y-52551718D01*
X137751000Y-53179804D01*
X137751000Y-53820196D01*
X137626066Y-54448282D01*
X137380999Y-55039926D01*
X137025216Y-55572392D01*
X136572392Y-56025216D01*
X136039926Y-56380999D01*
X135448282Y-56626066D01*
X135134239Y-56688533D01*
X134820197Y-56751000D01*
X134179803Y-56751000D01*
X133865761Y-56688533D01*
X133551718Y-56626066D01*
X132960074Y-56380999D01*
X132427608Y-56025216D01*
X131974784Y-55572392D01*
X131619001Y-55039926D01*
X131373934Y-54448282D01*
X131249000Y-53820196D01*
X131249000Y-53179804D01*
X131373934Y-52551718D01*
X131619001Y-51960074D01*
X131974784Y-51427608D01*
X132427608Y-50974784D01*
X132960074Y-50619001D01*
X133551718Y-50373934D01*
X133865761Y-50311467D01*
X134179803Y-50249000D01*
X134820197Y-50249000D01*
X135134239Y-50311467D01*
X135134239Y-50311467D01*
G37*
G36*
X54134239Y-50311467D02*
G01*
X54448282Y-50373934D01*
X55039926Y-50619001D01*
X55572392Y-50974784D01*
X56025216Y-51427608D01*
X56380999Y-51960074D01*
X56626066Y-52551718D01*
X56751000Y-53179804D01*
X56751000Y-53820196D01*
X56626066Y-54448282D01*
X56380999Y-55039926D01*
X56025216Y-55572392D01*
X55572392Y-56025216D01*
X55039926Y-56380999D01*
X54448282Y-56626066D01*
X54134239Y-56688533D01*
X53820197Y-56751000D01*
X53179803Y-56751000D01*
X52865761Y-56688533D01*
X52551718Y-56626066D01*
X51960074Y-56380999D01*
X51427608Y-56025216D01*
X50974784Y-55572392D01*
X50619001Y-55039926D01*
X50373934Y-54448282D01*
X50249000Y-53820196D01*
X50249000Y-53179804D01*
X50373934Y-52551718D01*
X50619001Y-51960074D01*
X50974784Y-51427608D01*
X51427608Y-50974784D01*
X51960074Y-50619001D01*
X52551718Y-50373934D01*
X52865761Y-50311467D01*
X53179803Y-50249000D01*
X53820197Y-50249000D01*
X54134239Y-50311467D01*
X54134239Y-50311467D01*
G37*
M02*
