G04 #@! TF.GenerationSoftware,KiCad,Pcbnew,(5.1.4)-1*
G04 #@! TF.CreationDate,2020-03-06T17:17:20+01:00*
G04 #@! TF.ProjectId,asserv_brushless,61737365-7276-45f6-9272-7573686c6573,rev?*
G04 #@! TF.SameCoordinates,Original*
G04 #@! TF.FileFunction,Copper,L2,Bot*
G04 #@! TF.FilePolarity,Positive*
%FSLAX46Y46*%
G04 Gerber Fmt 4.6, Leading zero omitted, Abs format (unit mm)*
G04 Created by KiCad (PCBNEW (5.1.4)-1) date 2020-03-06 17:17:20*
%MOMM*%
%LPD*%
G04 APERTURE LIST*
%ADD10C,1.508000*%
%ADD11R,1.508000X1.508000*%
%ADD12C,6.400000*%
%ADD13O,2.080000X3.600000*%
%ADD14C,0.100000*%
%ADD15C,2.080000*%
%ADD16C,1.600000*%
%ADD17R,1.600000X1.600000*%
%ADD18C,0.600000*%
%ADD19C,1.000000*%
%ADD20C,0.250000*%
%ADD21C,1.000000*%
%ADD22C,0.500000*%
%ADD23C,0.254000*%
G04 APERTURE END LIST*
D10*
X109000000Y-102420000D03*
X109000000Y-99880000D03*
X109000000Y-97340000D03*
D11*
X109000000Y-94800000D03*
D10*
X79000000Y-94780000D03*
X79000000Y-97320000D03*
X79000000Y-99860000D03*
D11*
X79000000Y-102400000D03*
D12*
X53500000Y-53500000D03*
X134500000Y-53500000D03*
X134500000Y-101500000D03*
X53500000Y-101500000D03*
D13*
X116995000Y-60525000D03*
D14*
G36*
X122889505Y-58726204D02*
G01*
X122913773Y-58729804D01*
X122937572Y-58735765D01*
X122960671Y-58744030D01*
X122982850Y-58754520D01*
X123003893Y-58767132D01*
X123023599Y-58781747D01*
X123041777Y-58798223D01*
X123058253Y-58816401D01*
X123072868Y-58836107D01*
X123085480Y-58857150D01*
X123095970Y-58879329D01*
X123104235Y-58902428D01*
X123110196Y-58926227D01*
X123113796Y-58950495D01*
X123115000Y-58974999D01*
X123115000Y-62075001D01*
X123113796Y-62099505D01*
X123110196Y-62123773D01*
X123104235Y-62147572D01*
X123095970Y-62170671D01*
X123085480Y-62192850D01*
X123072868Y-62213893D01*
X123058253Y-62233599D01*
X123041777Y-62251777D01*
X123023599Y-62268253D01*
X123003893Y-62282868D01*
X122982850Y-62295480D01*
X122960671Y-62305970D01*
X122937572Y-62314235D01*
X122913773Y-62320196D01*
X122889505Y-62323796D01*
X122865001Y-62325000D01*
X121284999Y-62325000D01*
X121260495Y-62323796D01*
X121236227Y-62320196D01*
X121212428Y-62314235D01*
X121189329Y-62305970D01*
X121167150Y-62295480D01*
X121146107Y-62282868D01*
X121126401Y-62268253D01*
X121108223Y-62251777D01*
X121091747Y-62233599D01*
X121077132Y-62213893D01*
X121064520Y-62192850D01*
X121054030Y-62170671D01*
X121045765Y-62147572D01*
X121039804Y-62123773D01*
X121036204Y-62099505D01*
X121035000Y-62075001D01*
X121035000Y-58974999D01*
X121036204Y-58950495D01*
X121039804Y-58926227D01*
X121045765Y-58902428D01*
X121054030Y-58879329D01*
X121064520Y-58857150D01*
X121077132Y-58836107D01*
X121091747Y-58816401D01*
X121108223Y-58798223D01*
X121126401Y-58781747D01*
X121146107Y-58767132D01*
X121167150Y-58754520D01*
X121189329Y-58744030D01*
X121212428Y-58735765D01*
X121236227Y-58729804D01*
X121260495Y-58726204D01*
X121284999Y-58725000D01*
X122865001Y-58725000D01*
X122889505Y-58726204D01*
X122889505Y-58726204D01*
G37*
D15*
X122075000Y-60525000D03*
D16*
X101620000Y-96530000D03*
X86380000Y-96530000D03*
X101620000Y-93990000D03*
X86380000Y-93990000D03*
X101620000Y-91450000D03*
X86380000Y-91450000D03*
X101620000Y-88910000D03*
X86380000Y-88910000D03*
X101620000Y-86370000D03*
X86380000Y-86370000D03*
X101620000Y-83830000D03*
X86380000Y-83830000D03*
X101620000Y-81290000D03*
X86380000Y-81290000D03*
X101620000Y-78750000D03*
X86380000Y-78750000D03*
X101620000Y-76210000D03*
X86380000Y-76210000D03*
X101620000Y-73670000D03*
X86380000Y-73670000D03*
X101620000Y-71130000D03*
X86380000Y-71130000D03*
X101620000Y-68590000D03*
X86380000Y-68590000D03*
X101620000Y-66050000D03*
X86380000Y-66050000D03*
X101620000Y-63510000D03*
X86380000Y-63510000D03*
D17*
X101620000Y-60970000D03*
X86380000Y-60970000D03*
D18*
X60512502Y-80887498D03*
X57075000Y-72475000D03*
X73617500Y-61875000D03*
X127487498Y-74112502D03*
X130925000Y-82525000D03*
X105650000Y-79750000D03*
X114382500Y-93125000D03*
X82350000Y-74808898D03*
X82349990Y-81550010D03*
D19*
X64315249Y-73765249D03*
D18*
X68795004Y-76905000D03*
D19*
X64150000Y-70500000D03*
D18*
X76900000Y-61750000D03*
D19*
X123684751Y-81234751D03*
X111925000Y-71366740D03*
X123850000Y-84500000D03*
D18*
X111100000Y-93250000D03*
X75400000Y-83475000D03*
X92000000Y-81890000D03*
X93000000Y-81890000D03*
X94000000Y-81890000D03*
X95000000Y-81890000D03*
X92000000Y-82890000D03*
X93000000Y-82890000D03*
X94000000Y-82890000D03*
X95000000Y-82890000D03*
X96000000Y-81890000D03*
X96000000Y-82890000D03*
D19*
X62500000Y-75075000D03*
D18*
X68400000Y-74975000D03*
D19*
X58900000Y-71000000D03*
D18*
X81250000Y-77000000D03*
X81262500Y-78862500D03*
D19*
X125500000Y-79925000D03*
D18*
X119600000Y-80025000D03*
X106750000Y-78000000D03*
D19*
X129100000Y-84000000D03*
D18*
X106737500Y-76137500D03*
X82575000Y-71325000D03*
X92000000Y-73000000D03*
X93000000Y-73000000D03*
X94000000Y-73000000D03*
X95000000Y-73000000D03*
X92000000Y-74000000D03*
X93000000Y-74000000D03*
X94000000Y-74000000D03*
X95000000Y-74000000D03*
X96000000Y-73000000D03*
X96000000Y-74000000D03*
X118506247Y-71206253D03*
X117900001Y-75000002D03*
X70099999Y-79999998D03*
X69493753Y-83793747D03*
X113967800Y-71192800D03*
X119900000Y-75650000D03*
X68100000Y-79350000D03*
X74032200Y-83807200D03*
X130900000Y-79500000D03*
X124725000Y-75800000D03*
X127907454Y-80981774D03*
X118575010Y-73000000D03*
X123310000Y-73015000D03*
X130874998Y-81525000D03*
X57100000Y-75500000D03*
X63249996Y-79225000D03*
X69424990Y-82000000D03*
X60092546Y-74018226D03*
X64690000Y-81985000D03*
X57125002Y-73475000D03*
X110245000Y-75555000D03*
X110354450Y-83970550D03*
X77755000Y-79445000D03*
X77645550Y-71029450D03*
X109925000Y-85350000D03*
X78075000Y-69650000D03*
D20*
X57075000Y-72475000D02*
X57075000Y-72475000D01*
X60512502Y-79837504D02*
X56474999Y-75800001D01*
X56474999Y-73075001D02*
X57075000Y-72475000D01*
X56474999Y-75800001D02*
X56474999Y-73075001D01*
X60512502Y-80887498D02*
X60512502Y-79837504D01*
X73617500Y-66076398D02*
X82350000Y-74808898D01*
X73617500Y-61875000D02*
X73617500Y-66076398D01*
X101980000Y-68950000D02*
X101620000Y-68590000D01*
X127487498Y-74112502D02*
X122324996Y-68950000D01*
X122324996Y-68950000D02*
X101980000Y-68950000D01*
X131525001Y-79199999D02*
X131525001Y-81924999D01*
X127487498Y-74112502D02*
X127487498Y-75162496D01*
X127487498Y-75162496D02*
X131525001Y-79199999D01*
X131525001Y-81924999D02*
X130925000Y-82525000D01*
X130925000Y-82525000D02*
X130925000Y-82525000D01*
X105650000Y-79750000D02*
X105650000Y-79750000D01*
X105650000Y-80174264D02*
X105650000Y-79750000D01*
X105650000Y-80191102D02*
X105650000Y-80174264D01*
X114382500Y-88923602D02*
X105650000Y-80191102D01*
X114382500Y-93125000D02*
X114382500Y-88923602D01*
X82350000Y-74808898D02*
X82350000Y-74808898D01*
X64083265Y-84458261D02*
X79491739Y-84458261D01*
X60512502Y-80887498D02*
X64083265Y-84458261D01*
X79491739Y-84458261D02*
X82350000Y-81600000D01*
X79491739Y-93221944D02*
X79491739Y-84458261D01*
X79000000Y-93713683D02*
X79491739Y-93221944D01*
X79000000Y-94780000D02*
X79000000Y-93713683D01*
X76900000Y-61750000D02*
X76900000Y-61750000D01*
D21*
X64150000Y-73600000D02*
X64315249Y-73765249D01*
X64150000Y-70500000D02*
X64150000Y-73600000D01*
D20*
X76399999Y-61249999D02*
X76900000Y-61750000D01*
X64649999Y-69917499D02*
X73317499Y-61249999D01*
X64649999Y-70000001D02*
X64649999Y-69917499D01*
X64150000Y-70500000D02*
X64649999Y-70000001D01*
X73317499Y-61249999D02*
X76399999Y-61249999D01*
D21*
X111925000Y-71366740D02*
X111925000Y-71366740D01*
X123850000Y-81400000D02*
X123684751Y-81234751D01*
X123850000Y-84500000D02*
X123850000Y-81400000D01*
D20*
X114682501Y-93750001D02*
X111600001Y-93750001D01*
X123350001Y-85082501D02*
X114682501Y-93750001D01*
X123850000Y-84500000D02*
X123350001Y-84999999D01*
X123350001Y-84999999D02*
X123350001Y-85082501D01*
X111600001Y-93750001D02*
X111100000Y-93250000D01*
X111100000Y-93250000D02*
X111100000Y-93250000D01*
D22*
X75400000Y-83085732D02*
X75400000Y-83475000D01*
X68795004Y-76905000D02*
X69219268Y-76905000D01*
X69219268Y-76905000D02*
X75400000Y-83085732D01*
D21*
X123184752Y-80734752D02*
X123684751Y-81234751D01*
X121474999Y-79024999D02*
X123184752Y-80734752D01*
X118876153Y-79024999D02*
X121474999Y-79024999D01*
X111925000Y-72073846D02*
X118876153Y-79024999D01*
X111925000Y-71366740D02*
X111925000Y-72073846D01*
X62500000Y-74600000D02*
X58900000Y-71000000D01*
X62500000Y-75075000D02*
X62500000Y-74600000D01*
X125500000Y-80400000D02*
X129100000Y-84000000D01*
X125500000Y-79925000D02*
X125500000Y-80400000D01*
D22*
X117900001Y-74575738D02*
X117900001Y-75000002D01*
X117825009Y-74500746D02*
X117900001Y-74575738D01*
X117825009Y-71887491D02*
X117825009Y-74500746D01*
X118506247Y-71206253D02*
X117825009Y-71887491D01*
X70174991Y-80499254D02*
X70099999Y-80424262D01*
X70174991Y-83112509D02*
X70174991Y-80499254D01*
X69493753Y-83793747D02*
X70174991Y-83112509D01*
X70099999Y-80424262D02*
X70099999Y-79999998D01*
D20*
X113967800Y-71192800D02*
X113967800Y-72242800D01*
X113967800Y-72242800D02*
X117375000Y-75650000D01*
X119475736Y-75650000D02*
X119900000Y-75650000D01*
X117375000Y-75650000D02*
X119475736Y-75650000D01*
X74032200Y-83807200D02*
X74032200Y-82757200D01*
X68524264Y-79350000D02*
X68100000Y-79350000D01*
X74032200Y-82757200D02*
X70625000Y-79350000D01*
X70625000Y-79350000D02*
X68524264Y-79350000D01*
X130900000Y-79500000D02*
X127200000Y-75800000D01*
X125149264Y-75800000D02*
X124725000Y-75800000D01*
X127200000Y-75800000D02*
X125149264Y-75800000D01*
X118999274Y-73000000D02*
X118575010Y-73000000D01*
X119925680Y-73000000D02*
X118999274Y-73000000D01*
X127907454Y-80981774D02*
X119925680Y-73000000D01*
X123310000Y-75397502D02*
X127687965Y-79775467D01*
X127687965Y-79775467D02*
X129125465Y-79775467D01*
X130574999Y-81225001D02*
X130874998Y-81525000D01*
X129125465Y-79775467D02*
X130574999Y-81225001D01*
X123310000Y-73015000D02*
X123310000Y-75397502D01*
X60825000Y-79225000D02*
X62825732Y-79225000D01*
X62825732Y-79225000D02*
X63249996Y-79225000D01*
X57100000Y-75500000D02*
X60825000Y-79225000D01*
X68074320Y-82000000D02*
X69000726Y-82000000D01*
X60092546Y-74018226D02*
X68074320Y-82000000D01*
X69000726Y-82000000D02*
X69424990Y-82000000D01*
X58874535Y-75224533D02*
X57425001Y-73774999D01*
X64690000Y-81985000D02*
X64690000Y-79602498D01*
X60312035Y-75224533D02*
X58874535Y-75224533D01*
X57425001Y-73774999D02*
X57125002Y-73475000D01*
X64690000Y-79602498D02*
X60312035Y-75224533D01*
X110245000Y-75555000D02*
X110245000Y-83861100D01*
X110245000Y-83861100D02*
X110354450Y-83970550D01*
X77755000Y-79445000D02*
X77755000Y-71138900D01*
X77755000Y-71138900D02*
X77645550Y-71029450D01*
X87179999Y-77009999D02*
X86380000Y-76210000D01*
X101910001Y-77335001D02*
X87505001Y-77335001D01*
X87505001Y-77335001D02*
X87179999Y-77009999D01*
X109925000Y-85350000D02*
X101910001Y-77335001D01*
X82975001Y-77885001D02*
X85580001Y-80490001D01*
X82975001Y-74550001D02*
X82975001Y-77885001D01*
X85580001Y-80490001D02*
X86380000Y-81290000D01*
X78075000Y-69650000D02*
X82975001Y-74550001D01*
D23*
G36*
X132217246Y-50718456D02*
G01*
X131718456Y-51217246D01*
X131326559Y-51803760D01*
X131056616Y-52455461D01*
X130919000Y-53147302D01*
X130919000Y-53852698D01*
X131056616Y-54544539D01*
X131326559Y-55196240D01*
X131718456Y-55782754D01*
X132217246Y-56281544D01*
X132803760Y-56673441D01*
X133455461Y-56943384D01*
X134147302Y-57081000D01*
X134852698Y-57081000D01*
X135544539Y-56943384D01*
X136196240Y-56673441D01*
X136782754Y-56281544D01*
X137281544Y-55782754D01*
X137594001Y-55315130D01*
X137594000Y-66331829D01*
X135727020Y-68198811D01*
X135711527Y-68211526D01*
X135660791Y-68273347D01*
X135642524Y-68307522D01*
X135623091Y-68343879D01*
X135599875Y-68420411D01*
X135592037Y-68500000D01*
X135594001Y-68519943D01*
X135594000Y-86480067D01*
X135592037Y-86500000D01*
X135594000Y-86519933D01*
X135594000Y-86519940D01*
X135599875Y-86579589D01*
X135623090Y-86656120D01*
X135660790Y-86726652D01*
X135711526Y-86788474D01*
X135727024Y-86801193D01*
X137594000Y-88668171D01*
X137594001Y-99684870D01*
X137281544Y-99217246D01*
X136782754Y-98718456D01*
X136196240Y-98326559D01*
X135544539Y-98056616D01*
X134852698Y-97919000D01*
X134147302Y-97919000D01*
X133455461Y-98056616D01*
X132803760Y-98326559D01*
X132217246Y-98718456D01*
X131718456Y-99217246D01*
X131326559Y-99803760D01*
X131056616Y-100455461D01*
X130919000Y-101147302D01*
X130919000Y-101852698D01*
X131056616Y-102544539D01*
X131326559Y-103196240D01*
X131718456Y-103782754D01*
X132217246Y-104281544D01*
X132684868Y-104594000D01*
X55315132Y-104594000D01*
X55782754Y-104281544D01*
X56281544Y-103782754D01*
X56673441Y-103196240D01*
X56943384Y-102544539D01*
X57081000Y-101852698D01*
X57081000Y-101646000D01*
X77863157Y-101646000D01*
X77863157Y-103154000D01*
X77870513Y-103228689D01*
X77892299Y-103300508D01*
X77927678Y-103366696D01*
X77975289Y-103424711D01*
X78033304Y-103472322D01*
X78099492Y-103507701D01*
X78171311Y-103529487D01*
X78246000Y-103536843D01*
X79754000Y-103536843D01*
X79828689Y-103529487D01*
X79900508Y-103507701D01*
X79966696Y-103472322D01*
X80024711Y-103424711D01*
X80072322Y-103366696D01*
X80107701Y-103300508D01*
X80129487Y-103228689D01*
X80136843Y-103154000D01*
X80136843Y-102308212D01*
X107865000Y-102308212D01*
X107865000Y-102531788D01*
X107908617Y-102751067D01*
X107994176Y-102957624D01*
X108118388Y-103143520D01*
X108276480Y-103301612D01*
X108462376Y-103425824D01*
X108668933Y-103511383D01*
X108888212Y-103555000D01*
X109111788Y-103555000D01*
X109331067Y-103511383D01*
X109537624Y-103425824D01*
X109723520Y-103301612D01*
X109881612Y-103143520D01*
X110005824Y-102957624D01*
X110091383Y-102751067D01*
X110135000Y-102531788D01*
X110135000Y-102308212D01*
X110091383Y-102088933D01*
X110005824Y-101882376D01*
X109881612Y-101696480D01*
X109723520Y-101538388D01*
X109537624Y-101414176D01*
X109331067Y-101328617D01*
X109111788Y-101285000D01*
X108888212Y-101285000D01*
X108668933Y-101328617D01*
X108462376Y-101414176D01*
X108276480Y-101538388D01*
X108118388Y-101696480D01*
X107994176Y-101882376D01*
X107908617Y-102088933D01*
X107865000Y-102308212D01*
X80136843Y-102308212D01*
X80136843Y-101646000D01*
X80129487Y-101571311D01*
X80107701Y-101499492D01*
X80072322Y-101433304D01*
X80024711Y-101375289D01*
X79966696Y-101327678D01*
X79900508Y-101292299D01*
X79828689Y-101270513D01*
X79754000Y-101263157D01*
X78246000Y-101263157D01*
X78171311Y-101270513D01*
X78099492Y-101292299D01*
X78033304Y-101327678D01*
X77975289Y-101375289D01*
X77927678Y-101433304D01*
X77892299Y-101499492D01*
X77870513Y-101571311D01*
X77863157Y-101646000D01*
X57081000Y-101646000D01*
X57081000Y-101147302D01*
X56943384Y-100455461D01*
X56673441Y-99803760D01*
X56636325Y-99748212D01*
X77865000Y-99748212D01*
X77865000Y-99971788D01*
X77908617Y-100191067D01*
X77994176Y-100397624D01*
X78118388Y-100583520D01*
X78276480Y-100741612D01*
X78462376Y-100865824D01*
X78668933Y-100951383D01*
X78888212Y-100995000D01*
X79111788Y-100995000D01*
X79331067Y-100951383D01*
X79537624Y-100865824D01*
X79576495Y-100839851D01*
X108219754Y-100839851D01*
X108285765Y-101079127D01*
X108533426Y-101195426D01*
X108799018Y-101261174D01*
X109072334Y-101273845D01*
X109342870Y-101232951D01*
X109600229Y-101140063D01*
X109714235Y-101079127D01*
X109780246Y-100839851D01*
X109000000Y-100059605D01*
X108219754Y-100839851D01*
X79576495Y-100839851D01*
X79723520Y-100741612D01*
X79881612Y-100583520D01*
X80005824Y-100397624D01*
X80091383Y-100191067D01*
X80135000Y-99971788D01*
X80135000Y-99952334D01*
X107606155Y-99952334D01*
X107647049Y-100222870D01*
X107739937Y-100480229D01*
X107800873Y-100594235D01*
X108040149Y-100660246D01*
X108820395Y-99880000D01*
X109179605Y-99880000D01*
X109959851Y-100660246D01*
X110199127Y-100594235D01*
X110315426Y-100346574D01*
X110381174Y-100080982D01*
X110393845Y-99807666D01*
X110352951Y-99537130D01*
X110260063Y-99279771D01*
X110199127Y-99165765D01*
X109959851Y-99099754D01*
X109179605Y-99880000D01*
X108820395Y-99880000D01*
X108040149Y-99099754D01*
X107800873Y-99165765D01*
X107684574Y-99413426D01*
X107618826Y-99679018D01*
X107606155Y-99952334D01*
X80135000Y-99952334D01*
X80135000Y-99748212D01*
X80091383Y-99528933D01*
X80005824Y-99322376D01*
X79881612Y-99136480D01*
X79723520Y-98978388D01*
X79636360Y-98920149D01*
X108219754Y-98920149D01*
X109000000Y-99700395D01*
X109780246Y-98920149D01*
X109714235Y-98680873D01*
X109466574Y-98564574D01*
X109200982Y-98498826D01*
X108927666Y-98486155D01*
X108657130Y-98527049D01*
X108399771Y-98619937D01*
X108285765Y-98680873D01*
X108219754Y-98920149D01*
X79636360Y-98920149D01*
X79537624Y-98854176D01*
X79331067Y-98768617D01*
X79111788Y-98725000D01*
X78888212Y-98725000D01*
X78668933Y-98768617D01*
X78462376Y-98854176D01*
X78276480Y-98978388D01*
X78118388Y-99136480D01*
X77994176Y-99322376D01*
X77908617Y-99528933D01*
X77865000Y-99748212D01*
X56636325Y-99748212D01*
X56281544Y-99217246D01*
X55782754Y-98718456D01*
X55196240Y-98326559D01*
X55083477Y-98279851D01*
X78219754Y-98279851D01*
X78285765Y-98519127D01*
X78533426Y-98635426D01*
X78799018Y-98701174D01*
X79072334Y-98713845D01*
X79342870Y-98672951D01*
X79600229Y-98580063D01*
X79714235Y-98519127D01*
X79780246Y-98279851D01*
X79000000Y-97499605D01*
X78219754Y-98279851D01*
X55083477Y-98279851D01*
X54544539Y-98056616D01*
X53852698Y-97919000D01*
X53147302Y-97919000D01*
X52455461Y-98056616D01*
X51803760Y-98326559D01*
X51217246Y-98718456D01*
X50718456Y-99217246D01*
X50406000Y-99684868D01*
X50406000Y-97392334D01*
X77606155Y-97392334D01*
X77647049Y-97662870D01*
X77739937Y-97920229D01*
X77800873Y-98034235D01*
X78040149Y-98100246D01*
X78820395Y-97320000D01*
X79179605Y-97320000D01*
X79959851Y-98100246D01*
X80199127Y-98034235D01*
X80315426Y-97786574D01*
X80381174Y-97520982D01*
X80393845Y-97247666D01*
X80352951Y-96977130D01*
X80260063Y-96719771D01*
X80199127Y-96605765D01*
X79959851Y-96539754D01*
X79179605Y-97320000D01*
X78820395Y-97320000D01*
X78040149Y-96539754D01*
X77800873Y-96605765D01*
X77684574Y-96853426D01*
X77618826Y-97119018D01*
X77606155Y-97392334D01*
X50406000Y-97392334D01*
X50406000Y-96360149D01*
X78219754Y-96360149D01*
X79000000Y-97140395D01*
X79726713Y-96413682D01*
X85199000Y-96413682D01*
X85199000Y-96646318D01*
X85244386Y-96874485D01*
X85333412Y-97089413D01*
X85462658Y-97282843D01*
X85627157Y-97447342D01*
X85820587Y-97576588D01*
X86035515Y-97665614D01*
X86263682Y-97711000D01*
X86496318Y-97711000D01*
X86724485Y-97665614D01*
X86939413Y-97576588D01*
X87132843Y-97447342D01*
X87297342Y-97282843D01*
X87426588Y-97089413D01*
X87515614Y-96874485D01*
X87561000Y-96646318D01*
X87561000Y-96413682D01*
X100439000Y-96413682D01*
X100439000Y-96646318D01*
X100484386Y-96874485D01*
X100573412Y-97089413D01*
X100702658Y-97282843D01*
X100867157Y-97447342D01*
X101060587Y-97576588D01*
X101275515Y-97665614D01*
X101503682Y-97711000D01*
X101736318Y-97711000D01*
X101964485Y-97665614D01*
X102179413Y-97576588D01*
X102372843Y-97447342D01*
X102537342Y-97282843D01*
X102573845Y-97228212D01*
X107865000Y-97228212D01*
X107865000Y-97451788D01*
X107908617Y-97671067D01*
X107994176Y-97877624D01*
X108118388Y-98063520D01*
X108276480Y-98221612D01*
X108462376Y-98345824D01*
X108668933Y-98431383D01*
X108888212Y-98475000D01*
X109111788Y-98475000D01*
X109331067Y-98431383D01*
X109537624Y-98345824D01*
X109723520Y-98221612D01*
X109881612Y-98063520D01*
X110005824Y-97877624D01*
X110091383Y-97671067D01*
X110135000Y-97451788D01*
X110135000Y-97228212D01*
X110091383Y-97008933D01*
X110005824Y-96802376D01*
X109881612Y-96616480D01*
X109723520Y-96458388D01*
X109537624Y-96334176D01*
X109331067Y-96248617D01*
X109111788Y-96205000D01*
X108888212Y-96205000D01*
X108668933Y-96248617D01*
X108462376Y-96334176D01*
X108276480Y-96458388D01*
X108118388Y-96616480D01*
X107994176Y-96802376D01*
X107908617Y-97008933D01*
X107865000Y-97228212D01*
X102573845Y-97228212D01*
X102666588Y-97089413D01*
X102755614Y-96874485D01*
X102801000Y-96646318D01*
X102801000Y-96413682D01*
X102755614Y-96185515D01*
X102666588Y-95970587D01*
X102537342Y-95777157D01*
X102372843Y-95612658D01*
X102179413Y-95483412D01*
X101964485Y-95394386D01*
X101736318Y-95349000D01*
X101503682Y-95349000D01*
X101275515Y-95394386D01*
X101060587Y-95483412D01*
X100867157Y-95612658D01*
X100702658Y-95777157D01*
X100573412Y-95970587D01*
X100484386Y-96185515D01*
X100439000Y-96413682D01*
X87561000Y-96413682D01*
X87515614Y-96185515D01*
X87426588Y-95970587D01*
X87297342Y-95777157D01*
X87132843Y-95612658D01*
X86939413Y-95483412D01*
X86724485Y-95394386D01*
X86496318Y-95349000D01*
X86263682Y-95349000D01*
X86035515Y-95394386D01*
X85820587Y-95483412D01*
X85627157Y-95612658D01*
X85462658Y-95777157D01*
X85333412Y-95970587D01*
X85244386Y-96185515D01*
X85199000Y-96413682D01*
X79726713Y-96413682D01*
X79780246Y-96360149D01*
X79714235Y-96120873D01*
X79466574Y-96004574D01*
X79200982Y-95938826D01*
X78927666Y-95926155D01*
X78657130Y-95967049D01*
X78399771Y-96059937D01*
X78285765Y-96120873D01*
X78219754Y-96360149D01*
X50406000Y-96360149D01*
X50406000Y-88668169D01*
X52272987Y-86801184D01*
X52288474Y-86788474D01*
X52339210Y-86726653D01*
X52376910Y-86656121D01*
X52400125Y-86579590D01*
X52406000Y-86519941D01*
X52406000Y-86519934D01*
X52407963Y-86500001D01*
X52406000Y-86480068D01*
X52406000Y-73075001D01*
X55966552Y-73075001D01*
X55969000Y-73099857D01*
X55968999Y-75775155D01*
X55966552Y-75800001D01*
X55968999Y-75824847D01*
X55968999Y-75824854D01*
X55976321Y-75899193D01*
X56005254Y-75994575D01*
X56052240Y-76082480D01*
X56115472Y-76159528D01*
X56134784Y-76175377D01*
X60006503Y-80047097D01*
X60006502Y-80430419D01*
X59983535Y-80453386D01*
X59909008Y-80564924D01*
X59857673Y-80688858D01*
X59831502Y-80820425D01*
X59831502Y-80954571D01*
X59857673Y-81086138D01*
X59909008Y-81210072D01*
X59983535Y-81321610D01*
X60078390Y-81416465D01*
X60189928Y-81490992D01*
X60313862Y-81542327D01*
X60445429Y-81568498D01*
X60477911Y-81568498D01*
X63707893Y-84798481D01*
X63723738Y-84817788D01*
X63800786Y-84881020D01*
X63888690Y-84928006D01*
X63961872Y-84950205D01*
X63984071Y-84956939D01*
X63993959Y-84957913D01*
X64058411Y-84964261D01*
X64058418Y-84964261D01*
X64083264Y-84966708D01*
X64108110Y-84964261D01*
X78985740Y-84964261D01*
X78985739Y-93012352D01*
X78659780Y-93338312D01*
X78640474Y-93354156D01*
X78577242Y-93431204D01*
X78557829Y-93467523D01*
X78530255Y-93519109D01*
X78501322Y-93614491D01*
X78491553Y-93713683D01*
X78494001Y-93738539D01*
X78494001Y-93761076D01*
X78462376Y-93774176D01*
X78276480Y-93898388D01*
X78118388Y-94056480D01*
X77994176Y-94242376D01*
X77908617Y-94448933D01*
X77865000Y-94668212D01*
X77865000Y-94891788D01*
X77908617Y-95111067D01*
X77994176Y-95317624D01*
X78118388Y-95503520D01*
X78276480Y-95661612D01*
X78462376Y-95785824D01*
X78668933Y-95871383D01*
X78888212Y-95915000D01*
X79111788Y-95915000D01*
X79331067Y-95871383D01*
X79537624Y-95785824D01*
X79723520Y-95661612D01*
X79881612Y-95503520D01*
X80005824Y-95317624D01*
X80091383Y-95111067D01*
X80135000Y-94891788D01*
X80135000Y-94668212D01*
X80091383Y-94448933D01*
X80005824Y-94242376D01*
X79881612Y-94056480D01*
X79723520Y-93898388D01*
X79686545Y-93873682D01*
X85199000Y-93873682D01*
X85199000Y-94106318D01*
X85244386Y-94334485D01*
X85333412Y-94549413D01*
X85462658Y-94742843D01*
X85627157Y-94907342D01*
X85820587Y-95036588D01*
X86035515Y-95125614D01*
X86263682Y-95171000D01*
X86496318Y-95171000D01*
X86724485Y-95125614D01*
X86939413Y-95036588D01*
X87132843Y-94907342D01*
X87297342Y-94742843D01*
X87426588Y-94549413D01*
X87515614Y-94334485D01*
X87561000Y-94106318D01*
X87561000Y-93873682D01*
X100439000Y-93873682D01*
X100439000Y-94106318D01*
X100484386Y-94334485D01*
X100573412Y-94549413D01*
X100702658Y-94742843D01*
X100867157Y-94907342D01*
X101060587Y-95036588D01*
X101275515Y-95125614D01*
X101503682Y-95171000D01*
X101736318Y-95171000D01*
X101964485Y-95125614D01*
X102179413Y-95036588D01*
X102372843Y-94907342D01*
X102537342Y-94742843D01*
X102666588Y-94549413D01*
X102755614Y-94334485D01*
X102801000Y-94106318D01*
X102801000Y-94046000D01*
X107863157Y-94046000D01*
X107863157Y-95554000D01*
X107870513Y-95628689D01*
X107892299Y-95700508D01*
X107927678Y-95766696D01*
X107975289Y-95824711D01*
X108033304Y-95872322D01*
X108099492Y-95907701D01*
X108171311Y-95929487D01*
X108246000Y-95936843D01*
X109754000Y-95936843D01*
X109828689Y-95929487D01*
X109900508Y-95907701D01*
X109966696Y-95872322D01*
X110024711Y-95824711D01*
X110072322Y-95766696D01*
X110107701Y-95700508D01*
X110129487Y-95628689D01*
X110136843Y-95554000D01*
X110136843Y-94046000D01*
X110129487Y-93971311D01*
X110107701Y-93899492D01*
X110072322Y-93833304D01*
X110024711Y-93775289D01*
X109966696Y-93727678D01*
X109900508Y-93692299D01*
X109828689Y-93670513D01*
X109754000Y-93663157D01*
X108246000Y-93663157D01*
X108171311Y-93670513D01*
X108099492Y-93692299D01*
X108033304Y-93727678D01*
X107975289Y-93775289D01*
X107927678Y-93833304D01*
X107892299Y-93899492D01*
X107870513Y-93971311D01*
X107863157Y-94046000D01*
X102801000Y-94046000D01*
X102801000Y-93873682D01*
X102755614Y-93645515D01*
X102666588Y-93430587D01*
X102537342Y-93237157D01*
X102372843Y-93072658D01*
X102179413Y-92943412D01*
X101964485Y-92854386D01*
X101736318Y-92809000D01*
X101503682Y-92809000D01*
X101275515Y-92854386D01*
X101060587Y-92943412D01*
X100867157Y-93072658D01*
X100702658Y-93237157D01*
X100573412Y-93430587D01*
X100484386Y-93645515D01*
X100439000Y-93873682D01*
X87561000Y-93873682D01*
X87515614Y-93645515D01*
X87426588Y-93430587D01*
X87297342Y-93237157D01*
X87132843Y-93072658D01*
X86939413Y-92943412D01*
X86724485Y-92854386D01*
X86496318Y-92809000D01*
X86263682Y-92809000D01*
X86035515Y-92854386D01*
X85820587Y-92943412D01*
X85627157Y-93072658D01*
X85462658Y-93237157D01*
X85333412Y-93430587D01*
X85244386Y-93645515D01*
X85199000Y-93873682D01*
X79686545Y-93873682D01*
X79608045Y-93821230D01*
X79831959Y-93597316D01*
X79851266Y-93581471D01*
X79914498Y-93504423D01*
X79961484Y-93416519D01*
X79990417Y-93321137D01*
X79997739Y-93246798D01*
X79997739Y-93246790D01*
X80000186Y-93221944D01*
X79997739Y-93197098D01*
X79997739Y-91333682D01*
X85199000Y-91333682D01*
X85199000Y-91566318D01*
X85244386Y-91794485D01*
X85333412Y-92009413D01*
X85462658Y-92202843D01*
X85627157Y-92367342D01*
X85820587Y-92496588D01*
X86035515Y-92585614D01*
X86263682Y-92631000D01*
X86496318Y-92631000D01*
X86724485Y-92585614D01*
X86939413Y-92496588D01*
X87132843Y-92367342D01*
X87297342Y-92202843D01*
X87426588Y-92009413D01*
X87515614Y-91794485D01*
X87561000Y-91566318D01*
X87561000Y-91333682D01*
X100439000Y-91333682D01*
X100439000Y-91566318D01*
X100484386Y-91794485D01*
X100573412Y-92009413D01*
X100702658Y-92202843D01*
X100867157Y-92367342D01*
X101060587Y-92496588D01*
X101275515Y-92585614D01*
X101503682Y-92631000D01*
X101736318Y-92631000D01*
X101964485Y-92585614D01*
X102179413Y-92496588D01*
X102372843Y-92367342D01*
X102537342Y-92202843D01*
X102666588Y-92009413D01*
X102755614Y-91794485D01*
X102801000Y-91566318D01*
X102801000Y-91333682D01*
X102755614Y-91105515D01*
X102666588Y-90890587D01*
X102537342Y-90697157D01*
X102372843Y-90532658D01*
X102179413Y-90403412D01*
X101964485Y-90314386D01*
X101736318Y-90269000D01*
X101503682Y-90269000D01*
X101275515Y-90314386D01*
X101060587Y-90403412D01*
X100867157Y-90532658D01*
X100702658Y-90697157D01*
X100573412Y-90890587D01*
X100484386Y-91105515D01*
X100439000Y-91333682D01*
X87561000Y-91333682D01*
X87515614Y-91105515D01*
X87426588Y-90890587D01*
X87297342Y-90697157D01*
X87132843Y-90532658D01*
X86939413Y-90403412D01*
X86724485Y-90314386D01*
X86496318Y-90269000D01*
X86263682Y-90269000D01*
X86035515Y-90314386D01*
X85820587Y-90403412D01*
X85627157Y-90532658D01*
X85462658Y-90697157D01*
X85333412Y-90890587D01*
X85244386Y-91105515D01*
X85199000Y-91333682D01*
X79997739Y-91333682D01*
X79997739Y-88793682D01*
X85199000Y-88793682D01*
X85199000Y-89026318D01*
X85244386Y-89254485D01*
X85333412Y-89469413D01*
X85462658Y-89662843D01*
X85627157Y-89827342D01*
X85820587Y-89956588D01*
X86035515Y-90045614D01*
X86263682Y-90091000D01*
X86496318Y-90091000D01*
X86724485Y-90045614D01*
X86939413Y-89956588D01*
X87132843Y-89827342D01*
X87297342Y-89662843D01*
X87426588Y-89469413D01*
X87515614Y-89254485D01*
X87561000Y-89026318D01*
X87561000Y-88793682D01*
X100439000Y-88793682D01*
X100439000Y-89026318D01*
X100484386Y-89254485D01*
X100573412Y-89469413D01*
X100702658Y-89662843D01*
X100867157Y-89827342D01*
X101060587Y-89956588D01*
X101275515Y-90045614D01*
X101503682Y-90091000D01*
X101736318Y-90091000D01*
X101964485Y-90045614D01*
X102179413Y-89956588D01*
X102372843Y-89827342D01*
X102537342Y-89662843D01*
X102666588Y-89469413D01*
X102755614Y-89254485D01*
X102801000Y-89026318D01*
X102801000Y-88793682D01*
X102755614Y-88565515D01*
X102666588Y-88350587D01*
X102537342Y-88157157D01*
X102372843Y-87992658D01*
X102179413Y-87863412D01*
X101964485Y-87774386D01*
X101736318Y-87729000D01*
X101503682Y-87729000D01*
X101275515Y-87774386D01*
X101060587Y-87863412D01*
X100867157Y-87992658D01*
X100702658Y-88157157D01*
X100573412Y-88350587D01*
X100484386Y-88565515D01*
X100439000Y-88793682D01*
X87561000Y-88793682D01*
X87515614Y-88565515D01*
X87426588Y-88350587D01*
X87297342Y-88157157D01*
X87132843Y-87992658D01*
X86939413Y-87863412D01*
X86724485Y-87774386D01*
X86496318Y-87729000D01*
X86263682Y-87729000D01*
X86035515Y-87774386D01*
X85820587Y-87863412D01*
X85627157Y-87992658D01*
X85462658Y-88157157D01*
X85333412Y-88350587D01*
X85244386Y-88565515D01*
X85199000Y-88793682D01*
X79997739Y-88793682D01*
X79997739Y-86253682D01*
X85199000Y-86253682D01*
X85199000Y-86486318D01*
X85244386Y-86714485D01*
X85333412Y-86929413D01*
X85462658Y-87122843D01*
X85627157Y-87287342D01*
X85820587Y-87416588D01*
X86035515Y-87505614D01*
X86263682Y-87551000D01*
X86496318Y-87551000D01*
X86724485Y-87505614D01*
X86939413Y-87416588D01*
X87132843Y-87287342D01*
X87297342Y-87122843D01*
X87426588Y-86929413D01*
X87515614Y-86714485D01*
X87561000Y-86486318D01*
X87561000Y-86253682D01*
X100439000Y-86253682D01*
X100439000Y-86486318D01*
X100484386Y-86714485D01*
X100573412Y-86929413D01*
X100702658Y-87122843D01*
X100867157Y-87287342D01*
X101060587Y-87416588D01*
X101275515Y-87505614D01*
X101503682Y-87551000D01*
X101736318Y-87551000D01*
X101964485Y-87505614D01*
X102179413Y-87416588D01*
X102372843Y-87287342D01*
X102537342Y-87122843D01*
X102666588Y-86929413D01*
X102755614Y-86714485D01*
X102801000Y-86486318D01*
X102801000Y-86253682D01*
X102755614Y-86025515D01*
X102666588Y-85810587D01*
X102537342Y-85617157D01*
X102372843Y-85452658D01*
X102179413Y-85323412D01*
X101964485Y-85234386D01*
X101736318Y-85189000D01*
X101503682Y-85189000D01*
X101275515Y-85234386D01*
X101060587Y-85323412D01*
X100867157Y-85452658D01*
X100702658Y-85617157D01*
X100573412Y-85810587D01*
X100484386Y-86025515D01*
X100439000Y-86253682D01*
X87561000Y-86253682D01*
X87515614Y-86025515D01*
X87426588Y-85810587D01*
X87297342Y-85617157D01*
X87132843Y-85452658D01*
X86939413Y-85323412D01*
X86724485Y-85234386D01*
X86496318Y-85189000D01*
X86263682Y-85189000D01*
X86035515Y-85234386D01*
X85820587Y-85323412D01*
X85627157Y-85452658D01*
X85462658Y-85617157D01*
X85333412Y-85810587D01*
X85244386Y-86025515D01*
X85199000Y-86253682D01*
X79997739Y-86253682D01*
X79997739Y-84667852D01*
X80951909Y-83713682D01*
X85199000Y-83713682D01*
X85199000Y-83946318D01*
X85244386Y-84174485D01*
X85333412Y-84389413D01*
X85462658Y-84582843D01*
X85627157Y-84747342D01*
X85820587Y-84876588D01*
X86035515Y-84965614D01*
X86263682Y-85011000D01*
X86496318Y-85011000D01*
X86724485Y-84965614D01*
X86939413Y-84876588D01*
X87132843Y-84747342D01*
X87297342Y-84582843D01*
X87426588Y-84389413D01*
X87515614Y-84174485D01*
X87561000Y-83946318D01*
X87561000Y-83713682D01*
X100439000Y-83713682D01*
X100439000Y-83946318D01*
X100484386Y-84174485D01*
X100573412Y-84389413D01*
X100702658Y-84582843D01*
X100867157Y-84747342D01*
X101060587Y-84876588D01*
X101275515Y-84965614D01*
X101503682Y-85011000D01*
X101736318Y-85011000D01*
X101964485Y-84965614D01*
X102179413Y-84876588D01*
X102372843Y-84747342D01*
X102537342Y-84582843D01*
X102666588Y-84389413D01*
X102755614Y-84174485D01*
X102801000Y-83946318D01*
X102801000Y-83713682D01*
X102755614Y-83485515D01*
X102666588Y-83270587D01*
X102537342Y-83077157D01*
X102372843Y-82912658D01*
X102179413Y-82783412D01*
X101964485Y-82694386D01*
X101736318Y-82649000D01*
X101503682Y-82649000D01*
X101275515Y-82694386D01*
X101060587Y-82783412D01*
X100867157Y-82912658D01*
X100702658Y-83077157D01*
X100573412Y-83270587D01*
X100484386Y-83485515D01*
X100439000Y-83713682D01*
X87561000Y-83713682D01*
X87515614Y-83485515D01*
X87426588Y-83270587D01*
X87297342Y-83077157D01*
X87132843Y-82912658D01*
X86939413Y-82783412D01*
X86724485Y-82694386D01*
X86496318Y-82649000D01*
X86263682Y-82649000D01*
X86035515Y-82694386D01*
X85820587Y-82783412D01*
X85627157Y-82912658D01*
X85462658Y-83077157D01*
X85333412Y-83270587D01*
X85244386Y-83485515D01*
X85199000Y-83713682D01*
X80951909Y-83713682D01*
X82438932Y-82226660D01*
X82548630Y-82204839D01*
X82672564Y-82153504D01*
X82784102Y-82078977D01*
X82878957Y-81984122D01*
X82953484Y-81872584D01*
X83004819Y-81748650D01*
X83030990Y-81617083D01*
X83030990Y-81482937D01*
X83004819Y-81351370D01*
X82953484Y-81227436D01*
X82878957Y-81115898D01*
X82784102Y-81021043D01*
X82672564Y-80946516D01*
X82548630Y-80895181D01*
X82417063Y-80869010D01*
X82282917Y-80869010D01*
X82151350Y-80895181D01*
X82027416Y-80946516D01*
X81915878Y-81021043D01*
X81821023Y-81115898D01*
X81746496Y-81227436D01*
X81695161Y-81351370D01*
X81668990Y-81482937D01*
X81668990Y-81565418D01*
X79282148Y-83952261D01*
X75885818Y-83952261D01*
X75928967Y-83909112D01*
X76003494Y-83797574D01*
X76054829Y-83673640D01*
X76081000Y-83542073D01*
X76081000Y-83407927D01*
X76054829Y-83276360D01*
X76031000Y-83218832D01*
X76031000Y-83116719D01*
X76034052Y-83085731D01*
X76031000Y-83054743D01*
X76031000Y-83054734D01*
X76021870Y-82962034D01*
X75985789Y-82843090D01*
X75927196Y-82733471D01*
X75871824Y-82666000D01*
X75868103Y-82661466D01*
X75868101Y-82661464D01*
X75848343Y-82637389D01*
X75824269Y-82617632D01*
X69687373Y-76480737D01*
X69667611Y-76456657D01*
X69571529Y-76377804D01*
X69461910Y-76319211D01*
X69342966Y-76283130D01*
X69250266Y-76274000D01*
X69250258Y-76274000D01*
X69219268Y-76270948D01*
X69188278Y-76274000D01*
X69051172Y-76274000D01*
X68993644Y-76250171D01*
X68862077Y-76224000D01*
X68727931Y-76224000D01*
X68596364Y-76250171D01*
X68472430Y-76301506D01*
X68360892Y-76376033D01*
X68266037Y-76470888D01*
X68191510Y-76582426D01*
X68140175Y-76706360D01*
X68114004Y-76837927D01*
X68114004Y-76972073D01*
X68140175Y-77103640D01*
X68191510Y-77227574D01*
X68266037Y-77339112D01*
X68360892Y-77433967D01*
X68472430Y-77508494D01*
X68596364Y-77559829D01*
X68727931Y-77586000D01*
X68862077Y-77586000D01*
X68983706Y-77561806D01*
X70265900Y-78844000D01*
X68557079Y-78844000D01*
X68534112Y-78821033D01*
X68422574Y-78746506D01*
X68298640Y-78695171D01*
X68167073Y-78669000D01*
X68032927Y-78669000D01*
X67901360Y-78695171D01*
X67777426Y-78746506D01*
X67665888Y-78821033D01*
X67571033Y-78915888D01*
X67496506Y-79027426D01*
X67445171Y-79151360D01*
X67419000Y-79282927D01*
X67419000Y-79417073D01*
X67445171Y-79548640D01*
X67496506Y-79672574D01*
X67571033Y-79784112D01*
X67665888Y-79878967D01*
X67777426Y-79953494D01*
X67901360Y-80004829D01*
X68032927Y-80031000D01*
X68167073Y-80031000D01*
X68298640Y-80004829D01*
X68422574Y-79953494D01*
X68534112Y-79878967D01*
X68557079Y-79856000D01*
X69434301Y-79856000D01*
X69418999Y-79932925D01*
X69418999Y-80067071D01*
X69445170Y-80198638D01*
X69468999Y-80256166D01*
X69468999Y-80393272D01*
X69465947Y-80424262D01*
X69468999Y-80455252D01*
X69468999Y-80455259D01*
X69478129Y-80547959D01*
X69514210Y-80666903D01*
X69543992Y-80722621D01*
X69543992Y-81329330D01*
X69492063Y-81319000D01*
X69357917Y-81319000D01*
X69226350Y-81345171D01*
X69102416Y-81396506D01*
X68990878Y-81471033D01*
X68967911Y-81494000D01*
X68283912Y-81494000D01*
X60773546Y-73983635D01*
X60773546Y-73951153D01*
X60747375Y-73819586D01*
X60696040Y-73695652D01*
X60632128Y-73600000D01*
X63264738Y-73600000D01*
X63274194Y-73696000D01*
X63281015Y-73765248D01*
X63281749Y-73772705D01*
X63332125Y-73938774D01*
X63413932Y-74091825D01*
X63482085Y-74174869D01*
X63524026Y-74225975D01*
X63557640Y-74253561D01*
X63630927Y-74326848D01*
X63630931Y-74326854D01*
X63753644Y-74449567D01*
X63789820Y-74473739D01*
X63823424Y-74501317D01*
X63861765Y-74521810D01*
X63897939Y-74545981D01*
X63938137Y-74562631D01*
X63976474Y-74583123D01*
X64018070Y-74595741D01*
X64058271Y-74612393D01*
X64100946Y-74620881D01*
X64142543Y-74633500D01*
X64185808Y-74637762D01*
X64228478Y-74646249D01*
X64271978Y-74646249D01*
X64315248Y-74650511D01*
X64358518Y-74646249D01*
X64402020Y-74646249D01*
X64444691Y-74637761D01*
X64487954Y-74633500D01*
X64529549Y-74620882D01*
X64572227Y-74612393D01*
X64612431Y-74595740D01*
X64654023Y-74583123D01*
X64692358Y-74562633D01*
X64732559Y-74545981D01*
X64768734Y-74521810D01*
X64807074Y-74501317D01*
X64840677Y-74473739D01*
X64876854Y-74449567D01*
X64907623Y-74418798D01*
X64941223Y-74391223D01*
X64968798Y-74357623D01*
X64999567Y-74326854D01*
X65023739Y-74290677D01*
X65051317Y-74257074D01*
X65071810Y-74218734D01*
X65095981Y-74182559D01*
X65112633Y-74142358D01*
X65133123Y-74104023D01*
X65145740Y-74062431D01*
X65162393Y-74022227D01*
X65170882Y-73979549D01*
X65183500Y-73937954D01*
X65187761Y-73894691D01*
X65196249Y-73852020D01*
X65196249Y-73808518D01*
X65200511Y-73765248D01*
X65196249Y-73721978D01*
X65196249Y-73678478D01*
X65187762Y-73635808D01*
X65183500Y-73592543D01*
X65170881Y-73550946D01*
X65162393Y-73508271D01*
X65145741Y-73468070D01*
X65133123Y-73426474D01*
X65112631Y-73388137D01*
X65095981Y-73347939D01*
X65071810Y-73311765D01*
X65051317Y-73273424D01*
X65031000Y-73248668D01*
X65031000Y-70413229D01*
X65022514Y-70370566D01*
X65020152Y-70346581D01*
X65072758Y-70282480D01*
X65119744Y-70194576D01*
X65133342Y-70149747D01*
X73042649Y-62240441D01*
X73088533Y-62309112D01*
X73111500Y-62332079D01*
X73111501Y-66051542D01*
X73109053Y-66076398D01*
X73118822Y-66175590D01*
X73147755Y-66270972D01*
X73147756Y-66270973D01*
X73194742Y-66358877D01*
X73257974Y-66435925D01*
X73277281Y-66451770D01*
X77280109Y-70454599D01*
X77211438Y-70500483D01*
X77116583Y-70595338D01*
X77042056Y-70706876D01*
X76990721Y-70830810D01*
X76964550Y-70962377D01*
X76964550Y-71096523D01*
X76990721Y-71228090D01*
X77042056Y-71352024D01*
X77116583Y-71463562D01*
X77211438Y-71558417D01*
X77249001Y-71583516D01*
X77249000Y-78987921D01*
X77226033Y-79010888D01*
X77151506Y-79122426D01*
X77100171Y-79246360D01*
X77074000Y-79377927D01*
X77074000Y-79512073D01*
X77100171Y-79643640D01*
X77151506Y-79767574D01*
X77226033Y-79879112D01*
X77320888Y-79973967D01*
X77432426Y-80048494D01*
X77556360Y-80099829D01*
X77687927Y-80126000D01*
X77822073Y-80126000D01*
X77953640Y-80099829D01*
X78077574Y-80048494D01*
X78189112Y-79973967D01*
X78283967Y-79879112D01*
X78358494Y-79767574D01*
X78409829Y-79643640D01*
X78436000Y-79512073D01*
X78436000Y-79377927D01*
X78409829Y-79246360D01*
X78358494Y-79122426D01*
X78283967Y-79010888D01*
X78261000Y-78987921D01*
X78261000Y-71435490D01*
X81669000Y-74843490D01*
X81669000Y-74875971D01*
X81695171Y-75007538D01*
X81746506Y-75131472D01*
X81821033Y-75243010D01*
X81915888Y-75337865D01*
X82027426Y-75412392D01*
X82151360Y-75463727D01*
X82282927Y-75489898D01*
X82417073Y-75489898D01*
X82469001Y-75479569D01*
X82469002Y-77860145D01*
X82466554Y-77885001D01*
X82476323Y-77984193D01*
X82505256Y-78079575D01*
X82505257Y-78079576D01*
X82552243Y-78167480D01*
X82615475Y-78244528D01*
X82634782Y-78260373D01*
X85239779Y-80865371D01*
X85239784Y-80865375D01*
X85266511Y-80892102D01*
X85244386Y-80945515D01*
X85199000Y-81173682D01*
X85199000Y-81406318D01*
X85244386Y-81634485D01*
X85333412Y-81849413D01*
X85462658Y-82042843D01*
X85627157Y-82207342D01*
X85820587Y-82336588D01*
X86035515Y-82425614D01*
X86263682Y-82471000D01*
X86496318Y-82471000D01*
X86724485Y-82425614D01*
X86939413Y-82336588D01*
X87132843Y-82207342D01*
X87297342Y-82042843D01*
X87426588Y-81849413D01*
X87515614Y-81634485D01*
X87561000Y-81406318D01*
X87561000Y-81173682D01*
X100439000Y-81173682D01*
X100439000Y-81406318D01*
X100484386Y-81634485D01*
X100573412Y-81849413D01*
X100702658Y-82042843D01*
X100867157Y-82207342D01*
X101060587Y-82336588D01*
X101275515Y-82425614D01*
X101503682Y-82471000D01*
X101736318Y-82471000D01*
X101964485Y-82425614D01*
X102179413Y-82336588D01*
X102372843Y-82207342D01*
X102537342Y-82042843D01*
X102666588Y-81849413D01*
X102755614Y-81634485D01*
X102801000Y-81406318D01*
X102801000Y-81173682D01*
X102755614Y-80945515D01*
X102666588Y-80730587D01*
X102537342Y-80537157D01*
X102372843Y-80372658D01*
X102179413Y-80243412D01*
X101964485Y-80154386D01*
X101736318Y-80109000D01*
X101503682Y-80109000D01*
X101275515Y-80154386D01*
X101060587Y-80243412D01*
X100867157Y-80372658D01*
X100702658Y-80537157D01*
X100573412Y-80730587D01*
X100484386Y-80945515D01*
X100439000Y-81173682D01*
X87561000Y-81173682D01*
X87515614Y-80945515D01*
X87426588Y-80730587D01*
X87297342Y-80537157D01*
X87132843Y-80372658D01*
X86939413Y-80243412D01*
X86724485Y-80154386D01*
X86496318Y-80109000D01*
X86263682Y-80109000D01*
X86035515Y-80154386D01*
X85982102Y-80176511D01*
X85955375Y-80149784D01*
X85955371Y-80149779D01*
X84439274Y-78633682D01*
X85199000Y-78633682D01*
X85199000Y-78866318D01*
X85244386Y-79094485D01*
X85333412Y-79309413D01*
X85462658Y-79502843D01*
X85627157Y-79667342D01*
X85820587Y-79796588D01*
X86035515Y-79885614D01*
X86263682Y-79931000D01*
X86496318Y-79931000D01*
X86724485Y-79885614D01*
X86939413Y-79796588D01*
X87132843Y-79667342D01*
X87297342Y-79502843D01*
X87426588Y-79309413D01*
X87515614Y-79094485D01*
X87561000Y-78866318D01*
X87561000Y-78633682D01*
X87515614Y-78405515D01*
X87426588Y-78190587D01*
X87297342Y-77997157D01*
X87132843Y-77832658D01*
X86939413Y-77703412D01*
X86724485Y-77614386D01*
X86496318Y-77569000D01*
X86263682Y-77569000D01*
X86035515Y-77614386D01*
X85820587Y-77703412D01*
X85627157Y-77832658D01*
X85462658Y-77997157D01*
X85333412Y-78190587D01*
X85244386Y-78405515D01*
X85199000Y-78633682D01*
X84439274Y-78633682D01*
X83481001Y-77675410D01*
X83481001Y-76093682D01*
X85199000Y-76093682D01*
X85199000Y-76326318D01*
X85244386Y-76554485D01*
X85333412Y-76769413D01*
X85462658Y-76962843D01*
X85627157Y-77127342D01*
X85820587Y-77256588D01*
X86035515Y-77345614D01*
X86263682Y-77391000D01*
X86496318Y-77391000D01*
X86724485Y-77345614D01*
X86777898Y-77323490D01*
X86839777Y-77385369D01*
X86839783Y-77385374D01*
X87129625Y-77675216D01*
X87145474Y-77694528D01*
X87222522Y-77757760D01*
X87274998Y-77785809D01*
X87310426Y-77804746D01*
X87405807Y-77833679D01*
X87415695Y-77834653D01*
X87480147Y-77841001D01*
X87480154Y-77841001D01*
X87505000Y-77843448D01*
X87529846Y-77841001D01*
X100858814Y-77841001D01*
X100702658Y-77997157D01*
X100573412Y-78190587D01*
X100484386Y-78405515D01*
X100439000Y-78633682D01*
X100439000Y-78866318D01*
X100484386Y-79094485D01*
X100573412Y-79309413D01*
X100702658Y-79502843D01*
X100867157Y-79667342D01*
X101060587Y-79796588D01*
X101275515Y-79885614D01*
X101503682Y-79931000D01*
X101736318Y-79931000D01*
X101964485Y-79885614D01*
X102179413Y-79796588D01*
X102372843Y-79667342D01*
X102537342Y-79502843D01*
X102666588Y-79309413D01*
X102755614Y-79094485D01*
X102788511Y-78929102D01*
X109244000Y-85384592D01*
X109244000Y-85417073D01*
X109270171Y-85548640D01*
X109321506Y-85672574D01*
X109396033Y-85784112D01*
X109490888Y-85878967D01*
X109602426Y-85953494D01*
X109726360Y-86004829D01*
X109857927Y-86031000D01*
X109992073Y-86031000D01*
X110123640Y-86004829D01*
X110247574Y-85953494D01*
X110359112Y-85878967D01*
X110453967Y-85784112D01*
X110483387Y-85740081D01*
X113876501Y-89133195D01*
X113876500Y-92667921D01*
X113853533Y-92690888D01*
X113779006Y-92802426D01*
X113727671Y-92926360D01*
X113701500Y-93057927D01*
X113701500Y-93192073D01*
X113711829Y-93244001D01*
X111809593Y-93244001D01*
X111781000Y-93215408D01*
X111781000Y-93182927D01*
X111754829Y-93051360D01*
X111703494Y-92927426D01*
X111628967Y-92815888D01*
X111534112Y-92721033D01*
X111422574Y-92646506D01*
X111298640Y-92595171D01*
X111167073Y-92569000D01*
X111032927Y-92569000D01*
X110901360Y-92595171D01*
X110777426Y-92646506D01*
X110665888Y-92721033D01*
X110571033Y-92815888D01*
X110496506Y-92927426D01*
X110445171Y-93051360D01*
X110419000Y-93182927D01*
X110419000Y-93317073D01*
X110445171Y-93448640D01*
X110496506Y-93572574D01*
X110571033Y-93684112D01*
X110665888Y-93778967D01*
X110777426Y-93853494D01*
X110901360Y-93904829D01*
X111032927Y-93931000D01*
X111065408Y-93931000D01*
X111224629Y-94090221D01*
X111240474Y-94109528D01*
X111317522Y-94172760D01*
X111391610Y-94212361D01*
X111405426Y-94219746D01*
X111500807Y-94248679D01*
X111510695Y-94249653D01*
X111575147Y-94256001D01*
X111575154Y-94256001D01*
X111600000Y-94258448D01*
X111624846Y-94256001D01*
X114657655Y-94256001D01*
X114682501Y-94258448D01*
X114707347Y-94256001D01*
X114707355Y-94256001D01*
X114781694Y-94248679D01*
X114877076Y-94219746D01*
X114964980Y-94172760D01*
X115042028Y-94109528D01*
X115057877Y-94090216D01*
X123690221Y-85457873D01*
X123709528Y-85442028D01*
X123760120Y-85380382D01*
X123763229Y-85381000D01*
X123806727Y-85381000D01*
X123850000Y-85385262D01*
X123893273Y-85381000D01*
X123936771Y-85381000D01*
X123979434Y-85372514D01*
X124022705Y-85368252D01*
X124064310Y-85355631D01*
X124106978Y-85347144D01*
X124147173Y-85330495D01*
X124188774Y-85317875D01*
X124227114Y-85297382D01*
X124267310Y-85280732D01*
X124303487Y-85256560D01*
X124341824Y-85236068D01*
X124375427Y-85208491D01*
X124411605Y-85184318D01*
X124442368Y-85153555D01*
X124475975Y-85125975D01*
X124503557Y-85092366D01*
X124534318Y-85061605D01*
X124558488Y-85025431D01*
X124586068Y-84991825D01*
X124606562Y-84953483D01*
X124630732Y-84917310D01*
X124647380Y-84877119D01*
X124667875Y-84838775D01*
X124680496Y-84797170D01*
X124697144Y-84756978D01*
X124705631Y-84714313D01*
X124718252Y-84672706D01*
X124722514Y-84629434D01*
X124731000Y-84586771D01*
X124731000Y-81443269D01*
X124735262Y-81399999D01*
X124729862Y-81345171D01*
X124718252Y-81227294D01*
X124667875Y-81061225D01*
X124586068Y-80908175D01*
X124475975Y-80774025D01*
X124442355Y-80746434D01*
X124369073Y-80673152D01*
X124369069Y-80673146D01*
X124246356Y-80550433D01*
X124246350Y-80550429D01*
X123838316Y-80142395D01*
X123838311Y-80142389D01*
X122128565Y-78432644D01*
X122100974Y-78399024D01*
X121966824Y-78288931D01*
X121813774Y-78207124D01*
X121647705Y-78156747D01*
X121518272Y-78143999D01*
X121518269Y-78143999D01*
X121474999Y-78139737D01*
X121431729Y-78143999D01*
X119241075Y-78143999D01*
X117232668Y-76135592D01*
X117247927Y-76140221D01*
X117275806Y-76148678D01*
X117285694Y-76149652D01*
X117350146Y-76156000D01*
X117350153Y-76156000D01*
X117374999Y-76158447D01*
X117399845Y-76156000D01*
X119442921Y-76156000D01*
X119465888Y-76178967D01*
X119577426Y-76253494D01*
X119701360Y-76304829D01*
X119832927Y-76331000D01*
X119967073Y-76331000D01*
X120098640Y-76304829D01*
X120222574Y-76253494D01*
X120334112Y-76178967D01*
X120428967Y-76084112D01*
X120503494Y-75972574D01*
X120554829Y-75848640D01*
X120581000Y-75717073D01*
X120581000Y-75582927D01*
X120554829Y-75451360D01*
X120503494Y-75327426D01*
X120428967Y-75215888D01*
X120334112Y-75121033D01*
X120222574Y-75046506D01*
X120098640Y-74995171D01*
X119967073Y-74969000D01*
X119832927Y-74969000D01*
X119701360Y-74995171D01*
X119577426Y-75046506D01*
X119465888Y-75121033D01*
X119442921Y-75144000D01*
X118565699Y-75144000D01*
X118581001Y-75067075D01*
X118581001Y-74932929D01*
X118554830Y-74801362D01*
X118531001Y-74743834D01*
X118531001Y-74606728D01*
X118534053Y-74575738D01*
X118531001Y-74544748D01*
X118531001Y-74544740D01*
X118521871Y-74452040D01*
X118485790Y-74333096D01*
X118456009Y-74277380D01*
X118456009Y-73670671D01*
X118507937Y-73681000D01*
X118642083Y-73681000D01*
X118773650Y-73654829D01*
X118897584Y-73603494D01*
X119009122Y-73528967D01*
X119032089Y-73506000D01*
X119716089Y-73506000D01*
X127226454Y-81016366D01*
X127226454Y-81048847D01*
X127252625Y-81180414D01*
X127303960Y-81304348D01*
X127378487Y-81415886D01*
X127473342Y-81510741D01*
X127584880Y-81585268D01*
X127708814Y-81636603D01*
X127840381Y-81662774D01*
X127974527Y-81662774D01*
X128106094Y-81636603D01*
X128230028Y-81585268D01*
X128341566Y-81510741D01*
X128436421Y-81415886D01*
X128510948Y-81304348D01*
X128562283Y-81180414D01*
X128588454Y-81048847D01*
X128588454Y-80914701D01*
X128562283Y-80783134D01*
X128510948Y-80659200D01*
X128436421Y-80547662D01*
X128341566Y-80452807D01*
X128230028Y-80378280D01*
X128106094Y-80326945D01*
X127974527Y-80300774D01*
X127942046Y-80300774D01*
X127922739Y-80281467D01*
X128915874Y-80281467D01*
X130193998Y-81559592D01*
X130193998Y-81592073D01*
X130220169Y-81723640D01*
X130271504Y-81847574D01*
X130346031Y-81959112D01*
X130436920Y-82050001D01*
X130396033Y-82090888D01*
X130321506Y-82202426D01*
X130270171Y-82326360D01*
X130244000Y-82457927D01*
X130244000Y-82592073D01*
X130270171Y-82723640D01*
X130321506Y-82847574D01*
X130396033Y-82959112D01*
X130490888Y-83053967D01*
X130602426Y-83128494D01*
X130726360Y-83179829D01*
X130857927Y-83206000D01*
X130992073Y-83206000D01*
X131123640Y-83179829D01*
X131247574Y-83128494D01*
X131359112Y-83053967D01*
X131453967Y-82959112D01*
X131528494Y-82847574D01*
X131579829Y-82723640D01*
X131606000Y-82592073D01*
X131606000Y-82559592D01*
X131865221Y-82300371D01*
X131884528Y-82284526D01*
X131947760Y-82207478D01*
X131994746Y-82119574D01*
X132023679Y-82024192D01*
X132031001Y-81949853D01*
X132033449Y-81924999D01*
X132031001Y-81900145D01*
X132031001Y-79224853D01*
X132033449Y-79199999D01*
X132023679Y-79100806D01*
X131994746Y-79005424D01*
X131961123Y-78942521D01*
X131947760Y-78917520D01*
X131884528Y-78840472D01*
X131865221Y-78824627D01*
X127993498Y-74952905D01*
X127993498Y-74569581D01*
X128016465Y-74546614D01*
X128090992Y-74435076D01*
X128142327Y-74311142D01*
X128168498Y-74179575D01*
X128168498Y-74045429D01*
X128142327Y-73913862D01*
X128090992Y-73789928D01*
X128016465Y-73678390D01*
X127921610Y-73583535D01*
X127810072Y-73509008D01*
X127686138Y-73457673D01*
X127554571Y-73431502D01*
X127522090Y-73431502D01*
X122700372Y-68609785D01*
X122684523Y-68590473D01*
X122607475Y-68527241D01*
X122519571Y-68480255D01*
X122424189Y-68451322D01*
X122349850Y-68444000D01*
X122349842Y-68444000D01*
X122324996Y-68441553D01*
X122300150Y-68444000D01*
X102795096Y-68444000D01*
X102755614Y-68245515D01*
X102666588Y-68030587D01*
X102537342Y-67837157D01*
X102372843Y-67672658D01*
X102179413Y-67543412D01*
X101964485Y-67454386D01*
X101736318Y-67409000D01*
X101503682Y-67409000D01*
X101275515Y-67454386D01*
X101060587Y-67543412D01*
X100867157Y-67672658D01*
X100702658Y-67837157D01*
X100573412Y-68030587D01*
X100484386Y-68245515D01*
X100439000Y-68473682D01*
X100439000Y-68706318D01*
X100484386Y-68934485D01*
X100573412Y-69149413D01*
X100702658Y-69342843D01*
X100867157Y-69507342D01*
X101060587Y-69636588D01*
X101275515Y-69725614D01*
X101503682Y-69771000D01*
X101736318Y-69771000D01*
X101964485Y-69725614D01*
X102179413Y-69636588D01*
X102372843Y-69507342D01*
X102424185Y-69456000D01*
X122115405Y-69456000D01*
X126806498Y-74147094D01*
X126806498Y-74179575D01*
X126832669Y-74311142D01*
X126884004Y-74435076D01*
X126958531Y-74546614D01*
X126981498Y-74569581D01*
X126981499Y-75137640D01*
X126979051Y-75162496D01*
X126988820Y-75261688D01*
X126998621Y-75294000D01*
X125182079Y-75294000D01*
X125159112Y-75271033D01*
X125047574Y-75196506D01*
X124923640Y-75145171D01*
X124792073Y-75119000D01*
X124657927Y-75119000D01*
X124526360Y-75145171D01*
X124402426Y-75196506D01*
X124290888Y-75271033D01*
X124196033Y-75365888D01*
X124121506Y-75477426D01*
X124116822Y-75488733D01*
X123816000Y-75187911D01*
X123816000Y-73472079D01*
X123838967Y-73449112D01*
X123913494Y-73337574D01*
X123964829Y-73213640D01*
X123991000Y-73082073D01*
X123991000Y-72947927D01*
X123964829Y-72816360D01*
X123913494Y-72692426D01*
X123838967Y-72580888D01*
X123744112Y-72486033D01*
X123632574Y-72411506D01*
X123508640Y-72360171D01*
X123377073Y-72334000D01*
X123242927Y-72334000D01*
X123111360Y-72360171D01*
X122987426Y-72411506D01*
X122875888Y-72486033D01*
X122781033Y-72580888D01*
X122706506Y-72692426D01*
X122655171Y-72816360D01*
X122629000Y-72947927D01*
X122629000Y-73082073D01*
X122655171Y-73213640D01*
X122706506Y-73337574D01*
X122781033Y-73449112D01*
X122804000Y-73472079D01*
X122804001Y-75162730D01*
X120301056Y-72659785D01*
X120285207Y-72640473D01*
X120208159Y-72577241D01*
X120120255Y-72530255D01*
X120024873Y-72501322D01*
X119950534Y-72494000D01*
X119950526Y-72494000D01*
X119925680Y-72491553D01*
X119900834Y-72494000D01*
X119032089Y-72494000D01*
X119009122Y-72471033D01*
X118897584Y-72396506D01*
X118773650Y-72345171D01*
X118642083Y-72319000D01*
X118507937Y-72319000D01*
X118456009Y-72329329D01*
X118456009Y-72148859D01*
X118771293Y-71833576D01*
X118828821Y-71809747D01*
X118940359Y-71735220D01*
X119035214Y-71640365D01*
X119109741Y-71528827D01*
X119161076Y-71404893D01*
X119187247Y-71273326D01*
X119187247Y-71139180D01*
X119161076Y-71007613D01*
X119109741Y-70883679D01*
X119035214Y-70772141D01*
X118940359Y-70677286D01*
X118828821Y-70602759D01*
X118704887Y-70551424D01*
X118573320Y-70525253D01*
X118439174Y-70525253D01*
X118307607Y-70551424D01*
X118183673Y-70602759D01*
X118072135Y-70677286D01*
X117977280Y-70772141D01*
X117902753Y-70883679D01*
X117878924Y-70941207D01*
X117400746Y-71419386D01*
X117376666Y-71439148D01*
X117297813Y-71535231D01*
X117239220Y-71644850D01*
X117203139Y-71763794D01*
X117194009Y-71856494D01*
X117194009Y-71856501D01*
X117190957Y-71887491D01*
X117194009Y-71918481D01*
X117194010Y-74469746D01*
X117190957Y-74500746D01*
X117203139Y-74624443D01*
X117239220Y-74743387D01*
X117256103Y-74774972D01*
X117245172Y-74801362D01*
X117244638Y-74804046D01*
X114473800Y-72033209D01*
X114473800Y-71649879D01*
X114496767Y-71626912D01*
X114571294Y-71515374D01*
X114622629Y-71391440D01*
X114648800Y-71259873D01*
X114648800Y-71125727D01*
X114622629Y-70994160D01*
X114571294Y-70870226D01*
X114496767Y-70758688D01*
X114401912Y-70663833D01*
X114290374Y-70589306D01*
X114166440Y-70537971D01*
X114034873Y-70511800D01*
X113900727Y-70511800D01*
X113769160Y-70537971D01*
X113645226Y-70589306D01*
X113533688Y-70663833D01*
X113438833Y-70758688D01*
X113364306Y-70870226D01*
X113312971Y-70994160D01*
X113286800Y-71125727D01*
X113286800Y-71259873D01*
X113312971Y-71391440D01*
X113364306Y-71515374D01*
X113438833Y-71626912D01*
X113461800Y-71649879D01*
X113461801Y-72217944D01*
X113459353Y-72242800D01*
X113469122Y-72341992D01*
X113482208Y-72385133D01*
X112806000Y-71708925D01*
X112806000Y-71410013D01*
X112810262Y-71366740D01*
X112806000Y-71323467D01*
X112806000Y-71279969D01*
X112797514Y-71237306D01*
X112793252Y-71194034D01*
X112780631Y-71152427D01*
X112772144Y-71109762D01*
X112755496Y-71069570D01*
X112742875Y-71027965D01*
X112722380Y-70989621D01*
X112705732Y-70949430D01*
X112681562Y-70913257D01*
X112661068Y-70874915D01*
X112633488Y-70841309D01*
X112609318Y-70805135D01*
X112578557Y-70774374D01*
X112550975Y-70740765D01*
X112517366Y-70713183D01*
X112486605Y-70682422D01*
X112450431Y-70658252D01*
X112416825Y-70630672D01*
X112378483Y-70610178D01*
X112342310Y-70586008D01*
X112302119Y-70569360D01*
X112263775Y-70548865D01*
X112222170Y-70536244D01*
X112181978Y-70519596D01*
X112139313Y-70511109D01*
X112097706Y-70498488D01*
X112054434Y-70494226D01*
X112011771Y-70485740D01*
X111968273Y-70485740D01*
X111925000Y-70481478D01*
X111881727Y-70485740D01*
X111838229Y-70485740D01*
X111795566Y-70494226D01*
X111752294Y-70498488D01*
X111710687Y-70511109D01*
X111668022Y-70519596D01*
X111627830Y-70536244D01*
X111586225Y-70548865D01*
X111547881Y-70569360D01*
X111507690Y-70586008D01*
X111471517Y-70610178D01*
X111433175Y-70630672D01*
X111399569Y-70658252D01*
X111363395Y-70682422D01*
X111332634Y-70713183D01*
X111299025Y-70740765D01*
X111271443Y-70774374D01*
X111240682Y-70805135D01*
X111216512Y-70841309D01*
X111188932Y-70874915D01*
X111168438Y-70913257D01*
X111144268Y-70949430D01*
X111127620Y-70989621D01*
X111107125Y-71027965D01*
X111094504Y-71069570D01*
X111077856Y-71109762D01*
X111069369Y-71152427D01*
X111056748Y-71194034D01*
X111052486Y-71237306D01*
X111044000Y-71279969D01*
X111044000Y-71323467D01*
X111039738Y-71366740D01*
X111044000Y-71410013D01*
X111044000Y-72030576D01*
X111039738Y-72073846D01*
X111044000Y-72117116D01*
X111044000Y-72117119D01*
X111056748Y-72246552D01*
X111076299Y-72311000D01*
X111107125Y-72412620D01*
X111188932Y-72565671D01*
X111221419Y-72605256D01*
X111299026Y-72699821D01*
X111332640Y-72727407D01*
X118222592Y-79617360D01*
X118250178Y-79650974D01*
X118303305Y-79694574D01*
X118384327Y-79761067D01*
X118499399Y-79822574D01*
X118537378Y-79842874D01*
X118703447Y-79893251D01*
X118832880Y-79905999D01*
X118832883Y-79905999D01*
X118876153Y-79910261D01*
X118919423Y-79905999D01*
X121110078Y-79905999D01*
X122592389Y-81388311D01*
X122592395Y-81388316D01*
X122969001Y-81764922D01*
X122969000Y-84413229D01*
X122969000Y-84586771D01*
X122977486Y-84629435D01*
X122979849Y-84653419D01*
X122927242Y-84717520D01*
X122880256Y-84805425D01*
X122866658Y-84850252D01*
X114957352Y-92759559D01*
X114911467Y-92690888D01*
X114888500Y-92667921D01*
X114888500Y-88948456D01*
X114890948Y-88923602D01*
X114881178Y-88824409D01*
X114852245Y-88729027D01*
X114850976Y-88726652D01*
X114805259Y-88641123D01*
X114742027Y-88564075D01*
X114722720Y-88548230D01*
X110719891Y-84545401D01*
X110788562Y-84499517D01*
X110883417Y-84404662D01*
X110957944Y-84293124D01*
X111009279Y-84169190D01*
X111035450Y-84037623D01*
X111035450Y-83903477D01*
X111009279Y-83771910D01*
X110957944Y-83647976D01*
X110883417Y-83536438D01*
X110788562Y-83441583D01*
X110751000Y-83416485D01*
X110751000Y-76012079D01*
X110773967Y-75989112D01*
X110848494Y-75877574D01*
X110899829Y-75753640D01*
X110926000Y-75622073D01*
X110926000Y-75487927D01*
X110899829Y-75356360D01*
X110848494Y-75232426D01*
X110773967Y-75120888D01*
X110679112Y-75026033D01*
X110567574Y-74951506D01*
X110443640Y-74900171D01*
X110312073Y-74874000D01*
X110177927Y-74874000D01*
X110046360Y-74900171D01*
X109922426Y-74951506D01*
X109810888Y-75026033D01*
X109716033Y-75120888D01*
X109641506Y-75232426D01*
X109590171Y-75356360D01*
X109564000Y-75487927D01*
X109564000Y-75622073D01*
X109590171Y-75753640D01*
X109641506Y-75877574D01*
X109716033Y-75989112D01*
X109739000Y-76012079D01*
X109739001Y-83564512D01*
X106250918Y-80076429D01*
X106253494Y-80072574D01*
X106304829Y-79948640D01*
X106331000Y-79817073D01*
X106331000Y-79682927D01*
X106304829Y-79551360D01*
X106253494Y-79427426D01*
X106178967Y-79315888D01*
X106084112Y-79221033D01*
X105972574Y-79146506D01*
X105848640Y-79095171D01*
X105717073Y-79069000D01*
X105582927Y-79069000D01*
X105451360Y-79095171D01*
X105327426Y-79146506D01*
X105215888Y-79221033D01*
X105121033Y-79315888D01*
X105046506Y-79427426D01*
X104995171Y-79551360D01*
X104969750Y-79679158D01*
X102395388Y-77104797D01*
X102537342Y-76962843D01*
X102666588Y-76769413D01*
X102755614Y-76554485D01*
X102801000Y-76326318D01*
X102801000Y-76093682D01*
X102755614Y-75865515D01*
X102666588Y-75650587D01*
X102537342Y-75457157D01*
X102372843Y-75292658D01*
X102179413Y-75163412D01*
X101964485Y-75074386D01*
X101736318Y-75029000D01*
X101503682Y-75029000D01*
X101275515Y-75074386D01*
X101060587Y-75163412D01*
X100867157Y-75292658D01*
X100702658Y-75457157D01*
X100573412Y-75650587D01*
X100484386Y-75865515D01*
X100439000Y-76093682D01*
X100439000Y-76326318D01*
X100484386Y-76554485D01*
X100573412Y-76769413D01*
X100613227Y-76829001D01*
X87714592Y-76829001D01*
X87555374Y-76669783D01*
X87555369Y-76669777D01*
X87493490Y-76607898D01*
X87515614Y-76554485D01*
X87561000Y-76326318D01*
X87561000Y-76093682D01*
X87515614Y-75865515D01*
X87426588Y-75650587D01*
X87297342Y-75457157D01*
X87132843Y-75292658D01*
X86939413Y-75163412D01*
X86724485Y-75074386D01*
X86496318Y-75029000D01*
X86263682Y-75029000D01*
X86035515Y-75074386D01*
X85820587Y-75163412D01*
X85627157Y-75292658D01*
X85462658Y-75457157D01*
X85333412Y-75650587D01*
X85244386Y-75865515D01*
X85199000Y-76093682D01*
X83481001Y-76093682D01*
X83481001Y-74574855D01*
X83483449Y-74550001D01*
X83473679Y-74450808D01*
X83444746Y-74355426D01*
X83429474Y-74326854D01*
X83397760Y-74267522D01*
X83334528Y-74190474D01*
X83315221Y-74174629D01*
X82694274Y-73553682D01*
X85199000Y-73553682D01*
X85199000Y-73786318D01*
X85244386Y-74014485D01*
X85333412Y-74229413D01*
X85462658Y-74422843D01*
X85627157Y-74587342D01*
X85820587Y-74716588D01*
X86035515Y-74805614D01*
X86263682Y-74851000D01*
X86496318Y-74851000D01*
X86724485Y-74805614D01*
X86939413Y-74716588D01*
X87132843Y-74587342D01*
X87297342Y-74422843D01*
X87426588Y-74229413D01*
X87515614Y-74014485D01*
X87561000Y-73786318D01*
X87561000Y-73553682D01*
X100439000Y-73553682D01*
X100439000Y-73786318D01*
X100484386Y-74014485D01*
X100573412Y-74229413D01*
X100702658Y-74422843D01*
X100867157Y-74587342D01*
X101060587Y-74716588D01*
X101275515Y-74805614D01*
X101503682Y-74851000D01*
X101736318Y-74851000D01*
X101964485Y-74805614D01*
X102179413Y-74716588D01*
X102372843Y-74587342D01*
X102537342Y-74422843D01*
X102666588Y-74229413D01*
X102755614Y-74014485D01*
X102801000Y-73786318D01*
X102801000Y-73553682D01*
X102755614Y-73325515D01*
X102666588Y-73110587D01*
X102537342Y-72917157D01*
X102372843Y-72752658D01*
X102179413Y-72623412D01*
X101964485Y-72534386D01*
X101736318Y-72489000D01*
X101503682Y-72489000D01*
X101275515Y-72534386D01*
X101060587Y-72623412D01*
X100867157Y-72752658D01*
X100702658Y-72917157D01*
X100573412Y-73110587D01*
X100484386Y-73325515D01*
X100439000Y-73553682D01*
X87561000Y-73553682D01*
X87515614Y-73325515D01*
X87426588Y-73110587D01*
X87297342Y-72917157D01*
X87132843Y-72752658D01*
X86939413Y-72623412D01*
X86724485Y-72534386D01*
X86496318Y-72489000D01*
X86263682Y-72489000D01*
X86035515Y-72534386D01*
X85820587Y-72623412D01*
X85627157Y-72752658D01*
X85462658Y-72917157D01*
X85333412Y-73110587D01*
X85244386Y-73325515D01*
X85199000Y-73553682D01*
X82694274Y-73553682D01*
X80154274Y-71013682D01*
X85199000Y-71013682D01*
X85199000Y-71246318D01*
X85244386Y-71474485D01*
X85333412Y-71689413D01*
X85462658Y-71882843D01*
X85627157Y-72047342D01*
X85820587Y-72176588D01*
X86035515Y-72265614D01*
X86263682Y-72311000D01*
X86496318Y-72311000D01*
X86724485Y-72265614D01*
X86939413Y-72176588D01*
X87132843Y-72047342D01*
X87297342Y-71882843D01*
X87426588Y-71689413D01*
X87515614Y-71474485D01*
X87561000Y-71246318D01*
X87561000Y-71013682D01*
X100439000Y-71013682D01*
X100439000Y-71246318D01*
X100484386Y-71474485D01*
X100573412Y-71689413D01*
X100702658Y-71882843D01*
X100867157Y-72047342D01*
X101060587Y-72176588D01*
X101275515Y-72265614D01*
X101503682Y-72311000D01*
X101736318Y-72311000D01*
X101964485Y-72265614D01*
X102179413Y-72176588D01*
X102372843Y-72047342D01*
X102537342Y-71882843D01*
X102666588Y-71689413D01*
X102755614Y-71474485D01*
X102801000Y-71246318D01*
X102801000Y-71013682D01*
X102755614Y-70785515D01*
X102666588Y-70570587D01*
X102537342Y-70377157D01*
X102372843Y-70212658D01*
X102179413Y-70083412D01*
X101964485Y-69994386D01*
X101736318Y-69949000D01*
X101503682Y-69949000D01*
X101275515Y-69994386D01*
X101060587Y-70083412D01*
X100867157Y-70212658D01*
X100702658Y-70377157D01*
X100573412Y-70570587D01*
X100484386Y-70785515D01*
X100439000Y-71013682D01*
X87561000Y-71013682D01*
X87515614Y-70785515D01*
X87426588Y-70570587D01*
X87297342Y-70377157D01*
X87132843Y-70212658D01*
X86939413Y-70083412D01*
X86724485Y-69994386D01*
X86710763Y-69991657D01*
X86730130Y-69988787D01*
X86996292Y-69893603D01*
X87121514Y-69826671D01*
X87193097Y-69582702D01*
X86380000Y-68769605D01*
X85566903Y-69582702D01*
X85638486Y-69826671D01*
X85893996Y-69947571D01*
X86060741Y-69989368D01*
X86035515Y-69994386D01*
X85820587Y-70083412D01*
X85627157Y-70212658D01*
X85462658Y-70377157D01*
X85333412Y-70570587D01*
X85244386Y-70785515D01*
X85199000Y-71013682D01*
X80154274Y-71013682D01*
X78756000Y-69615409D01*
X78756000Y-69582927D01*
X78729829Y-69451360D01*
X78678494Y-69327426D01*
X78603967Y-69215888D01*
X78509112Y-69121033D01*
X78397574Y-69046506D01*
X78273640Y-68995171D01*
X78142073Y-68969000D01*
X78007927Y-68969000D01*
X77876360Y-68995171D01*
X77752426Y-69046506D01*
X77640888Y-69121033D01*
X77546033Y-69215888D01*
X77516612Y-69259919D01*
X76917205Y-68660512D01*
X84939783Y-68660512D01*
X84981213Y-68940130D01*
X85076397Y-69206292D01*
X85143329Y-69331514D01*
X85387298Y-69403097D01*
X86200395Y-68590000D01*
X86559605Y-68590000D01*
X87372702Y-69403097D01*
X87616671Y-69331514D01*
X87737571Y-69076004D01*
X87806300Y-68801816D01*
X87820217Y-68519488D01*
X87778787Y-68239870D01*
X87683603Y-67973708D01*
X87616671Y-67848486D01*
X87372702Y-67776903D01*
X86559605Y-68590000D01*
X86200395Y-68590000D01*
X85387298Y-67776903D01*
X85143329Y-67848486D01*
X85022429Y-68103996D01*
X84953700Y-68378184D01*
X84939783Y-68660512D01*
X76917205Y-68660512D01*
X74190375Y-65933682D01*
X85199000Y-65933682D01*
X85199000Y-66166318D01*
X85244386Y-66394485D01*
X85333412Y-66609413D01*
X85462658Y-66802843D01*
X85627157Y-66967342D01*
X85820587Y-67096588D01*
X86035515Y-67185614D01*
X86049237Y-67188343D01*
X86029870Y-67191213D01*
X85763708Y-67286397D01*
X85638486Y-67353329D01*
X85566903Y-67597298D01*
X86380000Y-68410395D01*
X87193097Y-67597298D01*
X87121514Y-67353329D01*
X86866004Y-67232429D01*
X86699259Y-67190632D01*
X86724485Y-67185614D01*
X86939413Y-67096588D01*
X87132843Y-66967342D01*
X87297342Y-66802843D01*
X87426588Y-66609413D01*
X87515614Y-66394485D01*
X87561000Y-66166318D01*
X87561000Y-65933682D01*
X100439000Y-65933682D01*
X100439000Y-66166318D01*
X100484386Y-66394485D01*
X100573412Y-66609413D01*
X100702658Y-66802843D01*
X100867157Y-66967342D01*
X101060587Y-67096588D01*
X101275515Y-67185614D01*
X101503682Y-67231000D01*
X101736318Y-67231000D01*
X101964485Y-67185614D01*
X102179413Y-67096588D01*
X102372843Y-66967342D01*
X102537342Y-66802843D01*
X102666588Y-66609413D01*
X102755614Y-66394485D01*
X102801000Y-66166318D01*
X102801000Y-65933682D01*
X102755614Y-65705515D01*
X102666588Y-65490587D01*
X102537342Y-65297157D01*
X102372843Y-65132658D01*
X102179413Y-65003412D01*
X101964485Y-64914386D01*
X101950763Y-64911657D01*
X101970130Y-64908787D01*
X102236292Y-64813603D01*
X102361514Y-64746671D01*
X102433097Y-64502702D01*
X101620000Y-63689605D01*
X100806903Y-64502702D01*
X100878486Y-64746671D01*
X101133996Y-64867571D01*
X101300741Y-64909368D01*
X101275515Y-64914386D01*
X101060587Y-65003412D01*
X100867157Y-65132658D01*
X100702658Y-65297157D01*
X100573412Y-65490587D01*
X100484386Y-65705515D01*
X100439000Y-65933682D01*
X87561000Y-65933682D01*
X87515614Y-65705515D01*
X87426588Y-65490587D01*
X87297342Y-65297157D01*
X87132843Y-65132658D01*
X86939413Y-65003412D01*
X86724485Y-64914386D01*
X86496318Y-64869000D01*
X86263682Y-64869000D01*
X86035515Y-64914386D01*
X85820587Y-65003412D01*
X85627157Y-65132658D01*
X85462658Y-65297157D01*
X85333412Y-65490587D01*
X85244386Y-65705515D01*
X85199000Y-65933682D01*
X74190375Y-65933682D01*
X74123500Y-65866807D01*
X74123500Y-63393682D01*
X85199000Y-63393682D01*
X85199000Y-63626318D01*
X85244386Y-63854485D01*
X85333412Y-64069413D01*
X85462658Y-64262843D01*
X85627157Y-64427342D01*
X85820587Y-64556588D01*
X86035515Y-64645614D01*
X86263682Y-64691000D01*
X86496318Y-64691000D01*
X86724485Y-64645614D01*
X86939413Y-64556588D01*
X87132843Y-64427342D01*
X87297342Y-64262843D01*
X87426588Y-64069413D01*
X87515614Y-63854485D01*
X87561000Y-63626318D01*
X87561000Y-63580512D01*
X100179783Y-63580512D01*
X100221213Y-63860130D01*
X100316397Y-64126292D01*
X100383329Y-64251514D01*
X100627298Y-64323097D01*
X101440395Y-63510000D01*
X101799605Y-63510000D01*
X102612702Y-64323097D01*
X102856671Y-64251514D01*
X102977571Y-63996004D01*
X103046300Y-63721816D01*
X103060217Y-63439488D01*
X103018787Y-63159870D01*
X102923603Y-62893708D01*
X102856671Y-62768486D01*
X102612702Y-62696903D01*
X101799605Y-63510000D01*
X101440395Y-63510000D01*
X100627298Y-62696903D01*
X100383329Y-62768486D01*
X100262429Y-63023996D01*
X100193700Y-63298184D01*
X100179783Y-63580512D01*
X87561000Y-63580512D01*
X87561000Y-63393682D01*
X87515614Y-63165515D01*
X87426588Y-62950587D01*
X87297342Y-62757157D01*
X87132843Y-62592658D01*
X86939413Y-62463412D01*
X86724485Y-62374386D01*
X86496318Y-62329000D01*
X86263682Y-62329000D01*
X86035515Y-62374386D01*
X85820587Y-62463412D01*
X85627157Y-62592658D01*
X85462658Y-62757157D01*
X85333412Y-62950587D01*
X85244386Y-63165515D01*
X85199000Y-63393682D01*
X74123500Y-63393682D01*
X74123500Y-62332079D01*
X74146467Y-62309112D01*
X74220994Y-62197574D01*
X74272329Y-62073640D01*
X74298500Y-61942073D01*
X74298500Y-61807927D01*
X74288171Y-61755999D01*
X76190408Y-61755999D01*
X76219000Y-61784591D01*
X76219000Y-61817073D01*
X76245171Y-61948640D01*
X76296506Y-62072574D01*
X76371033Y-62184112D01*
X76465888Y-62278967D01*
X76577426Y-62353494D01*
X76701360Y-62404829D01*
X76832927Y-62431000D01*
X76967073Y-62431000D01*
X77098640Y-62404829D01*
X77222574Y-62353494D01*
X77334112Y-62278967D01*
X77428967Y-62184112D01*
X77503494Y-62072574D01*
X77554829Y-61948640D01*
X77581000Y-61817073D01*
X77581000Y-61682927D01*
X77554829Y-61551360D01*
X77503494Y-61427426D01*
X77428967Y-61315888D01*
X77334112Y-61221033D01*
X77222574Y-61146506D01*
X77098640Y-61095171D01*
X76967073Y-61069000D01*
X76934591Y-61069000D01*
X76775375Y-60909784D01*
X76759526Y-60890472D01*
X76682478Y-60827240D01*
X76594574Y-60780254D01*
X76499192Y-60751321D01*
X76424853Y-60743999D01*
X76424845Y-60743999D01*
X76399999Y-60741552D01*
X76375153Y-60743999D01*
X73342344Y-60743999D01*
X73317498Y-60741552D01*
X73292652Y-60743999D01*
X73292645Y-60743999D01*
X73218306Y-60751321D01*
X73122924Y-60780254D01*
X73035020Y-60827240D01*
X72957972Y-60890472D01*
X72942127Y-60909779D01*
X64309783Y-69542124D01*
X64290472Y-69557972D01*
X64239880Y-69619618D01*
X64236771Y-69619000D01*
X64193273Y-69619000D01*
X64150000Y-69614738D01*
X64106727Y-69619000D01*
X64063229Y-69619000D01*
X64020566Y-69627486D01*
X63977294Y-69631748D01*
X63935687Y-69644369D01*
X63893022Y-69652856D01*
X63852830Y-69669504D01*
X63811225Y-69682125D01*
X63772881Y-69702620D01*
X63732690Y-69719268D01*
X63696517Y-69743438D01*
X63658175Y-69763932D01*
X63624569Y-69791512D01*
X63588395Y-69815682D01*
X63557634Y-69846443D01*
X63524025Y-69874025D01*
X63496445Y-69907632D01*
X63465682Y-69938395D01*
X63441509Y-69974573D01*
X63413932Y-70008176D01*
X63393440Y-70046513D01*
X63369268Y-70082690D01*
X63352618Y-70122886D01*
X63332125Y-70161226D01*
X63319505Y-70202827D01*
X63302856Y-70243022D01*
X63294369Y-70285690D01*
X63281748Y-70327295D01*
X63277486Y-70370565D01*
X63269000Y-70413229D01*
X63269000Y-70456728D01*
X63269001Y-73556720D01*
X63264738Y-73600000D01*
X60632128Y-73600000D01*
X60621513Y-73584114D01*
X60526658Y-73489259D01*
X60415120Y-73414732D01*
X60291186Y-73363397D01*
X60159619Y-73337226D01*
X60025473Y-73337226D01*
X59893906Y-73363397D01*
X59769972Y-73414732D01*
X59658434Y-73489259D01*
X59563579Y-73584114D01*
X59489052Y-73695652D01*
X59437717Y-73819586D01*
X59411546Y-73951153D01*
X59411546Y-74085299D01*
X59437717Y-74216866D01*
X59489052Y-74340800D01*
X59563579Y-74452338D01*
X59658434Y-74547193D01*
X59769972Y-74621720D01*
X59893906Y-74673055D01*
X60025473Y-74699226D01*
X60057955Y-74699226D01*
X60077262Y-74718533D01*
X59084127Y-74718533D01*
X57806002Y-73440409D01*
X57806002Y-73407927D01*
X57779831Y-73276360D01*
X57728496Y-73152426D01*
X57653969Y-73040888D01*
X57563080Y-72949999D01*
X57603967Y-72909112D01*
X57678494Y-72797574D01*
X57729829Y-72673640D01*
X57756000Y-72542073D01*
X57756000Y-72407927D01*
X57729829Y-72276360D01*
X57678494Y-72152426D01*
X57603967Y-72040888D01*
X57509112Y-71946033D01*
X57397574Y-71871506D01*
X57273640Y-71820171D01*
X57142073Y-71794000D01*
X57007927Y-71794000D01*
X56876360Y-71820171D01*
X56752426Y-71871506D01*
X56640888Y-71946033D01*
X56546033Y-72040888D01*
X56471506Y-72152426D01*
X56420171Y-72276360D01*
X56394000Y-72407927D01*
X56394000Y-72440409D01*
X56134779Y-72699630D01*
X56115473Y-72715474D01*
X56052241Y-72792522D01*
X56037326Y-72820426D01*
X56005254Y-72880427D01*
X55976321Y-72975809D01*
X55966552Y-73075001D01*
X52406000Y-73075001D01*
X52406000Y-68519932D01*
X52407963Y-68499999D01*
X52406000Y-68480066D01*
X52406000Y-68480059D01*
X52400125Y-68420410D01*
X52376910Y-68343879D01*
X52339210Y-68273347D01*
X52288474Y-68211526D01*
X52272988Y-68198817D01*
X50406000Y-66331831D01*
X50406000Y-60170000D01*
X85197157Y-60170000D01*
X85197157Y-61770000D01*
X85204513Y-61844689D01*
X85226299Y-61916508D01*
X85261678Y-61982696D01*
X85309289Y-62040711D01*
X85367304Y-62088322D01*
X85433492Y-62123701D01*
X85505311Y-62145487D01*
X85580000Y-62152843D01*
X87180000Y-62152843D01*
X87254689Y-62145487D01*
X87326508Y-62123701D01*
X87392696Y-62088322D01*
X87450711Y-62040711D01*
X87498322Y-61982696D01*
X87533701Y-61916508D01*
X87555487Y-61844689D01*
X87562843Y-61770000D01*
X87562843Y-60170000D01*
X100437157Y-60170000D01*
X100437157Y-61770000D01*
X100444513Y-61844689D01*
X100466299Y-61916508D01*
X100501678Y-61982696D01*
X100549289Y-62040711D01*
X100607304Y-62088322D01*
X100673492Y-62123701D01*
X100745311Y-62145487D01*
X100820000Y-62152843D01*
X101153460Y-62152843D01*
X101003708Y-62206397D01*
X100878486Y-62273329D01*
X100806903Y-62517298D01*
X101620000Y-63330395D01*
X102433097Y-62517298D01*
X102361514Y-62273329D01*
X102106879Y-62152843D01*
X102420000Y-62152843D01*
X102494689Y-62145487D01*
X102566508Y-62123701D01*
X102632696Y-62088322D01*
X102690711Y-62040711D01*
X102738322Y-61982696D01*
X102773701Y-61916508D01*
X102795487Y-61844689D01*
X102802843Y-61770000D01*
X102802843Y-60170000D01*
X102795487Y-60095311D01*
X102773701Y-60023492D01*
X102738322Y-59957304D01*
X102690711Y-59899289D01*
X102632696Y-59851678D01*
X102566508Y-59816299D01*
X102494689Y-59794513D01*
X102420000Y-59787157D01*
X100820000Y-59787157D01*
X100745311Y-59794513D01*
X100673492Y-59816299D01*
X100607304Y-59851678D01*
X100549289Y-59899289D01*
X100501678Y-59957304D01*
X100466299Y-60023492D01*
X100444513Y-60095311D01*
X100437157Y-60170000D01*
X87562843Y-60170000D01*
X87555487Y-60095311D01*
X87533701Y-60023492D01*
X87498322Y-59957304D01*
X87450711Y-59899289D01*
X87392696Y-59851678D01*
X87326508Y-59816299D01*
X87254689Y-59794513D01*
X87180000Y-59787157D01*
X85580000Y-59787157D01*
X85505311Y-59794513D01*
X85433492Y-59816299D01*
X85367304Y-59851678D01*
X85309289Y-59899289D01*
X85261678Y-59957304D01*
X85226299Y-60023492D01*
X85204513Y-60095311D01*
X85197157Y-60170000D01*
X50406000Y-60170000D01*
X50406000Y-59695196D01*
X115574000Y-59695196D01*
X115574000Y-61354803D01*
X115594561Y-61563564D01*
X115675816Y-61831423D01*
X115807765Y-62078284D01*
X115985340Y-62294659D01*
X116201715Y-62472235D01*
X116448576Y-62604184D01*
X116716435Y-62685439D01*
X116995000Y-62712875D01*
X117273564Y-62685439D01*
X117541423Y-62604184D01*
X117788284Y-62472235D01*
X117967689Y-62325000D01*
X120396928Y-62325000D01*
X120409188Y-62449482D01*
X120445498Y-62569180D01*
X120504463Y-62679494D01*
X120583815Y-62776185D01*
X120680506Y-62855537D01*
X120790820Y-62914502D01*
X120910518Y-62950812D01*
X121035000Y-62963072D01*
X121789250Y-62960000D01*
X121948000Y-62801250D01*
X121948000Y-60652000D01*
X122202000Y-60652000D01*
X122202000Y-62801250D01*
X122360750Y-62960000D01*
X123115000Y-62963072D01*
X123239482Y-62950812D01*
X123359180Y-62914502D01*
X123469494Y-62855537D01*
X123566185Y-62776185D01*
X123645537Y-62679494D01*
X123704502Y-62569180D01*
X123740812Y-62449482D01*
X123753072Y-62325000D01*
X123750000Y-60810750D01*
X123591250Y-60652000D01*
X122202000Y-60652000D01*
X121948000Y-60652000D01*
X120558750Y-60652000D01*
X120400000Y-60810750D01*
X120396928Y-62325000D01*
X117967689Y-62325000D01*
X118004659Y-62294660D01*
X118182235Y-62078285D01*
X118314184Y-61831424D01*
X118395439Y-61563565D01*
X118416000Y-61354804D01*
X118416000Y-59695196D01*
X118395439Y-59486435D01*
X118314184Y-59218576D01*
X118182235Y-58971715D01*
X118004660Y-58755340D01*
X117967691Y-58725000D01*
X120396928Y-58725000D01*
X120400000Y-60239250D01*
X120558750Y-60398000D01*
X121948000Y-60398000D01*
X121948000Y-58248750D01*
X122202000Y-58248750D01*
X122202000Y-60398000D01*
X123591250Y-60398000D01*
X123750000Y-60239250D01*
X123753072Y-58725000D01*
X123740812Y-58600518D01*
X123704502Y-58480820D01*
X123645537Y-58370506D01*
X123566185Y-58273815D01*
X123469494Y-58194463D01*
X123359180Y-58135498D01*
X123239482Y-58099188D01*
X123115000Y-58086928D01*
X122360750Y-58090000D01*
X122202000Y-58248750D01*
X121948000Y-58248750D01*
X121789250Y-58090000D01*
X121035000Y-58086928D01*
X120910518Y-58099188D01*
X120790820Y-58135498D01*
X120680506Y-58194463D01*
X120583815Y-58273815D01*
X120504463Y-58370506D01*
X120445498Y-58480820D01*
X120409188Y-58600518D01*
X120396928Y-58725000D01*
X117967691Y-58725000D01*
X117788285Y-58577765D01*
X117541424Y-58445816D01*
X117273565Y-58364561D01*
X116995000Y-58337125D01*
X116716436Y-58364561D01*
X116448577Y-58445816D01*
X116201716Y-58577765D01*
X115985341Y-58755340D01*
X115807766Y-58971715D01*
X115675817Y-59218576D01*
X115594561Y-59486435D01*
X115574000Y-59695196D01*
X50406000Y-59695196D01*
X50406000Y-55315132D01*
X50718456Y-55782754D01*
X51217246Y-56281544D01*
X51803760Y-56673441D01*
X52455461Y-56943384D01*
X53147302Y-57081000D01*
X53852698Y-57081000D01*
X54544539Y-56943384D01*
X55196240Y-56673441D01*
X55782754Y-56281544D01*
X56281544Y-55782754D01*
X56673441Y-55196240D01*
X56943384Y-54544539D01*
X57081000Y-53852698D01*
X57081000Y-53147302D01*
X56943384Y-52455461D01*
X56673441Y-51803760D01*
X56281544Y-51217246D01*
X55782754Y-50718456D01*
X55315132Y-50406000D01*
X132684868Y-50406000D01*
X132217246Y-50718456D01*
X132217246Y-50718456D01*
G37*
X132217246Y-50718456D02*
X131718456Y-51217246D01*
X131326559Y-51803760D01*
X131056616Y-52455461D01*
X130919000Y-53147302D01*
X130919000Y-53852698D01*
X131056616Y-54544539D01*
X131326559Y-55196240D01*
X131718456Y-55782754D01*
X132217246Y-56281544D01*
X132803760Y-56673441D01*
X133455461Y-56943384D01*
X134147302Y-57081000D01*
X134852698Y-57081000D01*
X135544539Y-56943384D01*
X136196240Y-56673441D01*
X136782754Y-56281544D01*
X137281544Y-55782754D01*
X137594001Y-55315130D01*
X137594000Y-66331829D01*
X135727020Y-68198811D01*
X135711527Y-68211526D01*
X135660791Y-68273347D01*
X135642524Y-68307522D01*
X135623091Y-68343879D01*
X135599875Y-68420411D01*
X135592037Y-68500000D01*
X135594001Y-68519943D01*
X135594000Y-86480067D01*
X135592037Y-86500000D01*
X135594000Y-86519933D01*
X135594000Y-86519940D01*
X135599875Y-86579589D01*
X135623090Y-86656120D01*
X135660790Y-86726652D01*
X135711526Y-86788474D01*
X135727024Y-86801193D01*
X137594000Y-88668171D01*
X137594001Y-99684870D01*
X137281544Y-99217246D01*
X136782754Y-98718456D01*
X136196240Y-98326559D01*
X135544539Y-98056616D01*
X134852698Y-97919000D01*
X134147302Y-97919000D01*
X133455461Y-98056616D01*
X132803760Y-98326559D01*
X132217246Y-98718456D01*
X131718456Y-99217246D01*
X131326559Y-99803760D01*
X131056616Y-100455461D01*
X130919000Y-101147302D01*
X130919000Y-101852698D01*
X131056616Y-102544539D01*
X131326559Y-103196240D01*
X131718456Y-103782754D01*
X132217246Y-104281544D01*
X132684868Y-104594000D01*
X55315132Y-104594000D01*
X55782754Y-104281544D01*
X56281544Y-103782754D01*
X56673441Y-103196240D01*
X56943384Y-102544539D01*
X57081000Y-101852698D01*
X57081000Y-101646000D01*
X77863157Y-101646000D01*
X77863157Y-103154000D01*
X77870513Y-103228689D01*
X77892299Y-103300508D01*
X77927678Y-103366696D01*
X77975289Y-103424711D01*
X78033304Y-103472322D01*
X78099492Y-103507701D01*
X78171311Y-103529487D01*
X78246000Y-103536843D01*
X79754000Y-103536843D01*
X79828689Y-103529487D01*
X79900508Y-103507701D01*
X79966696Y-103472322D01*
X80024711Y-103424711D01*
X80072322Y-103366696D01*
X80107701Y-103300508D01*
X80129487Y-103228689D01*
X80136843Y-103154000D01*
X80136843Y-102308212D01*
X107865000Y-102308212D01*
X107865000Y-102531788D01*
X107908617Y-102751067D01*
X107994176Y-102957624D01*
X108118388Y-103143520D01*
X108276480Y-103301612D01*
X108462376Y-103425824D01*
X108668933Y-103511383D01*
X108888212Y-103555000D01*
X109111788Y-103555000D01*
X109331067Y-103511383D01*
X109537624Y-103425824D01*
X109723520Y-103301612D01*
X109881612Y-103143520D01*
X110005824Y-102957624D01*
X110091383Y-102751067D01*
X110135000Y-102531788D01*
X110135000Y-102308212D01*
X110091383Y-102088933D01*
X110005824Y-101882376D01*
X109881612Y-101696480D01*
X109723520Y-101538388D01*
X109537624Y-101414176D01*
X109331067Y-101328617D01*
X109111788Y-101285000D01*
X108888212Y-101285000D01*
X108668933Y-101328617D01*
X108462376Y-101414176D01*
X108276480Y-101538388D01*
X108118388Y-101696480D01*
X107994176Y-101882376D01*
X107908617Y-102088933D01*
X107865000Y-102308212D01*
X80136843Y-102308212D01*
X80136843Y-101646000D01*
X80129487Y-101571311D01*
X80107701Y-101499492D01*
X80072322Y-101433304D01*
X80024711Y-101375289D01*
X79966696Y-101327678D01*
X79900508Y-101292299D01*
X79828689Y-101270513D01*
X79754000Y-101263157D01*
X78246000Y-101263157D01*
X78171311Y-101270513D01*
X78099492Y-101292299D01*
X78033304Y-101327678D01*
X77975289Y-101375289D01*
X77927678Y-101433304D01*
X77892299Y-101499492D01*
X77870513Y-101571311D01*
X77863157Y-101646000D01*
X57081000Y-101646000D01*
X57081000Y-101147302D01*
X56943384Y-100455461D01*
X56673441Y-99803760D01*
X56636325Y-99748212D01*
X77865000Y-99748212D01*
X77865000Y-99971788D01*
X77908617Y-100191067D01*
X77994176Y-100397624D01*
X78118388Y-100583520D01*
X78276480Y-100741612D01*
X78462376Y-100865824D01*
X78668933Y-100951383D01*
X78888212Y-100995000D01*
X79111788Y-100995000D01*
X79331067Y-100951383D01*
X79537624Y-100865824D01*
X79576495Y-100839851D01*
X108219754Y-100839851D01*
X108285765Y-101079127D01*
X108533426Y-101195426D01*
X108799018Y-101261174D01*
X109072334Y-101273845D01*
X109342870Y-101232951D01*
X109600229Y-101140063D01*
X109714235Y-101079127D01*
X109780246Y-100839851D01*
X109000000Y-100059605D01*
X108219754Y-100839851D01*
X79576495Y-100839851D01*
X79723520Y-100741612D01*
X79881612Y-100583520D01*
X80005824Y-100397624D01*
X80091383Y-100191067D01*
X80135000Y-99971788D01*
X80135000Y-99952334D01*
X107606155Y-99952334D01*
X107647049Y-100222870D01*
X107739937Y-100480229D01*
X107800873Y-100594235D01*
X108040149Y-100660246D01*
X108820395Y-99880000D01*
X109179605Y-99880000D01*
X109959851Y-100660246D01*
X110199127Y-100594235D01*
X110315426Y-100346574D01*
X110381174Y-100080982D01*
X110393845Y-99807666D01*
X110352951Y-99537130D01*
X110260063Y-99279771D01*
X110199127Y-99165765D01*
X109959851Y-99099754D01*
X109179605Y-99880000D01*
X108820395Y-99880000D01*
X108040149Y-99099754D01*
X107800873Y-99165765D01*
X107684574Y-99413426D01*
X107618826Y-99679018D01*
X107606155Y-99952334D01*
X80135000Y-99952334D01*
X80135000Y-99748212D01*
X80091383Y-99528933D01*
X80005824Y-99322376D01*
X79881612Y-99136480D01*
X79723520Y-98978388D01*
X79636360Y-98920149D01*
X108219754Y-98920149D01*
X109000000Y-99700395D01*
X109780246Y-98920149D01*
X109714235Y-98680873D01*
X109466574Y-98564574D01*
X109200982Y-98498826D01*
X108927666Y-98486155D01*
X108657130Y-98527049D01*
X108399771Y-98619937D01*
X108285765Y-98680873D01*
X108219754Y-98920149D01*
X79636360Y-98920149D01*
X79537624Y-98854176D01*
X79331067Y-98768617D01*
X79111788Y-98725000D01*
X78888212Y-98725000D01*
X78668933Y-98768617D01*
X78462376Y-98854176D01*
X78276480Y-98978388D01*
X78118388Y-99136480D01*
X77994176Y-99322376D01*
X77908617Y-99528933D01*
X77865000Y-99748212D01*
X56636325Y-99748212D01*
X56281544Y-99217246D01*
X55782754Y-98718456D01*
X55196240Y-98326559D01*
X55083477Y-98279851D01*
X78219754Y-98279851D01*
X78285765Y-98519127D01*
X78533426Y-98635426D01*
X78799018Y-98701174D01*
X79072334Y-98713845D01*
X79342870Y-98672951D01*
X79600229Y-98580063D01*
X79714235Y-98519127D01*
X79780246Y-98279851D01*
X79000000Y-97499605D01*
X78219754Y-98279851D01*
X55083477Y-98279851D01*
X54544539Y-98056616D01*
X53852698Y-97919000D01*
X53147302Y-97919000D01*
X52455461Y-98056616D01*
X51803760Y-98326559D01*
X51217246Y-98718456D01*
X50718456Y-99217246D01*
X50406000Y-99684868D01*
X50406000Y-97392334D01*
X77606155Y-97392334D01*
X77647049Y-97662870D01*
X77739937Y-97920229D01*
X77800873Y-98034235D01*
X78040149Y-98100246D01*
X78820395Y-97320000D01*
X79179605Y-97320000D01*
X79959851Y-98100246D01*
X80199127Y-98034235D01*
X80315426Y-97786574D01*
X80381174Y-97520982D01*
X80393845Y-97247666D01*
X80352951Y-96977130D01*
X80260063Y-96719771D01*
X80199127Y-96605765D01*
X79959851Y-96539754D01*
X79179605Y-97320000D01*
X78820395Y-97320000D01*
X78040149Y-96539754D01*
X77800873Y-96605765D01*
X77684574Y-96853426D01*
X77618826Y-97119018D01*
X77606155Y-97392334D01*
X50406000Y-97392334D01*
X50406000Y-96360149D01*
X78219754Y-96360149D01*
X79000000Y-97140395D01*
X79726713Y-96413682D01*
X85199000Y-96413682D01*
X85199000Y-96646318D01*
X85244386Y-96874485D01*
X85333412Y-97089413D01*
X85462658Y-97282843D01*
X85627157Y-97447342D01*
X85820587Y-97576588D01*
X86035515Y-97665614D01*
X86263682Y-97711000D01*
X86496318Y-97711000D01*
X86724485Y-97665614D01*
X86939413Y-97576588D01*
X87132843Y-97447342D01*
X87297342Y-97282843D01*
X87426588Y-97089413D01*
X87515614Y-96874485D01*
X87561000Y-96646318D01*
X87561000Y-96413682D01*
X100439000Y-96413682D01*
X100439000Y-96646318D01*
X100484386Y-96874485D01*
X100573412Y-97089413D01*
X100702658Y-97282843D01*
X100867157Y-97447342D01*
X101060587Y-97576588D01*
X101275515Y-97665614D01*
X101503682Y-97711000D01*
X101736318Y-97711000D01*
X101964485Y-97665614D01*
X102179413Y-97576588D01*
X102372843Y-97447342D01*
X102537342Y-97282843D01*
X102573845Y-97228212D01*
X107865000Y-97228212D01*
X107865000Y-97451788D01*
X107908617Y-97671067D01*
X107994176Y-97877624D01*
X108118388Y-98063520D01*
X108276480Y-98221612D01*
X108462376Y-98345824D01*
X108668933Y-98431383D01*
X108888212Y-98475000D01*
X109111788Y-98475000D01*
X109331067Y-98431383D01*
X109537624Y-98345824D01*
X109723520Y-98221612D01*
X109881612Y-98063520D01*
X110005824Y-97877624D01*
X110091383Y-97671067D01*
X110135000Y-97451788D01*
X110135000Y-97228212D01*
X110091383Y-97008933D01*
X110005824Y-96802376D01*
X109881612Y-96616480D01*
X109723520Y-96458388D01*
X109537624Y-96334176D01*
X109331067Y-96248617D01*
X109111788Y-96205000D01*
X108888212Y-96205000D01*
X108668933Y-96248617D01*
X108462376Y-96334176D01*
X108276480Y-96458388D01*
X108118388Y-96616480D01*
X107994176Y-96802376D01*
X107908617Y-97008933D01*
X107865000Y-97228212D01*
X102573845Y-97228212D01*
X102666588Y-97089413D01*
X102755614Y-96874485D01*
X102801000Y-96646318D01*
X102801000Y-96413682D01*
X102755614Y-96185515D01*
X102666588Y-95970587D01*
X102537342Y-95777157D01*
X102372843Y-95612658D01*
X102179413Y-95483412D01*
X101964485Y-95394386D01*
X101736318Y-95349000D01*
X101503682Y-95349000D01*
X101275515Y-95394386D01*
X101060587Y-95483412D01*
X100867157Y-95612658D01*
X100702658Y-95777157D01*
X100573412Y-95970587D01*
X100484386Y-96185515D01*
X100439000Y-96413682D01*
X87561000Y-96413682D01*
X87515614Y-96185515D01*
X87426588Y-95970587D01*
X87297342Y-95777157D01*
X87132843Y-95612658D01*
X86939413Y-95483412D01*
X86724485Y-95394386D01*
X86496318Y-95349000D01*
X86263682Y-95349000D01*
X86035515Y-95394386D01*
X85820587Y-95483412D01*
X85627157Y-95612658D01*
X85462658Y-95777157D01*
X85333412Y-95970587D01*
X85244386Y-96185515D01*
X85199000Y-96413682D01*
X79726713Y-96413682D01*
X79780246Y-96360149D01*
X79714235Y-96120873D01*
X79466574Y-96004574D01*
X79200982Y-95938826D01*
X78927666Y-95926155D01*
X78657130Y-95967049D01*
X78399771Y-96059937D01*
X78285765Y-96120873D01*
X78219754Y-96360149D01*
X50406000Y-96360149D01*
X50406000Y-88668169D01*
X52272987Y-86801184D01*
X52288474Y-86788474D01*
X52339210Y-86726653D01*
X52376910Y-86656121D01*
X52400125Y-86579590D01*
X52406000Y-86519941D01*
X52406000Y-86519934D01*
X52407963Y-86500001D01*
X52406000Y-86480068D01*
X52406000Y-73075001D01*
X55966552Y-73075001D01*
X55969000Y-73099857D01*
X55968999Y-75775155D01*
X55966552Y-75800001D01*
X55968999Y-75824847D01*
X55968999Y-75824854D01*
X55976321Y-75899193D01*
X56005254Y-75994575D01*
X56052240Y-76082480D01*
X56115472Y-76159528D01*
X56134784Y-76175377D01*
X60006503Y-80047097D01*
X60006502Y-80430419D01*
X59983535Y-80453386D01*
X59909008Y-80564924D01*
X59857673Y-80688858D01*
X59831502Y-80820425D01*
X59831502Y-80954571D01*
X59857673Y-81086138D01*
X59909008Y-81210072D01*
X59983535Y-81321610D01*
X60078390Y-81416465D01*
X60189928Y-81490992D01*
X60313862Y-81542327D01*
X60445429Y-81568498D01*
X60477911Y-81568498D01*
X63707893Y-84798481D01*
X63723738Y-84817788D01*
X63800786Y-84881020D01*
X63888690Y-84928006D01*
X63961872Y-84950205D01*
X63984071Y-84956939D01*
X63993959Y-84957913D01*
X64058411Y-84964261D01*
X64058418Y-84964261D01*
X64083264Y-84966708D01*
X64108110Y-84964261D01*
X78985740Y-84964261D01*
X78985739Y-93012352D01*
X78659780Y-93338312D01*
X78640474Y-93354156D01*
X78577242Y-93431204D01*
X78557829Y-93467523D01*
X78530255Y-93519109D01*
X78501322Y-93614491D01*
X78491553Y-93713683D01*
X78494001Y-93738539D01*
X78494001Y-93761076D01*
X78462376Y-93774176D01*
X78276480Y-93898388D01*
X78118388Y-94056480D01*
X77994176Y-94242376D01*
X77908617Y-94448933D01*
X77865000Y-94668212D01*
X77865000Y-94891788D01*
X77908617Y-95111067D01*
X77994176Y-95317624D01*
X78118388Y-95503520D01*
X78276480Y-95661612D01*
X78462376Y-95785824D01*
X78668933Y-95871383D01*
X78888212Y-95915000D01*
X79111788Y-95915000D01*
X79331067Y-95871383D01*
X79537624Y-95785824D01*
X79723520Y-95661612D01*
X79881612Y-95503520D01*
X80005824Y-95317624D01*
X80091383Y-95111067D01*
X80135000Y-94891788D01*
X80135000Y-94668212D01*
X80091383Y-94448933D01*
X80005824Y-94242376D01*
X79881612Y-94056480D01*
X79723520Y-93898388D01*
X79686545Y-93873682D01*
X85199000Y-93873682D01*
X85199000Y-94106318D01*
X85244386Y-94334485D01*
X85333412Y-94549413D01*
X85462658Y-94742843D01*
X85627157Y-94907342D01*
X85820587Y-95036588D01*
X86035515Y-95125614D01*
X86263682Y-95171000D01*
X86496318Y-95171000D01*
X86724485Y-95125614D01*
X86939413Y-95036588D01*
X87132843Y-94907342D01*
X87297342Y-94742843D01*
X87426588Y-94549413D01*
X87515614Y-94334485D01*
X87561000Y-94106318D01*
X87561000Y-93873682D01*
X100439000Y-93873682D01*
X100439000Y-94106318D01*
X100484386Y-94334485D01*
X100573412Y-94549413D01*
X100702658Y-94742843D01*
X100867157Y-94907342D01*
X101060587Y-95036588D01*
X101275515Y-95125614D01*
X101503682Y-95171000D01*
X101736318Y-95171000D01*
X101964485Y-95125614D01*
X102179413Y-95036588D01*
X102372843Y-94907342D01*
X102537342Y-94742843D01*
X102666588Y-94549413D01*
X102755614Y-94334485D01*
X102801000Y-94106318D01*
X102801000Y-94046000D01*
X107863157Y-94046000D01*
X107863157Y-95554000D01*
X107870513Y-95628689D01*
X107892299Y-95700508D01*
X107927678Y-95766696D01*
X107975289Y-95824711D01*
X108033304Y-95872322D01*
X108099492Y-95907701D01*
X108171311Y-95929487D01*
X108246000Y-95936843D01*
X109754000Y-95936843D01*
X109828689Y-95929487D01*
X109900508Y-95907701D01*
X109966696Y-95872322D01*
X110024711Y-95824711D01*
X110072322Y-95766696D01*
X110107701Y-95700508D01*
X110129487Y-95628689D01*
X110136843Y-95554000D01*
X110136843Y-94046000D01*
X110129487Y-93971311D01*
X110107701Y-93899492D01*
X110072322Y-93833304D01*
X110024711Y-93775289D01*
X109966696Y-93727678D01*
X109900508Y-93692299D01*
X109828689Y-93670513D01*
X109754000Y-93663157D01*
X108246000Y-93663157D01*
X108171311Y-93670513D01*
X108099492Y-93692299D01*
X108033304Y-93727678D01*
X107975289Y-93775289D01*
X107927678Y-93833304D01*
X107892299Y-93899492D01*
X107870513Y-93971311D01*
X107863157Y-94046000D01*
X102801000Y-94046000D01*
X102801000Y-93873682D01*
X102755614Y-93645515D01*
X102666588Y-93430587D01*
X102537342Y-93237157D01*
X102372843Y-93072658D01*
X102179413Y-92943412D01*
X101964485Y-92854386D01*
X101736318Y-92809000D01*
X101503682Y-92809000D01*
X101275515Y-92854386D01*
X101060587Y-92943412D01*
X100867157Y-93072658D01*
X100702658Y-93237157D01*
X100573412Y-93430587D01*
X100484386Y-93645515D01*
X100439000Y-93873682D01*
X87561000Y-93873682D01*
X87515614Y-93645515D01*
X87426588Y-93430587D01*
X87297342Y-93237157D01*
X87132843Y-93072658D01*
X86939413Y-92943412D01*
X86724485Y-92854386D01*
X86496318Y-92809000D01*
X86263682Y-92809000D01*
X86035515Y-92854386D01*
X85820587Y-92943412D01*
X85627157Y-93072658D01*
X85462658Y-93237157D01*
X85333412Y-93430587D01*
X85244386Y-93645515D01*
X85199000Y-93873682D01*
X79686545Y-93873682D01*
X79608045Y-93821230D01*
X79831959Y-93597316D01*
X79851266Y-93581471D01*
X79914498Y-93504423D01*
X79961484Y-93416519D01*
X79990417Y-93321137D01*
X79997739Y-93246798D01*
X79997739Y-93246790D01*
X80000186Y-93221944D01*
X79997739Y-93197098D01*
X79997739Y-91333682D01*
X85199000Y-91333682D01*
X85199000Y-91566318D01*
X85244386Y-91794485D01*
X85333412Y-92009413D01*
X85462658Y-92202843D01*
X85627157Y-92367342D01*
X85820587Y-92496588D01*
X86035515Y-92585614D01*
X86263682Y-92631000D01*
X86496318Y-92631000D01*
X86724485Y-92585614D01*
X86939413Y-92496588D01*
X87132843Y-92367342D01*
X87297342Y-92202843D01*
X87426588Y-92009413D01*
X87515614Y-91794485D01*
X87561000Y-91566318D01*
X87561000Y-91333682D01*
X100439000Y-91333682D01*
X100439000Y-91566318D01*
X100484386Y-91794485D01*
X100573412Y-92009413D01*
X100702658Y-92202843D01*
X100867157Y-92367342D01*
X101060587Y-92496588D01*
X101275515Y-92585614D01*
X101503682Y-92631000D01*
X101736318Y-92631000D01*
X101964485Y-92585614D01*
X102179413Y-92496588D01*
X102372843Y-92367342D01*
X102537342Y-92202843D01*
X102666588Y-92009413D01*
X102755614Y-91794485D01*
X102801000Y-91566318D01*
X102801000Y-91333682D01*
X102755614Y-91105515D01*
X102666588Y-90890587D01*
X102537342Y-90697157D01*
X102372843Y-90532658D01*
X102179413Y-90403412D01*
X101964485Y-90314386D01*
X101736318Y-90269000D01*
X101503682Y-90269000D01*
X101275515Y-90314386D01*
X101060587Y-90403412D01*
X100867157Y-90532658D01*
X100702658Y-90697157D01*
X100573412Y-90890587D01*
X100484386Y-91105515D01*
X100439000Y-91333682D01*
X87561000Y-91333682D01*
X87515614Y-91105515D01*
X87426588Y-90890587D01*
X87297342Y-90697157D01*
X87132843Y-90532658D01*
X86939413Y-90403412D01*
X86724485Y-90314386D01*
X86496318Y-90269000D01*
X86263682Y-90269000D01*
X86035515Y-90314386D01*
X85820587Y-90403412D01*
X85627157Y-90532658D01*
X85462658Y-90697157D01*
X85333412Y-90890587D01*
X85244386Y-91105515D01*
X85199000Y-91333682D01*
X79997739Y-91333682D01*
X79997739Y-88793682D01*
X85199000Y-88793682D01*
X85199000Y-89026318D01*
X85244386Y-89254485D01*
X85333412Y-89469413D01*
X85462658Y-89662843D01*
X85627157Y-89827342D01*
X85820587Y-89956588D01*
X86035515Y-90045614D01*
X86263682Y-90091000D01*
X86496318Y-90091000D01*
X86724485Y-90045614D01*
X86939413Y-89956588D01*
X87132843Y-89827342D01*
X87297342Y-89662843D01*
X87426588Y-89469413D01*
X87515614Y-89254485D01*
X87561000Y-89026318D01*
X87561000Y-88793682D01*
X100439000Y-88793682D01*
X100439000Y-89026318D01*
X100484386Y-89254485D01*
X100573412Y-89469413D01*
X100702658Y-89662843D01*
X100867157Y-89827342D01*
X101060587Y-89956588D01*
X101275515Y-90045614D01*
X101503682Y-90091000D01*
X101736318Y-90091000D01*
X101964485Y-90045614D01*
X102179413Y-89956588D01*
X102372843Y-89827342D01*
X102537342Y-89662843D01*
X102666588Y-89469413D01*
X102755614Y-89254485D01*
X102801000Y-89026318D01*
X102801000Y-88793682D01*
X102755614Y-88565515D01*
X102666588Y-88350587D01*
X102537342Y-88157157D01*
X102372843Y-87992658D01*
X102179413Y-87863412D01*
X101964485Y-87774386D01*
X101736318Y-87729000D01*
X101503682Y-87729000D01*
X101275515Y-87774386D01*
X101060587Y-87863412D01*
X100867157Y-87992658D01*
X100702658Y-88157157D01*
X100573412Y-88350587D01*
X100484386Y-88565515D01*
X100439000Y-88793682D01*
X87561000Y-88793682D01*
X87515614Y-88565515D01*
X87426588Y-88350587D01*
X87297342Y-88157157D01*
X87132843Y-87992658D01*
X86939413Y-87863412D01*
X86724485Y-87774386D01*
X86496318Y-87729000D01*
X86263682Y-87729000D01*
X86035515Y-87774386D01*
X85820587Y-87863412D01*
X85627157Y-87992658D01*
X85462658Y-88157157D01*
X85333412Y-88350587D01*
X85244386Y-88565515D01*
X85199000Y-88793682D01*
X79997739Y-88793682D01*
X79997739Y-86253682D01*
X85199000Y-86253682D01*
X85199000Y-86486318D01*
X85244386Y-86714485D01*
X85333412Y-86929413D01*
X85462658Y-87122843D01*
X85627157Y-87287342D01*
X85820587Y-87416588D01*
X86035515Y-87505614D01*
X86263682Y-87551000D01*
X86496318Y-87551000D01*
X86724485Y-87505614D01*
X86939413Y-87416588D01*
X87132843Y-87287342D01*
X87297342Y-87122843D01*
X87426588Y-86929413D01*
X87515614Y-86714485D01*
X87561000Y-86486318D01*
X87561000Y-86253682D01*
X100439000Y-86253682D01*
X100439000Y-86486318D01*
X100484386Y-86714485D01*
X100573412Y-86929413D01*
X100702658Y-87122843D01*
X100867157Y-87287342D01*
X101060587Y-87416588D01*
X101275515Y-87505614D01*
X101503682Y-87551000D01*
X101736318Y-87551000D01*
X101964485Y-87505614D01*
X102179413Y-87416588D01*
X102372843Y-87287342D01*
X102537342Y-87122843D01*
X102666588Y-86929413D01*
X102755614Y-86714485D01*
X102801000Y-86486318D01*
X102801000Y-86253682D01*
X102755614Y-86025515D01*
X102666588Y-85810587D01*
X102537342Y-85617157D01*
X102372843Y-85452658D01*
X102179413Y-85323412D01*
X101964485Y-85234386D01*
X101736318Y-85189000D01*
X101503682Y-85189000D01*
X101275515Y-85234386D01*
X101060587Y-85323412D01*
X100867157Y-85452658D01*
X100702658Y-85617157D01*
X100573412Y-85810587D01*
X100484386Y-86025515D01*
X100439000Y-86253682D01*
X87561000Y-86253682D01*
X87515614Y-86025515D01*
X87426588Y-85810587D01*
X87297342Y-85617157D01*
X87132843Y-85452658D01*
X86939413Y-85323412D01*
X86724485Y-85234386D01*
X86496318Y-85189000D01*
X86263682Y-85189000D01*
X86035515Y-85234386D01*
X85820587Y-85323412D01*
X85627157Y-85452658D01*
X85462658Y-85617157D01*
X85333412Y-85810587D01*
X85244386Y-86025515D01*
X85199000Y-86253682D01*
X79997739Y-86253682D01*
X79997739Y-84667852D01*
X80951909Y-83713682D01*
X85199000Y-83713682D01*
X85199000Y-83946318D01*
X85244386Y-84174485D01*
X85333412Y-84389413D01*
X85462658Y-84582843D01*
X85627157Y-84747342D01*
X85820587Y-84876588D01*
X86035515Y-84965614D01*
X86263682Y-85011000D01*
X86496318Y-85011000D01*
X86724485Y-84965614D01*
X86939413Y-84876588D01*
X87132843Y-84747342D01*
X87297342Y-84582843D01*
X87426588Y-84389413D01*
X87515614Y-84174485D01*
X87561000Y-83946318D01*
X87561000Y-83713682D01*
X100439000Y-83713682D01*
X100439000Y-83946318D01*
X100484386Y-84174485D01*
X100573412Y-84389413D01*
X100702658Y-84582843D01*
X100867157Y-84747342D01*
X101060587Y-84876588D01*
X101275515Y-84965614D01*
X101503682Y-85011000D01*
X101736318Y-85011000D01*
X101964485Y-84965614D01*
X102179413Y-84876588D01*
X102372843Y-84747342D01*
X102537342Y-84582843D01*
X102666588Y-84389413D01*
X102755614Y-84174485D01*
X102801000Y-83946318D01*
X102801000Y-83713682D01*
X102755614Y-83485515D01*
X102666588Y-83270587D01*
X102537342Y-83077157D01*
X102372843Y-82912658D01*
X102179413Y-82783412D01*
X101964485Y-82694386D01*
X101736318Y-82649000D01*
X101503682Y-82649000D01*
X101275515Y-82694386D01*
X101060587Y-82783412D01*
X100867157Y-82912658D01*
X100702658Y-83077157D01*
X100573412Y-83270587D01*
X100484386Y-83485515D01*
X100439000Y-83713682D01*
X87561000Y-83713682D01*
X87515614Y-83485515D01*
X87426588Y-83270587D01*
X87297342Y-83077157D01*
X87132843Y-82912658D01*
X86939413Y-82783412D01*
X86724485Y-82694386D01*
X86496318Y-82649000D01*
X86263682Y-82649000D01*
X86035515Y-82694386D01*
X85820587Y-82783412D01*
X85627157Y-82912658D01*
X85462658Y-83077157D01*
X85333412Y-83270587D01*
X85244386Y-83485515D01*
X85199000Y-83713682D01*
X80951909Y-83713682D01*
X82438932Y-82226660D01*
X82548630Y-82204839D01*
X82672564Y-82153504D01*
X82784102Y-82078977D01*
X82878957Y-81984122D01*
X82953484Y-81872584D01*
X83004819Y-81748650D01*
X83030990Y-81617083D01*
X83030990Y-81482937D01*
X83004819Y-81351370D01*
X82953484Y-81227436D01*
X82878957Y-81115898D01*
X82784102Y-81021043D01*
X82672564Y-80946516D01*
X82548630Y-80895181D01*
X82417063Y-80869010D01*
X82282917Y-80869010D01*
X82151350Y-80895181D01*
X82027416Y-80946516D01*
X81915878Y-81021043D01*
X81821023Y-81115898D01*
X81746496Y-81227436D01*
X81695161Y-81351370D01*
X81668990Y-81482937D01*
X81668990Y-81565418D01*
X79282148Y-83952261D01*
X75885818Y-83952261D01*
X75928967Y-83909112D01*
X76003494Y-83797574D01*
X76054829Y-83673640D01*
X76081000Y-83542073D01*
X76081000Y-83407927D01*
X76054829Y-83276360D01*
X76031000Y-83218832D01*
X76031000Y-83116719D01*
X76034052Y-83085731D01*
X76031000Y-83054743D01*
X76031000Y-83054734D01*
X76021870Y-82962034D01*
X75985789Y-82843090D01*
X75927196Y-82733471D01*
X75871824Y-82666000D01*
X75868103Y-82661466D01*
X75868101Y-82661464D01*
X75848343Y-82637389D01*
X75824269Y-82617632D01*
X69687373Y-76480737D01*
X69667611Y-76456657D01*
X69571529Y-76377804D01*
X69461910Y-76319211D01*
X69342966Y-76283130D01*
X69250266Y-76274000D01*
X69250258Y-76274000D01*
X69219268Y-76270948D01*
X69188278Y-76274000D01*
X69051172Y-76274000D01*
X68993644Y-76250171D01*
X68862077Y-76224000D01*
X68727931Y-76224000D01*
X68596364Y-76250171D01*
X68472430Y-76301506D01*
X68360892Y-76376033D01*
X68266037Y-76470888D01*
X68191510Y-76582426D01*
X68140175Y-76706360D01*
X68114004Y-76837927D01*
X68114004Y-76972073D01*
X68140175Y-77103640D01*
X68191510Y-77227574D01*
X68266037Y-77339112D01*
X68360892Y-77433967D01*
X68472430Y-77508494D01*
X68596364Y-77559829D01*
X68727931Y-77586000D01*
X68862077Y-77586000D01*
X68983706Y-77561806D01*
X70265900Y-78844000D01*
X68557079Y-78844000D01*
X68534112Y-78821033D01*
X68422574Y-78746506D01*
X68298640Y-78695171D01*
X68167073Y-78669000D01*
X68032927Y-78669000D01*
X67901360Y-78695171D01*
X67777426Y-78746506D01*
X67665888Y-78821033D01*
X67571033Y-78915888D01*
X67496506Y-79027426D01*
X67445171Y-79151360D01*
X67419000Y-79282927D01*
X67419000Y-79417073D01*
X67445171Y-79548640D01*
X67496506Y-79672574D01*
X67571033Y-79784112D01*
X67665888Y-79878967D01*
X67777426Y-79953494D01*
X67901360Y-80004829D01*
X68032927Y-80031000D01*
X68167073Y-80031000D01*
X68298640Y-80004829D01*
X68422574Y-79953494D01*
X68534112Y-79878967D01*
X68557079Y-79856000D01*
X69434301Y-79856000D01*
X69418999Y-79932925D01*
X69418999Y-80067071D01*
X69445170Y-80198638D01*
X69468999Y-80256166D01*
X69468999Y-80393272D01*
X69465947Y-80424262D01*
X69468999Y-80455252D01*
X69468999Y-80455259D01*
X69478129Y-80547959D01*
X69514210Y-80666903D01*
X69543992Y-80722621D01*
X69543992Y-81329330D01*
X69492063Y-81319000D01*
X69357917Y-81319000D01*
X69226350Y-81345171D01*
X69102416Y-81396506D01*
X68990878Y-81471033D01*
X68967911Y-81494000D01*
X68283912Y-81494000D01*
X60773546Y-73983635D01*
X60773546Y-73951153D01*
X60747375Y-73819586D01*
X60696040Y-73695652D01*
X60632128Y-73600000D01*
X63264738Y-73600000D01*
X63274194Y-73696000D01*
X63281015Y-73765248D01*
X63281749Y-73772705D01*
X63332125Y-73938774D01*
X63413932Y-74091825D01*
X63482085Y-74174869D01*
X63524026Y-74225975D01*
X63557640Y-74253561D01*
X63630927Y-74326848D01*
X63630931Y-74326854D01*
X63753644Y-74449567D01*
X63789820Y-74473739D01*
X63823424Y-74501317D01*
X63861765Y-74521810D01*
X63897939Y-74545981D01*
X63938137Y-74562631D01*
X63976474Y-74583123D01*
X64018070Y-74595741D01*
X64058271Y-74612393D01*
X64100946Y-74620881D01*
X64142543Y-74633500D01*
X64185808Y-74637762D01*
X64228478Y-74646249D01*
X64271978Y-74646249D01*
X64315248Y-74650511D01*
X64358518Y-74646249D01*
X64402020Y-74646249D01*
X64444691Y-74637761D01*
X64487954Y-74633500D01*
X64529549Y-74620882D01*
X64572227Y-74612393D01*
X64612431Y-74595740D01*
X64654023Y-74583123D01*
X64692358Y-74562633D01*
X64732559Y-74545981D01*
X64768734Y-74521810D01*
X64807074Y-74501317D01*
X64840677Y-74473739D01*
X64876854Y-74449567D01*
X64907623Y-74418798D01*
X64941223Y-74391223D01*
X64968798Y-74357623D01*
X64999567Y-74326854D01*
X65023739Y-74290677D01*
X65051317Y-74257074D01*
X65071810Y-74218734D01*
X65095981Y-74182559D01*
X65112633Y-74142358D01*
X65133123Y-74104023D01*
X65145740Y-74062431D01*
X65162393Y-74022227D01*
X65170882Y-73979549D01*
X65183500Y-73937954D01*
X65187761Y-73894691D01*
X65196249Y-73852020D01*
X65196249Y-73808518D01*
X65200511Y-73765248D01*
X65196249Y-73721978D01*
X65196249Y-73678478D01*
X65187762Y-73635808D01*
X65183500Y-73592543D01*
X65170881Y-73550946D01*
X65162393Y-73508271D01*
X65145741Y-73468070D01*
X65133123Y-73426474D01*
X65112631Y-73388137D01*
X65095981Y-73347939D01*
X65071810Y-73311765D01*
X65051317Y-73273424D01*
X65031000Y-73248668D01*
X65031000Y-70413229D01*
X65022514Y-70370566D01*
X65020152Y-70346581D01*
X65072758Y-70282480D01*
X65119744Y-70194576D01*
X65133342Y-70149747D01*
X73042649Y-62240441D01*
X73088533Y-62309112D01*
X73111500Y-62332079D01*
X73111501Y-66051542D01*
X73109053Y-66076398D01*
X73118822Y-66175590D01*
X73147755Y-66270972D01*
X73147756Y-66270973D01*
X73194742Y-66358877D01*
X73257974Y-66435925D01*
X73277281Y-66451770D01*
X77280109Y-70454599D01*
X77211438Y-70500483D01*
X77116583Y-70595338D01*
X77042056Y-70706876D01*
X76990721Y-70830810D01*
X76964550Y-70962377D01*
X76964550Y-71096523D01*
X76990721Y-71228090D01*
X77042056Y-71352024D01*
X77116583Y-71463562D01*
X77211438Y-71558417D01*
X77249001Y-71583516D01*
X77249000Y-78987921D01*
X77226033Y-79010888D01*
X77151506Y-79122426D01*
X77100171Y-79246360D01*
X77074000Y-79377927D01*
X77074000Y-79512073D01*
X77100171Y-79643640D01*
X77151506Y-79767574D01*
X77226033Y-79879112D01*
X77320888Y-79973967D01*
X77432426Y-80048494D01*
X77556360Y-80099829D01*
X77687927Y-80126000D01*
X77822073Y-80126000D01*
X77953640Y-80099829D01*
X78077574Y-80048494D01*
X78189112Y-79973967D01*
X78283967Y-79879112D01*
X78358494Y-79767574D01*
X78409829Y-79643640D01*
X78436000Y-79512073D01*
X78436000Y-79377927D01*
X78409829Y-79246360D01*
X78358494Y-79122426D01*
X78283967Y-79010888D01*
X78261000Y-78987921D01*
X78261000Y-71435490D01*
X81669000Y-74843490D01*
X81669000Y-74875971D01*
X81695171Y-75007538D01*
X81746506Y-75131472D01*
X81821033Y-75243010D01*
X81915888Y-75337865D01*
X82027426Y-75412392D01*
X82151360Y-75463727D01*
X82282927Y-75489898D01*
X82417073Y-75489898D01*
X82469001Y-75479569D01*
X82469002Y-77860145D01*
X82466554Y-77885001D01*
X82476323Y-77984193D01*
X82505256Y-78079575D01*
X82505257Y-78079576D01*
X82552243Y-78167480D01*
X82615475Y-78244528D01*
X82634782Y-78260373D01*
X85239779Y-80865371D01*
X85239784Y-80865375D01*
X85266511Y-80892102D01*
X85244386Y-80945515D01*
X85199000Y-81173682D01*
X85199000Y-81406318D01*
X85244386Y-81634485D01*
X85333412Y-81849413D01*
X85462658Y-82042843D01*
X85627157Y-82207342D01*
X85820587Y-82336588D01*
X86035515Y-82425614D01*
X86263682Y-82471000D01*
X86496318Y-82471000D01*
X86724485Y-82425614D01*
X86939413Y-82336588D01*
X87132843Y-82207342D01*
X87297342Y-82042843D01*
X87426588Y-81849413D01*
X87515614Y-81634485D01*
X87561000Y-81406318D01*
X87561000Y-81173682D01*
X100439000Y-81173682D01*
X100439000Y-81406318D01*
X100484386Y-81634485D01*
X100573412Y-81849413D01*
X100702658Y-82042843D01*
X100867157Y-82207342D01*
X101060587Y-82336588D01*
X101275515Y-82425614D01*
X101503682Y-82471000D01*
X101736318Y-82471000D01*
X101964485Y-82425614D01*
X102179413Y-82336588D01*
X102372843Y-82207342D01*
X102537342Y-82042843D01*
X102666588Y-81849413D01*
X102755614Y-81634485D01*
X102801000Y-81406318D01*
X102801000Y-81173682D01*
X102755614Y-80945515D01*
X102666588Y-80730587D01*
X102537342Y-80537157D01*
X102372843Y-80372658D01*
X102179413Y-80243412D01*
X101964485Y-80154386D01*
X101736318Y-80109000D01*
X101503682Y-80109000D01*
X101275515Y-80154386D01*
X101060587Y-80243412D01*
X100867157Y-80372658D01*
X100702658Y-80537157D01*
X100573412Y-80730587D01*
X100484386Y-80945515D01*
X100439000Y-81173682D01*
X87561000Y-81173682D01*
X87515614Y-80945515D01*
X87426588Y-80730587D01*
X87297342Y-80537157D01*
X87132843Y-80372658D01*
X86939413Y-80243412D01*
X86724485Y-80154386D01*
X86496318Y-80109000D01*
X86263682Y-80109000D01*
X86035515Y-80154386D01*
X85982102Y-80176511D01*
X85955375Y-80149784D01*
X85955371Y-80149779D01*
X84439274Y-78633682D01*
X85199000Y-78633682D01*
X85199000Y-78866318D01*
X85244386Y-79094485D01*
X85333412Y-79309413D01*
X85462658Y-79502843D01*
X85627157Y-79667342D01*
X85820587Y-79796588D01*
X86035515Y-79885614D01*
X86263682Y-79931000D01*
X86496318Y-79931000D01*
X86724485Y-79885614D01*
X86939413Y-79796588D01*
X87132843Y-79667342D01*
X87297342Y-79502843D01*
X87426588Y-79309413D01*
X87515614Y-79094485D01*
X87561000Y-78866318D01*
X87561000Y-78633682D01*
X87515614Y-78405515D01*
X87426588Y-78190587D01*
X87297342Y-77997157D01*
X87132843Y-77832658D01*
X86939413Y-77703412D01*
X86724485Y-77614386D01*
X86496318Y-77569000D01*
X86263682Y-77569000D01*
X86035515Y-77614386D01*
X85820587Y-77703412D01*
X85627157Y-77832658D01*
X85462658Y-77997157D01*
X85333412Y-78190587D01*
X85244386Y-78405515D01*
X85199000Y-78633682D01*
X84439274Y-78633682D01*
X83481001Y-77675410D01*
X83481001Y-76093682D01*
X85199000Y-76093682D01*
X85199000Y-76326318D01*
X85244386Y-76554485D01*
X85333412Y-76769413D01*
X85462658Y-76962843D01*
X85627157Y-77127342D01*
X85820587Y-77256588D01*
X86035515Y-77345614D01*
X86263682Y-77391000D01*
X86496318Y-77391000D01*
X86724485Y-77345614D01*
X86777898Y-77323490D01*
X86839777Y-77385369D01*
X86839783Y-77385374D01*
X87129625Y-77675216D01*
X87145474Y-77694528D01*
X87222522Y-77757760D01*
X87274998Y-77785809D01*
X87310426Y-77804746D01*
X87405807Y-77833679D01*
X87415695Y-77834653D01*
X87480147Y-77841001D01*
X87480154Y-77841001D01*
X87505000Y-77843448D01*
X87529846Y-77841001D01*
X100858814Y-77841001D01*
X100702658Y-77997157D01*
X100573412Y-78190587D01*
X100484386Y-78405515D01*
X100439000Y-78633682D01*
X100439000Y-78866318D01*
X100484386Y-79094485D01*
X100573412Y-79309413D01*
X100702658Y-79502843D01*
X100867157Y-79667342D01*
X101060587Y-79796588D01*
X101275515Y-79885614D01*
X101503682Y-79931000D01*
X101736318Y-79931000D01*
X101964485Y-79885614D01*
X102179413Y-79796588D01*
X102372843Y-79667342D01*
X102537342Y-79502843D01*
X102666588Y-79309413D01*
X102755614Y-79094485D01*
X102788511Y-78929102D01*
X109244000Y-85384592D01*
X109244000Y-85417073D01*
X109270171Y-85548640D01*
X109321506Y-85672574D01*
X109396033Y-85784112D01*
X109490888Y-85878967D01*
X109602426Y-85953494D01*
X109726360Y-86004829D01*
X109857927Y-86031000D01*
X109992073Y-86031000D01*
X110123640Y-86004829D01*
X110247574Y-85953494D01*
X110359112Y-85878967D01*
X110453967Y-85784112D01*
X110483387Y-85740081D01*
X113876501Y-89133195D01*
X113876500Y-92667921D01*
X113853533Y-92690888D01*
X113779006Y-92802426D01*
X113727671Y-92926360D01*
X113701500Y-93057927D01*
X113701500Y-93192073D01*
X113711829Y-93244001D01*
X111809593Y-93244001D01*
X111781000Y-93215408D01*
X111781000Y-93182927D01*
X111754829Y-93051360D01*
X111703494Y-92927426D01*
X111628967Y-92815888D01*
X111534112Y-92721033D01*
X111422574Y-92646506D01*
X111298640Y-92595171D01*
X111167073Y-92569000D01*
X111032927Y-92569000D01*
X110901360Y-92595171D01*
X110777426Y-92646506D01*
X110665888Y-92721033D01*
X110571033Y-92815888D01*
X110496506Y-92927426D01*
X110445171Y-93051360D01*
X110419000Y-93182927D01*
X110419000Y-93317073D01*
X110445171Y-93448640D01*
X110496506Y-93572574D01*
X110571033Y-93684112D01*
X110665888Y-93778967D01*
X110777426Y-93853494D01*
X110901360Y-93904829D01*
X111032927Y-93931000D01*
X111065408Y-93931000D01*
X111224629Y-94090221D01*
X111240474Y-94109528D01*
X111317522Y-94172760D01*
X111391610Y-94212361D01*
X111405426Y-94219746D01*
X111500807Y-94248679D01*
X111510695Y-94249653D01*
X111575147Y-94256001D01*
X111575154Y-94256001D01*
X111600000Y-94258448D01*
X111624846Y-94256001D01*
X114657655Y-94256001D01*
X114682501Y-94258448D01*
X114707347Y-94256001D01*
X114707355Y-94256001D01*
X114781694Y-94248679D01*
X114877076Y-94219746D01*
X114964980Y-94172760D01*
X115042028Y-94109528D01*
X115057877Y-94090216D01*
X123690221Y-85457873D01*
X123709528Y-85442028D01*
X123760120Y-85380382D01*
X123763229Y-85381000D01*
X123806727Y-85381000D01*
X123850000Y-85385262D01*
X123893273Y-85381000D01*
X123936771Y-85381000D01*
X123979434Y-85372514D01*
X124022705Y-85368252D01*
X124064310Y-85355631D01*
X124106978Y-85347144D01*
X124147173Y-85330495D01*
X124188774Y-85317875D01*
X124227114Y-85297382D01*
X124267310Y-85280732D01*
X124303487Y-85256560D01*
X124341824Y-85236068D01*
X124375427Y-85208491D01*
X124411605Y-85184318D01*
X124442368Y-85153555D01*
X124475975Y-85125975D01*
X124503557Y-85092366D01*
X124534318Y-85061605D01*
X124558488Y-85025431D01*
X124586068Y-84991825D01*
X124606562Y-84953483D01*
X124630732Y-84917310D01*
X124647380Y-84877119D01*
X124667875Y-84838775D01*
X124680496Y-84797170D01*
X124697144Y-84756978D01*
X124705631Y-84714313D01*
X124718252Y-84672706D01*
X124722514Y-84629434D01*
X124731000Y-84586771D01*
X124731000Y-81443269D01*
X124735262Y-81399999D01*
X124729862Y-81345171D01*
X124718252Y-81227294D01*
X124667875Y-81061225D01*
X124586068Y-80908175D01*
X124475975Y-80774025D01*
X124442355Y-80746434D01*
X124369073Y-80673152D01*
X124369069Y-80673146D01*
X124246356Y-80550433D01*
X124246350Y-80550429D01*
X123838316Y-80142395D01*
X123838311Y-80142389D01*
X122128565Y-78432644D01*
X122100974Y-78399024D01*
X121966824Y-78288931D01*
X121813774Y-78207124D01*
X121647705Y-78156747D01*
X121518272Y-78143999D01*
X121518269Y-78143999D01*
X121474999Y-78139737D01*
X121431729Y-78143999D01*
X119241075Y-78143999D01*
X117232668Y-76135592D01*
X117247927Y-76140221D01*
X117275806Y-76148678D01*
X117285694Y-76149652D01*
X117350146Y-76156000D01*
X117350153Y-76156000D01*
X117374999Y-76158447D01*
X117399845Y-76156000D01*
X119442921Y-76156000D01*
X119465888Y-76178967D01*
X119577426Y-76253494D01*
X119701360Y-76304829D01*
X119832927Y-76331000D01*
X119967073Y-76331000D01*
X120098640Y-76304829D01*
X120222574Y-76253494D01*
X120334112Y-76178967D01*
X120428967Y-76084112D01*
X120503494Y-75972574D01*
X120554829Y-75848640D01*
X120581000Y-75717073D01*
X120581000Y-75582927D01*
X120554829Y-75451360D01*
X120503494Y-75327426D01*
X120428967Y-75215888D01*
X120334112Y-75121033D01*
X120222574Y-75046506D01*
X120098640Y-74995171D01*
X119967073Y-74969000D01*
X119832927Y-74969000D01*
X119701360Y-74995171D01*
X119577426Y-75046506D01*
X119465888Y-75121033D01*
X119442921Y-75144000D01*
X118565699Y-75144000D01*
X118581001Y-75067075D01*
X118581001Y-74932929D01*
X118554830Y-74801362D01*
X118531001Y-74743834D01*
X118531001Y-74606728D01*
X118534053Y-74575738D01*
X118531001Y-74544748D01*
X118531001Y-74544740D01*
X118521871Y-74452040D01*
X118485790Y-74333096D01*
X118456009Y-74277380D01*
X118456009Y-73670671D01*
X118507937Y-73681000D01*
X118642083Y-73681000D01*
X118773650Y-73654829D01*
X118897584Y-73603494D01*
X119009122Y-73528967D01*
X119032089Y-73506000D01*
X119716089Y-73506000D01*
X127226454Y-81016366D01*
X127226454Y-81048847D01*
X127252625Y-81180414D01*
X127303960Y-81304348D01*
X127378487Y-81415886D01*
X127473342Y-81510741D01*
X127584880Y-81585268D01*
X127708814Y-81636603D01*
X127840381Y-81662774D01*
X127974527Y-81662774D01*
X128106094Y-81636603D01*
X128230028Y-81585268D01*
X128341566Y-81510741D01*
X128436421Y-81415886D01*
X128510948Y-81304348D01*
X128562283Y-81180414D01*
X128588454Y-81048847D01*
X128588454Y-80914701D01*
X128562283Y-80783134D01*
X128510948Y-80659200D01*
X128436421Y-80547662D01*
X128341566Y-80452807D01*
X128230028Y-80378280D01*
X128106094Y-80326945D01*
X127974527Y-80300774D01*
X127942046Y-80300774D01*
X127922739Y-80281467D01*
X128915874Y-80281467D01*
X130193998Y-81559592D01*
X130193998Y-81592073D01*
X130220169Y-81723640D01*
X130271504Y-81847574D01*
X130346031Y-81959112D01*
X130436920Y-82050001D01*
X130396033Y-82090888D01*
X130321506Y-82202426D01*
X130270171Y-82326360D01*
X130244000Y-82457927D01*
X130244000Y-82592073D01*
X130270171Y-82723640D01*
X130321506Y-82847574D01*
X130396033Y-82959112D01*
X130490888Y-83053967D01*
X130602426Y-83128494D01*
X130726360Y-83179829D01*
X130857927Y-83206000D01*
X130992073Y-83206000D01*
X131123640Y-83179829D01*
X131247574Y-83128494D01*
X131359112Y-83053967D01*
X131453967Y-82959112D01*
X131528494Y-82847574D01*
X131579829Y-82723640D01*
X131606000Y-82592073D01*
X131606000Y-82559592D01*
X131865221Y-82300371D01*
X131884528Y-82284526D01*
X131947760Y-82207478D01*
X131994746Y-82119574D01*
X132023679Y-82024192D01*
X132031001Y-81949853D01*
X132033449Y-81924999D01*
X132031001Y-81900145D01*
X132031001Y-79224853D01*
X132033449Y-79199999D01*
X132023679Y-79100806D01*
X131994746Y-79005424D01*
X131961123Y-78942521D01*
X131947760Y-78917520D01*
X131884528Y-78840472D01*
X131865221Y-78824627D01*
X127993498Y-74952905D01*
X127993498Y-74569581D01*
X128016465Y-74546614D01*
X128090992Y-74435076D01*
X128142327Y-74311142D01*
X128168498Y-74179575D01*
X128168498Y-74045429D01*
X128142327Y-73913862D01*
X128090992Y-73789928D01*
X128016465Y-73678390D01*
X127921610Y-73583535D01*
X127810072Y-73509008D01*
X127686138Y-73457673D01*
X127554571Y-73431502D01*
X127522090Y-73431502D01*
X122700372Y-68609785D01*
X122684523Y-68590473D01*
X122607475Y-68527241D01*
X122519571Y-68480255D01*
X122424189Y-68451322D01*
X122349850Y-68444000D01*
X122349842Y-68444000D01*
X122324996Y-68441553D01*
X122300150Y-68444000D01*
X102795096Y-68444000D01*
X102755614Y-68245515D01*
X102666588Y-68030587D01*
X102537342Y-67837157D01*
X102372843Y-67672658D01*
X102179413Y-67543412D01*
X101964485Y-67454386D01*
X101736318Y-67409000D01*
X101503682Y-67409000D01*
X101275515Y-67454386D01*
X101060587Y-67543412D01*
X100867157Y-67672658D01*
X100702658Y-67837157D01*
X100573412Y-68030587D01*
X100484386Y-68245515D01*
X100439000Y-68473682D01*
X100439000Y-68706318D01*
X100484386Y-68934485D01*
X100573412Y-69149413D01*
X100702658Y-69342843D01*
X100867157Y-69507342D01*
X101060587Y-69636588D01*
X101275515Y-69725614D01*
X101503682Y-69771000D01*
X101736318Y-69771000D01*
X101964485Y-69725614D01*
X102179413Y-69636588D01*
X102372843Y-69507342D01*
X102424185Y-69456000D01*
X122115405Y-69456000D01*
X126806498Y-74147094D01*
X126806498Y-74179575D01*
X126832669Y-74311142D01*
X126884004Y-74435076D01*
X126958531Y-74546614D01*
X126981498Y-74569581D01*
X126981499Y-75137640D01*
X126979051Y-75162496D01*
X126988820Y-75261688D01*
X126998621Y-75294000D01*
X125182079Y-75294000D01*
X125159112Y-75271033D01*
X125047574Y-75196506D01*
X124923640Y-75145171D01*
X124792073Y-75119000D01*
X124657927Y-75119000D01*
X124526360Y-75145171D01*
X124402426Y-75196506D01*
X124290888Y-75271033D01*
X124196033Y-75365888D01*
X124121506Y-75477426D01*
X124116822Y-75488733D01*
X123816000Y-75187911D01*
X123816000Y-73472079D01*
X123838967Y-73449112D01*
X123913494Y-73337574D01*
X123964829Y-73213640D01*
X123991000Y-73082073D01*
X123991000Y-72947927D01*
X123964829Y-72816360D01*
X123913494Y-72692426D01*
X123838967Y-72580888D01*
X123744112Y-72486033D01*
X123632574Y-72411506D01*
X123508640Y-72360171D01*
X123377073Y-72334000D01*
X123242927Y-72334000D01*
X123111360Y-72360171D01*
X122987426Y-72411506D01*
X122875888Y-72486033D01*
X122781033Y-72580888D01*
X122706506Y-72692426D01*
X122655171Y-72816360D01*
X122629000Y-72947927D01*
X122629000Y-73082073D01*
X122655171Y-73213640D01*
X122706506Y-73337574D01*
X122781033Y-73449112D01*
X122804000Y-73472079D01*
X122804001Y-75162730D01*
X120301056Y-72659785D01*
X120285207Y-72640473D01*
X120208159Y-72577241D01*
X120120255Y-72530255D01*
X120024873Y-72501322D01*
X119950534Y-72494000D01*
X119950526Y-72494000D01*
X119925680Y-72491553D01*
X119900834Y-72494000D01*
X119032089Y-72494000D01*
X119009122Y-72471033D01*
X118897584Y-72396506D01*
X118773650Y-72345171D01*
X118642083Y-72319000D01*
X118507937Y-72319000D01*
X118456009Y-72329329D01*
X118456009Y-72148859D01*
X118771293Y-71833576D01*
X118828821Y-71809747D01*
X118940359Y-71735220D01*
X119035214Y-71640365D01*
X119109741Y-71528827D01*
X119161076Y-71404893D01*
X119187247Y-71273326D01*
X119187247Y-71139180D01*
X119161076Y-71007613D01*
X119109741Y-70883679D01*
X119035214Y-70772141D01*
X118940359Y-70677286D01*
X118828821Y-70602759D01*
X118704887Y-70551424D01*
X118573320Y-70525253D01*
X118439174Y-70525253D01*
X118307607Y-70551424D01*
X118183673Y-70602759D01*
X118072135Y-70677286D01*
X117977280Y-70772141D01*
X117902753Y-70883679D01*
X117878924Y-70941207D01*
X117400746Y-71419386D01*
X117376666Y-71439148D01*
X117297813Y-71535231D01*
X117239220Y-71644850D01*
X117203139Y-71763794D01*
X117194009Y-71856494D01*
X117194009Y-71856501D01*
X117190957Y-71887491D01*
X117194009Y-71918481D01*
X117194010Y-74469746D01*
X117190957Y-74500746D01*
X117203139Y-74624443D01*
X117239220Y-74743387D01*
X117256103Y-74774972D01*
X117245172Y-74801362D01*
X117244638Y-74804046D01*
X114473800Y-72033209D01*
X114473800Y-71649879D01*
X114496767Y-71626912D01*
X114571294Y-71515374D01*
X114622629Y-71391440D01*
X114648800Y-71259873D01*
X114648800Y-71125727D01*
X114622629Y-70994160D01*
X114571294Y-70870226D01*
X114496767Y-70758688D01*
X114401912Y-70663833D01*
X114290374Y-70589306D01*
X114166440Y-70537971D01*
X114034873Y-70511800D01*
X113900727Y-70511800D01*
X113769160Y-70537971D01*
X113645226Y-70589306D01*
X113533688Y-70663833D01*
X113438833Y-70758688D01*
X113364306Y-70870226D01*
X113312971Y-70994160D01*
X113286800Y-71125727D01*
X113286800Y-71259873D01*
X113312971Y-71391440D01*
X113364306Y-71515374D01*
X113438833Y-71626912D01*
X113461800Y-71649879D01*
X113461801Y-72217944D01*
X113459353Y-72242800D01*
X113469122Y-72341992D01*
X113482208Y-72385133D01*
X112806000Y-71708925D01*
X112806000Y-71410013D01*
X112810262Y-71366740D01*
X112806000Y-71323467D01*
X112806000Y-71279969D01*
X112797514Y-71237306D01*
X112793252Y-71194034D01*
X112780631Y-71152427D01*
X112772144Y-71109762D01*
X112755496Y-71069570D01*
X112742875Y-71027965D01*
X112722380Y-70989621D01*
X112705732Y-70949430D01*
X112681562Y-70913257D01*
X112661068Y-70874915D01*
X112633488Y-70841309D01*
X112609318Y-70805135D01*
X112578557Y-70774374D01*
X112550975Y-70740765D01*
X112517366Y-70713183D01*
X112486605Y-70682422D01*
X112450431Y-70658252D01*
X112416825Y-70630672D01*
X112378483Y-70610178D01*
X112342310Y-70586008D01*
X112302119Y-70569360D01*
X112263775Y-70548865D01*
X112222170Y-70536244D01*
X112181978Y-70519596D01*
X112139313Y-70511109D01*
X112097706Y-70498488D01*
X112054434Y-70494226D01*
X112011771Y-70485740D01*
X111968273Y-70485740D01*
X111925000Y-70481478D01*
X111881727Y-70485740D01*
X111838229Y-70485740D01*
X111795566Y-70494226D01*
X111752294Y-70498488D01*
X111710687Y-70511109D01*
X111668022Y-70519596D01*
X111627830Y-70536244D01*
X111586225Y-70548865D01*
X111547881Y-70569360D01*
X111507690Y-70586008D01*
X111471517Y-70610178D01*
X111433175Y-70630672D01*
X111399569Y-70658252D01*
X111363395Y-70682422D01*
X111332634Y-70713183D01*
X111299025Y-70740765D01*
X111271443Y-70774374D01*
X111240682Y-70805135D01*
X111216512Y-70841309D01*
X111188932Y-70874915D01*
X111168438Y-70913257D01*
X111144268Y-70949430D01*
X111127620Y-70989621D01*
X111107125Y-71027965D01*
X111094504Y-71069570D01*
X111077856Y-71109762D01*
X111069369Y-71152427D01*
X111056748Y-71194034D01*
X111052486Y-71237306D01*
X111044000Y-71279969D01*
X111044000Y-71323467D01*
X111039738Y-71366740D01*
X111044000Y-71410013D01*
X111044000Y-72030576D01*
X111039738Y-72073846D01*
X111044000Y-72117116D01*
X111044000Y-72117119D01*
X111056748Y-72246552D01*
X111076299Y-72311000D01*
X111107125Y-72412620D01*
X111188932Y-72565671D01*
X111221419Y-72605256D01*
X111299026Y-72699821D01*
X111332640Y-72727407D01*
X118222592Y-79617360D01*
X118250178Y-79650974D01*
X118303305Y-79694574D01*
X118384327Y-79761067D01*
X118499399Y-79822574D01*
X118537378Y-79842874D01*
X118703447Y-79893251D01*
X118832880Y-79905999D01*
X118832883Y-79905999D01*
X118876153Y-79910261D01*
X118919423Y-79905999D01*
X121110078Y-79905999D01*
X122592389Y-81388311D01*
X122592395Y-81388316D01*
X122969001Y-81764922D01*
X122969000Y-84413229D01*
X122969000Y-84586771D01*
X122977486Y-84629435D01*
X122979849Y-84653419D01*
X122927242Y-84717520D01*
X122880256Y-84805425D01*
X122866658Y-84850252D01*
X114957352Y-92759559D01*
X114911467Y-92690888D01*
X114888500Y-92667921D01*
X114888500Y-88948456D01*
X114890948Y-88923602D01*
X114881178Y-88824409D01*
X114852245Y-88729027D01*
X114850976Y-88726652D01*
X114805259Y-88641123D01*
X114742027Y-88564075D01*
X114722720Y-88548230D01*
X110719891Y-84545401D01*
X110788562Y-84499517D01*
X110883417Y-84404662D01*
X110957944Y-84293124D01*
X111009279Y-84169190D01*
X111035450Y-84037623D01*
X111035450Y-83903477D01*
X111009279Y-83771910D01*
X110957944Y-83647976D01*
X110883417Y-83536438D01*
X110788562Y-83441583D01*
X110751000Y-83416485D01*
X110751000Y-76012079D01*
X110773967Y-75989112D01*
X110848494Y-75877574D01*
X110899829Y-75753640D01*
X110926000Y-75622073D01*
X110926000Y-75487927D01*
X110899829Y-75356360D01*
X110848494Y-75232426D01*
X110773967Y-75120888D01*
X110679112Y-75026033D01*
X110567574Y-74951506D01*
X110443640Y-74900171D01*
X110312073Y-74874000D01*
X110177927Y-74874000D01*
X110046360Y-74900171D01*
X109922426Y-74951506D01*
X109810888Y-75026033D01*
X109716033Y-75120888D01*
X109641506Y-75232426D01*
X109590171Y-75356360D01*
X109564000Y-75487927D01*
X109564000Y-75622073D01*
X109590171Y-75753640D01*
X109641506Y-75877574D01*
X109716033Y-75989112D01*
X109739000Y-76012079D01*
X109739001Y-83564512D01*
X106250918Y-80076429D01*
X106253494Y-80072574D01*
X106304829Y-79948640D01*
X106331000Y-79817073D01*
X106331000Y-79682927D01*
X106304829Y-79551360D01*
X106253494Y-79427426D01*
X106178967Y-79315888D01*
X106084112Y-79221033D01*
X105972574Y-79146506D01*
X105848640Y-79095171D01*
X105717073Y-79069000D01*
X105582927Y-79069000D01*
X105451360Y-79095171D01*
X105327426Y-79146506D01*
X105215888Y-79221033D01*
X105121033Y-79315888D01*
X105046506Y-79427426D01*
X104995171Y-79551360D01*
X104969750Y-79679158D01*
X102395388Y-77104797D01*
X102537342Y-76962843D01*
X102666588Y-76769413D01*
X102755614Y-76554485D01*
X102801000Y-76326318D01*
X102801000Y-76093682D01*
X102755614Y-75865515D01*
X102666588Y-75650587D01*
X102537342Y-75457157D01*
X102372843Y-75292658D01*
X102179413Y-75163412D01*
X101964485Y-75074386D01*
X101736318Y-75029000D01*
X101503682Y-75029000D01*
X101275515Y-75074386D01*
X101060587Y-75163412D01*
X100867157Y-75292658D01*
X100702658Y-75457157D01*
X100573412Y-75650587D01*
X100484386Y-75865515D01*
X100439000Y-76093682D01*
X100439000Y-76326318D01*
X100484386Y-76554485D01*
X100573412Y-76769413D01*
X100613227Y-76829001D01*
X87714592Y-76829001D01*
X87555374Y-76669783D01*
X87555369Y-76669777D01*
X87493490Y-76607898D01*
X87515614Y-76554485D01*
X87561000Y-76326318D01*
X87561000Y-76093682D01*
X87515614Y-75865515D01*
X87426588Y-75650587D01*
X87297342Y-75457157D01*
X87132843Y-75292658D01*
X86939413Y-75163412D01*
X86724485Y-75074386D01*
X86496318Y-75029000D01*
X86263682Y-75029000D01*
X86035515Y-75074386D01*
X85820587Y-75163412D01*
X85627157Y-75292658D01*
X85462658Y-75457157D01*
X85333412Y-75650587D01*
X85244386Y-75865515D01*
X85199000Y-76093682D01*
X83481001Y-76093682D01*
X83481001Y-74574855D01*
X83483449Y-74550001D01*
X83473679Y-74450808D01*
X83444746Y-74355426D01*
X83429474Y-74326854D01*
X83397760Y-74267522D01*
X83334528Y-74190474D01*
X83315221Y-74174629D01*
X82694274Y-73553682D01*
X85199000Y-73553682D01*
X85199000Y-73786318D01*
X85244386Y-74014485D01*
X85333412Y-74229413D01*
X85462658Y-74422843D01*
X85627157Y-74587342D01*
X85820587Y-74716588D01*
X86035515Y-74805614D01*
X86263682Y-74851000D01*
X86496318Y-74851000D01*
X86724485Y-74805614D01*
X86939413Y-74716588D01*
X87132843Y-74587342D01*
X87297342Y-74422843D01*
X87426588Y-74229413D01*
X87515614Y-74014485D01*
X87561000Y-73786318D01*
X87561000Y-73553682D01*
X100439000Y-73553682D01*
X100439000Y-73786318D01*
X100484386Y-74014485D01*
X100573412Y-74229413D01*
X100702658Y-74422843D01*
X100867157Y-74587342D01*
X101060587Y-74716588D01*
X101275515Y-74805614D01*
X101503682Y-74851000D01*
X101736318Y-74851000D01*
X101964485Y-74805614D01*
X102179413Y-74716588D01*
X102372843Y-74587342D01*
X102537342Y-74422843D01*
X102666588Y-74229413D01*
X102755614Y-74014485D01*
X102801000Y-73786318D01*
X102801000Y-73553682D01*
X102755614Y-73325515D01*
X102666588Y-73110587D01*
X102537342Y-72917157D01*
X102372843Y-72752658D01*
X102179413Y-72623412D01*
X101964485Y-72534386D01*
X101736318Y-72489000D01*
X101503682Y-72489000D01*
X101275515Y-72534386D01*
X101060587Y-72623412D01*
X100867157Y-72752658D01*
X100702658Y-72917157D01*
X100573412Y-73110587D01*
X100484386Y-73325515D01*
X100439000Y-73553682D01*
X87561000Y-73553682D01*
X87515614Y-73325515D01*
X87426588Y-73110587D01*
X87297342Y-72917157D01*
X87132843Y-72752658D01*
X86939413Y-72623412D01*
X86724485Y-72534386D01*
X86496318Y-72489000D01*
X86263682Y-72489000D01*
X86035515Y-72534386D01*
X85820587Y-72623412D01*
X85627157Y-72752658D01*
X85462658Y-72917157D01*
X85333412Y-73110587D01*
X85244386Y-73325515D01*
X85199000Y-73553682D01*
X82694274Y-73553682D01*
X80154274Y-71013682D01*
X85199000Y-71013682D01*
X85199000Y-71246318D01*
X85244386Y-71474485D01*
X85333412Y-71689413D01*
X85462658Y-71882843D01*
X85627157Y-72047342D01*
X85820587Y-72176588D01*
X86035515Y-72265614D01*
X86263682Y-72311000D01*
X86496318Y-72311000D01*
X86724485Y-72265614D01*
X86939413Y-72176588D01*
X87132843Y-72047342D01*
X87297342Y-71882843D01*
X87426588Y-71689413D01*
X87515614Y-71474485D01*
X87561000Y-71246318D01*
X87561000Y-71013682D01*
X100439000Y-71013682D01*
X100439000Y-71246318D01*
X100484386Y-71474485D01*
X100573412Y-71689413D01*
X100702658Y-71882843D01*
X100867157Y-72047342D01*
X101060587Y-72176588D01*
X101275515Y-72265614D01*
X101503682Y-72311000D01*
X101736318Y-72311000D01*
X101964485Y-72265614D01*
X102179413Y-72176588D01*
X102372843Y-72047342D01*
X102537342Y-71882843D01*
X102666588Y-71689413D01*
X102755614Y-71474485D01*
X102801000Y-71246318D01*
X102801000Y-71013682D01*
X102755614Y-70785515D01*
X102666588Y-70570587D01*
X102537342Y-70377157D01*
X102372843Y-70212658D01*
X102179413Y-70083412D01*
X101964485Y-69994386D01*
X101736318Y-69949000D01*
X101503682Y-69949000D01*
X101275515Y-69994386D01*
X101060587Y-70083412D01*
X100867157Y-70212658D01*
X100702658Y-70377157D01*
X100573412Y-70570587D01*
X100484386Y-70785515D01*
X100439000Y-71013682D01*
X87561000Y-71013682D01*
X87515614Y-70785515D01*
X87426588Y-70570587D01*
X87297342Y-70377157D01*
X87132843Y-70212658D01*
X86939413Y-70083412D01*
X86724485Y-69994386D01*
X86710763Y-69991657D01*
X86730130Y-69988787D01*
X86996292Y-69893603D01*
X87121514Y-69826671D01*
X87193097Y-69582702D01*
X86380000Y-68769605D01*
X85566903Y-69582702D01*
X85638486Y-69826671D01*
X85893996Y-69947571D01*
X86060741Y-69989368D01*
X86035515Y-69994386D01*
X85820587Y-70083412D01*
X85627157Y-70212658D01*
X85462658Y-70377157D01*
X85333412Y-70570587D01*
X85244386Y-70785515D01*
X85199000Y-71013682D01*
X80154274Y-71013682D01*
X78756000Y-69615409D01*
X78756000Y-69582927D01*
X78729829Y-69451360D01*
X78678494Y-69327426D01*
X78603967Y-69215888D01*
X78509112Y-69121033D01*
X78397574Y-69046506D01*
X78273640Y-68995171D01*
X78142073Y-68969000D01*
X78007927Y-68969000D01*
X77876360Y-68995171D01*
X77752426Y-69046506D01*
X77640888Y-69121033D01*
X77546033Y-69215888D01*
X77516612Y-69259919D01*
X76917205Y-68660512D01*
X84939783Y-68660512D01*
X84981213Y-68940130D01*
X85076397Y-69206292D01*
X85143329Y-69331514D01*
X85387298Y-69403097D01*
X86200395Y-68590000D01*
X86559605Y-68590000D01*
X87372702Y-69403097D01*
X87616671Y-69331514D01*
X87737571Y-69076004D01*
X87806300Y-68801816D01*
X87820217Y-68519488D01*
X87778787Y-68239870D01*
X87683603Y-67973708D01*
X87616671Y-67848486D01*
X87372702Y-67776903D01*
X86559605Y-68590000D01*
X86200395Y-68590000D01*
X85387298Y-67776903D01*
X85143329Y-67848486D01*
X85022429Y-68103996D01*
X84953700Y-68378184D01*
X84939783Y-68660512D01*
X76917205Y-68660512D01*
X74190375Y-65933682D01*
X85199000Y-65933682D01*
X85199000Y-66166318D01*
X85244386Y-66394485D01*
X85333412Y-66609413D01*
X85462658Y-66802843D01*
X85627157Y-66967342D01*
X85820587Y-67096588D01*
X86035515Y-67185614D01*
X86049237Y-67188343D01*
X86029870Y-67191213D01*
X85763708Y-67286397D01*
X85638486Y-67353329D01*
X85566903Y-67597298D01*
X86380000Y-68410395D01*
X87193097Y-67597298D01*
X87121514Y-67353329D01*
X86866004Y-67232429D01*
X86699259Y-67190632D01*
X86724485Y-67185614D01*
X86939413Y-67096588D01*
X87132843Y-66967342D01*
X87297342Y-66802843D01*
X87426588Y-66609413D01*
X87515614Y-66394485D01*
X87561000Y-66166318D01*
X87561000Y-65933682D01*
X100439000Y-65933682D01*
X100439000Y-66166318D01*
X100484386Y-66394485D01*
X100573412Y-66609413D01*
X100702658Y-66802843D01*
X100867157Y-66967342D01*
X101060587Y-67096588D01*
X101275515Y-67185614D01*
X101503682Y-67231000D01*
X101736318Y-67231000D01*
X101964485Y-67185614D01*
X102179413Y-67096588D01*
X102372843Y-66967342D01*
X102537342Y-66802843D01*
X102666588Y-66609413D01*
X102755614Y-66394485D01*
X102801000Y-66166318D01*
X102801000Y-65933682D01*
X102755614Y-65705515D01*
X102666588Y-65490587D01*
X102537342Y-65297157D01*
X102372843Y-65132658D01*
X102179413Y-65003412D01*
X101964485Y-64914386D01*
X101950763Y-64911657D01*
X101970130Y-64908787D01*
X102236292Y-64813603D01*
X102361514Y-64746671D01*
X102433097Y-64502702D01*
X101620000Y-63689605D01*
X100806903Y-64502702D01*
X100878486Y-64746671D01*
X101133996Y-64867571D01*
X101300741Y-64909368D01*
X101275515Y-64914386D01*
X101060587Y-65003412D01*
X100867157Y-65132658D01*
X100702658Y-65297157D01*
X100573412Y-65490587D01*
X100484386Y-65705515D01*
X100439000Y-65933682D01*
X87561000Y-65933682D01*
X87515614Y-65705515D01*
X87426588Y-65490587D01*
X87297342Y-65297157D01*
X87132843Y-65132658D01*
X86939413Y-65003412D01*
X86724485Y-64914386D01*
X86496318Y-64869000D01*
X86263682Y-64869000D01*
X86035515Y-64914386D01*
X85820587Y-65003412D01*
X85627157Y-65132658D01*
X85462658Y-65297157D01*
X85333412Y-65490587D01*
X85244386Y-65705515D01*
X85199000Y-65933682D01*
X74190375Y-65933682D01*
X74123500Y-65866807D01*
X74123500Y-63393682D01*
X85199000Y-63393682D01*
X85199000Y-63626318D01*
X85244386Y-63854485D01*
X85333412Y-64069413D01*
X85462658Y-64262843D01*
X85627157Y-64427342D01*
X85820587Y-64556588D01*
X86035515Y-64645614D01*
X86263682Y-64691000D01*
X86496318Y-64691000D01*
X86724485Y-64645614D01*
X86939413Y-64556588D01*
X87132843Y-64427342D01*
X87297342Y-64262843D01*
X87426588Y-64069413D01*
X87515614Y-63854485D01*
X87561000Y-63626318D01*
X87561000Y-63580512D01*
X100179783Y-63580512D01*
X100221213Y-63860130D01*
X100316397Y-64126292D01*
X100383329Y-64251514D01*
X100627298Y-64323097D01*
X101440395Y-63510000D01*
X101799605Y-63510000D01*
X102612702Y-64323097D01*
X102856671Y-64251514D01*
X102977571Y-63996004D01*
X103046300Y-63721816D01*
X103060217Y-63439488D01*
X103018787Y-63159870D01*
X102923603Y-62893708D01*
X102856671Y-62768486D01*
X102612702Y-62696903D01*
X101799605Y-63510000D01*
X101440395Y-63510000D01*
X100627298Y-62696903D01*
X100383329Y-62768486D01*
X100262429Y-63023996D01*
X100193700Y-63298184D01*
X100179783Y-63580512D01*
X87561000Y-63580512D01*
X87561000Y-63393682D01*
X87515614Y-63165515D01*
X87426588Y-62950587D01*
X87297342Y-62757157D01*
X87132843Y-62592658D01*
X86939413Y-62463412D01*
X86724485Y-62374386D01*
X86496318Y-62329000D01*
X86263682Y-62329000D01*
X86035515Y-62374386D01*
X85820587Y-62463412D01*
X85627157Y-62592658D01*
X85462658Y-62757157D01*
X85333412Y-62950587D01*
X85244386Y-63165515D01*
X85199000Y-63393682D01*
X74123500Y-63393682D01*
X74123500Y-62332079D01*
X74146467Y-62309112D01*
X74220994Y-62197574D01*
X74272329Y-62073640D01*
X74298500Y-61942073D01*
X74298500Y-61807927D01*
X74288171Y-61755999D01*
X76190408Y-61755999D01*
X76219000Y-61784591D01*
X76219000Y-61817073D01*
X76245171Y-61948640D01*
X76296506Y-62072574D01*
X76371033Y-62184112D01*
X76465888Y-62278967D01*
X76577426Y-62353494D01*
X76701360Y-62404829D01*
X76832927Y-62431000D01*
X76967073Y-62431000D01*
X77098640Y-62404829D01*
X77222574Y-62353494D01*
X77334112Y-62278967D01*
X77428967Y-62184112D01*
X77503494Y-62072574D01*
X77554829Y-61948640D01*
X77581000Y-61817073D01*
X77581000Y-61682927D01*
X77554829Y-61551360D01*
X77503494Y-61427426D01*
X77428967Y-61315888D01*
X77334112Y-61221033D01*
X77222574Y-61146506D01*
X77098640Y-61095171D01*
X76967073Y-61069000D01*
X76934591Y-61069000D01*
X76775375Y-60909784D01*
X76759526Y-60890472D01*
X76682478Y-60827240D01*
X76594574Y-60780254D01*
X76499192Y-60751321D01*
X76424853Y-60743999D01*
X76424845Y-60743999D01*
X76399999Y-60741552D01*
X76375153Y-60743999D01*
X73342344Y-60743999D01*
X73317498Y-60741552D01*
X73292652Y-60743999D01*
X73292645Y-60743999D01*
X73218306Y-60751321D01*
X73122924Y-60780254D01*
X73035020Y-60827240D01*
X72957972Y-60890472D01*
X72942127Y-60909779D01*
X64309783Y-69542124D01*
X64290472Y-69557972D01*
X64239880Y-69619618D01*
X64236771Y-69619000D01*
X64193273Y-69619000D01*
X64150000Y-69614738D01*
X64106727Y-69619000D01*
X64063229Y-69619000D01*
X64020566Y-69627486D01*
X63977294Y-69631748D01*
X63935687Y-69644369D01*
X63893022Y-69652856D01*
X63852830Y-69669504D01*
X63811225Y-69682125D01*
X63772881Y-69702620D01*
X63732690Y-69719268D01*
X63696517Y-69743438D01*
X63658175Y-69763932D01*
X63624569Y-69791512D01*
X63588395Y-69815682D01*
X63557634Y-69846443D01*
X63524025Y-69874025D01*
X63496445Y-69907632D01*
X63465682Y-69938395D01*
X63441509Y-69974573D01*
X63413932Y-70008176D01*
X63393440Y-70046513D01*
X63369268Y-70082690D01*
X63352618Y-70122886D01*
X63332125Y-70161226D01*
X63319505Y-70202827D01*
X63302856Y-70243022D01*
X63294369Y-70285690D01*
X63281748Y-70327295D01*
X63277486Y-70370565D01*
X63269000Y-70413229D01*
X63269000Y-70456728D01*
X63269001Y-73556720D01*
X63264738Y-73600000D01*
X60632128Y-73600000D01*
X60621513Y-73584114D01*
X60526658Y-73489259D01*
X60415120Y-73414732D01*
X60291186Y-73363397D01*
X60159619Y-73337226D01*
X60025473Y-73337226D01*
X59893906Y-73363397D01*
X59769972Y-73414732D01*
X59658434Y-73489259D01*
X59563579Y-73584114D01*
X59489052Y-73695652D01*
X59437717Y-73819586D01*
X59411546Y-73951153D01*
X59411546Y-74085299D01*
X59437717Y-74216866D01*
X59489052Y-74340800D01*
X59563579Y-74452338D01*
X59658434Y-74547193D01*
X59769972Y-74621720D01*
X59893906Y-74673055D01*
X60025473Y-74699226D01*
X60057955Y-74699226D01*
X60077262Y-74718533D01*
X59084127Y-74718533D01*
X57806002Y-73440409D01*
X57806002Y-73407927D01*
X57779831Y-73276360D01*
X57728496Y-73152426D01*
X57653969Y-73040888D01*
X57563080Y-72949999D01*
X57603967Y-72909112D01*
X57678494Y-72797574D01*
X57729829Y-72673640D01*
X57756000Y-72542073D01*
X57756000Y-72407927D01*
X57729829Y-72276360D01*
X57678494Y-72152426D01*
X57603967Y-72040888D01*
X57509112Y-71946033D01*
X57397574Y-71871506D01*
X57273640Y-71820171D01*
X57142073Y-71794000D01*
X57007927Y-71794000D01*
X56876360Y-71820171D01*
X56752426Y-71871506D01*
X56640888Y-71946033D01*
X56546033Y-72040888D01*
X56471506Y-72152426D01*
X56420171Y-72276360D01*
X56394000Y-72407927D01*
X56394000Y-72440409D01*
X56134779Y-72699630D01*
X56115473Y-72715474D01*
X56052241Y-72792522D01*
X56037326Y-72820426D01*
X56005254Y-72880427D01*
X55976321Y-72975809D01*
X55966552Y-73075001D01*
X52406000Y-73075001D01*
X52406000Y-68519932D01*
X52407963Y-68499999D01*
X52406000Y-68480066D01*
X52406000Y-68480059D01*
X52400125Y-68420410D01*
X52376910Y-68343879D01*
X52339210Y-68273347D01*
X52288474Y-68211526D01*
X52272988Y-68198817D01*
X50406000Y-66331831D01*
X50406000Y-60170000D01*
X85197157Y-60170000D01*
X85197157Y-61770000D01*
X85204513Y-61844689D01*
X85226299Y-61916508D01*
X85261678Y-61982696D01*
X85309289Y-62040711D01*
X85367304Y-62088322D01*
X85433492Y-62123701D01*
X85505311Y-62145487D01*
X85580000Y-62152843D01*
X87180000Y-62152843D01*
X87254689Y-62145487D01*
X87326508Y-62123701D01*
X87392696Y-62088322D01*
X87450711Y-62040711D01*
X87498322Y-61982696D01*
X87533701Y-61916508D01*
X87555487Y-61844689D01*
X87562843Y-61770000D01*
X87562843Y-60170000D01*
X100437157Y-60170000D01*
X100437157Y-61770000D01*
X100444513Y-61844689D01*
X100466299Y-61916508D01*
X100501678Y-61982696D01*
X100549289Y-62040711D01*
X100607304Y-62088322D01*
X100673492Y-62123701D01*
X100745311Y-62145487D01*
X100820000Y-62152843D01*
X101153460Y-62152843D01*
X101003708Y-62206397D01*
X100878486Y-62273329D01*
X100806903Y-62517298D01*
X101620000Y-63330395D01*
X102433097Y-62517298D01*
X102361514Y-62273329D01*
X102106879Y-62152843D01*
X102420000Y-62152843D01*
X102494689Y-62145487D01*
X102566508Y-62123701D01*
X102632696Y-62088322D01*
X102690711Y-62040711D01*
X102738322Y-61982696D01*
X102773701Y-61916508D01*
X102795487Y-61844689D01*
X102802843Y-61770000D01*
X102802843Y-60170000D01*
X102795487Y-60095311D01*
X102773701Y-60023492D01*
X102738322Y-59957304D01*
X102690711Y-59899289D01*
X102632696Y-59851678D01*
X102566508Y-59816299D01*
X102494689Y-59794513D01*
X102420000Y-59787157D01*
X100820000Y-59787157D01*
X100745311Y-59794513D01*
X100673492Y-59816299D01*
X100607304Y-59851678D01*
X100549289Y-59899289D01*
X100501678Y-59957304D01*
X100466299Y-60023492D01*
X100444513Y-60095311D01*
X100437157Y-60170000D01*
X87562843Y-60170000D01*
X87555487Y-60095311D01*
X87533701Y-60023492D01*
X87498322Y-59957304D01*
X87450711Y-59899289D01*
X87392696Y-59851678D01*
X87326508Y-59816299D01*
X87254689Y-59794513D01*
X87180000Y-59787157D01*
X85580000Y-59787157D01*
X85505311Y-59794513D01*
X85433492Y-59816299D01*
X85367304Y-59851678D01*
X85309289Y-59899289D01*
X85261678Y-59957304D01*
X85226299Y-60023492D01*
X85204513Y-60095311D01*
X85197157Y-60170000D01*
X50406000Y-60170000D01*
X50406000Y-59695196D01*
X115574000Y-59695196D01*
X115574000Y-61354803D01*
X115594561Y-61563564D01*
X115675816Y-61831423D01*
X115807765Y-62078284D01*
X115985340Y-62294659D01*
X116201715Y-62472235D01*
X116448576Y-62604184D01*
X116716435Y-62685439D01*
X116995000Y-62712875D01*
X117273564Y-62685439D01*
X117541423Y-62604184D01*
X117788284Y-62472235D01*
X117967689Y-62325000D01*
X120396928Y-62325000D01*
X120409188Y-62449482D01*
X120445498Y-62569180D01*
X120504463Y-62679494D01*
X120583815Y-62776185D01*
X120680506Y-62855537D01*
X120790820Y-62914502D01*
X120910518Y-62950812D01*
X121035000Y-62963072D01*
X121789250Y-62960000D01*
X121948000Y-62801250D01*
X121948000Y-60652000D01*
X122202000Y-60652000D01*
X122202000Y-62801250D01*
X122360750Y-62960000D01*
X123115000Y-62963072D01*
X123239482Y-62950812D01*
X123359180Y-62914502D01*
X123469494Y-62855537D01*
X123566185Y-62776185D01*
X123645537Y-62679494D01*
X123704502Y-62569180D01*
X123740812Y-62449482D01*
X123753072Y-62325000D01*
X123750000Y-60810750D01*
X123591250Y-60652000D01*
X122202000Y-60652000D01*
X121948000Y-60652000D01*
X120558750Y-60652000D01*
X120400000Y-60810750D01*
X120396928Y-62325000D01*
X117967689Y-62325000D01*
X118004659Y-62294660D01*
X118182235Y-62078285D01*
X118314184Y-61831424D01*
X118395439Y-61563565D01*
X118416000Y-61354804D01*
X118416000Y-59695196D01*
X118395439Y-59486435D01*
X118314184Y-59218576D01*
X118182235Y-58971715D01*
X118004660Y-58755340D01*
X117967691Y-58725000D01*
X120396928Y-58725000D01*
X120400000Y-60239250D01*
X120558750Y-60398000D01*
X121948000Y-60398000D01*
X121948000Y-58248750D01*
X122202000Y-58248750D01*
X122202000Y-60398000D01*
X123591250Y-60398000D01*
X123750000Y-60239250D01*
X123753072Y-58725000D01*
X123740812Y-58600518D01*
X123704502Y-58480820D01*
X123645537Y-58370506D01*
X123566185Y-58273815D01*
X123469494Y-58194463D01*
X123359180Y-58135498D01*
X123239482Y-58099188D01*
X123115000Y-58086928D01*
X122360750Y-58090000D01*
X122202000Y-58248750D01*
X121948000Y-58248750D01*
X121789250Y-58090000D01*
X121035000Y-58086928D01*
X120910518Y-58099188D01*
X120790820Y-58135498D01*
X120680506Y-58194463D01*
X120583815Y-58273815D01*
X120504463Y-58370506D01*
X120445498Y-58480820D01*
X120409188Y-58600518D01*
X120396928Y-58725000D01*
X117967691Y-58725000D01*
X117788285Y-58577765D01*
X117541424Y-58445816D01*
X117273565Y-58364561D01*
X116995000Y-58337125D01*
X116716436Y-58364561D01*
X116448577Y-58445816D01*
X116201716Y-58577765D01*
X115985341Y-58755340D01*
X115807766Y-58971715D01*
X115675817Y-59218576D01*
X115594561Y-59486435D01*
X115574000Y-59695196D01*
X50406000Y-59695196D01*
X50406000Y-55315132D01*
X50718456Y-55782754D01*
X51217246Y-56281544D01*
X51803760Y-56673441D01*
X52455461Y-56943384D01*
X53147302Y-57081000D01*
X53852698Y-57081000D01*
X54544539Y-56943384D01*
X55196240Y-56673441D01*
X55782754Y-56281544D01*
X56281544Y-55782754D01*
X56673441Y-55196240D01*
X56943384Y-54544539D01*
X57081000Y-53852698D01*
X57081000Y-53147302D01*
X56943384Y-52455461D01*
X56673441Y-51803760D01*
X56281544Y-51217246D01*
X55782754Y-50718456D01*
X55315132Y-50406000D01*
X132684868Y-50406000D01*
X132217246Y-50718456D01*
M02*
