G04 #@! TF.GenerationSoftware,KiCad,Pcbnew,(5.1.4)-1*
G04 #@! TF.CreationDate,2020-03-06T17:17:20+01:00*
G04 #@! TF.ProjectId,asserv_brushless,61737365-7276-45f6-9272-7573686c6573,rev?*
G04 #@! TF.SameCoordinates,Original*
G04 #@! TF.FileFunction,Soldermask,Top*
G04 #@! TF.FilePolarity,Negative*
%FSLAX46Y46*%
G04 Gerber Fmt 4.6, Leading zero omitted, Abs format (unit mm)*
G04 Created by KiCad (PCBNEW (5.1.4)-1) date 2020-03-06 17:17:20*
%MOMM*%
%LPD*%
G04 APERTURE LIST*
%ADD10C,0.100000*%
G04 APERTURE END LIST*
D10*
G36*
X135134239Y-98311467D02*
G01*
X135448282Y-98373934D01*
X136039926Y-98619001D01*
X136572392Y-98974784D01*
X137025216Y-99427608D01*
X137380999Y-99960074D01*
X137626066Y-100551718D01*
X137751000Y-101179804D01*
X137751000Y-101820196D01*
X137626066Y-102448282D01*
X137380999Y-103039926D01*
X137025216Y-103572392D01*
X136572392Y-104025216D01*
X136039926Y-104380999D01*
X135448282Y-104626066D01*
X135134239Y-104688533D01*
X134820197Y-104751000D01*
X134179803Y-104751000D01*
X133865761Y-104688533D01*
X133551718Y-104626066D01*
X132960074Y-104380999D01*
X132427608Y-104025216D01*
X131974784Y-103572392D01*
X131619001Y-103039926D01*
X131373934Y-102448282D01*
X131249000Y-101820196D01*
X131249000Y-101179804D01*
X131373934Y-100551718D01*
X131619001Y-99960074D01*
X131974784Y-99427608D01*
X132427608Y-98974784D01*
X132960074Y-98619001D01*
X133551718Y-98373934D01*
X133865761Y-98311467D01*
X134179803Y-98249000D01*
X134820197Y-98249000D01*
X135134239Y-98311467D01*
X135134239Y-98311467D01*
G37*
G36*
X54134239Y-98311467D02*
G01*
X54448282Y-98373934D01*
X55039926Y-98619001D01*
X55572392Y-98974784D01*
X56025216Y-99427608D01*
X56380999Y-99960074D01*
X56626066Y-100551718D01*
X56751000Y-101179804D01*
X56751000Y-101820196D01*
X56626066Y-102448282D01*
X56380999Y-103039926D01*
X56025216Y-103572392D01*
X55572392Y-104025216D01*
X55039926Y-104380999D01*
X54448282Y-104626066D01*
X54134239Y-104688533D01*
X53820197Y-104751000D01*
X53179803Y-104751000D01*
X52865761Y-104688533D01*
X52551718Y-104626066D01*
X51960074Y-104380999D01*
X51427608Y-104025216D01*
X50974784Y-103572392D01*
X50619001Y-103039926D01*
X50373934Y-102448282D01*
X50249000Y-101820196D01*
X50249000Y-101179804D01*
X50373934Y-100551718D01*
X50619001Y-99960074D01*
X50974784Y-99427608D01*
X51427608Y-98974784D01*
X51960074Y-98619001D01*
X52551718Y-98373934D01*
X52865761Y-98311467D01*
X53179803Y-98249000D01*
X53820197Y-98249000D01*
X54134239Y-98311467D01*
X54134239Y-98311467D01*
G37*
G36*
X109234810Y-101645935D02*
G01*
X109381309Y-101706617D01*
X109381310Y-101706618D01*
X109513158Y-101794716D01*
X109625284Y-101906842D01*
X109625285Y-101906844D01*
X109713383Y-102038691D01*
X109774065Y-102185190D01*
X109805000Y-102340713D01*
X109805000Y-102499287D01*
X109774065Y-102654810D01*
X109713383Y-102801309D01*
X109713382Y-102801310D01*
X109625284Y-102933158D01*
X109513158Y-103045284D01*
X109446785Y-103089633D01*
X109381309Y-103133383D01*
X109234810Y-103194065D01*
X109079287Y-103225000D01*
X108920713Y-103225000D01*
X108765190Y-103194065D01*
X108618691Y-103133383D01*
X108553215Y-103089633D01*
X108486842Y-103045284D01*
X108374716Y-102933158D01*
X108286618Y-102801310D01*
X108286617Y-102801309D01*
X108225935Y-102654810D01*
X108195000Y-102499287D01*
X108195000Y-102340713D01*
X108225935Y-102185190D01*
X108286617Y-102038691D01*
X108374715Y-101906844D01*
X108374716Y-101906842D01*
X108486842Y-101794716D01*
X108618690Y-101706618D01*
X108618691Y-101706617D01*
X108765190Y-101645935D01*
X108920713Y-101615000D01*
X109079287Y-101615000D01*
X109234810Y-101645935D01*
X109234810Y-101645935D01*
G37*
G36*
X79805000Y-103205000D02*
G01*
X78195000Y-103205000D01*
X78195000Y-101595000D01*
X79805000Y-101595000D01*
X79805000Y-103205000D01*
X79805000Y-103205000D01*
G37*
G36*
X109234810Y-99105935D02*
G01*
X109381309Y-99166617D01*
X109381310Y-99166618D01*
X109513158Y-99254716D01*
X109625284Y-99366842D01*
X109625285Y-99366844D01*
X109713383Y-99498691D01*
X109774065Y-99645190D01*
X109805000Y-99800713D01*
X109805000Y-99959287D01*
X109774065Y-100114810D01*
X109713383Y-100261309D01*
X109713382Y-100261310D01*
X109625284Y-100393158D01*
X109513158Y-100505284D01*
X109446785Y-100549633D01*
X109381309Y-100593383D01*
X109234810Y-100654065D01*
X109079287Y-100685000D01*
X108920713Y-100685000D01*
X108765190Y-100654065D01*
X108618691Y-100593383D01*
X108553215Y-100549633D01*
X108486842Y-100505284D01*
X108374716Y-100393158D01*
X108286618Y-100261310D01*
X108286617Y-100261309D01*
X108225935Y-100114810D01*
X108195000Y-99959287D01*
X108195000Y-99800713D01*
X108225935Y-99645190D01*
X108286617Y-99498691D01*
X108374715Y-99366844D01*
X108374716Y-99366842D01*
X108486842Y-99254716D01*
X108618690Y-99166618D01*
X108618691Y-99166617D01*
X108765190Y-99105935D01*
X108920713Y-99075000D01*
X109079287Y-99075000D01*
X109234810Y-99105935D01*
X109234810Y-99105935D01*
G37*
G36*
X79234810Y-99085935D02*
G01*
X79381309Y-99146617D01*
X79381310Y-99146618D01*
X79513158Y-99234716D01*
X79625284Y-99346842D01*
X79638649Y-99366844D01*
X79713383Y-99478691D01*
X79774065Y-99625190D01*
X79805000Y-99780713D01*
X79805000Y-99939287D01*
X79774065Y-100094810D01*
X79713383Y-100241309D01*
X79669633Y-100306785D01*
X79625284Y-100373158D01*
X79513158Y-100485284D01*
X79483226Y-100505284D01*
X79381309Y-100573383D01*
X79234810Y-100634065D01*
X79079287Y-100665000D01*
X78920713Y-100665000D01*
X78765190Y-100634065D01*
X78618691Y-100573383D01*
X78516774Y-100505284D01*
X78486842Y-100485284D01*
X78374716Y-100373158D01*
X78330367Y-100306785D01*
X78286617Y-100241309D01*
X78225935Y-100094810D01*
X78195000Y-99939287D01*
X78195000Y-99780713D01*
X78225935Y-99625190D01*
X78286617Y-99478691D01*
X78361351Y-99366844D01*
X78374716Y-99346842D01*
X78486842Y-99234716D01*
X78618690Y-99146618D01*
X78618691Y-99146617D01*
X78765190Y-99085935D01*
X78920713Y-99055000D01*
X79079287Y-99055000D01*
X79234810Y-99085935D01*
X79234810Y-99085935D01*
G37*
G36*
X109234810Y-96565935D02*
G01*
X109381309Y-96626617D01*
X109381310Y-96626618D01*
X109513158Y-96714716D01*
X109625284Y-96826842D01*
X109625285Y-96826844D01*
X109713383Y-96958691D01*
X109774065Y-97105190D01*
X109805000Y-97260713D01*
X109805000Y-97419287D01*
X109774065Y-97574810D01*
X109713383Y-97721309D01*
X109713382Y-97721310D01*
X109625284Y-97853158D01*
X109513158Y-97965284D01*
X109446785Y-98009633D01*
X109381309Y-98053383D01*
X109234810Y-98114065D01*
X109079287Y-98145000D01*
X108920713Y-98145000D01*
X108765190Y-98114065D01*
X108618691Y-98053383D01*
X108553215Y-98009633D01*
X108486842Y-97965284D01*
X108374716Y-97853158D01*
X108286618Y-97721310D01*
X108286617Y-97721309D01*
X108225935Y-97574810D01*
X108195000Y-97419287D01*
X108195000Y-97260713D01*
X108225935Y-97105190D01*
X108286617Y-96958691D01*
X108374715Y-96826844D01*
X108374716Y-96826842D01*
X108486842Y-96714716D01*
X108618690Y-96626618D01*
X108618691Y-96626617D01*
X108765190Y-96565935D01*
X108920713Y-96535000D01*
X109079287Y-96535000D01*
X109234810Y-96565935D01*
X109234810Y-96565935D01*
G37*
G36*
X79234810Y-96545935D02*
G01*
X79381309Y-96606617D01*
X79381310Y-96606618D01*
X79513158Y-96694716D01*
X79625284Y-96806842D01*
X79638649Y-96826844D01*
X79713383Y-96938691D01*
X79774065Y-97085190D01*
X79805000Y-97240713D01*
X79805000Y-97399287D01*
X79774065Y-97554810D01*
X79713383Y-97701309D01*
X79669633Y-97766785D01*
X79625284Y-97833158D01*
X79513158Y-97945284D01*
X79483226Y-97965284D01*
X79381309Y-98033383D01*
X79234810Y-98094065D01*
X79079287Y-98125000D01*
X78920713Y-98125000D01*
X78765190Y-98094065D01*
X78618691Y-98033383D01*
X78516774Y-97965284D01*
X78486842Y-97945284D01*
X78374716Y-97833158D01*
X78330367Y-97766785D01*
X78286617Y-97701309D01*
X78225935Y-97554810D01*
X78195000Y-97399287D01*
X78195000Y-97240713D01*
X78225935Y-97085190D01*
X78286617Y-96938691D01*
X78361351Y-96826844D01*
X78374716Y-96806842D01*
X78486842Y-96694716D01*
X78618690Y-96606618D01*
X78618691Y-96606617D01*
X78765190Y-96545935D01*
X78920713Y-96515000D01*
X79079287Y-96515000D01*
X79234810Y-96545935D01*
X79234810Y-96545935D01*
G37*
G36*
X86628228Y-95711703D02*
G01*
X86783100Y-95775853D01*
X86922481Y-95868985D01*
X87041015Y-95987519D01*
X87134147Y-96126900D01*
X87198297Y-96281772D01*
X87231000Y-96446184D01*
X87231000Y-96613816D01*
X87198297Y-96778228D01*
X87134147Y-96933100D01*
X87041015Y-97072481D01*
X86922481Y-97191015D01*
X86783100Y-97284147D01*
X86628228Y-97348297D01*
X86463816Y-97381000D01*
X86296184Y-97381000D01*
X86131772Y-97348297D01*
X85976900Y-97284147D01*
X85837519Y-97191015D01*
X85718985Y-97072481D01*
X85625853Y-96933100D01*
X85561703Y-96778228D01*
X85529000Y-96613816D01*
X85529000Y-96446184D01*
X85561703Y-96281772D01*
X85625853Y-96126900D01*
X85718985Y-95987519D01*
X85837519Y-95868985D01*
X85976900Y-95775853D01*
X86131772Y-95711703D01*
X86296184Y-95679000D01*
X86463816Y-95679000D01*
X86628228Y-95711703D01*
X86628228Y-95711703D01*
G37*
G36*
X101868228Y-95711703D02*
G01*
X102023100Y-95775853D01*
X102162481Y-95868985D01*
X102281015Y-95987519D01*
X102374147Y-96126900D01*
X102438297Y-96281772D01*
X102471000Y-96446184D01*
X102471000Y-96613816D01*
X102438297Y-96778228D01*
X102374147Y-96933100D01*
X102281015Y-97072481D01*
X102162481Y-97191015D01*
X102023100Y-97284147D01*
X101868228Y-97348297D01*
X101703816Y-97381000D01*
X101536184Y-97381000D01*
X101371772Y-97348297D01*
X101216900Y-97284147D01*
X101077519Y-97191015D01*
X100958985Y-97072481D01*
X100865853Y-96933100D01*
X100801703Y-96778228D01*
X100769000Y-96613816D01*
X100769000Y-96446184D01*
X100801703Y-96281772D01*
X100865853Y-96126900D01*
X100958985Y-95987519D01*
X101077519Y-95868985D01*
X101216900Y-95775853D01*
X101371772Y-95711703D01*
X101536184Y-95679000D01*
X101703816Y-95679000D01*
X101868228Y-95711703D01*
X101868228Y-95711703D01*
G37*
G36*
X109805000Y-95605000D02*
G01*
X108195000Y-95605000D01*
X108195000Y-93995000D01*
X109805000Y-93995000D01*
X109805000Y-95605000D01*
X109805000Y-95605000D01*
G37*
G36*
X79234810Y-94005935D02*
G01*
X79381309Y-94066617D01*
X79381310Y-94066618D01*
X79513158Y-94154716D01*
X79625284Y-94266842D01*
X79625285Y-94266844D01*
X79713383Y-94398691D01*
X79774065Y-94545190D01*
X79805000Y-94700713D01*
X79805000Y-94859287D01*
X79774065Y-95014810D01*
X79713383Y-95161309D01*
X79713382Y-95161310D01*
X79625284Y-95293158D01*
X79513158Y-95405284D01*
X79446785Y-95449633D01*
X79381309Y-95493383D01*
X79234810Y-95554065D01*
X79079287Y-95585000D01*
X78920713Y-95585000D01*
X78765190Y-95554065D01*
X78618691Y-95493383D01*
X78553215Y-95449633D01*
X78486842Y-95405284D01*
X78374716Y-95293158D01*
X78286618Y-95161310D01*
X78286617Y-95161309D01*
X78225935Y-95014810D01*
X78195000Y-94859287D01*
X78195000Y-94700713D01*
X78225935Y-94545190D01*
X78286617Y-94398691D01*
X78374715Y-94266844D01*
X78374716Y-94266842D01*
X78486842Y-94154716D01*
X78618690Y-94066618D01*
X78618691Y-94066617D01*
X78765190Y-94005935D01*
X78920713Y-93975000D01*
X79079287Y-93975000D01*
X79234810Y-94005935D01*
X79234810Y-94005935D01*
G37*
G36*
X86628228Y-93171703D02*
G01*
X86783100Y-93235853D01*
X86922481Y-93328985D01*
X87041015Y-93447519D01*
X87134147Y-93586900D01*
X87198297Y-93741772D01*
X87231000Y-93906184D01*
X87231000Y-94073816D01*
X87198297Y-94238228D01*
X87134147Y-94393100D01*
X87041015Y-94532481D01*
X86922481Y-94651015D01*
X86783100Y-94744147D01*
X86628228Y-94808297D01*
X86463816Y-94841000D01*
X86296184Y-94841000D01*
X86131772Y-94808297D01*
X85976900Y-94744147D01*
X85837519Y-94651015D01*
X85718985Y-94532481D01*
X85625853Y-94393100D01*
X85561703Y-94238228D01*
X85529000Y-94073816D01*
X85529000Y-93906184D01*
X85561703Y-93741772D01*
X85625853Y-93586900D01*
X85718985Y-93447519D01*
X85837519Y-93328985D01*
X85976900Y-93235853D01*
X86131772Y-93171703D01*
X86296184Y-93139000D01*
X86463816Y-93139000D01*
X86628228Y-93171703D01*
X86628228Y-93171703D01*
G37*
G36*
X101868228Y-93171703D02*
G01*
X102023100Y-93235853D01*
X102162481Y-93328985D01*
X102281015Y-93447519D01*
X102374147Y-93586900D01*
X102438297Y-93741772D01*
X102471000Y-93906184D01*
X102471000Y-94073816D01*
X102438297Y-94238228D01*
X102374147Y-94393100D01*
X102281015Y-94532481D01*
X102162481Y-94651015D01*
X102023100Y-94744147D01*
X101868228Y-94808297D01*
X101703816Y-94841000D01*
X101536184Y-94841000D01*
X101371772Y-94808297D01*
X101216900Y-94744147D01*
X101077519Y-94651015D01*
X100958985Y-94532481D01*
X100865853Y-94393100D01*
X100801703Y-94238228D01*
X100769000Y-94073816D01*
X100769000Y-93906184D01*
X100801703Y-93741772D01*
X100865853Y-93586900D01*
X100958985Y-93447519D01*
X101077519Y-93328985D01*
X101216900Y-93235853D01*
X101371772Y-93171703D01*
X101536184Y-93139000D01*
X101703816Y-93139000D01*
X101868228Y-93171703D01*
X101868228Y-93171703D01*
G37*
G36*
X123009468Y-91478565D02*
G01*
X123048138Y-91490296D01*
X123083777Y-91509346D01*
X123115017Y-91534983D01*
X123140654Y-91566223D01*
X123159704Y-91601862D01*
X123171435Y-91640532D01*
X123176000Y-91686888D01*
X123176000Y-92338112D01*
X123171435Y-92384468D01*
X123159704Y-92423138D01*
X123140654Y-92458777D01*
X123115017Y-92490017D01*
X123083777Y-92515654D01*
X123048138Y-92534704D01*
X123009468Y-92546435D01*
X122963112Y-92551000D01*
X121886888Y-92551000D01*
X121840532Y-92546435D01*
X121801862Y-92534704D01*
X121766223Y-92515654D01*
X121734983Y-92490017D01*
X121709346Y-92458777D01*
X121690296Y-92423138D01*
X121678565Y-92384468D01*
X121674000Y-92338112D01*
X121674000Y-91686888D01*
X121678565Y-91640532D01*
X121690296Y-91601862D01*
X121709346Y-91566223D01*
X121734983Y-91534983D01*
X121766223Y-91509346D01*
X121801862Y-91490296D01*
X121840532Y-91478565D01*
X121886888Y-91474000D01*
X122963112Y-91474000D01*
X123009468Y-91478565D01*
X123009468Y-91478565D01*
G37*
G36*
X121109468Y-91478565D02*
G01*
X121148138Y-91490296D01*
X121183777Y-91509346D01*
X121215017Y-91534983D01*
X121240654Y-91566223D01*
X121259704Y-91601862D01*
X121271435Y-91640532D01*
X121276000Y-91686888D01*
X121276000Y-92338112D01*
X121271435Y-92384468D01*
X121259704Y-92423138D01*
X121240654Y-92458777D01*
X121215017Y-92490017D01*
X121183777Y-92515654D01*
X121148138Y-92534704D01*
X121109468Y-92546435D01*
X121063112Y-92551000D01*
X119986888Y-92551000D01*
X119940532Y-92546435D01*
X119901862Y-92534704D01*
X119866223Y-92515654D01*
X119834983Y-92490017D01*
X119809346Y-92458777D01*
X119790296Y-92423138D01*
X119778565Y-92384468D01*
X119774000Y-92338112D01*
X119774000Y-91686888D01*
X119778565Y-91640532D01*
X119790296Y-91601862D01*
X119809346Y-91566223D01*
X119834983Y-91534983D01*
X119866223Y-91509346D01*
X119901862Y-91490296D01*
X119940532Y-91478565D01*
X119986888Y-91474000D01*
X121063112Y-91474000D01*
X121109468Y-91478565D01*
X121109468Y-91478565D01*
G37*
G36*
X113459468Y-91478565D02*
G01*
X113498138Y-91490296D01*
X113533777Y-91509346D01*
X113565017Y-91534983D01*
X113590654Y-91566223D01*
X113609704Y-91601862D01*
X113621435Y-91640532D01*
X113626000Y-91686888D01*
X113626000Y-92338112D01*
X113621435Y-92384468D01*
X113609704Y-92423138D01*
X113590654Y-92458777D01*
X113565017Y-92490017D01*
X113533777Y-92515654D01*
X113498138Y-92534704D01*
X113459468Y-92546435D01*
X113413112Y-92551000D01*
X112336888Y-92551000D01*
X112290532Y-92546435D01*
X112251862Y-92534704D01*
X112216223Y-92515654D01*
X112184983Y-92490017D01*
X112159346Y-92458777D01*
X112140296Y-92423138D01*
X112128565Y-92384468D01*
X112124000Y-92338112D01*
X112124000Y-91686888D01*
X112128565Y-91640532D01*
X112140296Y-91601862D01*
X112159346Y-91566223D01*
X112184983Y-91534983D01*
X112216223Y-91509346D01*
X112251862Y-91490296D01*
X112290532Y-91478565D01*
X112336888Y-91474000D01*
X113413112Y-91474000D01*
X113459468Y-91478565D01*
X113459468Y-91478565D01*
G37*
G36*
X111559468Y-91478565D02*
G01*
X111598138Y-91490296D01*
X111633777Y-91509346D01*
X111665017Y-91534983D01*
X111690654Y-91566223D01*
X111709704Y-91601862D01*
X111721435Y-91640532D01*
X111726000Y-91686888D01*
X111726000Y-92338112D01*
X111721435Y-92384468D01*
X111709704Y-92423138D01*
X111690654Y-92458777D01*
X111665017Y-92490017D01*
X111633777Y-92515654D01*
X111598138Y-92534704D01*
X111559468Y-92546435D01*
X111513112Y-92551000D01*
X110436888Y-92551000D01*
X110390532Y-92546435D01*
X110351862Y-92534704D01*
X110316223Y-92515654D01*
X110284983Y-92490017D01*
X110259346Y-92458777D01*
X110240296Y-92423138D01*
X110228565Y-92384468D01*
X110224000Y-92338112D01*
X110224000Y-91686888D01*
X110228565Y-91640532D01*
X110240296Y-91601862D01*
X110259346Y-91566223D01*
X110284983Y-91534983D01*
X110316223Y-91509346D01*
X110351862Y-91490296D01*
X110390532Y-91478565D01*
X110436888Y-91474000D01*
X111513112Y-91474000D01*
X111559468Y-91478565D01*
X111559468Y-91478565D01*
G37*
G36*
X115383068Y-91469765D02*
G01*
X115421738Y-91481496D01*
X115457377Y-91500546D01*
X115488617Y-91526183D01*
X115514254Y-91557423D01*
X115533304Y-91593062D01*
X115545035Y-91631732D01*
X115549600Y-91678088D01*
X115549600Y-92329312D01*
X115545035Y-92375668D01*
X115533304Y-92414338D01*
X115514254Y-92449977D01*
X115488617Y-92481217D01*
X115457377Y-92506854D01*
X115421738Y-92525904D01*
X115383068Y-92537635D01*
X115336712Y-92542200D01*
X114260488Y-92542200D01*
X114214132Y-92537635D01*
X114175462Y-92525904D01*
X114139823Y-92506854D01*
X114108583Y-92481217D01*
X114082946Y-92449977D01*
X114063896Y-92414338D01*
X114052165Y-92375668D01*
X114047600Y-92329312D01*
X114047600Y-91678088D01*
X114052165Y-91631732D01*
X114063896Y-91593062D01*
X114082946Y-91557423D01*
X114108583Y-91526183D01*
X114139823Y-91500546D01*
X114175462Y-91481496D01*
X114214132Y-91469765D01*
X114260488Y-91465200D01*
X115336712Y-91465200D01*
X115383068Y-91469765D01*
X115383068Y-91469765D01*
G37*
G36*
X119193068Y-91469765D02*
G01*
X119231738Y-91481496D01*
X119267377Y-91500546D01*
X119298617Y-91526183D01*
X119324254Y-91557423D01*
X119343304Y-91593062D01*
X119355035Y-91631732D01*
X119359600Y-91678088D01*
X119359600Y-92329312D01*
X119355035Y-92375668D01*
X119343304Y-92414338D01*
X119324254Y-92449977D01*
X119298617Y-92481217D01*
X119267377Y-92506854D01*
X119231738Y-92525904D01*
X119193068Y-92537635D01*
X119146712Y-92542200D01*
X118070488Y-92542200D01*
X118024132Y-92537635D01*
X117985462Y-92525904D01*
X117949823Y-92506854D01*
X117918583Y-92481217D01*
X117892946Y-92449977D01*
X117873896Y-92414338D01*
X117862165Y-92375668D01*
X117857600Y-92329312D01*
X117857600Y-91678088D01*
X117862165Y-91631732D01*
X117873896Y-91593062D01*
X117892946Y-91557423D01*
X117918583Y-91526183D01*
X117949823Y-91500546D01*
X117985462Y-91481496D01*
X118024132Y-91469765D01*
X118070488Y-91465200D01*
X119146712Y-91465200D01*
X119193068Y-91469765D01*
X119193068Y-91469765D01*
G37*
G36*
X117288068Y-91469765D02*
G01*
X117326738Y-91481496D01*
X117362377Y-91500546D01*
X117393617Y-91526183D01*
X117419254Y-91557423D01*
X117438304Y-91593062D01*
X117450035Y-91631732D01*
X117454600Y-91678088D01*
X117454600Y-92329312D01*
X117450035Y-92375668D01*
X117438304Y-92414338D01*
X117419254Y-92449977D01*
X117393617Y-92481217D01*
X117362377Y-92506854D01*
X117326738Y-92525904D01*
X117288068Y-92537635D01*
X117241712Y-92542200D01*
X116165488Y-92542200D01*
X116119132Y-92537635D01*
X116080462Y-92525904D01*
X116044823Y-92506854D01*
X116013583Y-92481217D01*
X115987946Y-92449977D01*
X115968896Y-92414338D01*
X115957165Y-92375668D01*
X115952600Y-92329312D01*
X115952600Y-91678088D01*
X115957165Y-91631732D01*
X115968896Y-91593062D01*
X115987946Y-91557423D01*
X116013583Y-91526183D01*
X116044823Y-91500546D01*
X116080462Y-91481496D01*
X116119132Y-91469765D01*
X116165488Y-91465200D01*
X117241712Y-91465200D01*
X117288068Y-91469765D01*
X117288068Y-91469765D01*
G37*
G36*
X86628228Y-90631703D02*
G01*
X86783100Y-90695853D01*
X86922481Y-90788985D01*
X87041015Y-90907519D01*
X87134147Y-91046900D01*
X87198297Y-91201772D01*
X87231000Y-91366184D01*
X87231000Y-91533816D01*
X87198297Y-91698228D01*
X87134147Y-91853100D01*
X87041015Y-91992481D01*
X86922481Y-92111015D01*
X86783100Y-92204147D01*
X86628228Y-92268297D01*
X86463816Y-92301000D01*
X86296184Y-92301000D01*
X86131772Y-92268297D01*
X85976900Y-92204147D01*
X85837519Y-92111015D01*
X85718985Y-91992481D01*
X85625853Y-91853100D01*
X85561703Y-91698228D01*
X85529000Y-91533816D01*
X85529000Y-91366184D01*
X85561703Y-91201772D01*
X85625853Y-91046900D01*
X85718985Y-90907519D01*
X85837519Y-90788985D01*
X85976900Y-90695853D01*
X86131772Y-90631703D01*
X86296184Y-90599000D01*
X86463816Y-90599000D01*
X86628228Y-90631703D01*
X86628228Y-90631703D01*
G37*
G36*
X101868228Y-90631703D02*
G01*
X102023100Y-90695853D01*
X102162481Y-90788985D01*
X102281015Y-90907519D01*
X102374147Y-91046900D01*
X102438297Y-91201772D01*
X102471000Y-91366184D01*
X102471000Y-91533816D01*
X102438297Y-91698228D01*
X102374147Y-91853100D01*
X102281015Y-91992481D01*
X102162481Y-92111015D01*
X102023100Y-92204147D01*
X101868228Y-92268297D01*
X101703816Y-92301000D01*
X101536184Y-92301000D01*
X101371772Y-92268297D01*
X101216900Y-92204147D01*
X101077519Y-92111015D01*
X100958985Y-91992481D01*
X100865853Y-91853100D01*
X100801703Y-91698228D01*
X100769000Y-91533816D01*
X100769000Y-91366184D01*
X100801703Y-91201772D01*
X100865853Y-91046900D01*
X100958985Y-90907519D01*
X101077519Y-90788985D01*
X101216900Y-90695853D01*
X101371772Y-90631703D01*
X101536184Y-90599000D01*
X101703816Y-90599000D01*
X101868228Y-90631703D01*
X101868228Y-90631703D01*
G37*
G36*
X111559468Y-89603565D02*
G01*
X111598138Y-89615296D01*
X111633777Y-89634346D01*
X111665017Y-89659983D01*
X111690654Y-89691223D01*
X111709704Y-89726862D01*
X111721435Y-89765532D01*
X111726000Y-89811888D01*
X111726000Y-90463112D01*
X111721435Y-90509468D01*
X111709704Y-90548138D01*
X111690654Y-90583777D01*
X111665017Y-90615017D01*
X111633777Y-90640654D01*
X111598138Y-90659704D01*
X111559468Y-90671435D01*
X111513112Y-90676000D01*
X110436888Y-90676000D01*
X110390532Y-90671435D01*
X110351862Y-90659704D01*
X110316223Y-90640654D01*
X110284983Y-90615017D01*
X110259346Y-90583777D01*
X110240296Y-90548138D01*
X110228565Y-90509468D01*
X110224000Y-90463112D01*
X110224000Y-89811888D01*
X110228565Y-89765532D01*
X110240296Y-89726862D01*
X110259346Y-89691223D01*
X110284983Y-89659983D01*
X110316223Y-89634346D01*
X110351862Y-89615296D01*
X110390532Y-89603565D01*
X110436888Y-89599000D01*
X111513112Y-89599000D01*
X111559468Y-89603565D01*
X111559468Y-89603565D01*
G37*
G36*
X113459468Y-89603565D02*
G01*
X113498138Y-89615296D01*
X113533777Y-89634346D01*
X113565017Y-89659983D01*
X113590654Y-89691223D01*
X113609704Y-89726862D01*
X113621435Y-89765532D01*
X113626000Y-89811888D01*
X113626000Y-90463112D01*
X113621435Y-90509468D01*
X113609704Y-90548138D01*
X113590654Y-90583777D01*
X113565017Y-90615017D01*
X113533777Y-90640654D01*
X113498138Y-90659704D01*
X113459468Y-90671435D01*
X113413112Y-90676000D01*
X112336888Y-90676000D01*
X112290532Y-90671435D01*
X112251862Y-90659704D01*
X112216223Y-90640654D01*
X112184983Y-90615017D01*
X112159346Y-90583777D01*
X112140296Y-90548138D01*
X112128565Y-90509468D01*
X112124000Y-90463112D01*
X112124000Y-89811888D01*
X112128565Y-89765532D01*
X112140296Y-89726862D01*
X112159346Y-89691223D01*
X112184983Y-89659983D01*
X112216223Y-89634346D01*
X112251862Y-89615296D01*
X112290532Y-89603565D01*
X112336888Y-89599000D01*
X113413112Y-89599000D01*
X113459468Y-89603565D01*
X113459468Y-89603565D01*
G37*
G36*
X121109468Y-89603565D02*
G01*
X121148138Y-89615296D01*
X121183777Y-89634346D01*
X121215017Y-89659983D01*
X121240654Y-89691223D01*
X121259704Y-89726862D01*
X121271435Y-89765532D01*
X121276000Y-89811888D01*
X121276000Y-90463112D01*
X121271435Y-90509468D01*
X121259704Y-90548138D01*
X121240654Y-90583777D01*
X121215017Y-90615017D01*
X121183777Y-90640654D01*
X121148138Y-90659704D01*
X121109468Y-90671435D01*
X121063112Y-90676000D01*
X119986888Y-90676000D01*
X119940532Y-90671435D01*
X119901862Y-90659704D01*
X119866223Y-90640654D01*
X119834983Y-90615017D01*
X119809346Y-90583777D01*
X119790296Y-90548138D01*
X119778565Y-90509468D01*
X119774000Y-90463112D01*
X119774000Y-89811888D01*
X119778565Y-89765532D01*
X119790296Y-89726862D01*
X119809346Y-89691223D01*
X119834983Y-89659983D01*
X119866223Y-89634346D01*
X119901862Y-89615296D01*
X119940532Y-89603565D01*
X119986888Y-89599000D01*
X121063112Y-89599000D01*
X121109468Y-89603565D01*
X121109468Y-89603565D01*
G37*
G36*
X123009468Y-89603565D02*
G01*
X123048138Y-89615296D01*
X123083777Y-89634346D01*
X123115017Y-89659983D01*
X123140654Y-89691223D01*
X123159704Y-89726862D01*
X123171435Y-89765532D01*
X123176000Y-89811888D01*
X123176000Y-90463112D01*
X123171435Y-90509468D01*
X123159704Y-90548138D01*
X123140654Y-90583777D01*
X123115017Y-90615017D01*
X123083777Y-90640654D01*
X123048138Y-90659704D01*
X123009468Y-90671435D01*
X122963112Y-90676000D01*
X121886888Y-90676000D01*
X121840532Y-90671435D01*
X121801862Y-90659704D01*
X121766223Y-90640654D01*
X121734983Y-90615017D01*
X121709346Y-90583777D01*
X121690296Y-90548138D01*
X121678565Y-90509468D01*
X121674000Y-90463112D01*
X121674000Y-89811888D01*
X121678565Y-89765532D01*
X121690296Y-89726862D01*
X121709346Y-89691223D01*
X121734983Y-89659983D01*
X121766223Y-89634346D01*
X121801862Y-89615296D01*
X121840532Y-89603565D01*
X121886888Y-89599000D01*
X122963112Y-89599000D01*
X123009468Y-89603565D01*
X123009468Y-89603565D01*
G37*
G36*
X119193068Y-89594765D02*
G01*
X119231738Y-89606496D01*
X119267377Y-89625546D01*
X119298617Y-89651183D01*
X119324254Y-89682423D01*
X119343304Y-89718062D01*
X119355035Y-89756732D01*
X119359600Y-89803088D01*
X119359600Y-90454312D01*
X119355035Y-90500668D01*
X119343304Y-90539338D01*
X119324254Y-90574977D01*
X119298617Y-90606217D01*
X119267377Y-90631854D01*
X119231738Y-90650904D01*
X119193068Y-90662635D01*
X119146712Y-90667200D01*
X118070488Y-90667200D01*
X118024132Y-90662635D01*
X117985462Y-90650904D01*
X117949823Y-90631854D01*
X117918583Y-90606217D01*
X117892946Y-90574977D01*
X117873896Y-90539338D01*
X117862165Y-90500668D01*
X117857600Y-90454312D01*
X117857600Y-89803088D01*
X117862165Y-89756732D01*
X117873896Y-89718062D01*
X117892946Y-89682423D01*
X117918583Y-89651183D01*
X117949823Y-89625546D01*
X117985462Y-89606496D01*
X118024132Y-89594765D01*
X118070488Y-89590200D01*
X119146712Y-89590200D01*
X119193068Y-89594765D01*
X119193068Y-89594765D01*
G37*
G36*
X117288068Y-89594765D02*
G01*
X117326738Y-89606496D01*
X117362377Y-89625546D01*
X117393617Y-89651183D01*
X117419254Y-89682423D01*
X117438304Y-89718062D01*
X117450035Y-89756732D01*
X117454600Y-89803088D01*
X117454600Y-90454312D01*
X117450035Y-90500668D01*
X117438304Y-90539338D01*
X117419254Y-90574977D01*
X117393617Y-90606217D01*
X117362377Y-90631854D01*
X117326738Y-90650904D01*
X117288068Y-90662635D01*
X117241712Y-90667200D01*
X116165488Y-90667200D01*
X116119132Y-90662635D01*
X116080462Y-90650904D01*
X116044823Y-90631854D01*
X116013583Y-90606217D01*
X115987946Y-90574977D01*
X115968896Y-90539338D01*
X115957165Y-90500668D01*
X115952600Y-90454312D01*
X115952600Y-89803088D01*
X115957165Y-89756732D01*
X115968896Y-89718062D01*
X115987946Y-89682423D01*
X116013583Y-89651183D01*
X116044823Y-89625546D01*
X116080462Y-89606496D01*
X116119132Y-89594765D01*
X116165488Y-89590200D01*
X117241712Y-89590200D01*
X117288068Y-89594765D01*
X117288068Y-89594765D01*
G37*
G36*
X115383068Y-89594765D02*
G01*
X115421738Y-89606496D01*
X115457377Y-89625546D01*
X115488617Y-89651183D01*
X115514254Y-89682423D01*
X115533304Y-89718062D01*
X115545035Y-89756732D01*
X115549600Y-89803088D01*
X115549600Y-90454312D01*
X115545035Y-90500668D01*
X115533304Y-90539338D01*
X115514254Y-90574977D01*
X115488617Y-90606217D01*
X115457377Y-90631854D01*
X115421738Y-90650904D01*
X115383068Y-90662635D01*
X115336712Y-90667200D01*
X114260488Y-90667200D01*
X114214132Y-90662635D01*
X114175462Y-90650904D01*
X114139823Y-90631854D01*
X114108583Y-90606217D01*
X114082946Y-90574977D01*
X114063896Y-90539338D01*
X114052165Y-90500668D01*
X114047600Y-90454312D01*
X114047600Y-89803088D01*
X114052165Y-89756732D01*
X114063896Y-89718062D01*
X114082946Y-89682423D01*
X114108583Y-89651183D01*
X114139823Y-89625546D01*
X114175462Y-89606496D01*
X114214132Y-89594765D01*
X114260488Y-89590200D01*
X115336712Y-89590200D01*
X115383068Y-89594765D01*
X115383068Y-89594765D01*
G37*
G36*
X101868228Y-88091703D02*
G01*
X102023100Y-88155853D01*
X102162481Y-88248985D01*
X102281015Y-88367519D01*
X102374147Y-88506900D01*
X102438297Y-88661772D01*
X102471000Y-88826184D01*
X102471000Y-88993816D01*
X102438297Y-89158228D01*
X102374147Y-89313100D01*
X102281015Y-89452481D01*
X102162481Y-89571015D01*
X102023100Y-89664147D01*
X101868228Y-89728297D01*
X101703816Y-89761000D01*
X101536184Y-89761000D01*
X101371772Y-89728297D01*
X101216900Y-89664147D01*
X101077519Y-89571015D01*
X100958985Y-89452481D01*
X100865853Y-89313100D01*
X100801703Y-89158228D01*
X100769000Y-88993816D01*
X100769000Y-88826184D01*
X100801703Y-88661772D01*
X100865853Y-88506900D01*
X100958985Y-88367519D01*
X101077519Y-88248985D01*
X101216900Y-88155853D01*
X101371772Y-88091703D01*
X101536184Y-88059000D01*
X101703816Y-88059000D01*
X101868228Y-88091703D01*
X101868228Y-88091703D01*
G37*
G36*
X86628228Y-88091703D02*
G01*
X86783100Y-88155853D01*
X86922481Y-88248985D01*
X87041015Y-88367519D01*
X87134147Y-88506900D01*
X87198297Y-88661772D01*
X87231000Y-88826184D01*
X87231000Y-88993816D01*
X87198297Y-89158228D01*
X87134147Y-89313100D01*
X87041015Y-89452481D01*
X86922481Y-89571015D01*
X86783100Y-89664147D01*
X86628228Y-89728297D01*
X86463816Y-89761000D01*
X86296184Y-89761000D01*
X86131772Y-89728297D01*
X85976900Y-89664147D01*
X85837519Y-89571015D01*
X85718985Y-89452481D01*
X85625853Y-89313100D01*
X85561703Y-89158228D01*
X85529000Y-88993816D01*
X85529000Y-88826184D01*
X85561703Y-88661772D01*
X85625853Y-88506900D01*
X85718985Y-88367519D01*
X85837519Y-88248985D01*
X85976900Y-88155853D01*
X86131772Y-88091703D01*
X86296184Y-88059000D01*
X86463816Y-88059000D01*
X86628228Y-88091703D01*
X86628228Y-88091703D01*
G37*
G36*
X127080997Y-86728051D02*
G01*
X127114652Y-86738261D01*
X127145665Y-86754838D01*
X127172851Y-86777149D01*
X127195162Y-86804335D01*
X127211739Y-86835348D01*
X127221949Y-86869003D01*
X127226000Y-86910138D01*
X127226000Y-89239862D01*
X127221949Y-89280997D01*
X127211739Y-89314652D01*
X127195162Y-89345665D01*
X127172851Y-89372851D01*
X127145665Y-89395162D01*
X127114652Y-89411739D01*
X127080997Y-89421949D01*
X127039862Y-89426000D01*
X125710138Y-89426000D01*
X125669003Y-89421949D01*
X125635348Y-89411739D01*
X125604335Y-89395162D01*
X125577149Y-89372851D01*
X125554838Y-89345665D01*
X125538261Y-89314652D01*
X125528051Y-89280997D01*
X125524000Y-89239862D01*
X125524000Y-86910138D01*
X125528051Y-86869003D01*
X125538261Y-86835348D01*
X125554838Y-86804335D01*
X125577149Y-86777149D01*
X125604335Y-86754838D01*
X125635348Y-86738261D01*
X125669003Y-86728051D01*
X125710138Y-86724000D01*
X127039862Y-86724000D01*
X127080997Y-86728051D01*
X127080997Y-86728051D01*
G37*
G36*
X70001000Y-88376000D02*
G01*
X68999000Y-88376000D01*
X68999000Y-87074000D01*
X70001000Y-87074000D01*
X70001000Y-88376000D01*
X70001000Y-88376000D01*
G37*
G36*
X66701000Y-88376000D02*
G01*
X65699000Y-88376000D01*
X65699000Y-87074000D01*
X66701000Y-87074000D01*
X66701000Y-88376000D01*
X66701000Y-88376000D01*
G37*
G36*
X74616668Y-86376565D02*
G01*
X74655338Y-86388296D01*
X74690977Y-86407346D01*
X74722217Y-86432983D01*
X74747854Y-86464223D01*
X74766904Y-86499862D01*
X74778635Y-86538532D01*
X74783200Y-86584888D01*
X74783200Y-87236112D01*
X74778635Y-87282468D01*
X74766904Y-87321138D01*
X74747854Y-87356777D01*
X74722217Y-87388017D01*
X74690977Y-87413654D01*
X74655338Y-87432704D01*
X74616668Y-87444435D01*
X74570312Y-87449000D01*
X73494088Y-87449000D01*
X73447732Y-87444435D01*
X73409062Y-87432704D01*
X73373423Y-87413654D01*
X73342183Y-87388017D01*
X73316546Y-87356777D01*
X73297496Y-87321138D01*
X73285765Y-87282468D01*
X73281200Y-87236112D01*
X73281200Y-86584888D01*
X73285765Y-86538532D01*
X73297496Y-86499862D01*
X73316546Y-86464223D01*
X73342183Y-86432983D01*
X73373423Y-86407346D01*
X73409062Y-86388296D01*
X73447732Y-86376565D01*
X73494088Y-86372000D01*
X74570312Y-86372000D01*
X74616668Y-86376565D01*
X74616668Y-86376565D01*
G37*
G36*
X72711668Y-86376565D02*
G01*
X72750338Y-86388296D01*
X72785977Y-86407346D01*
X72817217Y-86432983D01*
X72842854Y-86464223D01*
X72861904Y-86499862D01*
X72873635Y-86538532D01*
X72878200Y-86584888D01*
X72878200Y-87236112D01*
X72873635Y-87282468D01*
X72861904Y-87321138D01*
X72842854Y-87356777D01*
X72817217Y-87388017D01*
X72785977Y-87413654D01*
X72750338Y-87432704D01*
X72711668Y-87444435D01*
X72665312Y-87449000D01*
X71589088Y-87449000D01*
X71542732Y-87444435D01*
X71504062Y-87432704D01*
X71468423Y-87413654D01*
X71437183Y-87388017D01*
X71411546Y-87356777D01*
X71392496Y-87321138D01*
X71380765Y-87282468D01*
X71376200Y-87236112D01*
X71376200Y-86584888D01*
X71380765Y-86538532D01*
X71392496Y-86499862D01*
X71411546Y-86464223D01*
X71437183Y-86432983D01*
X71468423Y-86407346D01*
X71504062Y-86388296D01*
X71542732Y-86376565D01*
X71589088Y-86372000D01*
X72665312Y-86372000D01*
X72711668Y-86376565D01*
X72711668Y-86376565D01*
G37*
G36*
X122725500Y-87386000D02*
G01*
X120698500Y-87386000D01*
X120698500Y-86584000D01*
X122725500Y-86584000D01*
X122725500Y-87386000D01*
X122725500Y-87386000D01*
G37*
G36*
X113301500Y-87386000D02*
G01*
X111274500Y-87386000D01*
X111274500Y-86584000D01*
X113301500Y-86584000D01*
X113301500Y-87386000D01*
X113301500Y-87386000D01*
G37*
G36*
X108997868Y-85813765D02*
G01*
X109036538Y-85825496D01*
X109072177Y-85844546D01*
X109103417Y-85870183D01*
X109129054Y-85901423D01*
X109148104Y-85937062D01*
X109159835Y-85975732D01*
X109164400Y-86022088D01*
X109164400Y-87098312D01*
X109159835Y-87144668D01*
X109148104Y-87183338D01*
X109129054Y-87218977D01*
X109103417Y-87250217D01*
X109072177Y-87275854D01*
X109036538Y-87294904D01*
X108997868Y-87306635D01*
X108951512Y-87311200D01*
X108300288Y-87311200D01*
X108253932Y-87306635D01*
X108215262Y-87294904D01*
X108179623Y-87275854D01*
X108148383Y-87250217D01*
X108122746Y-87218977D01*
X108103696Y-87183338D01*
X108091965Y-87144668D01*
X108087400Y-87098312D01*
X108087400Y-86022088D01*
X108091965Y-85975732D01*
X108103696Y-85937062D01*
X108122746Y-85901423D01*
X108148383Y-85870183D01*
X108179623Y-85844546D01*
X108215262Y-85825496D01*
X108253932Y-85813765D01*
X108300288Y-85809200D01*
X108951512Y-85809200D01*
X108997868Y-85813765D01*
X108997868Y-85813765D01*
G37*
G36*
X107122868Y-85813765D02*
G01*
X107161538Y-85825496D01*
X107197177Y-85844546D01*
X107228417Y-85870183D01*
X107254054Y-85901423D01*
X107273104Y-85937062D01*
X107284835Y-85975732D01*
X107289400Y-86022088D01*
X107289400Y-87098312D01*
X107284835Y-87144668D01*
X107273104Y-87183338D01*
X107254054Y-87218977D01*
X107228417Y-87250217D01*
X107197177Y-87275854D01*
X107161538Y-87294904D01*
X107122868Y-87306635D01*
X107076512Y-87311200D01*
X106425288Y-87311200D01*
X106378932Y-87306635D01*
X106340262Y-87294904D01*
X106304623Y-87275854D01*
X106273383Y-87250217D01*
X106247746Y-87218977D01*
X106228696Y-87183338D01*
X106216965Y-87144668D01*
X106212400Y-87098312D01*
X106212400Y-86022088D01*
X106216965Y-85975732D01*
X106228696Y-85937062D01*
X106247746Y-85901423D01*
X106273383Y-85870183D01*
X106304623Y-85844546D01*
X106340262Y-85825496D01*
X106378932Y-85813765D01*
X106425288Y-85809200D01*
X107076512Y-85809200D01*
X107122868Y-85813765D01*
X107122868Y-85813765D01*
G37*
G36*
X86628228Y-85551703D02*
G01*
X86783100Y-85615853D01*
X86922481Y-85708985D01*
X87041015Y-85827519D01*
X87134147Y-85966900D01*
X87198297Y-86121772D01*
X87231000Y-86286184D01*
X87231000Y-86453816D01*
X87198297Y-86618228D01*
X87134147Y-86773100D01*
X87041015Y-86912481D01*
X86922481Y-87031015D01*
X86783100Y-87124147D01*
X86628228Y-87188297D01*
X86463816Y-87221000D01*
X86296184Y-87221000D01*
X86131772Y-87188297D01*
X85976900Y-87124147D01*
X85837519Y-87031015D01*
X85718985Y-86912481D01*
X85625853Y-86773100D01*
X85561703Y-86618228D01*
X85529000Y-86453816D01*
X85529000Y-86286184D01*
X85561703Y-86121772D01*
X85625853Y-85966900D01*
X85718985Y-85827519D01*
X85837519Y-85708985D01*
X85976900Y-85615853D01*
X86131772Y-85551703D01*
X86296184Y-85519000D01*
X86463816Y-85519000D01*
X86628228Y-85551703D01*
X86628228Y-85551703D01*
G37*
G36*
X101868228Y-85551703D02*
G01*
X102023100Y-85615853D01*
X102162481Y-85708985D01*
X102281015Y-85827519D01*
X102374147Y-85966900D01*
X102438297Y-86121772D01*
X102471000Y-86286184D01*
X102471000Y-86453816D01*
X102438297Y-86618228D01*
X102374147Y-86773100D01*
X102281015Y-86912481D01*
X102162481Y-87031015D01*
X102023100Y-87124147D01*
X101868228Y-87188297D01*
X101703816Y-87221000D01*
X101536184Y-87221000D01*
X101371772Y-87188297D01*
X101216900Y-87124147D01*
X101077519Y-87031015D01*
X100958985Y-86912481D01*
X100865853Y-86773100D01*
X100801703Y-86618228D01*
X100769000Y-86453816D01*
X100769000Y-86286184D01*
X100801703Y-86121772D01*
X100865853Y-85966900D01*
X100958985Y-85827519D01*
X101077519Y-85708985D01*
X101216900Y-85615853D01*
X101371772Y-85551703D01*
X101536184Y-85519000D01*
X101703816Y-85519000D01*
X101868228Y-85551703D01*
X101868228Y-85551703D01*
G37*
G36*
X57769000Y-86751000D02*
G01*
X54867000Y-86751000D01*
X54867000Y-84549000D01*
X57769000Y-84549000D01*
X57769000Y-86751000D01*
X57769000Y-86751000D01*
G37*
G36*
X133133000Y-86751000D02*
G01*
X130231000Y-86751000D01*
X130231000Y-84549000D01*
X133133000Y-84549000D01*
X133133000Y-86751000D01*
X133133000Y-86751000D01*
G37*
G36*
X122725500Y-86116000D02*
G01*
X120698500Y-86116000D01*
X120698500Y-85314000D01*
X122725500Y-85314000D01*
X122725500Y-86116000D01*
X122725500Y-86116000D01*
G37*
G36*
X113301500Y-86116000D02*
G01*
X111274500Y-86116000D01*
X111274500Y-85314000D01*
X113301500Y-85314000D01*
X113301500Y-86116000D01*
X113301500Y-86116000D01*
G37*
G36*
X66701000Y-86076000D02*
G01*
X65699000Y-86076000D01*
X65699000Y-84774000D01*
X66701000Y-84774000D01*
X66701000Y-86076000D01*
X66701000Y-86076000D01*
G37*
G36*
X70001000Y-86076000D02*
G01*
X68999000Y-86076000D01*
X68999000Y-84774000D01*
X70001000Y-84774000D01*
X70001000Y-86076000D01*
X70001000Y-86076000D01*
G37*
G36*
X127080997Y-83128051D02*
G01*
X127114652Y-83138261D01*
X127145665Y-83154838D01*
X127172851Y-83177149D01*
X127195162Y-83204335D01*
X127211739Y-83235348D01*
X127221949Y-83269003D01*
X127226000Y-83310138D01*
X127226000Y-85639862D01*
X127221949Y-85680997D01*
X127211739Y-85714652D01*
X127195162Y-85745665D01*
X127172851Y-85772851D01*
X127145665Y-85795162D01*
X127114652Y-85811739D01*
X127080997Y-85821949D01*
X127039862Y-85826000D01*
X125710138Y-85826000D01*
X125669003Y-85821949D01*
X125635348Y-85811739D01*
X125604335Y-85795162D01*
X125577149Y-85772851D01*
X125554838Y-85745665D01*
X125538261Y-85714652D01*
X125528051Y-85680997D01*
X125524000Y-85639862D01*
X125524000Y-83310138D01*
X125528051Y-83269003D01*
X125538261Y-83235348D01*
X125554838Y-83204335D01*
X125577149Y-83177149D01*
X125604335Y-83154838D01*
X125635348Y-83138261D01*
X125669003Y-83128051D01*
X125710138Y-83124000D01*
X127039862Y-83124000D01*
X127080997Y-83128051D01*
X127080997Y-83128051D01*
G37*
G36*
X74616668Y-84501565D02*
G01*
X74655338Y-84513296D01*
X74690977Y-84532346D01*
X74722217Y-84557983D01*
X74747854Y-84589223D01*
X74766904Y-84624862D01*
X74778635Y-84663532D01*
X74783200Y-84709888D01*
X74783200Y-85361112D01*
X74778635Y-85407468D01*
X74766904Y-85446138D01*
X74747854Y-85481777D01*
X74722217Y-85513017D01*
X74690977Y-85538654D01*
X74655338Y-85557704D01*
X74616668Y-85569435D01*
X74570312Y-85574000D01*
X73494088Y-85574000D01*
X73447732Y-85569435D01*
X73409062Y-85557704D01*
X73373423Y-85538654D01*
X73342183Y-85513017D01*
X73316546Y-85481777D01*
X73297496Y-85446138D01*
X73285765Y-85407468D01*
X73281200Y-85361112D01*
X73281200Y-84709888D01*
X73285765Y-84663532D01*
X73297496Y-84624862D01*
X73316546Y-84589223D01*
X73342183Y-84557983D01*
X73373423Y-84532346D01*
X73409062Y-84513296D01*
X73447732Y-84501565D01*
X73494088Y-84497000D01*
X74570312Y-84497000D01*
X74616668Y-84501565D01*
X74616668Y-84501565D01*
G37*
G36*
X72711668Y-84501565D02*
G01*
X72750338Y-84513296D01*
X72785977Y-84532346D01*
X72817217Y-84557983D01*
X72842854Y-84589223D01*
X72861904Y-84624862D01*
X72873635Y-84663532D01*
X72878200Y-84709888D01*
X72878200Y-85361112D01*
X72873635Y-85407468D01*
X72861904Y-85446138D01*
X72842854Y-85481777D01*
X72817217Y-85513017D01*
X72785977Y-85538654D01*
X72750338Y-85557704D01*
X72711668Y-85569435D01*
X72665312Y-85574000D01*
X71589088Y-85574000D01*
X71542732Y-85569435D01*
X71504062Y-85557704D01*
X71468423Y-85538654D01*
X71437183Y-85513017D01*
X71411546Y-85481777D01*
X71392496Y-85446138D01*
X71380765Y-85407468D01*
X71376200Y-85361112D01*
X71376200Y-84709888D01*
X71380765Y-84663532D01*
X71392496Y-84624862D01*
X71411546Y-84589223D01*
X71437183Y-84557983D01*
X71468423Y-84532346D01*
X71504062Y-84513296D01*
X71542732Y-84501565D01*
X71589088Y-84497000D01*
X72665312Y-84497000D01*
X72711668Y-84501565D01*
X72711668Y-84501565D01*
G37*
G36*
X108997868Y-83908765D02*
G01*
X109036538Y-83920496D01*
X109072177Y-83939546D01*
X109103417Y-83965183D01*
X109129054Y-83996423D01*
X109148104Y-84032062D01*
X109159835Y-84070732D01*
X109164400Y-84117088D01*
X109164400Y-85193312D01*
X109159835Y-85239668D01*
X109148104Y-85278338D01*
X109129054Y-85313977D01*
X109103417Y-85345217D01*
X109072177Y-85370854D01*
X109036538Y-85389904D01*
X108997868Y-85401635D01*
X108951512Y-85406200D01*
X108300288Y-85406200D01*
X108253932Y-85401635D01*
X108215262Y-85389904D01*
X108179623Y-85370854D01*
X108148383Y-85345217D01*
X108122746Y-85313977D01*
X108103696Y-85278338D01*
X108091965Y-85239668D01*
X108087400Y-85193312D01*
X108087400Y-84117088D01*
X108091965Y-84070732D01*
X108103696Y-84032062D01*
X108122746Y-83996423D01*
X108148383Y-83965183D01*
X108179623Y-83939546D01*
X108215262Y-83920496D01*
X108253932Y-83908765D01*
X108300288Y-83904200D01*
X108951512Y-83904200D01*
X108997868Y-83908765D01*
X108997868Y-83908765D01*
G37*
G36*
X107122868Y-83908765D02*
G01*
X107161538Y-83920496D01*
X107197177Y-83939546D01*
X107228417Y-83965183D01*
X107254054Y-83996423D01*
X107273104Y-84032062D01*
X107284835Y-84070732D01*
X107289400Y-84117088D01*
X107289400Y-85193312D01*
X107284835Y-85239668D01*
X107273104Y-85278338D01*
X107254054Y-85313977D01*
X107228417Y-85345217D01*
X107197177Y-85370854D01*
X107161538Y-85389904D01*
X107122868Y-85401635D01*
X107076512Y-85406200D01*
X106425288Y-85406200D01*
X106378932Y-85401635D01*
X106340262Y-85389904D01*
X106304623Y-85370854D01*
X106273383Y-85345217D01*
X106247746Y-85313977D01*
X106228696Y-85278338D01*
X106216965Y-85239668D01*
X106212400Y-85193312D01*
X106212400Y-84117088D01*
X106216965Y-84070732D01*
X106228696Y-84032062D01*
X106247746Y-83996423D01*
X106273383Y-83965183D01*
X106304623Y-83939546D01*
X106340262Y-83920496D01*
X106378932Y-83908765D01*
X106425288Y-83904200D01*
X107076512Y-83904200D01*
X107122868Y-83908765D01*
X107122868Y-83908765D01*
G37*
G36*
X122725500Y-84846000D02*
G01*
X120698500Y-84846000D01*
X120698500Y-84044000D01*
X122725500Y-84044000D01*
X122725500Y-84846000D01*
X122725500Y-84846000D01*
G37*
G36*
X113301500Y-84846000D02*
G01*
X111274500Y-84846000D01*
X111274500Y-84044000D01*
X113301500Y-84044000D01*
X113301500Y-84846000D01*
X113301500Y-84846000D01*
G37*
G36*
X86628228Y-83011703D02*
G01*
X86783100Y-83075853D01*
X86922481Y-83168985D01*
X87041015Y-83287519D01*
X87134147Y-83426900D01*
X87198297Y-83581772D01*
X87231000Y-83746184D01*
X87231000Y-83913816D01*
X87198297Y-84078228D01*
X87134147Y-84233100D01*
X87041015Y-84372481D01*
X86922481Y-84491015D01*
X86783100Y-84584147D01*
X86628228Y-84648297D01*
X86463816Y-84681000D01*
X86296184Y-84681000D01*
X86131772Y-84648297D01*
X85976900Y-84584147D01*
X85837519Y-84491015D01*
X85718985Y-84372481D01*
X85625853Y-84233100D01*
X85561703Y-84078228D01*
X85529000Y-83913816D01*
X85529000Y-83746184D01*
X85561703Y-83581772D01*
X85625853Y-83426900D01*
X85718985Y-83287519D01*
X85837519Y-83168985D01*
X85976900Y-83075853D01*
X86131772Y-83011703D01*
X86296184Y-82979000D01*
X86463816Y-82979000D01*
X86628228Y-83011703D01*
X86628228Y-83011703D01*
G37*
G36*
X101868228Y-83011703D02*
G01*
X102023100Y-83075853D01*
X102162481Y-83168985D01*
X102281015Y-83287519D01*
X102374147Y-83426900D01*
X102438297Y-83581772D01*
X102471000Y-83746184D01*
X102471000Y-83913816D01*
X102438297Y-84078228D01*
X102374147Y-84233100D01*
X102281015Y-84372481D01*
X102162481Y-84491015D01*
X102023100Y-84584147D01*
X101868228Y-84648297D01*
X101703816Y-84681000D01*
X101536184Y-84681000D01*
X101371772Y-84648297D01*
X101216900Y-84584147D01*
X101077519Y-84491015D01*
X100958985Y-84372481D01*
X100865853Y-84233100D01*
X100801703Y-84078228D01*
X100769000Y-83913816D01*
X100769000Y-83746184D01*
X100801703Y-83581772D01*
X100865853Y-83426900D01*
X100958985Y-83287519D01*
X101077519Y-83168985D01*
X101216900Y-83075853D01*
X101371772Y-83011703D01*
X101536184Y-82979000D01*
X101703816Y-82979000D01*
X101868228Y-83011703D01*
X101868228Y-83011703D01*
G37*
G36*
X113301500Y-83576000D02*
G01*
X111274500Y-83576000D01*
X111274500Y-82774000D01*
X113301500Y-82774000D01*
X113301500Y-83576000D01*
X113301500Y-83576000D01*
G37*
G36*
X122725500Y-83576000D02*
G01*
X120698500Y-83576000D01*
X120698500Y-82774000D01*
X122725500Y-82774000D01*
X122725500Y-83576000D01*
X122725500Y-83576000D01*
G37*
G36*
X107122868Y-82003765D02*
G01*
X107161538Y-82015496D01*
X107197177Y-82034546D01*
X107228417Y-82060183D01*
X107254054Y-82091423D01*
X107273104Y-82127062D01*
X107284835Y-82165732D01*
X107289400Y-82212088D01*
X107289400Y-83288312D01*
X107284835Y-83334668D01*
X107273104Y-83373338D01*
X107254054Y-83408977D01*
X107228417Y-83440217D01*
X107197177Y-83465854D01*
X107161538Y-83484904D01*
X107122868Y-83496635D01*
X107076512Y-83501200D01*
X106425288Y-83501200D01*
X106378932Y-83496635D01*
X106340262Y-83484904D01*
X106304623Y-83465854D01*
X106273383Y-83440217D01*
X106247746Y-83408977D01*
X106228696Y-83373338D01*
X106216965Y-83334668D01*
X106212400Y-83288312D01*
X106212400Y-82212088D01*
X106216965Y-82165732D01*
X106228696Y-82127062D01*
X106247746Y-82091423D01*
X106273383Y-82060183D01*
X106304623Y-82034546D01*
X106340262Y-82015496D01*
X106378932Y-82003765D01*
X106425288Y-81999200D01*
X107076512Y-81999200D01*
X107122868Y-82003765D01*
X107122868Y-82003765D01*
G37*
G36*
X108997868Y-82003765D02*
G01*
X109036538Y-82015496D01*
X109072177Y-82034546D01*
X109103417Y-82060183D01*
X109129054Y-82091423D01*
X109148104Y-82127062D01*
X109159835Y-82165732D01*
X109164400Y-82212088D01*
X109164400Y-83288312D01*
X109159835Y-83334668D01*
X109148104Y-83373338D01*
X109129054Y-83408977D01*
X109103417Y-83440217D01*
X109072177Y-83465854D01*
X109036538Y-83484904D01*
X108997868Y-83496635D01*
X108951512Y-83501200D01*
X108300288Y-83501200D01*
X108253932Y-83496635D01*
X108215262Y-83484904D01*
X108179623Y-83465854D01*
X108148383Y-83440217D01*
X108122746Y-83408977D01*
X108103696Y-83373338D01*
X108091965Y-83334668D01*
X108087400Y-83288312D01*
X108087400Y-82212088D01*
X108091965Y-82165732D01*
X108103696Y-82127062D01*
X108122746Y-82091423D01*
X108148383Y-82060183D01*
X108179623Y-82034546D01*
X108215262Y-82015496D01*
X108253932Y-82003765D01*
X108300288Y-81999200D01*
X108951512Y-81999200D01*
X108997868Y-82003765D01*
X108997868Y-82003765D01*
G37*
G36*
X63984468Y-81403565D02*
G01*
X64023138Y-81415296D01*
X64058777Y-81434346D01*
X64090017Y-81459983D01*
X64115654Y-81491223D01*
X64134704Y-81526862D01*
X64146435Y-81565532D01*
X64151000Y-81611888D01*
X64151000Y-82688112D01*
X64146435Y-82734468D01*
X64134704Y-82773138D01*
X64115654Y-82808777D01*
X64090017Y-82840017D01*
X64058777Y-82865654D01*
X64023138Y-82884704D01*
X63984468Y-82896435D01*
X63938112Y-82901000D01*
X63286888Y-82901000D01*
X63240532Y-82896435D01*
X63201862Y-82884704D01*
X63166223Y-82865654D01*
X63134983Y-82840017D01*
X63109346Y-82808777D01*
X63090296Y-82773138D01*
X63078565Y-82734468D01*
X63074000Y-82688112D01*
X63074000Y-81611888D01*
X63078565Y-81565532D01*
X63090296Y-81526862D01*
X63109346Y-81491223D01*
X63134983Y-81459983D01*
X63166223Y-81434346D01*
X63201862Y-81415296D01*
X63240532Y-81403565D01*
X63286888Y-81399000D01*
X63938112Y-81399000D01*
X63984468Y-81403565D01*
X63984468Y-81403565D01*
G37*
G36*
X62109468Y-81403565D02*
G01*
X62148138Y-81415296D01*
X62183777Y-81434346D01*
X62215017Y-81459983D01*
X62240654Y-81491223D01*
X62259704Y-81526862D01*
X62271435Y-81565532D01*
X62276000Y-81611888D01*
X62276000Y-82688112D01*
X62271435Y-82734468D01*
X62259704Y-82773138D01*
X62240654Y-82808777D01*
X62215017Y-82840017D01*
X62183777Y-82865654D01*
X62148138Y-82884704D01*
X62109468Y-82896435D01*
X62063112Y-82901000D01*
X61411888Y-82901000D01*
X61365532Y-82896435D01*
X61326862Y-82884704D01*
X61291223Y-82865654D01*
X61259983Y-82840017D01*
X61234346Y-82808777D01*
X61215296Y-82773138D01*
X61203565Y-82734468D01*
X61199000Y-82688112D01*
X61199000Y-81611888D01*
X61203565Y-81565532D01*
X61215296Y-81526862D01*
X61234346Y-81491223D01*
X61259983Y-81459983D01*
X61291223Y-81434346D01*
X61326862Y-81415296D01*
X61365532Y-81403565D01*
X61411888Y-81399000D01*
X62063112Y-81399000D01*
X62109468Y-81403565D01*
X62109468Y-81403565D01*
G37*
G36*
X59669000Y-82851000D02*
G01*
X57667000Y-82851000D01*
X57667000Y-82149000D01*
X59669000Y-82149000D01*
X59669000Y-82851000D01*
X59669000Y-82851000D01*
G37*
G36*
X130333000Y-82851000D02*
G01*
X128331000Y-82851000D01*
X128331000Y-82149000D01*
X130333000Y-82149000D01*
X130333000Y-82851000D01*
X130333000Y-82851000D01*
G37*
G36*
X79759468Y-81253565D02*
G01*
X79798138Y-81265296D01*
X79833777Y-81284346D01*
X79865017Y-81309983D01*
X79890654Y-81341223D01*
X79909704Y-81376862D01*
X79921435Y-81415532D01*
X79926000Y-81461888D01*
X79926000Y-82538112D01*
X79921435Y-82584468D01*
X79909704Y-82623138D01*
X79890654Y-82658777D01*
X79865017Y-82690017D01*
X79833777Y-82715654D01*
X79798138Y-82734704D01*
X79759468Y-82746435D01*
X79713112Y-82751000D01*
X79061888Y-82751000D01*
X79015532Y-82746435D01*
X78976862Y-82734704D01*
X78941223Y-82715654D01*
X78909983Y-82690017D01*
X78884346Y-82658777D01*
X78865296Y-82623138D01*
X78853565Y-82584468D01*
X78849000Y-82538112D01*
X78849000Y-81461888D01*
X78853565Y-81415532D01*
X78865296Y-81376862D01*
X78884346Y-81341223D01*
X78909983Y-81309983D01*
X78941223Y-81284346D01*
X78976862Y-81265296D01*
X79015532Y-81253565D01*
X79061888Y-81249000D01*
X79713112Y-81249000D01*
X79759468Y-81253565D01*
X79759468Y-81253565D01*
G37*
G36*
X81634468Y-81253565D02*
G01*
X81673138Y-81265296D01*
X81708777Y-81284346D01*
X81740017Y-81309983D01*
X81765654Y-81341223D01*
X81784704Y-81376862D01*
X81796435Y-81415532D01*
X81801000Y-81461888D01*
X81801000Y-82538112D01*
X81796435Y-82584468D01*
X81784704Y-82623138D01*
X81765654Y-82658777D01*
X81740017Y-82690017D01*
X81708777Y-82715654D01*
X81673138Y-82734704D01*
X81634468Y-82746435D01*
X81588112Y-82751000D01*
X80936888Y-82751000D01*
X80890532Y-82746435D01*
X80851862Y-82734704D01*
X80816223Y-82715654D01*
X80784983Y-82690017D01*
X80759346Y-82658777D01*
X80740296Y-82623138D01*
X80728565Y-82584468D01*
X80724000Y-82538112D01*
X80724000Y-81461888D01*
X80728565Y-81415532D01*
X80740296Y-81376862D01*
X80759346Y-81341223D01*
X80784983Y-81309983D01*
X80816223Y-81284346D01*
X80851862Y-81265296D01*
X80890532Y-81253565D01*
X80936888Y-81249000D01*
X81588112Y-81249000D01*
X81634468Y-81253565D01*
X81634468Y-81253565D01*
G37*
G36*
X76725500Y-82386000D02*
G01*
X74698500Y-82386000D01*
X74698500Y-81584000D01*
X76725500Y-81584000D01*
X76725500Y-82386000D01*
X76725500Y-82386000D01*
G37*
G36*
X67301500Y-82386000D02*
G01*
X65274500Y-82386000D01*
X65274500Y-81584000D01*
X67301500Y-81584000D01*
X67301500Y-82386000D01*
X67301500Y-82386000D01*
G37*
G36*
X122725500Y-82306000D02*
G01*
X120698500Y-82306000D01*
X120698500Y-81504000D01*
X122725500Y-81504000D01*
X122725500Y-82306000D01*
X122725500Y-82306000D01*
G37*
G36*
X113301500Y-82306000D02*
G01*
X111274500Y-82306000D01*
X111274500Y-81504000D01*
X113301500Y-81504000D01*
X113301500Y-82306000D01*
X113301500Y-82306000D01*
G37*
G36*
X86628228Y-80471703D02*
G01*
X86783100Y-80535853D01*
X86922481Y-80628985D01*
X87041015Y-80747519D01*
X87134147Y-80886900D01*
X87198297Y-81041772D01*
X87231000Y-81206184D01*
X87231000Y-81373816D01*
X87198297Y-81538228D01*
X87134147Y-81693100D01*
X87041015Y-81832481D01*
X86922481Y-81951015D01*
X86783100Y-82044147D01*
X86628228Y-82108297D01*
X86463816Y-82141000D01*
X86296184Y-82141000D01*
X86131772Y-82108297D01*
X85976900Y-82044147D01*
X85837519Y-81951015D01*
X85718985Y-81832481D01*
X85625853Y-81693100D01*
X85561703Y-81538228D01*
X85529000Y-81373816D01*
X85529000Y-81206184D01*
X85561703Y-81041772D01*
X85625853Y-80886900D01*
X85718985Y-80747519D01*
X85837519Y-80628985D01*
X85976900Y-80535853D01*
X86131772Y-80471703D01*
X86296184Y-80439000D01*
X86463816Y-80439000D01*
X86628228Y-80471703D01*
X86628228Y-80471703D01*
G37*
G36*
X101868228Y-80471703D02*
G01*
X102023100Y-80535853D01*
X102162481Y-80628985D01*
X102281015Y-80747519D01*
X102374147Y-80886900D01*
X102438297Y-81041772D01*
X102471000Y-81206184D01*
X102471000Y-81373816D01*
X102438297Y-81538228D01*
X102374147Y-81693100D01*
X102281015Y-81832481D01*
X102162481Y-81951015D01*
X102023100Y-82044147D01*
X101868228Y-82108297D01*
X101703816Y-82141000D01*
X101536184Y-82141000D01*
X101371772Y-82108297D01*
X101216900Y-82044147D01*
X101077519Y-81951015D01*
X100958985Y-81832481D01*
X100865853Y-81693100D01*
X100801703Y-81538228D01*
X100769000Y-81373816D01*
X100769000Y-81206184D01*
X100801703Y-81041772D01*
X100865853Y-80886900D01*
X100958985Y-80747519D01*
X101077519Y-80628985D01*
X101216900Y-80535853D01*
X101371772Y-80471703D01*
X101536184Y-80439000D01*
X101703816Y-80439000D01*
X101868228Y-80471703D01*
X101868228Y-80471703D01*
G37*
G36*
X59669000Y-81851000D02*
G01*
X57667000Y-81851000D01*
X57667000Y-81149000D01*
X59669000Y-81149000D01*
X59669000Y-81851000D01*
X59669000Y-81851000D01*
G37*
G36*
X130333000Y-81851000D02*
G01*
X128331000Y-81851000D01*
X128331000Y-81149000D01*
X130333000Y-81149000D01*
X130333000Y-81851000D01*
X130333000Y-81851000D01*
G37*
G36*
X107121968Y-80103565D02*
G01*
X107160638Y-80115296D01*
X107196277Y-80134346D01*
X107227517Y-80159983D01*
X107253154Y-80191223D01*
X107272204Y-80226862D01*
X107283935Y-80265532D01*
X107288500Y-80311888D01*
X107288500Y-81388112D01*
X107283935Y-81434468D01*
X107272204Y-81473138D01*
X107253154Y-81508777D01*
X107227517Y-81540017D01*
X107196277Y-81565654D01*
X107160638Y-81584704D01*
X107121968Y-81596435D01*
X107075612Y-81601000D01*
X106424388Y-81601000D01*
X106378032Y-81596435D01*
X106339362Y-81584704D01*
X106303723Y-81565654D01*
X106272483Y-81540017D01*
X106246846Y-81508777D01*
X106227796Y-81473138D01*
X106216065Y-81434468D01*
X106211500Y-81388112D01*
X106211500Y-80311888D01*
X106216065Y-80265532D01*
X106227796Y-80226862D01*
X106246846Y-80191223D01*
X106272483Y-80159983D01*
X106303723Y-80134346D01*
X106339362Y-80115296D01*
X106378032Y-80103565D01*
X106424388Y-80099000D01*
X107075612Y-80099000D01*
X107121968Y-80103565D01*
X107121968Y-80103565D01*
G37*
G36*
X108996968Y-80103565D02*
G01*
X109035638Y-80115296D01*
X109071277Y-80134346D01*
X109102517Y-80159983D01*
X109128154Y-80191223D01*
X109147204Y-80226862D01*
X109158935Y-80265532D01*
X109163500Y-80311888D01*
X109163500Y-81388112D01*
X109158935Y-81434468D01*
X109147204Y-81473138D01*
X109128154Y-81508777D01*
X109102517Y-81540017D01*
X109071277Y-81565654D01*
X109035638Y-81584704D01*
X108996968Y-81596435D01*
X108950612Y-81601000D01*
X108299388Y-81601000D01*
X108253032Y-81596435D01*
X108214362Y-81584704D01*
X108178723Y-81565654D01*
X108147483Y-81540017D01*
X108121846Y-81508777D01*
X108102796Y-81473138D01*
X108091065Y-81434468D01*
X108086500Y-81388112D01*
X108086500Y-80311888D01*
X108091065Y-80265532D01*
X108102796Y-80226862D01*
X108121846Y-80191223D01*
X108147483Y-80159983D01*
X108178723Y-80134346D01*
X108214362Y-80115296D01*
X108253032Y-80103565D01*
X108299388Y-80099000D01*
X108950612Y-80099000D01*
X108996968Y-80103565D01*
X108996968Y-80103565D01*
G37*
G36*
X67301500Y-81116000D02*
G01*
X65274500Y-81116000D01*
X65274500Y-80314000D01*
X67301500Y-80314000D01*
X67301500Y-81116000D01*
X67301500Y-81116000D01*
G37*
G36*
X76725500Y-81116000D02*
G01*
X74698500Y-81116000D01*
X74698500Y-80314000D01*
X76725500Y-80314000D01*
X76725500Y-81116000D01*
X76725500Y-81116000D01*
G37*
G36*
X113301500Y-81036000D02*
G01*
X111274500Y-81036000D01*
X111274500Y-80234000D01*
X113301500Y-80234000D01*
X113301500Y-81036000D01*
X113301500Y-81036000D01*
G37*
G36*
X122725500Y-81036000D02*
G01*
X120698500Y-81036000D01*
X120698500Y-80234000D01*
X122725500Y-80234000D01*
X122725500Y-81036000D01*
X122725500Y-81036000D01*
G37*
G36*
X62109468Y-79503565D02*
G01*
X62148138Y-79515296D01*
X62183777Y-79534346D01*
X62215017Y-79559983D01*
X62240654Y-79591223D01*
X62259704Y-79626862D01*
X62271435Y-79665532D01*
X62276000Y-79711888D01*
X62276000Y-80788112D01*
X62271435Y-80834468D01*
X62259704Y-80873138D01*
X62240654Y-80908777D01*
X62215017Y-80940017D01*
X62183777Y-80965654D01*
X62148138Y-80984704D01*
X62109468Y-80996435D01*
X62063112Y-81001000D01*
X61411888Y-81001000D01*
X61365532Y-80996435D01*
X61326862Y-80984704D01*
X61291223Y-80965654D01*
X61259983Y-80940017D01*
X61234346Y-80908777D01*
X61215296Y-80873138D01*
X61203565Y-80834468D01*
X61199000Y-80788112D01*
X61199000Y-79711888D01*
X61203565Y-79665532D01*
X61215296Y-79626862D01*
X61234346Y-79591223D01*
X61259983Y-79559983D01*
X61291223Y-79534346D01*
X61326862Y-79515296D01*
X61365532Y-79503565D01*
X61411888Y-79499000D01*
X62063112Y-79499000D01*
X62109468Y-79503565D01*
X62109468Y-79503565D01*
G37*
G36*
X63984468Y-79503565D02*
G01*
X64023138Y-79515296D01*
X64058777Y-79534346D01*
X64090017Y-79559983D01*
X64115654Y-79591223D01*
X64134704Y-79626862D01*
X64146435Y-79665532D01*
X64151000Y-79711888D01*
X64151000Y-80788112D01*
X64146435Y-80834468D01*
X64134704Y-80873138D01*
X64115654Y-80908777D01*
X64090017Y-80940017D01*
X64058777Y-80965654D01*
X64023138Y-80984704D01*
X63984468Y-80996435D01*
X63938112Y-81001000D01*
X63286888Y-81001000D01*
X63240532Y-80996435D01*
X63201862Y-80984704D01*
X63166223Y-80965654D01*
X63134983Y-80940017D01*
X63109346Y-80908777D01*
X63090296Y-80873138D01*
X63078565Y-80834468D01*
X63074000Y-80788112D01*
X63074000Y-79711888D01*
X63078565Y-79665532D01*
X63090296Y-79626862D01*
X63109346Y-79591223D01*
X63134983Y-79559983D01*
X63166223Y-79534346D01*
X63201862Y-79515296D01*
X63240532Y-79503565D01*
X63286888Y-79499000D01*
X63938112Y-79499000D01*
X63984468Y-79503565D01*
X63984468Y-79503565D01*
G37*
G36*
X59669000Y-80851000D02*
G01*
X57667000Y-80851000D01*
X57667000Y-80149000D01*
X59669000Y-80149000D01*
X59669000Y-80851000D01*
X59669000Y-80851000D01*
G37*
G36*
X130333000Y-80851000D02*
G01*
X128331000Y-80851000D01*
X128331000Y-80149000D01*
X130333000Y-80149000D01*
X130333000Y-80851000D01*
X130333000Y-80851000D01*
G37*
G36*
X81634468Y-79103565D02*
G01*
X81673138Y-79115296D01*
X81708777Y-79134346D01*
X81740017Y-79159983D01*
X81765654Y-79191223D01*
X81784704Y-79226862D01*
X81796435Y-79265532D01*
X81801000Y-79311888D01*
X81801000Y-80388112D01*
X81796435Y-80434468D01*
X81784704Y-80473138D01*
X81765654Y-80508777D01*
X81740017Y-80540017D01*
X81708777Y-80565654D01*
X81673138Y-80584704D01*
X81634468Y-80596435D01*
X81588112Y-80601000D01*
X80936888Y-80601000D01*
X80890532Y-80596435D01*
X80851862Y-80584704D01*
X80816223Y-80565654D01*
X80784983Y-80540017D01*
X80759346Y-80508777D01*
X80740296Y-80473138D01*
X80728565Y-80434468D01*
X80724000Y-80388112D01*
X80724000Y-79311888D01*
X80728565Y-79265532D01*
X80740296Y-79226862D01*
X80759346Y-79191223D01*
X80784983Y-79159983D01*
X80816223Y-79134346D01*
X80851862Y-79115296D01*
X80890532Y-79103565D01*
X80936888Y-79099000D01*
X81588112Y-79099000D01*
X81634468Y-79103565D01*
X81634468Y-79103565D01*
G37*
G36*
X79759468Y-79103565D02*
G01*
X79798138Y-79115296D01*
X79833777Y-79134346D01*
X79865017Y-79159983D01*
X79890654Y-79191223D01*
X79909704Y-79226862D01*
X79921435Y-79265532D01*
X79926000Y-79311888D01*
X79926000Y-80388112D01*
X79921435Y-80434468D01*
X79909704Y-80473138D01*
X79890654Y-80508777D01*
X79865017Y-80540017D01*
X79833777Y-80565654D01*
X79798138Y-80584704D01*
X79759468Y-80596435D01*
X79713112Y-80601000D01*
X79061888Y-80601000D01*
X79015532Y-80596435D01*
X78976862Y-80584704D01*
X78941223Y-80565654D01*
X78909983Y-80540017D01*
X78884346Y-80508777D01*
X78865296Y-80473138D01*
X78853565Y-80434468D01*
X78849000Y-80388112D01*
X78849000Y-79311888D01*
X78853565Y-79265532D01*
X78865296Y-79226862D01*
X78884346Y-79191223D01*
X78909983Y-79159983D01*
X78941223Y-79134346D01*
X78976862Y-79115296D01*
X79015532Y-79103565D01*
X79061888Y-79099000D01*
X79713112Y-79099000D01*
X79759468Y-79103565D01*
X79759468Y-79103565D01*
G37*
G36*
X130333000Y-79851000D02*
G01*
X128331000Y-79851000D01*
X128331000Y-79149000D01*
X130333000Y-79149000D01*
X130333000Y-79851000D01*
X130333000Y-79851000D01*
G37*
G36*
X59669000Y-79851000D02*
G01*
X57667000Y-79851000D01*
X57667000Y-79149000D01*
X59669000Y-79149000D01*
X59669000Y-79851000D01*
X59669000Y-79851000D01*
G37*
G36*
X76725500Y-79846000D02*
G01*
X74698500Y-79846000D01*
X74698500Y-79044000D01*
X76725500Y-79044000D01*
X76725500Y-79846000D01*
X76725500Y-79846000D01*
G37*
G36*
X67301500Y-79846000D02*
G01*
X65274500Y-79846000D01*
X65274500Y-79044000D01*
X67301500Y-79044000D01*
X67301500Y-79846000D01*
X67301500Y-79846000D01*
G37*
G36*
X122725500Y-79766000D02*
G01*
X120698500Y-79766000D01*
X120698500Y-78964000D01*
X122725500Y-78964000D01*
X122725500Y-79766000D01*
X122725500Y-79766000D01*
G37*
G36*
X113301500Y-79766000D02*
G01*
X111274500Y-79766000D01*
X111274500Y-78964000D01*
X113301500Y-78964000D01*
X113301500Y-79766000D01*
X113301500Y-79766000D01*
G37*
G36*
X108984468Y-78203565D02*
G01*
X109023138Y-78215296D01*
X109058777Y-78234346D01*
X109090017Y-78259983D01*
X109115654Y-78291223D01*
X109134704Y-78326862D01*
X109146435Y-78365532D01*
X109151000Y-78411888D01*
X109151000Y-79488112D01*
X109146435Y-79534468D01*
X109134704Y-79573138D01*
X109115654Y-79608777D01*
X109090017Y-79640017D01*
X109058777Y-79665654D01*
X109023138Y-79684704D01*
X108984468Y-79696435D01*
X108938112Y-79701000D01*
X108286888Y-79701000D01*
X108240532Y-79696435D01*
X108201862Y-79684704D01*
X108166223Y-79665654D01*
X108134983Y-79640017D01*
X108109346Y-79608777D01*
X108090296Y-79573138D01*
X108078565Y-79534468D01*
X108074000Y-79488112D01*
X108074000Y-78411888D01*
X108078565Y-78365532D01*
X108090296Y-78326862D01*
X108109346Y-78291223D01*
X108134983Y-78259983D01*
X108166223Y-78234346D01*
X108201862Y-78215296D01*
X108240532Y-78203565D01*
X108286888Y-78199000D01*
X108938112Y-78199000D01*
X108984468Y-78203565D01*
X108984468Y-78203565D01*
G37*
G36*
X107109468Y-78203565D02*
G01*
X107148138Y-78215296D01*
X107183777Y-78234346D01*
X107215017Y-78259983D01*
X107240654Y-78291223D01*
X107259704Y-78326862D01*
X107271435Y-78365532D01*
X107276000Y-78411888D01*
X107276000Y-79488112D01*
X107271435Y-79534468D01*
X107259704Y-79573138D01*
X107240654Y-79608777D01*
X107215017Y-79640017D01*
X107183777Y-79665654D01*
X107148138Y-79684704D01*
X107109468Y-79696435D01*
X107063112Y-79701000D01*
X106411888Y-79701000D01*
X106365532Y-79696435D01*
X106326862Y-79684704D01*
X106291223Y-79665654D01*
X106259983Y-79640017D01*
X106234346Y-79608777D01*
X106215296Y-79573138D01*
X106203565Y-79534468D01*
X106199000Y-79488112D01*
X106199000Y-78411888D01*
X106203565Y-78365532D01*
X106215296Y-78326862D01*
X106234346Y-78291223D01*
X106259983Y-78259983D01*
X106291223Y-78234346D01*
X106326862Y-78215296D01*
X106365532Y-78203565D01*
X106411888Y-78199000D01*
X107063112Y-78199000D01*
X107109468Y-78203565D01*
X107109468Y-78203565D01*
G37*
G36*
X101868228Y-77931703D02*
G01*
X102023100Y-77995853D01*
X102162481Y-78088985D01*
X102281015Y-78207519D01*
X102374147Y-78346900D01*
X102438297Y-78501772D01*
X102471000Y-78666184D01*
X102471000Y-78833816D01*
X102438297Y-78998228D01*
X102374147Y-79153100D01*
X102281015Y-79292481D01*
X102162481Y-79411015D01*
X102023100Y-79504147D01*
X101868228Y-79568297D01*
X101703816Y-79601000D01*
X101536184Y-79601000D01*
X101371772Y-79568297D01*
X101216900Y-79504147D01*
X101077519Y-79411015D01*
X100958985Y-79292481D01*
X100865853Y-79153100D01*
X100801703Y-78998228D01*
X100769000Y-78833816D01*
X100769000Y-78666184D01*
X100801703Y-78501772D01*
X100865853Y-78346900D01*
X100958985Y-78207519D01*
X101077519Y-78088985D01*
X101216900Y-77995853D01*
X101371772Y-77931703D01*
X101536184Y-77899000D01*
X101703816Y-77899000D01*
X101868228Y-77931703D01*
X101868228Y-77931703D01*
G37*
G36*
X86628228Y-77931703D02*
G01*
X86783100Y-77995853D01*
X86922481Y-78088985D01*
X87041015Y-78207519D01*
X87134147Y-78346900D01*
X87198297Y-78501772D01*
X87231000Y-78666184D01*
X87231000Y-78833816D01*
X87198297Y-78998228D01*
X87134147Y-79153100D01*
X87041015Y-79292481D01*
X86922481Y-79411015D01*
X86783100Y-79504147D01*
X86628228Y-79568297D01*
X86463816Y-79601000D01*
X86296184Y-79601000D01*
X86131772Y-79568297D01*
X85976900Y-79504147D01*
X85837519Y-79411015D01*
X85718985Y-79292481D01*
X85625853Y-79153100D01*
X85561703Y-78998228D01*
X85529000Y-78833816D01*
X85529000Y-78666184D01*
X85561703Y-78501772D01*
X85625853Y-78346900D01*
X85718985Y-78207519D01*
X85837519Y-78088985D01*
X85976900Y-77995853D01*
X86131772Y-77931703D01*
X86296184Y-77899000D01*
X86463816Y-77899000D01*
X86628228Y-77931703D01*
X86628228Y-77931703D01*
G37*
G36*
X126484468Y-77803565D02*
G01*
X126523138Y-77815296D01*
X126558777Y-77834346D01*
X126590017Y-77859983D01*
X126615654Y-77891223D01*
X126634704Y-77926862D01*
X126646435Y-77965532D01*
X126651000Y-78011888D01*
X126651000Y-79088112D01*
X126646435Y-79134468D01*
X126634704Y-79173138D01*
X126615654Y-79208777D01*
X126590017Y-79240017D01*
X126558777Y-79265654D01*
X126523138Y-79284704D01*
X126484468Y-79296435D01*
X126438112Y-79301000D01*
X125786888Y-79301000D01*
X125740532Y-79296435D01*
X125701862Y-79284704D01*
X125666223Y-79265654D01*
X125634983Y-79240017D01*
X125609346Y-79208777D01*
X125590296Y-79173138D01*
X125578565Y-79134468D01*
X125574000Y-79088112D01*
X125574000Y-78011888D01*
X125578565Y-77965532D01*
X125590296Y-77926862D01*
X125609346Y-77891223D01*
X125634983Y-77859983D01*
X125666223Y-77834346D01*
X125701862Y-77815296D01*
X125740532Y-77803565D01*
X125786888Y-77799000D01*
X126438112Y-77799000D01*
X126484468Y-77803565D01*
X126484468Y-77803565D01*
G37*
G36*
X124609468Y-77803565D02*
G01*
X124648138Y-77815296D01*
X124683777Y-77834346D01*
X124715017Y-77859983D01*
X124740654Y-77891223D01*
X124759704Y-77926862D01*
X124771435Y-77965532D01*
X124776000Y-78011888D01*
X124776000Y-79088112D01*
X124771435Y-79134468D01*
X124759704Y-79173138D01*
X124740654Y-79208777D01*
X124715017Y-79240017D01*
X124683777Y-79265654D01*
X124648138Y-79284704D01*
X124609468Y-79296435D01*
X124563112Y-79301000D01*
X123911888Y-79301000D01*
X123865532Y-79296435D01*
X123826862Y-79284704D01*
X123791223Y-79265654D01*
X123759983Y-79240017D01*
X123734346Y-79208777D01*
X123715296Y-79173138D01*
X123703565Y-79134468D01*
X123699000Y-79088112D01*
X123699000Y-78011888D01*
X123703565Y-77965532D01*
X123715296Y-77926862D01*
X123734346Y-77891223D01*
X123759983Y-77859983D01*
X123791223Y-77834346D01*
X123826862Y-77815296D01*
X123865532Y-77803565D01*
X123911888Y-77799000D01*
X124563112Y-77799000D01*
X124609468Y-77803565D01*
X124609468Y-77803565D01*
G37*
G36*
X130333000Y-78851000D02*
G01*
X128331000Y-78851000D01*
X128331000Y-78149000D01*
X130333000Y-78149000D01*
X130333000Y-78851000D01*
X130333000Y-78851000D01*
G37*
G36*
X59669000Y-78851000D02*
G01*
X57667000Y-78851000D01*
X57667000Y-78149000D01*
X59669000Y-78149000D01*
X59669000Y-78851000D01*
X59669000Y-78851000D01*
G37*
G36*
X81634468Y-77203565D02*
G01*
X81673138Y-77215296D01*
X81708777Y-77234346D01*
X81740017Y-77259983D01*
X81765654Y-77291223D01*
X81784704Y-77326862D01*
X81796435Y-77365532D01*
X81801000Y-77411888D01*
X81801000Y-78488112D01*
X81796435Y-78534468D01*
X81784704Y-78573138D01*
X81765654Y-78608777D01*
X81740017Y-78640017D01*
X81708777Y-78665654D01*
X81673138Y-78684704D01*
X81634468Y-78696435D01*
X81588112Y-78701000D01*
X80936888Y-78701000D01*
X80890532Y-78696435D01*
X80851862Y-78684704D01*
X80816223Y-78665654D01*
X80784983Y-78640017D01*
X80759346Y-78608777D01*
X80740296Y-78573138D01*
X80728565Y-78534468D01*
X80724000Y-78488112D01*
X80724000Y-77411888D01*
X80728565Y-77365532D01*
X80740296Y-77326862D01*
X80759346Y-77291223D01*
X80784983Y-77259983D01*
X80816223Y-77234346D01*
X80851862Y-77215296D01*
X80890532Y-77203565D01*
X80936888Y-77199000D01*
X81588112Y-77199000D01*
X81634468Y-77203565D01*
X81634468Y-77203565D01*
G37*
G36*
X79759468Y-77203565D02*
G01*
X79798138Y-77215296D01*
X79833777Y-77234346D01*
X79865017Y-77259983D01*
X79890654Y-77291223D01*
X79909704Y-77326862D01*
X79921435Y-77365532D01*
X79926000Y-77411888D01*
X79926000Y-78488112D01*
X79921435Y-78534468D01*
X79909704Y-78573138D01*
X79890654Y-78608777D01*
X79865017Y-78640017D01*
X79833777Y-78665654D01*
X79798138Y-78684704D01*
X79759468Y-78696435D01*
X79713112Y-78701000D01*
X79061888Y-78701000D01*
X79015532Y-78696435D01*
X78976862Y-78684704D01*
X78941223Y-78665654D01*
X78909983Y-78640017D01*
X78884346Y-78608777D01*
X78865296Y-78573138D01*
X78853565Y-78534468D01*
X78849000Y-78488112D01*
X78849000Y-77411888D01*
X78853565Y-77365532D01*
X78865296Y-77326862D01*
X78884346Y-77291223D01*
X78909983Y-77259983D01*
X78941223Y-77234346D01*
X78976862Y-77215296D01*
X79015532Y-77203565D01*
X79061888Y-77199000D01*
X79713112Y-77199000D01*
X79759468Y-77203565D01*
X79759468Y-77203565D01*
G37*
G36*
X67301500Y-78576000D02*
G01*
X65274500Y-78576000D01*
X65274500Y-77774000D01*
X67301500Y-77774000D01*
X67301500Y-78576000D01*
X67301500Y-78576000D01*
G37*
G36*
X76725500Y-78576000D02*
G01*
X74698500Y-78576000D01*
X74698500Y-77774000D01*
X76725500Y-77774000D01*
X76725500Y-78576000D01*
X76725500Y-78576000D01*
G37*
G36*
X122725500Y-78496000D02*
G01*
X120698500Y-78496000D01*
X120698500Y-77694000D01*
X122725500Y-77694000D01*
X122725500Y-78496000D01*
X122725500Y-78496000D01*
G37*
G36*
X113301500Y-78496000D02*
G01*
X111274500Y-78496000D01*
X111274500Y-77694000D01*
X113301500Y-77694000D01*
X113301500Y-78496000D01*
X113301500Y-78496000D01*
G37*
G36*
X59669000Y-77851000D02*
G01*
X57667000Y-77851000D01*
X57667000Y-77149000D01*
X59669000Y-77149000D01*
X59669000Y-77851000D01*
X59669000Y-77851000D01*
G37*
G36*
X130333000Y-77851000D02*
G01*
X128331000Y-77851000D01*
X128331000Y-77149000D01*
X130333000Y-77149000D01*
X130333000Y-77851000D01*
X130333000Y-77851000D01*
G37*
G36*
X107109468Y-76303565D02*
G01*
X107148138Y-76315296D01*
X107183777Y-76334346D01*
X107215017Y-76359983D01*
X107240654Y-76391223D01*
X107259704Y-76426862D01*
X107271435Y-76465532D01*
X107276000Y-76511888D01*
X107276000Y-77588112D01*
X107271435Y-77634468D01*
X107259704Y-77673138D01*
X107240654Y-77708777D01*
X107215017Y-77740017D01*
X107183777Y-77765654D01*
X107148138Y-77784704D01*
X107109468Y-77796435D01*
X107063112Y-77801000D01*
X106411888Y-77801000D01*
X106365532Y-77796435D01*
X106326862Y-77784704D01*
X106291223Y-77765654D01*
X106259983Y-77740017D01*
X106234346Y-77708777D01*
X106215296Y-77673138D01*
X106203565Y-77634468D01*
X106199000Y-77588112D01*
X106199000Y-76511888D01*
X106203565Y-76465532D01*
X106215296Y-76426862D01*
X106234346Y-76391223D01*
X106259983Y-76359983D01*
X106291223Y-76334346D01*
X106326862Y-76315296D01*
X106365532Y-76303565D01*
X106411888Y-76299000D01*
X107063112Y-76299000D01*
X107109468Y-76303565D01*
X107109468Y-76303565D01*
G37*
G36*
X108984468Y-76303565D02*
G01*
X109023138Y-76315296D01*
X109058777Y-76334346D01*
X109090017Y-76359983D01*
X109115654Y-76391223D01*
X109134704Y-76426862D01*
X109146435Y-76465532D01*
X109151000Y-76511888D01*
X109151000Y-77588112D01*
X109146435Y-77634468D01*
X109134704Y-77673138D01*
X109115654Y-77708777D01*
X109090017Y-77740017D01*
X109058777Y-77765654D01*
X109023138Y-77784704D01*
X108984468Y-77796435D01*
X108938112Y-77801000D01*
X108286888Y-77801000D01*
X108240532Y-77796435D01*
X108201862Y-77784704D01*
X108166223Y-77765654D01*
X108134983Y-77740017D01*
X108109346Y-77708777D01*
X108090296Y-77673138D01*
X108078565Y-77634468D01*
X108074000Y-77588112D01*
X108074000Y-76511888D01*
X108078565Y-76465532D01*
X108090296Y-76426862D01*
X108109346Y-76391223D01*
X108134983Y-76359983D01*
X108166223Y-76334346D01*
X108201862Y-76315296D01*
X108240532Y-76303565D01*
X108286888Y-76299000D01*
X108938112Y-76299000D01*
X108984468Y-76303565D01*
X108984468Y-76303565D01*
G37*
G36*
X76725500Y-77306000D02*
G01*
X74698500Y-77306000D01*
X74698500Y-76504000D01*
X76725500Y-76504000D01*
X76725500Y-77306000D01*
X76725500Y-77306000D01*
G37*
G36*
X67301500Y-77306000D02*
G01*
X65274500Y-77306000D01*
X65274500Y-76504000D01*
X67301500Y-76504000D01*
X67301500Y-77306000D01*
X67301500Y-77306000D01*
G37*
G36*
X122725500Y-77226000D02*
G01*
X120698500Y-77226000D01*
X120698500Y-76424000D01*
X122725500Y-76424000D01*
X122725500Y-77226000D01*
X122725500Y-77226000D01*
G37*
G36*
X113301500Y-77226000D02*
G01*
X111274500Y-77226000D01*
X111274500Y-76424000D01*
X113301500Y-76424000D01*
X113301500Y-77226000D01*
X113301500Y-77226000D01*
G37*
G36*
X64134468Y-75703565D02*
G01*
X64173138Y-75715296D01*
X64208777Y-75734346D01*
X64240017Y-75759983D01*
X64265654Y-75791223D01*
X64284704Y-75826862D01*
X64296435Y-75865532D01*
X64301000Y-75911888D01*
X64301000Y-76988112D01*
X64296435Y-77034468D01*
X64284704Y-77073138D01*
X64265654Y-77108777D01*
X64240017Y-77140017D01*
X64208777Y-77165654D01*
X64173138Y-77184704D01*
X64134468Y-77196435D01*
X64088112Y-77201000D01*
X63436888Y-77201000D01*
X63390532Y-77196435D01*
X63351862Y-77184704D01*
X63316223Y-77165654D01*
X63284983Y-77140017D01*
X63259346Y-77108777D01*
X63240296Y-77073138D01*
X63228565Y-77034468D01*
X63224000Y-76988112D01*
X63224000Y-75911888D01*
X63228565Y-75865532D01*
X63240296Y-75826862D01*
X63259346Y-75791223D01*
X63284983Y-75759983D01*
X63316223Y-75734346D01*
X63351862Y-75715296D01*
X63390532Y-75703565D01*
X63436888Y-75699000D01*
X64088112Y-75699000D01*
X64134468Y-75703565D01*
X64134468Y-75703565D01*
G37*
G36*
X62259468Y-75703565D02*
G01*
X62298138Y-75715296D01*
X62333777Y-75734346D01*
X62365017Y-75759983D01*
X62390654Y-75791223D01*
X62409704Y-75826862D01*
X62421435Y-75865532D01*
X62426000Y-75911888D01*
X62426000Y-76988112D01*
X62421435Y-77034468D01*
X62409704Y-77073138D01*
X62390654Y-77108777D01*
X62365017Y-77140017D01*
X62333777Y-77165654D01*
X62298138Y-77184704D01*
X62259468Y-77196435D01*
X62213112Y-77201000D01*
X61561888Y-77201000D01*
X61515532Y-77196435D01*
X61476862Y-77184704D01*
X61441223Y-77165654D01*
X61409983Y-77140017D01*
X61384346Y-77108777D01*
X61365296Y-77073138D01*
X61353565Y-77034468D01*
X61349000Y-76988112D01*
X61349000Y-75911888D01*
X61353565Y-75865532D01*
X61365296Y-75826862D01*
X61384346Y-75791223D01*
X61409983Y-75759983D01*
X61441223Y-75734346D01*
X61476862Y-75715296D01*
X61515532Y-75703565D01*
X61561888Y-75699000D01*
X62213112Y-75699000D01*
X62259468Y-75703565D01*
X62259468Y-75703565D01*
G37*
G36*
X86628228Y-75391703D02*
G01*
X86783100Y-75455853D01*
X86922481Y-75548985D01*
X87041015Y-75667519D01*
X87134147Y-75806900D01*
X87198297Y-75961772D01*
X87231000Y-76126184D01*
X87231000Y-76293816D01*
X87198297Y-76458228D01*
X87134147Y-76613100D01*
X87041015Y-76752481D01*
X86922481Y-76871015D01*
X86783100Y-76964147D01*
X86628228Y-77028297D01*
X86463816Y-77061000D01*
X86296184Y-77061000D01*
X86131772Y-77028297D01*
X85976900Y-76964147D01*
X85837519Y-76871015D01*
X85718985Y-76752481D01*
X85625853Y-76613100D01*
X85561703Y-76458228D01*
X85529000Y-76293816D01*
X85529000Y-76126184D01*
X85561703Y-75961772D01*
X85625853Y-75806900D01*
X85718985Y-75667519D01*
X85837519Y-75548985D01*
X85976900Y-75455853D01*
X86131772Y-75391703D01*
X86296184Y-75359000D01*
X86463816Y-75359000D01*
X86628228Y-75391703D01*
X86628228Y-75391703D01*
G37*
G36*
X101868228Y-75391703D02*
G01*
X102023100Y-75455853D01*
X102162481Y-75548985D01*
X102281015Y-75667519D01*
X102374147Y-75806900D01*
X102438297Y-75961772D01*
X102471000Y-76126184D01*
X102471000Y-76293816D01*
X102438297Y-76458228D01*
X102374147Y-76613100D01*
X102281015Y-76752481D01*
X102162481Y-76871015D01*
X102023100Y-76964147D01*
X101868228Y-77028297D01*
X101703816Y-77061000D01*
X101536184Y-77061000D01*
X101371772Y-77028297D01*
X101216900Y-76964147D01*
X101077519Y-76871015D01*
X100958985Y-76752481D01*
X100865853Y-76613100D01*
X100801703Y-76458228D01*
X100769000Y-76293816D01*
X100769000Y-76126184D01*
X100801703Y-75961772D01*
X100865853Y-75806900D01*
X100958985Y-75667519D01*
X101077519Y-75548985D01*
X101216900Y-75455853D01*
X101371772Y-75391703D01*
X101536184Y-75359000D01*
X101703816Y-75359000D01*
X101868228Y-75391703D01*
X101868228Y-75391703D01*
G37*
G36*
X59669000Y-76851000D02*
G01*
X57667000Y-76851000D01*
X57667000Y-76149000D01*
X59669000Y-76149000D01*
X59669000Y-76851000D01*
X59669000Y-76851000D01*
G37*
G36*
X130333000Y-76851000D02*
G01*
X128331000Y-76851000D01*
X128331000Y-76149000D01*
X130333000Y-76149000D01*
X130333000Y-76851000D01*
X130333000Y-76851000D01*
G37*
G36*
X79759468Y-75303565D02*
G01*
X79798138Y-75315296D01*
X79833777Y-75334346D01*
X79865017Y-75359983D01*
X79890654Y-75391223D01*
X79909704Y-75426862D01*
X79921435Y-75465532D01*
X79926000Y-75511888D01*
X79926000Y-76588112D01*
X79921435Y-76634468D01*
X79909704Y-76673138D01*
X79890654Y-76708777D01*
X79865017Y-76740017D01*
X79833777Y-76765654D01*
X79798138Y-76784704D01*
X79759468Y-76796435D01*
X79713112Y-76801000D01*
X79061888Y-76801000D01*
X79015532Y-76796435D01*
X78976862Y-76784704D01*
X78941223Y-76765654D01*
X78909983Y-76740017D01*
X78884346Y-76708777D01*
X78865296Y-76673138D01*
X78853565Y-76634468D01*
X78849000Y-76588112D01*
X78849000Y-75511888D01*
X78853565Y-75465532D01*
X78865296Y-75426862D01*
X78884346Y-75391223D01*
X78909983Y-75359983D01*
X78941223Y-75334346D01*
X78976862Y-75315296D01*
X79015532Y-75303565D01*
X79061888Y-75299000D01*
X79713112Y-75299000D01*
X79759468Y-75303565D01*
X79759468Y-75303565D01*
G37*
G36*
X81634468Y-75303565D02*
G01*
X81673138Y-75315296D01*
X81708777Y-75334346D01*
X81740017Y-75359983D01*
X81765654Y-75391223D01*
X81784704Y-75426862D01*
X81796435Y-75465532D01*
X81801000Y-75511888D01*
X81801000Y-76588112D01*
X81796435Y-76634468D01*
X81784704Y-76673138D01*
X81765654Y-76708777D01*
X81740017Y-76740017D01*
X81708777Y-76765654D01*
X81673138Y-76784704D01*
X81634468Y-76796435D01*
X81588112Y-76801000D01*
X80936888Y-76801000D01*
X80890532Y-76796435D01*
X80851862Y-76784704D01*
X80816223Y-76765654D01*
X80784983Y-76740017D01*
X80759346Y-76708777D01*
X80740296Y-76673138D01*
X80728565Y-76634468D01*
X80724000Y-76588112D01*
X80724000Y-75511888D01*
X80728565Y-75465532D01*
X80740296Y-75426862D01*
X80759346Y-75391223D01*
X80784983Y-75359983D01*
X80816223Y-75334346D01*
X80851862Y-75315296D01*
X80890532Y-75303565D01*
X80936888Y-75299000D01*
X81588112Y-75299000D01*
X81634468Y-75303565D01*
X81634468Y-75303565D01*
G37*
G36*
X76725500Y-76036000D02*
G01*
X74698500Y-76036000D01*
X74698500Y-75234000D01*
X76725500Y-75234000D01*
X76725500Y-76036000D01*
X76725500Y-76036000D01*
G37*
G36*
X67301500Y-76036000D02*
G01*
X65274500Y-76036000D01*
X65274500Y-75234000D01*
X67301500Y-75234000D01*
X67301500Y-76036000D01*
X67301500Y-76036000D01*
G37*
G36*
X122725500Y-75956000D02*
G01*
X120698500Y-75956000D01*
X120698500Y-75154000D01*
X122725500Y-75154000D01*
X122725500Y-75956000D01*
X122725500Y-75956000D01*
G37*
G36*
X113301500Y-75956000D02*
G01*
X111274500Y-75956000D01*
X111274500Y-75154000D01*
X113301500Y-75154000D01*
X113301500Y-75956000D01*
X113301500Y-75956000D01*
G37*
G36*
X107109468Y-74403565D02*
G01*
X107148138Y-74415296D01*
X107183777Y-74434346D01*
X107215017Y-74459983D01*
X107240654Y-74491223D01*
X107259704Y-74526862D01*
X107271435Y-74565532D01*
X107276000Y-74611888D01*
X107276000Y-75688112D01*
X107271435Y-75734468D01*
X107259704Y-75773138D01*
X107240654Y-75808777D01*
X107215017Y-75840017D01*
X107183777Y-75865654D01*
X107148138Y-75884704D01*
X107109468Y-75896435D01*
X107063112Y-75901000D01*
X106411888Y-75901000D01*
X106365532Y-75896435D01*
X106326862Y-75884704D01*
X106291223Y-75865654D01*
X106259983Y-75840017D01*
X106234346Y-75808777D01*
X106215296Y-75773138D01*
X106203565Y-75734468D01*
X106199000Y-75688112D01*
X106199000Y-74611888D01*
X106203565Y-74565532D01*
X106215296Y-74526862D01*
X106234346Y-74491223D01*
X106259983Y-74459983D01*
X106291223Y-74434346D01*
X106326862Y-74415296D01*
X106365532Y-74403565D01*
X106411888Y-74399000D01*
X107063112Y-74399000D01*
X107109468Y-74403565D01*
X107109468Y-74403565D01*
G37*
G36*
X108984468Y-74403565D02*
G01*
X109023138Y-74415296D01*
X109058777Y-74434346D01*
X109090017Y-74459983D01*
X109115654Y-74491223D01*
X109134704Y-74526862D01*
X109146435Y-74565532D01*
X109151000Y-74611888D01*
X109151000Y-75688112D01*
X109146435Y-75734468D01*
X109134704Y-75773138D01*
X109115654Y-75808777D01*
X109090017Y-75840017D01*
X109058777Y-75865654D01*
X109023138Y-75884704D01*
X108984468Y-75896435D01*
X108938112Y-75901000D01*
X108286888Y-75901000D01*
X108240532Y-75896435D01*
X108201862Y-75884704D01*
X108166223Y-75865654D01*
X108134983Y-75840017D01*
X108109346Y-75808777D01*
X108090296Y-75773138D01*
X108078565Y-75734468D01*
X108074000Y-75688112D01*
X108074000Y-74611888D01*
X108078565Y-74565532D01*
X108090296Y-74526862D01*
X108109346Y-74491223D01*
X108134983Y-74459983D01*
X108166223Y-74434346D01*
X108201862Y-74415296D01*
X108240532Y-74403565D01*
X108286888Y-74399000D01*
X108938112Y-74399000D01*
X108984468Y-74403565D01*
X108984468Y-74403565D01*
G37*
G36*
X59669000Y-75851000D02*
G01*
X57667000Y-75851000D01*
X57667000Y-75149000D01*
X59669000Y-75149000D01*
X59669000Y-75851000D01*
X59669000Y-75851000D01*
G37*
G36*
X130333000Y-75851000D02*
G01*
X128331000Y-75851000D01*
X128331000Y-75149000D01*
X130333000Y-75149000D01*
X130333000Y-75851000D01*
X130333000Y-75851000D01*
G37*
G36*
X124759468Y-74003565D02*
G01*
X124798138Y-74015296D01*
X124833777Y-74034346D01*
X124865017Y-74059983D01*
X124890654Y-74091223D01*
X124909704Y-74126862D01*
X124921435Y-74165532D01*
X124926000Y-74211888D01*
X124926000Y-75288112D01*
X124921435Y-75334468D01*
X124909704Y-75373138D01*
X124890654Y-75408777D01*
X124865017Y-75440017D01*
X124833777Y-75465654D01*
X124798138Y-75484704D01*
X124759468Y-75496435D01*
X124713112Y-75501000D01*
X124061888Y-75501000D01*
X124015532Y-75496435D01*
X123976862Y-75484704D01*
X123941223Y-75465654D01*
X123909983Y-75440017D01*
X123884346Y-75408777D01*
X123865296Y-75373138D01*
X123853565Y-75334468D01*
X123849000Y-75288112D01*
X123849000Y-74211888D01*
X123853565Y-74165532D01*
X123865296Y-74126862D01*
X123884346Y-74091223D01*
X123909983Y-74059983D01*
X123941223Y-74034346D01*
X123976862Y-74015296D01*
X124015532Y-74003565D01*
X124061888Y-73999000D01*
X124713112Y-73999000D01*
X124759468Y-74003565D01*
X124759468Y-74003565D01*
G37*
G36*
X126634468Y-74003565D02*
G01*
X126673138Y-74015296D01*
X126708777Y-74034346D01*
X126740017Y-74059983D01*
X126765654Y-74091223D01*
X126784704Y-74126862D01*
X126796435Y-74165532D01*
X126801000Y-74211888D01*
X126801000Y-75288112D01*
X126796435Y-75334468D01*
X126784704Y-75373138D01*
X126765654Y-75408777D01*
X126740017Y-75440017D01*
X126708777Y-75465654D01*
X126673138Y-75484704D01*
X126634468Y-75496435D01*
X126588112Y-75501000D01*
X125936888Y-75501000D01*
X125890532Y-75496435D01*
X125851862Y-75484704D01*
X125816223Y-75465654D01*
X125784983Y-75440017D01*
X125759346Y-75408777D01*
X125740296Y-75373138D01*
X125728565Y-75334468D01*
X125724000Y-75288112D01*
X125724000Y-74211888D01*
X125728565Y-74165532D01*
X125740296Y-74126862D01*
X125759346Y-74091223D01*
X125784983Y-74059983D01*
X125816223Y-74034346D01*
X125851862Y-74015296D01*
X125890532Y-74003565D01*
X125936888Y-73999000D01*
X126588112Y-73999000D01*
X126634468Y-74003565D01*
X126634468Y-74003565D01*
G37*
G36*
X79746968Y-73403565D02*
G01*
X79785638Y-73415296D01*
X79821277Y-73434346D01*
X79852517Y-73459983D01*
X79878154Y-73491223D01*
X79897204Y-73526862D01*
X79908935Y-73565532D01*
X79913500Y-73611888D01*
X79913500Y-74688112D01*
X79908935Y-74734468D01*
X79897204Y-74773138D01*
X79878154Y-74808777D01*
X79852517Y-74840017D01*
X79821277Y-74865654D01*
X79785638Y-74884704D01*
X79746968Y-74896435D01*
X79700612Y-74901000D01*
X79049388Y-74901000D01*
X79003032Y-74896435D01*
X78964362Y-74884704D01*
X78928723Y-74865654D01*
X78897483Y-74840017D01*
X78871846Y-74808777D01*
X78852796Y-74773138D01*
X78841065Y-74734468D01*
X78836500Y-74688112D01*
X78836500Y-73611888D01*
X78841065Y-73565532D01*
X78852796Y-73526862D01*
X78871846Y-73491223D01*
X78897483Y-73459983D01*
X78928723Y-73434346D01*
X78964362Y-73415296D01*
X79003032Y-73403565D01*
X79049388Y-73399000D01*
X79700612Y-73399000D01*
X79746968Y-73403565D01*
X79746968Y-73403565D01*
G37*
G36*
X81621968Y-73403565D02*
G01*
X81660638Y-73415296D01*
X81696277Y-73434346D01*
X81727517Y-73459983D01*
X81753154Y-73491223D01*
X81772204Y-73526862D01*
X81783935Y-73565532D01*
X81788500Y-73611888D01*
X81788500Y-74688112D01*
X81783935Y-74734468D01*
X81772204Y-74773138D01*
X81753154Y-74808777D01*
X81727517Y-74840017D01*
X81696277Y-74865654D01*
X81660638Y-74884704D01*
X81621968Y-74896435D01*
X81575612Y-74901000D01*
X80924388Y-74901000D01*
X80878032Y-74896435D01*
X80839362Y-74884704D01*
X80803723Y-74865654D01*
X80772483Y-74840017D01*
X80746846Y-74808777D01*
X80727796Y-74773138D01*
X80716065Y-74734468D01*
X80711500Y-74688112D01*
X80711500Y-73611888D01*
X80716065Y-73565532D01*
X80727796Y-73526862D01*
X80746846Y-73491223D01*
X80772483Y-73459983D01*
X80803723Y-73434346D01*
X80839362Y-73415296D01*
X80878032Y-73403565D01*
X80924388Y-73399000D01*
X81575612Y-73399000D01*
X81621968Y-73403565D01*
X81621968Y-73403565D01*
G37*
G36*
X59669000Y-74851000D02*
G01*
X57667000Y-74851000D01*
X57667000Y-74149000D01*
X59669000Y-74149000D01*
X59669000Y-74851000D01*
X59669000Y-74851000D01*
G37*
G36*
X130333000Y-74851000D02*
G01*
X128331000Y-74851000D01*
X128331000Y-74149000D01*
X130333000Y-74149000D01*
X130333000Y-74851000D01*
X130333000Y-74851000D01*
G37*
G36*
X67301500Y-74766000D02*
G01*
X65274500Y-74766000D01*
X65274500Y-73964000D01*
X67301500Y-73964000D01*
X67301500Y-74766000D01*
X67301500Y-74766000D01*
G37*
G36*
X76725500Y-74766000D02*
G01*
X74698500Y-74766000D01*
X74698500Y-73964000D01*
X76725500Y-73964000D01*
X76725500Y-74766000D01*
X76725500Y-74766000D01*
G37*
G36*
X113301500Y-74686000D02*
G01*
X111274500Y-74686000D01*
X111274500Y-73884000D01*
X113301500Y-73884000D01*
X113301500Y-74686000D01*
X113301500Y-74686000D01*
G37*
G36*
X122725500Y-74686000D02*
G01*
X120698500Y-74686000D01*
X120698500Y-73884000D01*
X122725500Y-73884000D01*
X122725500Y-74686000D01*
X122725500Y-74686000D01*
G37*
G36*
X101868228Y-72851703D02*
G01*
X102023100Y-72915853D01*
X102162481Y-73008985D01*
X102281015Y-73127519D01*
X102374147Y-73266900D01*
X102438297Y-73421772D01*
X102471000Y-73586184D01*
X102471000Y-73753816D01*
X102438297Y-73918228D01*
X102374147Y-74073100D01*
X102281015Y-74212481D01*
X102162481Y-74331015D01*
X102023100Y-74424147D01*
X101868228Y-74488297D01*
X101703816Y-74521000D01*
X101536184Y-74521000D01*
X101371772Y-74488297D01*
X101216900Y-74424147D01*
X101077519Y-74331015D01*
X100958985Y-74212481D01*
X100865853Y-74073100D01*
X100801703Y-73918228D01*
X100769000Y-73753816D01*
X100769000Y-73586184D01*
X100801703Y-73421772D01*
X100865853Y-73266900D01*
X100958985Y-73127519D01*
X101077519Y-73008985D01*
X101216900Y-72915853D01*
X101371772Y-72851703D01*
X101536184Y-72819000D01*
X101703816Y-72819000D01*
X101868228Y-72851703D01*
X101868228Y-72851703D01*
G37*
G36*
X86628228Y-72851703D02*
G01*
X86783100Y-72915853D01*
X86922481Y-73008985D01*
X87041015Y-73127519D01*
X87134147Y-73266900D01*
X87198297Y-73421772D01*
X87231000Y-73586184D01*
X87231000Y-73753816D01*
X87198297Y-73918228D01*
X87134147Y-74073100D01*
X87041015Y-74212481D01*
X86922481Y-74331015D01*
X86783100Y-74424147D01*
X86628228Y-74488297D01*
X86463816Y-74521000D01*
X86296184Y-74521000D01*
X86131772Y-74488297D01*
X85976900Y-74424147D01*
X85837519Y-74331015D01*
X85718985Y-74212481D01*
X85625853Y-74073100D01*
X85561703Y-73918228D01*
X85529000Y-73753816D01*
X85529000Y-73586184D01*
X85561703Y-73421772D01*
X85625853Y-73266900D01*
X85718985Y-73127519D01*
X85837519Y-73008985D01*
X85976900Y-72915853D01*
X86131772Y-72851703D01*
X86296184Y-72819000D01*
X86463816Y-72819000D01*
X86628228Y-72851703D01*
X86628228Y-72851703D01*
G37*
G36*
X130333000Y-73851000D02*
G01*
X128331000Y-73851000D01*
X128331000Y-73149000D01*
X130333000Y-73149000D01*
X130333000Y-73851000D01*
X130333000Y-73851000D01*
G37*
G36*
X59669000Y-73851000D02*
G01*
X57667000Y-73851000D01*
X57667000Y-73149000D01*
X59669000Y-73149000D01*
X59669000Y-73851000D01*
X59669000Y-73851000D01*
G37*
G36*
X108984468Y-72253565D02*
G01*
X109023138Y-72265296D01*
X109058777Y-72284346D01*
X109090017Y-72309983D01*
X109115654Y-72341223D01*
X109134704Y-72376862D01*
X109146435Y-72415532D01*
X109151000Y-72461888D01*
X109151000Y-73538112D01*
X109146435Y-73584468D01*
X109134704Y-73623138D01*
X109115654Y-73658777D01*
X109090017Y-73690017D01*
X109058777Y-73715654D01*
X109023138Y-73734704D01*
X108984468Y-73746435D01*
X108938112Y-73751000D01*
X108286888Y-73751000D01*
X108240532Y-73746435D01*
X108201862Y-73734704D01*
X108166223Y-73715654D01*
X108134983Y-73690017D01*
X108109346Y-73658777D01*
X108090296Y-73623138D01*
X108078565Y-73584468D01*
X108074000Y-73538112D01*
X108074000Y-72461888D01*
X108078565Y-72415532D01*
X108090296Y-72376862D01*
X108109346Y-72341223D01*
X108134983Y-72309983D01*
X108166223Y-72284346D01*
X108201862Y-72265296D01*
X108240532Y-72253565D01*
X108286888Y-72249000D01*
X108938112Y-72249000D01*
X108984468Y-72253565D01*
X108984468Y-72253565D01*
G37*
G36*
X107109468Y-72253565D02*
G01*
X107148138Y-72265296D01*
X107183777Y-72284346D01*
X107215017Y-72309983D01*
X107240654Y-72341223D01*
X107259704Y-72376862D01*
X107271435Y-72415532D01*
X107276000Y-72461888D01*
X107276000Y-73538112D01*
X107271435Y-73584468D01*
X107259704Y-73623138D01*
X107240654Y-73658777D01*
X107215017Y-73690017D01*
X107183777Y-73715654D01*
X107148138Y-73734704D01*
X107109468Y-73746435D01*
X107063112Y-73751000D01*
X106411888Y-73751000D01*
X106365532Y-73746435D01*
X106326862Y-73734704D01*
X106291223Y-73715654D01*
X106259983Y-73690017D01*
X106234346Y-73658777D01*
X106215296Y-73623138D01*
X106203565Y-73584468D01*
X106199000Y-73538112D01*
X106199000Y-72461888D01*
X106203565Y-72415532D01*
X106215296Y-72376862D01*
X106234346Y-72341223D01*
X106259983Y-72309983D01*
X106291223Y-72284346D01*
X106326862Y-72265296D01*
X106365532Y-72253565D01*
X106411888Y-72249000D01*
X107063112Y-72249000D01*
X107109468Y-72253565D01*
X107109468Y-72253565D01*
G37*
G36*
X124759468Y-72103565D02*
G01*
X124798138Y-72115296D01*
X124833777Y-72134346D01*
X124865017Y-72159983D01*
X124890654Y-72191223D01*
X124909704Y-72226862D01*
X124921435Y-72265532D01*
X124926000Y-72311888D01*
X124926000Y-73388112D01*
X124921435Y-73434468D01*
X124909704Y-73473138D01*
X124890654Y-73508777D01*
X124865017Y-73540017D01*
X124833777Y-73565654D01*
X124798138Y-73584704D01*
X124759468Y-73596435D01*
X124713112Y-73601000D01*
X124061888Y-73601000D01*
X124015532Y-73596435D01*
X123976862Y-73584704D01*
X123941223Y-73565654D01*
X123909983Y-73540017D01*
X123884346Y-73508777D01*
X123865296Y-73473138D01*
X123853565Y-73434468D01*
X123849000Y-73388112D01*
X123849000Y-72311888D01*
X123853565Y-72265532D01*
X123865296Y-72226862D01*
X123884346Y-72191223D01*
X123909983Y-72159983D01*
X123941223Y-72134346D01*
X123976862Y-72115296D01*
X124015532Y-72103565D01*
X124061888Y-72099000D01*
X124713112Y-72099000D01*
X124759468Y-72103565D01*
X124759468Y-72103565D01*
G37*
G36*
X126634468Y-72103565D02*
G01*
X126673138Y-72115296D01*
X126708777Y-72134346D01*
X126740017Y-72159983D01*
X126765654Y-72191223D01*
X126784704Y-72226862D01*
X126796435Y-72265532D01*
X126801000Y-72311888D01*
X126801000Y-73388112D01*
X126796435Y-73434468D01*
X126784704Y-73473138D01*
X126765654Y-73508777D01*
X126740017Y-73540017D01*
X126708777Y-73565654D01*
X126673138Y-73584704D01*
X126634468Y-73596435D01*
X126588112Y-73601000D01*
X125936888Y-73601000D01*
X125890532Y-73596435D01*
X125851862Y-73584704D01*
X125816223Y-73565654D01*
X125784983Y-73540017D01*
X125759346Y-73508777D01*
X125740296Y-73473138D01*
X125728565Y-73434468D01*
X125724000Y-73388112D01*
X125724000Y-72311888D01*
X125728565Y-72265532D01*
X125740296Y-72226862D01*
X125759346Y-72191223D01*
X125784983Y-72159983D01*
X125816223Y-72134346D01*
X125851862Y-72115296D01*
X125890532Y-72103565D01*
X125936888Y-72099000D01*
X126588112Y-72099000D01*
X126634468Y-72103565D01*
X126634468Y-72103565D01*
G37*
G36*
X67301500Y-73496000D02*
G01*
X65274500Y-73496000D01*
X65274500Y-72694000D01*
X67301500Y-72694000D01*
X67301500Y-73496000D01*
X67301500Y-73496000D01*
G37*
G36*
X76725500Y-73496000D02*
G01*
X74698500Y-73496000D01*
X74698500Y-72694000D01*
X76725500Y-72694000D01*
X76725500Y-73496000D01*
X76725500Y-73496000D01*
G37*
G36*
X122725500Y-73416000D02*
G01*
X120698500Y-73416000D01*
X120698500Y-72614000D01*
X122725500Y-72614000D01*
X122725500Y-73416000D01*
X122725500Y-73416000D01*
G37*
G36*
X113301500Y-73416000D02*
G01*
X111274500Y-73416000D01*
X111274500Y-72614000D01*
X113301500Y-72614000D01*
X113301500Y-73416000D01*
X113301500Y-73416000D01*
G37*
G36*
X79746068Y-71503365D02*
G01*
X79784738Y-71515096D01*
X79820377Y-71534146D01*
X79851617Y-71559783D01*
X79877254Y-71591023D01*
X79896304Y-71626662D01*
X79908035Y-71665332D01*
X79912600Y-71711688D01*
X79912600Y-72787912D01*
X79908035Y-72834268D01*
X79896304Y-72872938D01*
X79877254Y-72908577D01*
X79851617Y-72939817D01*
X79820377Y-72965454D01*
X79784738Y-72984504D01*
X79746068Y-72996235D01*
X79699712Y-73000800D01*
X79048488Y-73000800D01*
X79002132Y-72996235D01*
X78963462Y-72984504D01*
X78927823Y-72965454D01*
X78896583Y-72939817D01*
X78870946Y-72908577D01*
X78851896Y-72872938D01*
X78840165Y-72834268D01*
X78835600Y-72787912D01*
X78835600Y-71711688D01*
X78840165Y-71665332D01*
X78851896Y-71626662D01*
X78870946Y-71591023D01*
X78896583Y-71559783D01*
X78927823Y-71534146D01*
X78963462Y-71515096D01*
X79002132Y-71503365D01*
X79048488Y-71498800D01*
X79699712Y-71498800D01*
X79746068Y-71503365D01*
X79746068Y-71503365D01*
G37*
G36*
X81621068Y-71503365D02*
G01*
X81659738Y-71515096D01*
X81695377Y-71534146D01*
X81726617Y-71559783D01*
X81752254Y-71591023D01*
X81771304Y-71626662D01*
X81783035Y-71665332D01*
X81787600Y-71711688D01*
X81787600Y-72787912D01*
X81783035Y-72834268D01*
X81771304Y-72872938D01*
X81752254Y-72908577D01*
X81726617Y-72939817D01*
X81695377Y-72965454D01*
X81659738Y-72984504D01*
X81621068Y-72996235D01*
X81574712Y-73000800D01*
X80923488Y-73000800D01*
X80877132Y-72996235D01*
X80838462Y-72984504D01*
X80802823Y-72965454D01*
X80771583Y-72939817D01*
X80745946Y-72908577D01*
X80726896Y-72872938D01*
X80715165Y-72834268D01*
X80710600Y-72787912D01*
X80710600Y-71711688D01*
X80715165Y-71665332D01*
X80726896Y-71626662D01*
X80745946Y-71591023D01*
X80771583Y-71559783D01*
X80802823Y-71534146D01*
X80838462Y-71515096D01*
X80877132Y-71503365D01*
X80923488Y-71498800D01*
X81574712Y-71498800D01*
X81621068Y-71503365D01*
X81621068Y-71503365D01*
G37*
G36*
X59669000Y-72851000D02*
G01*
X57667000Y-72851000D01*
X57667000Y-72149000D01*
X59669000Y-72149000D01*
X59669000Y-72851000D01*
X59669000Y-72851000D01*
G37*
G36*
X130333000Y-72851000D02*
G01*
X128331000Y-72851000D01*
X128331000Y-72149000D01*
X130333000Y-72149000D01*
X130333000Y-72851000D01*
X130333000Y-72851000D01*
G37*
G36*
X67301500Y-72226000D02*
G01*
X65274500Y-72226000D01*
X65274500Y-71424000D01*
X67301500Y-71424000D01*
X67301500Y-72226000D01*
X67301500Y-72226000D01*
G37*
G36*
X76725500Y-72226000D02*
G01*
X74698500Y-72226000D01*
X74698500Y-71424000D01*
X76725500Y-71424000D01*
X76725500Y-72226000D01*
X76725500Y-72226000D01*
G37*
G36*
X86628228Y-70311703D02*
G01*
X86783100Y-70375853D01*
X86922481Y-70468985D01*
X87041015Y-70587519D01*
X87134147Y-70726900D01*
X87198297Y-70881772D01*
X87231000Y-71046184D01*
X87231000Y-71213816D01*
X87198297Y-71378228D01*
X87134147Y-71533100D01*
X87041015Y-71672481D01*
X86922481Y-71791015D01*
X86783100Y-71884147D01*
X86628228Y-71948297D01*
X86463816Y-71981000D01*
X86296184Y-71981000D01*
X86131772Y-71948297D01*
X85976900Y-71884147D01*
X85837519Y-71791015D01*
X85718985Y-71672481D01*
X85625853Y-71533100D01*
X85561703Y-71378228D01*
X85529000Y-71213816D01*
X85529000Y-71046184D01*
X85561703Y-70881772D01*
X85625853Y-70726900D01*
X85718985Y-70587519D01*
X85837519Y-70468985D01*
X85976900Y-70375853D01*
X86131772Y-70311703D01*
X86296184Y-70279000D01*
X86463816Y-70279000D01*
X86628228Y-70311703D01*
X86628228Y-70311703D01*
G37*
G36*
X101868228Y-70311703D02*
G01*
X102023100Y-70375853D01*
X102162481Y-70468985D01*
X102281015Y-70587519D01*
X102374147Y-70726900D01*
X102438297Y-70881772D01*
X102471000Y-71046184D01*
X102471000Y-71213816D01*
X102438297Y-71378228D01*
X102374147Y-71533100D01*
X102281015Y-71672481D01*
X102162481Y-71791015D01*
X102023100Y-71884147D01*
X101868228Y-71948297D01*
X101703816Y-71981000D01*
X101536184Y-71981000D01*
X101371772Y-71948297D01*
X101216900Y-71884147D01*
X101077519Y-71791015D01*
X100958985Y-71672481D01*
X100865853Y-71533100D01*
X100801703Y-71378228D01*
X100769000Y-71213816D01*
X100769000Y-71046184D01*
X100801703Y-70881772D01*
X100865853Y-70726900D01*
X100958985Y-70587519D01*
X101077519Y-70468985D01*
X101216900Y-70375853D01*
X101371772Y-70311703D01*
X101536184Y-70279000D01*
X101703816Y-70279000D01*
X101868228Y-70311703D01*
X101868228Y-70311703D01*
G37*
G36*
X62330997Y-69178051D02*
G01*
X62364652Y-69188261D01*
X62395665Y-69204838D01*
X62422851Y-69227149D01*
X62445162Y-69254335D01*
X62461739Y-69285348D01*
X62471949Y-69319003D01*
X62476000Y-69360138D01*
X62476000Y-71689862D01*
X62471949Y-71730997D01*
X62461739Y-71764652D01*
X62445162Y-71795665D01*
X62422851Y-71822851D01*
X62395665Y-71845162D01*
X62364652Y-71861739D01*
X62330997Y-71871949D01*
X62289862Y-71876000D01*
X60960138Y-71876000D01*
X60919003Y-71871949D01*
X60885348Y-71861739D01*
X60854335Y-71845162D01*
X60827149Y-71822851D01*
X60804838Y-71795665D01*
X60788261Y-71764652D01*
X60778051Y-71730997D01*
X60774000Y-71689862D01*
X60774000Y-69360138D01*
X60778051Y-69319003D01*
X60788261Y-69285348D01*
X60804838Y-69254335D01*
X60827149Y-69227149D01*
X60854335Y-69204838D01*
X60885348Y-69188261D01*
X60919003Y-69178051D01*
X60960138Y-69174000D01*
X62289862Y-69174000D01*
X62330997Y-69178051D01*
X62330997Y-69178051D01*
G37*
G36*
X79746068Y-69598365D02*
G01*
X79784738Y-69610096D01*
X79820377Y-69629146D01*
X79851617Y-69654783D01*
X79877254Y-69686023D01*
X79896304Y-69721662D01*
X79908035Y-69760332D01*
X79912600Y-69806688D01*
X79912600Y-70882912D01*
X79908035Y-70929268D01*
X79896304Y-70967938D01*
X79877254Y-71003577D01*
X79851617Y-71034817D01*
X79820377Y-71060454D01*
X79784738Y-71079504D01*
X79746068Y-71091235D01*
X79699712Y-71095800D01*
X79048488Y-71095800D01*
X79002132Y-71091235D01*
X78963462Y-71079504D01*
X78927823Y-71060454D01*
X78896583Y-71034817D01*
X78870946Y-71003577D01*
X78851896Y-70967938D01*
X78840165Y-70929268D01*
X78835600Y-70882912D01*
X78835600Y-69806688D01*
X78840165Y-69760332D01*
X78851896Y-69721662D01*
X78870946Y-69686023D01*
X78896583Y-69654783D01*
X78927823Y-69629146D01*
X78963462Y-69610096D01*
X79002132Y-69598365D01*
X79048488Y-69593800D01*
X79699712Y-69593800D01*
X79746068Y-69598365D01*
X79746068Y-69598365D01*
G37*
G36*
X81621068Y-69598365D02*
G01*
X81659738Y-69610096D01*
X81695377Y-69629146D01*
X81726617Y-69654783D01*
X81752254Y-69686023D01*
X81771304Y-69721662D01*
X81783035Y-69760332D01*
X81787600Y-69806688D01*
X81787600Y-70882912D01*
X81783035Y-70929268D01*
X81771304Y-70967938D01*
X81752254Y-71003577D01*
X81726617Y-71034817D01*
X81695377Y-71060454D01*
X81659738Y-71079504D01*
X81621068Y-71091235D01*
X81574712Y-71095800D01*
X80923488Y-71095800D01*
X80877132Y-71091235D01*
X80838462Y-71079504D01*
X80802823Y-71060454D01*
X80771583Y-71034817D01*
X80745946Y-71003577D01*
X80726896Y-70967938D01*
X80715165Y-70929268D01*
X80710600Y-70882912D01*
X80710600Y-69806688D01*
X80715165Y-69760332D01*
X80726896Y-69721662D01*
X80745946Y-69686023D01*
X80771583Y-69654783D01*
X80802823Y-69629146D01*
X80838462Y-69610096D01*
X80877132Y-69598365D01*
X80923488Y-69593800D01*
X81574712Y-69593800D01*
X81621068Y-69598365D01*
X81621068Y-69598365D01*
G37*
G36*
X76725500Y-70956000D02*
G01*
X74698500Y-70956000D01*
X74698500Y-70154000D01*
X76725500Y-70154000D01*
X76725500Y-70956000D01*
X76725500Y-70956000D01*
G37*
G36*
X67301500Y-70956000D02*
G01*
X65274500Y-70956000D01*
X65274500Y-70154000D01*
X67301500Y-70154000D01*
X67301500Y-70956000D01*
X67301500Y-70956000D01*
G37*
G36*
X116457268Y-69430565D02*
G01*
X116495938Y-69442296D01*
X116531577Y-69461346D01*
X116562817Y-69486983D01*
X116588454Y-69518223D01*
X116607504Y-69553862D01*
X116619235Y-69592532D01*
X116623800Y-69638888D01*
X116623800Y-70290112D01*
X116619235Y-70336468D01*
X116607504Y-70375138D01*
X116588454Y-70410777D01*
X116562817Y-70442017D01*
X116531577Y-70467654D01*
X116495938Y-70486704D01*
X116457268Y-70498435D01*
X116410912Y-70503000D01*
X115334688Y-70503000D01*
X115288332Y-70498435D01*
X115249662Y-70486704D01*
X115214023Y-70467654D01*
X115182783Y-70442017D01*
X115157146Y-70410777D01*
X115138096Y-70375138D01*
X115126365Y-70336468D01*
X115121800Y-70290112D01*
X115121800Y-69638888D01*
X115126365Y-69592532D01*
X115138096Y-69553862D01*
X115157146Y-69518223D01*
X115182783Y-69486983D01*
X115214023Y-69461346D01*
X115249662Y-69442296D01*
X115288332Y-69430565D01*
X115334688Y-69426000D01*
X116410912Y-69426000D01*
X116457268Y-69430565D01*
X116457268Y-69430565D01*
G37*
G36*
X114552268Y-69430565D02*
G01*
X114590938Y-69442296D01*
X114626577Y-69461346D01*
X114657817Y-69486983D01*
X114683454Y-69518223D01*
X114702504Y-69553862D01*
X114714235Y-69592532D01*
X114718800Y-69638888D01*
X114718800Y-70290112D01*
X114714235Y-70336468D01*
X114702504Y-70375138D01*
X114683454Y-70410777D01*
X114657817Y-70442017D01*
X114626577Y-70467654D01*
X114590938Y-70486704D01*
X114552268Y-70498435D01*
X114505912Y-70503000D01*
X113429688Y-70503000D01*
X113383332Y-70498435D01*
X113344662Y-70486704D01*
X113309023Y-70467654D01*
X113277783Y-70442017D01*
X113252146Y-70410777D01*
X113233096Y-70375138D01*
X113221365Y-70336468D01*
X113216800Y-70290112D01*
X113216800Y-69638888D01*
X113221365Y-69592532D01*
X113233096Y-69553862D01*
X113252146Y-69518223D01*
X113277783Y-69486983D01*
X113309023Y-69461346D01*
X113344662Y-69442296D01*
X113383332Y-69430565D01*
X113429688Y-69426000D01*
X114505912Y-69426000D01*
X114552268Y-69430565D01*
X114552268Y-69430565D01*
G37*
G36*
X57769000Y-70451000D02*
G01*
X54867000Y-70451000D01*
X54867000Y-68249000D01*
X57769000Y-68249000D01*
X57769000Y-70451000D01*
X57769000Y-70451000D01*
G37*
G36*
X133133000Y-70451000D02*
G01*
X130231000Y-70451000D01*
X130231000Y-68249000D01*
X133133000Y-68249000D01*
X133133000Y-70451000D01*
X133133000Y-70451000D01*
G37*
G36*
X119001000Y-70226000D02*
G01*
X117999000Y-70226000D01*
X117999000Y-68924000D01*
X119001000Y-68924000D01*
X119001000Y-70226000D01*
X119001000Y-70226000D01*
G37*
G36*
X122301000Y-70226000D02*
G01*
X121299000Y-70226000D01*
X121299000Y-68924000D01*
X122301000Y-68924000D01*
X122301000Y-70226000D01*
X122301000Y-70226000D01*
G37*
G36*
X76725500Y-69686000D02*
G01*
X74698500Y-69686000D01*
X74698500Y-68884000D01*
X76725500Y-68884000D01*
X76725500Y-69686000D01*
X76725500Y-69686000D01*
G37*
G36*
X67301500Y-69686000D02*
G01*
X65274500Y-69686000D01*
X65274500Y-68884000D01*
X67301500Y-68884000D01*
X67301500Y-69686000D01*
X67301500Y-69686000D01*
G37*
G36*
X101868228Y-67771703D02*
G01*
X102023100Y-67835853D01*
X102162481Y-67928985D01*
X102281015Y-68047519D01*
X102374147Y-68186900D01*
X102438297Y-68341772D01*
X102471000Y-68506184D01*
X102471000Y-68673816D01*
X102438297Y-68838228D01*
X102374147Y-68993100D01*
X102281015Y-69132481D01*
X102162481Y-69251015D01*
X102023100Y-69344147D01*
X101868228Y-69408297D01*
X101703816Y-69441000D01*
X101536184Y-69441000D01*
X101371772Y-69408297D01*
X101216900Y-69344147D01*
X101077519Y-69251015D01*
X100958985Y-69132481D01*
X100865853Y-68993100D01*
X100801703Y-68838228D01*
X100769000Y-68673816D01*
X100769000Y-68506184D01*
X100801703Y-68341772D01*
X100865853Y-68186900D01*
X100958985Y-68047519D01*
X101077519Y-67928985D01*
X101216900Y-67835853D01*
X101371772Y-67771703D01*
X101536184Y-67739000D01*
X101703816Y-67739000D01*
X101868228Y-67771703D01*
X101868228Y-67771703D01*
G37*
G36*
X86628228Y-67771703D02*
G01*
X86783100Y-67835853D01*
X86922481Y-67928985D01*
X87041015Y-68047519D01*
X87134147Y-68186900D01*
X87198297Y-68341772D01*
X87231000Y-68506184D01*
X87231000Y-68673816D01*
X87198297Y-68838228D01*
X87134147Y-68993100D01*
X87041015Y-69132481D01*
X86922481Y-69251015D01*
X86783100Y-69344147D01*
X86628228Y-69408297D01*
X86463816Y-69441000D01*
X86296184Y-69441000D01*
X86131772Y-69408297D01*
X85976900Y-69344147D01*
X85837519Y-69251015D01*
X85718985Y-69132481D01*
X85625853Y-68993100D01*
X85561703Y-68838228D01*
X85529000Y-68673816D01*
X85529000Y-68506184D01*
X85561703Y-68341772D01*
X85625853Y-68186900D01*
X85718985Y-68047519D01*
X85837519Y-67928985D01*
X85976900Y-67835853D01*
X86131772Y-67771703D01*
X86296184Y-67739000D01*
X86463816Y-67739000D01*
X86628228Y-67771703D01*
X86628228Y-67771703D01*
G37*
G36*
X79746068Y-67693365D02*
G01*
X79784738Y-67705096D01*
X79820377Y-67724146D01*
X79851617Y-67749783D01*
X79877254Y-67781023D01*
X79896304Y-67816662D01*
X79908035Y-67855332D01*
X79912600Y-67901688D01*
X79912600Y-68977912D01*
X79908035Y-69024268D01*
X79896304Y-69062938D01*
X79877254Y-69098577D01*
X79851617Y-69129817D01*
X79820377Y-69155454D01*
X79784738Y-69174504D01*
X79746068Y-69186235D01*
X79699712Y-69190800D01*
X79048488Y-69190800D01*
X79002132Y-69186235D01*
X78963462Y-69174504D01*
X78927823Y-69155454D01*
X78896583Y-69129817D01*
X78870946Y-69098577D01*
X78851896Y-69062938D01*
X78840165Y-69024268D01*
X78835600Y-68977912D01*
X78835600Y-67901688D01*
X78840165Y-67855332D01*
X78851896Y-67816662D01*
X78870946Y-67781023D01*
X78896583Y-67749783D01*
X78927823Y-67724146D01*
X78963462Y-67705096D01*
X79002132Y-67693365D01*
X79048488Y-67688800D01*
X79699712Y-67688800D01*
X79746068Y-67693365D01*
X79746068Y-67693365D01*
G37*
G36*
X81621068Y-67693365D02*
G01*
X81659738Y-67705096D01*
X81695377Y-67724146D01*
X81726617Y-67749783D01*
X81752254Y-67781023D01*
X81771304Y-67816662D01*
X81783035Y-67855332D01*
X81787600Y-67901688D01*
X81787600Y-68977912D01*
X81783035Y-69024268D01*
X81771304Y-69062938D01*
X81752254Y-69098577D01*
X81726617Y-69129817D01*
X81695377Y-69155454D01*
X81659738Y-69174504D01*
X81621068Y-69186235D01*
X81574712Y-69190800D01*
X80923488Y-69190800D01*
X80877132Y-69186235D01*
X80838462Y-69174504D01*
X80802823Y-69155454D01*
X80771583Y-69129817D01*
X80745946Y-69098577D01*
X80726896Y-69062938D01*
X80715165Y-69024268D01*
X80710600Y-68977912D01*
X80710600Y-67901688D01*
X80715165Y-67855332D01*
X80726896Y-67816662D01*
X80745946Y-67781023D01*
X80771583Y-67749783D01*
X80802823Y-67724146D01*
X80838462Y-67705096D01*
X80877132Y-67693365D01*
X80923488Y-67688800D01*
X81574712Y-67688800D01*
X81621068Y-67693365D01*
X81621068Y-67693365D01*
G37*
G36*
X116457268Y-67555565D02*
G01*
X116495938Y-67567296D01*
X116531577Y-67586346D01*
X116562817Y-67611983D01*
X116588454Y-67643223D01*
X116607504Y-67678862D01*
X116619235Y-67717532D01*
X116623800Y-67763888D01*
X116623800Y-68415112D01*
X116619235Y-68461468D01*
X116607504Y-68500138D01*
X116588454Y-68535777D01*
X116562817Y-68567017D01*
X116531577Y-68592654D01*
X116495938Y-68611704D01*
X116457268Y-68623435D01*
X116410912Y-68628000D01*
X115334688Y-68628000D01*
X115288332Y-68623435D01*
X115249662Y-68611704D01*
X115214023Y-68592654D01*
X115182783Y-68567017D01*
X115157146Y-68535777D01*
X115138096Y-68500138D01*
X115126365Y-68461468D01*
X115121800Y-68415112D01*
X115121800Y-67763888D01*
X115126365Y-67717532D01*
X115138096Y-67678862D01*
X115157146Y-67643223D01*
X115182783Y-67611983D01*
X115214023Y-67586346D01*
X115249662Y-67567296D01*
X115288332Y-67555565D01*
X115334688Y-67551000D01*
X116410912Y-67551000D01*
X116457268Y-67555565D01*
X116457268Y-67555565D01*
G37*
G36*
X114552268Y-67555565D02*
G01*
X114590938Y-67567296D01*
X114626577Y-67586346D01*
X114657817Y-67611983D01*
X114683454Y-67643223D01*
X114702504Y-67678862D01*
X114714235Y-67717532D01*
X114718800Y-67763888D01*
X114718800Y-68415112D01*
X114714235Y-68461468D01*
X114702504Y-68500138D01*
X114683454Y-68535777D01*
X114657817Y-68567017D01*
X114626577Y-68592654D01*
X114590938Y-68611704D01*
X114552268Y-68623435D01*
X114505912Y-68628000D01*
X113429688Y-68628000D01*
X113383332Y-68623435D01*
X113344662Y-68611704D01*
X113309023Y-68592654D01*
X113277783Y-68567017D01*
X113252146Y-68535777D01*
X113233096Y-68500138D01*
X113221365Y-68461468D01*
X113216800Y-68415112D01*
X113216800Y-67763888D01*
X113221365Y-67717532D01*
X113233096Y-67678862D01*
X113252146Y-67643223D01*
X113277783Y-67611983D01*
X113309023Y-67586346D01*
X113344662Y-67567296D01*
X113383332Y-67555565D01*
X113429688Y-67551000D01*
X114505912Y-67551000D01*
X114552268Y-67555565D01*
X114552268Y-67555565D01*
G37*
G36*
X67301500Y-68416000D02*
G01*
X65274500Y-68416000D01*
X65274500Y-67614000D01*
X67301500Y-67614000D01*
X67301500Y-68416000D01*
X67301500Y-68416000D01*
G37*
G36*
X76725500Y-68416000D02*
G01*
X74698500Y-68416000D01*
X74698500Y-67614000D01*
X76725500Y-67614000D01*
X76725500Y-68416000D01*
X76725500Y-68416000D01*
G37*
G36*
X62330997Y-65578051D02*
G01*
X62364652Y-65588261D01*
X62395665Y-65604838D01*
X62422851Y-65627149D01*
X62445162Y-65654335D01*
X62461739Y-65685348D01*
X62471949Y-65719003D01*
X62476000Y-65760138D01*
X62476000Y-68089862D01*
X62471949Y-68130997D01*
X62461739Y-68164652D01*
X62445162Y-68195665D01*
X62422851Y-68222851D01*
X62395665Y-68245162D01*
X62364652Y-68261739D01*
X62330997Y-68271949D01*
X62289862Y-68276000D01*
X60960138Y-68276000D01*
X60919003Y-68271949D01*
X60885348Y-68261739D01*
X60854335Y-68245162D01*
X60827149Y-68222851D01*
X60804838Y-68195665D01*
X60788261Y-68164652D01*
X60778051Y-68130997D01*
X60774000Y-68089862D01*
X60774000Y-65760138D01*
X60778051Y-65719003D01*
X60788261Y-65685348D01*
X60804838Y-65654335D01*
X60827149Y-65627149D01*
X60854335Y-65604838D01*
X60885348Y-65588261D01*
X60919003Y-65578051D01*
X60960138Y-65574000D01*
X62289862Y-65574000D01*
X62330997Y-65578051D01*
X62330997Y-65578051D01*
G37*
G36*
X119001000Y-67926000D02*
G01*
X117999000Y-67926000D01*
X117999000Y-66624000D01*
X119001000Y-66624000D01*
X119001000Y-67926000D01*
X119001000Y-67926000D01*
G37*
G36*
X122301000Y-67926000D02*
G01*
X121299000Y-67926000D01*
X121299000Y-66624000D01*
X122301000Y-66624000D01*
X122301000Y-67926000D01*
X122301000Y-67926000D01*
G37*
G36*
X101868228Y-65231703D02*
G01*
X102023100Y-65295853D01*
X102162481Y-65388985D01*
X102281015Y-65507519D01*
X102374147Y-65646900D01*
X102438297Y-65801772D01*
X102471000Y-65966184D01*
X102471000Y-66133816D01*
X102438297Y-66298228D01*
X102374147Y-66453100D01*
X102281015Y-66592481D01*
X102162481Y-66711015D01*
X102023100Y-66804147D01*
X101868228Y-66868297D01*
X101703816Y-66901000D01*
X101536184Y-66901000D01*
X101371772Y-66868297D01*
X101216900Y-66804147D01*
X101077519Y-66711015D01*
X100958985Y-66592481D01*
X100865853Y-66453100D01*
X100801703Y-66298228D01*
X100769000Y-66133816D01*
X100769000Y-65966184D01*
X100801703Y-65801772D01*
X100865853Y-65646900D01*
X100958985Y-65507519D01*
X101077519Y-65388985D01*
X101216900Y-65295853D01*
X101371772Y-65231703D01*
X101536184Y-65199000D01*
X101703816Y-65199000D01*
X101868228Y-65231703D01*
X101868228Y-65231703D01*
G37*
G36*
X86628228Y-65231703D02*
G01*
X86783100Y-65295853D01*
X86922481Y-65388985D01*
X87041015Y-65507519D01*
X87134147Y-65646900D01*
X87198297Y-65801772D01*
X87231000Y-65966184D01*
X87231000Y-66133816D01*
X87198297Y-66298228D01*
X87134147Y-66453100D01*
X87041015Y-66592481D01*
X86922481Y-66711015D01*
X86783100Y-66804147D01*
X86628228Y-66868297D01*
X86463816Y-66901000D01*
X86296184Y-66901000D01*
X86131772Y-66868297D01*
X85976900Y-66804147D01*
X85837519Y-66711015D01*
X85718985Y-66592481D01*
X85625853Y-66453100D01*
X85561703Y-66298228D01*
X85529000Y-66133816D01*
X85529000Y-65966184D01*
X85561703Y-65801772D01*
X85625853Y-65646900D01*
X85718985Y-65507519D01*
X85837519Y-65388985D01*
X85976900Y-65295853D01*
X86131772Y-65231703D01*
X86296184Y-65199000D01*
X86463816Y-65199000D01*
X86628228Y-65231703D01*
X86628228Y-65231703D01*
G37*
G36*
X73785868Y-64337365D02*
G01*
X73824538Y-64349096D01*
X73860177Y-64368146D01*
X73891417Y-64393783D01*
X73917054Y-64425023D01*
X73936104Y-64460662D01*
X73947835Y-64499332D01*
X73952400Y-64545688D01*
X73952400Y-65196912D01*
X73947835Y-65243268D01*
X73936104Y-65281938D01*
X73917054Y-65317577D01*
X73891417Y-65348817D01*
X73860177Y-65374454D01*
X73824538Y-65393504D01*
X73785868Y-65405235D01*
X73739512Y-65409800D01*
X72663288Y-65409800D01*
X72616932Y-65405235D01*
X72578262Y-65393504D01*
X72542623Y-65374454D01*
X72511383Y-65348817D01*
X72485746Y-65317577D01*
X72466696Y-65281938D01*
X72454965Y-65243268D01*
X72450400Y-65196912D01*
X72450400Y-64545688D01*
X72454965Y-64499332D01*
X72466696Y-64460662D01*
X72485746Y-64425023D01*
X72511383Y-64393783D01*
X72542623Y-64368146D01*
X72578262Y-64349096D01*
X72616932Y-64337365D01*
X72663288Y-64332800D01*
X73739512Y-64332800D01*
X73785868Y-64337365D01*
X73785868Y-64337365D01*
G37*
G36*
X71880868Y-64337365D02*
G01*
X71919538Y-64349096D01*
X71955177Y-64368146D01*
X71986417Y-64393783D01*
X72012054Y-64425023D01*
X72031104Y-64460662D01*
X72042835Y-64499332D01*
X72047400Y-64545688D01*
X72047400Y-65196912D01*
X72042835Y-65243268D01*
X72031104Y-65281938D01*
X72012054Y-65317577D01*
X71986417Y-65348817D01*
X71955177Y-65374454D01*
X71919538Y-65393504D01*
X71880868Y-65405235D01*
X71834512Y-65409800D01*
X70758288Y-65409800D01*
X70711932Y-65405235D01*
X70673262Y-65393504D01*
X70637623Y-65374454D01*
X70606383Y-65348817D01*
X70580746Y-65317577D01*
X70561696Y-65281938D01*
X70549965Y-65243268D01*
X70545400Y-65196912D01*
X70545400Y-64545688D01*
X70549965Y-64499332D01*
X70561696Y-64460662D01*
X70580746Y-64425023D01*
X70606383Y-64393783D01*
X70637623Y-64368146D01*
X70673262Y-64349096D01*
X70711932Y-64337365D01*
X70758288Y-64332800D01*
X71834512Y-64332800D01*
X71880868Y-64337365D01*
X71880868Y-64337365D01*
G37*
G36*
X69975868Y-64337365D02*
G01*
X70014538Y-64349096D01*
X70050177Y-64368146D01*
X70081417Y-64393783D01*
X70107054Y-64425023D01*
X70126104Y-64460662D01*
X70137835Y-64499332D01*
X70142400Y-64545688D01*
X70142400Y-65196912D01*
X70137835Y-65243268D01*
X70126104Y-65281938D01*
X70107054Y-65317577D01*
X70081417Y-65348817D01*
X70050177Y-65374454D01*
X70014538Y-65393504D01*
X69975868Y-65405235D01*
X69929512Y-65409800D01*
X68853288Y-65409800D01*
X68806932Y-65405235D01*
X68768262Y-65393504D01*
X68732623Y-65374454D01*
X68701383Y-65348817D01*
X68675746Y-65317577D01*
X68656696Y-65281938D01*
X68644965Y-65243268D01*
X68640400Y-65196912D01*
X68640400Y-64545688D01*
X68644965Y-64499332D01*
X68656696Y-64460662D01*
X68675746Y-64425023D01*
X68701383Y-64393783D01*
X68732623Y-64368146D01*
X68768262Y-64349096D01*
X68806932Y-64337365D01*
X68853288Y-64332800D01*
X69929512Y-64332800D01*
X69975868Y-64337365D01*
X69975868Y-64337365D01*
G37*
G36*
X77609468Y-64328565D02*
G01*
X77648138Y-64340296D01*
X77683777Y-64359346D01*
X77715017Y-64384983D01*
X77740654Y-64416223D01*
X77759704Y-64451862D01*
X77771435Y-64490532D01*
X77776000Y-64536888D01*
X77776000Y-65188112D01*
X77771435Y-65234468D01*
X77759704Y-65273138D01*
X77740654Y-65308777D01*
X77715017Y-65340017D01*
X77683777Y-65365654D01*
X77648138Y-65384704D01*
X77609468Y-65396435D01*
X77563112Y-65401000D01*
X76486888Y-65401000D01*
X76440532Y-65396435D01*
X76401862Y-65384704D01*
X76366223Y-65365654D01*
X76334983Y-65340017D01*
X76309346Y-65308777D01*
X76290296Y-65273138D01*
X76278565Y-65234468D01*
X76274000Y-65188112D01*
X76274000Y-64536888D01*
X76278565Y-64490532D01*
X76290296Y-64451862D01*
X76309346Y-64416223D01*
X76334983Y-64384983D01*
X76366223Y-64359346D01*
X76401862Y-64340296D01*
X76440532Y-64328565D01*
X76486888Y-64324000D01*
X77563112Y-64324000D01*
X77609468Y-64328565D01*
X77609468Y-64328565D01*
G37*
G36*
X75709468Y-64328565D02*
G01*
X75748138Y-64340296D01*
X75783777Y-64359346D01*
X75815017Y-64384983D01*
X75840654Y-64416223D01*
X75859704Y-64451862D01*
X75871435Y-64490532D01*
X75876000Y-64536888D01*
X75876000Y-65188112D01*
X75871435Y-65234468D01*
X75859704Y-65273138D01*
X75840654Y-65308777D01*
X75815017Y-65340017D01*
X75783777Y-65365654D01*
X75748138Y-65384704D01*
X75709468Y-65396435D01*
X75663112Y-65401000D01*
X74586888Y-65401000D01*
X74540532Y-65396435D01*
X74501862Y-65384704D01*
X74466223Y-65365654D01*
X74434983Y-65340017D01*
X74409346Y-65308777D01*
X74390296Y-65273138D01*
X74378565Y-65234468D01*
X74374000Y-65188112D01*
X74374000Y-64536888D01*
X74378565Y-64490532D01*
X74390296Y-64451862D01*
X74409346Y-64416223D01*
X74434983Y-64384983D01*
X74466223Y-64359346D01*
X74501862Y-64340296D01*
X74540532Y-64328565D01*
X74586888Y-64324000D01*
X75663112Y-64324000D01*
X75709468Y-64328565D01*
X75709468Y-64328565D01*
G37*
G36*
X68059468Y-64328565D02*
G01*
X68098138Y-64340296D01*
X68133777Y-64359346D01*
X68165017Y-64384983D01*
X68190654Y-64416223D01*
X68209704Y-64451862D01*
X68221435Y-64490532D01*
X68226000Y-64536888D01*
X68226000Y-65188112D01*
X68221435Y-65234468D01*
X68209704Y-65273138D01*
X68190654Y-65308777D01*
X68165017Y-65340017D01*
X68133777Y-65365654D01*
X68098138Y-65384704D01*
X68059468Y-65396435D01*
X68013112Y-65401000D01*
X66936888Y-65401000D01*
X66890532Y-65396435D01*
X66851862Y-65384704D01*
X66816223Y-65365654D01*
X66784983Y-65340017D01*
X66759346Y-65308777D01*
X66740296Y-65273138D01*
X66728565Y-65234468D01*
X66724000Y-65188112D01*
X66724000Y-64536888D01*
X66728565Y-64490532D01*
X66740296Y-64451862D01*
X66759346Y-64416223D01*
X66784983Y-64384983D01*
X66816223Y-64359346D01*
X66851862Y-64340296D01*
X66890532Y-64328565D01*
X66936888Y-64324000D01*
X68013112Y-64324000D01*
X68059468Y-64328565D01*
X68059468Y-64328565D01*
G37*
G36*
X66159468Y-64328565D02*
G01*
X66198138Y-64340296D01*
X66233777Y-64359346D01*
X66265017Y-64384983D01*
X66290654Y-64416223D01*
X66309704Y-64451862D01*
X66321435Y-64490532D01*
X66326000Y-64536888D01*
X66326000Y-65188112D01*
X66321435Y-65234468D01*
X66309704Y-65273138D01*
X66290654Y-65308777D01*
X66265017Y-65340017D01*
X66233777Y-65365654D01*
X66198138Y-65384704D01*
X66159468Y-65396435D01*
X66113112Y-65401000D01*
X65036888Y-65401000D01*
X64990532Y-65396435D01*
X64951862Y-65384704D01*
X64916223Y-65365654D01*
X64884983Y-65340017D01*
X64859346Y-65308777D01*
X64840296Y-65273138D01*
X64828565Y-65234468D01*
X64824000Y-65188112D01*
X64824000Y-64536888D01*
X64828565Y-64490532D01*
X64840296Y-64451862D01*
X64859346Y-64416223D01*
X64884983Y-64384983D01*
X64916223Y-64359346D01*
X64951862Y-64340296D01*
X64990532Y-64328565D01*
X65036888Y-64324000D01*
X66113112Y-64324000D01*
X66159468Y-64328565D01*
X66159468Y-64328565D01*
G37*
G36*
X101868228Y-62691703D02*
G01*
X102023100Y-62755853D01*
X102162481Y-62848985D01*
X102281015Y-62967519D01*
X102374147Y-63106900D01*
X102438297Y-63261772D01*
X102471000Y-63426184D01*
X102471000Y-63593816D01*
X102438297Y-63758228D01*
X102374147Y-63913100D01*
X102281015Y-64052481D01*
X102162481Y-64171015D01*
X102023100Y-64264147D01*
X101868228Y-64328297D01*
X101703816Y-64361000D01*
X101536184Y-64361000D01*
X101371772Y-64328297D01*
X101216900Y-64264147D01*
X101077519Y-64171015D01*
X100958985Y-64052481D01*
X100865853Y-63913100D01*
X100801703Y-63758228D01*
X100769000Y-63593816D01*
X100769000Y-63426184D01*
X100801703Y-63261772D01*
X100865853Y-63106900D01*
X100958985Y-62967519D01*
X101077519Y-62848985D01*
X101216900Y-62755853D01*
X101371772Y-62691703D01*
X101536184Y-62659000D01*
X101703816Y-62659000D01*
X101868228Y-62691703D01*
X101868228Y-62691703D01*
G37*
G36*
X86628228Y-62691703D02*
G01*
X86783100Y-62755853D01*
X86922481Y-62848985D01*
X87041015Y-62967519D01*
X87134147Y-63106900D01*
X87198297Y-63261772D01*
X87231000Y-63426184D01*
X87231000Y-63593816D01*
X87198297Y-63758228D01*
X87134147Y-63913100D01*
X87041015Y-64052481D01*
X86922481Y-64171015D01*
X86783100Y-64264147D01*
X86628228Y-64328297D01*
X86463816Y-64361000D01*
X86296184Y-64361000D01*
X86131772Y-64328297D01*
X85976900Y-64264147D01*
X85837519Y-64171015D01*
X85718985Y-64052481D01*
X85625853Y-63913100D01*
X85561703Y-63758228D01*
X85529000Y-63593816D01*
X85529000Y-63426184D01*
X85561703Y-63261772D01*
X85625853Y-63106900D01*
X85718985Y-62967519D01*
X85837519Y-62848985D01*
X85976900Y-62755853D01*
X86131772Y-62691703D01*
X86296184Y-62659000D01*
X86463816Y-62659000D01*
X86628228Y-62691703D01*
X86628228Y-62691703D01*
G37*
G36*
X130751068Y-62342165D02*
G01*
X130789738Y-62353896D01*
X130825377Y-62372946D01*
X130856617Y-62398583D01*
X130882254Y-62429823D01*
X130901304Y-62465462D01*
X130913035Y-62504132D01*
X130917600Y-62550488D01*
X130917600Y-63626712D01*
X130913035Y-63673068D01*
X130901304Y-63711738D01*
X130882254Y-63747377D01*
X130856617Y-63778617D01*
X130825377Y-63804254D01*
X130789738Y-63823304D01*
X130751068Y-63835035D01*
X130704712Y-63839600D01*
X130053488Y-63839600D01*
X130007132Y-63835035D01*
X129968462Y-63823304D01*
X129932823Y-63804254D01*
X129901583Y-63778617D01*
X129875946Y-63747377D01*
X129856896Y-63711738D01*
X129845165Y-63673068D01*
X129840600Y-63626712D01*
X129840600Y-62550488D01*
X129845165Y-62504132D01*
X129856896Y-62465462D01*
X129875946Y-62429823D01*
X129901583Y-62398583D01*
X129932823Y-62372946D01*
X129968462Y-62353896D01*
X130007132Y-62342165D01*
X130053488Y-62337600D01*
X130704712Y-62337600D01*
X130751068Y-62342165D01*
X130751068Y-62342165D01*
G37*
G36*
X132626068Y-62342165D02*
G01*
X132664738Y-62353896D01*
X132700377Y-62372946D01*
X132731617Y-62398583D01*
X132757254Y-62429823D01*
X132776304Y-62465462D01*
X132788035Y-62504132D01*
X132792600Y-62550488D01*
X132792600Y-63626712D01*
X132788035Y-63673068D01*
X132776304Y-63711738D01*
X132757254Y-63747377D01*
X132731617Y-63778617D01*
X132700377Y-63804254D01*
X132664738Y-63823304D01*
X132626068Y-63835035D01*
X132579712Y-63839600D01*
X131928488Y-63839600D01*
X131882132Y-63835035D01*
X131843462Y-63823304D01*
X131807823Y-63804254D01*
X131776583Y-63778617D01*
X131750946Y-63747377D01*
X131731896Y-63711738D01*
X131720165Y-63673068D01*
X131715600Y-63626712D01*
X131715600Y-62550488D01*
X131720165Y-62504132D01*
X131731896Y-62465462D01*
X131750946Y-62429823D01*
X131776583Y-62398583D01*
X131807823Y-62372946D01*
X131843462Y-62353896D01*
X131882132Y-62342165D01*
X131928488Y-62337600D01*
X132579712Y-62337600D01*
X132626068Y-62342165D01*
X132626068Y-62342165D01*
G37*
G36*
X73785868Y-62462365D02*
G01*
X73824538Y-62474096D01*
X73860177Y-62493146D01*
X73891417Y-62518783D01*
X73917054Y-62550023D01*
X73936104Y-62585662D01*
X73947835Y-62624332D01*
X73952400Y-62670688D01*
X73952400Y-63321912D01*
X73947835Y-63368268D01*
X73936104Y-63406938D01*
X73917054Y-63442577D01*
X73891417Y-63473817D01*
X73860177Y-63499454D01*
X73824538Y-63518504D01*
X73785868Y-63530235D01*
X73739512Y-63534800D01*
X72663288Y-63534800D01*
X72616932Y-63530235D01*
X72578262Y-63518504D01*
X72542623Y-63499454D01*
X72511383Y-63473817D01*
X72485746Y-63442577D01*
X72466696Y-63406938D01*
X72454965Y-63368268D01*
X72450400Y-63321912D01*
X72450400Y-62670688D01*
X72454965Y-62624332D01*
X72466696Y-62585662D01*
X72485746Y-62550023D01*
X72511383Y-62518783D01*
X72542623Y-62493146D01*
X72578262Y-62474096D01*
X72616932Y-62462365D01*
X72663288Y-62457800D01*
X73739512Y-62457800D01*
X73785868Y-62462365D01*
X73785868Y-62462365D01*
G37*
G36*
X69975868Y-62462365D02*
G01*
X70014538Y-62474096D01*
X70050177Y-62493146D01*
X70081417Y-62518783D01*
X70107054Y-62550023D01*
X70126104Y-62585662D01*
X70137835Y-62624332D01*
X70142400Y-62670688D01*
X70142400Y-63321912D01*
X70137835Y-63368268D01*
X70126104Y-63406938D01*
X70107054Y-63442577D01*
X70081417Y-63473817D01*
X70050177Y-63499454D01*
X70014538Y-63518504D01*
X69975868Y-63530235D01*
X69929512Y-63534800D01*
X68853288Y-63534800D01*
X68806932Y-63530235D01*
X68768262Y-63518504D01*
X68732623Y-63499454D01*
X68701383Y-63473817D01*
X68675746Y-63442577D01*
X68656696Y-63406938D01*
X68644965Y-63368268D01*
X68640400Y-63321912D01*
X68640400Y-62670688D01*
X68644965Y-62624332D01*
X68656696Y-62585662D01*
X68675746Y-62550023D01*
X68701383Y-62518783D01*
X68732623Y-62493146D01*
X68768262Y-62474096D01*
X68806932Y-62462365D01*
X68853288Y-62457800D01*
X69929512Y-62457800D01*
X69975868Y-62462365D01*
X69975868Y-62462365D01*
G37*
G36*
X71880868Y-62462365D02*
G01*
X71919538Y-62474096D01*
X71955177Y-62493146D01*
X71986417Y-62518783D01*
X72012054Y-62550023D01*
X72031104Y-62585662D01*
X72042835Y-62624332D01*
X72047400Y-62670688D01*
X72047400Y-63321912D01*
X72042835Y-63368268D01*
X72031104Y-63406938D01*
X72012054Y-63442577D01*
X71986417Y-63473817D01*
X71955177Y-63499454D01*
X71919538Y-63518504D01*
X71880868Y-63530235D01*
X71834512Y-63534800D01*
X70758288Y-63534800D01*
X70711932Y-63530235D01*
X70673262Y-63518504D01*
X70637623Y-63499454D01*
X70606383Y-63473817D01*
X70580746Y-63442577D01*
X70561696Y-63406938D01*
X70549965Y-63368268D01*
X70545400Y-63321912D01*
X70545400Y-62670688D01*
X70549965Y-62624332D01*
X70561696Y-62585662D01*
X70580746Y-62550023D01*
X70606383Y-62518783D01*
X70637623Y-62493146D01*
X70673262Y-62474096D01*
X70711932Y-62462365D01*
X70758288Y-62457800D01*
X71834512Y-62457800D01*
X71880868Y-62462365D01*
X71880868Y-62462365D01*
G37*
G36*
X68059468Y-62453565D02*
G01*
X68098138Y-62465296D01*
X68133777Y-62484346D01*
X68165017Y-62509983D01*
X68190654Y-62541223D01*
X68209704Y-62576862D01*
X68221435Y-62615532D01*
X68226000Y-62661888D01*
X68226000Y-63313112D01*
X68221435Y-63359468D01*
X68209704Y-63398138D01*
X68190654Y-63433777D01*
X68165017Y-63465017D01*
X68133777Y-63490654D01*
X68098138Y-63509704D01*
X68059468Y-63521435D01*
X68013112Y-63526000D01*
X66936888Y-63526000D01*
X66890532Y-63521435D01*
X66851862Y-63509704D01*
X66816223Y-63490654D01*
X66784983Y-63465017D01*
X66759346Y-63433777D01*
X66740296Y-63398138D01*
X66728565Y-63359468D01*
X66724000Y-63313112D01*
X66724000Y-62661888D01*
X66728565Y-62615532D01*
X66740296Y-62576862D01*
X66759346Y-62541223D01*
X66784983Y-62509983D01*
X66816223Y-62484346D01*
X66851862Y-62465296D01*
X66890532Y-62453565D01*
X66936888Y-62449000D01*
X68013112Y-62449000D01*
X68059468Y-62453565D01*
X68059468Y-62453565D01*
G37*
G36*
X77609468Y-62453565D02*
G01*
X77648138Y-62465296D01*
X77683777Y-62484346D01*
X77715017Y-62509983D01*
X77740654Y-62541223D01*
X77759704Y-62576862D01*
X77771435Y-62615532D01*
X77776000Y-62661888D01*
X77776000Y-63313112D01*
X77771435Y-63359468D01*
X77759704Y-63398138D01*
X77740654Y-63433777D01*
X77715017Y-63465017D01*
X77683777Y-63490654D01*
X77648138Y-63509704D01*
X77609468Y-63521435D01*
X77563112Y-63526000D01*
X76486888Y-63526000D01*
X76440532Y-63521435D01*
X76401862Y-63509704D01*
X76366223Y-63490654D01*
X76334983Y-63465017D01*
X76309346Y-63433777D01*
X76290296Y-63398138D01*
X76278565Y-63359468D01*
X76274000Y-63313112D01*
X76274000Y-62661888D01*
X76278565Y-62615532D01*
X76290296Y-62576862D01*
X76309346Y-62541223D01*
X76334983Y-62509983D01*
X76366223Y-62484346D01*
X76401862Y-62465296D01*
X76440532Y-62453565D01*
X76486888Y-62449000D01*
X77563112Y-62449000D01*
X77609468Y-62453565D01*
X77609468Y-62453565D01*
G37*
G36*
X75709468Y-62453565D02*
G01*
X75748138Y-62465296D01*
X75783777Y-62484346D01*
X75815017Y-62509983D01*
X75840654Y-62541223D01*
X75859704Y-62576862D01*
X75871435Y-62615532D01*
X75876000Y-62661888D01*
X75876000Y-63313112D01*
X75871435Y-63359468D01*
X75859704Y-63398138D01*
X75840654Y-63433777D01*
X75815017Y-63465017D01*
X75783777Y-63490654D01*
X75748138Y-63509704D01*
X75709468Y-63521435D01*
X75663112Y-63526000D01*
X74586888Y-63526000D01*
X74540532Y-63521435D01*
X74501862Y-63509704D01*
X74466223Y-63490654D01*
X74434983Y-63465017D01*
X74409346Y-63433777D01*
X74390296Y-63398138D01*
X74378565Y-63359468D01*
X74374000Y-63313112D01*
X74374000Y-62661888D01*
X74378565Y-62615532D01*
X74390296Y-62576862D01*
X74409346Y-62541223D01*
X74434983Y-62509983D01*
X74466223Y-62484346D01*
X74501862Y-62465296D01*
X74540532Y-62453565D01*
X74586888Y-62449000D01*
X75663112Y-62449000D01*
X75709468Y-62453565D01*
X75709468Y-62453565D01*
G37*
G36*
X66159468Y-62453565D02*
G01*
X66198138Y-62465296D01*
X66233777Y-62484346D01*
X66265017Y-62509983D01*
X66290654Y-62541223D01*
X66309704Y-62576862D01*
X66321435Y-62615532D01*
X66326000Y-62661888D01*
X66326000Y-63313112D01*
X66321435Y-63359468D01*
X66309704Y-63398138D01*
X66290654Y-63433777D01*
X66265017Y-63465017D01*
X66233777Y-63490654D01*
X66198138Y-63509704D01*
X66159468Y-63521435D01*
X66113112Y-63526000D01*
X65036888Y-63526000D01*
X64990532Y-63521435D01*
X64951862Y-63509704D01*
X64916223Y-63490654D01*
X64884983Y-63465017D01*
X64859346Y-63433777D01*
X64840296Y-63398138D01*
X64828565Y-63359468D01*
X64824000Y-63313112D01*
X64824000Y-62661888D01*
X64828565Y-62615532D01*
X64840296Y-62576862D01*
X64859346Y-62541223D01*
X64884983Y-62509983D01*
X64916223Y-62484346D01*
X64951862Y-62465296D01*
X64990532Y-62453565D01*
X65036888Y-62449000D01*
X66113112Y-62449000D01*
X66159468Y-62453565D01*
X66159468Y-62453565D01*
G37*
G36*
X117208871Y-58689786D02*
G01*
X117319780Y-58723430D01*
X117410054Y-58750814D01*
X117414530Y-58752172D01*
X117604055Y-58853475D01*
X117604058Y-58853477D01*
X117604059Y-58853478D01*
X117770186Y-58989814D01*
X117906522Y-59155941D01*
X117906525Y-59155945D01*
X118007828Y-59345470D01*
X118070214Y-59551129D01*
X118086000Y-59711409D01*
X118086000Y-61338591D01*
X118070214Y-61498871D01*
X118007828Y-61704530D01*
X117906525Y-61894055D01*
X117906523Y-61894057D01*
X117906522Y-61894059D01*
X117770186Y-62060186D01*
X117604059Y-62196522D01*
X117604057Y-62196523D01*
X117414529Y-62297828D01*
X117414526Y-62297829D01*
X117403057Y-62301308D01*
X117208870Y-62360214D01*
X116995000Y-62381278D01*
X116781129Y-62360214D01*
X116586942Y-62301308D01*
X116575473Y-62297829D01*
X116575470Y-62297828D01*
X116385945Y-62196525D01*
X116347417Y-62164906D01*
X116219814Y-62060186D01*
X116083478Y-61894059D01*
X115990408Y-61719937D01*
X115982172Y-61704529D01*
X115919786Y-61498870D01*
X115904000Y-61338590D01*
X115904000Y-59711409D01*
X115919786Y-59551126D01*
X115982171Y-59345473D01*
X116083476Y-59155945D01*
X116083479Y-59155941D01*
X116219815Y-58989814D01*
X116385942Y-58853478D01*
X116385943Y-58853477D01*
X116385946Y-58853475D01*
X116575471Y-58752172D01*
X116579948Y-58750814D01*
X116670221Y-58723430D01*
X116781130Y-58689786D01*
X116995000Y-58668722D01*
X117208871Y-58689786D01*
X117208871Y-58689786D01*
G37*
G36*
X123031217Y-58677808D02*
G01*
X123062489Y-58687294D01*
X123091308Y-58702698D01*
X123116570Y-58723430D01*
X123137302Y-58748692D01*
X123152706Y-58777511D01*
X123162192Y-58808783D01*
X123166000Y-58847448D01*
X123166000Y-62202552D01*
X123162192Y-62241217D01*
X123152706Y-62272489D01*
X123137302Y-62301308D01*
X123116570Y-62326570D01*
X123091308Y-62347302D01*
X123062489Y-62362706D01*
X123031217Y-62372192D01*
X122992552Y-62376000D01*
X121157448Y-62376000D01*
X121118783Y-62372192D01*
X121087511Y-62362706D01*
X121058692Y-62347302D01*
X121033430Y-62326570D01*
X121012698Y-62301308D01*
X120997294Y-62272489D01*
X120987808Y-62241217D01*
X120984000Y-62202552D01*
X120984000Y-58847448D01*
X120987808Y-58808783D01*
X120997294Y-58777511D01*
X121012698Y-58748692D01*
X121033430Y-58723430D01*
X121058692Y-58702698D01*
X121087511Y-58687294D01*
X121118783Y-58677808D01*
X121157448Y-58674000D01*
X122992552Y-58674000D01*
X123031217Y-58677808D01*
X123031217Y-58677808D01*
G37*
G36*
X130751068Y-60342165D02*
G01*
X130789738Y-60353896D01*
X130825377Y-60372946D01*
X130856617Y-60398583D01*
X130882254Y-60429823D01*
X130901304Y-60465462D01*
X130913035Y-60504132D01*
X130917600Y-60550488D01*
X130917600Y-61626712D01*
X130913035Y-61673068D01*
X130901304Y-61711738D01*
X130882254Y-61747377D01*
X130856617Y-61778617D01*
X130825377Y-61804254D01*
X130789738Y-61823304D01*
X130751068Y-61835035D01*
X130704712Y-61839600D01*
X130053488Y-61839600D01*
X130007132Y-61835035D01*
X129968462Y-61823304D01*
X129932823Y-61804254D01*
X129901583Y-61778617D01*
X129875946Y-61747377D01*
X129856896Y-61711738D01*
X129845165Y-61673068D01*
X129840600Y-61626712D01*
X129840600Y-60550488D01*
X129845165Y-60504132D01*
X129856896Y-60465462D01*
X129875946Y-60429823D01*
X129901583Y-60398583D01*
X129932823Y-60372946D01*
X129968462Y-60353896D01*
X130007132Y-60342165D01*
X130053488Y-60337600D01*
X130704712Y-60337600D01*
X130751068Y-60342165D01*
X130751068Y-60342165D01*
G37*
G36*
X132626068Y-60342165D02*
G01*
X132664738Y-60353896D01*
X132700377Y-60372946D01*
X132731617Y-60398583D01*
X132757254Y-60429823D01*
X132776304Y-60465462D01*
X132788035Y-60504132D01*
X132792600Y-60550488D01*
X132792600Y-61626712D01*
X132788035Y-61673068D01*
X132776304Y-61711738D01*
X132757254Y-61747377D01*
X132731617Y-61778617D01*
X132700377Y-61804254D01*
X132664738Y-61823304D01*
X132626068Y-61835035D01*
X132579712Y-61839600D01*
X131928488Y-61839600D01*
X131882132Y-61835035D01*
X131843462Y-61823304D01*
X131807823Y-61804254D01*
X131776583Y-61778617D01*
X131750946Y-61747377D01*
X131731896Y-61711738D01*
X131720165Y-61673068D01*
X131715600Y-61626712D01*
X131715600Y-60550488D01*
X131720165Y-60504132D01*
X131731896Y-60465462D01*
X131750946Y-60429823D01*
X131776583Y-60398583D01*
X131807823Y-60372946D01*
X131843462Y-60353896D01*
X131882132Y-60342165D01*
X131928488Y-60337600D01*
X132579712Y-60337600D01*
X132626068Y-60342165D01*
X132626068Y-60342165D01*
G37*
G36*
X87231000Y-61821000D02*
G01*
X85529000Y-61821000D01*
X85529000Y-60119000D01*
X87231000Y-60119000D01*
X87231000Y-61821000D01*
X87231000Y-61821000D01*
G37*
G36*
X102471000Y-61821000D02*
G01*
X100769000Y-61821000D01*
X100769000Y-60119000D01*
X102471000Y-60119000D01*
X102471000Y-61821000D01*
X102471000Y-61821000D01*
G37*
G36*
X135134239Y-50311467D02*
G01*
X135448282Y-50373934D01*
X136039926Y-50619001D01*
X136572392Y-50974784D01*
X137025216Y-51427608D01*
X137380999Y-51960074D01*
X137626066Y-52551718D01*
X137751000Y-53179804D01*
X137751000Y-53820196D01*
X137626066Y-54448282D01*
X137380999Y-55039926D01*
X137025216Y-55572392D01*
X136572392Y-56025216D01*
X136039926Y-56380999D01*
X135448282Y-56626066D01*
X135134239Y-56688533D01*
X134820197Y-56751000D01*
X134179803Y-56751000D01*
X133865761Y-56688533D01*
X133551718Y-56626066D01*
X132960074Y-56380999D01*
X132427608Y-56025216D01*
X131974784Y-55572392D01*
X131619001Y-55039926D01*
X131373934Y-54448282D01*
X131249000Y-53820196D01*
X131249000Y-53179804D01*
X131373934Y-52551718D01*
X131619001Y-51960074D01*
X131974784Y-51427608D01*
X132427608Y-50974784D01*
X132960074Y-50619001D01*
X133551718Y-50373934D01*
X133865761Y-50311467D01*
X134179803Y-50249000D01*
X134820197Y-50249000D01*
X135134239Y-50311467D01*
X135134239Y-50311467D01*
G37*
G36*
X54134239Y-50311467D02*
G01*
X54448282Y-50373934D01*
X55039926Y-50619001D01*
X55572392Y-50974784D01*
X56025216Y-51427608D01*
X56380999Y-51960074D01*
X56626066Y-52551718D01*
X56751000Y-53179804D01*
X56751000Y-53820196D01*
X56626066Y-54448282D01*
X56380999Y-55039926D01*
X56025216Y-55572392D01*
X55572392Y-56025216D01*
X55039926Y-56380999D01*
X54448282Y-56626066D01*
X54134239Y-56688533D01*
X53820197Y-56751000D01*
X53179803Y-56751000D01*
X52865761Y-56688533D01*
X52551718Y-56626066D01*
X51960074Y-56380999D01*
X51427608Y-56025216D01*
X50974784Y-55572392D01*
X50619001Y-55039926D01*
X50373934Y-54448282D01*
X50249000Y-53820196D01*
X50249000Y-53179804D01*
X50373934Y-52551718D01*
X50619001Y-51960074D01*
X50974784Y-51427608D01*
X51427608Y-50974784D01*
X51960074Y-50619001D01*
X52551718Y-50373934D01*
X52865761Y-50311467D01*
X53179803Y-50249000D01*
X53820197Y-50249000D01*
X54134239Y-50311467D01*
X54134239Y-50311467D01*
G37*
M02*
