G04 #@! TF.GenerationSoftware,KiCad,Pcbnew,(5.1.4)-1*
G04 #@! TF.CreationDate,2019-11-21T21:18:29+01:00*
G04 #@! TF.ProjectId,asserv_brushless,61737365-7276-45f6-9272-7573686c6573,rev?*
G04 #@! TF.SameCoordinates,Original*
G04 #@! TF.FileFunction,Paste,Top*
G04 #@! TF.FilePolarity,Positive*
%FSLAX46Y46*%
G04 Gerber Fmt 4.6, Leading zero omitted, Abs format (unit mm)*
G04 Created by KiCad (PCBNEW (5.1.4)-1) date 2019-11-21 21:18:29*
%MOMM*%
%LPD*%
G04 APERTURE LIST*
%ADD10C,0.100000*%
%ADD11C,0.975000*%
%ADD12C,1.600000*%
%ADD13R,1.925000X0.700000*%
%ADD14R,2.800000X2.100000*%
%ADD15R,1.900000X0.600000*%
%ADD16R,0.900000X1.200000*%
G04 APERTURE END LIST*
D10*
G36*
X130646742Y-60389774D02*
G01*
X130670403Y-60393284D01*
X130693607Y-60399096D01*
X130716129Y-60407154D01*
X130737753Y-60417382D01*
X130758270Y-60429679D01*
X130777483Y-60443929D01*
X130795207Y-60459993D01*
X130811271Y-60477717D01*
X130825521Y-60496930D01*
X130837818Y-60517447D01*
X130848046Y-60539071D01*
X130856104Y-60561593D01*
X130861916Y-60584797D01*
X130865426Y-60608458D01*
X130866600Y-60632350D01*
X130866600Y-61544850D01*
X130865426Y-61568742D01*
X130861916Y-61592403D01*
X130856104Y-61615607D01*
X130848046Y-61638129D01*
X130837818Y-61659753D01*
X130825521Y-61680270D01*
X130811271Y-61699483D01*
X130795207Y-61717207D01*
X130777483Y-61733271D01*
X130758270Y-61747521D01*
X130737753Y-61759818D01*
X130716129Y-61770046D01*
X130693607Y-61778104D01*
X130670403Y-61783916D01*
X130646742Y-61787426D01*
X130622850Y-61788600D01*
X130135350Y-61788600D01*
X130111458Y-61787426D01*
X130087797Y-61783916D01*
X130064593Y-61778104D01*
X130042071Y-61770046D01*
X130020447Y-61759818D01*
X129999930Y-61747521D01*
X129980717Y-61733271D01*
X129962993Y-61717207D01*
X129946929Y-61699483D01*
X129932679Y-61680270D01*
X129920382Y-61659753D01*
X129910154Y-61638129D01*
X129902096Y-61615607D01*
X129896284Y-61592403D01*
X129892774Y-61568742D01*
X129891600Y-61544850D01*
X129891600Y-60632350D01*
X129892774Y-60608458D01*
X129896284Y-60584797D01*
X129902096Y-60561593D01*
X129910154Y-60539071D01*
X129920382Y-60517447D01*
X129932679Y-60496930D01*
X129946929Y-60477717D01*
X129962993Y-60459993D01*
X129980717Y-60443929D01*
X129999930Y-60429679D01*
X130020447Y-60417382D01*
X130042071Y-60407154D01*
X130064593Y-60399096D01*
X130087797Y-60393284D01*
X130111458Y-60389774D01*
X130135350Y-60388600D01*
X130622850Y-60388600D01*
X130646742Y-60389774D01*
X130646742Y-60389774D01*
G37*
D11*
X130379100Y-61088600D03*
D10*
G36*
X132521742Y-60389774D02*
G01*
X132545403Y-60393284D01*
X132568607Y-60399096D01*
X132591129Y-60407154D01*
X132612753Y-60417382D01*
X132633270Y-60429679D01*
X132652483Y-60443929D01*
X132670207Y-60459993D01*
X132686271Y-60477717D01*
X132700521Y-60496930D01*
X132712818Y-60517447D01*
X132723046Y-60539071D01*
X132731104Y-60561593D01*
X132736916Y-60584797D01*
X132740426Y-60608458D01*
X132741600Y-60632350D01*
X132741600Y-61544850D01*
X132740426Y-61568742D01*
X132736916Y-61592403D01*
X132731104Y-61615607D01*
X132723046Y-61638129D01*
X132712818Y-61659753D01*
X132700521Y-61680270D01*
X132686271Y-61699483D01*
X132670207Y-61717207D01*
X132652483Y-61733271D01*
X132633270Y-61747521D01*
X132612753Y-61759818D01*
X132591129Y-61770046D01*
X132568607Y-61778104D01*
X132545403Y-61783916D01*
X132521742Y-61787426D01*
X132497850Y-61788600D01*
X132010350Y-61788600D01*
X131986458Y-61787426D01*
X131962797Y-61783916D01*
X131939593Y-61778104D01*
X131917071Y-61770046D01*
X131895447Y-61759818D01*
X131874930Y-61747521D01*
X131855717Y-61733271D01*
X131837993Y-61717207D01*
X131821929Y-61699483D01*
X131807679Y-61680270D01*
X131795382Y-61659753D01*
X131785154Y-61638129D01*
X131777096Y-61615607D01*
X131771284Y-61592403D01*
X131767774Y-61568742D01*
X131766600Y-61544850D01*
X131766600Y-60632350D01*
X131767774Y-60608458D01*
X131771284Y-60584797D01*
X131777096Y-60561593D01*
X131785154Y-60539071D01*
X131795382Y-60517447D01*
X131807679Y-60496930D01*
X131821929Y-60477717D01*
X131837993Y-60459993D01*
X131855717Y-60443929D01*
X131874930Y-60429679D01*
X131895447Y-60417382D01*
X131917071Y-60407154D01*
X131939593Y-60399096D01*
X131962797Y-60393284D01*
X131986458Y-60389774D01*
X132010350Y-60388600D01*
X132497850Y-60388600D01*
X132521742Y-60389774D01*
X132521742Y-60389774D01*
G37*
D11*
X132254100Y-61088600D03*
D10*
G36*
X130646742Y-62389774D02*
G01*
X130670403Y-62393284D01*
X130693607Y-62399096D01*
X130716129Y-62407154D01*
X130737753Y-62417382D01*
X130758270Y-62429679D01*
X130777483Y-62443929D01*
X130795207Y-62459993D01*
X130811271Y-62477717D01*
X130825521Y-62496930D01*
X130837818Y-62517447D01*
X130848046Y-62539071D01*
X130856104Y-62561593D01*
X130861916Y-62584797D01*
X130865426Y-62608458D01*
X130866600Y-62632350D01*
X130866600Y-63544850D01*
X130865426Y-63568742D01*
X130861916Y-63592403D01*
X130856104Y-63615607D01*
X130848046Y-63638129D01*
X130837818Y-63659753D01*
X130825521Y-63680270D01*
X130811271Y-63699483D01*
X130795207Y-63717207D01*
X130777483Y-63733271D01*
X130758270Y-63747521D01*
X130737753Y-63759818D01*
X130716129Y-63770046D01*
X130693607Y-63778104D01*
X130670403Y-63783916D01*
X130646742Y-63787426D01*
X130622850Y-63788600D01*
X130135350Y-63788600D01*
X130111458Y-63787426D01*
X130087797Y-63783916D01*
X130064593Y-63778104D01*
X130042071Y-63770046D01*
X130020447Y-63759818D01*
X129999930Y-63747521D01*
X129980717Y-63733271D01*
X129962993Y-63717207D01*
X129946929Y-63699483D01*
X129932679Y-63680270D01*
X129920382Y-63659753D01*
X129910154Y-63638129D01*
X129902096Y-63615607D01*
X129896284Y-63592403D01*
X129892774Y-63568742D01*
X129891600Y-63544850D01*
X129891600Y-62632350D01*
X129892774Y-62608458D01*
X129896284Y-62584797D01*
X129902096Y-62561593D01*
X129910154Y-62539071D01*
X129920382Y-62517447D01*
X129932679Y-62496930D01*
X129946929Y-62477717D01*
X129962993Y-62459993D01*
X129980717Y-62443929D01*
X129999930Y-62429679D01*
X130020447Y-62417382D01*
X130042071Y-62407154D01*
X130064593Y-62399096D01*
X130087797Y-62393284D01*
X130111458Y-62389774D01*
X130135350Y-62388600D01*
X130622850Y-62388600D01*
X130646742Y-62389774D01*
X130646742Y-62389774D01*
G37*
D11*
X130379100Y-63088600D03*
D10*
G36*
X132521742Y-62389774D02*
G01*
X132545403Y-62393284D01*
X132568607Y-62399096D01*
X132591129Y-62407154D01*
X132612753Y-62417382D01*
X132633270Y-62429679D01*
X132652483Y-62443929D01*
X132670207Y-62459993D01*
X132686271Y-62477717D01*
X132700521Y-62496930D01*
X132712818Y-62517447D01*
X132723046Y-62539071D01*
X132731104Y-62561593D01*
X132736916Y-62584797D01*
X132740426Y-62608458D01*
X132741600Y-62632350D01*
X132741600Y-63544850D01*
X132740426Y-63568742D01*
X132736916Y-63592403D01*
X132731104Y-63615607D01*
X132723046Y-63638129D01*
X132712818Y-63659753D01*
X132700521Y-63680270D01*
X132686271Y-63699483D01*
X132670207Y-63717207D01*
X132652483Y-63733271D01*
X132633270Y-63747521D01*
X132612753Y-63759818D01*
X132591129Y-63770046D01*
X132568607Y-63778104D01*
X132545403Y-63783916D01*
X132521742Y-63787426D01*
X132497850Y-63788600D01*
X132010350Y-63788600D01*
X131986458Y-63787426D01*
X131962797Y-63783916D01*
X131939593Y-63778104D01*
X131917071Y-63770046D01*
X131895447Y-63759818D01*
X131874930Y-63747521D01*
X131855717Y-63733271D01*
X131837993Y-63717207D01*
X131821929Y-63699483D01*
X131807679Y-63680270D01*
X131795382Y-63659753D01*
X131785154Y-63638129D01*
X131777096Y-63615607D01*
X131771284Y-63592403D01*
X131767774Y-63568742D01*
X131766600Y-63544850D01*
X131766600Y-62632350D01*
X131767774Y-62608458D01*
X131771284Y-62584797D01*
X131777096Y-62561593D01*
X131785154Y-62539071D01*
X131795382Y-62517447D01*
X131807679Y-62496930D01*
X131821929Y-62477717D01*
X131837993Y-62459993D01*
X131855717Y-62443929D01*
X131874930Y-62429679D01*
X131895447Y-62417382D01*
X131917071Y-62407154D01*
X131939593Y-62399096D01*
X131962797Y-62393284D01*
X131986458Y-62389774D01*
X132010350Y-62388600D01*
X132497850Y-62388600D01*
X132521742Y-62389774D01*
X132521742Y-62389774D01*
G37*
D11*
X132254100Y-63088600D03*
D10*
G36*
X126949504Y-86776204D02*
G01*
X126973773Y-86779804D01*
X126997571Y-86785765D01*
X127020671Y-86794030D01*
X127042849Y-86804520D01*
X127063893Y-86817133D01*
X127083598Y-86831747D01*
X127101777Y-86848223D01*
X127118253Y-86866402D01*
X127132867Y-86886107D01*
X127145480Y-86907151D01*
X127155970Y-86929329D01*
X127164235Y-86952429D01*
X127170196Y-86976227D01*
X127173796Y-87000496D01*
X127175000Y-87025000D01*
X127175000Y-89125000D01*
X127173796Y-89149504D01*
X127170196Y-89173773D01*
X127164235Y-89197571D01*
X127155970Y-89220671D01*
X127145480Y-89242849D01*
X127132867Y-89263893D01*
X127118253Y-89283598D01*
X127101777Y-89301777D01*
X127083598Y-89318253D01*
X127063893Y-89332867D01*
X127042849Y-89345480D01*
X127020671Y-89355970D01*
X126997571Y-89364235D01*
X126973773Y-89370196D01*
X126949504Y-89373796D01*
X126925000Y-89375000D01*
X125825000Y-89375000D01*
X125800496Y-89373796D01*
X125776227Y-89370196D01*
X125752429Y-89364235D01*
X125729329Y-89355970D01*
X125707151Y-89345480D01*
X125686107Y-89332867D01*
X125666402Y-89318253D01*
X125648223Y-89301777D01*
X125631747Y-89283598D01*
X125617133Y-89263893D01*
X125604520Y-89242849D01*
X125594030Y-89220671D01*
X125585765Y-89197571D01*
X125579804Y-89173773D01*
X125576204Y-89149504D01*
X125575000Y-89125000D01*
X125575000Y-87025000D01*
X125576204Y-87000496D01*
X125579804Y-86976227D01*
X125585765Y-86952429D01*
X125594030Y-86929329D01*
X125604520Y-86907151D01*
X125617133Y-86886107D01*
X125631747Y-86866402D01*
X125648223Y-86848223D01*
X125666402Y-86831747D01*
X125686107Y-86817133D01*
X125707151Y-86804520D01*
X125729329Y-86794030D01*
X125752429Y-86785765D01*
X125776227Y-86779804D01*
X125800496Y-86776204D01*
X125825000Y-86775000D01*
X126925000Y-86775000D01*
X126949504Y-86776204D01*
X126949504Y-86776204D01*
G37*
D12*
X126375000Y-88075000D03*
D10*
G36*
X126949504Y-83176204D02*
G01*
X126973773Y-83179804D01*
X126997571Y-83185765D01*
X127020671Y-83194030D01*
X127042849Y-83204520D01*
X127063893Y-83217133D01*
X127083598Y-83231747D01*
X127101777Y-83248223D01*
X127118253Y-83266402D01*
X127132867Y-83286107D01*
X127145480Y-83307151D01*
X127155970Y-83329329D01*
X127164235Y-83352429D01*
X127170196Y-83376227D01*
X127173796Y-83400496D01*
X127175000Y-83425000D01*
X127175000Y-85525000D01*
X127173796Y-85549504D01*
X127170196Y-85573773D01*
X127164235Y-85597571D01*
X127155970Y-85620671D01*
X127145480Y-85642849D01*
X127132867Y-85663893D01*
X127118253Y-85683598D01*
X127101777Y-85701777D01*
X127083598Y-85718253D01*
X127063893Y-85732867D01*
X127042849Y-85745480D01*
X127020671Y-85755970D01*
X126997571Y-85764235D01*
X126973773Y-85770196D01*
X126949504Y-85773796D01*
X126925000Y-85775000D01*
X125825000Y-85775000D01*
X125800496Y-85773796D01*
X125776227Y-85770196D01*
X125752429Y-85764235D01*
X125729329Y-85755970D01*
X125707151Y-85745480D01*
X125686107Y-85732867D01*
X125666402Y-85718253D01*
X125648223Y-85701777D01*
X125631747Y-85683598D01*
X125617133Y-85663893D01*
X125604520Y-85642849D01*
X125594030Y-85620671D01*
X125585765Y-85597571D01*
X125579804Y-85573773D01*
X125576204Y-85549504D01*
X125575000Y-85525000D01*
X125575000Y-83425000D01*
X125576204Y-83400496D01*
X125579804Y-83376227D01*
X125585765Y-83352429D01*
X125594030Y-83329329D01*
X125604520Y-83307151D01*
X125617133Y-83286107D01*
X125631747Y-83266402D01*
X125648223Y-83248223D01*
X125666402Y-83231747D01*
X125686107Y-83217133D01*
X125707151Y-83204520D01*
X125729329Y-83194030D01*
X125752429Y-83185765D01*
X125776227Y-83179804D01*
X125800496Y-83176204D01*
X125825000Y-83175000D01*
X126925000Y-83175000D01*
X126949504Y-83176204D01*
X126949504Y-83176204D01*
G37*
D12*
X126375000Y-84475000D03*
D10*
G36*
X126380142Y-77851174D02*
G01*
X126403803Y-77854684D01*
X126427007Y-77860496D01*
X126449529Y-77868554D01*
X126471153Y-77878782D01*
X126491670Y-77891079D01*
X126510883Y-77905329D01*
X126528607Y-77921393D01*
X126544671Y-77939117D01*
X126558921Y-77958330D01*
X126571218Y-77978847D01*
X126581446Y-78000471D01*
X126589504Y-78022993D01*
X126595316Y-78046197D01*
X126598826Y-78069858D01*
X126600000Y-78093750D01*
X126600000Y-79006250D01*
X126598826Y-79030142D01*
X126595316Y-79053803D01*
X126589504Y-79077007D01*
X126581446Y-79099529D01*
X126571218Y-79121153D01*
X126558921Y-79141670D01*
X126544671Y-79160883D01*
X126528607Y-79178607D01*
X126510883Y-79194671D01*
X126491670Y-79208921D01*
X126471153Y-79221218D01*
X126449529Y-79231446D01*
X126427007Y-79239504D01*
X126403803Y-79245316D01*
X126380142Y-79248826D01*
X126356250Y-79250000D01*
X125868750Y-79250000D01*
X125844858Y-79248826D01*
X125821197Y-79245316D01*
X125797993Y-79239504D01*
X125775471Y-79231446D01*
X125753847Y-79221218D01*
X125733330Y-79208921D01*
X125714117Y-79194671D01*
X125696393Y-79178607D01*
X125680329Y-79160883D01*
X125666079Y-79141670D01*
X125653782Y-79121153D01*
X125643554Y-79099529D01*
X125635496Y-79077007D01*
X125629684Y-79053803D01*
X125626174Y-79030142D01*
X125625000Y-79006250D01*
X125625000Y-78093750D01*
X125626174Y-78069858D01*
X125629684Y-78046197D01*
X125635496Y-78022993D01*
X125643554Y-78000471D01*
X125653782Y-77978847D01*
X125666079Y-77958330D01*
X125680329Y-77939117D01*
X125696393Y-77921393D01*
X125714117Y-77905329D01*
X125733330Y-77891079D01*
X125753847Y-77878782D01*
X125775471Y-77868554D01*
X125797993Y-77860496D01*
X125821197Y-77854684D01*
X125844858Y-77851174D01*
X125868750Y-77850000D01*
X126356250Y-77850000D01*
X126380142Y-77851174D01*
X126380142Y-77851174D01*
G37*
D11*
X126112500Y-78550000D03*
D10*
G36*
X124505142Y-77851174D02*
G01*
X124528803Y-77854684D01*
X124552007Y-77860496D01*
X124574529Y-77868554D01*
X124596153Y-77878782D01*
X124616670Y-77891079D01*
X124635883Y-77905329D01*
X124653607Y-77921393D01*
X124669671Y-77939117D01*
X124683921Y-77958330D01*
X124696218Y-77978847D01*
X124706446Y-78000471D01*
X124714504Y-78022993D01*
X124720316Y-78046197D01*
X124723826Y-78069858D01*
X124725000Y-78093750D01*
X124725000Y-79006250D01*
X124723826Y-79030142D01*
X124720316Y-79053803D01*
X124714504Y-79077007D01*
X124706446Y-79099529D01*
X124696218Y-79121153D01*
X124683921Y-79141670D01*
X124669671Y-79160883D01*
X124653607Y-79178607D01*
X124635883Y-79194671D01*
X124616670Y-79208921D01*
X124596153Y-79221218D01*
X124574529Y-79231446D01*
X124552007Y-79239504D01*
X124528803Y-79245316D01*
X124505142Y-79248826D01*
X124481250Y-79250000D01*
X123993750Y-79250000D01*
X123969858Y-79248826D01*
X123946197Y-79245316D01*
X123922993Y-79239504D01*
X123900471Y-79231446D01*
X123878847Y-79221218D01*
X123858330Y-79208921D01*
X123839117Y-79194671D01*
X123821393Y-79178607D01*
X123805329Y-79160883D01*
X123791079Y-79141670D01*
X123778782Y-79121153D01*
X123768554Y-79099529D01*
X123760496Y-79077007D01*
X123754684Y-79053803D01*
X123751174Y-79030142D01*
X123750000Y-79006250D01*
X123750000Y-78093750D01*
X123751174Y-78069858D01*
X123754684Y-78046197D01*
X123760496Y-78022993D01*
X123768554Y-78000471D01*
X123778782Y-77978847D01*
X123791079Y-77958330D01*
X123805329Y-77939117D01*
X123821393Y-77921393D01*
X123839117Y-77905329D01*
X123858330Y-77891079D01*
X123878847Y-77878782D01*
X123900471Y-77868554D01*
X123922993Y-77860496D01*
X123946197Y-77854684D01*
X123969858Y-77851174D01*
X123993750Y-77850000D01*
X124481250Y-77850000D01*
X124505142Y-77851174D01*
X124505142Y-77851174D01*
G37*
D11*
X124237500Y-78550000D03*
D10*
G36*
X111455142Y-91526174D02*
G01*
X111478803Y-91529684D01*
X111502007Y-91535496D01*
X111524529Y-91543554D01*
X111546153Y-91553782D01*
X111566670Y-91566079D01*
X111585883Y-91580329D01*
X111603607Y-91596393D01*
X111619671Y-91614117D01*
X111633921Y-91633330D01*
X111646218Y-91653847D01*
X111656446Y-91675471D01*
X111664504Y-91697993D01*
X111670316Y-91721197D01*
X111673826Y-91744858D01*
X111675000Y-91768750D01*
X111675000Y-92256250D01*
X111673826Y-92280142D01*
X111670316Y-92303803D01*
X111664504Y-92327007D01*
X111656446Y-92349529D01*
X111646218Y-92371153D01*
X111633921Y-92391670D01*
X111619671Y-92410883D01*
X111603607Y-92428607D01*
X111585883Y-92444671D01*
X111566670Y-92458921D01*
X111546153Y-92471218D01*
X111524529Y-92481446D01*
X111502007Y-92489504D01*
X111478803Y-92495316D01*
X111455142Y-92498826D01*
X111431250Y-92500000D01*
X110518750Y-92500000D01*
X110494858Y-92498826D01*
X110471197Y-92495316D01*
X110447993Y-92489504D01*
X110425471Y-92481446D01*
X110403847Y-92471218D01*
X110383330Y-92458921D01*
X110364117Y-92444671D01*
X110346393Y-92428607D01*
X110330329Y-92410883D01*
X110316079Y-92391670D01*
X110303782Y-92371153D01*
X110293554Y-92349529D01*
X110285496Y-92327007D01*
X110279684Y-92303803D01*
X110276174Y-92280142D01*
X110275000Y-92256250D01*
X110275000Y-91768750D01*
X110276174Y-91744858D01*
X110279684Y-91721197D01*
X110285496Y-91697993D01*
X110293554Y-91675471D01*
X110303782Y-91653847D01*
X110316079Y-91633330D01*
X110330329Y-91614117D01*
X110346393Y-91596393D01*
X110364117Y-91580329D01*
X110383330Y-91566079D01*
X110403847Y-91553782D01*
X110425471Y-91543554D01*
X110447993Y-91535496D01*
X110471197Y-91529684D01*
X110494858Y-91526174D01*
X110518750Y-91525000D01*
X111431250Y-91525000D01*
X111455142Y-91526174D01*
X111455142Y-91526174D01*
G37*
D11*
X110975000Y-92012500D03*
D10*
G36*
X111455142Y-89651174D02*
G01*
X111478803Y-89654684D01*
X111502007Y-89660496D01*
X111524529Y-89668554D01*
X111546153Y-89678782D01*
X111566670Y-89691079D01*
X111585883Y-89705329D01*
X111603607Y-89721393D01*
X111619671Y-89739117D01*
X111633921Y-89758330D01*
X111646218Y-89778847D01*
X111656446Y-89800471D01*
X111664504Y-89822993D01*
X111670316Y-89846197D01*
X111673826Y-89869858D01*
X111675000Y-89893750D01*
X111675000Y-90381250D01*
X111673826Y-90405142D01*
X111670316Y-90428803D01*
X111664504Y-90452007D01*
X111656446Y-90474529D01*
X111646218Y-90496153D01*
X111633921Y-90516670D01*
X111619671Y-90535883D01*
X111603607Y-90553607D01*
X111585883Y-90569671D01*
X111566670Y-90583921D01*
X111546153Y-90596218D01*
X111524529Y-90606446D01*
X111502007Y-90614504D01*
X111478803Y-90620316D01*
X111455142Y-90623826D01*
X111431250Y-90625000D01*
X110518750Y-90625000D01*
X110494858Y-90623826D01*
X110471197Y-90620316D01*
X110447993Y-90614504D01*
X110425471Y-90606446D01*
X110403847Y-90596218D01*
X110383330Y-90583921D01*
X110364117Y-90569671D01*
X110346393Y-90553607D01*
X110330329Y-90535883D01*
X110316079Y-90516670D01*
X110303782Y-90496153D01*
X110293554Y-90474529D01*
X110285496Y-90452007D01*
X110279684Y-90428803D01*
X110276174Y-90405142D01*
X110275000Y-90381250D01*
X110275000Y-89893750D01*
X110276174Y-89869858D01*
X110279684Y-89846197D01*
X110285496Y-89822993D01*
X110293554Y-89800471D01*
X110303782Y-89778847D01*
X110316079Y-89758330D01*
X110330329Y-89739117D01*
X110346393Y-89721393D01*
X110364117Y-89705329D01*
X110383330Y-89691079D01*
X110403847Y-89678782D01*
X110425471Y-89668554D01*
X110447993Y-89660496D01*
X110471197Y-89654684D01*
X110494858Y-89651174D01*
X110518750Y-89650000D01*
X111431250Y-89650000D01*
X111455142Y-89651174D01*
X111455142Y-89651174D01*
G37*
D11*
X110975000Y-90137500D03*
D10*
G36*
X114447942Y-67603174D02*
G01*
X114471603Y-67606684D01*
X114494807Y-67612496D01*
X114517329Y-67620554D01*
X114538953Y-67630782D01*
X114559470Y-67643079D01*
X114578683Y-67657329D01*
X114596407Y-67673393D01*
X114612471Y-67691117D01*
X114626721Y-67710330D01*
X114639018Y-67730847D01*
X114649246Y-67752471D01*
X114657304Y-67774993D01*
X114663116Y-67798197D01*
X114666626Y-67821858D01*
X114667800Y-67845750D01*
X114667800Y-68333250D01*
X114666626Y-68357142D01*
X114663116Y-68380803D01*
X114657304Y-68404007D01*
X114649246Y-68426529D01*
X114639018Y-68448153D01*
X114626721Y-68468670D01*
X114612471Y-68487883D01*
X114596407Y-68505607D01*
X114578683Y-68521671D01*
X114559470Y-68535921D01*
X114538953Y-68548218D01*
X114517329Y-68558446D01*
X114494807Y-68566504D01*
X114471603Y-68572316D01*
X114447942Y-68575826D01*
X114424050Y-68577000D01*
X113511550Y-68577000D01*
X113487658Y-68575826D01*
X113463997Y-68572316D01*
X113440793Y-68566504D01*
X113418271Y-68558446D01*
X113396647Y-68548218D01*
X113376130Y-68535921D01*
X113356917Y-68521671D01*
X113339193Y-68505607D01*
X113323129Y-68487883D01*
X113308879Y-68468670D01*
X113296582Y-68448153D01*
X113286354Y-68426529D01*
X113278296Y-68404007D01*
X113272484Y-68380803D01*
X113268974Y-68357142D01*
X113267800Y-68333250D01*
X113267800Y-67845750D01*
X113268974Y-67821858D01*
X113272484Y-67798197D01*
X113278296Y-67774993D01*
X113286354Y-67752471D01*
X113296582Y-67730847D01*
X113308879Y-67710330D01*
X113323129Y-67691117D01*
X113339193Y-67673393D01*
X113356917Y-67657329D01*
X113376130Y-67643079D01*
X113396647Y-67630782D01*
X113418271Y-67620554D01*
X113440793Y-67612496D01*
X113463997Y-67606684D01*
X113487658Y-67603174D01*
X113511550Y-67602000D01*
X114424050Y-67602000D01*
X114447942Y-67603174D01*
X114447942Y-67603174D01*
G37*
D11*
X113967800Y-68089500D03*
D10*
G36*
X114447942Y-69478174D02*
G01*
X114471603Y-69481684D01*
X114494807Y-69487496D01*
X114517329Y-69495554D01*
X114538953Y-69505782D01*
X114559470Y-69518079D01*
X114578683Y-69532329D01*
X114596407Y-69548393D01*
X114612471Y-69566117D01*
X114626721Y-69585330D01*
X114639018Y-69605847D01*
X114649246Y-69627471D01*
X114657304Y-69649993D01*
X114663116Y-69673197D01*
X114666626Y-69696858D01*
X114667800Y-69720750D01*
X114667800Y-70208250D01*
X114666626Y-70232142D01*
X114663116Y-70255803D01*
X114657304Y-70279007D01*
X114649246Y-70301529D01*
X114639018Y-70323153D01*
X114626721Y-70343670D01*
X114612471Y-70362883D01*
X114596407Y-70380607D01*
X114578683Y-70396671D01*
X114559470Y-70410921D01*
X114538953Y-70423218D01*
X114517329Y-70433446D01*
X114494807Y-70441504D01*
X114471603Y-70447316D01*
X114447942Y-70450826D01*
X114424050Y-70452000D01*
X113511550Y-70452000D01*
X113487658Y-70450826D01*
X113463997Y-70447316D01*
X113440793Y-70441504D01*
X113418271Y-70433446D01*
X113396647Y-70423218D01*
X113376130Y-70410921D01*
X113356917Y-70396671D01*
X113339193Y-70380607D01*
X113323129Y-70362883D01*
X113308879Y-70343670D01*
X113296582Y-70323153D01*
X113286354Y-70301529D01*
X113278296Y-70279007D01*
X113272484Y-70255803D01*
X113268974Y-70232142D01*
X113267800Y-70208250D01*
X113267800Y-69720750D01*
X113268974Y-69696858D01*
X113272484Y-69673197D01*
X113278296Y-69649993D01*
X113286354Y-69627471D01*
X113296582Y-69605847D01*
X113308879Y-69585330D01*
X113323129Y-69566117D01*
X113339193Y-69548393D01*
X113356917Y-69532329D01*
X113376130Y-69518079D01*
X113396647Y-69505782D01*
X113418271Y-69495554D01*
X113440793Y-69487496D01*
X113463997Y-69481684D01*
X113487658Y-69478174D01*
X113511550Y-69477000D01*
X114424050Y-69477000D01*
X114447942Y-69478174D01*
X114447942Y-69478174D01*
G37*
D11*
X113967800Y-69964500D03*
D10*
G36*
X115278742Y-91517374D02*
G01*
X115302403Y-91520884D01*
X115325607Y-91526696D01*
X115348129Y-91534754D01*
X115369753Y-91544982D01*
X115390270Y-91557279D01*
X115409483Y-91571529D01*
X115427207Y-91587593D01*
X115443271Y-91605317D01*
X115457521Y-91624530D01*
X115469818Y-91645047D01*
X115480046Y-91666671D01*
X115488104Y-91689193D01*
X115493916Y-91712397D01*
X115497426Y-91736058D01*
X115498600Y-91759950D01*
X115498600Y-92247450D01*
X115497426Y-92271342D01*
X115493916Y-92295003D01*
X115488104Y-92318207D01*
X115480046Y-92340729D01*
X115469818Y-92362353D01*
X115457521Y-92382870D01*
X115443271Y-92402083D01*
X115427207Y-92419807D01*
X115409483Y-92435871D01*
X115390270Y-92450121D01*
X115369753Y-92462418D01*
X115348129Y-92472646D01*
X115325607Y-92480704D01*
X115302403Y-92486516D01*
X115278742Y-92490026D01*
X115254850Y-92491200D01*
X114342350Y-92491200D01*
X114318458Y-92490026D01*
X114294797Y-92486516D01*
X114271593Y-92480704D01*
X114249071Y-92472646D01*
X114227447Y-92462418D01*
X114206930Y-92450121D01*
X114187717Y-92435871D01*
X114169993Y-92419807D01*
X114153929Y-92402083D01*
X114139679Y-92382870D01*
X114127382Y-92362353D01*
X114117154Y-92340729D01*
X114109096Y-92318207D01*
X114103284Y-92295003D01*
X114099774Y-92271342D01*
X114098600Y-92247450D01*
X114098600Y-91759950D01*
X114099774Y-91736058D01*
X114103284Y-91712397D01*
X114109096Y-91689193D01*
X114117154Y-91666671D01*
X114127382Y-91645047D01*
X114139679Y-91624530D01*
X114153929Y-91605317D01*
X114169993Y-91587593D01*
X114187717Y-91571529D01*
X114206930Y-91557279D01*
X114227447Y-91544982D01*
X114249071Y-91534754D01*
X114271593Y-91526696D01*
X114294797Y-91520884D01*
X114318458Y-91517374D01*
X114342350Y-91516200D01*
X115254850Y-91516200D01*
X115278742Y-91517374D01*
X115278742Y-91517374D01*
G37*
D11*
X114798600Y-92003700D03*
D10*
G36*
X115278742Y-89642374D02*
G01*
X115302403Y-89645884D01*
X115325607Y-89651696D01*
X115348129Y-89659754D01*
X115369753Y-89669982D01*
X115390270Y-89682279D01*
X115409483Y-89696529D01*
X115427207Y-89712593D01*
X115443271Y-89730317D01*
X115457521Y-89749530D01*
X115469818Y-89770047D01*
X115480046Y-89791671D01*
X115488104Y-89814193D01*
X115493916Y-89837397D01*
X115497426Y-89861058D01*
X115498600Y-89884950D01*
X115498600Y-90372450D01*
X115497426Y-90396342D01*
X115493916Y-90420003D01*
X115488104Y-90443207D01*
X115480046Y-90465729D01*
X115469818Y-90487353D01*
X115457521Y-90507870D01*
X115443271Y-90527083D01*
X115427207Y-90544807D01*
X115409483Y-90560871D01*
X115390270Y-90575121D01*
X115369753Y-90587418D01*
X115348129Y-90597646D01*
X115325607Y-90605704D01*
X115302403Y-90611516D01*
X115278742Y-90615026D01*
X115254850Y-90616200D01*
X114342350Y-90616200D01*
X114318458Y-90615026D01*
X114294797Y-90611516D01*
X114271593Y-90605704D01*
X114249071Y-90597646D01*
X114227447Y-90587418D01*
X114206930Y-90575121D01*
X114187717Y-90560871D01*
X114169993Y-90544807D01*
X114153929Y-90527083D01*
X114139679Y-90507870D01*
X114127382Y-90487353D01*
X114117154Y-90465729D01*
X114109096Y-90443207D01*
X114103284Y-90420003D01*
X114099774Y-90396342D01*
X114098600Y-90372450D01*
X114098600Y-89884950D01*
X114099774Y-89861058D01*
X114103284Y-89837397D01*
X114109096Y-89814193D01*
X114117154Y-89791671D01*
X114127382Y-89770047D01*
X114139679Y-89749530D01*
X114153929Y-89730317D01*
X114169993Y-89712593D01*
X114187717Y-89696529D01*
X114206930Y-89682279D01*
X114227447Y-89669982D01*
X114249071Y-89659754D01*
X114271593Y-89651696D01*
X114294797Y-89645884D01*
X114318458Y-89642374D01*
X114342350Y-89641200D01*
X115254850Y-89641200D01*
X115278742Y-89642374D01*
X115278742Y-89642374D01*
G37*
D11*
X114798600Y-90128700D03*
D10*
G36*
X108893542Y-83956374D02*
G01*
X108917203Y-83959884D01*
X108940407Y-83965696D01*
X108962929Y-83973754D01*
X108984553Y-83983982D01*
X109005070Y-83996279D01*
X109024283Y-84010529D01*
X109042007Y-84026593D01*
X109058071Y-84044317D01*
X109072321Y-84063530D01*
X109084618Y-84084047D01*
X109094846Y-84105671D01*
X109102904Y-84128193D01*
X109108716Y-84151397D01*
X109112226Y-84175058D01*
X109113400Y-84198950D01*
X109113400Y-85111450D01*
X109112226Y-85135342D01*
X109108716Y-85159003D01*
X109102904Y-85182207D01*
X109094846Y-85204729D01*
X109084618Y-85226353D01*
X109072321Y-85246870D01*
X109058071Y-85266083D01*
X109042007Y-85283807D01*
X109024283Y-85299871D01*
X109005070Y-85314121D01*
X108984553Y-85326418D01*
X108962929Y-85336646D01*
X108940407Y-85344704D01*
X108917203Y-85350516D01*
X108893542Y-85354026D01*
X108869650Y-85355200D01*
X108382150Y-85355200D01*
X108358258Y-85354026D01*
X108334597Y-85350516D01*
X108311393Y-85344704D01*
X108288871Y-85336646D01*
X108267247Y-85326418D01*
X108246730Y-85314121D01*
X108227517Y-85299871D01*
X108209793Y-85283807D01*
X108193729Y-85266083D01*
X108179479Y-85246870D01*
X108167182Y-85226353D01*
X108156954Y-85204729D01*
X108148896Y-85182207D01*
X108143084Y-85159003D01*
X108139574Y-85135342D01*
X108138400Y-85111450D01*
X108138400Y-84198950D01*
X108139574Y-84175058D01*
X108143084Y-84151397D01*
X108148896Y-84128193D01*
X108156954Y-84105671D01*
X108167182Y-84084047D01*
X108179479Y-84063530D01*
X108193729Y-84044317D01*
X108209793Y-84026593D01*
X108227517Y-84010529D01*
X108246730Y-83996279D01*
X108267247Y-83983982D01*
X108288871Y-83973754D01*
X108311393Y-83965696D01*
X108334597Y-83959884D01*
X108358258Y-83956374D01*
X108382150Y-83955200D01*
X108869650Y-83955200D01*
X108893542Y-83956374D01*
X108893542Y-83956374D01*
G37*
D11*
X108625900Y-84655200D03*
D10*
G36*
X107018542Y-83956374D02*
G01*
X107042203Y-83959884D01*
X107065407Y-83965696D01*
X107087929Y-83973754D01*
X107109553Y-83983982D01*
X107130070Y-83996279D01*
X107149283Y-84010529D01*
X107167007Y-84026593D01*
X107183071Y-84044317D01*
X107197321Y-84063530D01*
X107209618Y-84084047D01*
X107219846Y-84105671D01*
X107227904Y-84128193D01*
X107233716Y-84151397D01*
X107237226Y-84175058D01*
X107238400Y-84198950D01*
X107238400Y-85111450D01*
X107237226Y-85135342D01*
X107233716Y-85159003D01*
X107227904Y-85182207D01*
X107219846Y-85204729D01*
X107209618Y-85226353D01*
X107197321Y-85246870D01*
X107183071Y-85266083D01*
X107167007Y-85283807D01*
X107149283Y-85299871D01*
X107130070Y-85314121D01*
X107109553Y-85326418D01*
X107087929Y-85336646D01*
X107065407Y-85344704D01*
X107042203Y-85350516D01*
X107018542Y-85354026D01*
X106994650Y-85355200D01*
X106507150Y-85355200D01*
X106483258Y-85354026D01*
X106459597Y-85350516D01*
X106436393Y-85344704D01*
X106413871Y-85336646D01*
X106392247Y-85326418D01*
X106371730Y-85314121D01*
X106352517Y-85299871D01*
X106334793Y-85283807D01*
X106318729Y-85266083D01*
X106304479Y-85246870D01*
X106292182Y-85226353D01*
X106281954Y-85204729D01*
X106273896Y-85182207D01*
X106268084Y-85159003D01*
X106264574Y-85135342D01*
X106263400Y-85111450D01*
X106263400Y-84198950D01*
X106264574Y-84175058D01*
X106268084Y-84151397D01*
X106273896Y-84128193D01*
X106281954Y-84105671D01*
X106292182Y-84084047D01*
X106304479Y-84063530D01*
X106318729Y-84044317D01*
X106334793Y-84026593D01*
X106352517Y-84010529D01*
X106371730Y-83996279D01*
X106392247Y-83983982D01*
X106413871Y-83973754D01*
X106436393Y-83965696D01*
X106459597Y-83959884D01*
X106483258Y-83956374D01*
X106507150Y-83955200D01*
X106994650Y-83955200D01*
X107018542Y-83956374D01*
X107018542Y-83956374D01*
G37*
D11*
X106750900Y-84655200D03*
D10*
G36*
X108880142Y-78251174D02*
G01*
X108903803Y-78254684D01*
X108927007Y-78260496D01*
X108949529Y-78268554D01*
X108971153Y-78278782D01*
X108991670Y-78291079D01*
X109010883Y-78305329D01*
X109028607Y-78321393D01*
X109044671Y-78339117D01*
X109058921Y-78358330D01*
X109071218Y-78378847D01*
X109081446Y-78400471D01*
X109089504Y-78422993D01*
X109095316Y-78446197D01*
X109098826Y-78469858D01*
X109100000Y-78493750D01*
X109100000Y-79406250D01*
X109098826Y-79430142D01*
X109095316Y-79453803D01*
X109089504Y-79477007D01*
X109081446Y-79499529D01*
X109071218Y-79521153D01*
X109058921Y-79541670D01*
X109044671Y-79560883D01*
X109028607Y-79578607D01*
X109010883Y-79594671D01*
X108991670Y-79608921D01*
X108971153Y-79621218D01*
X108949529Y-79631446D01*
X108927007Y-79639504D01*
X108903803Y-79645316D01*
X108880142Y-79648826D01*
X108856250Y-79650000D01*
X108368750Y-79650000D01*
X108344858Y-79648826D01*
X108321197Y-79645316D01*
X108297993Y-79639504D01*
X108275471Y-79631446D01*
X108253847Y-79621218D01*
X108233330Y-79608921D01*
X108214117Y-79594671D01*
X108196393Y-79578607D01*
X108180329Y-79560883D01*
X108166079Y-79541670D01*
X108153782Y-79521153D01*
X108143554Y-79499529D01*
X108135496Y-79477007D01*
X108129684Y-79453803D01*
X108126174Y-79430142D01*
X108125000Y-79406250D01*
X108125000Y-78493750D01*
X108126174Y-78469858D01*
X108129684Y-78446197D01*
X108135496Y-78422993D01*
X108143554Y-78400471D01*
X108153782Y-78378847D01*
X108166079Y-78358330D01*
X108180329Y-78339117D01*
X108196393Y-78321393D01*
X108214117Y-78305329D01*
X108233330Y-78291079D01*
X108253847Y-78278782D01*
X108275471Y-78268554D01*
X108297993Y-78260496D01*
X108321197Y-78254684D01*
X108344858Y-78251174D01*
X108368750Y-78250000D01*
X108856250Y-78250000D01*
X108880142Y-78251174D01*
X108880142Y-78251174D01*
G37*
D11*
X108612500Y-78950000D03*
D10*
G36*
X107005142Y-78251174D02*
G01*
X107028803Y-78254684D01*
X107052007Y-78260496D01*
X107074529Y-78268554D01*
X107096153Y-78278782D01*
X107116670Y-78291079D01*
X107135883Y-78305329D01*
X107153607Y-78321393D01*
X107169671Y-78339117D01*
X107183921Y-78358330D01*
X107196218Y-78378847D01*
X107206446Y-78400471D01*
X107214504Y-78422993D01*
X107220316Y-78446197D01*
X107223826Y-78469858D01*
X107225000Y-78493750D01*
X107225000Y-79406250D01*
X107223826Y-79430142D01*
X107220316Y-79453803D01*
X107214504Y-79477007D01*
X107206446Y-79499529D01*
X107196218Y-79521153D01*
X107183921Y-79541670D01*
X107169671Y-79560883D01*
X107153607Y-79578607D01*
X107135883Y-79594671D01*
X107116670Y-79608921D01*
X107096153Y-79621218D01*
X107074529Y-79631446D01*
X107052007Y-79639504D01*
X107028803Y-79645316D01*
X107005142Y-79648826D01*
X106981250Y-79650000D01*
X106493750Y-79650000D01*
X106469858Y-79648826D01*
X106446197Y-79645316D01*
X106422993Y-79639504D01*
X106400471Y-79631446D01*
X106378847Y-79621218D01*
X106358330Y-79608921D01*
X106339117Y-79594671D01*
X106321393Y-79578607D01*
X106305329Y-79560883D01*
X106291079Y-79541670D01*
X106278782Y-79521153D01*
X106268554Y-79499529D01*
X106260496Y-79477007D01*
X106254684Y-79453803D01*
X106251174Y-79430142D01*
X106250000Y-79406250D01*
X106250000Y-78493750D01*
X106251174Y-78469858D01*
X106254684Y-78446197D01*
X106260496Y-78422993D01*
X106268554Y-78400471D01*
X106278782Y-78378847D01*
X106291079Y-78358330D01*
X106305329Y-78339117D01*
X106321393Y-78321393D01*
X106339117Y-78305329D01*
X106358330Y-78291079D01*
X106378847Y-78278782D01*
X106400471Y-78268554D01*
X106422993Y-78260496D01*
X106446197Y-78254684D01*
X106469858Y-78251174D01*
X106493750Y-78250000D01*
X106981250Y-78250000D01*
X107005142Y-78251174D01*
X107005142Y-78251174D01*
G37*
D11*
X106737500Y-78950000D03*
D10*
G36*
X107005142Y-72301174D02*
G01*
X107028803Y-72304684D01*
X107052007Y-72310496D01*
X107074529Y-72318554D01*
X107096153Y-72328782D01*
X107116670Y-72341079D01*
X107135883Y-72355329D01*
X107153607Y-72371393D01*
X107169671Y-72389117D01*
X107183921Y-72408330D01*
X107196218Y-72428847D01*
X107206446Y-72450471D01*
X107214504Y-72472993D01*
X107220316Y-72496197D01*
X107223826Y-72519858D01*
X107225000Y-72543750D01*
X107225000Y-73456250D01*
X107223826Y-73480142D01*
X107220316Y-73503803D01*
X107214504Y-73527007D01*
X107206446Y-73549529D01*
X107196218Y-73571153D01*
X107183921Y-73591670D01*
X107169671Y-73610883D01*
X107153607Y-73628607D01*
X107135883Y-73644671D01*
X107116670Y-73658921D01*
X107096153Y-73671218D01*
X107074529Y-73681446D01*
X107052007Y-73689504D01*
X107028803Y-73695316D01*
X107005142Y-73698826D01*
X106981250Y-73700000D01*
X106493750Y-73700000D01*
X106469858Y-73698826D01*
X106446197Y-73695316D01*
X106422993Y-73689504D01*
X106400471Y-73681446D01*
X106378847Y-73671218D01*
X106358330Y-73658921D01*
X106339117Y-73644671D01*
X106321393Y-73628607D01*
X106305329Y-73610883D01*
X106291079Y-73591670D01*
X106278782Y-73571153D01*
X106268554Y-73549529D01*
X106260496Y-73527007D01*
X106254684Y-73503803D01*
X106251174Y-73480142D01*
X106250000Y-73456250D01*
X106250000Y-72543750D01*
X106251174Y-72519858D01*
X106254684Y-72496197D01*
X106260496Y-72472993D01*
X106268554Y-72450471D01*
X106278782Y-72428847D01*
X106291079Y-72408330D01*
X106305329Y-72389117D01*
X106321393Y-72371393D01*
X106339117Y-72355329D01*
X106358330Y-72341079D01*
X106378847Y-72328782D01*
X106400471Y-72318554D01*
X106422993Y-72310496D01*
X106446197Y-72304684D01*
X106469858Y-72301174D01*
X106493750Y-72300000D01*
X106981250Y-72300000D01*
X107005142Y-72301174D01*
X107005142Y-72301174D01*
G37*
D11*
X106737500Y-73000000D03*
D10*
G36*
X108880142Y-72301174D02*
G01*
X108903803Y-72304684D01*
X108927007Y-72310496D01*
X108949529Y-72318554D01*
X108971153Y-72328782D01*
X108991670Y-72341079D01*
X109010883Y-72355329D01*
X109028607Y-72371393D01*
X109044671Y-72389117D01*
X109058921Y-72408330D01*
X109071218Y-72428847D01*
X109081446Y-72450471D01*
X109089504Y-72472993D01*
X109095316Y-72496197D01*
X109098826Y-72519858D01*
X109100000Y-72543750D01*
X109100000Y-73456250D01*
X109098826Y-73480142D01*
X109095316Y-73503803D01*
X109089504Y-73527007D01*
X109081446Y-73549529D01*
X109071218Y-73571153D01*
X109058921Y-73591670D01*
X109044671Y-73610883D01*
X109028607Y-73628607D01*
X109010883Y-73644671D01*
X108991670Y-73658921D01*
X108971153Y-73671218D01*
X108949529Y-73681446D01*
X108927007Y-73689504D01*
X108903803Y-73695316D01*
X108880142Y-73698826D01*
X108856250Y-73700000D01*
X108368750Y-73700000D01*
X108344858Y-73698826D01*
X108321197Y-73695316D01*
X108297993Y-73689504D01*
X108275471Y-73681446D01*
X108253847Y-73671218D01*
X108233330Y-73658921D01*
X108214117Y-73644671D01*
X108196393Y-73628607D01*
X108180329Y-73610883D01*
X108166079Y-73591670D01*
X108153782Y-73571153D01*
X108143554Y-73549529D01*
X108135496Y-73527007D01*
X108129684Y-73503803D01*
X108126174Y-73480142D01*
X108125000Y-73456250D01*
X108125000Y-72543750D01*
X108126174Y-72519858D01*
X108129684Y-72496197D01*
X108135496Y-72472993D01*
X108143554Y-72450471D01*
X108153782Y-72428847D01*
X108166079Y-72408330D01*
X108180329Y-72389117D01*
X108196393Y-72371393D01*
X108214117Y-72355329D01*
X108233330Y-72341079D01*
X108253847Y-72328782D01*
X108275471Y-72318554D01*
X108297993Y-72310496D01*
X108321197Y-72304684D01*
X108344858Y-72301174D01*
X108368750Y-72300000D01*
X108856250Y-72300000D01*
X108880142Y-72301174D01*
X108880142Y-72301174D01*
G37*
D11*
X108612500Y-73000000D03*
D10*
G36*
X107005142Y-74451174D02*
G01*
X107028803Y-74454684D01*
X107052007Y-74460496D01*
X107074529Y-74468554D01*
X107096153Y-74478782D01*
X107116670Y-74491079D01*
X107135883Y-74505329D01*
X107153607Y-74521393D01*
X107169671Y-74539117D01*
X107183921Y-74558330D01*
X107196218Y-74578847D01*
X107206446Y-74600471D01*
X107214504Y-74622993D01*
X107220316Y-74646197D01*
X107223826Y-74669858D01*
X107225000Y-74693750D01*
X107225000Y-75606250D01*
X107223826Y-75630142D01*
X107220316Y-75653803D01*
X107214504Y-75677007D01*
X107206446Y-75699529D01*
X107196218Y-75721153D01*
X107183921Y-75741670D01*
X107169671Y-75760883D01*
X107153607Y-75778607D01*
X107135883Y-75794671D01*
X107116670Y-75808921D01*
X107096153Y-75821218D01*
X107074529Y-75831446D01*
X107052007Y-75839504D01*
X107028803Y-75845316D01*
X107005142Y-75848826D01*
X106981250Y-75850000D01*
X106493750Y-75850000D01*
X106469858Y-75848826D01*
X106446197Y-75845316D01*
X106422993Y-75839504D01*
X106400471Y-75831446D01*
X106378847Y-75821218D01*
X106358330Y-75808921D01*
X106339117Y-75794671D01*
X106321393Y-75778607D01*
X106305329Y-75760883D01*
X106291079Y-75741670D01*
X106278782Y-75721153D01*
X106268554Y-75699529D01*
X106260496Y-75677007D01*
X106254684Y-75653803D01*
X106251174Y-75630142D01*
X106250000Y-75606250D01*
X106250000Y-74693750D01*
X106251174Y-74669858D01*
X106254684Y-74646197D01*
X106260496Y-74622993D01*
X106268554Y-74600471D01*
X106278782Y-74578847D01*
X106291079Y-74558330D01*
X106305329Y-74539117D01*
X106321393Y-74521393D01*
X106339117Y-74505329D01*
X106358330Y-74491079D01*
X106378847Y-74478782D01*
X106400471Y-74468554D01*
X106422993Y-74460496D01*
X106446197Y-74454684D01*
X106469858Y-74451174D01*
X106493750Y-74450000D01*
X106981250Y-74450000D01*
X107005142Y-74451174D01*
X107005142Y-74451174D01*
G37*
D11*
X106737500Y-75150000D03*
D10*
G36*
X108880142Y-74451174D02*
G01*
X108903803Y-74454684D01*
X108927007Y-74460496D01*
X108949529Y-74468554D01*
X108971153Y-74478782D01*
X108991670Y-74491079D01*
X109010883Y-74505329D01*
X109028607Y-74521393D01*
X109044671Y-74539117D01*
X109058921Y-74558330D01*
X109071218Y-74578847D01*
X109081446Y-74600471D01*
X109089504Y-74622993D01*
X109095316Y-74646197D01*
X109098826Y-74669858D01*
X109100000Y-74693750D01*
X109100000Y-75606250D01*
X109098826Y-75630142D01*
X109095316Y-75653803D01*
X109089504Y-75677007D01*
X109081446Y-75699529D01*
X109071218Y-75721153D01*
X109058921Y-75741670D01*
X109044671Y-75760883D01*
X109028607Y-75778607D01*
X109010883Y-75794671D01*
X108991670Y-75808921D01*
X108971153Y-75821218D01*
X108949529Y-75831446D01*
X108927007Y-75839504D01*
X108903803Y-75845316D01*
X108880142Y-75848826D01*
X108856250Y-75850000D01*
X108368750Y-75850000D01*
X108344858Y-75848826D01*
X108321197Y-75845316D01*
X108297993Y-75839504D01*
X108275471Y-75831446D01*
X108253847Y-75821218D01*
X108233330Y-75808921D01*
X108214117Y-75794671D01*
X108196393Y-75778607D01*
X108180329Y-75760883D01*
X108166079Y-75741670D01*
X108153782Y-75721153D01*
X108143554Y-75699529D01*
X108135496Y-75677007D01*
X108129684Y-75653803D01*
X108126174Y-75630142D01*
X108125000Y-75606250D01*
X108125000Y-74693750D01*
X108126174Y-74669858D01*
X108129684Y-74646197D01*
X108135496Y-74622993D01*
X108143554Y-74600471D01*
X108153782Y-74578847D01*
X108166079Y-74558330D01*
X108180329Y-74539117D01*
X108196393Y-74521393D01*
X108214117Y-74505329D01*
X108233330Y-74491079D01*
X108253847Y-74478782D01*
X108275471Y-74468554D01*
X108297993Y-74460496D01*
X108321197Y-74454684D01*
X108344858Y-74451174D01*
X108368750Y-74450000D01*
X108856250Y-74450000D01*
X108880142Y-74451174D01*
X108880142Y-74451174D01*
G37*
D11*
X108612500Y-75150000D03*
D10*
G36*
X119088742Y-89642374D02*
G01*
X119112403Y-89645884D01*
X119135607Y-89651696D01*
X119158129Y-89659754D01*
X119179753Y-89669982D01*
X119200270Y-89682279D01*
X119219483Y-89696529D01*
X119237207Y-89712593D01*
X119253271Y-89730317D01*
X119267521Y-89749530D01*
X119279818Y-89770047D01*
X119290046Y-89791671D01*
X119298104Y-89814193D01*
X119303916Y-89837397D01*
X119307426Y-89861058D01*
X119308600Y-89884950D01*
X119308600Y-90372450D01*
X119307426Y-90396342D01*
X119303916Y-90420003D01*
X119298104Y-90443207D01*
X119290046Y-90465729D01*
X119279818Y-90487353D01*
X119267521Y-90507870D01*
X119253271Y-90527083D01*
X119237207Y-90544807D01*
X119219483Y-90560871D01*
X119200270Y-90575121D01*
X119179753Y-90587418D01*
X119158129Y-90597646D01*
X119135607Y-90605704D01*
X119112403Y-90611516D01*
X119088742Y-90615026D01*
X119064850Y-90616200D01*
X118152350Y-90616200D01*
X118128458Y-90615026D01*
X118104797Y-90611516D01*
X118081593Y-90605704D01*
X118059071Y-90597646D01*
X118037447Y-90587418D01*
X118016930Y-90575121D01*
X117997717Y-90560871D01*
X117979993Y-90544807D01*
X117963929Y-90527083D01*
X117949679Y-90507870D01*
X117937382Y-90487353D01*
X117927154Y-90465729D01*
X117919096Y-90443207D01*
X117913284Y-90420003D01*
X117909774Y-90396342D01*
X117908600Y-90372450D01*
X117908600Y-89884950D01*
X117909774Y-89861058D01*
X117913284Y-89837397D01*
X117919096Y-89814193D01*
X117927154Y-89791671D01*
X117937382Y-89770047D01*
X117949679Y-89749530D01*
X117963929Y-89730317D01*
X117979993Y-89712593D01*
X117997717Y-89696529D01*
X118016930Y-89682279D01*
X118037447Y-89669982D01*
X118059071Y-89659754D01*
X118081593Y-89651696D01*
X118104797Y-89645884D01*
X118128458Y-89642374D01*
X118152350Y-89641200D01*
X119064850Y-89641200D01*
X119088742Y-89642374D01*
X119088742Y-89642374D01*
G37*
D11*
X118608600Y-90128700D03*
D10*
G36*
X119088742Y-91517374D02*
G01*
X119112403Y-91520884D01*
X119135607Y-91526696D01*
X119158129Y-91534754D01*
X119179753Y-91544982D01*
X119200270Y-91557279D01*
X119219483Y-91571529D01*
X119237207Y-91587593D01*
X119253271Y-91605317D01*
X119267521Y-91624530D01*
X119279818Y-91645047D01*
X119290046Y-91666671D01*
X119298104Y-91689193D01*
X119303916Y-91712397D01*
X119307426Y-91736058D01*
X119308600Y-91759950D01*
X119308600Y-92247450D01*
X119307426Y-92271342D01*
X119303916Y-92295003D01*
X119298104Y-92318207D01*
X119290046Y-92340729D01*
X119279818Y-92362353D01*
X119267521Y-92382870D01*
X119253271Y-92402083D01*
X119237207Y-92419807D01*
X119219483Y-92435871D01*
X119200270Y-92450121D01*
X119179753Y-92462418D01*
X119158129Y-92472646D01*
X119135607Y-92480704D01*
X119112403Y-92486516D01*
X119088742Y-92490026D01*
X119064850Y-92491200D01*
X118152350Y-92491200D01*
X118128458Y-92490026D01*
X118104797Y-92486516D01*
X118081593Y-92480704D01*
X118059071Y-92472646D01*
X118037447Y-92462418D01*
X118016930Y-92450121D01*
X117997717Y-92435871D01*
X117979993Y-92419807D01*
X117963929Y-92402083D01*
X117949679Y-92382870D01*
X117937382Y-92362353D01*
X117927154Y-92340729D01*
X117919096Y-92318207D01*
X117913284Y-92295003D01*
X117909774Y-92271342D01*
X117908600Y-92247450D01*
X117908600Y-91759950D01*
X117909774Y-91736058D01*
X117913284Y-91712397D01*
X117919096Y-91689193D01*
X117927154Y-91666671D01*
X117937382Y-91645047D01*
X117949679Y-91624530D01*
X117963929Y-91605317D01*
X117979993Y-91587593D01*
X117997717Y-91571529D01*
X118016930Y-91557279D01*
X118037447Y-91544982D01*
X118059071Y-91534754D01*
X118081593Y-91526696D01*
X118104797Y-91520884D01*
X118128458Y-91517374D01*
X118152350Y-91516200D01*
X119064850Y-91516200D01*
X119088742Y-91517374D01*
X119088742Y-91517374D01*
G37*
D11*
X118608600Y-92003700D03*
D10*
G36*
X113355142Y-89651174D02*
G01*
X113378803Y-89654684D01*
X113402007Y-89660496D01*
X113424529Y-89668554D01*
X113446153Y-89678782D01*
X113466670Y-89691079D01*
X113485883Y-89705329D01*
X113503607Y-89721393D01*
X113519671Y-89739117D01*
X113533921Y-89758330D01*
X113546218Y-89778847D01*
X113556446Y-89800471D01*
X113564504Y-89822993D01*
X113570316Y-89846197D01*
X113573826Y-89869858D01*
X113575000Y-89893750D01*
X113575000Y-90381250D01*
X113573826Y-90405142D01*
X113570316Y-90428803D01*
X113564504Y-90452007D01*
X113556446Y-90474529D01*
X113546218Y-90496153D01*
X113533921Y-90516670D01*
X113519671Y-90535883D01*
X113503607Y-90553607D01*
X113485883Y-90569671D01*
X113466670Y-90583921D01*
X113446153Y-90596218D01*
X113424529Y-90606446D01*
X113402007Y-90614504D01*
X113378803Y-90620316D01*
X113355142Y-90623826D01*
X113331250Y-90625000D01*
X112418750Y-90625000D01*
X112394858Y-90623826D01*
X112371197Y-90620316D01*
X112347993Y-90614504D01*
X112325471Y-90606446D01*
X112303847Y-90596218D01*
X112283330Y-90583921D01*
X112264117Y-90569671D01*
X112246393Y-90553607D01*
X112230329Y-90535883D01*
X112216079Y-90516670D01*
X112203782Y-90496153D01*
X112193554Y-90474529D01*
X112185496Y-90452007D01*
X112179684Y-90428803D01*
X112176174Y-90405142D01*
X112175000Y-90381250D01*
X112175000Y-89893750D01*
X112176174Y-89869858D01*
X112179684Y-89846197D01*
X112185496Y-89822993D01*
X112193554Y-89800471D01*
X112203782Y-89778847D01*
X112216079Y-89758330D01*
X112230329Y-89739117D01*
X112246393Y-89721393D01*
X112264117Y-89705329D01*
X112283330Y-89691079D01*
X112303847Y-89678782D01*
X112325471Y-89668554D01*
X112347993Y-89660496D01*
X112371197Y-89654684D01*
X112394858Y-89651174D01*
X112418750Y-89650000D01*
X113331250Y-89650000D01*
X113355142Y-89651174D01*
X113355142Y-89651174D01*
G37*
D11*
X112875000Y-90137500D03*
D10*
G36*
X113355142Y-91526174D02*
G01*
X113378803Y-91529684D01*
X113402007Y-91535496D01*
X113424529Y-91543554D01*
X113446153Y-91553782D01*
X113466670Y-91566079D01*
X113485883Y-91580329D01*
X113503607Y-91596393D01*
X113519671Y-91614117D01*
X113533921Y-91633330D01*
X113546218Y-91653847D01*
X113556446Y-91675471D01*
X113564504Y-91697993D01*
X113570316Y-91721197D01*
X113573826Y-91744858D01*
X113575000Y-91768750D01*
X113575000Y-92256250D01*
X113573826Y-92280142D01*
X113570316Y-92303803D01*
X113564504Y-92327007D01*
X113556446Y-92349529D01*
X113546218Y-92371153D01*
X113533921Y-92391670D01*
X113519671Y-92410883D01*
X113503607Y-92428607D01*
X113485883Y-92444671D01*
X113466670Y-92458921D01*
X113446153Y-92471218D01*
X113424529Y-92481446D01*
X113402007Y-92489504D01*
X113378803Y-92495316D01*
X113355142Y-92498826D01*
X113331250Y-92500000D01*
X112418750Y-92500000D01*
X112394858Y-92498826D01*
X112371197Y-92495316D01*
X112347993Y-92489504D01*
X112325471Y-92481446D01*
X112303847Y-92471218D01*
X112283330Y-92458921D01*
X112264117Y-92444671D01*
X112246393Y-92428607D01*
X112230329Y-92410883D01*
X112216079Y-92391670D01*
X112203782Y-92371153D01*
X112193554Y-92349529D01*
X112185496Y-92327007D01*
X112179684Y-92303803D01*
X112176174Y-92280142D01*
X112175000Y-92256250D01*
X112175000Y-91768750D01*
X112176174Y-91744858D01*
X112179684Y-91721197D01*
X112185496Y-91697993D01*
X112193554Y-91675471D01*
X112203782Y-91653847D01*
X112216079Y-91633330D01*
X112230329Y-91614117D01*
X112246393Y-91596393D01*
X112264117Y-91580329D01*
X112283330Y-91566079D01*
X112303847Y-91553782D01*
X112325471Y-91543554D01*
X112347993Y-91535496D01*
X112371197Y-91529684D01*
X112394858Y-91526174D01*
X112418750Y-91525000D01*
X113331250Y-91525000D01*
X113355142Y-91526174D01*
X113355142Y-91526174D01*
G37*
D11*
X112875000Y-92012500D03*
D13*
X112288000Y-73015000D03*
X112288000Y-74285000D03*
X112288000Y-75555000D03*
X112288000Y-76825000D03*
X112288000Y-78095000D03*
X112288000Y-79365000D03*
X112288000Y-80635000D03*
X112288000Y-81905000D03*
X112288000Y-83175000D03*
X112288000Y-84445000D03*
X112288000Y-85715000D03*
X112288000Y-86985000D03*
X121712000Y-86985000D03*
X121712000Y-85715000D03*
X121712000Y-84445000D03*
X121712000Y-83175000D03*
X121712000Y-81905000D03*
X121712000Y-80635000D03*
X121712000Y-79365000D03*
X121712000Y-78095000D03*
X121712000Y-76825000D03*
X121712000Y-75555000D03*
X121712000Y-74285000D03*
X121712000Y-73015000D03*
D14*
X131682000Y-69350000D03*
X131682000Y-85650000D03*
D15*
X129332000Y-72500000D03*
X129332000Y-73500000D03*
X129332000Y-74500000D03*
X129332000Y-75500000D03*
X129332000Y-76500000D03*
X129332000Y-77500000D03*
X129332000Y-78500000D03*
X129332000Y-79500000D03*
X129332000Y-80500000D03*
X129332000Y-81500000D03*
X129332000Y-82500000D03*
D10*
G36*
X126530142Y-72151174D02*
G01*
X126553803Y-72154684D01*
X126577007Y-72160496D01*
X126599529Y-72168554D01*
X126621153Y-72178782D01*
X126641670Y-72191079D01*
X126660883Y-72205329D01*
X126678607Y-72221393D01*
X126694671Y-72239117D01*
X126708921Y-72258330D01*
X126721218Y-72278847D01*
X126731446Y-72300471D01*
X126739504Y-72322993D01*
X126745316Y-72346197D01*
X126748826Y-72369858D01*
X126750000Y-72393750D01*
X126750000Y-73306250D01*
X126748826Y-73330142D01*
X126745316Y-73353803D01*
X126739504Y-73377007D01*
X126731446Y-73399529D01*
X126721218Y-73421153D01*
X126708921Y-73441670D01*
X126694671Y-73460883D01*
X126678607Y-73478607D01*
X126660883Y-73494671D01*
X126641670Y-73508921D01*
X126621153Y-73521218D01*
X126599529Y-73531446D01*
X126577007Y-73539504D01*
X126553803Y-73545316D01*
X126530142Y-73548826D01*
X126506250Y-73550000D01*
X126018750Y-73550000D01*
X125994858Y-73548826D01*
X125971197Y-73545316D01*
X125947993Y-73539504D01*
X125925471Y-73531446D01*
X125903847Y-73521218D01*
X125883330Y-73508921D01*
X125864117Y-73494671D01*
X125846393Y-73478607D01*
X125830329Y-73460883D01*
X125816079Y-73441670D01*
X125803782Y-73421153D01*
X125793554Y-73399529D01*
X125785496Y-73377007D01*
X125779684Y-73353803D01*
X125776174Y-73330142D01*
X125775000Y-73306250D01*
X125775000Y-72393750D01*
X125776174Y-72369858D01*
X125779684Y-72346197D01*
X125785496Y-72322993D01*
X125793554Y-72300471D01*
X125803782Y-72278847D01*
X125816079Y-72258330D01*
X125830329Y-72239117D01*
X125846393Y-72221393D01*
X125864117Y-72205329D01*
X125883330Y-72191079D01*
X125903847Y-72178782D01*
X125925471Y-72168554D01*
X125947993Y-72160496D01*
X125971197Y-72154684D01*
X125994858Y-72151174D01*
X126018750Y-72150000D01*
X126506250Y-72150000D01*
X126530142Y-72151174D01*
X126530142Y-72151174D01*
G37*
D11*
X126262500Y-72850000D03*
D10*
G36*
X124655142Y-72151174D02*
G01*
X124678803Y-72154684D01*
X124702007Y-72160496D01*
X124724529Y-72168554D01*
X124746153Y-72178782D01*
X124766670Y-72191079D01*
X124785883Y-72205329D01*
X124803607Y-72221393D01*
X124819671Y-72239117D01*
X124833921Y-72258330D01*
X124846218Y-72278847D01*
X124856446Y-72300471D01*
X124864504Y-72322993D01*
X124870316Y-72346197D01*
X124873826Y-72369858D01*
X124875000Y-72393750D01*
X124875000Y-73306250D01*
X124873826Y-73330142D01*
X124870316Y-73353803D01*
X124864504Y-73377007D01*
X124856446Y-73399529D01*
X124846218Y-73421153D01*
X124833921Y-73441670D01*
X124819671Y-73460883D01*
X124803607Y-73478607D01*
X124785883Y-73494671D01*
X124766670Y-73508921D01*
X124746153Y-73521218D01*
X124724529Y-73531446D01*
X124702007Y-73539504D01*
X124678803Y-73545316D01*
X124655142Y-73548826D01*
X124631250Y-73550000D01*
X124143750Y-73550000D01*
X124119858Y-73548826D01*
X124096197Y-73545316D01*
X124072993Y-73539504D01*
X124050471Y-73531446D01*
X124028847Y-73521218D01*
X124008330Y-73508921D01*
X123989117Y-73494671D01*
X123971393Y-73478607D01*
X123955329Y-73460883D01*
X123941079Y-73441670D01*
X123928782Y-73421153D01*
X123918554Y-73399529D01*
X123910496Y-73377007D01*
X123904684Y-73353803D01*
X123901174Y-73330142D01*
X123900000Y-73306250D01*
X123900000Y-72393750D01*
X123901174Y-72369858D01*
X123904684Y-72346197D01*
X123910496Y-72322993D01*
X123918554Y-72300471D01*
X123928782Y-72278847D01*
X123941079Y-72258330D01*
X123955329Y-72239117D01*
X123971393Y-72221393D01*
X123989117Y-72205329D01*
X124008330Y-72191079D01*
X124028847Y-72178782D01*
X124050471Y-72168554D01*
X124072993Y-72160496D01*
X124096197Y-72154684D01*
X124119858Y-72151174D01*
X124143750Y-72150000D01*
X124631250Y-72150000D01*
X124655142Y-72151174D01*
X124655142Y-72151174D01*
G37*
D11*
X124387500Y-72850000D03*
D10*
G36*
X126530142Y-74051174D02*
G01*
X126553803Y-74054684D01*
X126577007Y-74060496D01*
X126599529Y-74068554D01*
X126621153Y-74078782D01*
X126641670Y-74091079D01*
X126660883Y-74105329D01*
X126678607Y-74121393D01*
X126694671Y-74139117D01*
X126708921Y-74158330D01*
X126721218Y-74178847D01*
X126731446Y-74200471D01*
X126739504Y-74222993D01*
X126745316Y-74246197D01*
X126748826Y-74269858D01*
X126750000Y-74293750D01*
X126750000Y-75206250D01*
X126748826Y-75230142D01*
X126745316Y-75253803D01*
X126739504Y-75277007D01*
X126731446Y-75299529D01*
X126721218Y-75321153D01*
X126708921Y-75341670D01*
X126694671Y-75360883D01*
X126678607Y-75378607D01*
X126660883Y-75394671D01*
X126641670Y-75408921D01*
X126621153Y-75421218D01*
X126599529Y-75431446D01*
X126577007Y-75439504D01*
X126553803Y-75445316D01*
X126530142Y-75448826D01*
X126506250Y-75450000D01*
X126018750Y-75450000D01*
X125994858Y-75448826D01*
X125971197Y-75445316D01*
X125947993Y-75439504D01*
X125925471Y-75431446D01*
X125903847Y-75421218D01*
X125883330Y-75408921D01*
X125864117Y-75394671D01*
X125846393Y-75378607D01*
X125830329Y-75360883D01*
X125816079Y-75341670D01*
X125803782Y-75321153D01*
X125793554Y-75299529D01*
X125785496Y-75277007D01*
X125779684Y-75253803D01*
X125776174Y-75230142D01*
X125775000Y-75206250D01*
X125775000Y-74293750D01*
X125776174Y-74269858D01*
X125779684Y-74246197D01*
X125785496Y-74222993D01*
X125793554Y-74200471D01*
X125803782Y-74178847D01*
X125816079Y-74158330D01*
X125830329Y-74139117D01*
X125846393Y-74121393D01*
X125864117Y-74105329D01*
X125883330Y-74091079D01*
X125903847Y-74078782D01*
X125925471Y-74068554D01*
X125947993Y-74060496D01*
X125971197Y-74054684D01*
X125994858Y-74051174D01*
X126018750Y-74050000D01*
X126506250Y-74050000D01*
X126530142Y-74051174D01*
X126530142Y-74051174D01*
G37*
D11*
X126262500Y-74750000D03*
D10*
G36*
X124655142Y-74051174D02*
G01*
X124678803Y-74054684D01*
X124702007Y-74060496D01*
X124724529Y-74068554D01*
X124746153Y-74078782D01*
X124766670Y-74091079D01*
X124785883Y-74105329D01*
X124803607Y-74121393D01*
X124819671Y-74139117D01*
X124833921Y-74158330D01*
X124846218Y-74178847D01*
X124856446Y-74200471D01*
X124864504Y-74222993D01*
X124870316Y-74246197D01*
X124873826Y-74269858D01*
X124875000Y-74293750D01*
X124875000Y-75206250D01*
X124873826Y-75230142D01*
X124870316Y-75253803D01*
X124864504Y-75277007D01*
X124856446Y-75299529D01*
X124846218Y-75321153D01*
X124833921Y-75341670D01*
X124819671Y-75360883D01*
X124803607Y-75378607D01*
X124785883Y-75394671D01*
X124766670Y-75408921D01*
X124746153Y-75421218D01*
X124724529Y-75431446D01*
X124702007Y-75439504D01*
X124678803Y-75445316D01*
X124655142Y-75448826D01*
X124631250Y-75450000D01*
X124143750Y-75450000D01*
X124119858Y-75448826D01*
X124096197Y-75445316D01*
X124072993Y-75439504D01*
X124050471Y-75431446D01*
X124028847Y-75421218D01*
X124008330Y-75408921D01*
X123989117Y-75394671D01*
X123971393Y-75378607D01*
X123955329Y-75360883D01*
X123941079Y-75341670D01*
X123928782Y-75321153D01*
X123918554Y-75299529D01*
X123910496Y-75277007D01*
X123904684Y-75253803D01*
X123901174Y-75230142D01*
X123900000Y-75206250D01*
X123900000Y-74293750D01*
X123901174Y-74269858D01*
X123904684Y-74246197D01*
X123910496Y-74222993D01*
X123918554Y-74200471D01*
X123928782Y-74178847D01*
X123941079Y-74158330D01*
X123955329Y-74139117D01*
X123971393Y-74121393D01*
X123989117Y-74105329D01*
X124008330Y-74091079D01*
X124028847Y-74078782D01*
X124050471Y-74068554D01*
X124072993Y-74060496D01*
X124096197Y-74054684D01*
X124119858Y-74051174D01*
X124143750Y-74050000D01*
X124631250Y-74050000D01*
X124655142Y-74051174D01*
X124655142Y-74051174D01*
G37*
D11*
X124387500Y-74750000D03*
D10*
G36*
X116352942Y-69478174D02*
G01*
X116376603Y-69481684D01*
X116399807Y-69487496D01*
X116422329Y-69495554D01*
X116443953Y-69505782D01*
X116464470Y-69518079D01*
X116483683Y-69532329D01*
X116501407Y-69548393D01*
X116517471Y-69566117D01*
X116531721Y-69585330D01*
X116544018Y-69605847D01*
X116554246Y-69627471D01*
X116562304Y-69649993D01*
X116568116Y-69673197D01*
X116571626Y-69696858D01*
X116572800Y-69720750D01*
X116572800Y-70208250D01*
X116571626Y-70232142D01*
X116568116Y-70255803D01*
X116562304Y-70279007D01*
X116554246Y-70301529D01*
X116544018Y-70323153D01*
X116531721Y-70343670D01*
X116517471Y-70362883D01*
X116501407Y-70380607D01*
X116483683Y-70396671D01*
X116464470Y-70410921D01*
X116443953Y-70423218D01*
X116422329Y-70433446D01*
X116399807Y-70441504D01*
X116376603Y-70447316D01*
X116352942Y-70450826D01*
X116329050Y-70452000D01*
X115416550Y-70452000D01*
X115392658Y-70450826D01*
X115368997Y-70447316D01*
X115345793Y-70441504D01*
X115323271Y-70433446D01*
X115301647Y-70423218D01*
X115281130Y-70410921D01*
X115261917Y-70396671D01*
X115244193Y-70380607D01*
X115228129Y-70362883D01*
X115213879Y-70343670D01*
X115201582Y-70323153D01*
X115191354Y-70301529D01*
X115183296Y-70279007D01*
X115177484Y-70255803D01*
X115173974Y-70232142D01*
X115172800Y-70208250D01*
X115172800Y-69720750D01*
X115173974Y-69696858D01*
X115177484Y-69673197D01*
X115183296Y-69649993D01*
X115191354Y-69627471D01*
X115201582Y-69605847D01*
X115213879Y-69585330D01*
X115228129Y-69566117D01*
X115244193Y-69548393D01*
X115261917Y-69532329D01*
X115281130Y-69518079D01*
X115301647Y-69505782D01*
X115323271Y-69495554D01*
X115345793Y-69487496D01*
X115368997Y-69481684D01*
X115392658Y-69478174D01*
X115416550Y-69477000D01*
X116329050Y-69477000D01*
X116352942Y-69478174D01*
X116352942Y-69478174D01*
G37*
D11*
X115872800Y-69964500D03*
D10*
G36*
X116352942Y-67603174D02*
G01*
X116376603Y-67606684D01*
X116399807Y-67612496D01*
X116422329Y-67620554D01*
X116443953Y-67630782D01*
X116464470Y-67643079D01*
X116483683Y-67657329D01*
X116501407Y-67673393D01*
X116517471Y-67691117D01*
X116531721Y-67710330D01*
X116544018Y-67730847D01*
X116554246Y-67752471D01*
X116562304Y-67774993D01*
X116568116Y-67798197D01*
X116571626Y-67821858D01*
X116572800Y-67845750D01*
X116572800Y-68333250D01*
X116571626Y-68357142D01*
X116568116Y-68380803D01*
X116562304Y-68404007D01*
X116554246Y-68426529D01*
X116544018Y-68448153D01*
X116531721Y-68468670D01*
X116517471Y-68487883D01*
X116501407Y-68505607D01*
X116483683Y-68521671D01*
X116464470Y-68535921D01*
X116443953Y-68548218D01*
X116422329Y-68558446D01*
X116399807Y-68566504D01*
X116376603Y-68572316D01*
X116352942Y-68575826D01*
X116329050Y-68577000D01*
X115416550Y-68577000D01*
X115392658Y-68575826D01*
X115368997Y-68572316D01*
X115345793Y-68566504D01*
X115323271Y-68558446D01*
X115301647Y-68548218D01*
X115281130Y-68535921D01*
X115261917Y-68521671D01*
X115244193Y-68505607D01*
X115228129Y-68487883D01*
X115213879Y-68468670D01*
X115201582Y-68448153D01*
X115191354Y-68426529D01*
X115183296Y-68404007D01*
X115177484Y-68380803D01*
X115173974Y-68357142D01*
X115172800Y-68333250D01*
X115172800Y-67845750D01*
X115173974Y-67821858D01*
X115177484Y-67798197D01*
X115183296Y-67774993D01*
X115191354Y-67752471D01*
X115201582Y-67730847D01*
X115213879Y-67710330D01*
X115228129Y-67691117D01*
X115244193Y-67673393D01*
X115261917Y-67657329D01*
X115281130Y-67643079D01*
X115301647Y-67630782D01*
X115323271Y-67620554D01*
X115345793Y-67612496D01*
X115368997Y-67606684D01*
X115392658Y-67603174D01*
X115416550Y-67602000D01*
X116329050Y-67602000D01*
X116352942Y-67603174D01*
X116352942Y-67603174D01*
G37*
D11*
X115872800Y-68089500D03*
D10*
G36*
X121005142Y-89651174D02*
G01*
X121028803Y-89654684D01*
X121052007Y-89660496D01*
X121074529Y-89668554D01*
X121096153Y-89678782D01*
X121116670Y-89691079D01*
X121135883Y-89705329D01*
X121153607Y-89721393D01*
X121169671Y-89739117D01*
X121183921Y-89758330D01*
X121196218Y-89778847D01*
X121206446Y-89800471D01*
X121214504Y-89822993D01*
X121220316Y-89846197D01*
X121223826Y-89869858D01*
X121225000Y-89893750D01*
X121225000Y-90381250D01*
X121223826Y-90405142D01*
X121220316Y-90428803D01*
X121214504Y-90452007D01*
X121206446Y-90474529D01*
X121196218Y-90496153D01*
X121183921Y-90516670D01*
X121169671Y-90535883D01*
X121153607Y-90553607D01*
X121135883Y-90569671D01*
X121116670Y-90583921D01*
X121096153Y-90596218D01*
X121074529Y-90606446D01*
X121052007Y-90614504D01*
X121028803Y-90620316D01*
X121005142Y-90623826D01*
X120981250Y-90625000D01*
X120068750Y-90625000D01*
X120044858Y-90623826D01*
X120021197Y-90620316D01*
X119997993Y-90614504D01*
X119975471Y-90606446D01*
X119953847Y-90596218D01*
X119933330Y-90583921D01*
X119914117Y-90569671D01*
X119896393Y-90553607D01*
X119880329Y-90535883D01*
X119866079Y-90516670D01*
X119853782Y-90496153D01*
X119843554Y-90474529D01*
X119835496Y-90452007D01*
X119829684Y-90428803D01*
X119826174Y-90405142D01*
X119825000Y-90381250D01*
X119825000Y-89893750D01*
X119826174Y-89869858D01*
X119829684Y-89846197D01*
X119835496Y-89822993D01*
X119843554Y-89800471D01*
X119853782Y-89778847D01*
X119866079Y-89758330D01*
X119880329Y-89739117D01*
X119896393Y-89721393D01*
X119914117Y-89705329D01*
X119933330Y-89691079D01*
X119953847Y-89678782D01*
X119975471Y-89668554D01*
X119997993Y-89660496D01*
X120021197Y-89654684D01*
X120044858Y-89651174D01*
X120068750Y-89650000D01*
X120981250Y-89650000D01*
X121005142Y-89651174D01*
X121005142Y-89651174D01*
G37*
D11*
X120525000Y-90137500D03*
D10*
G36*
X121005142Y-91526174D02*
G01*
X121028803Y-91529684D01*
X121052007Y-91535496D01*
X121074529Y-91543554D01*
X121096153Y-91553782D01*
X121116670Y-91566079D01*
X121135883Y-91580329D01*
X121153607Y-91596393D01*
X121169671Y-91614117D01*
X121183921Y-91633330D01*
X121196218Y-91653847D01*
X121206446Y-91675471D01*
X121214504Y-91697993D01*
X121220316Y-91721197D01*
X121223826Y-91744858D01*
X121225000Y-91768750D01*
X121225000Y-92256250D01*
X121223826Y-92280142D01*
X121220316Y-92303803D01*
X121214504Y-92327007D01*
X121206446Y-92349529D01*
X121196218Y-92371153D01*
X121183921Y-92391670D01*
X121169671Y-92410883D01*
X121153607Y-92428607D01*
X121135883Y-92444671D01*
X121116670Y-92458921D01*
X121096153Y-92471218D01*
X121074529Y-92481446D01*
X121052007Y-92489504D01*
X121028803Y-92495316D01*
X121005142Y-92498826D01*
X120981250Y-92500000D01*
X120068750Y-92500000D01*
X120044858Y-92498826D01*
X120021197Y-92495316D01*
X119997993Y-92489504D01*
X119975471Y-92481446D01*
X119953847Y-92471218D01*
X119933330Y-92458921D01*
X119914117Y-92444671D01*
X119896393Y-92428607D01*
X119880329Y-92410883D01*
X119866079Y-92391670D01*
X119853782Y-92371153D01*
X119843554Y-92349529D01*
X119835496Y-92327007D01*
X119829684Y-92303803D01*
X119826174Y-92280142D01*
X119825000Y-92256250D01*
X119825000Y-91768750D01*
X119826174Y-91744858D01*
X119829684Y-91721197D01*
X119835496Y-91697993D01*
X119843554Y-91675471D01*
X119853782Y-91653847D01*
X119866079Y-91633330D01*
X119880329Y-91614117D01*
X119896393Y-91596393D01*
X119914117Y-91580329D01*
X119933330Y-91566079D01*
X119953847Y-91553782D01*
X119975471Y-91543554D01*
X119997993Y-91535496D01*
X120021197Y-91529684D01*
X120044858Y-91526174D01*
X120068750Y-91525000D01*
X120981250Y-91525000D01*
X121005142Y-91526174D01*
X121005142Y-91526174D01*
G37*
D11*
X120525000Y-92012500D03*
D10*
G36*
X107018542Y-82051374D02*
G01*
X107042203Y-82054884D01*
X107065407Y-82060696D01*
X107087929Y-82068754D01*
X107109553Y-82078982D01*
X107130070Y-82091279D01*
X107149283Y-82105529D01*
X107167007Y-82121593D01*
X107183071Y-82139317D01*
X107197321Y-82158530D01*
X107209618Y-82179047D01*
X107219846Y-82200671D01*
X107227904Y-82223193D01*
X107233716Y-82246397D01*
X107237226Y-82270058D01*
X107238400Y-82293950D01*
X107238400Y-83206450D01*
X107237226Y-83230342D01*
X107233716Y-83254003D01*
X107227904Y-83277207D01*
X107219846Y-83299729D01*
X107209618Y-83321353D01*
X107197321Y-83341870D01*
X107183071Y-83361083D01*
X107167007Y-83378807D01*
X107149283Y-83394871D01*
X107130070Y-83409121D01*
X107109553Y-83421418D01*
X107087929Y-83431646D01*
X107065407Y-83439704D01*
X107042203Y-83445516D01*
X107018542Y-83449026D01*
X106994650Y-83450200D01*
X106507150Y-83450200D01*
X106483258Y-83449026D01*
X106459597Y-83445516D01*
X106436393Y-83439704D01*
X106413871Y-83431646D01*
X106392247Y-83421418D01*
X106371730Y-83409121D01*
X106352517Y-83394871D01*
X106334793Y-83378807D01*
X106318729Y-83361083D01*
X106304479Y-83341870D01*
X106292182Y-83321353D01*
X106281954Y-83299729D01*
X106273896Y-83277207D01*
X106268084Y-83254003D01*
X106264574Y-83230342D01*
X106263400Y-83206450D01*
X106263400Y-82293950D01*
X106264574Y-82270058D01*
X106268084Y-82246397D01*
X106273896Y-82223193D01*
X106281954Y-82200671D01*
X106292182Y-82179047D01*
X106304479Y-82158530D01*
X106318729Y-82139317D01*
X106334793Y-82121593D01*
X106352517Y-82105529D01*
X106371730Y-82091279D01*
X106392247Y-82078982D01*
X106413871Y-82068754D01*
X106436393Y-82060696D01*
X106459597Y-82054884D01*
X106483258Y-82051374D01*
X106507150Y-82050200D01*
X106994650Y-82050200D01*
X107018542Y-82051374D01*
X107018542Y-82051374D01*
G37*
D11*
X106750900Y-82750200D03*
D10*
G36*
X108893542Y-82051374D02*
G01*
X108917203Y-82054884D01*
X108940407Y-82060696D01*
X108962929Y-82068754D01*
X108984553Y-82078982D01*
X109005070Y-82091279D01*
X109024283Y-82105529D01*
X109042007Y-82121593D01*
X109058071Y-82139317D01*
X109072321Y-82158530D01*
X109084618Y-82179047D01*
X109094846Y-82200671D01*
X109102904Y-82223193D01*
X109108716Y-82246397D01*
X109112226Y-82270058D01*
X109113400Y-82293950D01*
X109113400Y-83206450D01*
X109112226Y-83230342D01*
X109108716Y-83254003D01*
X109102904Y-83277207D01*
X109094846Y-83299729D01*
X109084618Y-83321353D01*
X109072321Y-83341870D01*
X109058071Y-83361083D01*
X109042007Y-83378807D01*
X109024283Y-83394871D01*
X109005070Y-83409121D01*
X108984553Y-83421418D01*
X108962929Y-83431646D01*
X108940407Y-83439704D01*
X108917203Y-83445516D01*
X108893542Y-83449026D01*
X108869650Y-83450200D01*
X108382150Y-83450200D01*
X108358258Y-83449026D01*
X108334597Y-83445516D01*
X108311393Y-83439704D01*
X108288871Y-83431646D01*
X108267247Y-83421418D01*
X108246730Y-83409121D01*
X108227517Y-83394871D01*
X108209793Y-83378807D01*
X108193729Y-83361083D01*
X108179479Y-83341870D01*
X108167182Y-83321353D01*
X108156954Y-83299729D01*
X108148896Y-83277207D01*
X108143084Y-83254003D01*
X108139574Y-83230342D01*
X108138400Y-83206450D01*
X108138400Y-82293950D01*
X108139574Y-82270058D01*
X108143084Y-82246397D01*
X108148896Y-82223193D01*
X108156954Y-82200671D01*
X108167182Y-82179047D01*
X108179479Y-82158530D01*
X108193729Y-82139317D01*
X108209793Y-82121593D01*
X108227517Y-82105529D01*
X108246730Y-82091279D01*
X108267247Y-82078982D01*
X108288871Y-82068754D01*
X108311393Y-82060696D01*
X108334597Y-82054884D01*
X108358258Y-82051374D01*
X108382150Y-82050200D01*
X108869650Y-82050200D01*
X108893542Y-82051374D01*
X108893542Y-82051374D01*
G37*
D11*
X108625900Y-82750200D03*
D10*
G36*
X108893542Y-85861374D02*
G01*
X108917203Y-85864884D01*
X108940407Y-85870696D01*
X108962929Y-85878754D01*
X108984553Y-85888982D01*
X109005070Y-85901279D01*
X109024283Y-85915529D01*
X109042007Y-85931593D01*
X109058071Y-85949317D01*
X109072321Y-85968530D01*
X109084618Y-85989047D01*
X109094846Y-86010671D01*
X109102904Y-86033193D01*
X109108716Y-86056397D01*
X109112226Y-86080058D01*
X109113400Y-86103950D01*
X109113400Y-87016450D01*
X109112226Y-87040342D01*
X109108716Y-87064003D01*
X109102904Y-87087207D01*
X109094846Y-87109729D01*
X109084618Y-87131353D01*
X109072321Y-87151870D01*
X109058071Y-87171083D01*
X109042007Y-87188807D01*
X109024283Y-87204871D01*
X109005070Y-87219121D01*
X108984553Y-87231418D01*
X108962929Y-87241646D01*
X108940407Y-87249704D01*
X108917203Y-87255516D01*
X108893542Y-87259026D01*
X108869650Y-87260200D01*
X108382150Y-87260200D01*
X108358258Y-87259026D01*
X108334597Y-87255516D01*
X108311393Y-87249704D01*
X108288871Y-87241646D01*
X108267247Y-87231418D01*
X108246730Y-87219121D01*
X108227517Y-87204871D01*
X108209793Y-87188807D01*
X108193729Y-87171083D01*
X108179479Y-87151870D01*
X108167182Y-87131353D01*
X108156954Y-87109729D01*
X108148896Y-87087207D01*
X108143084Y-87064003D01*
X108139574Y-87040342D01*
X108138400Y-87016450D01*
X108138400Y-86103950D01*
X108139574Y-86080058D01*
X108143084Y-86056397D01*
X108148896Y-86033193D01*
X108156954Y-86010671D01*
X108167182Y-85989047D01*
X108179479Y-85968530D01*
X108193729Y-85949317D01*
X108209793Y-85931593D01*
X108227517Y-85915529D01*
X108246730Y-85901279D01*
X108267247Y-85888982D01*
X108288871Y-85878754D01*
X108311393Y-85870696D01*
X108334597Y-85864884D01*
X108358258Y-85861374D01*
X108382150Y-85860200D01*
X108869650Y-85860200D01*
X108893542Y-85861374D01*
X108893542Y-85861374D01*
G37*
D11*
X108625900Y-86560200D03*
D10*
G36*
X107018542Y-85861374D02*
G01*
X107042203Y-85864884D01*
X107065407Y-85870696D01*
X107087929Y-85878754D01*
X107109553Y-85888982D01*
X107130070Y-85901279D01*
X107149283Y-85915529D01*
X107167007Y-85931593D01*
X107183071Y-85949317D01*
X107197321Y-85968530D01*
X107209618Y-85989047D01*
X107219846Y-86010671D01*
X107227904Y-86033193D01*
X107233716Y-86056397D01*
X107237226Y-86080058D01*
X107238400Y-86103950D01*
X107238400Y-87016450D01*
X107237226Y-87040342D01*
X107233716Y-87064003D01*
X107227904Y-87087207D01*
X107219846Y-87109729D01*
X107209618Y-87131353D01*
X107197321Y-87151870D01*
X107183071Y-87171083D01*
X107167007Y-87188807D01*
X107149283Y-87204871D01*
X107130070Y-87219121D01*
X107109553Y-87231418D01*
X107087929Y-87241646D01*
X107065407Y-87249704D01*
X107042203Y-87255516D01*
X107018542Y-87259026D01*
X106994650Y-87260200D01*
X106507150Y-87260200D01*
X106483258Y-87259026D01*
X106459597Y-87255516D01*
X106436393Y-87249704D01*
X106413871Y-87241646D01*
X106392247Y-87231418D01*
X106371730Y-87219121D01*
X106352517Y-87204871D01*
X106334793Y-87188807D01*
X106318729Y-87171083D01*
X106304479Y-87151870D01*
X106292182Y-87131353D01*
X106281954Y-87109729D01*
X106273896Y-87087207D01*
X106268084Y-87064003D01*
X106264574Y-87040342D01*
X106263400Y-87016450D01*
X106263400Y-86103950D01*
X106264574Y-86080058D01*
X106268084Y-86056397D01*
X106273896Y-86033193D01*
X106281954Y-86010671D01*
X106292182Y-85989047D01*
X106304479Y-85968530D01*
X106318729Y-85949317D01*
X106334793Y-85931593D01*
X106352517Y-85915529D01*
X106371730Y-85901279D01*
X106392247Y-85888982D01*
X106413871Y-85878754D01*
X106436393Y-85870696D01*
X106459597Y-85864884D01*
X106483258Y-85861374D01*
X106507150Y-85860200D01*
X106994650Y-85860200D01*
X107018542Y-85861374D01*
X107018542Y-85861374D01*
G37*
D11*
X106750900Y-86560200D03*
D10*
G36*
X108892642Y-80151174D02*
G01*
X108916303Y-80154684D01*
X108939507Y-80160496D01*
X108962029Y-80168554D01*
X108983653Y-80178782D01*
X109004170Y-80191079D01*
X109023383Y-80205329D01*
X109041107Y-80221393D01*
X109057171Y-80239117D01*
X109071421Y-80258330D01*
X109083718Y-80278847D01*
X109093946Y-80300471D01*
X109102004Y-80322993D01*
X109107816Y-80346197D01*
X109111326Y-80369858D01*
X109112500Y-80393750D01*
X109112500Y-81306250D01*
X109111326Y-81330142D01*
X109107816Y-81353803D01*
X109102004Y-81377007D01*
X109093946Y-81399529D01*
X109083718Y-81421153D01*
X109071421Y-81441670D01*
X109057171Y-81460883D01*
X109041107Y-81478607D01*
X109023383Y-81494671D01*
X109004170Y-81508921D01*
X108983653Y-81521218D01*
X108962029Y-81531446D01*
X108939507Y-81539504D01*
X108916303Y-81545316D01*
X108892642Y-81548826D01*
X108868750Y-81550000D01*
X108381250Y-81550000D01*
X108357358Y-81548826D01*
X108333697Y-81545316D01*
X108310493Y-81539504D01*
X108287971Y-81531446D01*
X108266347Y-81521218D01*
X108245830Y-81508921D01*
X108226617Y-81494671D01*
X108208893Y-81478607D01*
X108192829Y-81460883D01*
X108178579Y-81441670D01*
X108166282Y-81421153D01*
X108156054Y-81399529D01*
X108147996Y-81377007D01*
X108142184Y-81353803D01*
X108138674Y-81330142D01*
X108137500Y-81306250D01*
X108137500Y-80393750D01*
X108138674Y-80369858D01*
X108142184Y-80346197D01*
X108147996Y-80322993D01*
X108156054Y-80300471D01*
X108166282Y-80278847D01*
X108178579Y-80258330D01*
X108192829Y-80239117D01*
X108208893Y-80221393D01*
X108226617Y-80205329D01*
X108245830Y-80191079D01*
X108266347Y-80178782D01*
X108287971Y-80168554D01*
X108310493Y-80160496D01*
X108333697Y-80154684D01*
X108357358Y-80151174D01*
X108381250Y-80150000D01*
X108868750Y-80150000D01*
X108892642Y-80151174D01*
X108892642Y-80151174D01*
G37*
D11*
X108625000Y-80850000D03*
D10*
G36*
X107017642Y-80151174D02*
G01*
X107041303Y-80154684D01*
X107064507Y-80160496D01*
X107087029Y-80168554D01*
X107108653Y-80178782D01*
X107129170Y-80191079D01*
X107148383Y-80205329D01*
X107166107Y-80221393D01*
X107182171Y-80239117D01*
X107196421Y-80258330D01*
X107208718Y-80278847D01*
X107218946Y-80300471D01*
X107227004Y-80322993D01*
X107232816Y-80346197D01*
X107236326Y-80369858D01*
X107237500Y-80393750D01*
X107237500Y-81306250D01*
X107236326Y-81330142D01*
X107232816Y-81353803D01*
X107227004Y-81377007D01*
X107218946Y-81399529D01*
X107208718Y-81421153D01*
X107196421Y-81441670D01*
X107182171Y-81460883D01*
X107166107Y-81478607D01*
X107148383Y-81494671D01*
X107129170Y-81508921D01*
X107108653Y-81521218D01*
X107087029Y-81531446D01*
X107064507Y-81539504D01*
X107041303Y-81545316D01*
X107017642Y-81548826D01*
X106993750Y-81550000D01*
X106506250Y-81550000D01*
X106482358Y-81548826D01*
X106458697Y-81545316D01*
X106435493Y-81539504D01*
X106412971Y-81531446D01*
X106391347Y-81521218D01*
X106370830Y-81508921D01*
X106351617Y-81494671D01*
X106333893Y-81478607D01*
X106317829Y-81460883D01*
X106303579Y-81441670D01*
X106291282Y-81421153D01*
X106281054Y-81399529D01*
X106272996Y-81377007D01*
X106267184Y-81353803D01*
X106263674Y-81330142D01*
X106262500Y-81306250D01*
X106262500Y-80393750D01*
X106263674Y-80369858D01*
X106267184Y-80346197D01*
X106272996Y-80322993D01*
X106281054Y-80300471D01*
X106291282Y-80278847D01*
X106303579Y-80258330D01*
X106317829Y-80239117D01*
X106333893Y-80221393D01*
X106351617Y-80205329D01*
X106370830Y-80191079D01*
X106391347Y-80178782D01*
X106412971Y-80168554D01*
X106435493Y-80160496D01*
X106458697Y-80154684D01*
X106482358Y-80151174D01*
X106506250Y-80150000D01*
X106993750Y-80150000D01*
X107017642Y-80151174D01*
X107017642Y-80151174D01*
G37*
D11*
X106750000Y-80850000D03*
D10*
G36*
X117183742Y-89642374D02*
G01*
X117207403Y-89645884D01*
X117230607Y-89651696D01*
X117253129Y-89659754D01*
X117274753Y-89669982D01*
X117295270Y-89682279D01*
X117314483Y-89696529D01*
X117332207Y-89712593D01*
X117348271Y-89730317D01*
X117362521Y-89749530D01*
X117374818Y-89770047D01*
X117385046Y-89791671D01*
X117393104Y-89814193D01*
X117398916Y-89837397D01*
X117402426Y-89861058D01*
X117403600Y-89884950D01*
X117403600Y-90372450D01*
X117402426Y-90396342D01*
X117398916Y-90420003D01*
X117393104Y-90443207D01*
X117385046Y-90465729D01*
X117374818Y-90487353D01*
X117362521Y-90507870D01*
X117348271Y-90527083D01*
X117332207Y-90544807D01*
X117314483Y-90560871D01*
X117295270Y-90575121D01*
X117274753Y-90587418D01*
X117253129Y-90597646D01*
X117230607Y-90605704D01*
X117207403Y-90611516D01*
X117183742Y-90615026D01*
X117159850Y-90616200D01*
X116247350Y-90616200D01*
X116223458Y-90615026D01*
X116199797Y-90611516D01*
X116176593Y-90605704D01*
X116154071Y-90597646D01*
X116132447Y-90587418D01*
X116111930Y-90575121D01*
X116092717Y-90560871D01*
X116074993Y-90544807D01*
X116058929Y-90527083D01*
X116044679Y-90507870D01*
X116032382Y-90487353D01*
X116022154Y-90465729D01*
X116014096Y-90443207D01*
X116008284Y-90420003D01*
X116004774Y-90396342D01*
X116003600Y-90372450D01*
X116003600Y-89884950D01*
X116004774Y-89861058D01*
X116008284Y-89837397D01*
X116014096Y-89814193D01*
X116022154Y-89791671D01*
X116032382Y-89770047D01*
X116044679Y-89749530D01*
X116058929Y-89730317D01*
X116074993Y-89712593D01*
X116092717Y-89696529D01*
X116111930Y-89682279D01*
X116132447Y-89669982D01*
X116154071Y-89659754D01*
X116176593Y-89651696D01*
X116199797Y-89645884D01*
X116223458Y-89642374D01*
X116247350Y-89641200D01*
X117159850Y-89641200D01*
X117183742Y-89642374D01*
X117183742Y-89642374D01*
G37*
D11*
X116703600Y-90128700D03*
D10*
G36*
X117183742Y-91517374D02*
G01*
X117207403Y-91520884D01*
X117230607Y-91526696D01*
X117253129Y-91534754D01*
X117274753Y-91544982D01*
X117295270Y-91557279D01*
X117314483Y-91571529D01*
X117332207Y-91587593D01*
X117348271Y-91605317D01*
X117362521Y-91624530D01*
X117374818Y-91645047D01*
X117385046Y-91666671D01*
X117393104Y-91689193D01*
X117398916Y-91712397D01*
X117402426Y-91736058D01*
X117403600Y-91759950D01*
X117403600Y-92247450D01*
X117402426Y-92271342D01*
X117398916Y-92295003D01*
X117393104Y-92318207D01*
X117385046Y-92340729D01*
X117374818Y-92362353D01*
X117362521Y-92382870D01*
X117348271Y-92402083D01*
X117332207Y-92419807D01*
X117314483Y-92435871D01*
X117295270Y-92450121D01*
X117274753Y-92462418D01*
X117253129Y-92472646D01*
X117230607Y-92480704D01*
X117207403Y-92486516D01*
X117183742Y-92490026D01*
X117159850Y-92491200D01*
X116247350Y-92491200D01*
X116223458Y-92490026D01*
X116199797Y-92486516D01*
X116176593Y-92480704D01*
X116154071Y-92472646D01*
X116132447Y-92462418D01*
X116111930Y-92450121D01*
X116092717Y-92435871D01*
X116074993Y-92419807D01*
X116058929Y-92402083D01*
X116044679Y-92382870D01*
X116032382Y-92362353D01*
X116022154Y-92340729D01*
X116014096Y-92318207D01*
X116008284Y-92295003D01*
X116004774Y-92271342D01*
X116003600Y-92247450D01*
X116003600Y-91759950D01*
X116004774Y-91736058D01*
X116008284Y-91712397D01*
X116014096Y-91689193D01*
X116022154Y-91666671D01*
X116032382Y-91645047D01*
X116044679Y-91624530D01*
X116058929Y-91605317D01*
X116074993Y-91587593D01*
X116092717Y-91571529D01*
X116111930Y-91557279D01*
X116132447Y-91544982D01*
X116154071Y-91534754D01*
X116176593Y-91526696D01*
X116199797Y-91520884D01*
X116223458Y-91517374D01*
X116247350Y-91516200D01*
X117159850Y-91516200D01*
X117183742Y-91517374D01*
X117183742Y-91517374D01*
G37*
D11*
X116703600Y-92003700D03*
D10*
G36*
X107005142Y-76351174D02*
G01*
X107028803Y-76354684D01*
X107052007Y-76360496D01*
X107074529Y-76368554D01*
X107096153Y-76378782D01*
X107116670Y-76391079D01*
X107135883Y-76405329D01*
X107153607Y-76421393D01*
X107169671Y-76439117D01*
X107183921Y-76458330D01*
X107196218Y-76478847D01*
X107206446Y-76500471D01*
X107214504Y-76522993D01*
X107220316Y-76546197D01*
X107223826Y-76569858D01*
X107225000Y-76593750D01*
X107225000Y-77506250D01*
X107223826Y-77530142D01*
X107220316Y-77553803D01*
X107214504Y-77577007D01*
X107206446Y-77599529D01*
X107196218Y-77621153D01*
X107183921Y-77641670D01*
X107169671Y-77660883D01*
X107153607Y-77678607D01*
X107135883Y-77694671D01*
X107116670Y-77708921D01*
X107096153Y-77721218D01*
X107074529Y-77731446D01*
X107052007Y-77739504D01*
X107028803Y-77745316D01*
X107005142Y-77748826D01*
X106981250Y-77750000D01*
X106493750Y-77750000D01*
X106469858Y-77748826D01*
X106446197Y-77745316D01*
X106422993Y-77739504D01*
X106400471Y-77731446D01*
X106378847Y-77721218D01*
X106358330Y-77708921D01*
X106339117Y-77694671D01*
X106321393Y-77678607D01*
X106305329Y-77660883D01*
X106291079Y-77641670D01*
X106278782Y-77621153D01*
X106268554Y-77599529D01*
X106260496Y-77577007D01*
X106254684Y-77553803D01*
X106251174Y-77530142D01*
X106250000Y-77506250D01*
X106250000Y-76593750D01*
X106251174Y-76569858D01*
X106254684Y-76546197D01*
X106260496Y-76522993D01*
X106268554Y-76500471D01*
X106278782Y-76478847D01*
X106291079Y-76458330D01*
X106305329Y-76439117D01*
X106321393Y-76421393D01*
X106339117Y-76405329D01*
X106358330Y-76391079D01*
X106378847Y-76378782D01*
X106400471Y-76368554D01*
X106422993Y-76360496D01*
X106446197Y-76354684D01*
X106469858Y-76351174D01*
X106493750Y-76350000D01*
X106981250Y-76350000D01*
X107005142Y-76351174D01*
X107005142Y-76351174D01*
G37*
D11*
X106737500Y-77050000D03*
D10*
G36*
X108880142Y-76351174D02*
G01*
X108903803Y-76354684D01*
X108927007Y-76360496D01*
X108949529Y-76368554D01*
X108971153Y-76378782D01*
X108991670Y-76391079D01*
X109010883Y-76405329D01*
X109028607Y-76421393D01*
X109044671Y-76439117D01*
X109058921Y-76458330D01*
X109071218Y-76478847D01*
X109081446Y-76500471D01*
X109089504Y-76522993D01*
X109095316Y-76546197D01*
X109098826Y-76569858D01*
X109100000Y-76593750D01*
X109100000Y-77506250D01*
X109098826Y-77530142D01*
X109095316Y-77553803D01*
X109089504Y-77577007D01*
X109081446Y-77599529D01*
X109071218Y-77621153D01*
X109058921Y-77641670D01*
X109044671Y-77660883D01*
X109028607Y-77678607D01*
X109010883Y-77694671D01*
X108991670Y-77708921D01*
X108971153Y-77721218D01*
X108949529Y-77731446D01*
X108927007Y-77739504D01*
X108903803Y-77745316D01*
X108880142Y-77748826D01*
X108856250Y-77750000D01*
X108368750Y-77750000D01*
X108344858Y-77748826D01*
X108321197Y-77745316D01*
X108297993Y-77739504D01*
X108275471Y-77731446D01*
X108253847Y-77721218D01*
X108233330Y-77708921D01*
X108214117Y-77694671D01*
X108196393Y-77678607D01*
X108180329Y-77660883D01*
X108166079Y-77641670D01*
X108153782Y-77621153D01*
X108143554Y-77599529D01*
X108135496Y-77577007D01*
X108129684Y-77553803D01*
X108126174Y-77530142D01*
X108125000Y-77506250D01*
X108125000Y-76593750D01*
X108126174Y-76569858D01*
X108129684Y-76546197D01*
X108135496Y-76522993D01*
X108143554Y-76500471D01*
X108153782Y-76478847D01*
X108166079Y-76458330D01*
X108180329Y-76439117D01*
X108196393Y-76421393D01*
X108214117Y-76405329D01*
X108233330Y-76391079D01*
X108253847Y-76378782D01*
X108275471Y-76368554D01*
X108297993Y-76360496D01*
X108321197Y-76354684D01*
X108344858Y-76351174D01*
X108368750Y-76350000D01*
X108856250Y-76350000D01*
X108880142Y-76351174D01*
X108880142Y-76351174D01*
G37*
D11*
X108612500Y-77050000D03*
D10*
G36*
X122905142Y-91526174D02*
G01*
X122928803Y-91529684D01*
X122952007Y-91535496D01*
X122974529Y-91543554D01*
X122996153Y-91553782D01*
X123016670Y-91566079D01*
X123035883Y-91580329D01*
X123053607Y-91596393D01*
X123069671Y-91614117D01*
X123083921Y-91633330D01*
X123096218Y-91653847D01*
X123106446Y-91675471D01*
X123114504Y-91697993D01*
X123120316Y-91721197D01*
X123123826Y-91744858D01*
X123125000Y-91768750D01*
X123125000Y-92256250D01*
X123123826Y-92280142D01*
X123120316Y-92303803D01*
X123114504Y-92327007D01*
X123106446Y-92349529D01*
X123096218Y-92371153D01*
X123083921Y-92391670D01*
X123069671Y-92410883D01*
X123053607Y-92428607D01*
X123035883Y-92444671D01*
X123016670Y-92458921D01*
X122996153Y-92471218D01*
X122974529Y-92481446D01*
X122952007Y-92489504D01*
X122928803Y-92495316D01*
X122905142Y-92498826D01*
X122881250Y-92500000D01*
X121968750Y-92500000D01*
X121944858Y-92498826D01*
X121921197Y-92495316D01*
X121897993Y-92489504D01*
X121875471Y-92481446D01*
X121853847Y-92471218D01*
X121833330Y-92458921D01*
X121814117Y-92444671D01*
X121796393Y-92428607D01*
X121780329Y-92410883D01*
X121766079Y-92391670D01*
X121753782Y-92371153D01*
X121743554Y-92349529D01*
X121735496Y-92327007D01*
X121729684Y-92303803D01*
X121726174Y-92280142D01*
X121725000Y-92256250D01*
X121725000Y-91768750D01*
X121726174Y-91744858D01*
X121729684Y-91721197D01*
X121735496Y-91697993D01*
X121743554Y-91675471D01*
X121753782Y-91653847D01*
X121766079Y-91633330D01*
X121780329Y-91614117D01*
X121796393Y-91596393D01*
X121814117Y-91580329D01*
X121833330Y-91566079D01*
X121853847Y-91553782D01*
X121875471Y-91543554D01*
X121897993Y-91535496D01*
X121921197Y-91529684D01*
X121944858Y-91526174D01*
X121968750Y-91525000D01*
X122881250Y-91525000D01*
X122905142Y-91526174D01*
X122905142Y-91526174D01*
G37*
D11*
X122425000Y-92012500D03*
D10*
G36*
X122905142Y-89651174D02*
G01*
X122928803Y-89654684D01*
X122952007Y-89660496D01*
X122974529Y-89668554D01*
X122996153Y-89678782D01*
X123016670Y-89691079D01*
X123035883Y-89705329D01*
X123053607Y-89721393D01*
X123069671Y-89739117D01*
X123083921Y-89758330D01*
X123096218Y-89778847D01*
X123106446Y-89800471D01*
X123114504Y-89822993D01*
X123120316Y-89846197D01*
X123123826Y-89869858D01*
X123125000Y-89893750D01*
X123125000Y-90381250D01*
X123123826Y-90405142D01*
X123120316Y-90428803D01*
X123114504Y-90452007D01*
X123106446Y-90474529D01*
X123096218Y-90496153D01*
X123083921Y-90516670D01*
X123069671Y-90535883D01*
X123053607Y-90553607D01*
X123035883Y-90569671D01*
X123016670Y-90583921D01*
X122996153Y-90596218D01*
X122974529Y-90606446D01*
X122952007Y-90614504D01*
X122928803Y-90620316D01*
X122905142Y-90623826D01*
X122881250Y-90625000D01*
X121968750Y-90625000D01*
X121944858Y-90623826D01*
X121921197Y-90620316D01*
X121897993Y-90614504D01*
X121875471Y-90606446D01*
X121853847Y-90596218D01*
X121833330Y-90583921D01*
X121814117Y-90569671D01*
X121796393Y-90553607D01*
X121780329Y-90535883D01*
X121766079Y-90516670D01*
X121753782Y-90496153D01*
X121743554Y-90474529D01*
X121735496Y-90452007D01*
X121729684Y-90428803D01*
X121726174Y-90405142D01*
X121725000Y-90381250D01*
X121725000Y-89893750D01*
X121726174Y-89869858D01*
X121729684Y-89846197D01*
X121735496Y-89822993D01*
X121743554Y-89800471D01*
X121753782Y-89778847D01*
X121766079Y-89758330D01*
X121780329Y-89739117D01*
X121796393Y-89721393D01*
X121814117Y-89705329D01*
X121833330Y-89691079D01*
X121853847Y-89678782D01*
X121875471Y-89668554D01*
X121897993Y-89660496D01*
X121921197Y-89654684D01*
X121944858Y-89651174D01*
X121968750Y-89650000D01*
X122881250Y-89650000D01*
X122905142Y-89651174D01*
X122905142Y-89651174D01*
G37*
D11*
X122425000Y-90137500D03*
D16*
X121800000Y-67275000D03*
X118500000Y-67275000D03*
X121800000Y-69575000D03*
X118500000Y-69575000D03*
D10*
G36*
X63880142Y-81451174D02*
G01*
X63903803Y-81454684D01*
X63927007Y-81460496D01*
X63949529Y-81468554D01*
X63971153Y-81478782D01*
X63991670Y-81491079D01*
X64010883Y-81505329D01*
X64028607Y-81521393D01*
X64044671Y-81539117D01*
X64058921Y-81558330D01*
X64071218Y-81578847D01*
X64081446Y-81600471D01*
X64089504Y-81622993D01*
X64095316Y-81646197D01*
X64098826Y-81669858D01*
X64100000Y-81693750D01*
X64100000Y-82606250D01*
X64098826Y-82630142D01*
X64095316Y-82653803D01*
X64089504Y-82677007D01*
X64081446Y-82699529D01*
X64071218Y-82721153D01*
X64058921Y-82741670D01*
X64044671Y-82760883D01*
X64028607Y-82778607D01*
X64010883Y-82794671D01*
X63991670Y-82808921D01*
X63971153Y-82821218D01*
X63949529Y-82831446D01*
X63927007Y-82839504D01*
X63903803Y-82845316D01*
X63880142Y-82848826D01*
X63856250Y-82850000D01*
X63368750Y-82850000D01*
X63344858Y-82848826D01*
X63321197Y-82845316D01*
X63297993Y-82839504D01*
X63275471Y-82831446D01*
X63253847Y-82821218D01*
X63233330Y-82808921D01*
X63214117Y-82794671D01*
X63196393Y-82778607D01*
X63180329Y-82760883D01*
X63166079Y-82741670D01*
X63153782Y-82721153D01*
X63143554Y-82699529D01*
X63135496Y-82677007D01*
X63129684Y-82653803D01*
X63126174Y-82630142D01*
X63125000Y-82606250D01*
X63125000Y-81693750D01*
X63126174Y-81669858D01*
X63129684Y-81646197D01*
X63135496Y-81622993D01*
X63143554Y-81600471D01*
X63153782Y-81578847D01*
X63166079Y-81558330D01*
X63180329Y-81539117D01*
X63196393Y-81521393D01*
X63214117Y-81505329D01*
X63233330Y-81491079D01*
X63253847Y-81478782D01*
X63275471Y-81468554D01*
X63297993Y-81460496D01*
X63321197Y-81454684D01*
X63344858Y-81451174D01*
X63368750Y-81450000D01*
X63856250Y-81450000D01*
X63880142Y-81451174D01*
X63880142Y-81451174D01*
G37*
D11*
X63612500Y-82150000D03*
D10*
G36*
X62005142Y-81451174D02*
G01*
X62028803Y-81454684D01*
X62052007Y-81460496D01*
X62074529Y-81468554D01*
X62096153Y-81478782D01*
X62116670Y-81491079D01*
X62135883Y-81505329D01*
X62153607Y-81521393D01*
X62169671Y-81539117D01*
X62183921Y-81558330D01*
X62196218Y-81578847D01*
X62206446Y-81600471D01*
X62214504Y-81622993D01*
X62220316Y-81646197D01*
X62223826Y-81669858D01*
X62225000Y-81693750D01*
X62225000Y-82606250D01*
X62223826Y-82630142D01*
X62220316Y-82653803D01*
X62214504Y-82677007D01*
X62206446Y-82699529D01*
X62196218Y-82721153D01*
X62183921Y-82741670D01*
X62169671Y-82760883D01*
X62153607Y-82778607D01*
X62135883Y-82794671D01*
X62116670Y-82808921D01*
X62096153Y-82821218D01*
X62074529Y-82831446D01*
X62052007Y-82839504D01*
X62028803Y-82845316D01*
X62005142Y-82848826D01*
X61981250Y-82850000D01*
X61493750Y-82850000D01*
X61469858Y-82848826D01*
X61446197Y-82845316D01*
X61422993Y-82839504D01*
X61400471Y-82831446D01*
X61378847Y-82821218D01*
X61358330Y-82808921D01*
X61339117Y-82794671D01*
X61321393Y-82778607D01*
X61305329Y-82760883D01*
X61291079Y-82741670D01*
X61278782Y-82721153D01*
X61268554Y-82699529D01*
X61260496Y-82677007D01*
X61254684Y-82653803D01*
X61251174Y-82630142D01*
X61250000Y-82606250D01*
X61250000Y-81693750D01*
X61251174Y-81669858D01*
X61254684Y-81646197D01*
X61260496Y-81622993D01*
X61268554Y-81600471D01*
X61278782Y-81578847D01*
X61291079Y-81558330D01*
X61305329Y-81539117D01*
X61321393Y-81521393D01*
X61339117Y-81505329D01*
X61358330Y-81491079D01*
X61378847Y-81478782D01*
X61400471Y-81468554D01*
X61422993Y-81460496D01*
X61446197Y-81454684D01*
X61469858Y-81451174D01*
X61493750Y-81450000D01*
X61981250Y-81450000D01*
X62005142Y-81451174D01*
X62005142Y-81451174D01*
G37*
D11*
X61737500Y-82150000D03*
D10*
G36*
X79655142Y-81301174D02*
G01*
X79678803Y-81304684D01*
X79702007Y-81310496D01*
X79724529Y-81318554D01*
X79746153Y-81328782D01*
X79766670Y-81341079D01*
X79785883Y-81355329D01*
X79803607Y-81371393D01*
X79819671Y-81389117D01*
X79833921Y-81408330D01*
X79846218Y-81428847D01*
X79856446Y-81450471D01*
X79864504Y-81472993D01*
X79870316Y-81496197D01*
X79873826Y-81519858D01*
X79875000Y-81543750D01*
X79875000Y-82456250D01*
X79873826Y-82480142D01*
X79870316Y-82503803D01*
X79864504Y-82527007D01*
X79856446Y-82549529D01*
X79846218Y-82571153D01*
X79833921Y-82591670D01*
X79819671Y-82610883D01*
X79803607Y-82628607D01*
X79785883Y-82644671D01*
X79766670Y-82658921D01*
X79746153Y-82671218D01*
X79724529Y-82681446D01*
X79702007Y-82689504D01*
X79678803Y-82695316D01*
X79655142Y-82698826D01*
X79631250Y-82700000D01*
X79143750Y-82700000D01*
X79119858Y-82698826D01*
X79096197Y-82695316D01*
X79072993Y-82689504D01*
X79050471Y-82681446D01*
X79028847Y-82671218D01*
X79008330Y-82658921D01*
X78989117Y-82644671D01*
X78971393Y-82628607D01*
X78955329Y-82610883D01*
X78941079Y-82591670D01*
X78928782Y-82571153D01*
X78918554Y-82549529D01*
X78910496Y-82527007D01*
X78904684Y-82503803D01*
X78901174Y-82480142D01*
X78900000Y-82456250D01*
X78900000Y-81543750D01*
X78901174Y-81519858D01*
X78904684Y-81496197D01*
X78910496Y-81472993D01*
X78918554Y-81450471D01*
X78928782Y-81428847D01*
X78941079Y-81408330D01*
X78955329Y-81389117D01*
X78971393Y-81371393D01*
X78989117Y-81355329D01*
X79008330Y-81341079D01*
X79028847Y-81328782D01*
X79050471Y-81318554D01*
X79072993Y-81310496D01*
X79096197Y-81304684D01*
X79119858Y-81301174D01*
X79143750Y-81300000D01*
X79631250Y-81300000D01*
X79655142Y-81301174D01*
X79655142Y-81301174D01*
G37*
D11*
X79387500Y-82000000D03*
D10*
G36*
X81530142Y-81301174D02*
G01*
X81553803Y-81304684D01*
X81577007Y-81310496D01*
X81599529Y-81318554D01*
X81621153Y-81328782D01*
X81641670Y-81341079D01*
X81660883Y-81355329D01*
X81678607Y-81371393D01*
X81694671Y-81389117D01*
X81708921Y-81408330D01*
X81721218Y-81428847D01*
X81731446Y-81450471D01*
X81739504Y-81472993D01*
X81745316Y-81496197D01*
X81748826Y-81519858D01*
X81750000Y-81543750D01*
X81750000Y-82456250D01*
X81748826Y-82480142D01*
X81745316Y-82503803D01*
X81739504Y-82527007D01*
X81731446Y-82549529D01*
X81721218Y-82571153D01*
X81708921Y-82591670D01*
X81694671Y-82610883D01*
X81678607Y-82628607D01*
X81660883Y-82644671D01*
X81641670Y-82658921D01*
X81621153Y-82671218D01*
X81599529Y-82681446D01*
X81577007Y-82689504D01*
X81553803Y-82695316D01*
X81530142Y-82698826D01*
X81506250Y-82700000D01*
X81018750Y-82700000D01*
X80994858Y-82698826D01*
X80971197Y-82695316D01*
X80947993Y-82689504D01*
X80925471Y-82681446D01*
X80903847Y-82671218D01*
X80883330Y-82658921D01*
X80864117Y-82644671D01*
X80846393Y-82628607D01*
X80830329Y-82610883D01*
X80816079Y-82591670D01*
X80803782Y-82571153D01*
X80793554Y-82549529D01*
X80785496Y-82527007D01*
X80779684Y-82503803D01*
X80776174Y-82480142D01*
X80775000Y-82456250D01*
X80775000Y-81543750D01*
X80776174Y-81519858D01*
X80779684Y-81496197D01*
X80785496Y-81472993D01*
X80793554Y-81450471D01*
X80803782Y-81428847D01*
X80816079Y-81408330D01*
X80830329Y-81389117D01*
X80846393Y-81371393D01*
X80864117Y-81355329D01*
X80883330Y-81341079D01*
X80903847Y-81328782D01*
X80925471Y-81318554D01*
X80947993Y-81310496D01*
X80971197Y-81304684D01*
X80994858Y-81301174D01*
X81018750Y-81300000D01*
X81506250Y-81300000D01*
X81530142Y-81301174D01*
X81530142Y-81301174D01*
G37*
D11*
X81262500Y-82000000D03*
D15*
X58668000Y-72500000D03*
X58668000Y-73500000D03*
X58668000Y-74500000D03*
X58668000Y-75500000D03*
X58668000Y-76500000D03*
X58668000Y-77500000D03*
X58668000Y-78500000D03*
X58668000Y-79500000D03*
X58668000Y-80500000D03*
X58668000Y-81500000D03*
X58668000Y-82500000D03*
D14*
X56318000Y-69350000D03*
X56318000Y-85650000D03*
D10*
G36*
X74512342Y-84549174D02*
G01*
X74536003Y-84552684D01*
X74559207Y-84558496D01*
X74581729Y-84566554D01*
X74603353Y-84576782D01*
X74623870Y-84589079D01*
X74643083Y-84603329D01*
X74660807Y-84619393D01*
X74676871Y-84637117D01*
X74691121Y-84656330D01*
X74703418Y-84676847D01*
X74713646Y-84698471D01*
X74721704Y-84720993D01*
X74727516Y-84744197D01*
X74731026Y-84767858D01*
X74732200Y-84791750D01*
X74732200Y-85279250D01*
X74731026Y-85303142D01*
X74727516Y-85326803D01*
X74721704Y-85350007D01*
X74713646Y-85372529D01*
X74703418Y-85394153D01*
X74691121Y-85414670D01*
X74676871Y-85433883D01*
X74660807Y-85451607D01*
X74643083Y-85467671D01*
X74623870Y-85481921D01*
X74603353Y-85494218D01*
X74581729Y-85504446D01*
X74559207Y-85512504D01*
X74536003Y-85518316D01*
X74512342Y-85521826D01*
X74488450Y-85523000D01*
X73575950Y-85523000D01*
X73552058Y-85521826D01*
X73528397Y-85518316D01*
X73505193Y-85512504D01*
X73482671Y-85504446D01*
X73461047Y-85494218D01*
X73440530Y-85481921D01*
X73421317Y-85467671D01*
X73403593Y-85451607D01*
X73387529Y-85433883D01*
X73373279Y-85414670D01*
X73360982Y-85394153D01*
X73350754Y-85372529D01*
X73342696Y-85350007D01*
X73336884Y-85326803D01*
X73333374Y-85303142D01*
X73332200Y-85279250D01*
X73332200Y-84791750D01*
X73333374Y-84767858D01*
X73336884Y-84744197D01*
X73342696Y-84720993D01*
X73350754Y-84698471D01*
X73360982Y-84676847D01*
X73373279Y-84656330D01*
X73387529Y-84637117D01*
X73403593Y-84619393D01*
X73421317Y-84603329D01*
X73440530Y-84589079D01*
X73461047Y-84576782D01*
X73482671Y-84566554D01*
X73505193Y-84558496D01*
X73528397Y-84552684D01*
X73552058Y-84549174D01*
X73575950Y-84548000D01*
X74488450Y-84548000D01*
X74512342Y-84549174D01*
X74512342Y-84549174D01*
G37*
D11*
X74032200Y-85035500D03*
D10*
G36*
X74512342Y-86424174D02*
G01*
X74536003Y-86427684D01*
X74559207Y-86433496D01*
X74581729Y-86441554D01*
X74603353Y-86451782D01*
X74623870Y-86464079D01*
X74643083Y-86478329D01*
X74660807Y-86494393D01*
X74676871Y-86512117D01*
X74691121Y-86531330D01*
X74703418Y-86551847D01*
X74713646Y-86573471D01*
X74721704Y-86595993D01*
X74727516Y-86619197D01*
X74731026Y-86642858D01*
X74732200Y-86666750D01*
X74732200Y-87154250D01*
X74731026Y-87178142D01*
X74727516Y-87201803D01*
X74721704Y-87225007D01*
X74713646Y-87247529D01*
X74703418Y-87269153D01*
X74691121Y-87289670D01*
X74676871Y-87308883D01*
X74660807Y-87326607D01*
X74643083Y-87342671D01*
X74623870Y-87356921D01*
X74603353Y-87369218D01*
X74581729Y-87379446D01*
X74559207Y-87387504D01*
X74536003Y-87393316D01*
X74512342Y-87396826D01*
X74488450Y-87398000D01*
X73575950Y-87398000D01*
X73552058Y-87396826D01*
X73528397Y-87393316D01*
X73505193Y-87387504D01*
X73482671Y-87379446D01*
X73461047Y-87369218D01*
X73440530Y-87356921D01*
X73421317Y-87342671D01*
X73403593Y-87326607D01*
X73387529Y-87308883D01*
X73373279Y-87289670D01*
X73360982Y-87269153D01*
X73350754Y-87247529D01*
X73342696Y-87225007D01*
X73336884Y-87201803D01*
X73333374Y-87178142D01*
X73332200Y-87154250D01*
X73332200Y-86666750D01*
X73333374Y-86642858D01*
X73336884Y-86619197D01*
X73342696Y-86595993D01*
X73350754Y-86573471D01*
X73360982Y-86551847D01*
X73373279Y-86531330D01*
X73387529Y-86512117D01*
X73403593Y-86494393D01*
X73421317Y-86478329D01*
X73440530Y-86464079D01*
X73461047Y-86451782D01*
X73482671Y-86441554D01*
X73505193Y-86433496D01*
X73528397Y-86427684D01*
X73552058Y-86424174D01*
X73575950Y-86423000D01*
X74488450Y-86423000D01*
X74512342Y-86424174D01*
X74512342Y-86424174D01*
G37*
D11*
X74032200Y-86910500D03*
D10*
G36*
X79655142Y-79151174D02*
G01*
X79678803Y-79154684D01*
X79702007Y-79160496D01*
X79724529Y-79168554D01*
X79746153Y-79178782D01*
X79766670Y-79191079D01*
X79785883Y-79205329D01*
X79803607Y-79221393D01*
X79819671Y-79239117D01*
X79833921Y-79258330D01*
X79846218Y-79278847D01*
X79856446Y-79300471D01*
X79864504Y-79322993D01*
X79870316Y-79346197D01*
X79873826Y-79369858D01*
X79875000Y-79393750D01*
X79875000Y-80306250D01*
X79873826Y-80330142D01*
X79870316Y-80353803D01*
X79864504Y-80377007D01*
X79856446Y-80399529D01*
X79846218Y-80421153D01*
X79833921Y-80441670D01*
X79819671Y-80460883D01*
X79803607Y-80478607D01*
X79785883Y-80494671D01*
X79766670Y-80508921D01*
X79746153Y-80521218D01*
X79724529Y-80531446D01*
X79702007Y-80539504D01*
X79678803Y-80545316D01*
X79655142Y-80548826D01*
X79631250Y-80550000D01*
X79143750Y-80550000D01*
X79119858Y-80548826D01*
X79096197Y-80545316D01*
X79072993Y-80539504D01*
X79050471Y-80531446D01*
X79028847Y-80521218D01*
X79008330Y-80508921D01*
X78989117Y-80494671D01*
X78971393Y-80478607D01*
X78955329Y-80460883D01*
X78941079Y-80441670D01*
X78928782Y-80421153D01*
X78918554Y-80399529D01*
X78910496Y-80377007D01*
X78904684Y-80353803D01*
X78901174Y-80330142D01*
X78900000Y-80306250D01*
X78900000Y-79393750D01*
X78901174Y-79369858D01*
X78904684Y-79346197D01*
X78910496Y-79322993D01*
X78918554Y-79300471D01*
X78928782Y-79278847D01*
X78941079Y-79258330D01*
X78955329Y-79239117D01*
X78971393Y-79221393D01*
X78989117Y-79205329D01*
X79008330Y-79191079D01*
X79028847Y-79178782D01*
X79050471Y-79168554D01*
X79072993Y-79160496D01*
X79096197Y-79154684D01*
X79119858Y-79151174D01*
X79143750Y-79150000D01*
X79631250Y-79150000D01*
X79655142Y-79151174D01*
X79655142Y-79151174D01*
G37*
D11*
X79387500Y-79850000D03*
D10*
G36*
X81530142Y-79151174D02*
G01*
X81553803Y-79154684D01*
X81577007Y-79160496D01*
X81599529Y-79168554D01*
X81621153Y-79178782D01*
X81641670Y-79191079D01*
X81660883Y-79205329D01*
X81678607Y-79221393D01*
X81694671Y-79239117D01*
X81708921Y-79258330D01*
X81721218Y-79278847D01*
X81731446Y-79300471D01*
X81739504Y-79322993D01*
X81745316Y-79346197D01*
X81748826Y-79369858D01*
X81750000Y-79393750D01*
X81750000Y-80306250D01*
X81748826Y-80330142D01*
X81745316Y-80353803D01*
X81739504Y-80377007D01*
X81731446Y-80399529D01*
X81721218Y-80421153D01*
X81708921Y-80441670D01*
X81694671Y-80460883D01*
X81678607Y-80478607D01*
X81660883Y-80494671D01*
X81641670Y-80508921D01*
X81621153Y-80521218D01*
X81599529Y-80531446D01*
X81577007Y-80539504D01*
X81553803Y-80545316D01*
X81530142Y-80548826D01*
X81506250Y-80550000D01*
X81018750Y-80550000D01*
X80994858Y-80548826D01*
X80971197Y-80545316D01*
X80947993Y-80539504D01*
X80925471Y-80531446D01*
X80903847Y-80521218D01*
X80883330Y-80508921D01*
X80864117Y-80494671D01*
X80846393Y-80478607D01*
X80830329Y-80460883D01*
X80816079Y-80441670D01*
X80803782Y-80421153D01*
X80793554Y-80399529D01*
X80785496Y-80377007D01*
X80779684Y-80353803D01*
X80776174Y-80330142D01*
X80775000Y-80306250D01*
X80775000Y-79393750D01*
X80776174Y-79369858D01*
X80779684Y-79346197D01*
X80785496Y-79322993D01*
X80793554Y-79300471D01*
X80803782Y-79278847D01*
X80816079Y-79258330D01*
X80830329Y-79239117D01*
X80846393Y-79221393D01*
X80864117Y-79205329D01*
X80883330Y-79191079D01*
X80903847Y-79178782D01*
X80925471Y-79168554D01*
X80947993Y-79160496D01*
X80971197Y-79154684D01*
X80994858Y-79151174D01*
X81018750Y-79150000D01*
X81506250Y-79150000D01*
X81530142Y-79151174D01*
X81530142Y-79151174D01*
G37*
D11*
X81262500Y-79850000D03*
D10*
G36*
X69871542Y-62509974D02*
G01*
X69895203Y-62513484D01*
X69918407Y-62519296D01*
X69940929Y-62527354D01*
X69962553Y-62537582D01*
X69983070Y-62549879D01*
X70002283Y-62564129D01*
X70020007Y-62580193D01*
X70036071Y-62597917D01*
X70050321Y-62617130D01*
X70062618Y-62637647D01*
X70072846Y-62659271D01*
X70080904Y-62681793D01*
X70086716Y-62704997D01*
X70090226Y-62728658D01*
X70091400Y-62752550D01*
X70091400Y-63240050D01*
X70090226Y-63263942D01*
X70086716Y-63287603D01*
X70080904Y-63310807D01*
X70072846Y-63333329D01*
X70062618Y-63354953D01*
X70050321Y-63375470D01*
X70036071Y-63394683D01*
X70020007Y-63412407D01*
X70002283Y-63428471D01*
X69983070Y-63442721D01*
X69962553Y-63455018D01*
X69940929Y-63465246D01*
X69918407Y-63473304D01*
X69895203Y-63479116D01*
X69871542Y-63482626D01*
X69847650Y-63483800D01*
X68935150Y-63483800D01*
X68911258Y-63482626D01*
X68887597Y-63479116D01*
X68864393Y-63473304D01*
X68841871Y-63465246D01*
X68820247Y-63455018D01*
X68799730Y-63442721D01*
X68780517Y-63428471D01*
X68762793Y-63412407D01*
X68746729Y-63394683D01*
X68732479Y-63375470D01*
X68720182Y-63354953D01*
X68709954Y-63333329D01*
X68701896Y-63310807D01*
X68696084Y-63287603D01*
X68692574Y-63263942D01*
X68691400Y-63240050D01*
X68691400Y-62752550D01*
X68692574Y-62728658D01*
X68696084Y-62704997D01*
X68701896Y-62681793D01*
X68709954Y-62659271D01*
X68720182Y-62637647D01*
X68732479Y-62617130D01*
X68746729Y-62597917D01*
X68762793Y-62580193D01*
X68780517Y-62564129D01*
X68799730Y-62549879D01*
X68820247Y-62537582D01*
X68841871Y-62527354D01*
X68864393Y-62519296D01*
X68887597Y-62513484D01*
X68911258Y-62509974D01*
X68935150Y-62508800D01*
X69847650Y-62508800D01*
X69871542Y-62509974D01*
X69871542Y-62509974D01*
G37*
D11*
X69391400Y-62996300D03*
D10*
G36*
X69871542Y-64384974D02*
G01*
X69895203Y-64388484D01*
X69918407Y-64394296D01*
X69940929Y-64402354D01*
X69962553Y-64412582D01*
X69983070Y-64424879D01*
X70002283Y-64439129D01*
X70020007Y-64455193D01*
X70036071Y-64472917D01*
X70050321Y-64492130D01*
X70062618Y-64512647D01*
X70072846Y-64534271D01*
X70080904Y-64556793D01*
X70086716Y-64579997D01*
X70090226Y-64603658D01*
X70091400Y-64627550D01*
X70091400Y-65115050D01*
X70090226Y-65138942D01*
X70086716Y-65162603D01*
X70080904Y-65185807D01*
X70072846Y-65208329D01*
X70062618Y-65229953D01*
X70050321Y-65250470D01*
X70036071Y-65269683D01*
X70020007Y-65287407D01*
X70002283Y-65303471D01*
X69983070Y-65317721D01*
X69962553Y-65330018D01*
X69940929Y-65340246D01*
X69918407Y-65348304D01*
X69895203Y-65354116D01*
X69871542Y-65357626D01*
X69847650Y-65358800D01*
X68935150Y-65358800D01*
X68911258Y-65357626D01*
X68887597Y-65354116D01*
X68864393Y-65348304D01*
X68841871Y-65340246D01*
X68820247Y-65330018D01*
X68799730Y-65317721D01*
X68780517Y-65303471D01*
X68762793Y-65287407D01*
X68746729Y-65269683D01*
X68732479Y-65250470D01*
X68720182Y-65229953D01*
X68709954Y-65208329D01*
X68701896Y-65185807D01*
X68696084Y-65162603D01*
X68692574Y-65138942D01*
X68691400Y-65115050D01*
X68691400Y-64627550D01*
X68692574Y-64603658D01*
X68696084Y-64579997D01*
X68701896Y-64556793D01*
X68709954Y-64534271D01*
X68720182Y-64512647D01*
X68732479Y-64492130D01*
X68746729Y-64472917D01*
X68762793Y-64455193D01*
X68780517Y-64439129D01*
X68799730Y-64424879D01*
X68820247Y-64412582D01*
X68841871Y-64402354D01*
X68864393Y-64394296D01*
X68887597Y-64388484D01*
X68911258Y-64384974D01*
X68935150Y-64383800D01*
X69847650Y-64383800D01*
X69871542Y-64384974D01*
X69871542Y-64384974D01*
G37*
D11*
X69391400Y-64871300D03*
D10*
G36*
X75605142Y-62501174D02*
G01*
X75628803Y-62504684D01*
X75652007Y-62510496D01*
X75674529Y-62518554D01*
X75696153Y-62528782D01*
X75716670Y-62541079D01*
X75735883Y-62555329D01*
X75753607Y-62571393D01*
X75769671Y-62589117D01*
X75783921Y-62608330D01*
X75796218Y-62628847D01*
X75806446Y-62650471D01*
X75814504Y-62672993D01*
X75820316Y-62696197D01*
X75823826Y-62719858D01*
X75825000Y-62743750D01*
X75825000Y-63231250D01*
X75823826Y-63255142D01*
X75820316Y-63278803D01*
X75814504Y-63302007D01*
X75806446Y-63324529D01*
X75796218Y-63346153D01*
X75783921Y-63366670D01*
X75769671Y-63385883D01*
X75753607Y-63403607D01*
X75735883Y-63419671D01*
X75716670Y-63433921D01*
X75696153Y-63446218D01*
X75674529Y-63456446D01*
X75652007Y-63464504D01*
X75628803Y-63470316D01*
X75605142Y-63473826D01*
X75581250Y-63475000D01*
X74668750Y-63475000D01*
X74644858Y-63473826D01*
X74621197Y-63470316D01*
X74597993Y-63464504D01*
X74575471Y-63456446D01*
X74553847Y-63446218D01*
X74533330Y-63433921D01*
X74514117Y-63419671D01*
X74496393Y-63403607D01*
X74480329Y-63385883D01*
X74466079Y-63366670D01*
X74453782Y-63346153D01*
X74443554Y-63324529D01*
X74435496Y-63302007D01*
X74429684Y-63278803D01*
X74426174Y-63255142D01*
X74425000Y-63231250D01*
X74425000Y-62743750D01*
X74426174Y-62719858D01*
X74429684Y-62696197D01*
X74435496Y-62672993D01*
X74443554Y-62650471D01*
X74453782Y-62628847D01*
X74466079Y-62608330D01*
X74480329Y-62589117D01*
X74496393Y-62571393D01*
X74514117Y-62555329D01*
X74533330Y-62541079D01*
X74553847Y-62528782D01*
X74575471Y-62518554D01*
X74597993Y-62510496D01*
X74621197Y-62504684D01*
X74644858Y-62501174D01*
X74668750Y-62500000D01*
X75581250Y-62500000D01*
X75605142Y-62501174D01*
X75605142Y-62501174D01*
G37*
D11*
X75125000Y-62987500D03*
D10*
G36*
X75605142Y-64376174D02*
G01*
X75628803Y-64379684D01*
X75652007Y-64385496D01*
X75674529Y-64393554D01*
X75696153Y-64403782D01*
X75716670Y-64416079D01*
X75735883Y-64430329D01*
X75753607Y-64446393D01*
X75769671Y-64464117D01*
X75783921Y-64483330D01*
X75796218Y-64503847D01*
X75806446Y-64525471D01*
X75814504Y-64547993D01*
X75820316Y-64571197D01*
X75823826Y-64594858D01*
X75825000Y-64618750D01*
X75825000Y-65106250D01*
X75823826Y-65130142D01*
X75820316Y-65153803D01*
X75814504Y-65177007D01*
X75806446Y-65199529D01*
X75796218Y-65221153D01*
X75783921Y-65241670D01*
X75769671Y-65260883D01*
X75753607Y-65278607D01*
X75735883Y-65294671D01*
X75716670Y-65308921D01*
X75696153Y-65321218D01*
X75674529Y-65331446D01*
X75652007Y-65339504D01*
X75628803Y-65345316D01*
X75605142Y-65348826D01*
X75581250Y-65350000D01*
X74668750Y-65350000D01*
X74644858Y-65348826D01*
X74621197Y-65345316D01*
X74597993Y-65339504D01*
X74575471Y-65331446D01*
X74553847Y-65321218D01*
X74533330Y-65308921D01*
X74514117Y-65294671D01*
X74496393Y-65278607D01*
X74480329Y-65260883D01*
X74466079Y-65241670D01*
X74453782Y-65221153D01*
X74443554Y-65199529D01*
X74435496Y-65177007D01*
X74429684Y-65153803D01*
X74426174Y-65130142D01*
X74425000Y-65106250D01*
X74425000Y-64618750D01*
X74426174Y-64594858D01*
X74429684Y-64571197D01*
X74435496Y-64547993D01*
X74443554Y-64525471D01*
X74453782Y-64503847D01*
X74466079Y-64483330D01*
X74480329Y-64464117D01*
X74496393Y-64446393D01*
X74514117Y-64430329D01*
X74533330Y-64416079D01*
X74553847Y-64403782D01*
X74575471Y-64393554D01*
X74597993Y-64385496D01*
X74621197Y-64379684D01*
X74644858Y-64376174D01*
X74668750Y-64375000D01*
X75581250Y-64375000D01*
X75605142Y-64376174D01*
X75605142Y-64376174D01*
G37*
D11*
X75125000Y-64862500D03*
D10*
G36*
X81516742Y-69645974D02*
G01*
X81540403Y-69649484D01*
X81563607Y-69655296D01*
X81586129Y-69663354D01*
X81607753Y-69673582D01*
X81628270Y-69685879D01*
X81647483Y-69700129D01*
X81665207Y-69716193D01*
X81681271Y-69733917D01*
X81695521Y-69753130D01*
X81707818Y-69773647D01*
X81718046Y-69795271D01*
X81726104Y-69817793D01*
X81731916Y-69840997D01*
X81735426Y-69864658D01*
X81736600Y-69888550D01*
X81736600Y-70801050D01*
X81735426Y-70824942D01*
X81731916Y-70848603D01*
X81726104Y-70871807D01*
X81718046Y-70894329D01*
X81707818Y-70915953D01*
X81695521Y-70936470D01*
X81681271Y-70955683D01*
X81665207Y-70973407D01*
X81647483Y-70989471D01*
X81628270Y-71003721D01*
X81607753Y-71016018D01*
X81586129Y-71026246D01*
X81563607Y-71034304D01*
X81540403Y-71040116D01*
X81516742Y-71043626D01*
X81492850Y-71044800D01*
X81005350Y-71044800D01*
X80981458Y-71043626D01*
X80957797Y-71040116D01*
X80934593Y-71034304D01*
X80912071Y-71026246D01*
X80890447Y-71016018D01*
X80869930Y-71003721D01*
X80850717Y-70989471D01*
X80832993Y-70973407D01*
X80816929Y-70955683D01*
X80802679Y-70936470D01*
X80790382Y-70915953D01*
X80780154Y-70894329D01*
X80772096Y-70871807D01*
X80766284Y-70848603D01*
X80762774Y-70824942D01*
X80761600Y-70801050D01*
X80761600Y-69888550D01*
X80762774Y-69864658D01*
X80766284Y-69840997D01*
X80772096Y-69817793D01*
X80780154Y-69795271D01*
X80790382Y-69773647D01*
X80802679Y-69753130D01*
X80816929Y-69733917D01*
X80832993Y-69716193D01*
X80850717Y-69700129D01*
X80869930Y-69685879D01*
X80890447Y-69673582D01*
X80912071Y-69663354D01*
X80934593Y-69655296D01*
X80957797Y-69649484D01*
X80981458Y-69645974D01*
X81005350Y-69644800D01*
X81492850Y-69644800D01*
X81516742Y-69645974D01*
X81516742Y-69645974D01*
G37*
D11*
X81249100Y-70344800D03*
D10*
G36*
X79641742Y-69645974D02*
G01*
X79665403Y-69649484D01*
X79688607Y-69655296D01*
X79711129Y-69663354D01*
X79732753Y-69673582D01*
X79753270Y-69685879D01*
X79772483Y-69700129D01*
X79790207Y-69716193D01*
X79806271Y-69733917D01*
X79820521Y-69753130D01*
X79832818Y-69773647D01*
X79843046Y-69795271D01*
X79851104Y-69817793D01*
X79856916Y-69840997D01*
X79860426Y-69864658D01*
X79861600Y-69888550D01*
X79861600Y-70801050D01*
X79860426Y-70824942D01*
X79856916Y-70848603D01*
X79851104Y-70871807D01*
X79843046Y-70894329D01*
X79832818Y-70915953D01*
X79820521Y-70936470D01*
X79806271Y-70955683D01*
X79790207Y-70973407D01*
X79772483Y-70989471D01*
X79753270Y-71003721D01*
X79732753Y-71016018D01*
X79711129Y-71026246D01*
X79688607Y-71034304D01*
X79665403Y-71040116D01*
X79641742Y-71043626D01*
X79617850Y-71044800D01*
X79130350Y-71044800D01*
X79106458Y-71043626D01*
X79082797Y-71040116D01*
X79059593Y-71034304D01*
X79037071Y-71026246D01*
X79015447Y-71016018D01*
X78994930Y-71003721D01*
X78975717Y-70989471D01*
X78957993Y-70973407D01*
X78941929Y-70955683D01*
X78927679Y-70936470D01*
X78915382Y-70915953D01*
X78905154Y-70894329D01*
X78897096Y-70871807D01*
X78891284Y-70848603D01*
X78887774Y-70824942D01*
X78886600Y-70801050D01*
X78886600Y-69888550D01*
X78887774Y-69864658D01*
X78891284Y-69840997D01*
X78897096Y-69817793D01*
X78905154Y-69795271D01*
X78915382Y-69773647D01*
X78927679Y-69753130D01*
X78941929Y-69733917D01*
X78957993Y-69716193D01*
X78975717Y-69700129D01*
X78994930Y-69685879D01*
X79015447Y-69673582D01*
X79037071Y-69663354D01*
X79059593Y-69655296D01*
X79082797Y-69649484D01*
X79106458Y-69645974D01*
X79130350Y-69644800D01*
X79617850Y-69644800D01*
X79641742Y-69645974D01*
X79641742Y-69645974D01*
G37*
D11*
X79374100Y-70344800D03*
D10*
G36*
X66055142Y-64376174D02*
G01*
X66078803Y-64379684D01*
X66102007Y-64385496D01*
X66124529Y-64393554D01*
X66146153Y-64403782D01*
X66166670Y-64416079D01*
X66185883Y-64430329D01*
X66203607Y-64446393D01*
X66219671Y-64464117D01*
X66233921Y-64483330D01*
X66246218Y-64503847D01*
X66256446Y-64525471D01*
X66264504Y-64547993D01*
X66270316Y-64571197D01*
X66273826Y-64594858D01*
X66275000Y-64618750D01*
X66275000Y-65106250D01*
X66273826Y-65130142D01*
X66270316Y-65153803D01*
X66264504Y-65177007D01*
X66256446Y-65199529D01*
X66246218Y-65221153D01*
X66233921Y-65241670D01*
X66219671Y-65260883D01*
X66203607Y-65278607D01*
X66185883Y-65294671D01*
X66166670Y-65308921D01*
X66146153Y-65321218D01*
X66124529Y-65331446D01*
X66102007Y-65339504D01*
X66078803Y-65345316D01*
X66055142Y-65348826D01*
X66031250Y-65350000D01*
X65118750Y-65350000D01*
X65094858Y-65348826D01*
X65071197Y-65345316D01*
X65047993Y-65339504D01*
X65025471Y-65331446D01*
X65003847Y-65321218D01*
X64983330Y-65308921D01*
X64964117Y-65294671D01*
X64946393Y-65278607D01*
X64930329Y-65260883D01*
X64916079Y-65241670D01*
X64903782Y-65221153D01*
X64893554Y-65199529D01*
X64885496Y-65177007D01*
X64879684Y-65153803D01*
X64876174Y-65130142D01*
X64875000Y-65106250D01*
X64875000Y-64618750D01*
X64876174Y-64594858D01*
X64879684Y-64571197D01*
X64885496Y-64547993D01*
X64893554Y-64525471D01*
X64903782Y-64503847D01*
X64916079Y-64483330D01*
X64930329Y-64464117D01*
X64946393Y-64446393D01*
X64964117Y-64430329D01*
X64983330Y-64416079D01*
X65003847Y-64403782D01*
X65025471Y-64393554D01*
X65047993Y-64385496D01*
X65071197Y-64379684D01*
X65094858Y-64376174D01*
X65118750Y-64375000D01*
X66031250Y-64375000D01*
X66055142Y-64376174D01*
X66055142Y-64376174D01*
G37*
D11*
X65575000Y-64862500D03*
D10*
G36*
X66055142Y-62501174D02*
G01*
X66078803Y-62504684D01*
X66102007Y-62510496D01*
X66124529Y-62518554D01*
X66146153Y-62528782D01*
X66166670Y-62541079D01*
X66185883Y-62555329D01*
X66203607Y-62571393D01*
X66219671Y-62589117D01*
X66233921Y-62608330D01*
X66246218Y-62628847D01*
X66256446Y-62650471D01*
X66264504Y-62672993D01*
X66270316Y-62696197D01*
X66273826Y-62719858D01*
X66275000Y-62743750D01*
X66275000Y-63231250D01*
X66273826Y-63255142D01*
X66270316Y-63278803D01*
X66264504Y-63302007D01*
X66256446Y-63324529D01*
X66246218Y-63346153D01*
X66233921Y-63366670D01*
X66219671Y-63385883D01*
X66203607Y-63403607D01*
X66185883Y-63419671D01*
X66166670Y-63433921D01*
X66146153Y-63446218D01*
X66124529Y-63456446D01*
X66102007Y-63464504D01*
X66078803Y-63470316D01*
X66055142Y-63473826D01*
X66031250Y-63475000D01*
X65118750Y-63475000D01*
X65094858Y-63473826D01*
X65071197Y-63470316D01*
X65047993Y-63464504D01*
X65025471Y-63456446D01*
X65003847Y-63446218D01*
X64983330Y-63433921D01*
X64964117Y-63419671D01*
X64946393Y-63403607D01*
X64930329Y-63385883D01*
X64916079Y-63366670D01*
X64903782Y-63346153D01*
X64893554Y-63324529D01*
X64885496Y-63302007D01*
X64879684Y-63278803D01*
X64876174Y-63255142D01*
X64875000Y-63231250D01*
X64875000Y-62743750D01*
X64876174Y-62719858D01*
X64879684Y-62696197D01*
X64885496Y-62672993D01*
X64893554Y-62650471D01*
X64903782Y-62628847D01*
X64916079Y-62608330D01*
X64930329Y-62589117D01*
X64946393Y-62571393D01*
X64964117Y-62555329D01*
X64983330Y-62541079D01*
X65003847Y-62528782D01*
X65025471Y-62518554D01*
X65047993Y-62510496D01*
X65071197Y-62504684D01*
X65094858Y-62501174D01*
X65118750Y-62500000D01*
X66031250Y-62500000D01*
X66055142Y-62501174D01*
X66055142Y-62501174D01*
G37*
D11*
X65575000Y-62987500D03*
D10*
G36*
X79641742Y-71550974D02*
G01*
X79665403Y-71554484D01*
X79688607Y-71560296D01*
X79711129Y-71568354D01*
X79732753Y-71578582D01*
X79753270Y-71590879D01*
X79772483Y-71605129D01*
X79790207Y-71621193D01*
X79806271Y-71638917D01*
X79820521Y-71658130D01*
X79832818Y-71678647D01*
X79843046Y-71700271D01*
X79851104Y-71722793D01*
X79856916Y-71745997D01*
X79860426Y-71769658D01*
X79861600Y-71793550D01*
X79861600Y-72706050D01*
X79860426Y-72729942D01*
X79856916Y-72753603D01*
X79851104Y-72776807D01*
X79843046Y-72799329D01*
X79832818Y-72820953D01*
X79820521Y-72841470D01*
X79806271Y-72860683D01*
X79790207Y-72878407D01*
X79772483Y-72894471D01*
X79753270Y-72908721D01*
X79732753Y-72921018D01*
X79711129Y-72931246D01*
X79688607Y-72939304D01*
X79665403Y-72945116D01*
X79641742Y-72948626D01*
X79617850Y-72949800D01*
X79130350Y-72949800D01*
X79106458Y-72948626D01*
X79082797Y-72945116D01*
X79059593Y-72939304D01*
X79037071Y-72931246D01*
X79015447Y-72921018D01*
X78994930Y-72908721D01*
X78975717Y-72894471D01*
X78957993Y-72878407D01*
X78941929Y-72860683D01*
X78927679Y-72841470D01*
X78915382Y-72820953D01*
X78905154Y-72799329D01*
X78897096Y-72776807D01*
X78891284Y-72753603D01*
X78887774Y-72729942D01*
X78886600Y-72706050D01*
X78886600Y-71793550D01*
X78887774Y-71769658D01*
X78891284Y-71745997D01*
X78897096Y-71722793D01*
X78905154Y-71700271D01*
X78915382Y-71678647D01*
X78927679Y-71658130D01*
X78941929Y-71638917D01*
X78957993Y-71621193D01*
X78975717Y-71605129D01*
X78994930Y-71590879D01*
X79015447Y-71578582D01*
X79037071Y-71568354D01*
X79059593Y-71560296D01*
X79082797Y-71554484D01*
X79106458Y-71550974D01*
X79130350Y-71549800D01*
X79617850Y-71549800D01*
X79641742Y-71550974D01*
X79641742Y-71550974D01*
G37*
D11*
X79374100Y-72249800D03*
D10*
G36*
X81516742Y-71550974D02*
G01*
X81540403Y-71554484D01*
X81563607Y-71560296D01*
X81586129Y-71568354D01*
X81607753Y-71578582D01*
X81628270Y-71590879D01*
X81647483Y-71605129D01*
X81665207Y-71621193D01*
X81681271Y-71638917D01*
X81695521Y-71658130D01*
X81707818Y-71678647D01*
X81718046Y-71700271D01*
X81726104Y-71722793D01*
X81731916Y-71745997D01*
X81735426Y-71769658D01*
X81736600Y-71793550D01*
X81736600Y-72706050D01*
X81735426Y-72729942D01*
X81731916Y-72753603D01*
X81726104Y-72776807D01*
X81718046Y-72799329D01*
X81707818Y-72820953D01*
X81695521Y-72841470D01*
X81681271Y-72860683D01*
X81665207Y-72878407D01*
X81647483Y-72894471D01*
X81628270Y-72908721D01*
X81607753Y-72921018D01*
X81586129Y-72931246D01*
X81563607Y-72939304D01*
X81540403Y-72945116D01*
X81516742Y-72948626D01*
X81492850Y-72949800D01*
X81005350Y-72949800D01*
X80981458Y-72948626D01*
X80957797Y-72945116D01*
X80934593Y-72939304D01*
X80912071Y-72931246D01*
X80890447Y-72921018D01*
X80869930Y-72908721D01*
X80850717Y-72894471D01*
X80832993Y-72878407D01*
X80816929Y-72860683D01*
X80802679Y-72841470D01*
X80790382Y-72820953D01*
X80780154Y-72799329D01*
X80772096Y-72776807D01*
X80766284Y-72753603D01*
X80762774Y-72729942D01*
X80761600Y-72706050D01*
X80761600Y-71793550D01*
X80762774Y-71769658D01*
X80766284Y-71745997D01*
X80772096Y-71722793D01*
X80780154Y-71700271D01*
X80790382Y-71678647D01*
X80802679Y-71658130D01*
X80816929Y-71638917D01*
X80832993Y-71621193D01*
X80850717Y-71605129D01*
X80869930Y-71590879D01*
X80890447Y-71578582D01*
X80912071Y-71568354D01*
X80934593Y-71560296D01*
X80957797Y-71554484D01*
X80981458Y-71550974D01*
X81005350Y-71549800D01*
X81492850Y-71549800D01*
X81516742Y-71550974D01*
X81516742Y-71550974D01*
G37*
D11*
X81249100Y-72249800D03*
D10*
G36*
X72607342Y-86424174D02*
G01*
X72631003Y-86427684D01*
X72654207Y-86433496D01*
X72676729Y-86441554D01*
X72698353Y-86451782D01*
X72718870Y-86464079D01*
X72738083Y-86478329D01*
X72755807Y-86494393D01*
X72771871Y-86512117D01*
X72786121Y-86531330D01*
X72798418Y-86551847D01*
X72808646Y-86573471D01*
X72816704Y-86595993D01*
X72822516Y-86619197D01*
X72826026Y-86642858D01*
X72827200Y-86666750D01*
X72827200Y-87154250D01*
X72826026Y-87178142D01*
X72822516Y-87201803D01*
X72816704Y-87225007D01*
X72808646Y-87247529D01*
X72798418Y-87269153D01*
X72786121Y-87289670D01*
X72771871Y-87308883D01*
X72755807Y-87326607D01*
X72738083Y-87342671D01*
X72718870Y-87356921D01*
X72698353Y-87369218D01*
X72676729Y-87379446D01*
X72654207Y-87387504D01*
X72631003Y-87393316D01*
X72607342Y-87396826D01*
X72583450Y-87398000D01*
X71670950Y-87398000D01*
X71647058Y-87396826D01*
X71623397Y-87393316D01*
X71600193Y-87387504D01*
X71577671Y-87379446D01*
X71556047Y-87369218D01*
X71535530Y-87356921D01*
X71516317Y-87342671D01*
X71498593Y-87326607D01*
X71482529Y-87308883D01*
X71468279Y-87289670D01*
X71455982Y-87269153D01*
X71445754Y-87247529D01*
X71437696Y-87225007D01*
X71431884Y-87201803D01*
X71428374Y-87178142D01*
X71427200Y-87154250D01*
X71427200Y-86666750D01*
X71428374Y-86642858D01*
X71431884Y-86619197D01*
X71437696Y-86595993D01*
X71445754Y-86573471D01*
X71455982Y-86551847D01*
X71468279Y-86531330D01*
X71482529Y-86512117D01*
X71498593Y-86494393D01*
X71516317Y-86478329D01*
X71535530Y-86464079D01*
X71556047Y-86451782D01*
X71577671Y-86441554D01*
X71600193Y-86433496D01*
X71623397Y-86427684D01*
X71647058Y-86424174D01*
X71670950Y-86423000D01*
X72583450Y-86423000D01*
X72607342Y-86424174D01*
X72607342Y-86424174D01*
G37*
D11*
X72127200Y-86910500D03*
D10*
G36*
X72607342Y-84549174D02*
G01*
X72631003Y-84552684D01*
X72654207Y-84558496D01*
X72676729Y-84566554D01*
X72698353Y-84576782D01*
X72718870Y-84589079D01*
X72738083Y-84603329D01*
X72755807Y-84619393D01*
X72771871Y-84637117D01*
X72786121Y-84656330D01*
X72798418Y-84676847D01*
X72808646Y-84698471D01*
X72816704Y-84720993D01*
X72822516Y-84744197D01*
X72826026Y-84767858D01*
X72827200Y-84791750D01*
X72827200Y-85279250D01*
X72826026Y-85303142D01*
X72822516Y-85326803D01*
X72816704Y-85350007D01*
X72808646Y-85372529D01*
X72798418Y-85394153D01*
X72786121Y-85414670D01*
X72771871Y-85433883D01*
X72755807Y-85451607D01*
X72738083Y-85467671D01*
X72718870Y-85481921D01*
X72698353Y-85494218D01*
X72676729Y-85504446D01*
X72654207Y-85512504D01*
X72631003Y-85518316D01*
X72607342Y-85521826D01*
X72583450Y-85523000D01*
X71670950Y-85523000D01*
X71647058Y-85521826D01*
X71623397Y-85518316D01*
X71600193Y-85512504D01*
X71577671Y-85504446D01*
X71556047Y-85494218D01*
X71535530Y-85481921D01*
X71516317Y-85467671D01*
X71498593Y-85451607D01*
X71482529Y-85433883D01*
X71468279Y-85414670D01*
X71455982Y-85394153D01*
X71445754Y-85372529D01*
X71437696Y-85350007D01*
X71431884Y-85326803D01*
X71428374Y-85303142D01*
X71427200Y-85279250D01*
X71427200Y-84791750D01*
X71428374Y-84767858D01*
X71431884Y-84744197D01*
X71437696Y-84720993D01*
X71445754Y-84698471D01*
X71455982Y-84676847D01*
X71468279Y-84656330D01*
X71482529Y-84637117D01*
X71498593Y-84619393D01*
X71516317Y-84603329D01*
X71535530Y-84589079D01*
X71556047Y-84576782D01*
X71577671Y-84566554D01*
X71600193Y-84558496D01*
X71623397Y-84552684D01*
X71647058Y-84549174D01*
X71670950Y-84548000D01*
X72583450Y-84548000D01*
X72607342Y-84549174D01*
X72607342Y-84549174D01*
G37*
D11*
X72127200Y-85035500D03*
D10*
G36*
X81516742Y-67740974D02*
G01*
X81540403Y-67744484D01*
X81563607Y-67750296D01*
X81586129Y-67758354D01*
X81607753Y-67768582D01*
X81628270Y-67780879D01*
X81647483Y-67795129D01*
X81665207Y-67811193D01*
X81681271Y-67828917D01*
X81695521Y-67848130D01*
X81707818Y-67868647D01*
X81718046Y-67890271D01*
X81726104Y-67912793D01*
X81731916Y-67935997D01*
X81735426Y-67959658D01*
X81736600Y-67983550D01*
X81736600Y-68896050D01*
X81735426Y-68919942D01*
X81731916Y-68943603D01*
X81726104Y-68966807D01*
X81718046Y-68989329D01*
X81707818Y-69010953D01*
X81695521Y-69031470D01*
X81681271Y-69050683D01*
X81665207Y-69068407D01*
X81647483Y-69084471D01*
X81628270Y-69098721D01*
X81607753Y-69111018D01*
X81586129Y-69121246D01*
X81563607Y-69129304D01*
X81540403Y-69135116D01*
X81516742Y-69138626D01*
X81492850Y-69139800D01*
X81005350Y-69139800D01*
X80981458Y-69138626D01*
X80957797Y-69135116D01*
X80934593Y-69129304D01*
X80912071Y-69121246D01*
X80890447Y-69111018D01*
X80869930Y-69098721D01*
X80850717Y-69084471D01*
X80832993Y-69068407D01*
X80816929Y-69050683D01*
X80802679Y-69031470D01*
X80790382Y-69010953D01*
X80780154Y-68989329D01*
X80772096Y-68966807D01*
X80766284Y-68943603D01*
X80762774Y-68919942D01*
X80761600Y-68896050D01*
X80761600Y-67983550D01*
X80762774Y-67959658D01*
X80766284Y-67935997D01*
X80772096Y-67912793D01*
X80780154Y-67890271D01*
X80790382Y-67868647D01*
X80802679Y-67848130D01*
X80816929Y-67828917D01*
X80832993Y-67811193D01*
X80850717Y-67795129D01*
X80869930Y-67780879D01*
X80890447Y-67768582D01*
X80912071Y-67758354D01*
X80934593Y-67750296D01*
X80957797Y-67744484D01*
X80981458Y-67740974D01*
X81005350Y-67739800D01*
X81492850Y-67739800D01*
X81516742Y-67740974D01*
X81516742Y-67740974D01*
G37*
D11*
X81249100Y-68439800D03*
D10*
G36*
X79641742Y-67740974D02*
G01*
X79665403Y-67744484D01*
X79688607Y-67750296D01*
X79711129Y-67758354D01*
X79732753Y-67768582D01*
X79753270Y-67780879D01*
X79772483Y-67795129D01*
X79790207Y-67811193D01*
X79806271Y-67828917D01*
X79820521Y-67848130D01*
X79832818Y-67868647D01*
X79843046Y-67890271D01*
X79851104Y-67912793D01*
X79856916Y-67935997D01*
X79860426Y-67959658D01*
X79861600Y-67983550D01*
X79861600Y-68896050D01*
X79860426Y-68919942D01*
X79856916Y-68943603D01*
X79851104Y-68966807D01*
X79843046Y-68989329D01*
X79832818Y-69010953D01*
X79820521Y-69031470D01*
X79806271Y-69050683D01*
X79790207Y-69068407D01*
X79772483Y-69084471D01*
X79753270Y-69098721D01*
X79732753Y-69111018D01*
X79711129Y-69121246D01*
X79688607Y-69129304D01*
X79665403Y-69135116D01*
X79641742Y-69138626D01*
X79617850Y-69139800D01*
X79130350Y-69139800D01*
X79106458Y-69138626D01*
X79082797Y-69135116D01*
X79059593Y-69129304D01*
X79037071Y-69121246D01*
X79015447Y-69111018D01*
X78994930Y-69098721D01*
X78975717Y-69084471D01*
X78957993Y-69068407D01*
X78941929Y-69050683D01*
X78927679Y-69031470D01*
X78915382Y-69010953D01*
X78905154Y-68989329D01*
X78897096Y-68966807D01*
X78891284Y-68943603D01*
X78887774Y-68919942D01*
X78886600Y-68896050D01*
X78886600Y-67983550D01*
X78887774Y-67959658D01*
X78891284Y-67935997D01*
X78897096Y-67912793D01*
X78905154Y-67890271D01*
X78915382Y-67868647D01*
X78927679Y-67848130D01*
X78941929Y-67828917D01*
X78957993Y-67811193D01*
X78975717Y-67795129D01*
X78994930Y-67780879D01*
X79015447Y-67768582D01*
X79037071Y-67758354D01*
X79059593Y-67750296D01*
X79082797Y-67744484D01*
X79106458Y-67740974D01*
X79130350Y-67739800D01*
X79617850Y-67739800D01*
X79641742Y-67740974D01*
X79641742Y-67740974D01*
G37*
D11*
X79374100Y-68439800D03*
D16*
X69500000Y-87725000D03*
X66200000Y-87725000D03*
D10*
G36*
X64030142Y-75751174D02*
G01*
X64053803Y-75754684D01*
X64077007Y-75760496D01*
X64099529Y-75768554D01*
X64121153Y-75778782D01*
X64141670Y-75791079D01*
X64160883Y-75805329D01*
X64178607Y-75821393D01*
X64194671Y-75839117D01*
X64208921Y-75858330D01*
X64221218Y-75878847D01*
X64231446Y-75900471D01*
X64239504Y-75922993D01*
X64245316Y-75946197D01*
X64248826Y-75969858D01*
X64250000Y-75993750D01*
X64250000Y-76906250D01*
X64248826Y-76930142D01*
X64245316Y-76953803D01*
X64239504Y-76977007D01*
X64231446Y-76999529D01*
X64221218Y-77021153D01*
X64208921Y-77041670D01*
X64194671Y-77060883D01*
X64178607Y-77078607D01*
X64160883Y-77094671D01*
X64141670Y-77108921D01*
X64121153Y-77121218D01*
X64099529Y-77131446D01*
X64077007Y-77139504D01*
X64053803Y-77145316D01*
X64030142Y-77148826D01*
X64006250Y-77150000D01*
X63518750Y-77150000D01*
X63494858Y-77148826D01*
X63471197Y-77145316D01*
X63447993Y-77139504D01*
X63425471Y-77131446D01*
X63403847Y-77121218D01*
X63383330Y-77108921D01*
X63364117Y-77094671D01*
X63346393Y-77078607D01*
X63330329Y-77060883D01*
X63316079Y-77041670D01*
X63303782Y-77021153D01*
X63293554Y-76999529D01*
X63285496Y-76977007D01*
X63279684Y-76953803D01*
X63276174Y-76930142D01*
X63275000Y-76906250D01*
X63275000Y-75993750D01*
X63276174Y-75969858D01*
X63279684Y-75946197D01*
X63285496Y-75922993D01*
X63293554Y-75900471D01*
X63303782Y-75878847D01*
X63316079Y-75858330D01*
X63330329Y-75839117D01*
X63346393Y-75821393D01*
X63364117Y-75805329D01*
X63383330Y-75791079D01*
X63403847Y-75778782D01*
X63425471Y-75768554D01*
X63447993Y-75760496D01*
X63471197Y-75754684D01*
X63494858Y-75751174D01*
X63518750Y-75750000D01*
X64006250Y-75750000D01*
X64030142Y-75751174D01*
X64030142Y-75751174D01*
G37*
D11*
X63762500Y-76450000D03*
D10*
G36*
X62155142Y-75751174D02*
G01*
X62178803Y-75754684D01*
X62202007Y-75760496D01*
X62224529Y-75768554D01*
X62246153Y-75778782D01*
X62266670Y-75791079D01*
X62285883Y-75805329D01*
X62303607Y-75821393D01*
X62319671Y-75839117D01*
X62333921Y-75858330D01*
X62346218Y-75878847D01*
X62356446Y-75900471D01*
X62364504Y-75922993D01*
X62370316Y-75946197D01*
X62373826Y-75969858D01*
X62375000Y-75993750D01*
X62375000Y-76906250D01*
X62373826Y-76930142D01*
X62370316Y-76953803D01*
X62364504Y-76977007D01*
X62356446Y-76999529D01*
X62346218Y-77021153D01*
X62333921Y-77041670D01*
X62319671Y-77060883D01*
X62303607Y-77078607D01*
X62285883Y-77094671D01*
X62266670Y-77108921D01*
X62246153Y-77121218D01*
X62224529Y-77131446D01*
X62202007Y-77139504D01*
X62178803Y-77145316D01*
X62155142Y-77148826D01*
X62131250Y-77150000D01*
X61643750Y-77150000D01*
X61619858Y-77148826D01*
X61596197Y-77145316D01*
X61572993Y-77139504D01*
X61550471Y-77131446D01*
X61528847Y-77121218D01*
X61508330Y-77108921D01*
X61489117Y-77094671D01*
X61471393Y-77078607D01*
X61455329Y-77060883D01*
X61441079Y-77041670D01*
X61428782Y-77021153D01*
X61418554Y-76999529D01*
X61410496Y-76977007D01*
X61404684Y-76953803D01*
X61401174Y-76930142D01*
X61400000Y-76906250D01*
X61400000Y-75993750D01*
X61401174Y-75969858D01*
X61404684Y-75946197D01*
X61410496Y-75922993D01*
X61418554Y-75900471D01*
X61428782Y-75878847D01*
X61441079Y-75858330D01*
X61455329Y-75839117D01*
X61471393Y-75821393D01*
X61489117Y-75805329D01*
X61508330Y-75791079D01*
X61528847Y-75778782D01*
X61550471Y-75768554D01*
X61572993Y-75760496D01*
X61596197Y-75754684D01*
X61619858Y-75751174D01*
X61643750Y-75750000D01*
X62131250Y-75750000D01*
X62155142Y-75751174D01*
X62155142Y-75751174D01*
G37*
D11*
X61887500Y-76450000D03*
D10*
G36*
X63880142Y-79551174D02*
G01*
X63903803Y-79554684D01*
X63927007Y-79560496D01*
X63949529Y-79568554D01*
X63971153Y-79578782D01*
X63991670Y-79591079D01*
X64010883Y-79605329D01*
X64028607Y-79621393D01*
X64044671Y-79639117D01*
X64058921Y-79658330D01*
X64071218Y-79678847D01*
X64081446Y-79700471D01*
X64089504Y-79722993D01*
X64095316Y-79746197D01*
X64098826Y-79769858D01*
X64100000Y-79793750D01*
X64100000Y-80706250D01*
X64098826Y-80730142D01*
X64095316Y-80753803D01*
X64089504Y-80777007D01*
X64081446Y-80799529D01*
X64071218Y-80821153D01*
X64058921Y-80841670D01*
X64044671Y-80860883D01*
X64028607Y-80878607D01*
X64010883Y-80894671D01*
X63991670Y-80908921D01*
X63971153Y-80921218D01*
X63949529Y-80931446D01*
X63927007Y-80939504D01*
X63903803Y-80945316D01*
X63880142Y-80948826D01*
X63856250Y-80950000D01*
X63368750Y-80950000D01*
X63344858Y-80948826D01*
X63321197Y-80945316D01*
X63297993Y-80939504D01*
X63275471Y-80931446D01*
X63253847Y-80921218D01*
X63233330Y-80908921D01*
X63214117Y-80894671D01*
X63196393Y-80878607D01*
X63180329Y-80860883D01*
X63166079Y-80841670D01*
X63153782Y-80821153D01*
X63143554Y-80799529D01*
X63135496Y-80777007D01*
X63129684Y-80753803D01*
X63126174Y-80730142D01*
X63125000Y-80706250D01*
X63125000Y-79793750D01*
X63126174Y-79769858D01*
X63129684Y-79746197D01*
X63135496Y-79722993D01*
X63143554Y-79700471D01*
X63153782Y-79678847D01*
X63166079Y-79658330D01*
X63180329Y-79639117D01*
X63196393Y-79621393D01*
X63214117Y-79605329D01*
X63233330Y-79591079D01*
X63253847Y-79578782D01*
X63275471Y-79568554D01*
X63297993Y-79560496D01*
X63321197Y-79554684D01*
X63344858Y-79551174D01*
X63368750Y-79550000D01*
X63856250Y-79550000D01*
X63880142Y-79551174D01*
X63880142Y-79551174D01*
G37*
D11*
X63612500Y-80250000D03*
D10*
G36*
X62005142Y-79551174D02*
G01*
X62028803Y-79554684D01*
X62052007Y-79560496D01*
X62074529Y-79568554D01*
X62096153Y-79578782D01*
X62116670Y-79591079D01*
X62135883Y-79605329D01*
X62153607Y-79621393D01*
X62169671Y-79639117D01*
X62183921Y-79658330D01*
X62196218Y-79678847D01*
X62206446Y-79700471D01*
X62214504Y-79722993D01*
X62220316Y-79746197D01*
X62223826Y-79769858D01*
X62225000Y-79793750D01*
X62225000Y-80706250D01*
X62223826Y-80730142D01*
X62220316Y-80753803D01*
X62214504Y-80777007D01*
X62206446Y-80799529D01*
X62196218Y-80821153D01*
X62183921Y-80841670D01*
X62169671Y-80860883D01*
X62153607Y-80878607D01*
X62135883Y-80894671D01*
X62116670Y-80908921D01*
X62096153Y-80921218D01*
X62074529Y-80931446D01*
X62052007Y-80939504D01*
X62028803Y-80945316D01*
X62005142Y-80948826D01*
X61981250Y-80950000D01*
X61493750Y-80950000D01*
X61469858Y-80948826D01*
X61446197Y-80945316D01*
X61422993Y-80939504D01*
X61400471Y-80931446D01*
X61378847Y-80921218D01*
X61358330Y-80908921D01*
X61339117Y-80894671D01*
X61321393Y-80878607D01*
X61305329Y-80860883D01*
X61291079Y-80841670D01*
X61278782Y-80821153D01*
X61268554Y-80799529D01*
X61260496Y-80777007D01*
X61254684Y-80753803D01*
X61251174Y-80730142D01*
X61250000Y-80706250D01*
X61250000Y-79793750D01*
X61251174Y-79769858D01*
X61254684Y-79746197D01*
X61260496Y-79722993D01*
X61268554Y-79700471D01*
X61278782Y-79678847D01*
X61291079Y-79658330D01*
X61305329Y-79639117D01*
X61321393Y-79621393D01*
X61339117Y-79605329D01*
X61358330Y-79591079D01*
X61378847Y-79578782D01*
X61400471Y-79568554D01*
X61422993Y-79560496D01*
X61446197Y-79554684D01*
X61469858Y-79551174D01*
X61493750Y-79550000D01*
X61981250Y-79550000D01*
X62005142Y-79551174D01*
X62005142Y-79551174D01*
G37*
D11*
X61737500Y-80250000D03*
D10*
G36*
X73681542Y-64384974D02*
G01*
X73705203Y-64388484D01*
X73728407Y-64394296D01*
X73750929Y-64402354D01*
X73772553Y-64412582D01*
X73793070Y-64424879D01*
X73812283Y-64439129D01*
X73830007Y-64455193D01*
X73846071Y-64472917D01*
X73860321Y-64492130D01*
X73872618Y-64512647D01*
X73882846Y-64534271D01*
X73890904Y-64556793D01*
X73896716Y-64579997D01*
X73900226Y-64603658D01*
X73901400Y-64627550D01*
X73901400Y-65115050D01*
X73900226Y-65138942D01*
X73896716Y-65162603D01*
X73890904Y-65185807D01*
X73882846Y-65208329D01*
X73872618Y-65229953D01*
X73860321Y-65250470D01*
X73846071Y-65269683D01*
X73830007Y-65287407D01*
X73812283Y-65303471D01*
X73793070Y-65317721D01*
X73772553Y-65330018D01*
X73750929Y-65340246D01*
X73728407Y-65348304D01*
X73705203Y-65354116D01*
X73681542Y-65357626D01*
X73657650Y-65358800D01*
X72745150Y-65358800D01*
X72721258Y-65357626D01*
X72697597Y-65354116D01*
X72674393Y-65348304D01*
X72651871Y-65340246D01*
X72630247Y-65330018D01*
X72609730Y-65317721D01*
X72590517Y-65303471D01*
X72572793Y-65287407D01*
X72556729Y-65269683D01*
X72542479Y-65250470D01*
X72530182Y-65229953D01*
X72519954Y-65208329D01*
X72511896Y-65185807D01*
X72506084Y-65162603D01*
X72502574Y-65138942D01*
X72501400Y-65115050D01*
X72501400Y-64627550D01*
X72502574Y-64603658D01*
X72506084Y-64579997D01*
X72511896Y-64556793D01*
X72519954Y-64534271D01*
X72530182Y-64512647D01*
X72542479Y-64492130D01*
X72556729Y-64472917D01*
X72572793Y-64455193D01*
X72590517Y-64439129D01*
X72609730Y-64424879D01*
X72630247Y-64412582D01*
X72651871Y-64402354D01*
X72674393Y-64394296D01*
X72697597Y-64388484D01*
X72721258Y-64384974D01*
X72745150Y-64383800D01*
X73657650Y-64383800D01*
X73681542Y-64384974D01*
X73681542Y-64384974D01*
G37*
D11*
X73201400Y-64871300D03*
D10*
G36*
X73681542Y-62509974D02*
G01*
X73705203Y-62513484D01*
X73728407Y-62519296D01*
X73750929Y-62527354D01*
X73772553Y-62537582D01*
X73793070Y-62549879D01*
X73812283Y-62564129D01*
X73830007Y-62580193D01*
X73846071Y-62597917D01*
X73860321Y-62617130D01*
X73872618Y-62637647D01*
X73882846Y-62659271D01*
X73890904Y-62681793D01*
X73896716Y-62704997D01*
X73900226Y-62728658D01*
X73901400Y-62752550D01*
X73901400Y-63240050D01*
X73900226Y-63263942D01*
X73896716Y-63287603D01*
X73890904Y-63310807D01*
X73882846Y-63333329D01*
X73872618Y-63354953D01*
X73860321Y-63375470D01*
X73846071Y-63394683D01*
X73830007Y-63412407D01*
X73812283Y-63428471D01*
X73793070Y-63442721D01*
X73772553Y-63455018D01*
X73750929Y-63465246D01*
X73728407Y-63473304D01*
X73705203Y-63479116D01*
X73681542Y-63482626D01*
X73657650Y-63483800D01*
X72745150Y-63483800D01*
X72721258Y-63482626D01*
X72697597Y-63479116D01*
X72674393Y-63473304D01*
X72651871Y-63465246D01*
X72630247Y-63455018D01*
X72609730Y-63442721D01*
X72590517Y-63428471D01*
X72572793Y-63412407D01*
X72556729Y-63394683D01*
X72542479Y-63375470D01*
X72530182Y-63354953D01*
X72519954Y-63333329D01*
X72511896Y-63310807D01*
X72506084Y-63287603D01*
X72502574Y-63263942D01*
X72501400Y-63240050D01*
X72501400Y-62752550D01*
X72502574Y-62728658D01*
X72506084Y-62704997D01*
X72511896Y-62681793D01*
X72519954Y-62659271D01*
X72530182Y-62637647D01*
X72542479Y-62617130D01*
X72556729Y-62597917D01*
X72572793Y-62580193D01*
X72590517Y-62564129D01*
X72609730Y-62549879D01*
X72630247Y-62537582D01*
X72651871Y-62527354D01*
X72674393Y-62519296D01*
X72697597Y-62513484D01*
X72721258Y-62509974D01*
X72745150Y-62508800D01*
X73657650Y-62508800D01*
X73681542Y-62509974D01*
X73681542Y-62509974D01*
G37*
D11*
X73201400Y-62996300D03*
D10*
G36*
X81517642Y-73451174D02*
G01*
X81541303Y-73454684D01*
X81564507Y-73460496D01*
X81587029Y-73468554D01*
X81608653Y-73478782D01*
X81629170Y-73491079D01*
X81648383Y-73505329D01*
X81666107Y-73521393D01*
X81682171Y-73539117D01*
X81696421Y-73558330D01*
X81708718Y-73578847D01*
X81718946Y-73600471D01*
X81727004Y-73622993D01*
X81732816Y-73646197D01*
X81736326Y-73669858D01*
X81737500Y-73693750D01*
X81737500Y-74606250D01*
X81736326Y-74630142D01*
X81732816Y-74653803D01*
X81727004Y-74677007D01*
X81718946Y-74699529D01*
X81708718Y-74721153D01*
X81696421Y-74741670D01*
X81682171Y-74760883D01*
X81666107Y-74778607D01*
X81648383Y-74794671D01*
X81629170Y-74808921D01*
X81608653Y-74821218D01*
X81587029Y-74831446D01*
X81564507Y-74839504D01*
X81541303Y-74845316D01*
X81517642Y-74848826D01*
X81493750Y-74850000D01*
X81006250Y-74850000D01*
X80982358Y-74848826D01*
X80958697Y-74845316D01*
X80935493Y-74839504D01*
X80912971Y-74831446D01*
X80891347Y-74821218D01*
X80870830Y-74808921D01*
X80851617Y-74794671D01*
X80833893Y-74778607D01*
X80817829Y-74760883D01*
X80803579Y-74741670D01*
X80791282Y-74721153D01*
X80781054Y-74699529D01*
X80772996Y-74677007D01*
X80767184Y-74653803D01*
X80763674Y-74630142D01*
X80762500Y-74606250D01*
X80762500Y-73693750D01*
X80763674Y-73669858D01*
X80767184Y-73646197D01*
X80772996Y-73622993D01*
X80781054Y-73600471D01*
X80791282Y-73578847D01*
X80803579Y-73558330D01*
X80817829Y-73539117D01*
X80833893Y-73521393D01*
X80851617Y-73505329D01*
X80870830Y-73491079D01*
X80891347Y-73478782D01*
X80912971Y-73468554D01*
X80935493Y-73460496D01*
X80958697Y-73454684D01*
X80982358Y-73451174D01*
X81006250Y-73450000D01*
X81493750Y-73450000D01*
X81517642Y-73451174D01*
X81517642Y-73451174D01*
G37*
D11*
X81250000Y-74150000D03*
D10*
G36*
X79642642Y-73451174D02*
G01*
X79666303Y-73454684D01*
X79689507Y-73460496D01*
X79712029Y-73468554D01*
X79733653Y-73478782D01*
X79754170Y-73491079D01*
X79773383Y-73505329D01*
X79791107Y-73521393D01*
X79807171Y-73539117D01*
X79821421Y-73558330D01*
X79833718Y-73578847D01*
X79843946Y-73600471D01*
X79852004Y-73622993D01*
X79857816Y-73646197D01*
X79861326Y-73669858D01*
X79862500Y-73693750D01*
X79862500Y-74606250D01*
X79861326Y-74630142D01*
X79857816Y-74653803D01*
X79852004Y-74677007D01*
X79843946Y-74699529D01*
X79833718Y-74721153D01*
X79821421Y-74741670D01*
X79807171Y-74760883D01*
X79791107Y-74778607D01*
X79773383Y-74794671D01*
X79754170Y-74808921D01*
X79733653Y-74821218D01*
X79712029Y-74831446D01*
X79689507Y-74839504D01*
X79666303Y-74845316D01*
X79642642Y-74848826D01*
X79618750Y-74850000D01*
X79131250Y-74850000D01*
X79107358Y-74848826D01*
X79083697Y-74845316D01*
X79060493Y-74839504D01*
X79037971Y-74831446D01*
X79016347Y-74821218D01*
X78995830Y-74808921D01*
X78976617Y-74794671D01*
X78958893Y-74778607D01*
X78942829Y-74760883D01*
X78928579Y-74741670D01*
X78916282Y-74721153D01*
X78906054Y-74699529D01*
X78897996Y-74677007D01*
X78892184Y-74653803D01*
X78888674Y-74630142D01*
X78887500Y-74606250D01*
X78887500Y-73693750D01*
X78888674Y-73669858D01*
X78892184Y-73646197D01*
X78897996Y-73622993D01*
X78906054Y-73600471D01*
X78916282Y-73578847D01*
X78928579Y-73558330D01*
X78942829Y-73539117D01*
X78958893Y-73521393D01*
X78976617Y-73505329D01*
X78995830Y-73491079D01*
X79016347Y-73478782D01*
X79037971Y-73468554D01*
X79060493Y-73460496D01*
X79083697Y-73454684D01*
X79107358Y-73451174D01*
X79131250Y-73450000D01*
X79618750Y-73450000D01*
X79642642Y-73451174D01*
X79642642Y-73451174D01*
G37*
D11*
X79375000Y-74150000D03*
D10*
G36*
X71776542Y-62509974D02*
G01*
X71800203Y-62513484D01*
X71823407Y-62519296D01*
X71845929Y-62527354D01*
X71867553Y-62537582D01*
X71888070Y-62549879D01*
X71907283Y-62564129D01*
X71925007Y-62580193D01*
X71941071Y-62597917D01*
X71955321Y-62617130D01*
X71967618Y-62637647D01*
X71977846Y-62659271D01*
X71985904Y-62681793D01*
X71991716Y-62704997D01*
X71995226Y-62728658D01*
X71996400Y-62752550D01*
X71996400Y-63240050D01*
X71995226Y-63263942D01*
X71991716Y-63287603D01*
X71985904Y-63310807D01*
X71977846Y-63333329D01*
X71967618Y-63354953D01*
X71955321Y-63375470D01*
X71941071Y-63394683D01*
X71925007Y-63412407D01*
X71907283Y-63428471D01*
X71888070Y-63442721D01*
X71867553Y-63455018D01*
X71845929Y-63465246D01*
X71823407Y-63473304D01*
X71800203Y-63479116D01*
X71776542Y-63482626D01*
X71752650Y-63483800D01*
X70840150Y-63483800D01*
X70816258Y-63482626D01*
X70792597Y-63479116D01*
X70769393Y-63473304D01*
X70746871Y-63465246D01*
X70725247Y-63455018D01*
X70704730Y-63442721D01*
X70685517Y-63428471D01*
X70667793Y-63412407D01*
X70651729Y-63394683D01*
X70637479Y-63375470D01*
X70625182Y-63354953D01*
X70614954Y-63333329D01*
X70606896Y-63310807D01*
X70601084Y-63287603D01*
X70597574Y-63263942D01*
X70596400Y-63240050D01*
X70596400Y-62752550D01*
X70597574Y-62728658D01*
X70601084Y-62704997D01*
X70606896Y-62681793D01*
X70614954Y-62659271D01*
X70625182Y-62637647D01*
X70637479Y-62617130D01*
X70651729Y-62597917D01*
X70667793Y-62580193D01*
X70685517Y-62564129D01*
X70704730Y-62549879D01*
X70725247Y-62537582D01*
X70746871Y-62527354D01*
X70769393Y-62519296D01*
X70792597Y-62513484D01*
X70816258Y-62509974D01*
X70840150Y-62508800D01*
X71752650Y-62508800D01*
X71776542Y-62509974D01*
X71776542Y-62509974D01*
G37*
D11*
X71296400Y-62996300D03*
D10*
G36*
X71776542Y-64384974D02*
G01*
X71800203Y-64388484D01*
X71823407Y-64394296D01*
X71845929Y-64402354D01*
X71867553Y-64412582D01*
X71888070Y-64424879D01*
X71907283Y-64439129D01*
X71925007Y-64455193D01*
X71941071Y-64472917D01*
X71955321Y-64492130D01*
X71967618Y-64512647D01*
X71977846Y-64534271D01*
X71985904Y-64556793D01*
X71991716Y-64579997D01*
X71995226Y-64603658D01*
X71996400Y-64627550D01*
X71996400Y-65115050D01*
X71995226Y-65138942D01*
X71991716Y-65162603D01*
X71985904Y-65185807D01*
X71977846Y-65208329D01*
X71967618Y-65229953D01*
X71955321Y-65250470D01*
X71941071Y-65269683D01*
X71925007Y-65287407D01*
X71907283Y-65303471D01*
X71888070Y-65317721D01*
X71867553Y-65330018D01*
X71845929Y-65340246D01*
X71823407Y-65348304D01*
X71800203Y-65354116D01*
X71776542Y-65357626D01*
X71752650Y-65358800D01*
X70840150Y-65358800D01*
X70816258Y-65357626D01*
X70792597Y-65354116D01*
X70769393Y-65348304D01*
X70746871Y-65340246D01*
X70725247Y-65330018D01*
X70704730Y-65317721D01*
X70685517Y-65303471D01*
X70667793Y-65287407D01*
X70651729Y-65269683D01*
X70637479Y-65250470D01*
X70625182Y-65229953D01*
X70614954Y-65208329D01*
X70606896Y-65185807D01*
X70601084Y-65162603D01*
X70597574Y-65138942D01*
X70596400Y-65115050D01*
X70596400Y-64627550D01*
X70597574Y-64603658D01*
X70601084Y-64579997D01*
X70606896Y-64556793D01*
X70614954Y-64534271D01*
X70625182Y-64512647D01*
X70637479Y-64492130D01*
X70651729Y-64472917D01*
X70667793Y-64455193D01*
X70685517Y-64439129D01*
X70704730Y-64424879D01*
X70725247Y-64412582D01*
X70746871Y-64402354D01*
X70769393Y-64394296D01*
X70792597Y-64388484D01*
X70816258Y-64384974D01*
X70840150Y-64383800D01*
X71752650Y-64383800D01*
X71776542Y-64384974D01*
X71776542Y-64384974D01*
G37*
D11*
X71296400Y-64871300D03*
D10*
G36*
X62199504Y-69226204D02*
G01*
X62223773Y-69229804D01*
X62247571Y-69235765D01*
X62270671Y-69244030D01*
X62292849Y-69254520D01*
X62313893Y-69267133D01*
X62333598Y-69281747D01*
X62351777Y-69298223D01*
X62368253Y-69316402D01*
X62382867Y-69336107D01*
X62395480Y-69357151D01*
X62405970Y-69379329D01*
X62414235Y-69402429D01*
X62420196Y-69426227D01*
X62423796Y-69450496D01*
X62425000Y-69475000D01*
X62425000Y-71575000D01*
X62423796Y-71599504D01*
X62420196Y-71623773D01*
X62414235Y-71647571D01*
X62405970Y-71670671D01*
X62395480Y-71692849D01*
X62382867Y-71713893D01*
X62368253Y-71733598D01*
X62351777Y-71751777D01*
X62333598Y-71768253D01*
X62313893Y-71782867D01*
X62292849Y-71795480D01*
X62270671Y-71805970D01*
X62247571Y-71814235D01*
X62223773Y-71820196D01*
X62199504Y-71823796D01*
X62175000Y-71825000D01*
X61075000Y-71825000D01*
X61050496Y-71823796D01*
X61026227Y-71820196D01*
X61002429Y-71814235D01*
X60979329Y-71805970D01*
X60957151Y-71795480D01*
X60936107Y-71782867D01*
X60916402Y-71768253D01*
X60898223Y-71751777D01*
X60881747Y-71733598D01*
X60867133Y-71713893D01*
X60854520Y-71692849D01*
X60844030Y-71670671D01*
X60835765Y-71647571D01*
X60829804Y-71623773D01*
X60826204Y-71599504D01*
X60825000Y-71575000D01*
X60825000Y-69475000D01*
X60826204Y-69450496D01*
X60829804Y-69426227D01*
X60835765Y-69402429D01*
X60844030Y-69379329D01*
X60854520Y-69357151D01*
X60867133Y-69336107D01*
X60881747Y-69316402D01*
X60898223Y-69298223D01*
X60916402Y-69281747D01*
X60936107Y-69267133D01*
X60957151Y-69254520D01*
X60979329Y-69244030D01*
X61002429Y-69235765D01*
X61026227Y-69229804D01*
X61050496Y-69226204D01*
X61075000Y-69225000D01*
X62175000Y-69225000D01*
X62199504Y-69226204D01*
X62199504Y-69226204D01*
G37*
D12*
X61625000Y-70525000D03*
D10*
G36*
X62199504Y-65626204D02*
G01*
X62223773Y-65629804D01*
X62247571Y-65635765D01*
X62270671Y-65644030D01*
X62292849Y-65654520D01*
X62313893Y-65667133D01*
X62333598Y-65681747D01*
X62351777Y-65698223D01*
X62368253Y-65716402D01*
X62382867Y-65736107D01*
X62395480Y-65757151D01*
X62405970Y-65779329D01*
X62414235Y-65802429D01*
X62420196Y-65826227D01*
X62423796Y-65850496D01*
X62425000Y-65875000D01*
X62425000Y-67975000D01*
X62423796Y-67999504D01*
X62420196Y-68023773D01*
X62414235Y-68047571D01*
X62405970Y-68070671D01*
X62395480Y-68092849D01*
X62382867Y-68113893D01*
X62368253Y-68133598D01*
X62351777Y-68151777D01*
X62333598Y-68168253D01*
X62313893Y-68182867D01*
X62292849Y-68195480D01*
X62270671Y-68205970D01*
X62247571Y-68214235D01*
X62223773Y-68220196D01*
X62199504Y-68223796D01*
X62175000Y-68225000D01*
X61075000Y-68225000D01*
X61050496Y-68223796D01*
X61026227Y-68220196D01*
X61002429Y-68214235D01*
X60979329Y-68205970D01*
X60957151Y-68195480D01*
X60936107Y-68182867D01*
X60916402Y-68168253D01*
X60898223Y-68151777D01*
X60881747Y-68133598D01*
X60867133Y-68113893D01*
X60854520Y-68092849D01*
X60844030Y-68070671D01*
X60835765Y-68047571D01*
X60829804Y-68023773D01*
X60826204Y-67999504D01*
X60825000Y-67975000D01*
X60825000Y-65875000D01*
X60826204Y-65850496D01*
X60829804Y-65826227D01*
X60835765Y-65802429D01*
X60844030Y-65779329D01*
X60854520Y-65757151D01*
X60867133Y-65736107D01*
X60881747Y-65716402D01*
X60898223Y-65698223D01*
X60916402Y-65681747D01*
X60936107Y-65667133D01*
X60957151Y-65654520D01*
X60979329Y-65644030D01*
X61002429Y-65635765D01*
X61026227Y-65629804D01*
X61050496Y-65626204D01*
X61075000Y-65625000D01*
X62175000Y-65625000D01*
X62199504Y-65626204D01*
X62199504Y-65626204D01*
G37*
D12*
X61625000Y-66925000D03*
D10*
G36*
X81530142Y-75351174D02*
G01*
X81553803Y-75354684D01*
X81577007Y-75360496D01*
X81599529Y-75368554D01*
X81621153Y-75378782D01*
X81641670Y-75391079D01*
X81660883Y-75405329D01*
X81678607Y-75421393D01*
X81694671Y-75439117D01*
X81708921Y-75458330D01*
X81721218Y-75478847D01*
X81731446Y-75500471D01*
X81739504Y-75522993D01*
X81745316Y-75546197D01*
X81748826Y-75569858D01*
X81750000Y-75593750D01*
X81750000Y-76506250D01*
X81748826Y-76530142D01*
X81745316Y-76553803D01*
X81739504Y-76577007D01*
X81731446Y-76599529D01*
X81721218Y-76621153D01*
X81708921Y-76641670D01*
X81694671Y-76660883D01*
X81678607Y-76678607D01*
X81660883Y-76694671D01*
X81641670Y-76708921D01*
X81621153Y-76721218D01*
X81599529Y-76731446D01*
X81577007Y-76739504D01*
X81553803Y-76745316D01*
X81530142Y-76748826D01*
X81506250Y-76750000D01*
X81018750Y-76750000D01*
X80994858Y-76748826D01*
X80971197Y-76745316D01*
X80947993Y-76739504D01*
X80925471Y-76731446D01*
X80903847Y-76721218D01*
X80883330Y-76708921D01*
X80864117Y-76694671D01*
X80846393Y-76678607D01*
X80830329Y-76660883D01*
X80816079Y-76641670D01*
X80803782Y-76621153D01*
X80793554Y-76599529D01*
X80785496Y-76577007D01*
X80779684Y-76553803D01*
X80776174Y-76530142D01*
X80775000Y-76506250D01*
X80775000Y-75593750D01*
X80776174Y-75569858D01*
X80779684Y-75546197D01*
X80785496Y-75522993D01*
X80793554Y-75500471D01*
X80803782Y-75478847D01*
X80816079Y-75458330D01*
X80830329Y-75439117D01*
X80846393Y-75421393D01*
X80864117Y-75405329D01*
X80883330Y-75391079D01*
X80903847Y-75378782D01*
X80925471Y-75368554D01*
X80947993Y-75360496D01*
X80971197Y-75354684D01*
X80994858Y-75351174D01*
X81018750Y-75350000D01*
X81506250Y-75350000D01*
X81530142Y-75351174D01*
X81530142Y-75351174D01*
G37*
D11*
X81262500Y-76050000D03*
D10*
G36*
X79655142Y-75351174D02*
G01*
X79678803Y-75354684D01*
X79702007Y-75360496D01*
X79724529Y-75368554D01*
X79746153Y-75378782D01*
X79766670Y-75391079D01*
X79785883Y-75405329D01*
X79803607Y-75421393D01*
X79819671Y-75439117D01*
X79833921Y-75458330D01*
X79846218Y-75478847D01*
X79856446Y-75500471D01*
X79864504Y-75522993D01*
X79870316Y-75546197D01*
X79873826Y-75569858D01*
X79875000Y-75593750D01*
X79875000Y-76506250D01*
X79873826Y-76530142D01*
X79870316Y-76553803D01*
X79864504Y-76577007D01*
X79856446Y-76599529D01*
X79846218Y-76621153D01*
X79833921Y-76641670D01*
X79819671Y-76660883D01*
X79803607Y-76678607D01*
X79785883Y-76694671D01*
X79766670Y-76708921D01*
X79746153Y-76721218D01*
X79724529Y-76731446D01*
X79702007Y-76739504D01*
X79678803Y-76745316D01*
X79655142Y-76748826D01*
X79631250Y-76750000D01*
X79143750Y-76750000D01*
X79119858Y-76748826D01*
X79096197Y-76745316D01*
X79072993Y-76739504D01*
X79050471Y-76731446D01*
X79028847Y-76721218D01*
X79008330Y-76708921D01*
X78989117Y-76694671D01*
X78971393Y-76678607D01*
X78955329Y-76660883D01*
X78941079Y-76641670D01*
X78928782Y-76621153D01*
X78918554Y-76599529D01*
X78910496Y-76577007D01*
X78904684Y-76553803D01*
X78901174Y-76530142D01*
X78900000Y-76506250D01*
X78900000Y-75593750D01*
X78901174Y-75569858D01*
X78904684Y-75546197D01*
X78910496Y-75522993D01*
X78918554Y-75500471D01*
X78928782Y-75478847D01*
X78941079Y-75458330D01*
X78955329Y-75439117D01*
X78971393Y-75421393D01*
X78989117Y-75405329D01*
X79008330Y-75391079D01*
X79028847Y-75378782D01*
X79050471Y-75368554D01*
X79072993Y-75360496D01*
X79096197Y-75354684D01*
X79119858Y-75351174D01*
X79143750Y-75350000D01*
X79631250Y-75350000D01*
X79655142Y-75351174D01*
X79655142Y-75351174D01*
G37*
D11*
X79387500Y-76050000D03*
D10*
G36*
X67955142Y-62501174D02*
G01*
X67978803Y-62504684D01*
X68002007Y-62510496D01*
X68024529Y-62518554D01*
X68046153Y-62528782D01*
X68066670Y-62541079D01*
X68085883Y-62555329D01*
X68103607Y-62571393D01*
X68119671Y-62589117D01*
X68133921Y-62608330D01*
X68146218Y-62628847D01*
X68156446Y-62650471D01*
X68164504Y-62672993D01*
X68170316Y-62696197D01*
X68173826Y-62719858D01*
X68175000Y-62743750D01*
X68175000Y-63231250D01*
X68173826Y-63255142D01*
X68170316Y-63278803D01*
X68164504Y-63302007D01*
X68156446Y-63324529D01*
X68146218Y-63346153D01*
X68133921Y-63366670D01*
X68119671Y-63385883D01*
X68103607Y-63403607D01*
X68085883Y-63419671D01*
X68066670Y-63433921D01*
X68046153Y-63446218D01*
X68024529Y-63456446D01*
X68002007Y-63464504D01*
X67978803Y-63470316D01*
X67955142Y-63473826D01*
X67931250Y-63475000D01*
X67018750Y-63475000D01*
X66994858Y-63473826D01*
X66971197Y-63470316D01*
X66947993Y-63464504D01*
X66925471Y-63456446D01*
X66903847Y-63446218D01*
X66883330Y-63433921D01*
X66864117Y-63419671D01*
X66846393Y-63403607D01*
X66830329Y-63385883D01*
X66816079Y-63366670D01*
X66803782Y-63346153D01*
X66793554Y-63324529D01*
X66785496Y-63302007D01*
X66779684Y-63278803D01*
X66776174Y-63255142D01*
X66775000Y-63231250D01*
X66775000Y-62743750D01*
X66776174Y-62719858D01*
X66779684Y-62696197D01*
X66785496Y-62672993D01*
X66793554Y-62650471D01*
X66803782Y-62628847D01*
X66816079Y-62608330D01*
X66830329Y-62589117D01*
X66846393Y-62571393D01*
X66864117Y-62555329D01*
X66883330Y-62541079D01*
X66903847Y-62528782D01*
X66925471Y-62518554D01*
X66947993Y-62510496D01*
X66971197Y-62504684D01*
X66994858Y-62501174D01*
X67018750Y-62500000D01*
X67931250Y-62500000D01*
X67955142Y-62501174D01*
X67955142Y-62501174D01*
G37*
D11*
X67475000Y-62987500D03*
D10*
G36*
X67955142Y-64376174D02*
G01*
X67978803Y-64379684D01*
X68002007Y-64385496D01*
X68024529Y-64393554D01*
X68046153Y-64403782D01*
X68066670Y-64416079D01*
X68085883Y-64430329D01*
X68103607Y-64446393D01*
X68119671Y-64464117D01*
X68133921Y-64483330D01*
X68146218Y-64503847D01*
X68156446Y-64525471D01*
X68164504Y-64547993D01*
X68170316Y-64571197D01*
X68173826Y-64594858D01*
X68175000Y-64618750D01*
X68175000Y-65106250D01*
X68173826Y-65130142D01*
X68170316Y-65153803D01*
X68164504Y-65177007D01*
X68156446Y-65199529D01*
X68146218Y-65221153D01*
X68133921Y-65241670D01*
X68119671Y-65260883D01*
X68103607Y-65278607D01*
X68085883Y-65294671D01*
X68066670Y-65308921D01*
X68046153Y-65321218D01*
X68024529Y-65331446D01*
X68002007Y-65339504D01*
X67978803Y-65345316D01*
X67955142Y-65348826D01*
X67931250Y-65350000D01*
X67018750Y-65350000D01*
X66994858Y-65348826D01*
X66971197Y-65345316D01*
X66947993Y-65339504D01*
X66925471Y-65331446D01*
X66903847Y-65321218D01*
X66883330Y-65308921D01*
X66864117Y-65294671D01*
X66846393Y-65278607D01*
X66830329Y-65260883D01*
X66816079Y-65241670D01*
X66803782Y-65221153D01*
X66793554Y-65199529D01*
X66785496Y-65177007D01*
X66779684Y-65153803D01*
X66776174Y-65130142D01*
X66775000Y-65106250D01*
X66775000Y-64618750D01*
X66776174Y-64594858D01*
X66779684Y-64571197D01*
X66785496Y-64547993D01*
X66793554Y-64525471D01*
X66803782Y-64503847D01*
X66816079Y-64483330D01*
X66830329Y-64464117D01*
X66846393Y-64446393D01*
X66864117Y-64430329D01*
X66883330Y-64416079D01*
X66903847Y-64403782D01*
X66925471Y-64393554D01*
X66947993Y-64385496D01*
X66971197Y-64379684D01*
X66994858Y-64376174D01*
X67018750Y-64375000D01*
X67931250Y-64375000D01*
X67955142Y-64376174D01*
X67955142Y-64376174D01*
G37*
D11*
X67475000Y-64862500D03*
D13*
X66288000Y-81985000D03*
X66288000Y-80715000D03*
X66288000Y-79445000D03*
X66288000Y-78175000D03*
X66288000Y-76905000D03*
X66288000Y-75635000D03*
X66288000Y-74365000D03*
X66288000Y-73095000D03*
X66288000Y-71825000D03*
X66288000Y-70555000D03*
X66288000Y-69285000D03*
X66288000Y-68015000D03*
X75712000Y-68015000D03*
X75712000Y-69285000D03*
X75712000Y-70555000D03*
X75712000Y-71825000D03*
X75712000Y-73095000D03*
X75712000Y-74365000D03*
X75712000Y-75635000D03*
X75712000Y-76905000D03*
X75712000Y-78175000D03*
X75712000Y-79445000D03*
X75712000Y-80715000D03*
X75712000Y-81985000D03*
D10*
G36*
X79655142Y-77251174D02*
G01*
X79678803Y-77254684D01*
X79702007Y-77260496D01*
X79724529Y-77268554D01*
X79746153Y-77278782D01*
X79766670Y-77291079D01*
X79785883Y-77305329D01*
X79803607Y-77321393D01*
X79819671Y-77339117D01*
X79833921Y-77358330D01*
X79846218Y-77378847D01*
X79856446Y-77400471D01*
X79864504Y-77422993D01*
X79870316Y-77446197D01*
X79873826Y-77469858D01*
X79875000Y-77493750D01*
X79875000Y-78406250D01*
X79873826Y-78430142D01*
X79870316Y-78453803D01*
X79864504Y-78477007D01*
X79856446Y-78499529D01*
X79846218Y-78521153D01*
X79833921Y-78541670D01*
X79819671Y-78560883D01*
X79803607Y-78578607D01*
X79785883Y-78594671D01*
X79766670Y-78608921D01*
X79746153Y-78621218D01*
X79724529Y-78631446D01*
X79702007Y-78639504D01*
X79678803Y-78645316D01*
X79655142Y-78648826D01*
X79631250Y-78650000D01*
X79143750Y-78650000D01*
X79119858Y-78648826D01*
X79096197Y-78645316D01*
X79072993Y-78639504D01*
X79050471Y-78631446D01*
X79028847Y-78621218D01*
X79008330Y-78608921D01*
X78989117Y-78594671D01*
X78971393Y-78578607D01*
X78955329Y-78560883D01*
X78941079Y-78541670D01*
X78928782Y-78521153D01*
X78918554Y-78499529D01*
X78910496Y-78477007D01*
X78904684Y-78453803D01*
X78901174Y-78430142D01*
X78900000Y-78406250D01*
X78900000Y-77493750D01*
X78901174Y-77469858D01*
X78904684Y-77446197D01*
X78910496Y-77422993D01*
X78918554Y-77400471D01*
X78928782Y-77378847D01*
X78941079Y-77358330D01*
X78955329Y-77339117D01*
X78971393Y-77321393D01*
X78989117Y-77305329D01*
X79008330Y-77291079D01*
X79028847Y-77278782D01*
X79050471Y-77268554D01*
X79072993Y-77260496D01*
X79096197Y-77254684D01*
X79119858Y-77251174D01*
X79143750Y-77250000D01*
X79631250Y-77250000D01*
X79655142Y-77251174D01*
X79655142Y-77251174D01*
G37*
D11*
X79387500Y-77950000D03*
D10*
G36*
X81530142Y-77251174D02*
G01*
X81553803Y-77254684D01*
X81577007Y-77260496D01*
X81599529Y-77268554D01*
X81621153Y-77278782D01*
X81641670Y-77291079D01*
X81660883Y-77305329D01*
X81678607Y-77321393D01*
X81694671Y-77339117D01*
X81708921Y-77358330D01*
X81721218Y-77378847D01*
X81731446Y-77400471D01*
X81739504Y-77422993D01*
X81745316Y-77446197D01*
X81748826Y-77469858D01*
X81750000Y-77493750D01*
X81750000Y-78406250D01*
X81748826Y-78430142D01*
X81745316Y-78453803D01*
X81739504Y-78477007D01*
X81731446Y-78499529D01*
X81721218Y-78521153D01*
X81708921Y-78541670D01*
X81694671Y-78560883D01*
X81678607Y-78578607D01*
X81660883Y-78594671D01*
X81641670Y-78608921D01*
X81621153Y-78621218D01*
X81599529Y-78631446D01*
X81577007Y-78639504D01*
X81553803Y-78645316D01*
X81530142Y-78648826D01*
X81506250Y-78650000D01*
X81018750Y-78650000D01*
X80994858Y-78648826D01*
X80971197Y-78645316D01*
X80947993Y-78639504D01*
X80925471Y-78631446D01*
X80903847Y-78621218D01*
X80883330Y-78608921D01*
X80864117Y-78594671D01*
X80846393Y-78578607D01*
X80830329Y-78560883D01*
X80816079Y-78541670D01*
X80803782Y-78521153D01*
X80793554Y-78499529D01*
X80785496Y-78477007D01*
X80779684Y-78453803D01*
X80776174Y-78430142D01*
X80775000Y-78406250D01*
X80775000Y-77493750D01*
X80776174Y-77469858D01*
X80779684Y-77446197D01*
X80785496Y-77422993D01*
X80793554Y-77400471D01*
X80803782Y-77378847D01*
X80816079Y-77358330D01*
X80830329Y-77339117D01*
X80846393Y-77321393D01*
X80864117Y-77305329D01*
X80883330Y-77291079D01*
X80903847Y-77278782D01*
X80925471Y-77268554D01*
X80947993Y-77260496D01*
X80971197Y-77254684D01*
X80994858Y-77251174D01*
X81018750Y-77250000D01*
X81506250Y-77250000D01*
X81530142Y-77251174D01*
X81530142Y-77251174D01*
G37*
D11*
X81262500Y-77950000D03*
D16*
X69500000Y-85425000D03*
X66200000Y-85425000D03*
D10*
G36*
X77505142Y-64376174D02*
G01*
X77528803Y-64379684D01*
X77552007Y-64385496D01*
X77574529Y-64393554D01*
X77596153Y-64403782D01*
X77616670Y-64416079D01*
X77635883Y-64430329D01*
X77653607Y-64446393D01*
X77669671Y-64464117D01*
X77683921Y-64483330D01*
X77696218Y-64503847D01*
X77706446Y-64525471D01*
X77714504Y-64547993D01*
X77720316Y-64571197D01*
X77723826Y-64594858D01*
X77725000Y-64618750D01*
X77725000Y-65106250D01*
X77723826Y-65130142D01*
X77720316Y-65153803D01*
X77714504Y-65177007D01*
X77706446Y-65199529D01*
X77696218Y-65221153D01*
X77683921Y-65241670D01*
X77669671Y-65260883D01*
X77653607Y-65278607D01*
X77635883Y-65294671D01*
X77616670Y-65308921D01*
X77596153Y-65321218D01*
X77574529Y-65331446D01*
X77552007Y-65339504D01*
X77528803Y-65345316D01*
X77505142Y-65348826D01*
X77481250Y-65350000D01*
X76568750Y-65350000D01*
X76544858Y-65348826D01*
X76521197Y-65345316D01*
X76497993Y-65339504D01*
X76475471Y-65331446D01*
X76453847Y-65321218D01*
X76433330Y-65308921D01*
X76414117Y-65294671D01*
X76396393Y-65278607D01*
X76380329Y-65260883D01*
X76366079Y-65241670D01*
X76353782Y-65221153D01*
X76343554Y-65199529D01*
X76335496Y-65177007D01*
X76329684Y-65153803D01*
X76326174Y-65130142D01*
X76325000Y-65106250D01*
X76325000Y-64618750D01*
X76326174Y-64594858D01*
X76329684Y-64571197D01*
X76335496Y-64547993D01*
X76343554Y-64525471D01*
X76353782Y-64503847D01*
X76366079Y-64483330D01*
X76380329Y-64464117D01*
X76396393Y-64446393D01*
X76414117Y-64430329D01*
X76433330Y-64416079D01*
X76453847Y-64403782D01*
X76475471Y-64393554D01*
X76497993Y-64385496D01*
X76521197Y-64379684D01*
X76544858Y-64376174D01*
X76568750Y-64375000D01*
X77481250Y-64375000D01*
X77505142Y-64376174D01*
X77505142Y-64376174D01*
G37*
D11*
X77025000Y-64862500D03*
D10*
G36*
X77505142Y-62501174D02*
G01*
X77528803Y-62504684D01*
X77552007Y-62510496D01*
X77574529Y-62518554D01*
X77596153Y-62528782D01*
X77616670Y-62541079D01*
X77635883Y-62555329D01*
X77653607Y-62571393D01*
X77669671Y-62589117D01*
X77683921Y-62608330D01*
X77696218Y-62628847D01*
X77706446Y-62650471D01*
X77714504Y-62672993D01*
X77720316Y-62696197D01*
X77723826Y-62719858D01*
X77725000Y-62743750D01*
X77725000Y-63231250D01*
X77723826Y-63255142D01*
X77720316Y-63278803D01*
X77714504Y-63302007D01*
X77706446Y-63324529D01*
X77696218Y-63346153D01*
X77683921Y-63366670D01*
X77669671Y-63385883D01*
X77653607Y-63403607D01*
X77635883Y-63419671D01*
X77616670Y-63433921D01*
X77596153Y-63446218D01*
X77574529Y-63456446D01*
X77552007Y-63464504D01*
X77528803Y-63470316D01*
X77505142Y-63473826D01*
X77481250Y-63475000D01*
X76568750Y-63475000D01*
X76544858Y-63473826D01*
X76521197Y-63470316D01*
X76497993Y-63464504D01*
X76475471Y-63456446D01*
X76453847Y-63446218D01*
X76433330Y-63433921D01*
X76414117Y-63419671D01*
X76396393Y-63403607D01*
X76380329Y-63385883D01*
X76366079Y-63366670D01*
X76353782Y-63346153D01*
X76343554Y-63324529D01*
X76335496Y-63302007D01*
X76329684Y-63278803D01*
X76326174Y-63255142D01*
X76325000Y-63231250D01*
X76325000Y-62743750D01*
X76326174Y-62719858D01*
X76329684Y-62696197D01*
X76335496Y-62672993D01*
X76343554Y-62650471D01*
X76353782Y-62628847D01*
X76366079Y-62608330D01*
X76380329Y-62589117D01*
X76396393Y-62571393D01*
X76414117Y-62555329D01*
X76433330Y-62541079D01*
X76453847Y-62528782D01*
X76475471Y-62518554D01*
X76497993Y-62510496D01*
X76521197Y-62504684D01*
X76544858Y-62501174D01*
X76568750Y-62500000D01*
X77481250Y-62500000D01*
X77505142Y-62501174D01*
X77505142Y-62501174D01*
G37*
D11*
X77025000Y-62987500D03*
M02*
