G04 #@! TF.GenerationSoftware,KiCad,Pcbnew,(5.1.4)-1*
G04 #@! TF.CreationDate,2020-03-06T17:17:20+01:00*
G04 #@! TF.ProjectId,asserv_brushless,61737365-7276-45f6-9272-7573686c6573,rev?*
G04 #@! TF.SameCoordinates,Original*
G04 #@! TF.FileFunction,Legend,Top*
G04 #@! TF.FilePolarity,Positive*
%FSLAX46Y46*%
G04 Gerber Fmt 4.6, Leading zero omitted, Abs format (unit mm)*
G04 Created by KiCad (PCBNEW (5.1.4)-1) date 2020-03-06 17:17:20*
%MOMM*%
%LPD*%
G04 APERTURE LIST*
%ADD10C,0.300000*%
%ADD11C,0.127000*%
%ADD12C,0.200000*%
%ADD13C,0.120000*%
%ADD14C,0.254000*%
%ADD15C,0.400000*%
%ADD16C,0.150000*%
%ADD17C,0.050000*%
G04 APERTURE END LIST*
D10*
X58958057Y-52343857D02*
X59172342Y-52415285D01*
X59243771Y-52486714D01*
X59315200Y-52629571D01*
X59315200Y-52843857D01*
X59243771Y-52986714D01*
X59172342Y-53058142D01*
X59029485Y-53129571D01*
X58458057Y-53129571D01*
X58458057Y-51629571D01*
X58958057Y-51629571D01*
X59100914Y-51701000D01*
X59172342Y-51772428D01*
X59243771Y-51915285D01*
X59243771Y-52058142D01*
X59172342Y-52201000D01*
X59100914Y-52272428D01*
X58958057Y-52343857D01*
X58458057Y-52343857D01*
X59958057Y-53129571D02*
X59958057Y-52129571D01*
X59958057Y-52415285D02*
X60029485Y-52272428D01*
X60100914Y-52201000D01*
X60243771Y-52129571D01*
X60386628Y-52129571D01*
X61529485Y-52129571D02*
X61529485Y-53129571D01*
X60886628Y-52129571D02*
X60886628Y-52915285D01*
X60958057Y-53058142D01*
X61100914Y-53129571D01*
X61315200Y-53129571D01*
X61458057Y-53058142D01*
X61529485Y-52986714D01*
X62172342Y-53058142D02*
X62315200Y-53129571D01*
X62600914Y-53129571D01*
X62743771Y-53058142D01*
X62815200Y-52915285D01*
X62815200Y-52843857D01*
X62743771Y-52701000D01*
X62600914Y-52629571D01*
X62386628Y-52629571D01*
X62243771Y-52558142D01*
X62172342Y-52415285D01*
X62172342Y-52343857D01*
X62243771Y-52201000D01*
X62386628Y-52129571D01*
X62600914Y-52129571D01*
X62743771Y-52201000D01*
X63458057Y-53129571D02*
X63458057Y-51629571D01*
X64100914Y-53129571D02*
X64100914Y-52343857D01*
X64029485Y-52201000D01*
X63886628Y-52129571D01*
X63672342Y-52129571D01*
X63529485Y-52201000D01*
X63458057Y-52272428D01*
X65029485Y-53129571D02*
X64886628Y-53058142D01*
X64815200Y-52915285D01*
X64815200Y-51629571D01*
X66172342Y-53058142D02*
X66029485Y-53129571D01*
X65743771Y-53129571D01*
X65600914Y-53058142D01*
X65529485Y-52915285D01*
X65529485Y-52343857D01*
X65600914Y-52201000D01*
X65743771Y-52129571D01*
X66029485Y-52129571D01*
X66172342Y-52201000D01*
X66243771Y-52343857D01*
X66243771Y-52486714D01*
X65529485Y-52629571D01*
X66815200Y-53058142D02*
X66958057Y-53129571D01*
X67243771Y-53129571D01*
X67386628Y-53058142D01*
X67458057Y-52915285D01*
X67458057Y-52843857D01*
X67386628Y-52701000D01*
X67243771Y-52629571D01*
X67029485Y-52629571D01*
X66886628Y-52558142D01*
X66815200Y-52415285D01*
X66815200Y-52343857D01*
X66886628Y-52201000D01*
X67029485Y-52129571D01*
X67243771Y-52129571D01*
X67386628Y-52201000D01*
X68029485Y-53058142D02*
X68172342Y-53129571D01*
X68458057Y-53129571D01*
X68600914Y-53058142D01*
X68672342Y-52915285D01*
X68672342Y-52843857D01*
X68600914Y-52701000D01*
X68458057Y-52629571D01*
X68243771Y-52629571D01*
X68100914Y-52558142D01*
X68029485Y-52415285D01*
X68029485Y-52343857D01*
X68100914Y-52201000D01*
X68243771Y-52129571D01*
X68458057Y-52129571D01*
X68600914Y-52201000D01*
X70458057Y-53129571D02*
X70458057Y-51629571D01*
X70958057Y-52701000D01*
X71458057Y-51629571D01*
X71458057Y-53129571D01*
X72386628Y-53129571D02*
X72243771Y-53058142D01*
X72172342Y-52986714D01*
X72100914Y-52843857D01*
X72100914Y-52415285D01*
X72172342Y-52272428D01*
X72243771Y-52201000D01*
X72386628Y-52129571D01*
X72600914Y-52129571D01*
X72743771Y-52201000D01*
X72815200Y-52272428D01*
X72886628Y-52415285D01*
X72886628Y-52843857D01*
X72815200Y-52986714D01*
X72743771Y-53058142D01*
X72600914Y-53129571D01*
X72386628Y-53129571D01*
X73315200Y-52129571D02*
X73886628Y-52129571D01*
X73529485Y-51629571D02*
X73529485Y-52915285D01*
X73600914Y-53058142D01*
X73743771Y-53129571D01*
X73886628Y-53129571D01*
X74600914Y-53129571D02*
X74458057Y-53058142D01*
X74386628Y-52986714D01*
X74315200Y-52843857D01*
X74315200Y-52415285D01*
X74386628Y-52272428D01*
X74458057Y-52201000D01*
X74600914Y-52129571D01*
X74815200Y-52129571D01*
X74958057Y-52201000D01*
X75029485Y-52272428D01*
X75100914Y-52415285D01*
X75100914Y-52843857D01*
X75029485Y-52986714D01*
X74958057Y-53058142D01*
X74815200Y-53129571D01*
X74600914Y-53129571D01*
X75743771Y-53129571D02*
X75743771Y-52129571D01*
X75743771Y-52415285D02*
X75815200Y-52272428D01*
X75886628Y-52201000D01*
X76029485Y-52129571D01*
X76172342Y-52129571D01*
X76600914Y-53058142D02*
X76743771Y-53129571D01*
X77029485Y-53129571D01*
X77172342Y-53058142D01*
X77243771Y-52915285D01*
X77243771Y-52843857D01*
X77172342Y-52701000D01*
X77029485Y-52629571D01*
X76815200Y-52629571D01*
X76672342Y-52558142D01*
X76600914Y-52415285D01*
X76600914Y-52343857D01*
X76672342Y-52201000D01*
X76815200Y-52129571D01*
X77029485Y-52129571D01*
X77172342Y-52201000D01*
X78815200Y-51629571D02*
X79315200Y-53129571D01*
X79815200Y-51629571D01*
X81100914Y-53129571D02*
X80243771Y-53129571D01*
X80672342Y-53129571D02*
X80672342Y-51629571D01*
X80529485Y-51843857D01*
X80386628Y-51986714D01*
X80243771Y-52058142D01*
X81743771Y-52986714D02*
X81815200Y-53058142D01*
X81743771Y-53129571D01*
X81672342Y-53058142D01*
X81743771Y-52986714D01*
X81743771Y-53129571D01*
X82743771Y-51629571D02*
X82886628Y-51629571D01*
X83029485Y-51701000D01*
X83100914Y-51772428D01*
X83172342Y-51915285D01*
X83243771Y-52201000D01*
X83243771Y-52558142D01*
X83172342Y-52843857D01*
X83100914Y-52986714D01*
X83029485Y-53058142D01*
X82886628Y-53129571D01*
X82743771Y-53129571D01*
X82600914Y-53058142D01*
X82529485Y-52986714D01*
X82458057Y-52843857D01*
X82386628Y-52558142D01*
X82386628Y-52201000D01*
X82458057Y-51915285D01*
X82529485Y-51772428D01*
X82600914Y-51701000D01*
X82743771Y-51629571D01*
X119885714Y-103410714D02*
X119814285Y-103482142D01*
X119600000Y-103553571D01*
X119457142Y-103553571D01*
X119242857Y-103482142D01*
X119100000Y-103339285D01*
X119028571Y-103196428D01*
X118957142Y-102910714D01*
X118957142Y-102696428D01*
X119028571Y-102410714D01*
X119100000Y-102267857D01*
X119242857Y-102125000D01*
X119457142Y-102053571D01*
X119600000Y-102053571D01*
X119814285Y-102125000D01*
X119885714Y-102196428D01*
X120528571Y-103553571D02*
X120528571Y-102053571D01*
X120885714Y-102053571D01*
X121100000Y-102125000D01*
X121242857Y-102267857D01*
X121314285Y-102410714D01*
X121385714Y-102696428D01*
X121385714Y-102910714D01*
X121314285Y-103196428D01*
X121242857Y-103339285D01*
X121100000Y-103482142D01*
X120885714Y-103553571D01*
X120528571Y-103553571D01*
X122885714Y-103553571D02*
X122385714Y-102839285D01*
X122028571Y-103553571D02*
X122028571Y-102053571D01*
X122600000Y-102053571D01*
X122742857Y-102125000D01*
X122814285Y-102196428D01*
X122885714Y-102339285D01*
X122885714Y-102553571D01*
X122814285Y-102696428D01*
X122742857Y-102767857D01*
X122600000Y-102839285D01*
X122028571Y-102839285D01*
X124600000Y-102196428D02*
X124671428Y-102125000D01*
X124814285Y-102053571D01*
X125171428Y-102053571D01*
X125314285Y-102125000D01*
X125385714Y-102196428D01*
X125457142Y-102339285D01*
X125457142Y-102482142D01*
X125385714Y-102696428D01*
X124528571Y-103553571D01*
X125457142Y-103553571D01*
X126385714Y-102053571D02*
X126528571Y-102053571D01*
X126671428Y-102125000D01*
X126742857Y-102196428D01*
X126814285Y-102339285D01*
X126885714Y-102625000D01*
X126885714Y-102982142D01*
X126814285Y-103267857D01*
X126742857Y-103410714D01*
X126671428Y-103482142D01*
X126528571Y-103553571D01*
X126385714Y-103553571D01*
X126242857Y-103482142D01*
X126171428Y-103410714D01*
X126100000Y-103267857D01*
X126028571Y-102982142D01*
X126028571Y-102625000D01*
X126100000Y-102339285D01*
X126171428Y-102196428D01*
X126242857Y-102125000D01*
X126385714Y-102053571D01*
X127457142Y-102196428D02*
X127528571Y-102125000D01*
X127671428Y-102053571D01*
X128028571Y-102053571D01*
X128171428Y-102125000D01*
X128242857Y-102196428D01*
X128314285Y-102339285D01*
X128314285Y-102482142D01*
X128242857Y-102696428D01*
X127385714Y-103553571D01*
X128314285Y-103553571D01*
X129242857Y-102053571D02*
X129385714Y-102053571D01*
X129528571Y-102125000D01*
X129600000Y-102196428D01*
X129671428Y-102339285D01*
X129742857Y-102625000D01*
X129742857Y-102982142D01*
X129671428Y-103267857D01*
X129600000Y-103410714D01*
X129528571Y-103482142D01*
X129385714Y-103553571D01*
X129242857Y-103553571D01*
X129100000Y-103482142D01*
X129028571Y-103410714D01*
X128957142Y-103267857D01*
X128885714Y-102982142D01*
X128885714Y-102625000D01*
X128957142Y-102339285D01*
X129028571Y-102196428D01*
X129100000Y-102125000D01*
X129242857Y-102053571D01*
X128673742Y-58695742D02*
X129816600Y-58695742D01*
X129245171Y-59267171D02*
X129245171Y-58124314D01*
X131316600Y-59267171D02*
X130459457Y-59267171D01*
X130888028Y-59267171D02*
X130888028Y-57767171D01*
X130745171Y-57981457D01*
X130602314Y-58124314D01*
X130459457Y-58195742D01*
X131888028Y-57910028D02*
X131959457Y-57838600D01*
X132102314Y-57767171D01*
X132459457Y-57767171D01*
X132602314Y-57838600D01*
X132673742Y-57910028D01*
X132745171Y-58052885D01*
X132745171Y-58195742D01*
X132673742Y-58410028D01*
X131816600Y-59267171D01*
X132745171Y-59267171D01*
X133173742Y-57767171D02*
X133673742Y-59267171D01*
X134173742Y-57767171D01*
D11*
X106460000Y-93530000D02*
X111540000Y-93530000D01*
X106460000Y-103690000D02*
X106460000Y-93530000D01*
X111540000Y-103690000D02*
X106460000Y-103690000D01*
X111540000Y-93530000D02*
X111540000Y-103690000D01*
D12*
X109241000Y-92415000D02*
G75*
G03X109241000Y-92415000I-300000J0D01*
G01*
D11*
X81540000Y-103670000D02*
X76460000Y-103670000D01*
X81540000Y-93510000D02*
X81540000Y-103670000D01*
X76460000Y-93510000D02*
X81540000Y-93510000D01*
X76460000Y-103670000D02*
X76460000Y-93510000D01*
D12*
X79359000Y-104785000D02*
G75*
G03X79359000Y-104785000I-300000J0D01*
G01*
D13*
X122375000Y-63435000D02*
X121775000Y-63435000D01*
X122075000Y-62835000D02*
X122375000Y-63435000D01*
X121775000Y-63435000D02*
X122075000Y-62835000D01*
X117745000Y-51915000D02*
X117995000Y-50415000D01*
X116245000Y-51915000D02*
X117745000Y-51915000D01*
X115995000Y-50415000D02*
X116245000Y-51915000D01*
X117995000Y-50415000D02*
X115995000Y-50415000D01*
X122825000Y-51915000D02*
X123075000Y-50415000D01*
X121325000Y-51915000D02*
X122825000Y-51915000D01*
X121075000Y-50415000D02*
X121325000Y-51915000D01*
X123075000Y-50415000D02*
X121075000Y-50415000D01*
X113345000Y-51915000D02*
X125725000Y-51915000D01*
X113345000Y-53715000D02*
X113345000Y-51915000D01*
X125725000Y-53715000D02*
X113345000Y-53715000D01*
X125725000Y-51915000D02*
X125725000Y-53715000D01*
X113345000Y-62635000D02*
X125725000Y-62635000D01*
X113345000Y-50415000D02*
X113345000Y-62635000D01*
X125725000Y-50415000D02*
X113345000Y-50415000D01*
X125725000Y-62635000D02*
X125725000Y-50415000D01*
X133001600Y-60128600D02*
X130316600Y-60128600D01*
X133001600Y-62048600D02*
X133001600Y-60128600D01*
X130316600Y-62048600D02*
X133001600Y-62048600D01*
X131575178Y-62378600D02*
X131058022Y-62378600D01*
X131575178Y-63798600D02*
X131058022Y-63798600D01*
X128185000Y-83525000D02*
X127685000Y-83525000D01*
X127935000Y-83275000D02*
X127935000Y-83775000D01*
X125179437Y-84015000D02*
X124115000Y-85079437D01*
X127570563Y-84015000D02*
X128635000Y-85079437D01*
X127570563Y-84015000D02*
X127435000Y-84015000D01*
X125179437Y-84015000D02*
X125315000Y-84015000D01*
X124115000Y-85079437D02*
X124115000Y-88535000D01*
X128635000Y-85079437D02*
X128635000Y-88535000D01*
X128635000Y-88535000D02*
X127435000Y-88535000D01*
X124115000Y-88535000D02*
X125315000Y-88535000D01*
X124916422Y-79260000D02*
X125433578Y-79260000D01*
X124916422Y-77840000D02*
X125433578Y-77840000D01*
X110265000Y-90816422D02*
X110265000Y-91333578D01*
X111685000Y-90816422D02*
X111685000Y-91333578D01*
X114677800Y-69285578D02*
X114677800Y-68768422D01*
X113257800Y-69285578D02*
X113257800Y-68768422D01*
X114088600Y-90807622D02*
X114088600Y-91324778D01*
X115508600Y-90807622D02*
X115508600Y-91324778D01*
X107429822Y-85365200D02*
X107946978Y-85365200D01*
X107429822Y-83945200D02*
X107946978Y-83945200D01*
X107416422Y-79660000D02*
X107933578Y-79660000D01*
X107416422Y-78240000D02*
X107933578Y-78240000D01*
X107933578Y-72290000D02*
X107416422Y-72290000D01*
X107933578Y-73710000D02*
X107416422Y-73710000D01*
X107933578Y-74440000D02*
X107416422Y-74440000D01*
X107933578Y-75860000D02*
X107416422Y-75860000D01*
X119318600Y-91324778D02*
X119318600Y-90807622D01*
X117898600Y-91324778D02*
X117898600Y-90807622D01*
X113585000Y-91333578D02*
X113585000Y-90816422D01*
X112165000Y-91333578D02*
X112165000Y-90816422D01*
D12*
X113600000Y-72300000D02*
X120400000Y-72300000D01*
X120400000Y-72300000D02*
X120400000Y-87700000D01*
X120400000Y-87700000D02*
X113600000Y-87700000D01*
X113600000Y-87700000D02*
X113600000Y-72300000D01*
X111325000Y-72315000D02*
X113250000Y-72315000D01*
D14*
X128209000Y-83588000D02*
G75*
G03X128209000Y-83588000I-88000J0D01*
G01*
X130500000Y-84255000D02*
X130500000Y-70737000D01*
X137600000Y-68850000D02*
X133456000Y-68850000D01*
X137600000Y-86150000D02*
X133434000Y-86150000D01*
X137600000Y-68850000D02*
X137600000Y-86150000D01*
D13*
X125066422Y-73560000D02*
X125583578Y-73560000D01*
X125066422Y-72140000D02*
X125583578Y-72140000D01*
X125066422Y-75460000D02*
X125583578Y-75460000D01*
X125066422Y-74040000D02*
X125583578Y-74040000D01*
X115162800Y-68768422D02*
X115162800Y-69285578D01*
X116582800Y-68768422D02*
X116582800Y-69285578D01*
X121235000Y-91333578D02*
X121235000Y-90816422D01*
X119815000Y-91333578D02*
X119815000Y-90816422D01*
X107946978Y-82040200D02*
X107429822Y-82040200D01*
X107946978Y-83460200D02*
X107429822Y-83460200D01*
X107429822Y-87270200D02*
X107946978Y-87270200D01*
X107429822Y-85850200D02*
X107946978Y-85850200D01*
X107428922Y-81560000D02*
X107946078Y-81560000D01*
X107428922Y-80140000D02*
X107946078Y-80140000D01*
X117413600Y-91324778D02*
X117413600Y-90807622D01*
X115993600Y-91324778D02*
X115993600Y-90807622D01*
X107933578Y-76340000D02*
X107416422Y-76340000D01*
X107933578Y-77760000D02*
X107416422Y-77760000D01*
X121715000Y-90816422D02*
X121715000Y-91333578D01*
X123135000Y-90816422D02*
X123135000Y-91333578D01*
X117900000Y-66275000D02*
X121800000Y-66275000D01*
X117900000Y-68275000D02*
X121800000Y-68275000D01*
X117900000Y-66275000D02*
X117900000Y-68275000D01*
X117900000Y-68575000D02*
X121800000Y-68575000D01*
X117900000Y-70575000D02*
X121800000Y-70575000D01*
X117900000Y-68575000D02*
X117900000Y-70575000D01*
D15*
X84040000Y-60970000D02*
G75*
G03X84040000Y-60970000I-200000J0D01*
G01*
D11*
X103270000Y-103895000D02*
X84730000Y-103895000D01*
X103270000Y-51250000D02*
X103270000Y-103895000D01*
X84730000Y-51250000D02*
X103270000Y-51250000D01*
X84730000Y-103895000D02*
X84730000Y-51250000D01*
D13*
X62933578Y-82860000D02*
X62416422Y-82860000D01*
X62933578Y-81440000D02*
X62416422Y-81440000D01*
X80066422Y-81290000D02*
X80583578Y-81290000D01*
X80066422Y-82710000D02*
X80583578Y-82710000D01*
D14*
X50400000Y-86150000D02*
X50400000Y-68850000D01*
X50400000Y-68850000D02*
X54566000Y-68850000D01*
X50400000Y-86150000D02*
X54544000Y-86150000D01*
X57500000Y-70745000D02*
X57500000Y-84263000D01*
X59967000Y-71412000D02*
G75*
G03X59967000Y-71412000I-88000J0D01*
G01*
D13*
X74742200Y-85714422D02*
X74742200Y-86231578D01*
X73322200Y-85714422D02*
X73322200Y-86231578D01*
X80066422Y-79140000D02*
X80583578Y-79140000D01*
X80066422Y-80560000D02*
X80583578Y-80560000D01*
X70101400Y-63675222D02*
X70101400Y-64192378D01*
X68681400Y-63675222D02*
X68681400Y-64192378D01*
X75835000Y-63666422D02*
X75835000Y-64183578D01*
X74415000Y-63666422D02*
X74415000Y-64183578D01*
X80570178Y-71054800D02*
X80053022Y-71054800D01*
X80570178Y-69634800D02*
X80053022Y-69634800D01*
X64865000Y-64183578D02*
X64865000Y-63666422D01*
X66285000Y-64183578D02*
X66285000Y-63666422D01*
X80053022Y-71539800D02*
X80570178Y-71539800D01*
X80053022Y-72959800D02*
X80570178Y-72959800D01*
X71417200Y-86231578D02*
X71417200Y-85714422D01*
X72837200Y-86231578D02*
X72837200Y-85714422D01*
X80570178Y-69149800D02*
X80053022Y-69149800D01*
X80570178Y-67729800D02*
X80053022Y-67729800D01*
X70100000Y-88725000D02*
X70100000Y-86725000D01*
X70100000Y-86725000D02*
X66200000Y-86725000D01*
X70100000Y-88725000D02*
X66200000Y-88725000D01*
X63083578Y-77160000D02*
X62566422Y-77160000D01*
X63083578Y-75740000D02*
X62566422Y-75740000D01*
X62933578Y-80960000D02*
X62416422Y-80960000D01*
X62933578Y-79540000D02*
X62416422Y-79540000D01*
X72491400Y-64192378D02*
X72491400Y-63675222D01*
X73911400Y-64192378D02*
X73911400Y-63675222D01*
X80571078Y-74860000D02*
X80053922Y-74860000D01*
X80571078Y-73440000D02*
X80053922Y-73440000D01*
X72006400Y-63675222D02*
X72006400Y-64192378D01*
X70586400Y-63675222D02*
X70586400Y-64192378D01*
X63885000Y-66465000D02*
X62685000Y-66465000D01*
X59365000Y-66465000D02*
X60565000Y-66465000D01*
X59365000Y-69920563D02*
X59365000Y-66465000D01*
X63885000Y-69920563D02*
X63885000Y-66465000D01*
X62820563Y-70985000D02*
X62685000Y-70985000D01*
X60429437Y-70985000D02*
X60565000Y-70985000D01*
X60429437Y-70985000D02*
X59365000Y-69920563D01*
X62820563Y-70985000D02*
X63885000Y-69920563D01*
X60065000Y-71725000D02*
X60065000Y-71225000D01*
X59815000Y-71475000D02*
X60315000Y-71475000D01*
X80583578Y-76760000D02*
X80066422Y-76760000D01*
X80583578Y-75340000D02*
X80066422Y-75340000D01*
X68185000Y-63666422D02*
X68185000Y-64183578D01*
X66765000Y-63666422D02*
X66765000Y-64183578D01*
D12*
X76675000Y-82685000D02*
X74750000Y-82685000D01*
X74400000Y-67300000D02*
X74400000Y-82700000D01*
X67600000Y-67300000D02*
X74400000Y-67300000D01*
X67600000Y-82700000D02*
X67600000Y-67300000D01*
X74400000Y-82700000D02*
X67600000Y-82700000D01*
D13*
X80066422Y-77240000D02*
X80583578Y-77240000D01*
X80066422Y-78660000D02*
X80583578Y-78660000D01*
X70100000Y-86425000D02*
X70100000Y-84425000D01*
X70100000Y-84425000D02*
X66200000Y-84425000D01*
X70100000Y-86425000D02*
X66200000Y-86425000D01*
X76315000Y-64183578D02*
X76315000Y-63666422D01*
X77735000Y-64183578D02*
X77735000Y-63666422D01*
D16*
X112222666Y-97859180D02*
X112222666Y-98573466D01*
X112175047Y-98716323D01*
X112079809Y-98811561D01*
X111936952Y-98859180D01*
X111841714Y-98859180D01*
X112651238Y-97954419D02*
X112698857Y-97906800D01*
X112794095Y-97859180D01*
X113032190Y-97859180D01*
X113127428Y-97906800D01*
X113175047Y-97954419D01*
X113222666Y-98049657D01*
X113222666Y-98144895D01*
X113175047Y-98287752D01*
X112603619Y-98859180D01*
X113222666Y-98859180D01*
X75110666Y-98245580D02*
X75110666Y-98959866D01*
X75063047Y-99102723D01*
X74967809Y-99197961D01*
X74824952Y-99245580D01*
X74729714Y-99245580D01*
X75491619Y-98245580D02*
X76110666Y-98245580D01*
X75777333Y-98626533D01*
X75920190Y-98626533D01*
X76015428Y-98674152D01*
X76063047Y-98721771D01*
X76110666Y-98817009D01*
X76110666Y-99055104D01*
X76063047Y-99150342D01*
X76015428Y-99197961D01*
X75920190Y-99245580D01*
X75634476Y-99245580D01*
X75539238Y-99197961D01*
X75491619Y-99150342D01*
X119201666Y-63177380D02*
X119201666Y-63891666D01*
X119154047Y-64034523D01*
X119058809Y-64129761D01*
X118915952Y-64177380D01*
X118820714Y-64177380D01*
X120201666Y-64177380D02*
X119630238Y-64177380D01*
X119915952Y-64177380D02*
X119915952Y-63177380D01*
X119820714Y-63320238D01*
X119725476Y-63415476D01*
X119630238Y-63463095D01*
X133278504Y-61565980D02*
X133278504Y-60565980D01*
X133516600Y-60565980D01*
X133659457Y-60613600D01*
X133754695Y-60708838D01*
X133802314Y-60804076D01*
X133849933Y-60994552D01*
X133849933Y-61137409D01*
X133802314Y-61327885D01*
X133754695Y-61423123D01*
X133659457Y-61518361D01*
X133516600Y-61565980D01*
X133278504Y-61565980D01*
X134802314Y-61565980D02*
X134230885Y-61565980D01*
X134516600Y-61565980D02*
X134516600Y-60565980D01*
X134421361Y-60708838D01*
X134326123Y-60804076D01*
X134230885Y-60851695D01*
X133849933Y-63540980D02*
X133516600Y-63064790D01*
X133278504Y-63540980D02*
X133278504Y-62540980D01*
X133659457Y-62540980D01*
X133754695Y-62588600D01*
X133802314Y-62636219D01*
X133849933Y-62731457D01*
X133849933Y-62874314D01*
X133802314Y-62969552D01*
X133754695Y-63017171D01*
X133659457Y-63064790D01*
X133278504Y-63064790D01*
X134802314Y-63540980D02*
X134230885Y-63540980D01*
X134516600Y-63540980D02*
X134516600Y-62540980D01*
X134421361Y-62683838D01*
X134326123Y-62779076D01*
X134230885Y-62826695D01*
X129658333Y-88457142D02*
X129610714Y-88504761D01*
X129467857Y-88552380D01*
X129372619Y-88552380D01*
X129229761Y-88504761D01*
X129134523Y-88409523D01*
X129086904Y-88314285D01*
X129039285Y-88123809D01*
X129039285Y-87980952D01*
X129086904Y-87790476D01*
X129134523Y-87695238D01*
X129229761Y-87600000D01*
X129372619Y-87552380D01*
X129467857Y-87552380D01*
X129610714Y-87600000D01*
X129658333Y-87647619D01*
X130610714Y-88552380D02*
X130039285Y-88552380D01*
X130325000Y-88552380D02*
X130325000Y-87552380D01*
X130229761Y-87695238D01*
X130134523Y-87790476D01*
X130039285Y-87838095D01*
X123983333Y-80557142D02*
X123935714Y-80604761D01*
X123792857Y-80652380D01*
X123697619Y-80652380D01*
X123554761Y-80604761D01*
X123459523Y-80509523D01*
X123411904Y-80414285D01*
X123364285Y-80223809D01*
X123364285Y-80080952D01*
X123411904Y-79890476D01*
X123459523Y-79795238D01*
X123554761Y-79700000D01*
X123697619Y-79652380D01*
X123792857Y-79652380D01*
X123935714Y-79700000D01*
X123983333Y-79747619D01*
X124316666Y-79652380D02*
X124935714Y-79652380D01*
X124602380Y-80033333D01*
X124745238Y-80033333D01*
X124840476Y-80080952D01*
X124888095Y-80128571D01*
X124935714Y-80223809D01*
X124935714Y-80461904D01*
X124888095Y-80557142D01*
X124840476Y-80604761D01*
X124745238Y-80652380D01*
X124459523Y-80652380D01*
X124364285Y-80604761D01*
X124316666Y-80557142D01*
X110808333Y-89057142D02*
X110760714Y-89104761D01*
X110617857Y-89152380D01*
X110522619Y-89152380D01*
X110379761Y-89104761D01*
X110284523Y-89009523D01*
X110236904Y-88914285D01*
X110189285Y-88723809D01*
X110189285Y-88580952D01*
X110236904Y-88390476D01*
X110284523Y-88295238D01*
X110379761Y-88200000D01*
X110522619Y-88152380D01*
X110617857Y-88152380D01*
X110760714Y-88200000D01*
X110808333Y-88247619D01*
X111713095Y-88152380D02*
X111236904Y-88152380D01*
X111189285Y-88628571D01*
X111236904Y-88580952D01*
X111332142Y-88533333D01*
X111570238Y-88533333D01*
X111665476Y-88580952D01*
X111713095Y-88628571D01*
X111760714Y-88723809D01*
X111760714Y-88961904D01*
X111713095Y-89057142D01*
X111665476Y-89104761D01*
X111570238Y-89152380D01*
X111332142Y-89152380D01*
X111236904Y-89104761D01*
X111189285Y-89057142D01*
X111783333Y-69357142D02*
X111735714Y-69404761D01*
X111592857Y-69452380D01*
X111497619Y-69452380D01*
X111354761Y-69404761D01*
X111259523Y-69309523D01*
X111211904Y-69214285D01*
X111164285Y-69023809D01*
X111164285Y-68880952D01*
X111211904Y-68690476D01*
X111259523Y-68595238D01*
X111354761Y-68500000D01*
X111497619Y-68452380D01*
X111592857Y-68452380D01*
X111735714Y-68500000D01*
X111783333Y-68547619D01*
X112116666Y-68452380D02*
X112783333Y-68452380D01*
X112354761Y-69452380D01*
X114658333Y-89057142D02*
X114610714Y-89104761D01*
X114467857Y-89152380D01*
X114372619Y-89152380D01*
X114229761Y-89104761D01*
X114134523Y-89009523D01*
X114086904Y-88914285D01*
X114039285Y-88723809D01*
X114039285Y-88580952D01*
X114086904Y-88390476D01*
X114134523Y-88295238D01*
X114229761Y-88200000D01*
X114372619Y-88152380D01*
X114467857Y-88152380D01*
X114610714Y-88200000D01*
X114658333Y-88247619D01*
X115134523Y-89152380D02*
X115325000Y-89152380D01*
X115420238Y-89104761D01*
X115467857Y-89057142D01*
X115563095Y-88914285D01*
X115610714Y-88723809D01*
X115610714Y-88342857D01*
X115563095Y-88247619D01*
X115515476Y-88200000D01*
X115420238Y-88152380D01*
X115229761Y-88152380D01*
X115134523Y-88200000D01*
X115086904Y-88247619D01*
X115039285Y-88342857D01*
X115039285Y-88580952D01*
X115086904Y-88676190D01*
X115134523Y-88723809D01*
X115229761Y-88771428D01*
X115420238Y-88771428D01*
X115515476Y-88723809D01*
X115563095Y-88676190D01*
X115610714Y-88580952D01*
X104082142Y-85032142D02*
X104034523Y-85079761D01*
X103891666Y-85127380D01*
X103796428Y-85127380D01*
X103653571Y-85079761D01*
X103558333Y-84984523D01*
X103510714Y-84889285D01*
X103463095Y-84698809D01*
X103463095Y-84555952D01*
X103510714Y-84365476D01*
X103558333Y-84270238D01*
X103653571Y-84175000D01*
X103796428Y-84127380D01*
X103891666Y-84127380D01*
X104034523Y-84175000D01*
X104082142Y-84222619D01*
X105034523Y-85127380D02*
X104463095Y-85127380D01*
X104748809Y-85127380D02*
X104748809Y-84127380D01*
X104653571Y-84270238D01*
X104558333Y-84365476D01*
X104463095Y-84413095D01*
X105986904Y-85127380D02*
X105415476Y-85127380D01*
X105701190Y-85127380D02*
X105701190Y-84127380D01*
X105605952Y-84270238D01*
X105510714Y-84365476D01*
X105415476Y-84413095D01*
X104007142Y-79307142D02*
X103959523Y-79354761D01*
X103816666Y-79402380D01*
X103721428Y-79402380D01*
X103578571Y-79354761D01*
X103483333Y-79259523D01*
X103435714Y-79164285D01*
X103388095Y-78973809D01*
X103388095Y-78830952D01*
X103435714Y-78640476D01*
X103483333Y-78545238D01*
X103578571Y-78450000D01*
X103721428Y-78402380D01*
X103816666Y-78402380D01*
X103959523Y-78450000D01*
X104007142Y-78497619D01*
X104959523Y-79402380D02*
X104388095Y-79402380D01*
X104673809Y-79402380D02*
X104673809Y-78402380D01*
X104578571Y-78545238D01*
X104483333Y-78640476D01*
X104388095Y-78688095D01*
X105292857Y-78402380D02*
X105911904Y-78402380D01*
X105578571Y-78783333D01*
X105721428Y-78783333D01*
X105816666Y-78830952D01*
X105864285Y-78878571D01*
X105911904Y-78973809D01*
X105911904Y-79211904D01*
X105864285Y-79307142D01*
X105816666Y-79354761D01*
X105721428Y-79402380D01*
X105435714Y-79402380D01*
X105340476Y-79354761D01*
X105292857Y-79307142D01*
X104783333Y-73452380D02*
X104450000Y-72976190D01*
X104211904Y-73452380D02*
X104211904Y-72452380D01*
X104592857Y-72452380D01*
X104688095Y-72500000D01*
X104735714Y-72547619D01*
X104783333Y-72642857D01*
X104783333Y-72785714D01*
X104735714Y-72880952D01*
X104688095Y-72928571D01*
X104592857Y-72976190D01*
X104211904Y-72976190D01*
X105640476Y-72785714D02*
X105640476Y-73452380D01*
X105402380Y-72404761D02*
X105164285Y-73119047D01*
X105783333Y-73119047D01*
X104783333Y-75602380D02*
X104450000Y-75126190D01*
X104211904Y-75602380D02*
X104211904Y-74602380D01*
X104592857Y-74602380D01*
X104688095Y-74650000D01*
X104735714Y-74697619D01*
X104783333Y-74792857D01*
X104783333Y-74935714D01*
X104735714Y-75030952D01*
X104688095Y-75078571D01*
X104592857Y-75126190D01*
X104211904Y-75126190D01*
X105354761Y-75030952D02*
X105259523Y-74983333D01*
X105211904Y-74935714D01*
X105164285Y-74840476D01*
X105164285Y-74792857D01*
X105211904Y-74697619D01*
X105259523Y-74650000D01*
X105354761Y-74602380D01*
X105545238Y-74602380D01*
X105640476Y-74650000D01*
X105688095Y-74697619D01*
X105735714Y-74792857D01*
X105735714Y-74840476D01*
X105688095Y-74935714D01*
X105640476Y-74983333D01*
X105545238Y-75030952D01*
X105354761Y-75030952D01*
X105259523Y-75078571D01*
X105211904Y-75126190D01*
X105164285Y-75221428D01*
X105164285Y-75411904D01*
X105211904Y-75507142D01*
X105259523Y-75554761D01*
X105354761Y-75602380D01*
X105545238Y-75602380D01*
X105640476Y-75554761D01*
X105688095Y-75507142D01*
X105735714Y-75411904D01*
X105735714Y-75221428D01*
X105688095Y-75126190D01*
X105640476Y-75078571D01*
X105545238Y-75030952D01*
X117957142Y-89177380D02*
X117623809Y-88701190D01*
X117385714Y-89177380D02*
X117385714Y-88177380D01*
X117766666Y-88177380D01*
X117861904Y-88225000D01*
X117909523Y-88272619D01*
X117957142Y-88367857D01*
X117957142Y-88510714D01*
X117909523Y-88605952D01*
X117861904Y-88653571D01*
X117766666Y-88701190D01*
X117385714Y-88701190D01*
X118338095Y-88272619D02*
X118385714Y-88225000D01*
X118480952Y-88177380D01*
X118719047Y-88177380D01*
X118814285Y-88225000D01*
X118861904Y-88272619D01*
X118909523Y-88367857D01*
X118909523Y-88463095D01*
X118861904Y-88605952D01*
X118290476Y-89177380D01*
X118909523Y-89177380D01*
X119861904Y-89177380D02*
X119290476Y-89177380D01*
X119576190Y-89177380D02*
X119576190Y-88177380D01*
X119480952Y-88320238D01*
X119385714Y-88415476D01*
X119290476Y-88463095D01*
X112207142Y-94002380D02*
X111873809Y-93526190D01*
X111635714Y-94002380D02*
X111635714Y-93002380D01*
X112016666Y-93002380D01*
X112111904Y-93050000D01*
X112159523Y-93097619D01*
X112207142Y-93192857D01*
X112207142Y-93335714D01*
X112159523Y-93430952D01*
X112111904Y-93478571D01*
X112016666Y-93526190D01*
X111635714Y-93526190D01*
X112588095Y-93097619D02*
X112635714Y-93050000D01*
X112730952Y-93002380D01*
X112969047Y-93002380D01*
X113064285Y-93050000D01*
X113111904Y-93097619D01*
X113159523Y-93192857D01*
X113159523Y-93288095D01*
X113111904Y-93430952D01*
X112540476Y-94002380D01*
X113159523Y-94002380D01*
X114016666Y-93335714D02*
X114016666Y-94002380D01*
X113778571Y-92954761D02*
X113540476Y-93669047D01*
X114159523Y-93669047D01*
X116238095Y-70952380D02*
X116238095Y-71761904D01*
X116285714Y-71857142D01*
X116333333Y-71904761D01*
X116428571Y-71952380D01*
X116619047Y-71952380D01*
X116714285Y-71904761D01*
X116761904Y-71857142D01*
X116809523Y-71761904D01*
X116809523Y-70952380D01*
X117238095Y-71047619D02*
X117285714Y-71000000D01*
X117380952Y-70952380D01*
X117619047Y-70952380D01*
X117714285Y-71000000D01*
X117761904Y-71047619D01*
X117809523Y-71142857D01*
X117809523Y-71238095D01*
X117761904Y-71380952D01*
X117190476Y-71952380D01*
X117809523Y-71952380D01*
D14*
X134196666Y-66233523D02*
X134196666Y-67140666D01*
X134136190Y-67322095D01*
X134015238Y-67443047D01*
X133833809Y-67503523D01*
X133712857Y-67503523D01*
X135345714Y-66656857D02*
X135345714Y-67503523D01*
X135043333Y-66173047D02*
X134740952Y-67080190D01*
X135527142Y-67080190D01*
D16*
X125158333Y-71802380D02*
X124825000Y-71326190D01*
X124586904Y-71802380D02*
X124586904Y-70802380D01*
X124967857Y-70802380D01*
X125063095Y-70850000D01*
X125110714Y-70897619D01*
X125158333Y-70992857D01*
X125158333Y-71135714D01*
X125110714Y-71230952D01*
X125063095Y-71278571D01*
X124967857Y-71326190D01*
X124586904Y-71326190D01*
X125539285Y-70897619D02*
X125586904Y-70850000D01*
X125682142Y-70802380D01*
X125920238Y-70802380D01*
X126015476Y-70850000D01*
X126063095Y-70897619D01*
X126110714Y-70992857D01*
X126110714Y-71088095D01*
X126063095Y-71230952D01*
X125491666Y-71802380D01*
X126110714Y-71802380D01*
X125733333Y-76852380D02*
X125400000Y-76376190D01*
X125161904Y-76852380D02*
X125161904Y-75852380D01*
X125542857Y-75852380D01*
X125638095Y-75900000D01*
X125685714Y-75947619D01*
X125733333Y-76042857D01*
X125733333Y-76185714D01*
X125685714Y-76280952D01*
X125638095Y-76328571D01*
X125542857Y-76376190D01*
X125161904Y-76376190D01*
X126066666Y-75852380D02*
X126685714Y-75852380D01*
X126352380Y-76233333D01*
X126495238Y-76233333D01*
X126590476Y-76280952D01*
X126638095Y-76328571D01*
X126685714Y-76423809D01*
X126685714Y-76661904D01*
X126638095Y-76757142D01*
X126590476Y-76804761D01*
X126495238Y-76852380D01*
X126209523Y-76852380D01*
X126114285Y-76804761D01*
X126066666Y-76757142D01*
X115232142Y-67227380D02*
X114898809Y-66751190D01*
X114660714Y-67227380D02*
X114660714Y-66227380D01*
X115041666Y-66227380D01*
X115136904Y-66275000D01*
X115184523Y-66322619D01*
X115232142Y-66417857D01*
X115232142Y-66560714D01*
X115184523Y-66655952D01*
X115136904Y-66703571D01*
X115041666Y-66751190D01*
X114660714Y-66751190D01*
X116184523Y-67227380D02*
X115613095Y-67227380D01*
X115898809Y-67227380D02*
X115898809Y-66227380D01*
X115803571Y-66370238D01*
X115708333Y-66465476D01*
X115613095Y-66513095D01*
X116803571Y-66227380D02*
X116898809Y-66227380D01*
X116994047Y-66275000D01*
X117041666Y-66322619D01*
X117089285Y-66417857D01*
X117136904Y-66608333D01*
X117136904Y-66846428D01*
X117089285Y-67036904D01*
X117041666Y-67132142D01*
X116994047Y-67179761D01*
X116898809Y-67227380D01*
X116803571Y-67227380D01*
X116708333Y-67179761D01*
X116660714Y-67132142D01*
X116613095Y-67036904D01*
X116565476Y-66846428D01*
X116565476Y-66608333D01*
X116613095Y-66417857D01*
X116660714Y-66322619D01*
X116708333Y-66275000D01*
X116803571Y-66227380D01*
X119882142Y-94027380D02*
X119548809Y-93551190D01*
X119310714Y-94027380D02*
X119310714Y-93027380D01*
X119691666Y-93027380D01*
X119786904Y-93075000D01*
X119834523Y-93122619D01*
X119882142Y-93217857D01*
X119882142Y-93360714D01*
X119834523Y-93455952D01*
X119786904Y-93503571D01*
X119691666Y-93551190D01*
X119310714Y-93551190D01*
X120834523Y-94027380D02*
X120263095Y-94027380D01*
X120548809Y-94027380D02*
X120548809Y-93027380D01*
X120453571Y-93170238D01*
X120358333Y-93265476D01*
X120263095Y-93313095D01*
X121215476Y-93122619D02*
X121263095Y-93075000D01*
X121358333Y-93027380D01*
X121596428Y-93027380D01*
X121691666Y-93075000D01*
X121739285Y-93122619D01*
X121786904Y-93217857D01*
X121786904Y-93313095D01*
X121739285Y-93455952D01*
X121167857Y-94027380D01*
X121786904Y-94027380D01*
X104007142Y-83202380D02*
X103673809Y-82726190D01*
X103435714Y-83202380D02*
X103435714Y-82202380D01*
X103816666Y-82202380D01*
X103911904Y-82250000D01*
X103959523Y-82297619D01*
X104007142Y-82392857D01*
X104007142Y-82535714D01*
X103959523Y-82630952D01*
X103911904Y-82678571D01*
X103816666Y-82726190D01*
X103435714Y-82726190D01*
X104959523Y-83202380D02*
X104388095Y-83202380D01*
X104673809Y-83202380D02*
X104673809Y-82202380D01*
X104578571Y-82345238D01*
X104483333Y-82440476D01*
X104388095Y-82488095D01*
X105816666Y-82535714D02*
X105816666Y-83202380D01*
X105578571Y-82154761D02*
X105340476Y-82869047D01*
X105959523Y-82869047D01*
X107057142Y-88727380D02*
X106723809Y-88251190D01*
X106485714Y-88727380D02*
X106485714Y-87727380D01*
X106866666Y-87727380D01*
X106961904Y-87775000D01*
X107009523Y-87822619D01*
X107057142Y-87917857D01*
X107057142Y-88060714D01*
X107009523Y-88155952D01*
X106961904Y-88203571D01*
X106866666Y-88251190D01*
X106485714Y-88251190D01*
X108009523Y-88727380D02*
X107438095Y-88727380D01*
X107723809Y-88727380D02*
X107723809Y-87727380D01*
X107628571Y-87870238D01*
X107533333Y-87965476D01*
X107438095Y-88013095D01*
X108866666Y-87727380D02*
X108676190Y-87727380D01*
X108580952Y-87775000D01*
X108533333Y-87822619D01*
X108438095Y-87965476D01*
X108390476Y-88155952D01*
X108390476Y-88536904D01*
X108438095Y-88632142D01*
X108485714Y-88679761D01*
X108580952Y-88727380D01*
X108771428Y-88727380D01*
X108866666Y-88679761D01*
X108914285Y-88632142D01*
X108961904Y-88536904D01*
X108961904Y-88298809D01*
X108914285Y-88203571D01*
X108866666Y-88155952D01*
X108771428Y-88108333D01*
X108580952Y-88108333D01*
X108485714Y-88155952D01*
X108438095Y-88203571D01*
X108390476Y-88298809D01*
X104007142Y-81327380D02*
X103673809Y-80851190D01*
X103435714Y-81327380D02*
X103435714Y-80327380D01*
X103816666Y-80327380D01*
X103911904Y-80375000D01*
X103959523Y-80422619D01*
X104007142Y-80517857D01*
X104007142Y-80660714D01*
X103959523Y-80755952D01*
X103911904Y-80803571D01*
X103816666Y-80851190D01*
X103435714Y-80851190D01*
X104959523Y-81327380D02*
X104388095Y-81327380D01*
X104673809Y-81327380D02*
X104673809Y-80327380D01*
X104578571Y-80470238D01*
X104483333Y-80565476D01*
X104388095Y-80613095D01*
X105530952Y-80755952D02*
X105435714Y-80708333D01*
X105388095Y-80660714D01*
X105340476Y-80565476D01*
X105340476Y-80517857D01*
X105388095Y-80422619D01*
X105435714Y-80375000D01*
X105530952Y-80327380D01*
X105721428Y-80327380D01*
X105816666Y-80375000D01*
X105864285Y-80422619D01*
X105911904Y-80517857D01*
X105911904Y-80565476D01*
X105864285Y-80660714D01*
X105816666Y-80708333D01*
X105721428Y-80755952D01*
X105530952Y-80755952D01*
X105435714Y-80803571D01*
X105388095Y-80851190D01*
X105340476Y-80946428D01*
X105340476Y-81136904D01*
X105388095Y-81232142D01*
X105435714Y-81279761D01*
X105530952Y-81327380D01*
X105721428Y-81327380D01*
X105816666Y-81279761D01*
X105864285Y-81232142D01*
X105911904Y-81136904D01*
X105911904Y-80946428D01*
X105864285Y-80851190D01*
X105816666Y-80803571D01*
X105721428Y-80755952D01*
X116057142Y-94027380D02*
X115723809Y-93551190D01*
X115485714Y-94027380D02*
X115485714Y-93027380D01*
X115866666Y-93027380D01*
X115961904Y-93075000D01*
X116009523Y-93122619D01*
X116057142Y-93217857D01*
X116057142Y-93360714D01*
X116009523Y-93455952D01*
X115961904Y-93503571D01*
X115866666Y-93551190D01*
X115485714Y-93551190D01*
X116438095Y-93122619D02*
X116485714Y-93075000D01*
X116580952Y-93027380D01*
X116819047Y-93027380D01*
X116914285Y-93075000D01*
X116961904Y-93122619D01*
X117009523Y-93217857D01*
X117009523Y-93313095D01*
X116961904Y-93455952D01*
X116390476Y-94027380D01*
X117009523Y-94027380D01*
X117628571Y-93027380D02*
X117723809Y-93027380D01*
X117819047Y-93075000D01*
X117866666Y-93122619D01*
X117914285Y-93217857D01*
X117961904Y-93408333D01*
X117961904Y-93646428D01*
X117914285Y-93836904D01*
X117866666Y-93932142D01*
X117819047Y-93979761D01*
X117723809Y-94027380D01*
X117628571Y-94027380D01*
X117533333Y-93979761D01*
X117485714Y-93932142D01*
X117438095Y-93836904D01*
X117390476Y-93646428D01*
X117390476Y-93408333D01*
X117438095Y-93217857D01*
X117485714Y-93122619D01*
X117533333Y-93075000D01*
X117628571Y-93027380D01*
X104032142Y-77527380D02*
X103698809Y-77051190D01*
X103460714Y-77527380D02*
X103460714Y-76527380D01*
X103841666Y-76527380D01*
X103936904Y-76575000D01*
X103984523Y-76622619D01*
X104032142Y-76717857D01*
X104032142Y-76860714D01*
X103984523Y-76955952D01*
X103936904Y-77003571D01*
X103841666Y-77051190D01*
X103460714Y-77051190D01*
X104413095Y-76622619D02*
X104460714Y-76575000D01*
X104555952Y-76527380D01*
X104794047Y-76527380D01*
X104889285Y-76575000D01*
X104936904Y-76622619D01*
X104984523Y-76717857D01*
X104984523Y-76813095D01*
X104936904Y-76955952D01*
X104365476Y-77527380D01*
X104984523Y-77527380D01*
X105841666Y-76527380D02*
X105651190Y-76527380D01*
X105555952Y-76575000D01*
X105508333Y-76622619D01*
X105413095Y-76765476D01*
X105365476Y-76955952D01*
X105365476Y-77336904D01*
X105413095Y-77432142D01*
X105460714Y-77479761D01*
X105555952Y-77527380D01*
X105746428Y-77527380D01*
X105841666Y-77479761D01*
X105889285Y-77432142D01*
X105936904Y-77336904D01*
X105936904Y-77098809D01*
X105889285Y-77003571D01*
X105841666Y-76955952D01*
X105746428Y-76908333D01*
X105555952Y-76908333D01*
X105460714Y-76955952D01*
X105413095Y-77003571D01*
X105365476Y-77098809D01*
X121782142Y-89177380D02*
X121448809Y-88701190D01*
X121210714Y-89177380D02*
X121210714Y-88177380D01*
X121591666Y-88177380D01*
X121686904Y-88225000D01*
X121734523Y-88272619D01*
X121782142Y-88367857D01*
X121782142Y-88510714D01*
X121734523Y-88605952D01*
X121686904Y-88653571D01*
X121591666Y-88701190D01*
X121210714Y-88701190D01*
X122163095Y-88272619D02*
X122210714Y-88225000D01*
X122305952Y-88177380D01*
X122544047Y-88177380D01*
X122639285Y-88225000D01*
X122686904Y-88272619D01*
X122734523Y-88367857D01*
X122734523Y-88463095D01*
X122686904Y-88605952D01*
X122115476Y-89177380D01*
X122734523Y-89177380D01*
X123305952Y-88605952D02*
X123210714Y-88558333D01*
X123163095Y-88510714D01*
X123115476Y-88415476D01*
X123115476Y-88367857D01*
X123163095Y-88272619D01*
X123210714Y-88225000D01*
X123305952Y-88177380D01*
X123496428Y-88177380D01*
X123591666Y-88225000D01*
X123639285Y-88272619D01*
X123686904Y-88367857D01*
X123686904Y-88415476D01*
X123639285Y-88510714D01*
X123591666Y-88558333D01*
X123496428Y-88605952D01*
X123305952Y-88605952D01*
X123210714Y-88653571D01*
X123163095Y-88701190D01*
X123115476Y-88796428D01*
X123115476Y-88986904D01*
X123163095Y-89082142D01*
X123210714Y-89129761D01*
X123305952Y-89177380D01*
X123496428Y-89177380D01*
X123591666Y-89129761D01*
X123639285Y-89082142D01*
X123686904Y-88986904D01*
X123686904Y-88796428D01*
X123639285Y-88701190D01*
X123591666Y-88653571D01*
X123496428Y-88605952D01*
X122736904Y-67727380D02*
X122736904Y-66727380D01*
X122975000Y-66727380D01*
X123117857Y-66775000D01*
X123213095Y-66870238D01*
X123260714Y-66965476D01*
X123308333Y-67155952D01*
X123308333Y-67298809D01*
X123260714Y-67489285D01*
X123213095Y-67584523D01*
X123117857Y-67679761D01*
X122975000Y-67727380D01*
X122736904Y-67727380D01*
X123689285Y-66822619D02*
X123736904Y-66775000D01*
X123832142Y-66727380D01*
X124070238Y-66727380D01*
X124165476Y-66775000D01*
X124213095Y-66822619D01*
X124260714Y-66917857D01*
X124260714Y-67013095D01*
X124213095Y-67155952D01*
X123641666Y-67727380D01*
X124260714Y-67727380D01*
X122736904Y-70027380D02*
X122736904Y-69027380D01*
X122975000Y-69027380D01*
X123117857Y-69075000D01*
X123213095Y-69170238D01*
X123260714Y-69265476D01*
X123308333Y-69455952D01*
X123308333Y-69598809D01*
X123260714Y-69789285D01*
X123213095Y-69884523D01*
X123117857Y-69979761D01*
X122975000Y-70027380D01*
X122736904Y-70027380D01*
X123641666Y-69027380D02*
X124260714Y-69027380D01*
X123927380Y-69408333D01*
X124070238Y-69408333D01*
X124165476Y-69455952D01*
X124213095Y-69503571D01*
X124260714Y-69598809D01*
X124260714Y-69836904D01*
X124213095Y-69932142D01*
X124165476Y-69979761D01*
X124070238Y-70027380D01*
X123784523Y-70027380D01*
X123689285Y-69979761D01*
X123641666Y-69932142D01*
D17*
X103756520Y-51082030D02*
X103756520Y-52217290D01*
X103823300Y-52350850D01*
X103890080Y-52417630D01*
X104023640Y-52484410D01*
X104290760Y-52484410D01*
X104424320Y-52417630D01*
X104491100Y-52350850D01*
X104557880Y-52217290D01*
X104557880Y-51082030D01*
X105960260Y-52484410D02*
X105158900Y-52484410D01*
X105559580Y-52484410D02*
X105559580Y-51082030D01*
X105426020Y-51282370D01*
X105292460Y-51415930D01*
X105158900Y-51482710D01*
D16*
X62508333Y-84102380D02*
X62175000Y-83626190D01*
X61936904Y-84102380D02*
X61936904Y-83102380D01*
X62317857Y-83102380D01*
X62413095Y-83150000D01*
X62460714Y-83197619D01*
X62508333Y-83292857D01*
X62508333Y-83435714D01*
X62460714Y-83530952D01*
X62413095Y-83578571D01*
X62317857Y-83626190D01*
X61936904Y-83626190D01*
X63413095Y-83102380D02*
X62936904Y-83102380D01*
X62889285Y-83578571D01*
X62936904Y-83530952D01*
X63032142Y-83483333D01*
X63270238Y-83483333D01*
X63365476Y-83530952D01*
X63413095Y-83578571D01*
X63460714Y-83673809D01*
X63460714Y-83911904D01*
X63413095Y-84007142D01*
X63365476Y-84054761D01*
X63270238Y-84102380D01*
X63032142Y-84102380D01*
X62936904Y-84054761D01*
X62889285Y-84007142D01*
X82883333Y-82452380D02*
X82550000Y-81976190D01*
X82311904Y-82452380D02*
X82311904Y-81452380D01*
X82692857Y-81452380D01*
X82788095Y-81500000D01*
X82835714Y-81547619D01*
X82883333Y-81642857D01*
X82883333Y-81785714D01*
X82835714Y-81880952D01*
X82788095Y-81928571D01*
X82692857Y-81976190D01*
X82311904Y-81976190D01*
X83216666Y-81452380D02*
X83883333Y-81452380D01*
X83454761Y-82452380D01*
D14*
X52789666Y-87061523D02*
X52789666Y-87968666D01*
X52729190Y-88150095D01*
X52608238Y-88271047D01*
X52426809Y-88331523D01*
X52305857Y-88331523D01*
X53999190Y-87061523D02*
X53394428Y-87061523D01*
X53333952Y-87666285D01*
X53394428Y-87605809D01*
X53515380Y-87545333D01*
X53817761Y-87545333D01*
X53938714Y-87605809D01*
X53999190Y-87666285D01*
X54059666Y-87787238D01*
X54059666Y-88089619D01*
X53999190Y-88210571D01*
X53938714Y-88271047D01*
X53817761Y-88331523D01*
X53515380Y-88331523D01*
X53394428Y-88271047D01*
X53333952Y-88210571D01*
D16*
X75883333Y-86357142D02*
X75835714Y-86404761D01*
X75692857Y-86452380D01*
X75597619Y-86452380D01*
X75454761Y-86404761D01*
X75359523Y-86309523D01*
X75311904Y-86214285D01*
X75264285Y-86023809D01*
X75264285Y-85880952D01*
X75311904Y-85690476D01*
X75359523Y-85595238D01*
X75454761Y-85500000D01*
X75597619Y-85452380D01*
X75692857Y-85452380D01*
X75835714Y-85500000D01*
X75883333Y-85547619D01*
X76454761Y-85880952D02*
X76359523Y-85833333D01*
X76311904Y-85785714D01*
X76264285Y-85690476D01*
X76264285Y-85642857D01*
X76311904Y-85547619D01*
X76359523Y-85500000D01*
X76454761Y-85452380D01*
X76645238Y-85452380D01*
X76740476Y-85500000D01*
X76788095Y-85547619D01*
X76835714Y-85642857D01*
X76835714Y-85690476D01*
X76788095Y-85785714D01*
X76740476Y-85833333D01*
X76645238Y-85880952D01*
X76454761Y-85880952D01*
X76359523Y-85928571D01*
X76311904Y-85976190D01*
X76264285Y-86071428D01*
X76264285Y-86261904D01*
X76311904Y-86357142D01*
X76359523Y-86404761D01*
X76454761Y-86452380D01*
X76645238Y-86452380D01*
X76740476Y-86404761D01*
X76788095Y-86357142D01*
X76835714Y-86261904D01*
X76835714Y-86071428D01*
X76788095Y-85976190D01*
X76740476Y-85928571D01*
X76645238Y-85880952D01*
X82883333Y-80302380D02*
X82550000Y-79826190D01*
X82311904Y-80302380D02*
X82311904Y-79302380D01*
X82692857Y-79302380D01*
X82788095Y-79350000D01*
X82835714Y-79397619D01*
X82883333Y-79492857D01*
X82883333Y-79635714D01*
X82835714Y-79730952D01*
X82788095Y-79778571D01*
X82692857Y-79826190D01*
X82311904Y-79826190D01*
X83359523Y-80302380D02*
X83550000Y-80302380D01*
X83645238Y-80254761D01*
X83692857Y-80207142D01*
X83788095Y-80064285D01*
X83835714Y-79873809D01*
X83835714Y-79492857D01*
X83788095Y-79397619D01*
X83740476Y-79350000D01*
X83645238Y-79302380D01*
X83454761Y-79302380D01*
X83359523Y-79350000D01*
X83311904Y-79397619D01*
X83264285Y-79492857D01*
X83264285Y-79730952D01*
X83311904Y-79826190D01*
X83359523Y-79873809D01*
X83454761Y-79921428D01*
X83645238Y-79921428D01*
X83740476Y-79873809D01*
X83788095Y-79826190D01*
X83835714Y-79730952D01*
X68757142Y-66727380D02*
X68423809Y-66251190D01*
X68185714Y-66727380D02*
X68185714Y-65727380D01*
X68566666Y-65727380D01*
X68661904Y-65775000D01*
X68709523Y-65822619D01*
X68757142Y-65917857D01*
X68757142Y-66060714D01*
X68709523Y-66155952D01*
X68661904Y-66203571D01*
X68566666Y-66251190D01*
X68185714Y-66251190D01*
X69138095Y-65822619D02*
X69185714Y-65775000D01*
X69280952Y-65727380D01*
X69519047Y-65727380D01*
X69614285Y-65775000D01*
X69661904Y-65822619D01*
X69709523Y-65917857D01*
X69709523Y-66013095D01*
X69661904Y-66155952D01*
X69090476Y-66727380D01*
X69709523Y-66727380D01*
X70042857Y-65727380D02*
X70661904Y-65727380D01*
X70328571Y-66108333D01*
X70471428Y-66108333D01*
X70566666Y-66155952D01*
X70614285Y-66203571D01*
X70661904Y-66298809D01*
X70661904Y-66536904D01*
X70614285Y-66632142D01*
X70566666Y-66679761D01*
X70471428Y-66727380D01*
X70185714Y-66727380D01*
X70090476Y-66679761D01*
X70042857Y-66632142D01*
X74507142Y-61902380D02*
X74173809Y-61426190D01*
X73935714Y-61902380D02*
X73935714Y-60902380D01*
X74316666Y-60902380D01*
X74411904Y-60950000D01*
X74459523Y-60997619D01*
X74507142Y-61092857D01*
X74507142Y-61235714D01*
X74459523Y-61330952D01*
X74411904Y-61378571D01*
X74316666Y-61426190D01*
X73935714Y-61426190D01*
X74888095Y-60997619D02*
X74935714Y-60950000D01*
X75030952Y-60902380D01*
X75269047Y-60902380D01*
X75364285Y-60950000D01*
X75411904Y-60997619D01*
X75459523Y-61092857D01*
X75459523Y-61188095D01*
X75411904Y-61330952D01*
X74840476Y-61902380D01*
X75459523Y-61902380D01*
X76364285Y-60902380D02*
X75888095Y-60902380D01*
X75840476Y-61378571D01*
X75888095Y-61330952D01*
X75983333Y-61283333D01*
X76221428Y-61283333D01*
X76316666Y-61330952D01*
X76364285Y-61378571D01*
X76411904Y-61473809D01*
X76411904Y-61711904D01*
X76364285Y-61807142D01*
X76316666Y-61854761D01*
X76221428Y-61902380D01*
X75983333Y-61902380D01*
X75888095Y-61854761D01*
X75840476Y-61807142D01*
X82632142Y-70682142D02*
X82584523Y-70729761D01*
X82441666Y-70777380D01*
X82346428Y-70777380D01*
X82203571Y-70729761D01*
X82108333Y-70634523D01*
X82060714Y-70539285D01*
X82013095Y-70348809D01*
X82013095Y-70205952D01*
X82060714Y-70015476D01*
X82108333Y-69920238D01*
X82203571Y-69825000D01*
X82346428Y-69777380D01*
X82441666Y-69777380D01*
X82584523Y-69825000D01*
X82632142Y-69872619D01*
X83584523Y-70777380D02*
X83013095Y-70777380D01*
X83298809Y-70777380D02*
X83298809Y-69777380D01*
X83203571Y-69920238D01*
X83108333Y-70015476D01*
X83013095Y-70063095D01*
X83965476Y-69872619D02*
X84013095Y-69825000D01*
X84108333Y-69777380D01*
X84346428Y-69777380D01*
X84441666Y-69825000D01*
X84489285Y-69872619D01*
X84536904Y-69967857D01*
X84536904Y-70063095D01*
X84489285Y-70205952D01*
X83917857Y-70777380D01*
X84536904Y-70777380D01*
X64932142Y-66727380D02*
X64598809Y-66251190D01*
X64360714Y-66727380D02*
X64360714Y-65727380D01*
X64741666Y-65727380D01*
X64836904Y-65775000D01*
X64884523Y-65822619D01*
X64932142Y-65917857D01*
X64932142Y-66060714D01*
X64884523Y-66155952D01*
X64836904Y-66203571D01*
X64741666Y-66251190D01*
X64360714Y-66251190D01*
X65313095Y-65822619D02*
X65360714Y-65775000D01*
X65455952Y-65727380D01*
X65694047Y-65727380D01*
X65789285Y-65775000D01*
X65836904Y-65822619D01*
X65884523Y-65917857D01*
X65884523Y-66013095D01*
X65836904Y-66155952D01*
X65265476Y-66727380D01*
X65884523Y-66727380D01*
X66360714Y-66727380D02*
X66551190Y-66727380D01*
X66646428Y-66679761D01*
X66694047Y-66632142D01*
X66789285Y-66489285D01*
X66836904Y-66298809D01*
X66836904Y-65917857D01*
X66789285Y-65822619D01*
X66741666Y-65775000D01*
X66646428Y-65727380D01*
X66455952Y-65727380D01*
X66360714Y-65775000D01*
X66313095Y-65822619D01*
X66265476Y-65917857D01*
X66265476Y-66155952D01*
X66313095Y-66251190D01*
X66360714Y-66298809D01*
X66455952Y-66346428D01*
X66646428Y-66346428D01*
X66741666Y-66298809D01*
X66789285Y-66251190D01*
X66836904Y-66155952D01*
X82707142Y-72702380D02*
X82373809Y-72226190D01*
X82135714Y-72702380D02*
X82135714Y-71702380D01*
X82516666Y-71702380D01*
X82611904Y-71750000D01*
X82659523Y-71797619D01*
X82707142Y-71892857D01*
X82707142Y-72035714D01*
X82659523Y-72130952D01*
X82611904Y-72178571D01*
X82516666Y-72226190D01*
X82135714Y-72226190D01*
X83659523Y-72702380D02*
X83088095Y-72702380D01*
X83373809Y-72702380D02*
X83373809Y-71702380D01*
X83278571Y-71845238D01*
X83183333Y-71940476D01*
X83088095Y-71988095D01*
X84564285Y-71702380D02*
X84088095Y-71702380D01*
X84040476Y-72178571D01*
X84088095Y-72130952D01*
X84183333Y-72083333D01*
X84421428Y-72083333D01*
X84516666Y-72130952D01*
X84564285Y-72178571D01*
X84611904Y-72273809D01*
X84611904Y-72511904D01*
X84564285Y-72607142D01*
X84516666Y-72654761D01*
X84421428Y-72702380D01*
X84183333Y-72702380D01*
X84088095Y-72654761D01*
X84040476Y-72607142D01*
X71482142Y-88677380D02*
X71148809Y-88201190D01*
X70910714Y-88677380D02*
X70910714Y-87677380D01*
X71291666Y-87677380D01*
X71386904Y-87725000D01*
X71434523Y-87772619D01*
X71482142Y-87867857D01*
X71482142Y-88010714D01*
X71434523Y-88105952D01*
X71386904Y-88153571D01*
X71291666Y-88201190D01*
X70910714Y-88201190D01*
X72434523Y-88677380D02*
X71863095Y-88677380D01*
X72148809Y-88677380D02*
X72148809Y-87677380D01*
X72053571Y-87820238D01*
X71958333Y-87915476D01*
X71863095Y-87963095D01*
X73386904Y-88677380D02*
X72815476Y-88677380D01*
X73101190Y-88677380D02*
X73101190Y-87677380D01*
X73005952Y-87820238D01*
X72910714Y-87915476D01*
X72815476Y-87963095D01*
X79657142Y-67177380D02*
X79323809Y-66701190D01*
X79085714Y-67177380D02*
X79085714Y-66177380D01*
X79466666Y-66177380D01*
X79561904Y-66225000D01*
X79609523Y-66272619D01*
X79657142Y-66367857D01*
X79657142Y-66510714D01*
X79609523Y-66605952D01*
X79561904Y-66653571D01*
X79466666Y-66701190D01*
X79085714Y-66701190D01*
X80609523Y-67177380D02*
X80038095Y-67177380D01*
X80323809Y-67177380D02*
X80323809Y-66177380D01*
X80228571Y-66320238D01*
X80133333Y-66415476D01*
X80038095Y-66463095D01*
X80942857Y-66177380D02*
X81609523Y-66177380D01*
X81180952Y-67177380D01*
X63786904Y-88177380D02*
X63786904Y-87177380D01*
X64025000Y-87177380D01*
X64167857Y-87225000D01*
X64263095Y-87320238D01*
X64310714Y-87415476D01*
X64358333Y-87605952D01*
X64358333Y-87748809D01*
X64310714Y-87939285D01*
X64263095Y-88034523D01*
X64167857Y-88129761D01*
X64025000Y-88177380D01*
X63786904Y-88177380D01*
X65215476Y-87510714D02*
X65215476Y-88177380D01*
X64977380Y-87129761D02*
X64739285Y-87844047D01*
X65358333Y-87844047D01*
X63683333Y-75157142D02*
X63635714Y-75204761D01*
X63492857Y-75252380D01*
X63397619Y-75252380D01*
X63254761Y-75204761D01*
X63159523Y-75109523D01*
X63111904Y-75014285D01*
X63064285Y-74823809D01*
X63064285Y-74680952D01*
X63111904Y-74490476D01*
X63159523Y-74395238D01*
X63254761Y-74300000D01*
X63397619Y-74252380D01*
X63492857Y-74252380D01*
X63635714Y-74300000D01*
X63683333Y-74347619D01*
X64540476Y-74585714D02*
X64540476Y-75252380D01*
X64302380Y-74204761D02*
X64064285Y-74919047D01*
X64683333Y-74919047D01*
X61933333Y-79052380D02*
X61600000Y-78576190D01*
X61361904Y-79052380D02*
X61361904Y-78052380D01*
X61742857Y-78052380D01*
X61838095Y-78100000D01*
X61885714Y-78147619D01*
X61933333Y-78242857D01*
X61933333Y-78385714D01*
X61885714Y-78480952D01*
X61838095Y-78528571D01*
X61742857Y-78576190D01*
X61361904Y-78576190D01*
X62790476Y-78052380D02*
X62600000Y-78052380D01*
X62504761Y-78100000D01*
X62457142Y-78147619D01*
X62361904Y-78290476D01*
X62314285Y-78480952D01*
X62314285Y-78861904D01*
X62361904Y-78957142D01*
X62409523Y-79004761D01*
X62504761Y-79052380D01*
X62695238Y-79052380D01*
X62790476Y-79004761D01*
X62838095Y-78957142D01*
X62885714Y-78861904D01*
X62885714Y-78623809D01*
X62838095Y-78528571D01*
X62790476Y-78480952D01*
X62695238Y-78433333D01*
X62504761Y-78433333D01*
X62409523Y-78480952D01*
X62361904Y-78528571D01*
X62314285Y-78623809D01*
X72532142Y-66657142D02*
X72484523Y-66704761D01*
X72341666Y-66752380D01*
X72246428Y-66752380D01*
X72103571Y-66704761D01*
X72008333Y-66609523D01*
X71960714Y-66514285D01*
X71913095Y-66323809D01*
X71913095Y-66180952D01*
X71960714Y-65990476D01*
X72008333Y-65895238D01*
X72103571Y-65800000D01*
X72246428Y-65752380D01*
X72341666Y-65752380D01*
X72484523Y-65800000D01*
X72532142Y-65847619D01*
X73484523Y-66752380D02*
X72913095Y-66752380D01*
X73198809Y-66752380D02*
X73198809Y-65752380D01*
X73103571Y-65895238D01*
X73008333Y-65990476D01*
X72913095Y-66038095D01*
X74103571Y-65752380D02*
X74198809Y-65752380D01*
X74294047Y-65800000D01*
X74341666Y-65847619D01*
X74389285Y-65942857D01*
X74436904Y-66133333D01*
X74436904Y-66371428D01*
X74389285Y-66561904D01*
X74341666Y-66657142D01*
X74294047Y-66704761D01*
X74198809Y-66752380D01*
X74103571Y-66752380D01*
X74008333Y-66704761D01*
X73960714Y-66657142D01*
X73913095Y-66561904D01*
X73865476Y-66371428D01*
X73865476Y-66133333D01*
X73913095Y-65942857D01*
X73960714Y-65847619D01*
X74008333Y-65800000D01*
X74103571Y-65752380D01*
X82707142Y-74577380D02*
X82373809Y-74101190D01*
X82135714Y-74577380D02*
X82135714Y-73577380D01*
X82516666Y-73577380D01*
X82611904Y-73625000D01*
X82659523Y-73672619D01*
X82707142Y-73767857D01*
X82707142Y-73910714D01*
X82659523Y-74005952D01*
X82611904Y-74053571D01*
X82516666Y-74101190D01*
X82135714Y-74101190D01*
X83659523Y-74577380D02*
X83088095Y-74577380D01*
X83373809Y-74577380D02*
X83373809Y-73577380D01*
X83278571Y-73720238D01*
X83183333Y-73815476D01*
X83088095Y-73863095D01*
X84135714Y-74577380D02*
X84326190Y-74577380D01*
X84421428Y-74529761D01*
X84469047Y-74482142D01*
X84564285Y-74339285D01*
X84611904Y-74148809D01*
X84611904Y-73767857D01*
X84564285Y-73672619D01*
X84516666Y-73625000D01*
X84421428Y-73577380D01*
X84230952Y-73577380D01*
X84135714Y-73625000D01*
X84088095Y-73672619D01*
X84040476Y-73767857D01*
X84040476Y-74005952D01*
X84088095Y-74101190D01*
X84135714Y-74148809D01*
X84230952Y-74196428D01*
X84421428Y-74196428D01*
X84516666Y-74148809D01*
X84564285Y-74101190D01*
X84611904Y-74005952D01*
X70657142Y-61877380D02*
X70323809Y-61401190D01*
X70085714Y-61877380D02*
X70085714Y-60877380D01*
X70466666Y-60877380D01*
X70561904Y-60925000D01*
X70609523Y-60972619D01*
X70657142Y-61067857D01*
X70657142Y-61210714D01*
X70609523Y-61305952D01*
X70561904Y-61353571D01*
X70466666Y-61401190D01*
X70085714Y-61401190D01*
X71038095Y-60972619D02*
X71085714Y-60925000D01*
X71180952Y-60877380D01*
X71419047Y-60877380D01*
X71514285Y-60925000D01*
X71561904Y-60972619D01*
X71609523Y-61067857D01*
X71609523Y-61163095D01*
X71561904Y-61305952D01*
X70990476Y-61877380D01*
X71609523Y-61877380D01*
X71990476Y-60972619D02*
X72038095Y-60925000D01*
X72133333Y-60877380D01*
X72371428Y-60877380D01*
X72466666Y-60925000D01*
X72514285Y-60972619D01*
X72561904Y-61067857D01*
X72561904Y-61163095D01*
X72514285Y-61305952D01*
X71942857Y-61877380D01*
X72561904Y-61877380D01*
X58008333Y-67257142D02*
X57960714Y-67304761D01*
X57817857Y-67352380D01*
X57722619Y-67352380D01*
X57579761Y-67304761D01*
X57484523Y-67209523D01*
X57436904Y-67114285D01*
X57389285Y-66923809D01*
X57389285Y-66780952D01*
X57436904Y-66590476D01*
X57484523Y-66495238D01*
X57579761Y-66400000D01*
X57722619Y-66352380D01*
X57817857Y-66352380D01*
X57960714Y-66400000D01*
X58008333Y-66447619D01*
X58389285Y-66447619D02*
X58436904Y-66400000D01*
X58532142Y-66352380D01*
X58770238Y-66352380D01*
X58865476Y-66400000D01*
X58913095Y-66447619D01*
X58960714Y-66542857D01*
X58960714Y-66638095D01*
X58913095Y-66780952D01*
X58341666Y-67352380D01*
X58960714Y-67352380D01*
X82707142Y-76407142D02*
X82659523Y-76454761D01*
X82516666Y-76502380D01*
X82421428Y-76502380D01*
X82278571Y-76454761D01*
X82183333Y-76359523D01*
X82135714Y-76264285D01*
X82088095Y-76073809D01*
X82088095Y-75930952D01*
X82135714Y-75740476D01*
X82183333Y-75645238D01*
X82278571Y-75550000D01*
X82421428Y-75502380D01*
X82516666Y-75502380D01*
X82659523Y-75550000D01*
X82707142Y-75597619D01*
X83659523Y-76502380D02*
X83088095Y-76502380D01*
X83373809Y-76502380D02*
X83373809Y-75502380D01*
X83278571Y-75645238D01*
X83183333Y-75740476D01*
X83088095Y-75788095D01*
X84516666Y-75835714D02*
X84516666Y-76502380D01*
X84278571Y-75454761D02*
X84040476Y-76169047D01*
X84659523Y-76169047D01*
X66832142Y-61877380D02*
X66498809Y-61401190D01*
X66260714Y-61877380D02*
X66260714Y-60877380D01*
X66641666Y-60877380D01*
X66736904Y-60925000D01*
X66784523Y-60972619D01*
X66832142Y-61067857D01*
X66832142Y-61210714D01*
X66784523Y-61305952D01*
X66736904Y-61353571D01*
X66641666Y-61401190D01*
X66260714Y-61401190D01*
X67784523Y-61877380D02*
X67213095Y-61877380D01*
X67498809Y-61877380D02*
X67498809Y-60877380D01*
X67403571Y-61020238D01*
X67308333Y-61115476D01*
X67213095Y-61163095D01*
X68117857Y-60877380D02*
X68736904Y-60877380D01*
X68403571Y-61258333D01*
X68546428Y-61258333D01*
X68641666Y-61305952D01*
X68689285Y-61353571D01*
X68736904Y-61448809D01*
X68736904Y-61686904D01*
X68689285Y-61782142D01*
X68641666Y-61829761D01*
X68546428Y-61877380D01*
X68260714Y-61877380D01*
X68165476Y-61829761D01*
X68117857Y-61782142D01*
X70238095Y-82952380D02*
X70238095Y-83761904D01*
X70285714Y-83857142D01*
X70333333Y-83904761D01*
X70428571Y-83952380D01*
X70619047Y-83952380D01*
X70714285Y-83904761D01*
X70761904Y-83857142D01*
X70809523Y-83761904D01*
X70809523Y-82952380D01*
X71190476Y-82952380D02*
X71809523Y-82952380D01*
X71476190Y-83333333D01*
X71619047Y-83333333D01*
X71714285Y-83380952D01*
X71761904Y-83428571D01*
X71809523Y-83523809D01*
X71809523Y-83761904D01*
X71761904Y-83857142D01*
X71714285Y-83904761D01*
X71619047Y-83952380D01*
X71333333Y-83952380D01*
X71238095Y-83904761D01*
X71190476Y-83857142D01*
X82682142Y-78377380D02*
X82348809Y-77901190D01*
X82110714Y-78377380D02*
X82110714Y-77377380D01*
X82491666Y-77377380D01*
X82586904Y-77425000D01*
X82634523Y-77472619D01*
X82682142Y-77567857D01*
X82682142Y-77710714D01*
X82634523Y-77805952D01*
X82586904Y-77853571D01*
X82491666Y-77901190D01*
X82110714Y-77901190D01*
X83063095Y-77472619D02*
X83110714Y-77425000D01*
X83205952Y-77377380D01*
X83444047Y-77377380D01*
X83539285Y-77425000D01*
X83586904Y-77472619D01*
X83634523Y-77567857D01*
X83634523Y-77663095D01*
X83586904Y-77805952D01*
X83015476Y-78377380D01*
X83634523Y-78377380D01*
X83967857Y-77377380D02*
X84634523Y-77377380D01*
X84205952Y-78377380D01*
X63786904Y-85877380D02*
X63786904Y-84877380D01*
X64025000Y-84877380D01*
X64167857Y-84925000D01*
X64263095Y-85020238D01*
X64310714Y-85115476D01*
X64358333Y-85305952D01*
X64358333Y-85448809D01*
X64310714Y-85639285D01*
X64263095Y-85734523D01*
X64167857Y-85829761D01*
X64025000Y-85877380D01*
X63786904Y-85877380D01*
X65263095Y-84877380D02*
X64786904Y-84877380D01*
X64739285Y-85353571D01*
X64786904Y-85305952D01*
X64882142Y-85258333D01*
X65120238Y-85258333D01*
X65215476Y-85305952D01*
X65263095Y-85353571D01*
X65310714Y-85448809D01*
X65310714Y-85686904D01*
X65263095Y-85782142D01*
X65215476Y-85829761D01*
X65120238Y-85877380D01*
X64882142Y-85877380D01*
X64786904Y-85829761D01*
X64739285Y-85782142D01*
X76858333Y-66657142D02*
X76810714Y-66704761D01*
X76667857Y-66752380D01*
X76572619Y-66752380D01*
X76429761Y-66704761D01*
X76334523Y-66609523D01*
X76286904Y-66514285D01*
X76239285Y-66323809D01*
X76239285Y-66180952D01*
X76286904Y-65990476D01*
X76334523Y-65895238D01*
X76429761Y-65800000D01*
X76572619Y-65752380D01*
X76667857Y-65752380D01*
X76810714Y-65800000D01*
X76858333Y-65847619D01*
X77715476Y-65752380D02*
X77525000Y-65752380D01*
X77429761Y-65800000D01*
X77382142Y-65847619D01*
X77286904Y-65990476D01*
X77239285Y-66180952D01*
X77239285Y-66561904D01*
X77286904Y-66657142D01*
X77334523Y-66704761D01*
X77429761Y-66752380D01*
X77620238Y-66752380D01*
X77715476Y-66704761D01*
X77763095Y-66657142D01*
X77810714Y-66561904D01*
X77810714Y-66323809D01*
X77763095Y-66228571D01*
X77715476Y-66180952D01*
X77620238Y-66133333D01*
X77429761Y-66133333D01*
X77334523Y-66180952D01*
X77286904Y-66228571D01*
X77239285Y-66323809D01*
M02*
